<?xml version="1.0" encoding="UTF-8" standalone="no"?>
<!-- Created with Inkscape (http://www.inkscape.org/) -->

<svg
   xmlns:dc="http://purl.org/dc/elements/1.1/"
   xmlns:cc="http://creativecommons.org/ns#"
   xmlns:rdf="http://www.w3.org/1999/02/22-rdf-syntax-ns#"
   xmlns:svg="http://www.w3.org/2000/svg"
   xmlns="http://www.w3.org/2000/svg"
   xmlns:sodipodi="http://sodipodi.sourceforge.net/DTD/sodipodi-0.dtd"
   xmlns:inkscape="http://www.inkscape.org/namespaces/inkscape"
   width="48"
   height="48"
   id="svg4216"
   version="1.1"
   inkscape:version="0.91 r13725"
   viewBox="0 0 48 48"
   sodipodi:docname="desktop.svg">
  <defs
     id="defs4218" />
  <sodipodi:namedview
     id="base"
     pagecolor="#242424"
     bordercolor="#666666"
     borderopacity="1.0"
     inkscape:pageopacity="0"
     inkscape:pageshadow="2"
     inkscape:zoom="11"
     inkscape:cx="16.586623"
     inkscape:cy="13.571895"
     inkscape:current-layer="layer1"
     showgrid="false"
     inkscape:document-units="px"
     inkscape:grid-bbox="true"
     showguides="false"
     inkscape:guide-bbox="true"
     objecttolerance="10000"
     guidetolerance="10000"
     inkscape:snap-path-clip="true"
     inkscape:snap-perpendicular="true"
     inkscape:snap-tangential="true"
     inkscape:window-width="1366"
     inkscape:window-height="704"
     inkscape:window-x="0"
     inkscape:window-y="27"
     inkscape:window-maximized="1">
    <inkscape:grid
       type="xygrid"
       id="grid4764" />
    <sodipodi:guide
       position="-2,64"
       orientation="0,1"
       id="guide4766" />
    <sodipodi:guide
       position="0,57"
       orientation="1,0"
       id="guide4768" />
    <sodipodi:guide
       position="64,51"
       orientation="1,0"
       id="guide4770" />
    <sodipodi:guide
       position="17,0"
       orientation="0,1"
       id="guide4772" />
    <sodipodi:guide
       position="12,27"
       orientation="0,1"
       id="guide4777" />
    <sodipodi:guide
       position="20,29"
       orientation="1,0"
       id="guide4779" />
    <sodipodi:guide
       position="13,30"
       orientation="0,1"
       id="guide4781" />
    <sodipodi:guide
       position="25,28"
       orientation="1,0"
       id="guide5471" />
    <sodipodi:guide
       position="21,9"
       orientation="0,1"
       id="guide5502" />
    <sodipodi:guide
       position="19,18"
       orientation="1,0"
       id="guide5504" />
    <sodipodi:guide
       position="29,13"
       orientation="1,0"
       id="guide5506" />
    <sodipodi:guide
       position="21,24"
       orientation="0,1"
       id="guide5690" />
    <sodipodi:guide
       position="22,-25"
       orientation="0,1"
       id="guide4169" />
  </sodipodi:namedview>
  <metadata
     id="metadata4221">
    <rdf:RDF>
      <cc:Work
         rdf:about="">
        <dc:format>image/svg+xml</dc:format>
        <dc:type
           rdf:resource="http://purl.org/dc/dcmitype/StillImage" />
        <dc:title />
        <dc:creator>
          <cc:Agent>
            <dc:title>Chris D</dc:title>
          </cc:Agent>
        </dc:creator>
        <dc:description>diazchris.deviantart.com</dc:description>
      </cc:Work>
    </rdf:RDF>
  </metadata>
  <g
     id="layer1"
     inkscape:label="Layer 1"
     inkscape:groupmode="layer"
     transform="translate(0,-16)">
    <rect
       style="opacity:1;fill:#e0e4e7;fill-opacity:1;fill-rule:nonzero;stroke:#b6c1c9;stroke-width:0.5;stroke-linecap:round;stroke-linejoin:round;stroke-miterlimit:4;stroke-dasharray:none;stroke-dashoffset:0;stroke-opacity:1"
       id="rect4159"
       width="42"
       height="32"
       x="3"
       y="29" />
    <path
       style="opacity:0.5;fill:#ffffff;fill-opacity:1;fill-rule:nonzero;stroke:none;stroke-width:0.5;stroke-linecap:round;stroke-linejoin:round;stroke-miterlimit:4;stroke-dasharray:none;stroke-dashoffset:0;stroke-opacity:1"
       d="M 4.5,30 A 0.5,0.5 0 0 0 4,30.5 0.5,0.5 0 0 0 4.5,31 0.5,0.5 0 0 0 5,30.5 0.5,0.5 0 0 0 4.5,30 Z m 2,0 A 0.5,0.5 0 0 0 6,30.5 0.5,0.5 0 0 0 6.5,31 0.5,0.5 0 0 0 7,30.5 0.5,0.5 0 0 0 6.5,30 Z m 2,0 A 0.5,0.5 0 0 0 8,30.5 0.5,0.5 0 0 0 8.5,31 0.5,0.5 0 0 0 9,30.5 0.5,0.5 0 0 0 8.5,30 Z m 2,0 A 0.5,0.5 0 0 0 9.9999999,30.5 0.5,0.5 0 0 0 10.5,31 0.5,0.5 0 0 0 11,30.5 0.5,0.5 0 0 0 10.5,30 Z m 2,0 A 0.5,0.5 0 0 0 12,30.5 0.5,0.5 0 0 0 12.5,31 0.5,0.5 0 0 0 13,30.5 0.5,0.5 0 0 0 12.5,30 Z m 2,0 A 0.5,0.5 0 0 0 14,30.5 0.5,0.5 0 0 0 14.5,31 0.5,0.5 0 0 0 15,30.5 0.5,0.5 0 0 0 14.5,30 Z m 2,0 A 0.5,0.5 0 0 0 16,30.5 0.5,0.5 0 0 0 16.5,31 0.5,0.5 0 0 0 17,30.5 0.5,0.5 0 0 0 16.5,30 Z m 2,0 A 0.5,0.5 0 0 0 18,30.5 0.5,0.5 0 0 0 18.5,31 0.5,0.5 0 0 0 19,30.5 0.5,0.5 0 0 0 18.5,30 Z m 2,0 A 0.5,0.5 0 0 0 20,30.5 0.5,0.5 0 0 0 20.5,31 0.5,0.5 0 0 0 21,30.5 0.5,0.5 0 0 0 20.5,30 Z m 2,0 A 0.5,0.5 0 0 0 22,30.5 0.5,0.5 0 0 0 22.5,31 0.5,0.5 0 0 0 23,30.5 0.5,0.5 0 0 0 22.5,30 Z m 2,0 A 0.5,0.5 0 0 0 24,30.5 0.5,0.5 0 0 0 24.5,31 0.5,0.5 0 0 0 25,30.5 0.5,0.5 0 0 0 24.5,30 Z m 2,0 A 0.5,0.5 0 0 0 26,30.5 0.5,0.5 0 0 0 26.5,31 0.5,0.5 0 0 0 27,30.5 0.5,0.5 0 0 0 26.5,30 Z m 2,0 A 0.5,0.5 0 0 0 28,30.5 0.5,0.5 0 0 0 28.5,31 0.5,0.5 0 0 0 29,30.5 0.5,0.5 0 0 0 28.5,30 Z m 2,0 A 0.5,0.5 0 0 0 30,30.5 0.5,0.5 0 0 0 30.5,31 0.5,0.5 0 0 0 31,30.5 0.5,0.5 0 0 0 30.5,30 Z m 2,0 A 0.5,0.5 0 0 0 32,30.5 0.5,0.5 0 0 0 32.5,31 0.5,0.5 0 0 0 33,30.5 0.5,0.5 0 0 0 32.5,30 Z m 2,0 A 0.5,0.5 0 0 0 34,30.5 0.5,0.5 0 0 0 34.5,31 0.5,0.5 0 0 0 35,30.5 0.5,0.5 0 0 0 34.5,30 Z m 2,0 A 0.5,0.5 0 0 0 36,30.5 0.5,0.5 0 0 0 36.5,31 0.5,0.5 0 0 0 37,30.5 0.5,0.5 0 0 0 36.5,30 Z m 2,0 A 0.5,0.5 0 0 0 38,30.5 0.5,0.5 0 0 0 38.5,31 0.5,0.5 0 0 0 39,30.5 0.5,0.5 0 0 0 38.5,30 Z m 2,0 A 0.5,0.5 0 0 0 40,30.5 0.5,0.5 0 0 0 40.5,31 0.5,0.5 0 0 0 41,30.5 0.5,0.5 0 0 0 40.5,30 Z m 2,0 A 0.5,0.5 0 0 0 42,30.5 0.5,0.5 0 0 0 42.5,31 0.5,0.5 0 0 0 43,30.5 0.5,0.5 0 0 0 42.5,30 Z m -37,1 A 0.5,0.5 0 0 0 5,31.5 0.5,0.5 0 0 0 5.5,32 0.5,0.5 0 0 0 6,31.5 0.5,0.5 0 0 0 5.5,31 Z m 2,0 A 0.5,0.5 0 0 0 7,31.5 0.5,0.5 0 0 0 7.5,32 0.5,0.5 0 0 0 8,31.5 0.5,0.5 0 0 0 7.5,31 Z m 2,0 A 0.5,0.5 0 0 0 9,31.5 0.5,0.5 0 0 0 9.5,32 0.5,0.5 0 0 0 9.9999999,31.5 0.5,0.5 0 0 0 9.5,31 Z m 2,0 A 0.5,0.5 0 0 0 11,31.5 0.5,0.5 0 0 0 11.5,32 0.5,0.5 0 0 0 12,31.5 0.5,0.5 0 0 0 11.5,31 Z m 2,0 A 0.5,0.5 0 0 0 13,31.5 0.5,0.5 0 0 0 13.5,32 0.5,0.5 0 0 0 14,31.5 0.5,0.5 0 0 0 13.5,31 Z m 2,0 A 0.5,0.5 0 0 0 15,31.5 0.5,0.5 0 0 0 15.5,32 0.5,0.5 0 0 0 16,31.5 0.5,0.5 0 0 0 15.5,31 Z m 2,0 A 0.5,0.5 0 0 0 17,31.5 0.5,0.5 0 0 0 17.5,32 0.5,0.5 0 0 0 18,31.5 0.5,0.5 0 0 0 17.5,31 Z m 2,0 A 0.5,0.5 0 0 0 19,31.5 0.5,0.5 0 0 0 19.5,32 0.5,0.5 0 0 0 20,31.5 0.5,0.5 0 0 0 19.5,31 Z m 2,0 A 0.5,0.5 0 0 0 21,31.5 0.5,0.5 0 0 0 21.5,32 0.5,0.5 0 0 0 22,31.5 0.5,0.5 0 0 0 21.5,31 Z m 2,0 A 0.5,0.5 0 0 0 23,31.5 0.5,0.5 0 0 0 23.5,32 0.5,0.5 0 0 0 24,31.5 0.5,0.5 0 0 0 23.5,31 Z m 2,0 A 0.5,0.5 0 0 0 25,31.5 0.5,0.5 0 0 0 25.5,32 0.5,0.5 0 0 0 26,31.5 0.5,0.5 0 0 0 25.5,31 Z m 2,0 A 0.5,0.5 0 0 0 27,31.5 0.5,0.5 0 0 0 27.5,32 0.5,0.5 0 0 0 28,31.5 0.5,0.5 0 0 0 27.5,31 Z m 2,0 A 0.5,0.5 0 0 0 29,31.5 0.5,0.5 0 0 0 29.5,32 0.5,0.5 0 0 0 30,31.5 0.5,0.5 0 0 0 29.5,31 Z m 2,0 A 0.5,0.5 0 0 0 31,31.5 0.5,0.5 0 0 0 31.5,32 0.5,0.5 0 0 0 32,31.5 0.5,0.5 0 0 0 31.5,31 Z m 2,0 A 0.5,0.5 0 0 0 33,31.5 0.5,0.5 0 0 0 33.5,32 0.5,0.5 0 0 0 34,31.5 0.5,0.5 0 0 0 33.5,31 Z m 2,0 A 0.5,0.5 0 0 0 35,31.5 0.5,0.5 0 0 0 35.5,32 0.5,0.5 0 0 0 36,31.5 0.5,0.5 0 0 0 35.5,31 Z m 2,0 A 0.5,0.5 0 0 0 37,31.5 0.5,0.5 0 0 0 37.5,32 0.5,0.5 0 0 0 38,31.5 0.5,0.5 0 0 0 37.5,31 Z m 2,0 A 0.5,0.5 0 0 0 39,31.5 0.5,0.5 0 0 0 39.5,32 0.5,0.5 0 0 0 40,31.5 0.5,0.5 0 0 0 39.5,31 Z m 2,0 A 0.5,0.5 0 0 0 41,31.5 0.5,0.5 0 0 0 41.5,32 0.5,0.5 0 0 0 42,31.5 0.5,0.5 0 0 0 41.5,31 Z m 2,0 A 0.5,0.5 0 0 0 43,31.5 0.5,0.5 0 0 0 43.5,32 0.5,0.5 0 0 0 44,31.5 0.5,0.5 0 0 0 43.5,31 Z m -39,1 A 0.5,0.5 0 0 0 4,32.5 0.5,0.5 0 0 0 4.5,33 0.5,0.5 0 0 0 5,32.5 0.5,0.5 0 0 0 4.5,32 Z m 2,0 A 0.5,0.5 0 0 0 6,32.5 0.5,0.5 0 0 0 6.5,33 0.5,0.5 0 0 0 7,32.5 0.5,0.5 0 0 0 6.5,32 Z m 2,0 A 0.5,0.5 0 0 0 8,32.5 0.5,0.5 0 0 0 8.5,33 0.5,0.5 0 0 0 9,32.5 0.5,0.5 0 0 0 8.5,32 Z m 2,0 A 0.5,0.5 0 0 0 9.9999999,32.5 0.5,0.5 0 0 0 10.5,33 0.5,0.5 0 0 0 11,32.5 0.5,0.5 0 0 0 10.5,32 Z m 2,0 A 0.5,0.5 0 0 0 12,32.5 0.5,0.5 0 0 0 12.5,33 0.5,0.5 0 0 0 13,32.5 0.5,0.5 0 0 0 12.5,32 Z m 2,0 A 0.5,0.5 0 0 0 14,32.5 0.5,0.5 0 0 0 14.5,33 0.5,0.5 0 0 0 15,32.5 0.5,0.5 0 0 0 14.5,32 Z m 2,0 A 0.5,0.5 0 0 0 16,32.5 0.5,0.5 0 0 0 16.5,33 0.5,0.5 0 0 0 17,32.5 0.5,0.5 0 0 0 16.5,32 Z m 2,0 A 0.5,0.5 0 0 0 18,32.5 0.5,0.5 0 0 0 18.5,33 0.5,0.5 0 0 0 19,32.5 0.5,0.5 0 0 0 18.5,32 Z m 2,0 A 0.5,0.5 0 0 0 20,32.5 0.5,0.5 0 0 0 20.5,33 0.5,0.5 0 0 0 21,32.5 0.5,0.5 0 0 0 20.5,32 Z m 2,0 A 0.5,0.5 0 0 0 22,32.5 0.5,0.5 0 0 0 22.5,33 0.5,0.5 0 0 0 23,32.5 0.5,0.5 0 0 0 22.5,32 Z m 2,0 A 0.5,0.5 0 0 0 24,32.5 0.5,0.5 0 0 0 24.5,33 0.5,0.5 0 0 0 25,32.5 0.5,0.5 0 0 0 24.5,32 Z m 2,0 A 0.5,0.5 0 0 0 26,32.5 0.5,0.5 0 0 0 26.5,33 0.5,0.5 0 0 0 27,32.5 0.5,0.5 0 0 0 26.5,32 Z m 2,0 A 0.5,0.5 0 0 0 28,32.5 0.5,0.5 0 0 0 28.5,33 0.5,0.5 0 0 0 29,32.5 0.5,0.5 0 0 0 28.5,32 Z m 2,0 A 0.5,0.5 0 0 0 30,32.5 0.5,0.5 0 0 0 30.5,33 0.5,0.5 0 0 0 31,32.5 0.5,0.5 0 0 0 30.5,32 Z m 2,0 A 0.5,0.5 0 0 0 32,32.5 0.5,0.5 0 0 0 32.5,33 0.5,0.5 0 0 0 33,32.5 0.5,0.5 0 0 0 32.5,32 Z m 2,0 A 0.5,0.5 0 0 0 34,32.5 0.5,0.5 0 0 0 34.5,33 0.5,0.5 0 0 0 35,32.5 0.5,0.5 0 0 0 34.5,32 Z m 2,0 A 0.5,0.5 0 0 0 36,32.5 0.5,0.5 0 0 0 36.5,33 0.5,0.5 0 0 0 37,32.5 0.5,0.5 0 0 0 36.5,32 Z m 2,0 A 0.5,0.5 0 0 0 38,32.5 0.5,0.5 0 0 0 38.5,33 0.5,0.5 0 0 0 39,32.5 0.5,0.5 0 0 0 38.5,32 Z m 2,0 A 0.5,0.5 0 0 0 40,32.5 0.5,0.5 0 0 0 40.5,33 0.5,0.5 0 0 0 41,32.5 0.5,0.5 0 0 0 40.5,32 Z m 2,0 A 0.5,0.5 0 0 0 42,32.5 0.5,0.5 0 0 0 42.5,33 0.5,0.5 0 0 0 43,32.5 0.5,0.5 0 0 0 42.5,32 Z m -37,1 A 0.5,0.5 0 0 0 5,33.5 0.5,0.5 0 0 0 5.5,34 0.5,0.5 0 0 0 6,33.5 0.5,0.5 0 0 0 5.5,33 Z m 2,0 A 0.5,0.5 0 0 0 7,33.5 0.5,0.5 0 0 0 7.5,34 0.5,0.5 0 0 0 8,33.5 0.5,0.5 0 0 0 7.5,33 Z m 2,0 A 0.5,0.5 0 0 0 9,33.5 0.5,0.5 0 0 0 9.5,34 0.5,0.5 0 0 0 9.9999999,33.5 0.5,0.5 0 0 0 9.5,33 Z m 2,0 A 0.5,0.5 0 0 0 11,33.5 0.5,0.5 0 0 0 11.5,34 0.5,0.5 0 0 0 12,33.5 0.5,0.5 0 0 0 11.5,33 Z m 2,0 A 0.5,0.5 0 0 0 13,33.5 0.5,0.5 0 0 0 13.5,34 0.5,0.5 0 0 0 14,33.5 0.5,0.5 0 0 0 13.5,33 Z m 2,0 A 0.5,0.5 0 0 0 15,33.5 0.5,0.5 0 0 0 15.5,34 0.5,0.5 0 0 0 16,33.5 0.5,0.5 0 0 0 15.5,33 Z m 2,0 A 0.5,0.5 0 0 0 17,33.5 0.5,0.5 0 0 0 17.5,34 0.5,0.5 0 0 0 18,33.5 0.5,0.5 0 0 0 17.5,33 Z m 2,0 A 0.5,0.5 0 0 0 19,33.5 0.5,0.5 0 0 0 19.5,34 0.5,0.5 0 0 0 20,33.5 0.5,0.5 0 0 0 19.5,33 Z m 2,0 A 0.5,0.5 0 0 0 21,33.5 0.5,0.5 0 0 0 21.5,34 0.5,0.5 0 0 0 22,33.5 0.5,0.5 0 0 0 21.5,33 Z m 2,0 A 0.5,0.5 0 0 0 23,33.5 0.5,0.5 0 0 0 23.5,34 0.5,0.5 0 0 0 24,33.5 0.5,0.5 0 0 0 23.5,33 Z m 2,0 A 0.5,0.5 0 0 0 25,33.5 0.5,0.5 0 0 0 25.5,34 0.5,0.5 0 0 0 26,33.5 0.5,0.5 0 0 0 25.5,33 Z m 2,0 A 0.5,0.5 0 0 0 27,33.5 0.5,0.5 0 0 0 27.5,34 0.5,0.5 0 0 0 28,33.5 0.5,0.5 0 0 0 27.5,33 Z m 2,0 A 0.5,0.5 0 0 0 29,33.5 0.5,0.5 0 0 0 29.5,34 0.5,0.5 0 0 0 30,33.5 0.5,0.5 0 0 0 29.5,33 Z m 2,0 A 0.5,0.5 0 0 0 31,33.5 0.5,0.5 0 0 0 31.5,34 0.5,0.5 0 0 0 32,33.5 0.5,0.5 0 0 0 31.5,33 Z m 2,0 A 0.5,0.5 0 0 0 33,33.5 0.5,0.5 0 0 0 33.5,34 0.5,0.5 0 0 0 34,33.5 0.5,0.5 0 0 0 33.5,33 Z m 2,0 A 0.5,0.5 0 0 0 35,33.5 0.5,0.5 0 0 0 35.5,34 0.5,0.5 0 0 0 36,33.5 0.5,0.5 0 0 0 35.5,33 Z m 2,0 A 0.5,0.5 0 0 0 37,33.5 0.5,0.5 0 0 0 37.5,34 0.5,0.5 0 0 0 38,33.5 0.5,0.5 0 0 0 37.5,33 Z m 2,0 A 0.5,0.5 0 0 0 39,33.5 0.5,0.5 0 0 0 39.5,34 0.5,0.5 0 0 0 40,33.5 0.5,0.5 0 0 0 39.5,33 Z m 2,0 A 0.5,0.5 0 0 0 41,33.5 0.5,0.5 0 0 0 41.5,34 0.5,0.5 0 0 0 42,33.5 0.5,0.5 0 0 0 41.5,33 Z m 2,0 A 0.5,0.5 0 0 0 43,33.5 0.5,0.5 0 0 0 43.5,34 0.5,0.5 0 0 0 44,33.5 0.5,0.5 0 0 0 43.5,33 Z m -39,1 A 0.5,0.5 0 0 0 4,34.5 0.5,0.5 0 0 0 4.5,35 0.5,0.5 0 0 0 5,34.5 0.5,0.5 0 0 0 4.5,34 Z m 2,0 A 0.5,0.5 0 0 0 6,34.5 0.5,0.5 0 0 0 6.5,35 0.5,0.5 0 0 0 7,34.5 0.5,0.5 0 0 0 6.5,34 Z m 2,0 A 0.5,0.5 0 0 0 8,34.5 0.5,0.5 0 0 0 8.5,35 0.5,0.5 0 0 0 9,34.5 0.5,0.5 0 0 0 8.5,34 Z m 2,0 A 0.5,0.5 0 0 0 9.9999999,34.5 0.5,0.5 0 0 0 10.5,35 0.5,0.5 0 0 0 11,34.5 0.5,0.5 0 0 0 10.5,34 Z m 2,0 A 0.5,0.5 0 0 0 12,34.5 0.5,0.5 0 0 0 12.5,35 0.5,0.5 0 0 0 13,34.5 0.5,0.5 0 0 0 12.5,34 Z m 2,0 A 0.5,0.5 0 0 0 14,34.5 0.5,0.5 0 0 0 14.5,35 0.5,0.5 0 0 0 15,34.5 0.5,0.5 0 0 0 14.5,34 Z m 2,0 A 0.5,0.5 0 0 0 16,34.5 0.5,0.5 0 0 0 16.5,35 0.5,0.5 0 0 0 17,34.5 0.5,0.5 0 0 0 16.5,34 Z m 2,0 A 0.5,0.5 0 0 0 18,34.5 0.5,0.5 0 0 0 18.5,35 0.5,0.5 0 0 0 19,34.5 0.5,0.5 0 0 0 18.5,34 Z m 2,0 A 0.5,0.5 0 0 0 20,34.5 0.5,0.5 0 0 0 20.5,35 0.5,0.5 0 0 0 21,34.5 0.5,0.5 0 0 0 20.5,34 Z m 2,0 A 0.5,0.5 0 0 0 22,34.5 0.5,0.5 0 0 0 22.5,35 0.5,0.5 0 0 0 23,34.5 0.5,0.5 0 0 0 22.5,34 Z m 2,0 A 0.5,0.5 0 0 0 24,34.5 0.5,0.5 0 0 0 24.5,35 0.5,0.5 0 0 0 25,34.5 0.5,0.5 0 0 0 24.5,34 Z m 2,0 A 0.5,0.5 0 0 0 26,34.5 0.5,0.5 0 0 0 26.5,35 0.5,0.5 0 0 0 27,34.5 0.5,0.5 0 0 0 26.5,34 Z m 2,0 A 0.5,0.5 0 0 0 28,34.5 0.5,0.5 0 0 0 28.5,35 0.5,0.5 0 0 0 29,34.5 0.5,0.5 0 0 0 28.5,34 Z m 2,0 A 0.5,0.5 0 0 0 30,34.5 0.5,0.5 0 0 0 30.5,35 0.5,0.5 0 0 0 31,34.5 0.5,0.5 0 0 0 30.5,34 Z m 2,0 A 0.5,0.5 0 0 0 32,34.5 0.5,0.5 0 0 0 32.5,35 0.5,0.5 0 0 0 33,34.5 0.5,0.5 0 0 0 32.5,34 Z m 2,0 A 0.5,0.5 0 0 0 34,34.5 0.5,0.5 0 0 0 34.5,35 0.5,0.5 0 0 0 35,34.5 0.5,0.5 0 0 0 34.5,34 Z m 2,0 A 0.5,0.5 0 0 0 36,34.5 0.5,0.5 0 0 0 36.5,35 0.5,0.5 0 0 0 37,34.5 0.5,0.5 0 0 0 36.5,34 Z m 2,0 A 0.5,0.5 0 0 0 38,34.5 0.5,0.5 0 0 0 38.5,35 0.5,0.5 0 0 0 39,34.5 0.5,0.5 0 0 0 38.5,34 Z m 2,0 A 0.5,0.5 0 0 0 40,34.5 0.5,0.5 0 0 0 40.5,35 0.5,0.5 0 0 0 41,34.5 0.5,0.5 0 0 0 40.5,34 Z m 2,0 A 0.5,0.5 0 0 0 42,34.5 0.5,0.5 0 0 0 42.5,35 0.5,0.5 0 0 0 43,34.5 0.5,0.5 0 0 0 42.5,34 Z m -37,1 A 0.5,0.5 0 0 0 5,35.5 0.5,0.5 0 0 0 5.5,36 0.5,0.5 0 0 0 6,35.5 0.5,0.5 0 0 0 5.5,35 Z m 2,0 A 0.5,0.5 0 0 0 7,35.5 0.5,0.5 0 0 0 7.5,36 0.5,0.5 0 0 0 8,35.5 0.5,0.5 0 0 0 7.5,35 Z m 2,0 A 0.5,0.5 0 0 0 9,35.5 0.5,0.5 0 0 0 9.5,36 0.5,0.5 0 0 0 9.9999999,35.5 0.5,0.5 0 0 0 9.5,35 Z m 2,0 A 0.5,0.5 0 0 0 11,35.5 0.5,0.5 0 0 0 11.5,36 0.5,0.5 0 0 0 12,35.5 0.5,0.5 0 0 0 11.5,35 Z m 2,0 A 0.5,0.5 0 0 0 13,35.5 0.5,0.5 0 0 0 13.5,36 0.5,0.5 0 0 0 14,35.5 0.5,0.5 0 0 0 13.5,35 Z m 2,0 A 0.5,0.5 0 0 0 15,35.5 0.5,0.5 0 0 0 15.5,36 0.5,0.5 0 0 0 16,35.5 0.5,0.5 0 0 0 15.5,35 Z m 2,0 A 0.5,0.5 0 0 0 17,35.5 0.5,0.5 0 0 0 17.5,36 0.5,0.5 0 0 0 18,35.5 0.5,0.5 0 0 0 17.5,35 Z m 2,0 A 0.5,0.5 0 0 0 19,35.5 0.5,0.5 0 0 0 19.5,36 0.5,0.5 0 0 0 20,35.5 0.5,0.5 0 0 0 19.5,35 Z m 2,0 A 0.5,0.5 0 0 0 21,35.5 0.5,0.5 0 0 0 21.5,36 0.5,0.5 0 0 0 22,35.5 0.5,0.5 0 0 0 21.5,35 Z m 2,0 A 0.5,0.5 0 0 0 23,35.5 0.5,0.5 0 0 0 23.5,36 0.5,0.5 0 0 0 24,35.5 0.5,0.5 0 0 0 23.5,35 Z m 2,0 A 0.5,0.5 0 0 0 25,35.5 0.5,0.5 0 0 0 25.5,36 0.5,0.5 0 0 0 26,35.5 0.5,0.5 0 0 0 25.5,35 Z m 2,0 A 0.5,0.5 0 0 0 27,35.5 0.5,0.5 0 0 0 27.5,36 0.5,0.5 0 0 0 28,35.5 0.5,0.5 0 0 0 27.5,35 Z m 2,0 A 0.5,0.5 0 0 0 29,35.5 0.5,0.5 0 0 0 29.5,36 0.5,0.5 0 0 0 30,35.5 0.5,0.5 0 0 0 29.5,35 Z m 2,0 A 0.5,0.5 0 0 0 31,35.5 0.5,0.5 0 0 0 31.5,36 0.5,0.5 0 0 0 32,35.5 0.5,0.5 0 0 0 31.5,35 Z m 2,0 A 0.5,0.5 0 0 0 33,35.5 0.5,0.5 0 0 0 33.5,36 0.5,0.5 0 0 0 34,35.5 0.5,0.5 0 0 0 33.5,35 Z m 2,0 A 0.5,0.5 0 0 0 35,35.5 0.5,0.5 0 0 0 35.5,36 0.5,0.5 0 0 0 36,35.5 0.5,0.5 0 0 0 35.5,35 Z m 2,0 A 0.5,0.5 0 0 0 37,35.5 0.5,0.5 0 0 0 37.5,36 0.5,0.5 0 0 0 38,35.5 0.5,0.5 0 0 0 37.5,35 Z m 2,0 A 0.5,0.5 0 0 0 39,35.5 0.5,0.5 0 0 0 39.5,36 0.5,0.5 0 0 0 40,35.5 0.5,0.5 0 0 0 39.5,35 Z m 2,0 A 0.5,0.5 0 0 0 41,35.5 0.5,0.5 0 0 0 41.5,36 0.5,0.5 0 0 0 42,35.5 0.5,0.5 0 0 0 41.5,35 Z m 2,0 A 0.5,0.5 0 0 0 43,35.5 0.5,0.5 0 0 0 43.5,36 0.5,0.5 0 0 0 44,35.5 0.5,0.5 0 0 0 43.5,35 Z m -39,1 A 0.5,0.5 0 0 0 4,36.5 0.5,0.5 0 0 0 4.5,37 0.5,0.5 0 0 0 5,36.5 0.5,0.5 0 0 0 4.5,36 Z m 2,0 A 0.5,0.5 0 0 0 6,36.5 0.5,0.5 0 0 0 6.5,37 0.5,0.5 0 0 0 7,36.5 0.5,0.5 0 0 0 6.5,36 Z m 2,0 A 0.5,0.5 0 0 0 8,36.5 0.5,0.5 0 0 0 8.5,37 0.5,0.5 0 0 0 9,36.5 0.5,0.5 0 0 0 8.5,36 Z m 2,0 A 0.5,0.5 0 0 0 9.9999999,36.5 0.5,0.5 0 0 0 10.5,37 0.5,0.5 0 0 0 11,36.5 0.5,0.5 0 0 0 10.5,36 Z m 2,0 A 0.5,0.5 0 0 0 12,36.5 0.5,0.5 0 0 0 12.5,37 0.5,0.5 0 0 0 13,36.5 0.5,0.5 0 0 0 12.5,36 Z m 2,0 A 0.5,0.5 0 0 0 14,36.5 0.5,0.5 0 0 0 14.5,37 0.5,0.5 0 0 0 15,36.5 0.5,0.5 0 0 0 14.5,36 Z m 2,0 A 0.5,0.5 0 0 0 16,36.5 0.5,0.5 0 0 0 16.5,37 0.5,0.5 0 0 0 17,36.5 0.5,0.5 0 0 0 16.5,36 Z m 2,0 A 0.5,0.5 0 0 0 18,36.5 0.5,0.5 0 0 0 18.5,37 0.5,0.5 0 0 0 19,36.5 0.5,0.5 0 0 0 18.5,36 Z m 2,0 A 0.5,0.5 0 0 0 20,36.5 0.5,0.5 0 0 0 20.5,37 0.5,0.5 0 0 0 21,36.5 0.5,0.5 0 0 0 20.5,36 Z m 2,0 A 0.5,0.5 0 0 0 22,36.5 0.5,0.5 0 0 0 22.5,37 0.5,0.5 0 0 0 23,36.5 0.5,0.5 0 0 0 22.5,36 Z m 2,0 A 0.5,0.5 0 0 0 24,36.5 0.5,0.5 0 0 0 24.5,37 0.5,0.5 0 0 0 25,36.5 0.5,0.5 0 0 0 24.5,36 Z m 2,0 A 0.5,0.5 0 0 0 26,36.5 0.5,0.5 0 0 0 26.5,37 0.5,0.5 0 0 0 27,36.5 0.5,0.5 0 0 0 26.5,36 Z m 2,0 A 0.5,0.5 0 0 0 28,36.5 0.5,0.5 0 0 0 28.5,37 0.5,0.5 0 0 0 29,36.5 0.5,0.5 0 0 0 28.5,36 Z m 2,0 A 0.5,0.5 0 0 0 30,36.5 0.5,0.5 0 0 0 30.5,37 0.5,0.5 0 0 0 31,36.5 0.5,0.5 0 0 0 30.5,36 Z m 2,0 A 0.5,0.5 0 0 0 32,36.5 0.5,0.5 0 0 0 32.5,37 0.5,0.5 0 0 0 33,36.5 0.5,0.5 0 0 0 32.5,36 Z m 2,0 A 0.5,0.5 0 0 0 34,36.5 0.5,0.5 0 0 0 34.5,37 0.5,0.5 0 0 0 35,36.5 0.5,0.5 0 0 0 34.5,36 Z m 2,0 A 0.5,0.5 0 0 0 36,36.5 0.5,0.5 0 0 0 36.5,37 0.5,0.5 0 0 0 37,36.5 0.5,0.5 0 0 0 36.5,36 Z m 2,0 A 0.5,0.5 0 0 0 38,36.5 0.5,0.5 0 0 0 38.5,37 0.5,0.5 0 0 0 39,36.5 0.5,0.5 0 0 0 38.5,36 Z m 2,0 A 0.5,0.5 0 0 0 40,36.5 0.5,0.5 0 0 0 40.5,37 0.5,0.5 0 0 0 41,36.5 0.5,0.5 0 0 0 40.5,36 Z m 2,0 A 0.5,0.5 0 0 0 42,36.5 0.5,0.5 0 0 0 42.5,37 0.5,0.5 0 0 0 43,36.5 0.5,0.5 0 0 0 42.5,36 Z m -37,1 A 0.5,0.5 0 0 0 5,37.5 0.5,0.5 0 0 0 5.5,38 0.5,0.5 0 0 0 6,37.5 0.5,0.5 0 0 0 5.5,37 Z m 2,0 A 0.5,0.5 0 0 0 7,37.5 0.5,0.5 0 0 0 7.5,38 0.5,0.5 0 0 0 8,37.5 0.5,0.5 0 0 0 7.5,37 Z m 2,0 A 0.5,0.5 0 0 0 9,37.5 0.5,0.5 0 0 0 9.5,38 0.5,0.5 0 0 0 9.9999999,37.5 0.5,0.5 0 0 0 9.5,37 Z m 2,0 A 0.5,0.5 0 0 0 11,37.5 0.5,0.5 0 0 0 11.5,38 0.5,0.5 0 0 0 12,37.5 0.5,0.5 0 0 0 11.5,37 Z m 2,0 A 0.5,0.5 0 0 0 13,37.5 0.5,0.5 0 0 0 13.5,38 0.5,0.5 0 0 0 14,37.5 0.5,0.5 0 0 0 13.5,37 Z m 2,0 A 0.5,0.5 0 0 0 15,37.5 0.5,0.5 0 0 0 15.5,38 0.5,0.5 0 0 0 16,37.5 0.5,0.5 0 0 0 15.5,37 Z m 2,0 A 0.5,0.5 0 0 0 17,37.5 0.5,0.5 0 0 0 17.5,38 0.5,0.5 0 0 0 18,37.5 0.5,0.5 0 0 0 17.5,37 Z m 2,0 A 0.5,0.5 0 0 0 19,37.5 0.5,0.5 0 0 0 19.5,38 0.5,0.5 0 0 0 20,37.5 0.5,0.5 0 0 0 19.5,37 Z m 2,0 A 0.5,0.5 0 0 0 21,37.5 0.5,0.5 0 0 0 21.5,38 0.5,0.5 0 0 0 22,37.5 0.5,0.5 0 0 0 21.5,37 Z m 2,0 A 0.5,0.5 0 0 0 23,37.5 0.5,0.5 0 0 0 23.5,38 0.5,0.5 0 0 0 24,37.5 0.5,0.5 0 0 0 23.5,37 Z m 2,0 A 0.5,0.5 0 0 0 25,37.5 0.5,0.5 0 0 0 25.5,38 0.5,0.5 0 0 0 26,37.5 0.5,0.5 0 0 0 25.5,37 Z m 2,0 A 0.5,0.5 0 0 0 27,37.5 0.5,0.5 0 0 0 27.5,38 0.5,0.5 0 0 0 28,37.5 0.5,0.5 0 0 0 27.5,37 Z m 2,0 A 0.5,0.5 0 0 0 29,37.5 0.5,0.5 0 0 0 29.5,38 0.5,0.5 0 0 0 30,37.5 0.5,0.5 0 0 0 29.5,37 Z m 2,0 A 0.5,0.5 0 0 0 31,37.5 0.5,0.5 0 0 0 31.5,38 0.5,0.5 0 0 0 32,37.5 0.5,0.5 0 0 0 31.5,37 Z m 2,0 A 0.5,0.5 0 0 0 33,37.5 0.5,0.5 0 0 0 33.5,38 0.5,0.5 0 0 0 34,37.5 0.5,0.5 0 0 0 33.5,37 Z m 2,0 A 0.5,0.5 0 0 0 35,37.5 0.5,0.5 0 0 0 35.5,38 0.5,0.5 0 0 0 36,37.5 0.5,0.5 0 0 0 35.5,37 Z m 2,0 A 0.5,0.5 0 0 0 37,37.5 0.5,0.5 0 0 0 37.5,38 0.5,0.5 0 0 0 38,37.5 0.5,0.5 0 0 0 37.5,37 Z m 2,0 A 0.5,0.5 0 0 0 39,37.5 0.5,0.5 0 0 0 39.5,38 0.5,0.5 0 0 0 40,37.5 0.5,0.5 0 0 0 39.5,37 Z m 2,0 A 0.5,0.5 0 0 0 41,37.5 0.5,0.5 0 0 0 41.5,38 0.5,0.5 0 0 0 42,37.5 0.5,0.5 0 0 0 41.5,37 Z m 2,0 A 0.5,0.5 0 0 0 43,37.5 0.5,0.5 0 0 0 43.5,38 0.5,0.5 0 0 0 44,37.5 0.5,0.5 0 0 0 43.5,37 Z m -39,1 A 0.5,0.5 0 0 0 4,38.5 0.5,0.5 0 0 0 4.5,39 0.5,0.5 0 0 0 5,38.5 0.5,0.5 0 0 0 4.5,38 Z m 2,0 A 0.5,0.5 0 0 0 6,38.5 0.5,0.5 0 0 0 6.5,39 0.5,0.5 0 0 0 7,38.5 0.5,0.5 0 0 0 6.5,38 Z m 2,0 A 0.5,0.5 0 0 0 8,38.5 0.5,0.5 0 0 0 8.5,39 0.5,0.5 0 0 0 9,38.5 0.5,0.5 0 0 0 8.5,38 Z m 2,0 A 0.5,0.5 0 0 0 9.9999999,38.5 0.5,0.5 0 0 0 10.5,39 0.5,0.5 0 0 0 11,38.5 0.5,0.5 0 0 0 10.5,38 Z m 2,0 A 0.5,0.5 0 0 0 12,38.5 0.5,0.5 0 0 0 12.5,39 0.5,0.5 0 0 0 13,38.5 0.5,0.5 0 0 0 12.5,38 Z m 2,0 A 0.5,0.5 0 0 0 14,38.5 0.5,0.5 0 0 0 14.5,39 0.5,0.5 0 0 0 15,38.5 0.5,0.5 0 0 0 14.5,38 Z m 2,0 A 0.5,0.5 0 0 0 16,38.5 0.5,0.5 0 0 0 16.5,39 0.5,0.5 0 0 0 17,38.5 0.5,0.5 0 0 0 16.5,38 Z m 2,0 A 0.5,0.5 0 0 0 18,38.5 0.5,0.5 0 0 0 18.5,39 0.5,0.5 0 0 0 19,38.5 0.5,0.5 0 0 0 18.5,38 Z m 2,0 A 0.5,0.5 0 0 0 20,38.5 0.5,0.5 0 0 0 20.5,39 0.5,0.5 0 0 0 21,38.5 0.5,0.5 0 0 0 20.5,38 Z m 2,0 A 0.5,0.5 0 0 0 22,38.5 0.5,0.5 0 0 0 22.5,39 0.5,0.5 0 0 0 23,38.5 0.5,0.5 0 0 0 22.5,38 Z m 2,0 A 0.5,0.5 0 0 0 24,38.5 0.5,0.5 0 0 0 24.5,39 0.5,0.5 0 0 0 25,38.5 0.5,0.5 0 0 0 24.5,38 Z m 2,0 A 0.5,0.5 0 0 0 26,38.5 0.5,0.5 0 0 0 26.5,39 0.5,0.5 0 0 0 27,38.5 0.5,0.5 0 0 0 26.5,38 Z m 2,0 A 0.5,0.5 0 0 0 28,38.5 0.5,0.5 0 0 0 28.5,39 0.5,0.5 0 0 0 29,38.5 0.5,0.5 0 0 0 28.5,38 Z m 2,0 A 0.5,0.5 0 0 0 30,38.5 0.5,0.5 0 0 0 30.5,39 0.5,0.5 0 0 0 31,38.5 0.5,0.5 0 0 0 30.5,38 Z m 2,0 A 0.5,0.5 0 0 0 32,38.5 0.5,0.5 0 0 0 32.5,39 0.5,0.5 0 0 0 33,38.5 0.5,0.5 0 0 0 32.5,38 Z m 2,0 A 0.5,0.5 0 0 0 34,38.5 0.5,0.5 0 0 0 34.5,39 0.5,0.5 0 0 0 35,38.5 0.5,0.5 0 0 0 34.5,38 Z m 2,0 A 0.5,0.5 0 0 0 36,38.5 0.5,0.5 0 0 0 36.5,39 0.5,0.5 0 0 0 37,38.5 0.5,0.5 0 0 0 36.5,38 Z m 2,0 A 0.5,0.5 0 0 0 38,38.5 0.5,0.5 0 0 0 38.5,39 0.5,0.5 0 0 0 39,38.5 0.5,0.5 0 0 0 38.5,38 Z m 2,0 A 0.5,0.5 0 0 0 40,38.5 0.5,0.5 0 0 0 40.5,39 0.5,0.5 0 0 0 41,38.5 0.5,0.5 0 0 0 40.5,38 Z m 2,0 A 0.5,0.5 0 0 0 42,38.5 0.5,0.5 0 0 0 42.5,39 0.5,0.5 0 0 0 43,38.5 0.5,0.5 0 0 0 42.5,38 Z m -37,1 A 0.5,0.5 0 0 0 5,39.5 0.5,0.5 0 0 0 5.5,40 0.5,0.5 0 0 0 6,39.5 0.5,0.5 0 0 0 5.5,39 Z m 2,0 A 0.5,0.5 0 0 0 7,39.5 0.5,0.5 0 0 0 7.5,40 0.5,0.5 0 0 0 8,39.5 0.5,0.5 0 0 0 7.5,39 Z m 2,0 A 0.5,0.5 0 0 0 9,39.5 0.5,0.5 0 0 0 9.5,40 0.5,0.5 0 0 0 9.9999999,39.5 0.5,0.5 0 0 0 9.5,39 Z m 2,0 A 0.5,0.5 0 0 0 11,39.5 0.5,0.5 0 0 0 11.5,40 0.5,0.5 0 0 0 12,39.5 0.5,0.5 0 0 0 11.5,39 Z m 2,0 A 0.5,0.5 0 0 0 13,39.5 0.5,0.5 0 0 0 13.5,40 0.5,0.5 0 0 0 14,39.5 0.5,0.5 0 0 0 13.5,39 Z m 2,0 A 0.5,0.5 0 0 0 15,39.5 0.5,0.5 0 0 0 15.5,40 0.5,0.5 0 0 0 16,39.5 0.5,0.5 0 0 0 15.5,39 Z m 2,0 A 0.5,0.5 0 0 0 17,39.5 0.5,0.5 0 0 0 17.5,40 0.5,0.5 0 0 0 18,39.5 0.5,0.5 0 0 0 17.5,39 Z m 2,0 A 0.5,0.5 0 0 0 19,39.5 0.5,0.5 0 0 0 19.5,40 0.5,0.5 0 0 0 20,39.5 0.5,0.5 0 0 0 19.5,39 Z m 2,0 A 0.5,0.5 0 0 0 21,39.5 0.5,0.5 0 0 0 21.5,40 0.5,0.5 0 0 0 22,39.5 0.5,0.5 0 0 0 21.5,39 Z m 2,0 A 0.5,0.5 0 0 0 23,39.5 0.5,0.5 0 0 0 23.5,40 0.5,0.5 0 0 0 24,39.5 0.5,0.5 0 0 0 23.5,39 Z m 2,0 A 0.5,0.5 0 0 0 25,39.5 0.5,0.5 0 0 0 25.5,40 0.5,0.5 0 0 0 26,39.5 0.5,0.5 0 0 0 25.5,39 Z m 2,0 A 0.5,0.5 0 0 0 27,39.5 0.5,0.5 0 0 0 27.5,40 0.5,0.5 0 0 0 28,39.5 0.5,0.5 0 0 0 27.5,39 Z m 2,0 A 0.5,0.5 0 0 0 29,39.5 0.5,0.5 0 0 0 29.5,40 0.5,0.5 0 0 0 30,39.5 0.5,0.5 0 0 0 29.5,39 Z m 2,0 A 0.5,0.5 0 0 0 31,39.5 0.5,0.5 0 0 0 31.5,40 0.5,0.5 0 0 0 32,39.5 0.5,0.5 0 0 0 31.5,39 Z m 2,0 A 0.5,0.5 0 0 0 33,39.5 0.5,0.5 0 0 0 33.5,40 0.5,0.5 0 0 0 34,39.5 0.5,0.5 0 0 0 33.5,39 Z m 2,0 A 0.5,0.5 0 0 0 35,39.5 0.5,0.5 0 0 0 35.5,40 0.5,0.5 0 0 0 36,39.5 0.5,0.5 0 0 0 35.5,39 Z m 2,0 A 0.5,0.5 0 0 0 37,39.5 0.5,0.5 0 0 0 37.5,40 0.5,0.5 0 0 0 38,39.5 0.5,0.5 0 0 0 37.5,39 Z m 2,0 A 0.5,0.5 0 0 0 39,39.5 0.5,0.5 0 0 0 39.5,40 0.5,0.5 0 0 0 40,39.5 0.5,0.5 0 0 0 39.5,39 Z m 2,0 A 0.5,0.5 0 0 0 41,39.5 0.5,0.5 0 0 0 41.5,40 0.5,0.5 0 0 0 42,39.5 0.5,0.5 0 0 0 41.5,39 Z m 2,0 A 0.5,0.5 0 0 0 43,39.5 0.5,0.5 0 0 0 43.5,40 0.5,0.5 0 0 0 44,39.5 0.5,0.5 0 0 0 43.5,39 Z m -39,1 A 0.5,0.5 0 0 0 4,40.5 0.5,0.5 0 0 0 4.5,41 0.5,0.5 0 0 0 5,40.5 0.5,0.5 0 0 0 4.5,40 Z m 2,0 A 0.5,0.5 0 0 0 6,40.5 0.5,0.5 0 0 0 6.5,41 0.5,0.5 0 0 0 7,40.5 0.5,0.5 0 0 0 6.5,40 Z m 2,0 A 0.5,0.5 0 0 0 8,40.5 0.5,0.5 0 0 0 8.5,41 0.5,0.5 0 0 0 9,40.5 0.5,0.5 0 0 0 8.5,40 Z m 2,0 A 0.5,0.5 0 0 0 9.9999999,40.5 0.5,0.5 0 0 0 10.5,41 0.5,0.5 0 0 0 11,40.5 0.5,0.5 0 0 0 10.5,40 Z m 2,0 A 0.5,0.5 0 0 0 12,40.5 0.5,0.5 0 0 0 12.5,41 0.5,0.5 0 0 0 13,40.5 0.5,0.5 0 0 0 12.5,40 Z m 2,0 A 0.5,0.5 0 0 0 14,40.5 0.5,0.5 0 0 0 14.5,41 0.5,0.5 0 0 0 15,40.5 0.5,0.5 0 0 0 14.5,40 Z m 2,0 A 0.5,0.5 0 0 0 16,40.5 0.5,0.5 0 0 0 16.5,41 0.5,0.5 0 0 0 17,40.5 0.5,0.5 0 0 0 16.5,40 Z m 2,0 A 0.5,0.5 0 0 0 18,40.5 0.5,0.5 0 0 0 18.5,41 0.5,0.5 0 0 0 19,40.5 0.5,0.5 0 0 0 18.5,40 Z m 2,0 A 0.5,0.5 0 0 0 20,40.5 0.5,0.5 0 0 0 20.5,41 0.5,0.5 0 0 0 21,40.5 0.5,0.5 0 0 0 20.5,40 Z m 2,0 A 0.5,0.5 0 0 0 22,40.5 0.5,0.5 0 0 0 22.5,41 0.5,0.5 0 0 0 23,40.5 0.5,0.5 0 0 0 22.5,40 Z m 2,0 A 0.5,0.5 0 0 0 24,40.5 0.5,0.5 0 0 0 24.5,41 0.5,0.5 0 0 0 25,40.5 0.5,0.5 0 0 0 24.5,40 Z m 2,0 A 0.5,0.5 0 0 0 26,40.5 0.5,0.5 0 0 0 26.5,41 0.5,0.5 0 0 0 27,40.5 0.5,0.5 0 0 0 26.5,40 Z m 2,0 A 0.5,0.5 0 0 0 28,40.5 0.5,0.5 0 0 0 28.5,41 0.5,0.5 0 0 0 29,40.5 0.5,0.5 0 0 0 28.5,40 Z m 2,0 A 0.5,0.5 0 0 0 30,40.5 0.5,0.5 0 0 0 30.5,41 0.5,0.5 0 0 0 31,40.5 0.5,0.5 0 0 0 30.5,40 Z m 2,0 A 0.5,0.5 0 0 0 32,40.5 0.5,0.5 0 0 0 32.5,41 0.5,0.5 0 0 0 33,40.5 0.5,0.5 0 0 0 32.5,40 Z m 2,0 A 0.5,0.5 0 0 0 34,40.5 0.5,0.5 0 0 0 34.5,41 0.5,0.5 0 0 0 35,40.5 0.5,0.5 0 0 0 34.5,40 Z m 2,0 A 0.5,0.5 0 0 0 36,40.5 0.5,0.5 0 0 0 36.5,41 0.5,0.5 0 0 0 37,40.5 0.5,0.5 0 0 0 36.5,40 Z m 2,0 A 0.5,0.5 0 0 0 38,40.5 0.5,0.5 0 0 0 38.5,41 0.5,0.5 0 0 0 39,40.5 0.5,0.5 0 0 0 38.5,40 Z m 2,0 A 0.5,0.5 0 0 0 40,40.5 0.5,0.5 0 0 0 40.5,41 0.5,0.5 0 0 0 41,40.5 0.5,0.5 0 0 0 40.5,40 Z m 2,0 A 0.5,0.5 0 0 0 42,40.5 0.5,0.5 0 0 0 42.5,41 0.5,0.5 0 0 0 43,40.5 0.5,0.5 0 0 0 42.5,40 Z m -37,1 A 0.5,0.5 0 0 0 5,41.5 0.5,0.5 0 0 0 5.5,42 0.5,0.5 0 0 0 6,41.5 0.5,0.5 0 0 0 5.5,41 Z m 2,0 A 0.5,0.5 0 0 0 7,41.5 0.5,0.5 0 0 0 7.5,42 0.5,0.5 0 0 0 8,41.5 0.5,0.5 0 0 0 7.5,41 Z m 2,0 A 0.5,0.5 0 0 0 9,41.5 0.5,0.5 0 0 0 9.5,42 0.5,0.5 0 0 0 9.9999999,41.5 0.5,0.5 0 0 0 9.5,41 Z m 2,0 A 0.5,0.5 0 0 0 11,41.5 0.5,0.5 0 0 0 11.5,42 0.5,0.5 0 0 0 12,41.5 0.5,0.5 0 0 0 11.5,41 Z m 2,0 A 0.5,0.5 0 0 0 13,41.5 0.5,0.5 0 0 0 13.5,42 0.5,0.5 0 0 0 14,41.5 0.5,0.5 0 0 0 13.5,41 Z m 2,0 A 0.5,0.5 0 0 0 15,41.5 0.5,0.5 0 0 0 15.5,42 0.5,0.5 0 0 0 16,41.5 0.5,0.5 0 0 0 15.5,41 Z m 2,0 A 0.5,0.5 0 0 0 17,41.5 0.5,0.5 0 0 0 17.5,42 0.5,0.5 0 0 0 18,41.5 0.5,0.5 0 0 0 17.5,41 Z m 2,0 A 0.5,0.5 0 0 0 19,41.5 0.5,0.5 0 0 0 19.5,42 0.5,0.5 0 0 0 20,41.5 0.5,0.5 0 0 0 19.5,41 Z m 2,0 A 0.5,0.5 0 0 0 21,41.5 0.5,0.5 0 0 0 21.5,42 0.5,0.5 0 0 0 22,41.5 0.5,0.5 0 0 0 21.5,41 Z m 2,0 A 0.5,0.5 0 0 0 23,41.5 0.5,0.5 0 0 0 23.5,42 0.5,0.5 0 0 0 24,41.5 0.5,0.5 0 0 0 23.5,41 Z m 2,0 A 0.5,0.5 0 0 0 25,41.5 0.5,0.5 0 0 0 25.5,42 0.5,0.5 0 0 0 26,41.5 0.5,0.5 0 0 0 25.5,41 Z m 2,0 A 0.5,0.5 0 0 0 27,41.5 0.5,0.5 0 0 0 27.5,42 0.5,0.5 0 0 0 28,41.5 0.5,0.5 0 0 0 27.5,41 Z m 2,0 A 0.5,0.5 0 0 0 29,41.5 0.5,0.5 0 0 0 29.5,42 0.5,0.5 0 0 0 30,41.5 0.5,0.5 0 0 0 29.5,41 Z m 2,0 A 0.5,0.5 0 0 0 31,41.5 0.5,0.5 0 0 0 31.5,42 0.5,0.5 0 0 0 32,41.5 0.5,0.5 0 0 0 31.5,41 Z m 2,0 A 0.5,0.5 0 0 0 33,41.5 0.5,0.5 0 0 0 33.5,42 0.5,0.5 0 0 0 34,41.5 0.5,0.5 0 0 0 33.5,41 Z m 2,0 A 0.5,0.5 0 0 0 35,41.5 0.5,0.5 0 0 0 35.5,42 0.5,0.5 0 0 0 36,41.5 0.5,0.5 0 0 0 35.5,41 Z m 2,0 A 0.5,0.5 0 0 0 37,41.5 0.5,0.5 0 0 0 37.5,42 0.5,0.5 0 0 0 38,41.5 0.5,0.5 0 0 0 37.5,41 Z m 2,0 A 0.5,0.5 0 0 0 39,41.5 0.5,0.5 0 0 0 39.5,42 0.5,0.5 0 0 0 40,41.5 0.5,0.5 0 0 0 39.5,41 Z m 2,0 A 0.5,0.5 0 0 0 41,41.5 0.5,0.5 0 0 0 41.5,42 0.5,0.5 0 0 0 42,41.5 0.5,0.5 0 0 0 41.5,41 Z m 2,0 A 0.5,0.5 0 0 0 43,41.5 0.5,0.5 0 0 0 43.5,42 0.5,0.5 0 0 0 44,41.5 0.5,0.5 0 0 0 43.5,41 Z m -39,1 A 0.5,0.5 0 0 0 4,42.5 0.5,0.5 0 0 0 4.5,43 0.5,0.5 0 0 0 5,42.5 0.5,0.5 0 0 0 4.5,42 Z m 2,0 A 0.5,0.5 0 0 0 6,42.5 0.5,0.5 0 0 0 6.5,43 0.5,0.5 0 0 0 7,42.5 0.5,0.5 0 0 0 6.5,42 Z m 2,0 A 0.5,0.5 0 0 0 8,42.5 0.5,0.5 0 0 0 8.5,43 0.5,0.5 0 0 0 9,42.5 0.5,0.5 0 0 0 8.5,42 Z m 2,0 A 0.5,0.5 0 0 0 9.9999999,42.5 0.5,0.5 0 0 0 10.5,43 0.5,0.5 0 0 0 11,42.5 0.5,0.5 0 0 0 10.5,42 Z m 2,0 A 0.5,0.5 0 0 0 12,42.5 0.5,0.5 0 0 0 12.5,43 0.5,0.5 0 0 0 13,42.5 0.5,0.5 0 0 0 12.5,42 Z m 2,0 A 0.5,0.5 0 0 0 14,42.5 0.5,0.5 0 0 0 14.5,43 0.5,0.5 0 0 0 15,42.5 0.5,0.5 0 0 0 14.5,42 Z m 2,0 A 0.5,0.5 0 0 0 16,42.5 0.5,0.5 0 0 0 16.5,43 0.5,0.5 0 0 0 17,42.5 0.5,0.5 0 0 0 16.5,42 Z m 2,0 A 0.5,0.5 0 0 0 18,42.5 0.5,0.5 0 0 0 18.5,43 0.5,0.5 0 0 0 19,42.5 0.5,0.5 0 0 0 18.5,42 Z m 2,0 A 0.5,0.5 0 0 0 20,42.5 0.5,0.5 0 0 0 20.5,43 0.5,0.5 0 0 0 21,42.5 0.5,0.5 0 0 0 20.5,42 Z m 2,0 A 0.5,0.5 0 0 0 22,42.5 0.5,0.5 0 0 0 22.5,43 0.5,0.5 0 0 0 23,42.5 0.5,0.5 0 0 0 22.5,42 Z m 2,0 A 0.5,0.5 0 0 0 24,42.5 0.5,0.5 0 0 0 24.5,43 0.5,0.5 0 0 0 25,42.5 0.5,0.5 0 0 0 24.5,42 Z m 2,0 A 0.5,0.5 0 0 0 26,42.5 0.5,0.5 0 0 0 26.5,43 0.5,0.5 0 0 0 27,42.5 0.5,0.5 0 0 0 26.5,42 Z m 2,0 A 0.5,0.5 0 0 0 28,42.5 0.5,0.5 0 0 0 28.5,43 0.5,0.5 0 0 0 29,42.5 0.5,0.5 0 0 0 28.5,42 Z m 2,0 A 0.5,0.5 0 0 0 30,42.5 0.5,0.5 0 0 0 30.5,43 0.5,0.5 0 0 0 31,42.5 0.5,0.5 0 0 0 30.5,42 Z m 2,0 A 0.5,0.5 0 0 0 32,42.5 0.5,0.5 0 0 0 32.5,43 0.5,0.5 0 0 0 33,42.5 0.5,0.5 0 0 0 32.5,42 Z m 2,0 A 0.5,0.5 0 0 0 34,42.5 0.5,0.5 0 0 0 34.5,43 0.5,0.5 0 0 0 35,42.5 0.5,0.5 0 0 0 34.5,42 Z m 2,0 A 0.5,0.5 0 0 0 36,42.5 0.5,0.5 0 0 0 36.5,43 0.5,0.5 0 0 0 37,42.5 0.5,0.5 0 0 0 36.5,42 Z m 2,0 A 0.5,0.5 0 0 0 38,42.5 0.5,0.5 0 0 0 38.5,43 0.5,0.5 0 0 0 39,42.5 0.5,0.5 0 0 0 38.5,42 Z m 2,0 A 0.5,0.5 0 0 0 40,42.5 0.5,0.5 0 0 0 40.5,43 0.5,0.5 0 0 0 41,42.5 0.5,0.5 0 0 0 40.5,42 Z m 2,0 A 0.5,0.5 0 0 0 42,42.5 0.5,0.5 0 0 0 42.5,43 0.5,0.5 0 0 0 43,42.5 0.5,0.5 0 0 0 42.5,42 Z m -37,1 A 0.5,0.5 0 0 0 5,43.5 0.5,0.5 0 0 0 5.5,44 0.5,0.5 0 0 0 6,43.5 0.5,0.5 0 0 0 5.5,43 Z m 2,0 A 0.5,0.5 0 0 0 7,43.5 0.5,0.5 0 0 0 7.5,44 0.5,0.5 0 0 0 8,43.5 0.5,0.5 0 0 0 7.5,43 Z m 2,0 A 0.5,0.5 0 0 0 9,43.5 0.5,0.5 0 0 0 9.5,44 0.5,0.5 0 0 0 9.9999999,43.5 0.5,0.5 0 0 0 9.5,43 Z m 2,0 A 0.5,0.5 0 0 0 11,43.5 0.5,0.5 0 0 0 11.5,44 0.5,0.5 0 0 0 12,43.5 0.5,0.5 0 0 0 11.5,43 Z m 2,0 A 0.5,0.5 0 0 0 13,43.5 0.5,0.5 0 0 0 13.5,44 0.5,0.5 0 0 0 14,43.5 0.5,0.5 0 0 0 13.5,43 Z m 2,0 A 0.5,0.5 0 0 0 15,43.5 0.5,0.5 0 0 0 15.5,44 0.5,0.5 0 0 0 16,43.5 0.5,0.5 0 0 0 15.5,43 Z m 2,0 A 0.5,0.5 0 0 0 17,43.5 0.5,0.5 0 0 0 17.5,44 0.5,0.5 0 0 0 18,43.5 0.5,0.5 0 0 0 17.5,43 Z m 2,0 A 0.5,0.5 0 0 0 19,43.5 0.5,0.5 0 0 0 19.5,44 0.5,0.5 0 0 0 20,43.5 0.5,0.5 0 0 0 19.5,43 Z m 2,0 A 0.5,0.5 0 0 0 21,43.5 0.5,0.5 0 0 0 21.5,44 0.5,0.5 0 0 0 22,43.5 0.5,0.5 0 0 0 21.5,43 Z m 2,0 A 0.5,0.5 0 0 0 23,43.5 0.5,0.5 0 0 0 23.5,44 0.5,0.5 0 0 0 24,43.5 0.5,0.5 0 0 0 23.5,43 Z m 2,0 A 0.5,0.5 0 0 0 25,43.5 0.5,0.5 0 0 0 25.5,44 0.5,0.5 0 0 0 26,43.5 0.5,0.5 0 0 0 25.5,43 Z m 2,0 A 0.5,0.5 0 0 0 27,43.5 0.5,0.5 0 0 0 27.5,44 0.5,0.5 0 0 0 28,43.5 0.5,0.5 0 0 0 27.5,43 Z m 2,0 A 0.5,0.5 0 0 0 29,43.5 0.5,0.5 0 0 0 29.5,44 0.5,0.5 0 0 0 30,43.5 0.5,0.5 0 0 0 29.5,43 Z m 2,0 A 0.5,0.5 0 0 0 31,43.5 0.5,0.5 0 0 0 31.5,44 0.5,0.5 0 0 0 32,43.5 0.5,0.5 0 0 0 31.5,43 Z m 2,0 A 0.5,0.5 0 0 0 33,43.5 0.5,0.5 0 0 0 33.5,44 0.5,0.5 0 0 0 34,43.5 0.5,0.5 0 0 0 33.5,43 Z m 2,0 A 0.5,0.5 0 0 0 35,43.5 0.5,0.5 0 0 0 35.5,44 0.5,0.5 0 0 0 36,43.5 0.5,0.5 0 0 0 35.5,43 Z m 2,0 A 0.5,0.5 0 0 0 37,43.5 0.5,0.5 0 0 0 37.5,44 0.5,0.5 0 0 0 38,43.5 0.5,0.5 0 0 0 37.5,43 Z m 2,0 A 0.5,0.5 0 0 0 39,43.5 0.5,0.5 0 0 0 39.5,44 0.5,0.5 0 0 0 40,43.5 0.5,0.5 0 0 0 39.5,43 Z m 2,0 A 0.5,0.5 0 0 0 41,43.5 0.5,0.5 0 0 0 41.5,44 0.5,0.5 0 0 0 42,43.5 0.5,0.5 0 0 0 41.5,43 Z m 2,0 A 0.5,0.5 0 0 0 43,43.5 0.5,0.5 0 0 0 43.5,44 0.5,0.5 0 0 0 44,43.5 0.5,0.5 0 0 0 43.5,43 Z m -39,1 A 0.5,0.5 0 0 0 4,44.5 0.5,0.5 0 0 0 4.5,45 0.5,0.5 0 0 0 5,44.5 0.5,0.5 0 0 0 4.5,44 Z m 2,0 A 0.5,0.5 0 0 0 6,44.5 0.5,0.5 0 0 0 6.5,45 0.5,0.5 0 0 0 7,44.5 0.5,0.5 0 0 0 6.5,44 Z m 2,0 A 0.5,0.5 0 0 0 8,44.5 0.5,0.5 0 0 0 8.5,45 0.5,0.5 0 0 0 9,44.5 0.5,0.5 0 0 0 8.5,44 Z m 2,0 A 0.5,0.5 0 0 0 9.9999999,44.5 0.5,0.5 0 0 0 10.5,45 0.5,0.5 0 0 0 11,44.5 0.5,0.5 0 0 0 10.5,44 Z m 2,0 A 0.5,0.5 0 0 0 12,44.5 0.5,0.5 0 0 0 12.5,45 0.5,0.5 0 0 0 13,44.5 0.5,0.5 0 0 0 12.5,44 Z m 2,0 A 0.5,0.5 0 0 0 14,44.5 0.5,0.5 0 0 0 14.5,45 0.5,0.5 0 0 0 15,44.5 0.5,0.5 0 0 0 14.5,44 Z m 2,0 A 0.5,0.5 0 0 0 16,44.5 0.5,0.5 0 0 0 16.5,45 0.5,0.5 0 0 0 17,44.5 0.5,0.5 0 0 0 16.5,44 Z m 2,0 A 0.5,0.5 0 0 0 18,44.5 0.5,0.5 0 0 0 18.5,45 0.5,0.5 0 0 0 19,44.5 0.5,0.5 0 0 0 18.5,44 Z m 2,0 A 0.5,0.5 0 0 0 20,44.5 0.5,0.5 0 0 0 20.5,45 0.5,0.5 0 0 0 21,44.5 0.5,0.5 0 0 0 20.5,44 Z m 2,0 A 0.5,0.5 0 0 0 22,44.5 0.5,0.5 0 0 0 22.5,45 0.5,0.5 0 0 0 23,44.5 0.5,0.5 0 0 0 22.5,44 Z m 2,0 A 0.5,0.5 0 0 0 24,44.5 0.5,0.5 0 0 0 24.5,45 0.5,0.5 0 0 0 25,44.5 0.5,0.5 0 0 0 24.5,44 Z m 2,0 A 0.5,0.5 0 0 0 26,44.5 0.5,0.5 0 0 0 26.5,45 0.5,0.5 0 0 0 27,44.5 0.5,0.5 0 0 0 26.5,44 Z m 2,0 A 0.5,0.5 0 0 0 28,44.5 0.5,0.5 0 0 0 28.5,45 0.5,0.5 0 0 0 29,44.5 0.5,0.5 0 0 0 28.5,44 Z m 2,0 A 0.5,0.5 0 0 0 30,44.5 0.5,0.5 0 0 0 30.5,45 0.5,0.5 0 0 0 31,44.5 0.5,0.5 0 0 0 30.5,44 Z m 2,0 A 0.5,0.5 0 0 0 32,44.5 0.5,0.5 0 0 0 32.5,45 0.5,0.5 0 0 0 33,44.5 0.5,0.5 0 0 0 32.5,44 Z m 2,0 A 0.5,0.5 0 0 0 34,44.5 0.5,0.5 0 0 0 34.5,45 0.5,0.5 0 0 0 35,44.5 0.5,0.5 0 0 0 34.5,44 Z m 2,0 A 0.5,0.5 0 0 0 36,44.5 0.5,0.5 0 0 0 36.5,45 0.5,0.5 0 0 0 37,44.5 0.5,0.5 0 0 0 36.5,44 Z m 2,0 A 0.5,0.5 0 0 0 38,44.5 0.5,0.5 0 0 0 38.5,45 0.5,0.5 0 0 0 39,44.5 0.5,0.5 0 0 0 38.5,44 Z m 2,0 A 0.5,0.5 0 0 0 40,44.5 0.5,0.5 0 0 0 40.5,45 0.5,0.5 0 0 0 41,44.5 0.5,0.5 0 0 0 40.5,44 Z m 2,0 A 0.5,0.5 0 0 0 42,44.5 0.5,0.5 0 0 0 42.5,45 0.5,0.5 0 0 0 43,44.5 0.5,0.5 0 0 0 42.5,44 Z m -37,1 A 0.5,0.5 0 0 0 5,45.5 0.5,0.5 0 0 0 5.5,46 0.5,0.5 0 0 0 6,45.5 0.5,0.5 0 0 0 5.5,45 Z m 2,0 A 0.5,0.5 0 0 0 7,45.5 0.5,0.5 0 0 0 7.5,46 0.5,0.5 0 0 0 8,45.5 0.5,0.5 0 0 0 7.5,45 Z m 2,0 A 0.5,0.5 0 0 0 9,45.5 0.5,0.5 0 0 0 9.5,46 0.5,0.5 0 0 0 9.9999999,45.5 0.5,0.5 0 0 0 9.5,45 Z m 2,0 A 0.5,0.5 0 0 0 11,45.5 0.5,0.5 0 0 0 11.5,46 0.5,0.5 0 0 0 12,45.5 0.5,0.5 0 0 0 11.5,45 Z m 2,0 A 0.5,0.5 0 0 0 13,45.5 0.5,0.5 0 0 0 13.5,46 0.5,0.5 0 0 0 14,45.5 0.5,0.5 0 0 0 13.5,45 Z m 2,0 A 0.5,0.5 0 0 0 15,45.5 0.5,0.5 0 0 0 15.5,46 0.5,0.5 0 0 0 16,45.5 0.5,0.5 0 0 0 15.5,45 Z m 2,0 A 0.5,0.5 0 0 0 17,45.5 0.5,0.5 0 0 0 17.5,46 0.5,0.5 0 0 0 18,45.5 0.5,0.5 0 0 0 17.5,45 Z m 2,0 A 0.5,0.5 0 0 0 19,45.5 0.5,0.5 0 0 0 19.5,46 0.5,0.5 0 0 0 20,45.5 0.5,0.5 0 0 0 19.5,45 Z m 2,0 A 0.5,0.5 0 0 0 21,45.5 0.5,0.5 0 0 0 21.5,46 0.5,0.5 0 0 0 22,45.5 0.5,0.5 0 0 0 21.5,45 Z m 2,0 A 0.5,0.5 0 0 0 23,45.5 0.5,0.5 0 0 0 23.5,46 0.5,0.5 0 0 0 24,45.5 0.5,0.5 0 0 0 23.5,45 Z m 2,0 A 0.5,0.5 0 0 0 25,45.5 0.5,0.5 0 0 0 25.5,46 0.5,0.5 0 0 0 26,45.5 0.5,0.5 0 0 0 25.5,45 Z m 2,0 A 0.5,0.5 0 0 0 27,45.5 0.5,0.5 0 0 0 27.5,46 0.5,0.5 0 0 0 28,45.5 0.5,0.5 0 0 0 27.5,45 Z m 2,0 A 0.5,0.5 0 0 0 29,45.5 0.5,0.5 0 0 0 29.5,46 0.5,0.5 0 0 0 30,45.5 0.5,0.5 0 0 0 29.5,45 Z m 2,0 A 0.5,0.5 0 0 0 31,45.5 0.5,0.5 0 0 0 31.5,46 0.5,0.5 0 0 0 32,45.5 0.5,0.5 0 0 0 31.5,45 Z m 2,0 A 0.5,0.5 0 0 0 33,45.5 0.5,0.5 0 0 0 33.5,46 0.5,0.5 0 0 0 34,45.5 0.5,0.5 0 0 0 33.5,45 Z m 2,0 A 0.5,0.5 0 0 0 35,45.5 0.5,0.5 0 0 0 35.5,46 0.5,0.5 0 0 0 36,45.5 0.5,0.5 0 0 0 35.5,45 Z m 2,0 A 0.5,0.5 0 0 0 37,45.5 0.5,0.5 0 0 0 37.5,46 0.5,0.5 0 0 0 38,45.5 0.5,0.5 0 0 0 37.5,45 Z m 2,0 A 0.5,0.5 0 0 0 39,45.5 0.5,0.5 0 0 0 39.5,46 0.5,0.5 0 0 0 40,45.5 0.5,0.5 0 0 0 39.5,45 Z m 2,0 A 0.5,0.5 0 0 0 41,45.5 0.5,0.5 0 0 0 41.5,46 0.5,0.5 0 0 0 42,45.5 0.5,0.5 0 0 0 41.5,45 Z m 2,0 A 0.5,0.5 0 0 0 43,45.5 0.5,0.5 0 0 0 43.5,46 0.5,0.5 0 0 0 44,45.5 0.5,0.5 0 0 0 43.5,45 Z m -39,1 A 0.5,0.5 0 0 0 4,46.5 0.5,0.5 0 0 0 4.5,47 0.5,0.5 0 0 0 5,46.5 0.5,0.5 0 0 0 4.5,46 Z m 2,0 A 0.5,0.5 0 0 0 6,46.5 0.5,0.5 0 0 0 6.5,47 0.5,0.5 0 0 0 7,46.5 0.5,0.5 0 0 0 6.5,46 Z m 2,0 A 0.5,0.5 0 0 0 8,46.5 0.5,0.5 0 0 0 8.5,47 0.5,0.5 0 0 0 9,46.5 0.5,0.5 0 0 0 8.5,46 Z m 2,0 A 0.5,0.5 0 0 0 9.9999999,46.5 0.5,0.5 0 0 0 10.5,47 0.5,0.5 0 0 0 11,46.5 0.5,0.5 0 0 0 10.5,46 Z m 2,0 A 0.5,0.5 0 0 0 12,46.5 0.5,0.5 0 0 0 12.5,47 0.5,0.5 0 0 0 13,46.5 0.5,0.5 0 0 0 12.5,46 Z m 2,0 A 0.5,0.5 0 0 0 14,46.5 0.5,0.5 0 0 0 14.5,47 0.5,0.5 0 0 0 15,46.5 0.5,0.5 0 0 0 14.5,46 Z m 2,0 A 0.5,0.5 0 0 0 16,46.5 0.5,0.5 0 0 0 16.5,47 0.5,0.5 0 0 0 17,46.5 0.5,0.5 0 0 0 16.5,46 Z m 2,0 A 0.5,0.5 0 0 0 18,46.5 0.5,0.5 0 0 0 18.5,47 0.5,0.5 0 0 0 19,46.5 0.5,0.5 0 0 0 18.5,46 Z m 2,0 A 0.5,0.5 0 0 0 20,46.5 0.5,0.5 0 0 0 20.5,47 0.5,0.5 0 0 0 21,46.5 0.5,0.5 0 0 0 20.5,46 Z m 2,0 A 0.5,0.5 0 0 0 22,46.5 0.5,0.5 0 0 0 22.5,47 0.5,0.5 0 0 0 23,46.5 0.5,0.5 0 0 0 22.5,46 Z m 2,0 A 0.5,0.5 0 0 0 24,46.5 0.5,0.5 0 0 0 24.5,47 0.5,0.5 0 0 0 25,46.5 0.5,0.5 0 0 0 24.5,46 Z m 2,0 A 0.5,0.5 0 0 0 26,46.5 0.5,0.5 0 0 0 26.5,47 0.5,0.5 0 0 0 27,46.5 0.5,0.5 0 0 0 26.5,46 Z m 2,0 A 0.5,0.5 0 0 0 28,46.5 0.5,0.5 0 0 0 28.5,47 0.5,0.5 0 0 0 29,46.5 0.5,0.5 0 0 0 28.5,46 Z m 2,0 A 0.5,0.5 0 0 0 30,46.5 0.5,0.5 0 0 0 30.5,47 0.5,0.5 0 0 0 31,46.5 0.5,0.5 0 0 0 30.5,46 Z m 2,0 A 0.5,0.5 0 0 0 32,46.5 0.5,0.5 0 0 0 32.5,47 0.5,0.5 0 0 0 33,46.5 0.5,0.5 0 0 0 32.5,46 Z m 2,0 A 0.5,0.5 0 0 0 34,46.5 0.5,0.5 0 0 0 34.5,47 0.5,0.5 0 0 0 35,46.5 0.5,0.5 0 0 0 34.5,46 Z m 2,0 A 0.5,0.5 0 0 0 36,46.5 0.5,0.5 0 0 0 36.5,47 0.5,0.5 0 0 0 37,46.5 0.5,0.5 0 0 0 36.5,46 Z m 2,0 A 0.5,0.5 0 0 0 38,46.5 0.5,0.5 0 0 0 38.5,47 0.5,0.5 0 0 0 39,46.5 0.5,0.5 0 0 0 38.5,46 Z m 2,0 A 0.5,0.5 0 0 0 40,46.5 0.5,0.5 0 0 0 40.5,47 0.5,0.5 0 0 0 41,46.5 0.5,0.5 0 0 0 40.5,46 Z m 2,0 A 0.5,0.5 0 0 0 42,46.5 0.5,0.5 0 0 0 42.5,47 0.5,0.5 0 0 0 43,46.5 0.5,0.5 0 0 0 42.5,46 Z m -37,1 A 0.5,0.5 0 0 0 5,47.5 0.5,0.5 0 0 0 5.5,48 0.5,0.5 0 0 0 6,47.5 0.5,0.5 0 0 0 5.5,47 Z m 2,0 A 0.5,0.5 0 0 0 7,47.5 0.5,0.5 0 0 0 7.5,48 0.5,0.5 0 0 0 8,47.5 0.5,0.5 0 0 0 7.5,47 Z m 2,0 A 0.5,0.5 0 0 0 9,47.5 0.5,0.5 0 0 0 9.5,48 0.5,0.5 0 0 0 9.9999999,47.5 0.5,0.5 0 0 0 9.5,47 Z m 2,0 A 0.5,0.5 0 0 0 11,47.5 0.5,0.5 0 0 0 11.5,48 0.5,0.5 0 0 0 12,47.5 0.5,0.5 0 0 0 11.5,47 Z m 2,0 A 0.5,0.5 0 0 0 13,47.5 0.5,0.5 0 0 0 13.5,48 0.5,0.5 0 0 0 14,47.5 0.5,0.5 0 0 0 13.5,47 Z m 2,0 A 0.5,0.5 0 0 0 15,47.5 0.5,0.5 0 0 0 15.5,48 0.5,0.5 0 0 0 16,47.5 0.5,0.5 0 0 0 15.5,47 Z m 2,0 A 0.5,0.5 0 0 0 17,47.5 0.5,0.5 0 0 0 17.5,48 0.5,0.5 0 0 0 18,47.5 0.5,0.5 0 0 0 17.5,47 Z m 2,0 A 0.5,0.5 0 0 0 19,47.5 0.5,0.5 0 0 0 19.5,48 0.5,0.5 0 0 0 20,47.5 0.5,0.5 0 0 0 19.5,47 Z m 2,0 A 0.5,0.5 0 0 0 21,47.5 0.5,0.5 0 0 0 21.5,48 0.5,0.5 0 0 0 22,47.5 0.5,0.5 0 0 0 21.5,47 Z m 2,0 A 0.5,0.5 0 0 0 23,47.5 0.5,0.5 0 0 0 23.5,48 0.5,0.5 0 0 0 24,47.5 0.5,0.5 0 0 0 23.5,47 Z m 2,0 A 0.5,0.5 0 0 0 25,47.5 0.5,0.5 0 0 0 25.5,48 0.5,0.5 0 0 0 26,47.5 0.5,0.5 0 0 0 25.5,47 Z m 2,0 A 0.5,0.5 0 0 0 27,47.5 0.5,0.5 0 0 0 27.5,48 0.5,0.5 0 0 0 28,47.5 0.5,0.5 0 0 0 27.5,47 Z m 2,0 A 0.5,0.5 0 0 0 29,47.5 0.5,0.5 0 0 0 29.5,48 0.5,0.5 0 0 0 30,47.5 0.5,0.5 0 0 0 29.5,47 Z m 2,0 A 0.5,0.5 0 0 0 31,47.5 0.5,0.5 0 0 0 31.5,48 0.5,0.5 0 0 0 32,47.5 0.5,0.5 0 0 0 31.5,47 Z m 2,0 A 0.5,0.5 0 0 0 33,47.5 0.5,0.5 0 0 0 33.5,48 0.5,0.5 0 0 0 34,47.5 0.5,0.5 0 0 0 33.5,47 Z m 2,0 A 0.5,0.5 0 0 0 35,47.5 0.5,0.5 0 0 0 35.5,48 0.5,0.5 0 0 0 36,47.5 0.5,0.5 0 0 0 35.5,47 Z m 2,0 A 0.5,0.5 0 0 0 37,47.5 0.5,0.5 0 0 0 37.5,48 0.5,0.5 0 0 0 38,47.5 0.5,0.5 0 0 0 37.5,47 Z m 2,0 A 0.5,0.5 0 0 0 39,47.5 0.5,0.5 0 0 0 39.5,48 0.5,0.5 0 0 0 40,47.5 0.5,0.5 0 0 0 39.5,47 Z m 2,0 A 0.5,0.5 0 0 0 41,47.5 0.5,0.5 0 0 0 41.5,48 0.5,0.5 0 0 0 42,47.5 0.5,0.5 0 0 0 41.5,47 Z m 2,0 A 0.5,0.5 0 0 0 43,47.5 0.5,0.5 0 0 0 43.5,48 0.5,0.5 0 0 0 44,47.5 0.5,0.5 0 0 0 43.5,47 Z m -39,1 A 0.5,0.5 0 0 0 4,48.5 0.5,0.5 0 0 0 4.5,49 0.5,0.5 0 0 0 5,48.5 0.5,0.5 0 0 0 4.5,48 Z m 2,0 A 0.5,0.5 0 0 0 6,48.5 0.5,0.5 0 0 0 6.5,49 0.5,0.5 0 0 0 7,48.5 0.5,0.5 0 0 0 6.5,48 Z m 2,0 A 0.5,0.5 0 0 0 8,48.5 0.5,0.5 0 0 0 8.5,49 0.5,0.5 0 0 0 9,48.5 0.5,0.5 0 0 0 8.5,48 Z m 2,0 A 0.5,0.5 0 0 0 9.9999999,48.5 0.5,0.5 0 0 0 10.5,49 0.5,0.5 0 0 0 11,48.5 0.5,0.5 0 0 0 10.5,48 Z m 2,0 A 0.5,0.5 0 0 0 12,48.5 0.5,0.5 0 0 0 12.5,49 0.5,0.5 0 0 0 13,48.5 0.5,0.5 0 0 0 12.5,48 Z m 2,0 A 0.5,0.5 0 0 0 14,48.5 0.5,0.5 0 0 0 14.5,49 0.5,0.5 0 0 0 15,48.5 0.5,0.5 0 0 0 14.5,48 Z m 2,0 A 0.5,0.5 0 0 0 16,48.5 0.5,0.5 0 0 0 16.5,49 0.5,0.5 0 0 0 17,48.5 0.5,0.5 0 0 0 16.5,48 Z m 2,0 A 0.5,0.5 0 0 0 18,48.5 0.5,0.5 0 0 0 18.5,49 0.5,0.5 0 0 0 19,48.5 0.5,0.5 0 0 0 18.5,48 Z m 2,0 A 0.5,0.5 0 0 0 20,48.5 0.5,0.5 0 0 0 20.5,49 0.5,0.5 0 0 0 21,48.5 0.5,0.5 0 0 0 20.5,48 Z m 2,0 A 0.5,0.5 0 0 0 22,48.5 0.5,0.5 0 0 0 22.5,49 0.5,0.5 0 0 0 23,48.5 0.5,0.5 0 0 0 22.5,48 Z m 2,0 A 0.5,0.5 0 0 0 24,48.5 0.5,0.5 0 0 0 24.5,49 0.5,0.5 0 0 0 25,48.5 0.5,0.5 0 0 0 24.5,48 Z m 2,0 A 0.5,0.5 0 0 0 26,48.5 0.5,0.5 0 0 0 26.5,49 0.5,0.5 0 0 0 27,48.5 0.5,0.5 0 0 0 26.5,48 Z m 2,0 A 0.5,0.5 0 0 0 28,48.5 0.5,0.5 0 0 0 28.5,49 0.5,0.5 0 0 0 29,48.5 0.5,0.5 0 0 0 28.5,48 Z m 2,0 A 0.5,0.5 0 0 0 30,48.5 0.5,0.5 0 0 0 30.5,49 0.5,0.5 0 0 0 31,48.5 0.5,0.5 0 0 0 30.5,48 Z m 2,0 A 0.5,0.5 0 0 0 32,48.5 0.5,0.5 0 0 0 32.5,49 0.5,0.5 0 0 0 33,48.5 0.5,0.5 0 0 0 32.5,48 Z m 2,0 A 0.5,0.5 0 0 0 34,48.5 0.5,0.5 0 0 0 34.5,49 0.5,0.5 0 0 0 35,48.5 0.5,0.5 0 0 0 34.5,48 Z m 2,0 A 0.5,0.5 0 0 0 36,48.5 0.5,0.5 0 0 0 36.5,49 0.5,0.5 0 0 0 37,48.5 0.5,0.5 0 0 0 36.5,48 Z m 2,0 A 0.5,0.5 0 0 0 38,48.5 0.5,0.5 0 0 0 38.5,49 0.5,0.5 0 0 0 39,48.5 0.5,0.5 0 0 0 38.5,48 Z m 2,0 A 0.5,0.5 0 0 0 40,48.5 0.5,0.5 0 0 0 40.5,49 0.5,0.5 0 0 0 41,48.5 0.5,0.5 0 0 0 40.5,48 Z m 2,0 A 0.5,0.5 0 0 0 42,48.5 0.5,0.5 0 0 0 42.5,49 0.5,0.5 0 0 0 43,48.5 0.5,0.5 0 0 0 42.5,48 Z m -37,1 A 0.5,0.5 0 0 0 5,49.5 0.5,0.5 0 0 0 5.5,50 0.5,0.5 0 0 0 6,49.5 0.5,0.5 0 0 0 5.5,49 Z m 2,0 A 0.5,0.5 0 0 0 7,49.5 0.5,0.5 0 0 0 7.5,50 0.5,0.5 0 0 0 8,49.5 0.5,0.5 0 0 0 7.5,49 Z m 2,0 A 0.5,0.5 0 0 0 9,49.5 0.5,0.5 0 0 0 9.5,50 0.5,0.5 0 0 0 9.9999999,49.5 0.5,0.5 0 0 0 9.5,49 Z m 2,0 A 0.5,0.5 0 0 0 11,49.5 0.5,0.5 0 0 0 11.5,50 0.5,0.5 0 0 0 12,49.5 0.5,0.5 0 0 0 11.5,49 Z m 2,0 A 0.5,0.5 0 0 0 13,49.5 0.5,0.5 0 0 0 13.5,50 0.5,0.5 0 0 0 14,49.5 0.5,0.5 0 0 0 13.5,49 Z m 2,0 A 0.5,0.5 0 0 0 15,49.5 0.5,0.5 0 0 0 15.5,50 0.5,0.5 0 0 0 16,49.5 0.5,0.5 0 0 0 15.5,49 Z m 2,0 A 0.5,0.5 0 0 0 17,49.5 0.5,0.5 0 0 0 17.5,50 0.5,0.5 0 0 0 18,49.5 0.5,0.5 0 0 0 17.5,49 Z m 2,0 A 0.5,0.5 0 0 0 19,49.5 0.5,0.5 0 0 0 19.5,50 0.5,0.5 0 0 0 20,49.5 0.5,0.5 0 0 0 19.5,49 Z m 2,0 A 0.5,0.5 0 0 0 21,49.5 0.5,0.5 0 0 0 21.5,50 0.5,0.5 0 0 0 22,49.5 0.5,0.5 0 0 0 21.5,49 Z m 2,0 A 0.5,0.5 0 0 0 23,49.5 0.5,0.5 0 0 0 23.5,50 0.5,0.5 0 0 0 24,49.5 0.5,0.5 0 0 0 23.5,49 Z m 2,0 A 0.5,0.5 0 0 0 25,49.5 0.5,0.5 0 0 0 25.5,50 0.5,0.5 0 0 0 26,49.5 0.5,0.5 0 0 0 25.5,49 Z m 2,0 A 0.5,0.5 0 0 0 27,49.5 0.5,0.5 0 0 0 27.5,50 0.5,0.5 0 0 0 28,49.5 0.5,0.5 0 0 0 27.5,49 Z m 2,0 A 0.5,0.5 0 0 0 29,49.5 0.5,0.5 0 0 0 29.5,50 0.5,0.5 0 0 0 30,49.5 0.5,0.5 0 0 0 29.5,49 Z m 2,0 A 0.5,0.5 0 0 0 31,49.5 0.5,0.5 0 0 0 31.5,50 0.5,0.5 0 0 0 32,49.5 0.5,0.5 0 0 0 31.5,49 Z m 2,0 A 0.5,0.5 0 0 0 33,49.5 0.5,0.5 0 0 0 33.5,50 0.5,0.5 0 0 0 34,49.5 0.5,0.5 0 0 0 33.5,49 Z m 2,0 A 0.5,0.5 0 0 0 35,49.5 0.5,0.5 0 0 0 35.5,50 0.5,0.5 0 0 0 36,49.5 0.5,0.5 0 0 0 35.5,49 Z m 2,0 A 0.5,0.5 0 0 0 37,49.5 0.5,0.5 0 0 0 37.5,50 0.5,0.5 0 0 0 38,49.5 0.5,0.5 0 0 0 37.5,49 Z m 2,0 A 0.5,0.5 0 0 0 39,49.5 0.5,0.5 0 0 0 39.5,50 0.5,0.5 0 0 0 40,49.5 0.5,0.5 0 0 0 39.5,49 Z m 2,0 A 0.5,0.5 0 0 0 41,49.5 0.5,0.5 0 0 0 41.5,50 0.5,0.5 0 0 0 42,49.5 0.5,0.5 0 0 0 41.5,49 Z m 2,0 A 0.5,0.5 0 0 0 43,49.5 0.5,0.5 0 0 0 43.5,50 0.5,0.5 0 0 0 44,49.5 0.5,0.5 0 0 0 43.5,49 Z m -39,1 A 0.5,0.5 0 0 0 4,50.5 0.5,0.5 0 0 0 4.5,51 0.5,0.5 0 0 0 5,50.5 0.5,0.5 0 0 0 4.5,50 Z m 2,0 A 0.5,0.5 0 0 0 6,50.5 0.5,0.5 0 0 0 6.5,51 0.5,0.5 0 0 0 7,50.5 0.5,0.5 0 0 0 6.5,50 Z m 2,0 A 0.5,0.5 0 0 0 8,50.5 0.5,0.5 0 0 0 8.5,51 0.5,0.5 0 0 0 9,50.5 0.5,0.5 0 0 0 8.5,50 Z m 2,0 A 0.5,0.5 0 0 0 9.9999999,50.5 0.5,0.5 0 0 0 10.5,51 0.5,0.5 0 0 0 11,50.5 0.5,0.5 0 0 0 10.5,50 Z m 2,0 A 0.5,0.5 0 0 0 12,50.5 0.5,0.5 0 0 0 12.5,51 0.5,0.5 0 0 0 13,50.5 0.5,0.5 0 0 0 12.5,50 Z m 2,0 A 0.5,0.5 0 0 0 14,50.5 0.5,0.5 0 0 0 14.5,51 0.5,0.5 0 0 0 15,50.5 0.5,0.5 0 0 0 14.5,50 Z m 2,0 A 0.5,0.5 0 0 0 16,50.5 0.5,0.5 0 0 0 16.5,51 0.5,0.5 0 0 0 17,50.5 0.5,0.5 0 0 0 16.5,50 Z m 2,0 A 0.5,0.5 0 0 0 18,50.5 0.5,0.5 0 0 0 18.5,51 0.5,0.5 0 0 0 19,50.5 0.5,0.5 0 0 0 18.5,50 Z m 2,0 A 0.5,0.5 0 0 0 20,50.5 0.5,0.5 0 0 0 20.5,51 0.5,0.5 0 0 0 21,50.5 0.5,0.5 0 0 0 20.5,50 Z m 2,0 A 0.5,0.5 0 0 0 22,50.5 0.5,0.5 0 0 0 22.5,51 0.5,0.5 0 0 0 23,50.5 0.5,0.5 0 0 0 22.5,50 Z m 2,0 A 0.5,0.5 0 0 0 24,50.5 0.5,0.5 0 0 0 24.5,51 0.5,0.5 0 0 0 25,50.5 0.5,0.5 0 0 0 24.5,50 Z m 2,0 A 0.5,0.5 0 0 0 26,50.5 0.5,0.5 0 0 0 26.5,51 0.5,0.5 0 0 0 27,50.5 0.5,0.5 0 0 0 26.5,50 Z m 2,0 A 0.5,0.5 0 0 0 28,50.5 0.5,0.5 0 0 0 28.5,51 0.5,0.5 0 0 0 29,50.5 0.5,0.5 0 0 0 28.5,50 Z m 2,0 A 0.5,0.5 0 0 0 30,50.5 0.5,0.5 0 0 0 30.5,51 0.5,0.5 0 0 0 31,50.5 0.5,0.5 0 0 0 30.5,50 Z m 2,0 A 0.5,0.5 0 0 0 32,50.5 0.5,0.5 0 0 0 32.5,51 0.5,0.5 0 0 0 33,50.5 0.5,0.5 0 0 0 32.5,50 Z m 2,0 A 0.5,0.5 0 0 0 34,50.5 0.5,0.5 0 0 0 34.5,51 0.5,0.5 0 0 0 35,50.5 0.5,0.5 0 0 0 34.5,50 Z m 2,0 A 0.5,0.5 0 0 0 36,50.5 0.5,0.5 0 0 0 36.5,51 0.5,0.5 0 0 0 37,50.5 0.5,0.5 0 0 0 36.5,50 Z m 2,0 A 0.5,0.5 0 0 0 38,50.5 0.5,0.5 0 0 0 38.5,51 0.5,0.5 0 0 0 39,50.5 0.5,0.5 0 0 0 38.5,50 Z m 2,0 A 0.5,0.5 0 0 0 40,50.5 0.5,0.5 0 0 0 40.5,51 0.5,0.5 0 0 0 41,50.5 0.5,0.5 0 0 0 40.5,50 Z m 2,0 A 0.5,0.5 0 0 0 42,50.5 0.5,0.5 0 0 0 42.5,51 0.5,0.5 0 0 0 43,50.5 0.5,0.5 0 0 0 42.5,50 Z m -37,1 A 0.5,0.5 0 0 0 5,51.5 0.5,0.5 0 0 0 5.5,52 0.5,0.5 0 0 0 6,51.5 0.5,0.5 0 0 0 5.5,51 Z m 2,0 A 0.5,0.5 0 0 0 7,51.5 0.5,0.5 0 0 0 7.5,52 0.5,0.5 0 0 0 8,51.5 0.5,0.5 0 0 0 7.5,51 Z m 2,0 A 0.5,0.5 0 0 0 9,51.5 0.5,0.5 0 0 0 9.5,52 0.5,0.5 0 0 0 9.9999999,51.5 0.5,0.5 0 0 0 9.5,51 Z m 2,0 A 0.5,0.5 0 0 0 11,51.5 0.5,0.5 0 0 0 11.5,52 0.5,0.5 0 0 0 12,51.5 0.5,0.5 0 0 0 11.5,51 Z m 2,0 A 0.5,0.5 0 0 0 13,51.5 0.5,0.5 0 0 0 13.5,52 0.5,0.5 0 0 0 14,51.5 0.5,0.5 0 0 0 13.5,51 Z m 2,0 A 0.5,0.5 0 0 0 15,51.5 0.5,0.5 0 0 0 15.5,52 0.5,0.5 0 0 0 16,51.5 0.5,0.5 0 0 0 15.5,51 Z m 2,0 A 0.5,0.5 0 0 0 17,51.5 0.5,0.5 0 0 0 17.5,52 0.5,0.5 0 0 0 18,51.5 0.5,0.5 0 0 0 17.5,51 Z m 2,0 A 0.5,0.5 0 0 0 19,51.5 0.5,0.5 0 0 0 19.5,52 0.5,0.5 0 0 0 20,51.5 0.5,0.5 0 0 0 19.5,51 Z m 2,0 A 0.5,0.5 0 0 0 21,51.5 0.5,0.5 0 0 0 21.5,52 0.5,0.5 0 0 0 22,51.5 0.5,0.5 0 0 0 21.5,51 Z m 2,0 A 0.5,0.5 0 0 0 23,51.5 0.5,0.5 0 0 0 23.5,52 0.5,0.5 0 0 0 24,51.5 0.5,0.5 0 0 0 23.5,51 Z m 2,0 A 0.5,0.5 0 0 0 25,51.5 0.5,0.5 0 0 0 25.5,52 0.5,0.5 0 0 0 26,51.5 0.5,0.5 0 0 0 25.5,51 Z m 2,0 A 0.5,0.5 0 0 0 27,51.5 0.5,0.5 0 0 0 27.5,52 0.5,0.5 0 0 0 28,51.5 0.5,0.5 0 0 0 27.5,51 Z m 2,0 A 0.5,0.5 0 0 0 29,51.5 0.5,0.5 0 0 0 29.5,52 0.5,0.5 0 0 0 30,51.5 0.5,0.5 0 0 0 29.5,51 Z m 2,0 A 0.5,0.5 0 0 0 31,51.5 0.5,0.5 0 0 0 31.5,52 0.5,0.5 0 0 0 32,51.5 0.5,0.5 0 0 0 31.5,51 Z m 2,0 A 0.5,0.5 0 0 0 33,51.5 0.5,0.5 0 0 0 33.5,52 0.5,0.5 0 0 0 34,51.5 0.5,0.5 0 0 0 33.5,51 Z m 2,0 A 0.5,0.5 0 0 0 35,51.5 0.5,0.5 0 0 0 35.5,52 0.5,0.5 0 0 0 36,51.5 0.5,0.5 0 0 0 35.5,51 Z m 2,0 A 0.5,0.5 0 0 0 37,51.5 0.5,0.5 0 0 0 37.5,52 0.5,0.5 0 0 0 38,51.5 0.5,0.5 0 0 0 37.5,51 Z m 2,0 A 0.5,0.5 0 0 0 39,51.5 0.5,0.5 0 0 0 39.5,52 0.5,0.5 0 0 0 40,51.5 0.5,0.5 0 0 0 39.5,51 Z m 2,0 A 0.5,0.5 0 0 0 41,51.5 0.5,0.5 0 0 0 41.5,52 0.5,0.5 0 0 0 42,51.5 0.5,0.5 0 0 0 41.5,51 Z m 2,0 A 0.5,0.5 0 0 0 43,51.5 0.5,0.5 0 0 0 43.5,52 0.5,0.5 0 0 0 44,51.5 0.5,0.5 0 0 0 43.5,51 Z m -39,1 A 0.5,0.5 0 0 0 4,52.5 0.5,0.5 0 0 0 4.5,53 0.5,0.5 0 0 0 5,52.5 0.5,0.5 0 0 0 4.5,52 Z m 2,0 A 0.5,0.5 0 0 0 6,52.5 0.5,0.5 0 0 0 6.5,53 0.5,0.5 0 0 0 7,52.5 0.5,0.5 0 0 0 6.5,52 Z m 2,0 A 0.5,0.5 0 0 0 8,52.5 0.5,0.5 0 0 0 8.5,53 0.5,0.5 0 0 0 9,52.5 0.5,0.5 0 0 0 8.5,52 Z m 2,0 A 0.5,0.5 0 0 0 9.9999999,52.5 0.5,0.5 0 0 0 10.5,53 0.5,0.5 0 0 0 11,52.5 0.5,0.5 0 0 0 10.5,52 Z m 2,0 A 0.5,0.5 0 0 0 12,52.5 0.5,0.5 0 0 0 12.5,53 0.5,0.5 0 0 0 13,52.5 0.5,0.5 0 0 0 12.5,52 Z m 2,0 A 0.5,0.5 0 0 0 14,52.5 0.5,0.5 0 0 0 14.5,53 0.5,0.5 0 0 0 15,52.5 0.5,0.5 0 0 0 14.5,52 Z m 2,0 A 0.5,0.5 0 0 0 16,52.5 0.5,0.5 0 0 0 16.5,53 0.5,0.5 0 0 0 17,52.5 0.5,0.5 0 0 0 16.5,52 Z m 2,0 A 0.5,0.5 0 0 0 18,52.5 0.5,0.5 0 0 0 18.5,53 0.5,0.5 0 0 0 19,52.5 0.5,0.5 0 0 0 18.5,52 Z m 2,0 A 0.5,0.5 0 0 0 20,52.5 0.5,0.5 0 0 0 20.5,53 0.5,0.5 0 0 0 21,52.5 0.5,0.5 0 0 0 20.5,52 Z m 2,0 A 0.5,0.5 0 0 0 22,52.5 0.5,0.5 0 0 0 22.5,53 0.5,0.5 0 0 0 23,52.5 0.5,0.5 0 0 0 22.5,52 Z m 2,0 A 0.5,0.5 0 0 0 24,52.5 0.5,0.5 0 0 0 24.5,53 0.5,0.5 0 0 0 25,52.5 0.5,0.5 0 0 0 24.5,52 Z m 2,0 A 0.5,0.5 0 0 0 26,52.5 0.5,0.5 0 0 0 26.5,53 0.5,0.5 0 0 0 27,52.5 0.5,0.5 0 0 0 26.5,52 Z m 2,0 A 0.5,0.5 0 0 0 28,52.5 0.5,0.5 0 0 0 28.5,53 0.5,0.5 0 0 0 29,52.5 0.5,0.5 0 0 0 28.5,52 Z m 2,0 A 0.5,0.5 0 0 0 30,52.5 0.5,0.5 0 0 0 30.5,53 0.5,0.5 0 0 0 31,52.5 0.5,0.5 0 0 0 30.5,52 Z m 2,0 A 0.5,0.5 0 0 0 32,52.5 0.5,0.5 0 0 0 32.5,53 0.5,0.5 0 0 0 33,52.5 0.5,0.5 0 0 0 32.5,52 Z m 2,0 A 0.5,0.5 0 0 0 34,52.5 0.5,0.5 0 0 0 34.5,53 0.5,0.5 0 0 0 35,52.5 0.5,0.5 0 0 0 34.5,52 Z m 2,0 A 0.5,0.5 0 0 0 36,52.5 0.5,0.5 0 0 0 36.5,53 0.5,0.5 0 0 0 37,52.5 0.5,0.5 0 0 0 36.5,52 Z m 2,0 A 0.5,0.5 0 0 0 38,52.5 0.5,0.5 0 0 0 38.5,53 0.5,0.5 0 0 0 39,52.5 0.5,0.5 0 0 0 38.5,52 Z m 2,0 A 0.5,0.5 0 0 0 40,52.5 0.5,0.5 0 0 0 40.5,53 0.5,0.5 0 0 0 41,52.5 0.5,0.5 0 0 0 40.5,52 Z m 2,0 A 0.5,0.5 0 0 0 42,52.5 0.5,0.5 0 0 0 42.5,53 0.5,0.5 0 0 0 43,52.5 0.5,0.5 0 0 0 42.5,52 Z m -37,1 A 0.5,0.5 0 0 0 5,53.5 0.5,0.5 0 0 0 5.5,54 0.5,0.5 0 0 0 6,53.5 0.5,0.5 0 0 0 5.5,53 Z m 2,0 A 0.5,0.5 0 0 0 7,53.5 0.5,0.5 0 0 0 7.5,54 0.5,0.5 0 0 0 8,53.5 0.5,0.5 0 0 0 7.5,53 Z m 2,0 A 0.5,0.5 0 0 0 9,53.5 0.5,0.5 0 0 0 9.5,54 0.5,0.5 0 0 0 9.9999999,53.5 0.5,0.5 0 0 0 9.5,53 Z m 2,0 A 0.5,0.5 0 0 0 11,53.5 0.5,0.5 0 0 0 11.5,54 0.5,0.5 0 0 0 12,53.5 0.5,0.5 0 0 0 11.5,53 Z m 2,0 A 0.5,0.5 0 0 0 13,53.5 0.5,0.5 0 0 0 13.5,54 0.5,0.5 0 0 0 14,53.5 0.5,0.5 0 0 0 13.5,53 Z m 2,0 A 0.5,0.5 0 0 0 15,53.5 0.5,0.5 0 0 0 15.5,54 0.5,0.5 0 0 0 16,53.5 0.5,0.5 0 0 0 15.5,53 Z m 2,0 A 0.5,0.5 0 0 0 17,53.5 0.5,0.5 0 0 0 17.5,54 0.5,0.5 0 0 0 18,53.5 0.5,0.5 0 0 0 17.5,53 Z m 2,0 A 0.5,0.5 0 0 0 19,53.5 0.5,0.5 0 0 0 19.5,54 0.5,0.5 0 0 0 20,53.5 0.5,0.5 0 0 0 19.5,53 Z m 2,0 A 0.5,0.5 0 0 0 21,53.5 0.5,0.5 0 0 0 21.5,54 0.5,0.5 0 0 0 22,53.5 0.5,0.5 0 0 0 21.5,53 Z m 2,0 A 0.5,0.5 0 0 0 23,53.5 0.5,0.5 0 0 0 23.5,54 0.5,0.5 0 0 0 24,53.5 0.5,0.5 0 0 0 23.5,53 Z m 2,0 A 0.5,0.5 0 0 0 25,53.5 0.5,0.5 0 0 0 25.5,54 0.5,0.5 0 0 0 26,53.5 0.5,0.5 0 0 0 25.5,53 Z m 2,0 A 0.5,0.5 0 0 0 27,53.5 0.5,0.5 0 0 0 27.5,54 0.5,0.5 0 0 0 28,53.5 0.5,0.5 0 0 0 27.5,53 Z m 2,0 A 0.5,0.5 0 0 0 29,53.5 0.5,0.5 0 0 0 29.5,54 0.5,0.5 0 0 0 30,53.5 0.5,0.5 0 0 0 29.5,53 Z m 2,0 A 0.5,0.5 0 0 0 31,53.5 0.5,0.5 0 0 0 31.5,54 0.5,0.5 0 0 0 32,53.5 0.5,0.5 0 0 0 31.5,53 Z m 2,0 A 0.5,0.5 0 0 0 33,53.5 0.5,0.5 0 0 0 33.5,54 0.5,0.5 0 0 0 34,53.5 0.5,0.5 0 0 0 33.5,53 Z m 2,0 A 0.5,0.5 0 0 0 35,53.5 0.5,0.5 0 0 0 35.5,54 0.5,0.5 0 0 0 36,53.5 0.5,0.5 0 0 0 35.5,53 Z m 2,0 A 0.5,0.5 0 0 0 37,53.5 0.5,0.5 0 0 0 37.5,54 0.5,0.5 0 0 0 38,53.5 0.5,0.5 0 0 0 37.5,53 Z m 2,0 A 0.5,0.5 0 0 0 39,53.5 0.5,0.5 0 0 0 39.5,54 0.5,0.5 0 0 0 40,53.5 0.5,0.5 0 0 0 39.5,53 Z m 2,0 A 0.5,0.5 0 0 0 41,53.5 0.5,0.5 0 0 0 41.5,54 0.5,0.5 0 0 0 42,53.5 0.5,0.5 0 0 0 41.5,53 Z m 2,0 A 0.5,0.5 0 0 0 43,53.5 0.5,0.5 0 0 0 43.5,54 0.5,0.5 0 0 0 44,53.5 0.5,0.5 0 0 0 43.5,53 Z m -39,1 A 0.5,0.5 0 0 0 4,54.5 0.5,0.5 0 0 0 4.5,55 0.5,0.5 0 0 0 5,54.5 0.5,0.5 0 0 0 4.5,54 Z m 2,0 A 0.5,0.5 0 0 0 6,54.5 0.5,0.5 0 0 0 6.5,55 0.5,0.5 0 0 0 7,54.5 0.5,0.5 0 0 0 6.5,54 Z m 2,0 A 0.5,0.5 0 0 0 8,54.5 0.5,0.5 0 0 0 8.5,55 0.5,0.5 0 0 0 9,54.5 0.5,0.5 0 0 0 8.5,54 Z m 2,0 A 0.5,0.5 0 0 0 9.9999999,54.5 0.5,0.5 0 0 0 10.5,55 0.5,0.5 0 0 0 11,54.5 0.5,0.5 0 0 0 10.5,54 Z m 2,0 A 0.5,0.5 0 0 0 12,54.5 0.5,0.5 0 0 0 12.5,55 0.5,0.5 0 0 0 13,54.5 0.5,0.5 0 0 0 12.5,54 Z m 2,0 A 0.5,0.5 0 0 0 14,54.5 0.5,0.5 0 0 0 14.5,55 0.5,0.5 0 0 0 15,54.5 0.5,0.5 0 0 0 14.5,54 Z m 2,0 A 0.5,0.5 0 0 0 16,54.5 0.5,0.5 0 0 0 16.5,55 0.5,0.5 0 0 0 17,54.5 0.5,0.5 0 0 0 16.5,54 Z m 2,0 A 0.5,0.5 0 0 0 18,54.5 0.5,0.5 0 0 0 18.5,55 0.5,0.5 0 0 0 19,54.5 0.5,0.5 0 0 0 18.5,54 Z m 2,0 A 0.5,0.5 0 0 0 20,54.5 0.5,0.5 0 0 0 20.5,55 0.5,0.5 0 0 0 21,54.5 0.5,0.5 0 0 0 20.5,54 Z m 2,0 A 0.5,0.5 0 0 0 22,54.5 0.5,0.5 0 0 0 22.5,55 0.5,0.5 0 0 0 23,54.5 0.5,0.5 0 0 0 22.5,54 Z m 2,0 A 0.5,0.5 0 0 0 24,54.5 0.5,0.5 0 0 0 24.5,55 0.5,0.5 0 0 0 25,54.5 0.5,0.5 0 0 0 24.5,54 Z m 2,0 A 0.5,0.5 0 0 0 26,54.5 0.5,0.5 0 0 0 26.5,55 0.5,0.5 0 0 0 27,54.5 0.5,0.5 0 0 0 26.5,54 Z m 2,0 A 0.5,0.5 0 0 0 28,54.5 0.5,0.5 0 0 0 28.5,55 0.5,0.5 0 0 0 29,54.5 0.5,0.5 0 0 0 28.5,54 Z m 2,0 A 0.5,0.5 0 0 0 30,54.5 0.5,0.5 0 0 0 30.5,55 0.5,0.5 0 0 0 31,54.5 0.5,0.5 0 0 0 30.5,54 Z m 2,0 A 0.5,0.5 0 0 0 32,54.5 0.5,0.5 0 0 0 32.5,55 0.5,0.5 0 0 0 33,54.5 0.5,0.5 0 0 0 32.5,54 Z m 2,0 A 0.5,0.5 0 0 0 34,54.5 0.5,0.5 0 0 0 34.5,55 0.5,0.5 0 0 0 35,54.5 0.5,0.5 0 0 0 34.5,54 Z m 2,0 A 0.5,0.5 0 0 0 36,54.5 0.5,0.5 0 0 0 36.5,55 0.5,0.5 0 0 0 37,54.5 0.5,0.5 0 0 0 36.5,54 Z m 2,0 A 0.5,0.5 0 0 0 38,54.5 0.5,0.5 0 0 0 38.5,55 0.5,0.5 0 0 0 39,54.5 0.5,0.5 0 0 0 38.5,54 Z m 2,0 A 0.5,0.5 0 0 0 40,54.5 0.5,0.5 0 0 0 40.5,55 0.5,0.5 0 0 0 41,54.5 0.5,0.5 0 0 0 40.5,54 Z m 2,0 A 0.5,0.5 0 0 0 42,54.5 0.5,0.5 0 0 0 42.5,55 0.5,0.5 0 0 0 43,54.5 0.5,0.5 0 0 0 42.5,54 Z m -37,1 A 0.5,0.5 0 0 0 5,55.5 0.5,0.5 0 0 0 5.5,56 0.5,0.5 0 0 0 6,55.5 0.5,0.5 0 0 0 5.5,55 Z m 2,0 A 0.5,0.5 0 0 0 7,55.5 0.5,0.5 0 0 0 7.5,56 0.5,0.5 0 0 0 8,55.5 0.5,0.5 0 0 0 7.5,55 Z m 2,0 A 0.5,0.5 0 0 0 9,55.5 0.5,0.5 0 0 0 9.5,56 0.5,0.5 0 0 0 9.9999999,55.5 0.5,0.5 0 0 0 9.5,55 Z m 2,0 A 0.5,0.5 0 0 0 11,55.5 0.5,0.5 0 0 0 11.5,56 0.5,0.5 0 0 0 12,55.5 0.5,0.5 0 0 0 11.5,55 Z m 2,0 A 0.5,0.5 0 0 0 13,55.5 0.5,0.5 0 0 0 13.5,56 0.5,0.5 0 0 0 14,55.5 0.5,0.5 0 0 0 13.5,55 Z m 2,0 A 0.5,0.5 0 0 0 15,55.5 0.5,0.5 0 0 0 15.5,56 0.5,0.5 0 0 0 16,55.5 0.5,0.5 0 0 0 15.5,55 Z m 2,0 A 0.5,0.5 0 0 0 17,55.5 0.5,0.5 0 0 0 17.5,56 0.5,0.5 0 0 0 18,55.5 0.5,0.5 0 0 0 17.5,55 Z m 2,0 A 0.5,0.5 0 0 0 19,55.5 0.5,0.5 0 0 0 19.5,56 0.5,0.5 0 0 0 20,55.5 0.5,0.5 0 0 0 19.5,55 Z m 2,0 A 0.5,0.5 0 0 0 21,55.5 0.5,0.5 0 0 0 21.5,56 0.5,0.5 0 0 0 22,55.5 0.5,0.5 0 0 0 21.5,55 Z m 2,0 A 0.5,0.5 0 0 0 23,55.5 0.5,0.5 0 0 0 23.5,56 0.5,0.5 0 0 0 24,55.5 0.5,0.5 0 0 0 23.5,55 Z m 2,0 A 0.5,0.5 0 0 0 25,55.5 0.5,0.5 0 0 0 25.5,56 0.5,0.5 0 0 0 26,55.5 0.5,0.5 0 0 0 25.5,55 Z m 2,0 A 0.5,0.5 0 0 0 27,55.5 0.5,0.5 0 0 0 27.5,56 0.5,0.5 0 0 0 28,55.5 0.5,0.5 0 0 0 27.5,55 Z m 2,0 A 0.5,0.5 0 0 0 29,55.5 0.5,0.5 0 0 0 29.5,56 0.5,0.5 0 0 0 30,55.5 0.5,0.5 0 0 0 29.5,55 Z m 2,0 A 0.5,0.5 0 0 0 31,55.5 0.5,0.5 0 0 0 31.5,56 0.5,0.5 0 0 0 32,55.5 0.5,0.5 0 0 0 31.5,55 Z m 2,0 A 0.5,0.5 0 0 0 33,55.5 0.5,0.5 0 0 0 33.5,56 0.5,0.5 0 0 0 34,55.5 0.5,0.5 0 0 0 33.5,55 Z m 2,0 A 0.5,0.5 0 0 0 35,55.5 0.5,0.5 0 0 0 35.5,56 0.5,0.5 0 0 0 36,55.5 0.5,0.5 0 0 0 35.5,55 Z m 2,0 A 0.5,0.5 0 0 0 37,55.5 0.5,0.5 0 0 0 37.5,56 0.5,0.5 0 0 0 38,55.5 0.5,0.5 0 0 0 37.5,55 Z m 2,0 A 0.5,0.5 0 0 0 39,55.5 0.5,0.5 0 0 0 39.5,56 0.5,0.5 0 0 0 40,55.5 0.5,0.5 0 0 0 39.5,55 Z m 2,0 A 0.5,0.5 0 0 0 41,55.5 0.5,0.5 0 0 0 41.5,56 0.5,0.5 0 0 0 42,55.5 0.5,0.5 0 0 0 41.5,55 Z m 2,0 A 0.5,0.5 0 0 0 43,55.5 0.5,0.5 0 0 0 43.5,56 0.5,0.5 0 0 0 44,55.5 0.5,0.5 0 0 0 43.5,55 Z m -39,1 A 0.5,0.5 0 0 0 4,56.5 0.5,0.5 0 0 0 4.5,57 0.5,0.5 0 0 0 5,56.5 0.5,0.5 0 0 0 4.5,56 Z m 2,0 A 0.5,0.5 0 0 0 6,56.5 0.5,0.5 0 0 0 6.5,57 0.5,0.5 0 0 0 7,56.5 0.5,0.5 0 0 0 6.5,56 Z m 2,0 A 0.5,0.5 0 0 0 8,56.5 0.5,0.5 0 0 0 8.5,57 0.5,0.5 0 0 0 9,56.5 0.5,0.5 0 0 0 8.5,56 Z m 2,0 A 0.5,0.5 0 0 0 9.9999999,56.5 0.5,0.5 0 0 0 10.5,57 0.5,0.5 0 0 0 11,56.5 0.5,0.5 0 0 0 10.5,56 Z m 2,0 A 0.5,0.5 0 0 0 12,56.5 0.5,0.5 0 0 0 12.5,57 0.5,0.5 0 0 0 13,56.5 0.5,0.5 0 0 0 12.5,56 Z m 2,0 A 0.5,0.5 0 0 0 14,56.5 0.5,0.5 0 0 0 14.5,57 0.5,0.5 0 0 0 15,56.5 0.5,0.5 0 0 0 14.5,56 Z m 2,0 A 0.5,0.5 0 0 0 16,56.5 0.5,0.5 0 0 0 16.5,57 0.5,0.5 0 0 0 17,56.5 0.5,0.5 0 0 0 16.5,56 Z m 2,0 A 0.5,0.5 0 0 0 18,56.5 0.5,0.5 0 0 0 18.5,57 0.5,0.5 0 0 0 19,56.5 0.5,0.5 0 0 0 18.5,56 Z m 2,0 A 0.5,0.5 0 0 0 20,56.5 0.5,0.5 0 0 0 20.5,57 0.5,0.5 0 0 0 21,56.5 0.5,0.5 0 0 0 20.5,56 Z m 2,0 A 0.5,0.5 0 0 0 22,56.5 0.5,0.5 0 0 0 22.5,57 0.5,0.5 0 0 0 23,56.5 0.5,0.5 0 0 0 22.5,56 Z m 2,0 A 0.5,0.5 0 0 0 24,56.5 0.5,0.5 0 0 0 24.5,57 0.5,0.5 0 0 0 25,56.5 0.5,0.5 0 0 0 24.5,56 Z m 2,0 A 0.5,0.5 0 0 0 26,56.5 0.5,0.5 0 0 0 26.5,57 0.5,0.5 0 0 0 27,56.5 0.5,0.5 0 0 0 26.5,56 Z m 2,0 A 0.5,0.5 0 0 0 28,56.5 0.5,0.5 0 0 0 28.5,57 0.5,0.5 0 0 0 29,56.5 0.5,0.5 0 0 0 28.5,56 Z m 2,0 A 0.5,0.5 0 0 0 30,56.5 0.5,0.5 0 0 0 30.5,57 0.5,0.5 0 0 0 31,56.5 0.5,0.5 0 0 0 30.5,56 Z m 2,0 A 0.5,0.5 0 0 0 32,56.5 0.5,0.5 0 0 0 32.5,57 0.5,0.5 0 0 0 33,56.5 0.5,0.5 0 0 0 32.5,56 Z m 2,0 A 0.5,0.5 0 0 0 34,56.5 0.5,0.5 0 0 0 34.5,57 0.5,0.5 0 0 0 35,56.5 0.5,0.5 0 0 0 34.5,56 Z m 2,0 A 0.5,0.5 0 0 0 36,56.5 0.5,0.5 0 0 0 36.5,57 0.5,0.5 0 0 0 37,56.5 0.5,0.5 0 0 0 36.5,56 Z m 2,0 A 0.5,0.5 0 0 0 38,56.5 0.5,0.5 0 0 0 38.5,57 0.5,0.5 0 0 0 39,56.5 0.5,0.5 0 0 0 38.5,56 Z m 2,0 A 0.5,0.5 0 0 0 40,56.5 0.5,0.5 0 0 0 40.5,57 0.5,0.5 0 0 0 41,56.5 0.5,0.5 0 0 0 40.5,56 Z m 2,0 A 0.5,0.5 0 0 0 42,56.5 0.5,0.5 0 0 0 42.5,57 0.5,0.5 0 0 0 43,56.5 0.5,0.5 0 0 0 42.5,56 Z m -37,1 A 0.5,0.5 0 0 0 5,57.5 0.5,0.5 0 0 0 5.5,58 0.5,0.5 0 0 0 6,57.5 0.5,0.5 0 0 0 5.5,57 Z m 2,0 A 0.5,0.5 0 0 0 7,57.5 0.5,0.5 0 0 0 7.5,58 0.5,0.5 0 0 0 8,57.5 0.5,0.5 0 0 0 7.5,57 Z m 2,0 A 0.5,0.5 0 0 0 9,57.5 0.5,0.5 0 0 0 9.5,58 0.5,0.5 0 0 0 9.9999999,57.5 0.5,0.5 0 0 0 9.5,57 Z m 2,0 A 0.5,0.5 0 0 0 11,57.5 0.5,0.5 0 0 0 11.5,58 0.5,0.5 0 0 0 12,57.5 0.5,0.5 0 0 0 11.5,57 Z m 2,0 A 0.5,0.5 0 0 0 13,57.5 0.5,0.5 0 0 0 13.5,58 0.5,0.5 0 0 0 14,57.5 0.5,0.5 0 0 0 13.5,57 Z m 2,0 A 0.5,0.5 0 0 0 15,57.5 0.5,0.5 0 0 0 15.5,58 0.5,0.5 0 0 0 16,57.5 0.5,0.5 0 0 0 15.5,57 Z m 2,0 A 0.5,0.5 0 0 0 17,57.5 0.5,0.5 0 0 0 17.5,58 0.5,0.5 0 0 0 18,57.5 0.5,0.5 0 0 0 17.5,57 Z m 2,0 A 0.5,0.5 0 0 0 19,57.5 0.5,0.5 0 0 0 19.5,58 0.5,0.5 0 0 0 20,57.5 0.5,0.5 0 0 0 19.5,57 Z m 2,0 A 0.5,0.5 0 0 0 21,57.5 0.5,0.5 0 0 0 21.5,58 0.5,0.5 0 0 0 22,57.5 0.5,0.5 0 0 0 21.5,57 Z m 2,0 A 0.5,0.5 0 0 0 23,57.5 0.5,0.5 0 0 0 23.5,58 0.5,0.5 0 0 0 24,57.5 0.5,0.5 0 0 0 23.5,57 Z m 2,0 A 0.5,0.5 0 0 0 25,57.5 0.5,0.5 0 0 0 25.5,58 0.5,0.5 0 0 0 26,57.5 0.5,0.5 0 0 0 25.5,57 Z m 2,0 A 0.5,0.5 0 0 0 27,57.5 0.5,0.5 0 0 0 27.5,58 0.5,0.5 0 0 0 28,57.5 0.5,0.5 0 0 0 27.5,57 Z m 2,0 A 0.5,0.5 0 0 0 29,57.5 0.5,0.5 0 0 0 29.5,58 0.5,0.5 0 0 0 30,57.5 0.5,0.5 0 0 0 29.5,57 Z m 2,0 A 0.5,0.5 0 0 0 31,57.5 0.5,0.5 0 0 0 31.5,58 0.5,0.5 0 0 0 32,57.5 0.5,0.5 0 0 0 31.5,57 Z m 2,0 A 0.5,0.5 0 0 0 33,57.5 0.5,0.5 0 0 0 33.5,58 0.5,0.5 0 0 0 34,57.5 0.5,0.5 0 0 0 33.5,57 Z m 2,0 A 0.5,0.5 0 0 0 35,57.5 0.5,0.5 0 0 0 35.5,58 0.5,0.5 0 0 0 36,57.5 0.5,0.5 0 0 0 35.5,57 Z m 2,0 A 0.5,0.5 0 0 0 37,57.5 0.5,0.5 0 0 0 37.5,58 0.5,0.5 0 0 0 38,57.5 0.5,0.5 0 0 0 37.5,57 Z m 2,0 A 0.5,0.5 0 0 0 39,57.5 0.5,0.5 0 0 0 39.5,58 0.5,0.5 0 0 0 40,57.5 0.5,0.5 0 0 0 39.5,57 Z m 2,0 A 0.5,0.5 0 0 0 41,57.5 0.5,0.5 0 0 0 41.5,58 0.5,0.5 0 0 0 42,57.5 0.5,0.5 0 0 0 41.5,57 Z m 2,0 A 0.5,0.5 0 0 0 43,57.5 0.5,0.5 0 0 0 43.5,58 0.5,0.5 0 0 0 44,57.5 0.5,0.5 0 0 0 43.5,57 Z m -39,1 A 0.5,0.5 0 0 0 4,58.5 0.5,0.5 0 0 0 4.5,59 0.5,0.5 0 0 0 5,58.5 0.5,0.5 0 0 0 4.5,58 Z m 2,0 A 0.5,0.5 0 0 0 6,58.5 0.5,0.5 0 0 0 6.5,59 0.5,0.5 0 0 0 7,58.5 0.5,0.5 0 0 0 6.5,58 Z m 2,0 A 0.5,0.5 0 0 0 8,58.5 0.5,0.5 0 0 0 8.5,59 0.5,0.5 0 0 0 9,58.5 0.5,0.5 0 0 0 8.5,58 Z m 2,0 A 0.5,0.5 0 0 0 9.9999999,58.5 0.5,0.5 0 0 0 10.5,59 0.5,0.5 0 0 0 11,58.5 0.5,0.5 0 0 0 10.5,58 Z m 2,0 A 0.5,0.5 0 0 0 12,58.5 0.5,0.5 0 0 0 12.5,59 0.5,0.5 0 0 0 13,58.5 0.5,0.5 0 0 0 12.5,58 Z m 2,0 A 0.5,0.5 0 0 0 14,58.5 0.5,0.5 0 0 0 14.5,59 0.5,0.5 0 0 0 15,58.5 0.5,0.5 0 0 0 14.5,58 Z m 2,0 A 0.5,0.5 0 0 0 16,58.5 0.5,0.5 0 0 0 16.5,59 0.5,0.5 0 0 0 17,58.5 0.5,0.5 0 0 0 16.5,58 Z m 2,0 A 0.5,0.5 0 0 0 18,58.5 0.5,0.5 0 0 0 18.5,59 0.5,0.5 0 0 0 19,58.5 0.5,0.5 0 0 0 18.5,58 Z m 2,0 A 0.5,0.5 0 0 0 20,58.5 0.5,0.5 0 0 0 20.5,59 0.5,0.5 0 0 0 21,58.5 0.5,0.5 0 0 0 20.5,58 Z m 2,0 A 0.5,0.5 0 0 0 22,58.5 0.5,0.5 0 0 0 22.5,59 0.5,0.5 0 0 0 23,58.5 0.5,0.5 0 0 0 22.5,58 Z m 2,0 A 0.5,0.5 0 0 0 24,58.5 0.5,0.5 0 0 0 24.5,59 0.5,0.5 0 0 0 25,58.5 0.5,0.5 0 0 0 24.5,58 Z m 2,0 A 0.5,0.5 0 0 0 26,58.5 0.5,0.5 0 0 0 26.5,59 0.5,0.5 0 0 0 27,58.5 0.5,0.5 0 0 0 26.5,58 Z m 2,0 A 0.5,0.5 0 0 0 28,58.5 0.5,0.5 0 0 0 28.5,59 0.5,0.5 0 0 0 29,58.5 0.5,0.5 0 0 0 28.5,58 Z m 2,0 A 0.5,0.5 0 0 0 30,58.5 0.5,0.5 0 0 0 30.5,59 0.5,0.5 0 0 0 31,58.5 0.5,0.5 0 0 0 30.5,58 Z m 2,0 A 0.5,0.5 0 0 0 32,58.5 0.5,0.5 0 0 0 32.5,59 0.5,0.5 0 0 0 33,58.5 0.5,0.5 0 0 0 32.5,58 Z m 2,0 A 0.5,0.5 0 0 0 34,58.5 0.5,0.5 0 0 0 34.5,59 0.5,0.5 0 0 0 35,58.5 0.5,0.5 0 0 0 34.5,58 Z m 2,0 A 0.5,0.5 0 0 0 36,58.5 0.5,0.5 0 0 0 36.5,59 0.5,0.5 0 0 0 37,58.5 0.5,0.5 0 0 0 36.5,58 Z m 2,0 A 0.5,0.5 0 0 0 38,58.5 0.5,0.5 0 0 0 38.5,59 0.5,0.5 0 0 0 39,58.5 0.5,0.5 0 0 0 38.5,58 Z m 2,0 A 0.5,0.5 0 0 0 40,58.5 0.5,0.5 0 0 0 40.5,59 0.5,0.5 0 0 0 41,58.5 0.5,0.5 0 0 0 40.5,58 Z m 2,0 A 0.5,0.5 0 0 0 42,58.5 0.5,0.5 0 0 0 42.5,59 0.5,0.5 0 0 0 43,58.5 0.5,0.5 0 0 0 42.5,58 Z m -37,1 A 0.5,0.5 0 0 0 5,59.5 0.5,0.5 0 0 0 5.5,60 0.5,0.5 0 0 0 6,59.5 0.5,0.5 0 0 0 5.5,59 Z m 2,0 A 0.5,0.5 0 0 0 7,59.5 0.5,0.5 0 0 0 7.5,60 0.5,0.5 0 0 0 8,59.5 0.5,0.5 0 0 0 7.5,59 Z m 2,0 A 0.5,0.5 0 0 0 9,59.5 0.5,0.5 0 0 0 9.5,60 0.5,0.5 0 0 0 9.9999999,59.5 0.5,0.5 0 0 0 9.5,59 Z m 2,0 A 0.5,0.5 0 0 0 11,59.5 0.5,0.5 0 0 0 11.5,60 0.5,0.5 0 0 0 12,59.5 0.5,0.5 0 0 0 11.5,59 Z m 2,0 A 0.5,0.5 0 0 0 13,59.5 0.5,0.5 0 0 0 13.5,60 0.5,0.5 0 0 0 14,59.5 0.5,0.5 0 0 0 13.5,59 Z m 2,0 A 0.5,0.5 0 0 0 15,59.5 0.5,0.5 0 0 0 15.5,60 0.5,0.5 0 0 0 16,59.5 0.5,0.5 0 0 0 15.5,59 Z m 2,0 A 0.5,0.5 0 0 0 17,59.5 0.5,0.5 0 0 0 17.5,60 0.5,0.5 0 0 0 18,59.5 0.5,0.5 0 0 0 17.5,59 Z m 2,0 A 0.5,0.5 0 0 0 19,59.5 0.5,0.5 0 0 0 19.5,60 0.5,0.5 0 0 0 20,59.5 0.5,0.5 0 0 0 19.5,59 Z m 2,0 A 0.5,0.5 0 0 0 21,59.5 0.5,0.5 0 0 0 21.5,60 0.5,0.5 0 0 0 22,59.5 0.5,0.5 0 0 0 21.5,59 Z m 2,0 A 0.5,0.5 0 0 0 23,59.5 0.5,0.5 0 0 0 23.5,60 0.5,0.5 0 0 0 24,59.5 0.5,0.5 0 0 0 23.5,59 Z m 2,0 A 0.5,0.5 0 0 0 25,59.5 0.5,0.5 0 0 0 25.5,60 0.5,0.5 0 0 0 26,59.5 0.5,0.5 0 0 0 25.5,59 Z m 2,0 A 0.5,0.5 0 0 0 27,59.5 0.5,0.5 0 0 0 27.5,60 0.5,0.5 0 0 0 28,59.5 0.5,0.5 0 0 0 27.5,59 Z m 2,0 A 0.5,0.5 0 0 0 29,59.5 0.5,0.5 0 0 0 29.5,60 0.5,0.5 0 0 0 30,59.5 0.5,0.5 0 0 0 29.5,59 Z m 2,0 A 0.5,0.5 0 0 0 31,59.5 0.5,0.5 0 0 0 31.5,60 0.5,0.5 0 0 0 32,59.5 0.5,0.5 0 0 0 31.5,59 Z m 2,0 A 0.5,0.5 0 0 0 33,59.5 0.5,0.5 0 0 0 33.5,60 0.5,0.5 0 0 0 34,59.5 0.5,0.5 0 0 0 33.5,59 Z m 2,0 A 0.5,0.5 0 0 0 35,59.5 0.5,0.5 0 0 0 35.5,60 0.5,0.5 0 0 0 36,59.5 0.5,0.5 0 0 0 35.5,59 Z m 2,0 A 0.5,0.5 0 0 0 37,59.5 0.5,0.5 0 0 0 37.5,60 0.5,0.5 0 0 0 38,59.5 0.5,0.5 0 0 0 37.5,59 Z m 2,0 A 0.5,0.5 0 0 0 39,59.5 0.5,0.5 0 0 0 39.5,60 0.5,0.5 0 0 0 40,59.5 0.5,0.5 0 0 0 39.5,59 Z m 2,0 A 0.5,0.5 0 0 0 41,59.5 0.5,0.5 0 0 0 41.5,60 0.5,0.5 0 0 0 42,59.5 0.5,0.5 0 0 0 41.5,59 Z m 2,0 A 0.5,0.5 0 0 0 43,59.5 0.5,0.5 0 0 0 43.5,60 0.5,0.5 0 0 0 44,59.5 0.5,0.5 0 0 0 43.5,59 Z"
       id="path13591"
       inkscape:connector-curvature="0" />
    <rect
       style="opacity:1;fill:#ffffff;fill-opacity:1;fill-rule:nonzero;stroke:#b6c1c9;stroke-width:0.5;stroke-linecap:round;stroke-linejoin:round;stroke-miterlimit:4;stroke-dasharray:none;stroke-dashoffset:0;stroke-opacity:1"
       id="rect4197"
       width="21"
       height="15"
       x="11"
       y="35" />
    <path
       style="fill:#ffffff;fill-opacity:1;fill-rule:evenodd;stroke:none;stroke-width:1px;stroke-linecap:butt;stroke-linejoin:miter;stroke-opacity:1"
       d="m 19,51 14,0 0,-10 4,0 0,14 -18,0 z"
       id="path4162"
       inkscape:connector-curvature="0"
       sodipodi:nodetypes="ccccccc" />
    <path
       style="fill:none;fill-rule:evenodd;stroke:#b6c1c9;stroke-width:0.5;stroke-linecap:round;stroke-linejoin:round;stroke-miterlimit:4;stroke-dasharray:none;stroke-opacity:1"
       d="m 19,51 0,4 18,0 0,-14 -4,0"
       id="path4201"
       inkscape:connector-curvature="0"
       sodipodi:nodetypes="ccccc" />
    <rect
       style="opacity:1;fill:#b6c1c9;fill-opacity:1;fill-rule:nonzero;stroke:#b6c1c9;stroke-width:0.5;stroke-linecap:butt;stroke-linejoin:round;stroke-miterlimit:4;stroke-dasharray:none;stroke-dashoffset:0;stroke-opacity:1"
       id="rect4166"
       width="21"
       height="2"
       x="11"
       y="35" />
    <path
       style="fill:none;fill-rule:evenodd;stroke:#b6c1c9;stroke-width:0.5;stroke-linecap:round;stroke-linejoin:miter;stroke-miterlimit:4;stroke-dasharray:none;stroke-opacity:1"
       d="m 37,43 -4,0"
       id="path4168"
       inkscape:connector-curvature="0"
       sodipodi:nodetypes="cc" />
    <rect
       style="opacity:1;fill:#b6c1c9;fill-opacity:1;fill-rule:nonzero;stroke:none;stroke-width:0.5;stroke-linecap:round;stroke-linejoin:round;stroke-miterlimit:4;stroke-dasharray:none;stroke-dashoffset:0;stroke-opacity:1"
       id="rect4154"
       width="2"
       height="2"
       x="13"
       y="39" />
    <rect
       style="opacity:1;fill:#b6c1c9;fill-opacity:1;fill-rule:nonzero;stroke:none;stroke-width:0.5;stroke-linecap:round;stroke-linejoin:round;stroke-miterlimit:4;stroke-dasharray:none;stroke-dashoffset:0;stroke-opacity:1"
       id="rect4156"
       width="2"
       height="2"
       x="17"
       y="39" />
    <rect
       style="opacity:1;fill:#b6c1c9;fill-opacity:1;fill-rule:nonzero;stroke:none;stroke-width:0.5;stroke-linecap:round;stroke-linejoin:round;stroke-miterlimit:4;stroke-dasharray:none;stroke-dashoffset:0;stroke-opacity:1"
       id="rect4158"
       width="2"
       height="2"
       x="21"
       y="39" />
    <path
       style="fill:none;fill-rule:evenodd;stroke:#b6c1c9;stroke-width:0.5;stroke-linecap:butt;stroke-linejoin:miter;stroke-opacity:1;stroke-miterlimit:4;stroke-dasharray:none"
       d="m 13,42 2,0"
       id="path4164"
       inkscape:connector-curvature="0" />
    <path
       style="fill:none;fill-rule:evenodd;stroke:#b6c1c9;stroke-width:0.5;stroke-linecap:butt;stroke-linejoin:miter;stroke-opacity:1;stroke-miterlimit:4;stroke-dasharray:none"
       d="m 21,42 2,0"
       id="path4169"
       inkscape:connector-curvature="0" />
    <path
       style="fill:none;fill-rule:evenodd;stroke:#b6c1c9;stroke-width:0.5;stroke-linecap:butt;stroke-linejoin:miter;stroke-opacity:1;stroke-miterlimit:4;stroke-dasharray:none"
       d="m 17,42 2,0"
       id="path4171"
       inkscape:connector-curvature="0" />
  </g>
</svg>
