<?xml version="1.0" encoding="UTF-8" standalone="no"?>
<!-- Created with Inkscape (http://www.inkscape.org/) -->

<svg
   xmlns:dc="http://purl.org/dc/elements/1.1/"
   xmlns:cc="http://creativecommons.org/ns#"
   xmlns:rdf="http://www.w3.org/1999/02/22-rdf-syntax-ns#"
   xmlns:svg="http://www.w3.org/2000/svg"
   xmlns="http://www.w3.org/2000/svg"
   xmlns:sodipodi="http://sodipodi.sourceforge.net/DTD/sodipodi-0.dtd"
   xmlns:inkscape="http://www.inkscape.org/namespaces/inkscape"
   width="48"
   height="48"
   id="svg4216"
   version="1.1"
   inkscape:version="0.91 r13725"
   viewBox="0 0 48 48"
   sodipodi:docname="firefox.svg">
  <defs
     id="defs4218" />
  <sodipodi:namedview
     id="base"
     pagecolor="#242424"
     bordercolor="#666666"
     borderopacity="1.0"
     inkscape:pageopacity="0"
     inkscape:pageshadow="2"
     inkscape:zoom="11"
     inkscape:cx="12.62194"
     inkscape:cy="18.471712"
     inkscape:current-layer="layer1"
     showgrid="false"
     inkscape:document-units="px"
     inkscape:grid-bbox="true"
     showguides="false"
     inkscape:guide-bbox="true"
     objecttolerance="10000"
     guidetolerance="10000"
     inkscape:snap-path-clip="true"
     inkscape:snap-perpendicular="true"
     inkscape:snap-tangential="true"
     inkscape:window-width="1366"
     inkscape:window-height="704"
     inkscape:window-x="0"
     inkscape:window-y="27"
     inkscape:window-maximized="1">
    <inkscape:grid
       type="xygrid"
       id="grid4764" />
    <sodipodi:guide
       position="0,57"
       orientation="1,0"
       id="guide4768" />
    <sodipodi:guide
       position="17,0"
       orientation="0,1"
       id="guide4772" />
    <sodipodi:guide
       position="40,48"
       orientation="0,1"
       id="guide4150" />
    <sodipodi:guide
       position="3,41"
       orientation="1,0"
       id="guide4154" />
    <sodipodi:guide
       position="7,45"
       orientation="0,1"
       id="guide4156" />
    <sodipodi:guide
       position="24,3"
       orientation="0,1"
       id="guide4160" />
    <sodipodi:guide
       position="45,23"
       orientation="1,0"
       id="guide4143" />
    <sodipodi:guide
       position="48,35"
       orientation="1,0"
       id="guide4149" />
    <sodipodi:guide
       position="17,16"
       orientation="1,0"
       id="guide4151" />
    <sodipodi:guide
       position="31,14"
       orientation="1,0"
       id="guide4153" />
    <sodipodi:guide
       position="11,31"
       orientation="0,1"
       id="guide4159" />
    <sodipodi:guide
       position="13,17"
       orientation="0,1"
       id="guide4161" />
  </sodipodi:namedview>
  <metadata
     id="metadata4221">
    <rdf:RDF>
      <cc:Work
         rdf:about="">
        <dc:format>image/svg+xml</dc:format>
        <dc:type
           rdf:resource="http://purl.org/dc/dcmitype/StillImage" />
        <dc:title />
        <dc:creator>
          <cc:Agent>
            <dc:title>Chris D</dc:title>
          </cc:Agent>
        </dc:creator>
        <dc:description>diazchris.deviantart.com</dc:description>
      </cc:Work>
    </rdf:RDF>
  </metadata>
  <g
     id="layer1"
     inkscape:label="Layer 1"
     inkscape:groupmode="layer"
     transform="translate(0,-16)">
    <ellipse
       cx="24.016088"
       cy="40.139557"
       rx="20.224174"
       ry="20.237724"
       id="ellipse33"
       style="fill:#99cef3;stroke:#6caace;stroke-width:0.5;stroke-miterlimit:4;stroke-dasharray:none;stroke-opacity:1" />
    <path
       inkscape:connector-curvature="0"
       style="fill:#fc955b;fill-opacity:1;stroke:#fb8542;stroke-width:0.5;stroke-miterlimit:4;stroke-dasharray:none;stroke-opacity:1"
       id="path159"
       d="M 35.861226,24.043248 C 30.916959,22.422604 28.398275,23.008329 28.417034,23.030911 46,32 34.10197,56.375884 17.666937,47.464242 c 2.392926,0.58642 4.934887,0.163976 6.406494,-0.841761 C 29,44 26,41 23.810793,42.580078 c -1.420539,0.37207 -3.180839,1.94373 -5.868016,0.352267 -2.292524,-1.358352 -2.276892,-2.461363 -2.276892,-3.164163 0,-0.703147 0.62533,-1.771764 1.763427,-1.596325 1.019287,0.157375 0.482198,-0.441204 1.578956,0 0.298769,0.120202 -0.02987,-1.434435 -0.455101,-2.430444 0.818834,-1.708885 3.475439,-2.216791 3.673807,-2.366523 0.359217,-0.27167 0.161543,-0.407158 0.284178,-0.816401 0.114643,-0.381103 0.187945,-1.411159 -2.785145,-1.126634 -1.368081,0.130972 -2.23833,-1.641835 -2.523549,-2.07227 C 17,28 17.118,23.991 17.118,23.991 c 0,0 -1.118,1.009 -2.678454,3.623223 -0.501305,0.06531 -1.189167,-0.07921 -1.957974,-0.07921 -0.9637,0 -1.720695,0.105264 -2.421411,0.281398 -0.1122117,0.02814 -0.2932091,0.01286 -0.5145057,-0.03995 C 8.9290116,27.137584 8,25 7.1044414,23.519361 7.1044414,23.519361 6,26 4.947404,30.784292 3,36 2.0038107,43.991493 5.682513,50.66523 c 4.37869,7.500124 11.726651,10.814713 19.351492,10.169237 1.333688,-0.08689 2.677102,-0.285568 4.01739,-0.609348 C 47,55 49,32 35.861226,24.043248 Z"
       sodipodi:nodetypes="ccccccscccccccccscccccccc" />
  </g>
</svg>
