<?xml version="1.0" encoding="UTF-8" standalone="no"?>
<!-- Created with Inkscape (http://www.inkscape.org/) -->

<svg
   xmlns:dc="http://purl.org/dc/elements/1.1/"
   xmlns:cc="http://creativecommons.org/ns#"
   xmlns:rdf="http://www.w3.org/1999/02/22-rdf-syntax-ns#"
   xmlns:svg="http://www.w3.org/2000/svg"
   xmlns="http://www.w3.org/2000/svg"
   xmlns:sodipodi="http://sodipodi.sourceforge.net/DTD/sodipodi-0.dtd"
   xmlns:inkscape="http://www.inkscape.org/namespaces/inkscape"
   width="48"
   height="48"
   id="svg4216"
   version="1.1"
   inkscape:version="0.91 r13725"
   viewBox="0 0 48 48"
   sodipodi:docname="gnome-logs.svg">
  <defs
     id="defs4218" />
  <sodipodi:namedview
     id="base"
     pagecolor="#242424"
     bordercolor="#666666"
     borderopacity="1.0"
     inkscape:pageopacity="0"
     inkscape:pageshadow="2"
     inkscape:zoom="11"
     inkscape:cx="24.359178"
     inkscape:cy="23.717096"
     inkscape:current-layer="layer1"
     showgrid="false"
     inkscape:document-units="px"
     inkscape:grid-bbox="true"
     showguides="false"
     inkscape:guide-bbox="true"
     objecttolerance="10000"
     guidetolerance="10000"
     inkscape:snap-path-clip="true"
     inkscape:snap-perpendicular="true"
     inkscape:snap-tangential="true"
     inkscape:window-width="1366"
     inkscape:window-height="704"
     inkscape:window-x="0"
     inkscape:window-y="27"
     inkscape:window-maximized="1">
    <inkscape:grid
       type="xygrid"
       id="grid4764" />
    <sodipodi:guide
       position="-2,64"
       orientation="0,1"
       id="guide4766" />
    <sodipodi:guide
       position="0,57"
       orientation="1,0"
       id="guide4768" />
    <sodipodi:guide
       position="64,51"
       orientation="1,0"
       id="guide4770" />
    <sodipodi:guide
       position="17,0"
       orientation="0,1"
       id="guide4772" />
    <sodipodi:guide
       position="10,38"
       orientation="1,0"
       id="guide4167" />
    <sodipodi:guide
       position="40,33"
       orientation="1,0"
       id="guide4169" />
    <sodipodi:guide
       position="31,45"
       orientation="0,1"
       id="guide4171" />
    <sodipodi:guide
       position="26,3"
       orientation="0,1"
       id="guide4173" />
    <sodipodi:guide
       position="31,35"
       orientation="1,0"
       id="guide4175" />
    <sodipodi:guide
       position="41,37"
       orientation="0,1"
       id="guide4177" />
    <sodipodi:guide
       position="15,41"
       orientation="1,0"
       id="guide4181" />
    <sodipodi:guide
       position="16,40"
       orientation="0,1"
       id="guide4183" />
    <sodipodi:guide
       position="35,32"
       orientation="1,0"
       id="guide4185" />
    <sodipodi:guide
       position="25,6"
       orientation="0,1"
       id="guide4187" />
  </sodipodi:namedview>
  <metadata
     id="metadata4221">
    <rdf:RDF>
      <cc:Work
         rdf:about="">
        <dc:format>image/svg+xml</dc:format>
        <dc:type
           rdf:resource="http://purl.org/dc/dcmitype/StillImage" />
        <dc:title />
        <dc:creator>
          <cc:Agent>
            <dc:title>Chris D</dc:title>
          </cc:Agent>
        </dc:creator>
        <dc:description>diazchris.deviantart.com</dc:description>
      </cc:Work>
    </rdf:RDF>
  </metadata>
  <g
     id="layer1"
     inkscape:label="Layer 1"
     inkscape:groupmode="layer"
     transform="translate(0,-16)">
    <path
       style="opacity:1;fill:#ffffff;fill-opacity:1;fill-rule:nonzero;stroke:#b6c1c9;stroke-width:0.5;stroke-linecap:butt;stroke-linejoin:miter;stroke-miterlimit:4;stroke-dasharray:none;stroke-dashoffset:5;stroke-opacity:1"
       d="m 9,3 0,42 32,0 0,-34 0,-8 z m 2.5,2 C 11.776142,5 12,5.2238576 12,5.5 12,5.7761424 11.776142,6 11.5,6 11.223858,6 11,5.7761424 11,5.5 11,5.2238576 11.223858,5 11.5,5 Z m 27,0 C 38.776142,5 39,5.2238576 39,5.5 39,5.7761424 38.776142,6 38.5,6 38.223858,6 38,5.7761424 38,5.5 38,5.2238576 38.223858,5 38.5,5 Z m -27,2 C 11.776142,7 12,7.2238576 12,7.5 12,7.7761424 11.776142,8 11.5,8 11.223858,8 11,7.7761424 11,7.5 11,7.2238576 11.223858,7 11.5,7 Z m 27,0 C 38.776142,7 39,7.2238576 39,7.5 39,7.7761424 38.776142,8 38.5,8 38.223858,8 38,7.7761424 38,7.5 38,7.2238576 38.223858,7 38.5,7 Z m -27,2 C 11.776142,9 12,9.2238576 12,9.5 12,9.7761424 11.776142,10 11.5,10 11.223858,10 11,9.7761424 11,9.5 11,9.2238576 11.223858,9 11.5,9 Z m 27,0 C 38.776142,9 39,9.2238576 39,9.5 39,9.7761424 38.776142,10 38.5,10 38.223858,10 38,9.7761424 38,9.5 38,9.2238576 38.223858,9 38.5,9 Z m -27,2 C 11.776142,11 12,11.223858 12,11.5 12,11.776142 11.776142,12 11.5,12 11.223858,12 11,11.776142 11,11.5 11,11.223858 11.223858,11 11.5,11 Z m 27,0 C 38.776142,11 39,11.223858 39,11.5 39,11.776142 38.776142,12 38.5,12 38.223858,12 38,11.776142 38,11.5 38,11.223858 38.223858,11 38.5,11 Z m -27,2 C 11.776142,13 12,13.223858 12,13.5 12,13.776142 11.776142,14 11.5,14 11.223858,14 11,13.776142 11,13.5 11,13.223858 11.223858,13 11.5,13 Z m 27,0 C 38.776142,13 39,13.223858 39,13.5 39,13.776142 38.776142,14 38.5,14 38.223858,14 38,13.776142 38,13.5 38,13.223858 38.223858,13 38.5,13 Z m -27,2 C 11.776142,15 12,15.223858 12,15.5 12,15.776142 11.776142,16 11.5,16 11.223858,16 11,15.776142 11,15.5 11,15.223858 11.223858,15 11.5,15 Z m 27,0 C 38.776142,15 39,15.223858 39,15.5 39,15.776142 38.776142,16 38.5,16 38.223858,16 38,15.776142 38,15.5 38,15.223858 38.223858,15 38.5,15 Z m -27,2 C 11.776142,17 12,17.223858 12,17.5 12,17.776142 11.776142,18 11.5,18 11.223858,18 11,17.776142 11,17.5 11,17.223858 11.223858,17 11.5,17 Z m 27,0 C 38.776142,17 39,17.223858 39,17.5 39,17.776142 38.776142,18 38.5,18 38.223858,18 38,17.776142 38,17.5 38,17.223858 38.223858,17 38.5,17 Z m -27,2 C 11.776142,19 12,19.223858 12,19.5 12,19.776142 11.776142,20 11.5,20 11.223858,20 11,19.776142 11,19.5 11,19.223858 11.223858,19 11.5,19 Z m 27,0 C 38.776142,19 39,19.223858 39,19.5 39,19.776142 38.776142,20 38.5,20 38.223858,20 38,19.776142 38,19.5 38,19.223858 38.223858,19 38.5,19 Z m -27,2 C 11.776142,21 12,21.223858 12,21.5 12,21.776142 11.776142,22 11.5,22 11.223858,22 11,21.776142 11,21.5 11,21.223858 11.223858,21 11.5,21 Z m 27,0 C 38.776142,21 39,21.223858 39,21.5 39,21.776142 38.776142,22 38.5,22 38.223858,22 38,21.776142 38,21.5 38,21.223858 38.223858,21 38.5,21 Z m -27,2 C 11.776142,23 12,23.223858 12,23.5 12,23.776142 11.776142,24 11.5,24 11.223858,24 11,23.776142 11,23.5 11,23.223858 11.223858,23 11.5,23 Z m 27,0 C 38.776142,23 39,23.223858 39,23.5 39,23.776142 38.776142,24 38.5,24 38.223858,24 38,23.776142 38,23.5 38,23.223858 38.223858,23 38.5,23 Z m -27,2 C 11.776142,25 12,25.223858 12,25.5 12,25.776142 11.776142,26 11.5,26 11.223858,26 11,25.776142 11,25.5 11,25.223858 11.223858,25 11.5,25 Z m 27,0 C 38.776142,25 39,25.223858 39,25.5 39,25.776142 38.776142,26 38.5,26 38.223858,26 38,25.776142 38,25.5 38,25.223858 38.223858,25 38.5,25 Z m -27,2 C 11.776142,27 12,27.223858 12,27.5 12,27.776142 11.776142,28 11.5,28 11.223858,28 11,27.776142 11,27.5 11,27.223858 11.223858,27 11.5,27 Z m 27,0 C 38.776142,27 39,27.223858 39,27.5 39,27.776142 38.776142,28 38.5,28 38.223858,28 38,27.776142 38,27.5 38,27.223858 38.223858,27 38.5,27 Z m -27,2 C 11.776142,29 12,29.223858 12,29.5 12,29.776142 11.776142,30 11.5,30 11.223858,30 11,29.776142 11,29.5 11,29.223858 11.223858,29 11.5,29 Z m 27,0 C 38.776142,29 39,29.223858 39,29.5 39,29.776142 38.776142,30 38.5,30 38.223858,30 38,29.776142 38,29.5 38,29.223858 38.223858,29 38.5,29 Z m -27,2 C 11.776142,31 12,31.223858 12,31.5 12,31.776142 11.776142,32 11.5,32 11.223858,32 11,31.776142 11,31.5 11,31.223858 11.223858,31 11.5,31 Z m 27,0 C 38.776142,31 39,31.223858 39,31.5 39,31.776142 38.776142,32 38.5,32 38.223858,32 38,31.776142 38,31.5 38,31.223858 38.223858,31 38.5,31 Z m -27,2 C 11.776142,33 12,33.223858 12,33.5 12,33.776142 11.776142,34 11.5,34 11.223858,34 11,33.776142 11,33.5 11,33.223858 11.223858,33 11.5,33 Z m 27,0 C 38.776142,33 39,33.223858 39,33.5 39,33.776142 38.776142,34 38.5,34 38.223858,34 38,33.776142 38,33.5 38,33.223858 38.223858,33 38.5,33 Z m -27,2 C 11.776142,35 12,35.223858 12,35.5 12,35.776142 11.776142,36 11.5,36 11.223858,36 11,35.776142 11,35.5 11,35.223858 11.223858,35 11.5,35 Z m 27,0 C 38.776142,35 39,35.223858 39,35.5 39,35.776142 38.776142,36 38.5,36 38.223858,36 38,35.776142 38,35.5 38,35.223858 38.223858,35 38.5,35 Z m -27,2 C 11.776142,37 12,37.223858 12,37.5 12,37.776142 11.776142,38 11.5,38 11.223858,38 11,37.776142 11,37.5 11,37.223858 11.223858,37 11.5,37 Z m 27,0 C 38.776142,37 39,37.223858 39,37.5 39,37.776142 38.776142,38 38.5,38 38.223858,38 38,37.776142 38,37.5 38,37.223858 38.223858,37 38.5,37 Z m -27,2 C 11.776142,39 12,39.223858 12,39.5 12,39.776142 11.776142,40 11.5,40 11.223858,40 11,39.776142 11,39.5 11,39.223858 11.223858,39 11.5,39 Z m 27,0 C 38.776142,39 39,39.223858 39,39.5 39,39.776142 38.776142,40 38.5,40 38.223858,40 38,39.776142 38,39.5 38,39.223858 38.223858,39 38.5,39 Z m -27,2 C 11.776142,41 12,41.223858 12,41.5 12,41.776142 11.776142,42 11.5,42 11.223858,42 11,41.776142 11,41.5 11,41.223858 11.223858,41 11.5,41 Z m 27,0 C 38.776142,41 39,41.223858 39,41.5 39,41.776142 38.776142,42 38.5,42 38.223858,42 38,41.776142 38,41.5 38,41.223858 38.223858,41 38.5,41 Z"
       transform="translate(0,16)"
       id="rect4179"
       inkscape:connector-curvature="0"
       sodipodi:nodetypes="ccccccssssssssssssssssssssssssssssssssssssssssssssssssssssssssssssssssssssssssssssssssssssssssssssssssssssssssssssssssssssssssssssssssssssssssssssssssssssssssssssssssssssssssssssssssssssssssssssss" />
    <path
       style="fill:none;fill-rule:evenodd;stroke:#b6c1c9;stroke-width:0.5;stroke-linecap:butt;stroke-linejoin:miter;stroke-opacity:1;stroke-miterlimit:4;stroke-dasharray:none"
       d="m 15,24 20,0"
       id="path4179"
       inkscape:connector-curvature="0" />
    <path
       style="fill:none;fill-rule:evenodd;stroke:#b6c1c9;stroke-width:0.5;stroke-linecap:butt;stroke-linejoin:miter;stroke-opacity:1;stroke-miterlimit:4;stroke-dasharray:none"
       d="m 15,26 16,0"
       id="path4185"
       inkscape:connector-curvature="0" />
    <rect
       style="opacity:1;fill:#c8e6fc;fill-opacity:1;fill-rule:nonzero;stroke:none;stroke-width:0.5;stroke-linecap:square;stroke-linejoin:round;stroke-miterlimit:4;stroke-dasharray:none;stroke-dashoffset:2;stroke-opacity:1"
       id="rect4331"
       width="8"
       height="2"
       x="24"
       y="27" />
    <path
       style="fill:none;fill-rule:evenodd;stroke:#b6c1c9;stroke-width:0.5;stroke-linecap:butt;stroke-linejoin:miter;stroke-opacity:1;stroke-miterlimit:4;stroke-dasharray:none"
       d="m 15,28 17,0"
       id="path4187"
       inkscape:connector-curvature="0" />
    <path
       style="fill:none;fill-rule:evenodd;stroke:#b6c1c9;stroke-width:0.5;stroke-linecap:butt;stroke-linejoin:miter;stroke-opacity:1;stroke-miterlimit:4;stroke-dasharray:none"
       d="m 15,30 6,0"
       id="path4189"
       inkscape:connector-curvature="0" />
    <path
       style="fill:none;fill-rule:evenodd;stroke:#b6c1c9;stroke-width:0.5;stroke-linecap:butt;stroke-linejoin:miter;stroke-opacity:1;stroke-miterlimit:4;stroke-dasharray:none"
       d="m 15,32 11,0"
       id="path4191"
       inkscape:connector-curvature="0" />
    <path
       style="fill:none;fill-rule:evenodd;stroke:#b6c1c9;stroke-width:0.5;stroke-linecap:butt;stroke-linejoin:miter;stroke-opacity:1;stroke-miterlimit:4;stroke-dasharray:none"
       d="m 15,34 8,0"
       id="path4193"
       inkscape:connector-curvature="0" />
    <path
       style="fill:none;fill-rule:evenodd;stroke:#b6c1c9;stroke-width:0.5;stroke-linecap:butt;stroke-linejoin:miter;stroke-opacity:1;stroke-miterlimit:4;stroke-dasharray:none"
       d="m 15,36 13,0"
       id="path4195"
       inkscape:connector-curvature="0" />
    <path
       style="fill:none;fill-rule:evenodd;stroke:#b6c1c9;stroke-width:0.5;stroke-linecap:butt;stroke-linejoin:miter;stroke-opacity:1;stroke-miterlimit:4;stroke-dasharray:none"
       d="m 15,38 3,0"
       id="path4309"
       inkscape:connector-curvature="0" />
    <rect
       style="opacity:1;fill:#c8e6fc;fill-opacity:1;fill-rule:nonzero;stroke:none;stroke-width:0.5;stroke-linecap:square;stroke-linejoin:round;stroke-miterlimit:4;stroke-dasharray:none;stroke-dashoffset:2;stroke-opacity:1"
       id="rect4333"
       width="5"
       height="2"
       x="15"
       y="39" />
    <path
       style="fill:none;fill-rule:evenodd;stroke:#b6c1c9;stroke-width:0.5;stroke-linecap:butt;stroke-linejoin:miter;stroke-opacity:1;stroke-miterlimit:4;stroke-dasharray:none"
       d="m 15,40 5,0"
       id="path4311"
       inkscape:connector-curvature="0" />
    <path
       style="fill:none;fill-rule:evenodd;stroke:#b6c1c9;stroke-width:0.5;stroke-linecap:butt;stroke-linejoin:miter;stroke-opacity:1;stroke-miterlimit:4;stroke-dasharray:none"
       d="m 15,42 18,0"
       id="path4313"
       inkscape:connector-curvature="0" />
    <path
       style="fill:none;fill-rule:evenodd;stroke:#b6c1c9;stroke-width:0.5;stroke-linecap:butt;stroke-linejoin:miter;stroke-opacity:1;stroke-miterlimit:4;stroke-dasharray:none"
       d="m 15,44 10,0"
       id="path4315"
       inkscape:connector-curvature="0" />
    <path
       style="fill:none;fill-rule:evenodd;stroke:#b6c1c9;stroke-width:0.5;stroke-linecap:butt;stroke-linejoin:miter;stroke-opacity:1;stroke-miterlimit:4;stroke-dasharray:none"
       d="m 15,46 13,0"
       id="path4317"
       inkscape:connector-curvature="0" />
    <path
       style="fill:none;fill-rule:evenodd;stroke:#b6c1c9;stroke-width:0.5;stroke-linecap:butt;stroke-linejoin:miter;stroke-opacity:1;stroke-miterlimit:4;stroke-dasharray:none"
       d="m 15,48 7,0"
       id="path4319"
       inkscape:connector-curvature="0" />
    <path
       style="fill:none;fill-rule:evenodd;stroke:#b6c1c9;stroke-width:0.5;stroke-linecap:butt;stroke-linejoin:miter;stroke-opacity:1;stroke-miterlimit:4;stroke-dasharray:none"
       d="m 15,50 2,0"
       id="path4321"
       inkscape:connector-curvature="0" />
    <rect
       style="opacity:1;fill:#c8e6fc;fill-opacity:1;fill-rule:nonzero;stroke:none;stroke-width:0.5;stroke-linecap:square;stroke-linejoin:round;stroke-miterlimit:4;stroke-dasharray:none;stroke-dashoffset:2;stroke-opacity:1"
       id="rect4335"
       width="4"
       height="2"
       x="20"
       y="51" />
    <path
       style="fill:none;fill-rule:evenodd;stroke:#b6c1c9;stroke-width:0.5;stroke-linecap:butt;stroke-linejoin:miter;stroke-opacity:1;stroke-miterlimit:4;stroke-dasharray:none"
       d="m 15,52 11,0"
       id="path4323"
       inkscape:connector-curvature="0" />
    <path
       style="fill:none;fill-rule:evenodd;stroke:#b6c1c9;stroke-width:0.5;stroke-linecap:butt;stroke-linejoin:miter;stroke-opacity:1;stroke-miterlimit:4;stroke-dasharray:none"
       d="m 15,54 15,0"
       id="path4325"
       inkscape:connector-curvature="0" />
    <path
       style="fill:none;fill-rule:evenodd;stroke:#b6c1c9;stroke-width:0.5;stroke-linecap:butt;stroke-linejoin:miter;stroke-opacity:1;stroke-miterlimit:4;stroke-dasharray:none"
       d="m 15,56 8,0"
       id="path4327"
       inkscape:connector-curvature="0" />
    <path
       style="fill:#fbc342;fill-rule:evenodd;stroke:none;stroke-width:1px;stroke-linecap:butt;stroke-linejoin:miter;stroke-opacity:1;fill-opacity:1"
       d="m 22,52 4,4 19,0 z"
       id="path4339"
       inkscape:connector-curvature="0" />
    <rect
       style="opacity:1;fill:#fbe865;fill-opacity:1;fill-rule:nonzero;stroke:#fbc342;stroke-width:0.5;stroke-linecap:square;stroke-linejoin:round;stroke-miterlimit:4;stroke-dasharray:none;stroke-dashoffset:2;stroke-opacity:1"
       id="rect4337"
       width="19"
       height="5"
       x="26"
       y="56" />
  </g>
</svg>
