/* XPM */
static char *ccc_large[] = {
/* columns rows colors chars-per-pixel */
"128 128 48 1",
"  c #000000000000",
". c #046A046A046A",
"X c #073A073A073A",
"o c #0A0A0A0A0A0A",
"O c #0E0E0E0E0E0E",
"+ c #11AB11AB11AB",
"@ c #14E114E114E1",
"# c #174A174A174A",
"$ c #1B4E1AE71AE7",
"% c #1E841E841E84",
"& c #208620862086",
"* c #24F124F124F1",
"= c #268C25BF25BF",
"- c #282828282828",
"; c #2B5E2B5E2B5E",
": c #2C2C2CF92C2C",
"> c #2E942E942E94",
", c #30302FC93030",
"< c #31CB31CB31CB",
"1 c #349A349A349A",
"2 c #383838383838",
"3 c #3BD53BD53BD5",
"4 c #3D093CA23CA2",
"5 c #3CA23D093CA2",
"6 c #3CA23D093D09",
"7 c #3EA43EA43EA4",
"8 c #3FFA4007401F",
"9 c #41DB41DB41DB",
"0 c #434243444343",
"q c #4511451144AA",
"w c #46AC467F4673",
"e c #47E147E147E1",
"r c #49E3497C497C",
"t c #497C49E3497C",
"y c #49E349E3497C",
"u c #497C497C49E3",
"i c #49E3497C49E3",
"p c #497C49E349E3",
"a c #4B174B174B17",
"s c #4CB24D194CB2",
"d c #4D194CB24D19",
"f c #4EB44EB44EB4",
"g c #5039502A500D",
"h c #51EB51EB51EB",
"j c #5327534A537C",
"k c #53ED531F531F",
"l c #53ED53ED53ED",
"z c None",
/* pixels */
"zzzzzzzzzzzzzzzzzzzzzzzzzzzzzzzzzzzzzzzzzzzzzzzzzzzzzzzzzzzzzzzzzzzzzzzzzzzzzzzzzzzzzzzzzzzzzzzzzzzzzzzzzzzzzzzzzzzzzzzzzzzzzzzz",
"zzzzzzzzzzzzzzzzzzzzzzzzzzzzzzzzzzzzzzzzzzzzzzzzzzzzzzzzzzzzzzzzzzzzzzzzzzzzzzzzzzzzzzzzzzzzzzzzzzzzzzzzzzzzzzzzzzzzzzzzzzzzzzzz",
"zzzzzzzzzzzzzzzzzzzzzzzzzzzzzzzzzzzzzzzzzzzzzzzzzzzzzzzzzzzzzzzzzzzzzzzzzzzzzzzzzzzzzzzzzzzzzzzzzzzzzzzzzzzzzzzzzzzzzzzzzzzzzzzz",
"zzzzzzzzzzzzzzzzzzzzzzzzzzzzzzzzzzzzzzzzzzzzzzzzzzzzzzzzzzzzzzzzzzzzzzzzzzzzzzzzzzzzzzzzzzzzzzzzzzzzzzzzzzzzzzzzzzzzzzzzzzzzzzzz",
"zzzzzzzzzzzzzzzzzzzzzzzzzzzzzzzzzzzzzzzzzzzzzzzzzzzzzzzzzzzzzzzzzzzzzzzzzzzzzzzzzzzzzzzzzzzzzzzzzzzzzzzzzzzzzzzzzzzzzzzzzzzzzzzz",
"zzzzzzzzzzzzzzzzzzzzzzzzzzzzzzzzzzzzzzzzzzzzzzzzzzzzzzzzzzzzzzzzzzzzzzzzzzzzzzzzzzzzzzzzzzzzzzzzzzzzzzzzzzzzzzzzzzzzzzzzzzzzzzzz",
"zzzzzzzzzzzzzzzzzzzzzzzzzzzzzzzzzzzzzzzzzzzzzzzzzzzzzzzzzzzzzzzzzzzzzzzzzzzzzzzzzzzzzzzzzzzzzzzzzzzzzzzzzzzzzzzzzzzzzzzzzzzzzzzz",
"zzzzzzzzzzzzzzzzzzzzzzzzzzzzzzzzzzzzzzzzzzzzzzzzzzzzzzzzzzzzzzzzzzzzzzzzzzzzzzzzzzzzzzzzzzzzzzzzzzzzzzzzzzzzzzzzzzzzzzzzzzzzzzzz",
"zzzzzzzzzzzzzzzzzzzzzzzzzzzzzzzzzzzzzzzzzzzzzzzzzzzzzzzzzzzzzzzzzzzzzzzzzzzzzzzzzzzzzzzzzzzzzzzzzzzzzzzzzzzzzzzzzzzzzzzzzzzzzzzz",
"zzzzzzzzzzzzzzzzzzzzzzzzzzzzzzzzzzzzzzzzzzzzzzzzzzzzzzzzzzzzzzzzzzzzzzzzzzzzzzzzzzzzzzzzzzzzzzzzzzzzzzzzzzzzzzzzzzzzzzzzzzzzzzzz",
"zzzzzzzzzzzzzzzzzzzzzzzzzzzzzzzzzzzzzzzzzzzzzzzzzzzzzzzzzzzzzzzzzzzzzzzzzzzzzzzzzzzzzzzzzzzzzzzzzzzzzzzzzzzzzzzzzzzzzzzzzzzzzzzz",
"zzzzzzzzzzzzzzzzzzzzzzzzzzzzzzzzzzzzzzzzzzzzzzzzzzzzzzzzzzzzzzzzzzzzzzzzzzzzzzzzzzzzzzzzzzzzzzzzzzzzzzzzzzzzzzzzzzzzzzzzzzzzzzzz",
"zzzzzzzzzzzzzzzzzzzzzzzzzzzzzzzzzzzzzzzzzzzzzzzzzzzzzzzzzzzzzzzzzzzzzzzzzzzzzzzzzzzzzzzzzzzzzzzzzzzzzzzzzzzzzzzzzzzzzzzzzzzzzzzz",
"zzzzzzzzzzzzzzzzzzzzzzzzzzzzzzzzzzzzzzzzzzzzzzzzzzzzzzzzzzzzzzzzzzzzzzzzzzzzzzzzzzzzzzzzzzzzzzzzzzzzzzzzzzzzzzzzzzzzzzzzzzzzzzzz",
"zzzzzzzzzzzzzzzzzzzzzzzzzzzzzzzzzzzzzzzzzzzzzzzzzzzzzzzzzzzzzzzzzzzzzzzzzzzzzzzzzzzzzzzzzzzzzzzzzzzzzzzzzzzzzzzzzzzzzzzzzzzzzzzz",
"zzzzzzzzzzzzzzzzzzzzzzzzzzzzzzzzzzzzzzzzzzzzzzzzzzzzzzzzzzzzzzzzzzzzzzzzzzzzzzzzzzzzzzzzzzzzzzzzzzzzzzzzzzzzzzzzzzzzzzzzzzzzzzzz",
"zzzzzzzzzzzzzzzzzzzzzzzzzzzzzzzzzzzzzzzzzzzzzzzzzzzzzzzzzzzzzzzzzzzzzzzzzzzzzzzzzzzzzzzzzzzzzzzzzzzzzzzzzzzzzzzzzzzzzzzzzzzzzzzz",
"zzzzzzzzzzzzzzzzzzzzzzzzzzzzzzzzzzzzzzzzzzzzzzzzzzzzzzzzzzzzzzzzzzzzzzzzzzzzzzzzzzzzzzzzzzzzzzzzzzzzzzzzzzzzzzzzzzzzzzzzzzzzzzzz",
"zzzzzzzzzzzzzzzzzzzzzzzzzzzzzzzzzzzzzzzzzzzzzzzzzzzzzzzzzzzzzzzzzzzzzzzzzzzzzzzzzzzzzzzzzzzzzzzzzzzzzzzzzzzzzzzzzzzzzzzzzzzzzzzz",
"zzzzzzzzzzzzzzzzzzzzzzzzzzzzzzzzzzzzzzzzzzzzzzzzzzzzzzzzzzzzzzzzzzzzzzzzzzzzzzzzzzzzzzzzzzzzzzzzzzzzzzzzzzzzzzzzzzzzzzzzzzzzzzzz",
"zzzzzzzzzzzzzzzzzzzzzzzzzzzzzzzzzzzzzzzzzzzzzzzzzzzzzzzzzzzzzzzzzzzzzzzzzzzzzzzzzzzzzzzzzzzzzzzzzzzzzzzzzzzzzzzzzzzzzzzzzzzzzzzz",
"zzzzzzzzzzzzzzzzzzzzzzzzzzzzzzzzzzzzzzzzzzzzzzzzzzzzzzzzzzzzzzzzzzzzzzzzzzzzzzzzzzzzzzzzzzzzzzzzzzzzzzzzzzzzzzzzzzzzzzzzzzzzzzzz",
"zzzzzzzzzzzzzzzzzzzzzzzzzzzzzzzzzzzzzzzzzzzzzzzzzzzzzzzzzzzzzzzzzzzzzzzzzzzzzzzzzzzzzzzzzzzzzzzzzzzzzzzzzzzzzzzzzzzzzzzzzzzzzzzz",
"zzzzzzzzzzzzzzzzzzzzzzzzzzzzzzzzzzzzzzzzzzzzzzzzzzzzzzzzzzzzzzzzzzzzzzzzzzzzzzzzzzzzzzzzzzzzzzzzzzzzzzzzzzzzzzzzzzzzzzzzzzzzzzzz",
"zzzzzzzzzzzzzzzzzzzzzzzzzzzzzzzzzzzzzzzzzzzzzzzzzzzzzzzzzzzzzzzzzzzzzzzzzzzzzzzzzzzzzzzzzzzzzzzzzzzzzzzzzzzzzzzzzzzzzzzzzzzzzzzz",
"zzzzzzzzzzzzzzzzzzzzzzzzzzzzzzzzzzzzzzzzzzzzzzzzzzzzzzzzzzzzzzzzzzzzzzzzzzzzzzzzzzzzzzzzzzzzzzzzzzzzzzzzzzzzzzzzzzzzzzzzzzzzzzzz",
"zzzzzzzzzzzzzzzzzzzzzzzzzzzzzzzzzzzzzzzzzzzzzzzzzzzzzzzzzzzzzzzzzzzzzzzzzzzzzzzzzzzzzzzzzzzzzzzzzzzzzzzzzzzzzzzzzzzzzzzzzzzzzzzz",
"zzzzzzzzzzzzzzzzzzzzzzzzzzzzzzzzzzzzzzzzzzzzzzzzzzzzzzzzzzzzzzzzzzzzzzzzzzzzzzzzzzzzzzzzzzzzzzzzzzzzzzzzzzzzzzzzzzzzzzzzzzzzzzzz",
"zzzzzzzzzzzzzzzzzzzzzzzzzzzzzzzzzzzzzzzzzzzzzzzzzzzzzzzzzzzzzzzzzzzzzzzzzzzzzzzzzzzzzzzzzzzzzzzzzzzzzzzzzzzzzzzzzzzzzzzzzzzzzzzz",
"zzzzzzzzzzzzzzzzzzzzzzzzzzzzzzzzzzzzzzzzzzzzzzzzzzzzzzzzzzzzzzzzzzzzzzzzzzzzzzzzzzzzzzzzzzzzzzzzzzzzzzzzzzzzzzzzzzzzzzzzzzzzzzzz",
"zzzzzzzzzzzzzzzzzzzzzzzzzzzzzzzzzzzzzzzzzzzzzzzzzzzzzzzzzzzzzzzzzzzzzzzzzzzzzzzzzzzzzzzzzzzzzzzzzzzzzzzzzzzzzzzzzzzzzzzzzzzzzzzz",
"zzzzzzzzzzzzzzzzzzzzzzzzzzzzzzzzzzzzzzzzzzzzzzzzzzzzzzzzzzzzzzzzzzzzzzzzzzzzzzzzzzzzzzzzzzzzzzzzzzzzzzzzzzzzzzzzzzzzzzzzzzzzzzzz",
"zzzzzzzzzzzzzzzzzzzzzzzzzzzzzzzzzzzzzzzzzzzzzzzzzzzzzzzzzzzzzzzzzzzzzzzzzzzzzzzzzzzzzzzzzzzzzzzzzzzzzzzzzzzzzzzzzzzzzzzzzzzzzzzz",
"zzzzzzzzzzzzzzzzzzzzzzzzzzzzzzzzzzzzzzzzzzzzzzzzzzzzzzzzzzzzzzzzzzzzzzzzzzzzzzzzzzzzzzzzzzzzzzzzzzzzzzzzzzzzzzzzzzzzzzzzzzzzzzzz",
"zzzzzzzzzzzzzzzzzzzzzzzzzzzzzzzzzzzzzzzzzzzzzzzzzzzzzzzzzzzzzzzzzzzzzzzzzzzzzzzzzzzzzzzzzzzzzzzzzzzzzzzzzzzzzzzzzzzzzzzzzzzzzzzz",
"zzzzzzzzzzzzzzzzzzzzzzzzzzzzzzzzzzzzzzzzzzzzzzzzzzzzzzzzzzzzzzzzzzzzzzzzzzzzzzzzzzzzzzzzzzzzzzzzzzzzzzzzzzzzzzzzzzzzzzzzzzzzzzzz",
"zzzzzzzzzzzzzzzzzzzzzzzzzzzzzzzzzzzzzzzzzzzzzzzzzzzzzzzzzzzzzzzzzzzzzzzzzzzzzzzzzzzzzzzzzzzzzzzzzzzzzzzzzzzzzzzzzzzzzzzzzzzzzzzz",
"zzzzzzzzzzzzzzzzzzzzzzzzzzzzzzzzzzzzzzzzzzzzzzzzzzzzzzzzzzzzzzzzzzzzzzzzzzzzzzzzzzzzzzzzzzzzzzzzzzzzzzzzzzzzzzzzzzzzzzzzzzzzzzzz",
"zzzzzzzzzzzzzzzzzzzzzzzzzzzzzzzzzzzzzzzzzzzzzzzzzzzzllkkllzzzzzzzzzzzlllllllllllllllllllllllllkkllllllzzzzzzzzzzzjjjljkzzzzzzzzz",
"zzzzzzzzzzzzzzzzzzzzzzzzzzzzzzzzzzzzzzzzzzzzzzzzzzzlllkkllllzzzzzzzzlllllllllllllllllllllllllllkllllllllzzzzzzzzlljjjjljzzzzzzzz",
"zzzzzzzzzzzzzzzzzzzzzzzzzzzzzzzzzzzzzzzzzzzzzzzzzzkllljjkkjjjzzzzzzjjklljjlllllllljjjjkjjjjjjjjklllljkjkzzzzzzzjlezzzzejjzzzzzzz",
"zzzzzzzzzzzzzzzzzzzzzzzzzzzzzzzzzzzzzzzzzzzzzzzzzjlljjjjjjjjjzzzzzjjjjjjjjhlhjlllljjjkjjjjgjjjjklljkjjkjjzzzzzjjwzzzzzzzjjzzzzzz",
"zzzzzzzzzzzzzzzzzzzzzzzzzzzzzzzzzzzzzzzzzzzzzzzzjjjkjjjjjjjjjgzzzzjjjjjjhjjhjjhhljjhhkhjjjjjjjjkjjjjjjkgjgzzzzjezzzzzzzzdjzzzzzz",
"zzzzzzzzzzzzzzzzzzzzzzzzzzzzzzzzzzzzzzzzzzzzzzzljgjkjjjjjjjjjgzzzgjjjgjjjhhjhhhjjjjjjhhhjjgjgjjgjjgjgjjjjdzzzdj9zzzzzzzz9gdzzzzz",
"zzzzzzzzzzzzzzzzzzzzzzzzzzzzzzzzzzzzzzzzzzzzzzjjjgkggjgjgjgjjdzzzahhgjhhhhhhhhhhhhhhhhhhjjggjggjgjjjggjgjdzzzejzzzzzzzzzzjezzzzz",
"zzzzzzzzzzzzzzzzzzzzzzzzzzzzzzzzzzzzzzzzzzzzzjgjgjjjjgjgjggjjdzzz0hhjghhhhhghhghhhhhhhhhdjgjggjjgggjgjgjjezzzdg7zzzzzzzz7jezzzzz",
"zzzzzzzzzzzzzzzzzzzzzzzzzzzzzzzzzzzzzzzzzzzzfjfjgggjjgjgjggjjazzz<gjhhggghghgghgfhhgghgggjgjggjdgggggggggwzzzejezzzzzzzzejezzzzz",
"zzzzzzzzzzzzzzzzzzzzzzzzzzzzzzzzzzzzzzzzzzzggfjdgjggggggggggjdzzzzegggggghgggggggggggghgggggggjggjggggggdzzzzegjwzzzzzz7jdezzzzz",
"zzzzzzzzzzzzzzzzzzzzzzzzzzzzzzzzzzzzzzzzzzgggggggjgggggggggggazzzz<djgggggjggggdggsgggggggggggdgdggggggd7zzzzedgdezzzz0dggwzzzzz",
"zzzzzzzzzzzzzzzzzzzzzzzzzzzzzzzzzzzzzzzzzsggggdgdggdggdgdggggazzzzz<egjddgdgdggjgggdgggsgsgggdjddjdddgd3zzzzzeggjdjddagggdwzzzzz",
"zzzzzzzzzzzzzzzzzzzzzzzzzzzzzzzzzzzzzzzzsggddggggggggsgggggdduzzzzz.&9eddggddgdggdgsgdgggggdgggdgggga0>zzzzzzwgdgdddsggddgqzzzzz",
"zzzzzzzzzzzzzzzzzzzzzzzzzzzzzzzzzzzzzzzdggdggddggddggggddgdggazzzzzz .#%&&&&&-8ddgdgdggsssdge,&&&&&&#ozzzzzzz0dgggdgggaggd0zzzzz",
"zzzzzzzzzzzzzzzzzzzzzzzzzzzzzzzzzzzzzzdgdggsggdgffffsdgdgdggfazzzzzzz         *ggagsaggagsgs<.      zzzzzzzzz0gddadgadaggd0zzzzz",
"zzzzzzzzzzzzzzzzzzzzzzzzzzzzzzzzzzzzzgddgsagsaggsfsgsggsddsdfazzzzzzzzzz      &agaagagagssdd-    zzzzzzzzzzzz0dsaggasssges9zzzzz",
"zzzzzzzzzzzzzzzzzzzzzzzzzzzzzzzzzzzzsdddgdgssaddssdssdssssdddezzzzzzzzzzzzzzz &asggggasssssd;zzzzzzzzzzzzzzzz0egdddgdgaddd9zzzzz",
"zzzzzzzzzzzzzzzzzzzzzzzzzzzzzzzzzzzsdsddssaddaagasssssasgsdddezzzzzzzzzzzzzzzz*adaeasaddssse>zzzzzzzzzzzzzzzz0ddaaaaaaaada9zzzzz",
"zzzzzzzzzzzzzzzzzzzzzzzzzzzzzzzzzzddgaagegaaddaasssddaddafasaezzzzzzzzzzzzzzzz*eadadaddadadd<zzzzzzzzzzzzzzzz9edaddeesddaa9zzzzz",
"zzzzzzzzzzzzzzzzzzzzzzzzzzzzzzzzzeaaaddaaagaadadaaaaaaaaaaaaaezzzzzzzzzzzzzzzzzdaaaaaaaaaaadzzzzzzzzzzzzzzzzz9ddaessddeeaa9zzzzz",
"zzzzzzzzzzzzzzzzzzzzzzzzzzzzzzzzaaaadaaaaaesdaesaaaaaaaaaaaaaezzzzzzzzzzzzzzzzzeaaadaaaaaaeezzzzzzzzzzzzzzzzz9eeaaseaaddae0zzzzz",
"zzzzzzzzzzzzzzzzzzzzzzzzzzzzzzzeaaaaeaaaeaseeaddeaaaseaseaseaezzzzzzzzzzzzzzzzzdadeeaeaaaedezzzzzzzzzzzzzzzzz9eadeadeeeeea8zzzzz",
"zzzzzzzzzzzzzzzzzzzzzzzzzzzzzzedeedeaeeadeeededeaaaeaaseaaaaaezzzzzzzzzzzzzzzzzeeaedeaaeedeazzzzzzzzzzzzzzzzz0aeeseaseasee7zzzzz",
"zzzzzzzzzzzzzzzzzzzzzzzzzzzzzeaaasesedaesesesdeeaeaeaeeeeaaeewzzzzzzzzzzzzzzzzzaeaaeaeaaaeeazzzzzzzzzzzzzzzzz8eaeeeeeeeeee7zzzzz",
"zzzzzzzzzzzzzzzzzzzzzzzzzzzzeaeeeeeeeaeaeeaaeee7euaueuueaeaeeezzzzzzzzzzzzzzzzzeeaeeeeaeeaeezzzzzzzzzzzzzzzzz8eeeaaedeeeae7zzzzz",
"zzzzzzzzzzzzzzzzzzzzzzzzzzzeeeeaaededeeaeseeee>X<eueuueueeueewzzzzzzzzzzzzzzzzzeeaeaeeeeeaeezzzzzzzzzzzzzzzzz7eeeeeeeeeeee8zzzzz",
"zzzzzzzzzzzzzzzzzzzzzzzzzzeeeeeeeeeeeeeeeeeee;. ;eeeeeeeeeeee0zzzzzzzzzzzzzzzzzeeeeeeeeewee0zzzzzzzzzzzzzzzzz7eeeeeeeeewwt8zzzzz",
"zzzzzzzzzzzzzzzzzzzzzzzzzeeeeeeeeeeeeeeeeeee,.  ;eeeeeeeeeeeewzzzzzzzzzzzzzzzzzeeweeeweeeeeezzzzzzzzzzzzzzzzz70eeeewwwewww8zzzzz",
"zzzzzzzzzzzzzzzzzzzzzzzzeeeweeeeeeeweeeeeew;    ;eeweweewweee0zzzzzzzzzzzzzzzzzeeeweweweeeewzzzzzzzzzzzzzzzzz70wwe0ewwewww3zzzzz",
"zzzzzzzzzzzzzzzzzzzzzzz0eweeee0eweewweeee0;zzzzz,0ewew0eewwee0zzzzzzzzzzzzzzzzzwwwwwww0ewe0ezzzzzzzzzzzzzzzzz7ewe0ewwwwwww3zzzzz",
"zzzzzzzzzzzzzzzzzzzzzzee0e0ee0eewewwewee0;zzzzzz>wwwe0ewww0ee9zzzzzzzzzzzzzzzzzwee0eww0ww0wwzzzzzzzzzzzzzzzzz30e0wew0ew0ww3zzzzz",
"zzzzzzzzzzzzzzzzzzzzzwweewewwe0e0ee00e00-zzzzzzz,0wwe0ww0w0ww0zzzzzzzzzzzzzzzzzw0e0ew0wwe00wzzzzzzzzzzzzzzzzz3ww000ww0qww93zzzzz",
"zzzzzzzzzzzzzzzzzzzzwwwe0e000ee00e000w0-zzzzzzzz>q0w0ee00wwew9zzzzzzzzzzzzzzzzzw0ew00w9w0w00zzzzzzzzzzzzzzzzz3w0ee00w00w0w3zzzzz",
"zzzzzzzzzzzzzzzzzzzw0w00w00e0e0w0e0ww8*zzzzzzzzz,qqwe00e00w000zzzzzzzzzzzzzzzzz00w0w00www0wwzzzzzzzzzzzzzzzzz300000w0ww0w97zzzzz",
"zzzzzzzzzzzzzzzzzzqqqqqq0w0w00w00w0e3$zzzzzzzzzz,ww9wwwq9wwww9zzzzzzzzzzzzzzzzz09w909w9qwww0zzzzzzzzzzzzzzzzz7900q000qw9907zzzzz",
"zzzzzzzzzzzzzzzzz0qw9qqqwq9ww0000w03$zzz13zzzzzz>q099099q09999zzzzzzzzzzzzzzzzz09wqw099w9990zzzzzzzzzzzzzzzzz39000000990002zzzzz",
"zzzzzzzzzzzzzzzz09q9009q900000w0003$zz<00008zzzz>9q99w0000w099zzzzzzzzzzzzzzzzz900w9qq999909zzzzzzzzzzzzzzzzz30000900q90002zzzzz",
"zzzzzzzzzzzzzzz90q9q0q999w00009003$zz<0000000zzz>q9q9900999007zzzzzzzzzzzzzzzzzw999099q99w09zzzzzzzzzzzzzzzzz29909q99999002zzzzz",
"zzzzzzzzzzzzzz9090090000909000007$zzz700000008zz>9990090990999zzzzzzzzzzzzzzzzz9090999999999zzzzzzzzzzzzzzzzz79999999999992zzzzz",
"zzzzzzzzzzzzz9999990999999909991$zzzz999808000zz>9999999999997zzzzzzzzzzzzzzzzz9999999999999zzzzzzzzzzzzzzzzz29999999999992zzzzz",
"zzzzzzzzzzzz9099999999999999997#zzzzz999998088zz;9999999999997zzzzzzzzzzzzzzzzz9999999998999zzzzzzzzzzzzzzzzz29998999999992zzzzz",
"zzzzzzzzzzz9999999999999999992#zzzzzz799880888zz;9998999999797zzzzzzzzzzzzzzzzz9797997979997zzzzzzzzzzzzzzzzz29979897997972zzzzz",
"zzzzzzzzzz9899887999799898972#zzzzzzz<9979979<zz;9998998997977zzzzzzzzzzzzzzzzz9797977979799zzzzzzzzzzzzzzzzz17989778877871zzzzz",
"zzzzzzzzz7997997998879887982#zzzzzzzzz277998<zzz;7787979788777zzzzzzzzzzzzzzzzz7979779797977zzzzzzzzzzzzzzzzz27777798779782zzzzz",
"zzzzzzzz7987887977797979792#zzzzzzzzzzO-111*zzzz>8797878797777zzzzzzzzzzzzzzzzz7797979787777zzzzzzzzzzzzzzzzz27797777878772zzzzz",
"zzzzzzzz28787777977787877<#zzzzzzzzzzzz ...zzzzz-7777778777877zzzzzzzzzzzzzzzzz7777777777777zzzzzzzzzzzzzzzzz17777777777771zzzzz",
"zzzzzzzz77777778777777771zzzzzzzzzzzzzzzzzzzzzzz;7777777777772zzzzzzzzzzzzzzzzz7777777777777zzzzzzzzzzzzzzzzz17777777377771zzzzz",
"zzzzzzzz7778777777777771zzzzzzzzzzzzzzzzzzzzzzzz*7772777777727zzzzzzzzzzzzzzzzz3777377777777zzzzzzzzzzzzzzzzz17737377737771zzzzz",
"zzzzzzzz177237777737771zzzzzzzzzzzzzzzzzzzzzzzzz*7777777777792zzzzzzzzzzzzzzzzz2277777277277zzzzzzzzzzzzzzzzz>3377372333271zzzzz",
"zzzzzzzz-7777737827771zzzzzzzzzzzzzzzzzzzzzzzzzzz233373737273<zzzzzzzzzzzzzzzzz>277727277722zzzzzzzzzzzzzzzzz$372773777372zzzzzz",
"zzzzzzzzz23733739277<zzzzzzzzzzzzzzzzzzzzzzzzzzzz-77727377272zzzzzzzzzzzzzzzzzz$27337333333zzzzzzzzzzzzzzzzzzz<33727332771zzzzzz",
"zzzzzzzzz%333773277-zzzzzzzzzzzzzzzzzzzzzzzzzzzzzz>237332272zzzzzzzzzzzzzzzzzzzz&233273333<zzzzzzzzzzzzzzzzzzz+1327333721zzzzzzz",
"zzzzzzzzz $<722771-.zzzzzzzzzzzzzzzzzzzzzzzzzzzzzzo-2333721%zzzzzzzzzzzzzzzzzzzz $<372171-zzzzzzzzzzzzzzzzzzzzzO-223322<zzzzzzzz",
"zzzzzzzzzz .#&&&&+zzzzzzzzzzzzzzzzzzzzzzzzzzzzzzzz  +%%&%$zzzzzzzzzzzzzzzzzzzzzzz o$%&&%Ozzzzzzzzzzzzzzzzzzzzzz  +%&&&#zzzzzzzzz",
"zzzzzzzzzzz      zzzzzzzzzzzzzzzzzzzzzzzzzzzzzzzzzz      zzzzzzzzzzzzzzzzzzzzzzzzz      zzzzzzzzzzzzzzzzzzzzzzzz      zzzzzzzzzz",
"zzzzzzzzzzzzzzzzzzzzzzzzzzzzzzzzzzzzzzzzzzzzzzzzzzzzzzzzzzzzzzzzzzzzzzzzzzzzzzzzzzzzzzzzzzzzzzzzzzzzzzzzzzzzzzzzzzzzzzzzzzzzzzzz",
"zzzzzzzzzzzzzzzzzzzzzzzzzzzzzzzzzzzzzzzzzzzzzzzzzzzzzzzzzzzzzzzzzzzzzzzzzzzzzzzzzzzzzzzzzzzzzzzzzzzzzzzzzzzzzzzzzzzzzzzzzzzzzzzz",
"zzzzzzzzzzzzzzzzzzzzzzzzzzzzzzzzzzzzzzzzzzzzzzzzzzzzzzzzzzzzzzzzzzzzzzzzzzzzzzzzzzzzzzzzzzzzzzzzzzzzzzzzzzzzzzzzzzzzzzzzzzzzzzzz",
"zzzzzzzzzzzzzzzzzzzzzzzzzzzzzzzzzzzzzzzzzzzzzzzzzzzzzzzzzzzzzzzzzzzzzzzzzzzzzzzzzzzzzzzzzzzzzzzzzzzzzzzzzzzzzzzzzzzzzzzzzzzzzzzz",
"zzzzzzzzzzzzzzzzzzzzzzzzzzzzzzzzzzzzzzzzzzzzzzzzzzzzzzzzzzzzzzzzzzzzzzzzzzzzzzzzzzzzzzzzzzzzzzzzzzzzzzzzzzzzzzzzzzzzzzzzzzzzzzzz",
"zzzzzzzzzzzzzzzzzzzzzzzzzzzzzzzzzzzzzzzzzzzzzzzzzzzzzzzzzzzzzzzzzzzzzzzzzzzzzzzzzzzzzzzzzzzzzzzzzzzzzzzzzzzzzzzzzzzzzzzzzzzzzzzz",
"zzzzzzzzzzzzzzzzzzzzzzzzzzzzzzzzzzzzzzzzzzzzzzzzzzzzzzzzzzzzzzzzzzzzzzzzzzzzzzzzzzzzzzzzzzzzzzzzzzzzzzzzzzzzzzzzzzzzzzzzzzzzzzzz",
"zzzzzzzzzzzzzzzzzzzzzzzzzzzzzzzzzzzzzzzzzzzzzzzzzzzzzzzzzzzzzzzzzzzzzzzzzzzzzzzzzzzzzzzzzzzzzzzzzzzzzzzzzzzzzzzzzzzzzzzzzzzzzzzz",
"zzzzzzzzzzzzzzzzzzzzzzzzzzzzzzzzzzzzzzzzzzzzzzzzzzzzzzzzzzzzzzzzzzzzzzzzzzzzzzzzzzzzzzzzzzzzzzzzzzzzzzzzzzzzzzzzzzzzzzzzzzzzzzzz",
"zzzzzzzzzzzzzzzzzzzzzzzzzzzzzzzzzzzzzzzzzzzzzzzzzzzzzzzzzzzzzzzzzzzzzzzzzzzzzzzzzzzzzzzzzzzzzzzzzzzzzzzzzzzzzzzzzzzzzzzzzzzzzzzz",
"zzzzzzzzzzzzzzzzzzzzzzzzzzzzzzzzzzzzzzzzzzzzzzzzzzzzzzzzzzzzzzzzzzzzzzzzzzzzzzzzzzzzzzzzzzzzzzzzzzzzzzzzzzzzzzzzzzzzzzzzzzzzzzzz",
"zzzzzzzzzzzzzzzzzzzzzzzzzzzzzzzzzzzzzzzzzzzzzzzzzzzzzzzzzzzzzzzzzzzzzzzzzzzzzzzzzzzzzzzzzzzzzzzzzzzzzzzzzzzzzzzzzzzzzzzzzzzzzzzz",
"zzzzzzzzzzzzzzzzzzzzzzzzzzzzzzzzzzzzzzzzzzzzzzzzzzzzzzzzzzzzzzzzzzzzzzzzzzzzzzzzzzzzzzzzzzzzzzzzzzzzzzzzzzzzzzzzzzzzzzzzzzzzzzzz",
"zzzzzzzzzzzzzzzzzzzzzzzzzzzzzzzzzzzzzzzzzzzzzzzzzzzzzzzzzzzzzzzzzzzzzzzzzzzzzzzzzzzzzzzzzzzzzzzzzzzzzzzzzzzzzzzzzzzzzzzzzzzzzzzz",
"zzzzzzzzzzzzzzzzzzzzzzzzzzzzzzzzzzzzzzzzzzzzzzzzzzzzzzzzzzzzzzzzzzzzzzzzzzzzzzzzzzzzzzzzzzzzzzzzzzzzzzzzzzzzzzzzzzzzzzzzzzzzzzzz",
"zzzzzzzzzzzzzzzzzzzzzzzzzzzzzzzzzzzzzzzzzzzzzzzzzzzzzzzzzzzzzzzzzzzzzzzzzzzzzzzzzzzzzzzzzzzzzzzzzzzzzzzzzzzzzzzzzzzzzzzzzzzzzzzz",
"zzzzzzzzzzzzzzzzzzzzzzzzzzzzzzzzzzzzzzzzzzzzzzzzzzzzzzzzzzzzzzzzzzzzzzzzzzzzzzzzzzzzzzzzzzzzzzzzzzzzzzzzzzzzzzzzzzzzzzzzzzzzzzzz",
"zzzzzzzzzzzzzzzzzzzzzzzzzzzzzzzzzzzzzzzzzzzzzzzzzzzzzzzzzzzzzzzzzzzzzzzzzzzzzzzzzzzzzzzzzzzzzzzzzzzzzzzzzzzzzzzzzzzzzzzzzzzzzzzz",
"zzzzzzzzzzzzzzzzzzzzzzzzzzzzzzzzzzzzzzzzzzzzzzzzzzzzzzzzzzzzzzzzzzzzzzzzzzzzzzzzzzzzzzzzzzzzzzzzzzzzzzzzzzzzzzzzzzzzzzzzzzzzzzzz",
"zzzzzzzzzzzzzzzzzzzzzzzzzzzzzzzzzzzzzzzzzzzzzzzzzzzzzzzzzzzzzzzzzzzzzzzzzzzzzzzzzzzzzzzzzzzzzzzzzzzzzzzzzzzzzzzzzzzzzzzzzzzzzzzz",
"zzzzzzzzzzzzzzzzzzzzzzzzzzzzzzzzzzzzzzzzzzzzzzzzzzzzzzzzzzzzzzzzzzzzzzzzzzzzzzzzzzzzzzzzzzzzzzzzzzzzzzzzzzzzzzzzzzzzzzzzzzzzzzzz",
"zzzzzzzzzzzzzzzzzzzzzzzzzzzzzzzzzzzzzzzzzzzzzzzzzzzzzzzzzzzzzzzzzzzzzzzzzzzzzzzzzzzzzzzzzzzzzzzzzzzzzzzzzzzzzzzzzzzzzzzzzzzzzzzz",
"zzzzzzzzzzzzzzzzzzzzzzzzzzzzzzzzzzzzzzzzzzzzzzzzzzzzzzzzzzzzzzzzzzzzzzzzzzzzzzzzzzzzzzzzzzzzzzzzzzzzzzzzzzzzzzzzzzzzzzzzzzzzzzzz",
"zzzzzzzzzzzzzzzzzzzzzzzzzzzzzzzzzzzzzzzzzzzzzzzzzzzzzzzzzzzzzzzzzzzzzzzzzzzzzzzzzzzzzzzzzzzzzzzzzzzzzzzzzzzzzzzzzzzzzzzzzzzzzzzz",
"zzzzzzzzzzzzzzzzzzzzzzzzzzzzzzzzzzzzzzzzzzzzzzzzzzzzzzzzzzzzzzzzzzzzzzzzzzzzzzzzzzzzzzzzzzzzzzzzzzzzzzzzzzzzzzzzzzzzzzzzzzzzzzzz",
"zzzzzzzzzzzzzzzzzzzzzzzzzzzzzzzzzzzzzzzzzzzzzzzzzzzzzzzzzzzzzzzzzzzzzzzzzzzzzzzzzzzzzzzzzzzzzzzzzzzzzzzzzzzzzzzzzzzzzzzzzzzzzzzz",
"zzzzzzzzzzzzzzzzzzzzzzzzzzzzzzzzzzzzzzzzzzzzzzzzzzzzzzzzzzzzzzzzzzzzzzzzzzzzzzzzzzzzzzzzzzzzzzzzzzzzzzzzzzzzzzzzzzzzzzzzzzzzzzzz",
"zzzzzzzzzzzzzzzzzzzzzzzzzzzzzzzzzzzzzzzzzzzzzzzzzzzzzzzzzzzzzzzzzzzzzzzzzzzzzzzzzzzzzzzzzzzzzzzzzzzzzzzzzzzzzzzzzzzzzzzzzzzzzzzz",
"zzzzzzzzzzzzzzzzzzzzzzzzzzzzzzzzzzzzzzzzzzzzzzzzzzzzzzzzzzzzzzzzzzzzzzzzzzzzzzzzzzzzzzzzzzzzzzzzzzzzzzzzzzzzzzzzzzzzzzzzzzzzzzzz",
"zzzzzzzzzzzzzzzzzzzzzzzzzzzzzzzzzzzzzzzzzzzzzzzzzzzzzzzzzzzzzzzzzzzzzzzzzzzzzzzzzzzzzzzzzzzzzzzzzzzzzzzzzzzzzzzzzzzzzzzzzzzzzzzz",
"zzzzzzzzzzzzzzzzzzzzzzzzzzzzzzzzzzzzzzzzzzzzzzzzzzzzzzzzzzzzzzzzzzzzzzzzzzzzzzzzzzzzzzzzzzzzzzzzzzzzzzzzzzzzzzzzzzzzzzzzzzzzzzzz",
"zzzzzzzzzzzzzzzzzzzzzzzzzzzzzzzzzzzzzzzzzzzzzzzzzzzzzzzzzzzzzzzzzzzzzzzzzzzzzzzzzzzzzzzzzzzzzzzzzzzzzzzzzzzzzzzzzzzzzzzzzzzzzzzz",
"zzzzzzzzzzzzzzzzzzzzzzzzzzzzzzzzzzzzzzzzzzzzzzzzzzzzzzzzzzzzzzzzzzzzzzzzzzzzzzzzzzzzzzzzzzzzzzzzzzzzzzzzzzzzzzzzzzzzzzzzzzzzzzzz",
"zzzzzzzzzzzzzzzzzzzzzzzzzzzzzzzzzzzzzzzzzzzzzzzzzzzzzzzzzzzzzzzzzzzzzzzzzzzzzzzzzzzzzzzzzzzzzzzzzzzzzzzzzzzzzzzzzzzzzzzzzzzzzzzz",
"zzzzzzzzzzzzzzzzzzzzzzzzzzzzzzzzzzzzzzzzzzzzzzzzzzzzzzzzzzzzzzzzzzzzzzzzzzzzzzzzzzzzzzzzzzzzzzzzzzzzzzzzzzzzzzzzzzzzzzzzzzzzzzzz"
};
