/* XPM */
static char *file_roller[] = {
/* columns rows colors chars-per-pixel */
"128 128 65 1",
"  c #1D501D501CE9",
". c #208620862086",
"X c #242424242424",
"o c #27F427F427F4",
"O c #2A902A902A90",
"+ c #2AF72AF72AF7",
"@ c #2C2C2C2C2C2C",
"# c #2D602D602D60",
"$ c #2E2E2E2E2E2E",
"% c #2F622F622F62",
"& c #31CB31CB30FD",
"* c #323232323232",
"= c #336633663366",
"- c #35013501349A",
"; c #356835683568",
": c #376A376A376A",
"> c #383838383838",
", c #39053905389E",
"< c #3A3A3A3A39D3",
"1 c #3B073B073B07",
"2 c #3C3C3C3C3C3C",
"3 c #3D093D093C3C",
"4 c #3E3E3E3E3E3E",
"5 c #3F723F723E3E",
"6 c #3FD93FD93FD9",
"7 c #410D410D410D",
"8 c #424242424242",
"9 c #43764376435F",
"0 c #4578457844AA",
"q c #457845784578",
"w c #46AC46AC4646",
"e c #47E147E1477A",
"r c #481F481F481F",
"t c #49E349E3497C",
"y c #4A4A4A4A4A4A",
"u c #4BE54BE54B7E",
"i c #4C4C4C4C4C4C",
"p c #4D194D194CB2",
"a c #4D194D194D19",
"s c #4DEB4DEB4DE9",
"d c #4F824F824F82",
"f c #50AB50AB50A1",
"g c #51845184511D",
"h c #5184518451EB",
"j c #535753575356",
"k c #5521552154BA",
"l c #552155215521",
"z c #565656565521",
"x c #565A565A5657",
"c c #578A578A578A",
"v c #5858585857F1",
"b c #598C598C598C",
"n c #5A575A575989",
"m c #5AC05AC05AC0",
"M c #5B8E5B8E5AC0",
"N c #5BF55BF55BF5",
"B c #5D905D905CC2",
"V c #5D905D905D90",
"C c #5F925F925EC4",
"Z c #602E602E602D",
"A c #619461946194",
"S c #61FB61FB61FB",
"D c #639663966396",
"F c #653165316531",
"G c None",
/* pixels */
"GGGGGGGGGGGGGGGGGGGGGGGGGGGGGGGGGGGGGGGGGGGGGGGGGGGGGGGGGGGGGGGGGGGGGGGGGGGGGGGGGGGGGGGGGGGGGGGGGGGGGGGGGGGGGGGGGGGGGGGGGGGGGGGG",
"GGGGGGGGGGGGGGGGGGGGGGGGGGGGGGGGGGGGGGGGGGGGGGGGGGGGGGGGGGGGGGGGGGGGGGGGGGGGGGGGGGGGGGGGGGGGGGGGGGGGGGGGGGGGGGGGGGGGGGGGGGGGGGGG",
"GGGGGGGGGGGGGGGGGGGGGGGGGGGGGGGGGGGGGGGGGGGGGGGGGGGGGGGGGGGGGGGGGGGGGGGGGGGGGGGGGGGGGGGGGGGGGGGGGGGGGGGGGGGGGGGGGGGGGGGGGGGGGGGG",
"GGGGGGGGGGGGGGGGGGGGGGGGGGGGGGGGGGGGGGGGGGGGGGGGGGGGGGGGGGGGGGGGGGGGGGGGGGGGGGGGGGGGGGGGGGGGGGGGGGGGGGGGGGGGGGGGGGGGGGGGGGGGGGGG",
"GGGGGGGGGGGGGGGGGGGGGGGGGGGGGGGGGGGGGGGGGGGGGGGGGGGGGGGGGGGGGGGGGGGGGGGGGGGGGGGGGGGGGGGGGGGGGGGGGGGGGGGGGGGGGGGGGGGGGGGGGGGGGGGG",
"GGGGGGGGGGGGGGGGGGGGGGGGGGGGGGGGGGGGGGGGGGGGGGGGGGGGGGGGGGGGGGGGGGGGGGGGGGGGGGGGGGGGGGGGGGGGGGGGGGGGGGGGGGGGGGGGGGGGGGGGGGGGGGGG",
"GGGGGGGGGGGGGGGGGGGGGGGGGGGGGGGGGGGGGGGGGGGGGGGGGGGGGGGGGGGGVVVZVVmVVVVVVGGGGGGGGGGGGGGGGGGGGGGGGGGGGGGGGGGGGGGGGGGGGGGGGGGGGGGG",
"GGGGGGGGGGGGGGGGGGGGGGGGGGGGGGGGGGGGGGGGGGGGGGGGGGGGGGGGGVZZZZVVVZZZZZZFZZFZZZVVVVVZVVGGGGGGGGGGGGGGGGGGGGGGGGGGGGGGGGGGGGGGGGGG",
"GGGGGGGGGGGGGGGGGGGGGGGGGGGGGGGGGGGGGGGGGGGGGGGGGGGGGGVVVZZVmVVVNVVVVVVVZZVVZVZZZZFFDDFFZGGGGFGGGGGGGGGGGGGGGGGGGGGGGGGGGGGGGGGG",
"GGGGGGGGGGGGGGGGGGGGGGGGGGGGGGGGGGGGGGGGGGGGGGGGGGGGmVZZVVVVVVVmVNVVVVVVVVVVVVVVVVZZFZZGGGGFFFFDGGGGGGGGGGGGGGGGGGGGGGGGGGGGGGGG",
"GGGGGGGGGGGGGGGGGGGGGGGGGGGGGGGGGGGGGGGGGGGGGGGGGmVVZVmVVVmVVVVmVVVVVVVVVVVVVVVVZDDZGGGGFFFFZZZFZFGGGGGGGGGGGGGGGGGGGGGGGGGGGGGG",
"GGGGGGGGGGGGGGGGGGGGGGGGGGGGGGGGGGGGGGGGGGGGGGNNZVVVmVmmmmVVmVVVVVVVVVVVVVVVVVZZZZGGGGFFFDZZZDZDFFZGGGGGGGGGGGGGGGGGGGGGGGGGGGGG",
"GGGGGGGGGGGGGGGGGGGGGGGGGGGGGGGGGGGGGGGGGGGmNZZNVmVmmVVVVmmVVVVVVVVVVVVVVVVVZZZmfGGZFFFDZZDZDZDZZZFFFGGGGGGGGGGGGGGGGGGGGGGGGGGG",
"GGGGGGGGGGGGGGGGGGGGGGGGGGGGGGGGGGGGGGGGmmZZNNbNmVmVVmmVVVVVVVVVVVVVVVZVVZZZmfrdcZDFFZZZZZZDZZZZZFZZFFFGGGGGGGGGGGGGGGGGGGGGGGGG",
"GGGGGGGGGGGGGGGGGGGGGGGGGGGGGGGGGGGGGmmVZmmmNbbNmmVmVmVVVVVVVVVVVVVVVVVVZVcurfmZFFZZZZZZDZZZDZZZZZZZZZFZFGGGGGGGGGGGGGGGGGGGGGGG",
"GGGGGGGGGGGGGGGGGGGGGGGGGGGGGGGGGGmmVZmmmmmmbNNNVmmVmVVmmVVVVVVVVVVVZZZmdrrfmZZZZZZZDZZDZZZDZZDDZFZFZFZFFZFGGGGGGGGGGGGGGGGGGGGG",
"GGGGGGGGGGGGGGGGGGGGGGGGGGGGGGGmNNZVNcbNNNcNNbNbNNVNNNVNVVVVVVVNVZZZVfrqrcZFZZZZZDZZZDZZZDZZDDZDFZFZFZZZZFFFGGGGGGGGGGGGGGGGGGGG",
"GGGGGGGGGGGGGGGGGGGGGGGGGGGGmmmZVNNcNbbccNNbbNNNNNNNVVNVNVVVVVVZVZmfq8rmZFZZZZDZZZDZDZDZZDDZZZZDZZZZZZDFZFZFFZGGGGGGGGGGGGGGGGGG",
"GGGGGGGGGGGGGGGGGGGGGGGGGGVmVVmmNcbcccbNbNbNbNNNNNVNNVNVVVVVVZZZcr88fVFZZZZZZFZZZZZZZZZZZZZDDDZZDZZDZZZZFZZZZFDDGGGGGGGGGGGGGGGG",
"GGGGGGGGGGGGGGGGGGGGGGGmmVZmmmmmbcNNNNNbbbNbNNNNNNNNVNVVVVNZZNd88qcZFDZZZZZZZZZZDZFZDDZDDDZZZZDZDZZDZFFZZZFZZFFFZFGGGGGGGGGGGGGG",
"GGGGGGGGGGGGGGGGGGGGmmVZmmmcmmmmNcbNbcbNNbNbNNNNVNVNZNVNZZZcr68dVZDZZZZZZZZZZDZFZZZDZDZZZZDZDZZDZZFZDZFZFZZFZFZDFFFGGGGGGGGGGGGG",
"GGGGGGGGGGGGGGGGGmmVVmmcmmmmmmmcbcNcbNbbbNbNbNNNNNNVNNZZNd84rjZZZZZZZZZZZZZFZZZZDZDZDZZDDZZDZZDDFZFZZFZFZFZFFZFZFFFFFGGGGGGGGGGG",
"GGGGGGGGGGGGGGmmVVVmmmmmcmcmmcmcNNcNNcNbbNbNNbNNNNVVZZcu66umZDZZZZZZZZZZZZZZZZZZZDDZZDZDDZZZDZZZZFZFDZFZFZZFZZFZZFZFFFFGGGGGGGGG",
"GGGGGGGGGGGmmVVmmmmmmmmmmmmmmmmmcNbbbNbbNbNbNNNNNNZNd668dZDZZVZZZZZZZZZZFZZZZDDZZZZZDZDZZDDFZDFDDZDZZZFZFZDDFZFZZZFZZFFZFGGGGGGG",
"GGGGGGGGmmmZmmcmmcmcmccmcmmcmmcmbNccbNbNNNcNNNNZZcu66rcZZZZZZZZZZZZZZZZDZZDZZZFZDZZDDDZZDZFZDZDZZFFZFZFZZFDFZFDFZFZZZFZFFFGGGGGG",
"GGGGGcmVVmmmmmmmmmmmmmmmcmmcmmmmcNNNbbbNcNNNNZNd868dNZDZNZZZZZZZZZZZZFZZZZZZZDZDZDZZZZZDZDZDDZZFFZZFZFZFFZFZFZFZFZFFFZFFZFFFGGGG",
"GGVVmZmmmmmmmmmcmmcmmcmmmmcmmmcmcbNbbbNbNNZNcu64rcZZZZZZZZNZZZZZZZZZZZZZZZFZZZDZDZDDZDZZDZFDDDFZZFZZZZFZZFFZZZFZZFFZFZZZFFZFFFGG",
"ZZZZZVVmmmmmmmmmmcmmmmmmmmmmmmcmNNccNbbNNNj866dNZDZZZZZNZZZZZZZZZZZZZZZZZDZZDZZDZDZZDZDFDDZDZFZFFZFFFFFFFZZFFFZFFZZFZFFZZFZZFFFF",
"ZZZVmmcmcccmmmVmmVVmmmmmmmmccmcmbbNNNNVcu768jZZZZNZZZZNZVZZZZZZZZVZZFZZDDZZZFZZZZDZZDFZDZFZFZFFZFFFFFZFDZFDFZZZDFFZZZFZFFZZZFFFZ",
"VZZZVZmcccffdddddffcmmmmmmmmmmcmbNbNbjr66uNADZZNZZNZNZZZZZZZZZZZZZZZZZZZZZDZZDFZZZDZZZDZFZDDFZZDFZZZDDZDFFDZFFFDFZFFDDFZZFFFZVZG",
"VZVmVVVZVmmmcffddrrrrrrdffcmVmmVNNbu868jNDZVZNNZZNZNZZZZZZZZZVZZZZZZZZZFFDZZZZDZDDZFDDDFZFZFFDDDZFDDDDFDFZFZFFDDZFFZZFFZFFVmcmVG",
"VZVVVVVVZVVVmmmmffddrr8888888qddjr66rcZAZVNZZNZZNZZNZZZNZZZZZZZZZZZZZDZZZZZDDZZDZDDZFZDZFZFZZFZFFZDDDDDDFZFFFZDDFFZFFFFZVVcccmVG",
"VZVVNVVVVVZZZZVmNmcfcdrurq88844144uZZZZNVVVVVVZVZVZNZZNZZZZZZZZZZZDZZZDZDAZDZDDZDDZDZDZDDDZDDDDDFZDDDDDDFDDDDDDDDDFFZZNcccccccmG",
"GZmVVVVVVVVVZFZZZVNNmccfddrqqq8666rVFZZVVVVZZVVZVVZZVZZZZZZZZZZZAZZZZDZZZDZZZZZDZZDDDDDDDDDDDDDDFFDDFDFDDDDFDDDDFFZVccccccccccmG",
"GZVmNVVNVVZVVVZZZFZZmVVmmfffrrrqqq8qfDDZVVVVVVZVZZZZZZZZZZZZZZZZZZDZZDZDZDDZDDDZDZDZDDZDDZDDDDDDDDDDFDDFFDFFFFFDZmccccccccccccNG",
"GZmVVNNVVVVVZZVZZZZFZZZVVmmmcfdudrrr8dZZZVZVZZVZVZNVVZZZZVZZZZZZDZZZZZZZZZZDZZZDDDDDDZDDDDDDDDDDDDDFDDFDDFFFFDVmcccccjccccccccmG",
"GZmVmVNVVVVVVVVZVVVZDZFZZVZZmmccffdrr88mDZVZVVZVVZZZZZZZZZZZZZZZZAZDZADDDZADZDZDZDZDZDDDDDDDDDDDFZFFFDDFFFFZmcfcccccjcjcfcccccmG",
"GZmmmmmNVmVVVVVVVVVVVZZZFZZZZZZVmmfddr86dZDZVZNZZVVZZNZZZZZZZZZZZZZZDZZZZDZZDZDADDDDDDDDDDDDDFDFFFFFFFFFDVmffccjcjjccccccccfccmG",
"GVmmmmmmmVmVVVVVVVVVVVVVZZDDZZZZZmmcddrq68mDZVZVZZVZZZZZZZZZZZZZZZZDDZDAZDDZZDDZZDZDDDDDDDDDDDFDFFFFFFZNcjcfccccccccjccccccccmmG",
"GZmmmmmVmmmVmVVVVVVVVVVVVVVZZDDZZZVmmffdrr8dZDZZNZZZZNZZZZVZZVZZZZAZZZZDZZZDDDZDDDDDDZDDDDDDDFDDFFFZVmfcfcjcfcccfcfcfcfccfccffmG",
"GNmmmmmmmmVmNNVNNVNNVVNVVNVNVVZZFZZZVmmjfdrqrmDZZZNZZVVZZZZZZZZZDZZDZZDZDZDDZDZDDDDDDZDDDDDDFDDDFZVcjjccfcfccfjjfccfcjfcfcccfccG",
"GmmmmmmmmVmmNNNVVNVVNVVVVVVVVVVVZZDZZVVNccddurjZDZZZZZZZZZZZZZZDZZZZDZZDZZZZZDDDDZZDDDDDDDDFFFDZmfcfjcfcjjjjjccjcfccfjcffcfcccfG",
"GmmmcmmcmmmVNNNVNVNVVNVNNVVNVVVNVNVZZZZZVmmcfdudNDZZZZZZZZZZZZZZZDZDDAZDDDZDDDDZDDDDDDDDDFDFDNcdjjfjjjjffcjjfjjjfcjjcfjcffmjfccG",
"GmmcmmmmmmmmNNNNNNNNNVNVVNNVNmNNNNNNVZZZZZmNmcfddcDZZZZZZZZZZZZZZDZZZDZZZZDDDZDDDZDDDDDDFDZcjjjjjjjjjjjccjfccjjjcfjjfcjfcffccccG",
"GmmmmcmmmmmmmNNNNNNNNNNNNNNVNNNNNNNNNmmNZZZZNNmcfdjZFDZZZZZZZZDZZZDZZZDZDZDZDDDZZDDDDDFDNjjjjjjjcffcfjjjfjjjjjjjfjjcfjfcccfcfcfG",
"GmmcmccmccmmmmmmmNmNNNNNNNNNNNNNNNNNNmNmmmZZZZNmmcddNDZZZZZZZZZZDZZADZZDZZZDZZDDDDDDDZcjdjjjjjjjcfcffjfcjjjjjjjjjjffcfcfffcccmfG",
"GmmmmmcmmmcmmmmmmmmNNNNNNNNmNNmmmNNmmNmNmmmmmZZZNNccjcZDZZZZZZZZAZDZDZADDDDZDZDDDDDNcdjjjjjjjjjjfcfjcjjfjfffjfffjfcfcffcfcfffccG",
"GcmmccmmcmmmmmmmmmmmmNmNmmNNmmmmNmNmmNmmmmmmmmmVZZNmcccVFZZZZZDZZDZZZDZZZDZDDDDDZNjddjdjdjdjjddjffjfffjfjjcfjjcffcffffcfcfcfcmfG",
"GcmmccmccmcmcmcmmmmmmmmmmmmmmmmmmmmmmmmmmmmmmmmmcNNZNNccmZDZZZZDZZAAZAADAAADDZNcdddjjjjjjjjjjjdjdjjjjjfjjfjjdjjfjcdfjjjjjjjjjcjG",
"GcmmcmccmmcmcmmcmccmmmmmmmmmmmmmmmmmmmNcmmmmmccmcmcmNZNNccZFDZZZZDDZDZAZADDZNjddjjjddjdjdddjdjjjjjffffjjdjffjjfjffdcjjjjjjjjjcjG",
"GcmccccccccmmmcmmcmmmmcmmmmmmmmmmmmNmNmmmcmcccmmmmccccNNVNcmDFZZDZZZZDDDDNlddddjjddjjjjjdjjdjddjffjffjjfjffjffjffffjjjfjjjfjjcjG",
"GcmccccmcmcccmmccmmcmcmmcmcmmmmmmcmcccmcmcmmmmmccmmmmmcccmNmNZDDZAZDDDZcjdddhhdhdjddddddjdjdjddjffffffffffffjffffjfjffjjjfjfjcfG",
"GcmccccccccccmmmcccmccmmcmmmcmcmmcmcmmcmmmcccmmmcmmmccmccccmmmZZDDZAVcdddddjdddjddfjdhdhddddfffffffffffffffffffdjfjfjffjjffjfcfG",
"GcmcccccccccccccmmccmcccmcccmmcmcmcmmccmcmmmmcccmccccmcccmccccmmDZNjaaddjddddjddjddfddhddjjddfdffffffdfdffdfffdjfjfjjfjffjfffcfG",
"GcmccccccccccmmcmcmccccmmmcmccmccmcmcccmccmccmmcccmcccmccccccccccdudddddddddddddddddjdddddhdjddddfdddfdffdfdddffffjffffffffjfcfG",
"GfccccfcccccccccccccccmcccccmcccmcccmcmccmcccccmccccccmccccccccmcudddddhddddjdddhddddddddddddddddddfdfddddfddfjffffffffjjffffcfG",
"GfmccccccccccccccmcccccccccccmcccccccccccccccccccccccccccccccccccaddddddddddddddddddddddddddddddddddddddddddddfffffffffffffffcfG",
"GmmcfcccfcjcccccccccccccmccccccccccccccccccmccccmccccccccccccccccaddddadddddddudadddadddadddadddddddudddddddfffdfdffdffdfdfdfjdG",
"GccfcffccccccccccccccccccccccccccccccccccccccccccccccccccccccccmcuddadddddddduddddddddaadddadddaddddudduddfddfdffdfdffffdfdfdcdG",
"GcmfcfcccfcccccccccccccccccccccccccccccccccccccccccccjcccccccjcccudaaddauddudddadaaadadddadadadaddudddddddfdfdfddfdfddddfdfddjdG",
"GGcfcccfffcfmccjccccccccccccjccjccjccccccjccjccjcccccjccjccjcccccudaadaadaaaaaadadaaaddaaadaadaaaddaudadddddddddddddddddddddfjGG",
"GGmfffcfccfccccjcccjcccccjccccccjccccjcjcccjcccccjjccccjjccccjjccadaadadaaddadaaadadaaaadadaadadaaaaduuddddddddddddddddddddddjGG",
"GGccccfffcjcjfcccccccjccccccjjcjcjccccccccjcjjcjccccccjccjccccfmcaaaaadadaaadadaaadadaadadaaaadadaaddadddddddddddddddddddddddjGG",
"GGcfffcccfcfcccccjcccccccccfcccccccjcjjcjccccccccjjcjccccccjcjjmcuaddaaadadaaadadaaadaadaaaddaaadaadudddddddddddddddddddddddfjGG",
"GGcjfcfcfcfcccfcfccccccccccccccccccccjjccccjjccccccjjccccjjcccfmcuaadaaadaadaaaddaaadaadaaadadaaadaadddddddddddddddddddddddddjGG",
"GGcjjfcjfccjfcccccccccjccccccfcjjcjjcccccjccccjccjccccjcccccjccccuadaadadaadadaaaadadaadadaaadadaadadddddddddddddddddddddddddjGG",
"GGcjjjjjcccfccjccccccccccccccccccccccjjcjccccccjjccccccjcjjcccfmcaadadadaaaadadaadadaaaadadaaadaddaddddddddddddddddddddddddddjGG",
"GGccjjfcfffccfccccfccccccccccccccjcjccccjcjccjcjjcjccjcjccccjccclaaaadaaaddaaadaadaaaddaaadadaaaaadddddddddddddddddddddddddddjGG",
"GGcfjjjccfcccccccccccccccccccccfcccjcjcjcjccccjccjccccjcjcjccjfmcaadaadaaddaaadaadaaaddaaddaadadaddddddddddddddddddddddddddddfGG",
"GGccjjcfjcfcfcfcjcjccccccccccccccjcccjcccccjjccccccjjcccccjccccccaadadaaaaaadadaadadaaaaaaaaaaaddddddddddddddddddddddddddddddjGG",
"GGcfcfcffcfcccjcccccccfccccccccccccjcccjcjccccjccjccccjcjccccjfmluaaaadddaadadaaaadadaadddadddaadddddddddddddddddddddddddddddjGG",
"GGfcjjfcjcfcfccccjcccccccccccccccjcccjcccccjjccccccjjcccccjccccccadadaaadaadaaaddaaadaadaaduaaddddddddddddddddddddddddddddddffGG",
"GGjjjfjjccfcfcfcccccccccccccccccccjccccjccccjcjccjcjccccccjcjcfmcaadaddaaadaaadaadaaadaaduudddddddddddddddddddddddddddddddddfdGG",
"GGjcjcfcfcfmcccccfccccccccccccccccccjcccjcjccccccccccjcjjcccjccclaaaaaaaadaadadaadadaadaudduddddddddddddddddddddddddddddddddfdGG",
"GGjffccfcffcfcfccccfccccccccccccccccccjcjcjcjjcjjcjjcjcjccjccjfmcadadaadaaddadaaaadaddaaduudddddddddddddddddddddddddddddddddfdGG",
"GGjccfjccfcfccccccccccjcccccccccccccccjcccccccccccccccccjccccccccaaadaaddaaaaaaddaaaaaadudddddddddddddddddddddddddddddddddddjdGG",
"GGfcfjjjcfccfccccjcccccfcccccccccccccjcccjcjjccccjcjjcjccjccccfmlaaadaaaaaadddaaaaddududddddddddddddddddddddddddddddddddddddjdGG",
"GGfcjjcjcffccfcfcccccccccccccccccccccccjcjccccjcccccccjccccjjccccadaaadaddaaaaaddaaaduddduddddddddddddddddddddddddddddddddddfdGG",
"GGccjjfcfcfcfccccccccccccccccccccccccccccccjcjcjjcjcjccccjfcccfmcaaaadadaadaaaaddaudadduudddddddddddddddddddddddddddddddddddjdGG",
"GGjcjfcfcfccfccccffccccccccccccccccccccccjcccccjccccccjccccccjcclaadadaaadaaddaaaadaduudddddddddddddddddddddddddddddddddddddjdGG",
"GGjmfjjfcjcfzfcccjcjccccccccccccccccccccccccjcjcjccccccccfcccffmcadaaadadaaadaadaadaaaddddddddddddddddddddddddddddddddddddddjfGG",
"GGfccjjcfcfcccfccccccccmccccccccccccccccccjcccjccccfccfccccccccmcuaadadaaadadaadadaadadddddddddddddddddddddddddddddddddddfddjfGG",
"GGcmcfcfjjzcjccccjcjccczccccccccccccccccccjcjccccccjfcccccjccjfmlaadadaaadadaaaaaaddaddddddddddddddddddddddddddddfddfdddddffjfGG",
"GGcmfccfcjjzcfcfcjccjcjzccjcccccccccccccccccccjcfcccccjccfccccccbuaaaaadadaaaddadaaadddddddddddddddddddddddddfddddddddfffdddcdGG",
"GGfVccccjjjccfccjcccccccccccfccccccccccccccccjccccfccccccjcjccfmcaadddaaadaaaddadaaaddddddddddddddddddddffdddddfdffdfdfddfffcdGG",
"GGGmzccczcccccjcccjccjccfcccccjccccccccccccccccjccccccfccccjjccclaaaaaadadadaaaaaadddddddddddddddddddddddddfjddddddffdfdfffffGGG",
"GGGrmzmcmzcccccccccccjccccccccccccccccccccccccccfcjccfcjccjcccfmbudaaaadaadadaadadddddddddddddddddjdjddddjdfddddfdfdffdfffffqGGG",
"GGGGqcccmzzcccccjcccccccccccccccccjccccccccccccjccccccccjccccjcccaaaddaadaaadaadaaddddddddddddddddddddddddddffffffffdffffffrGGGG",
"GGGGGqdczmmcmzmcmzmcccccccccccccccccjcccccccccccccccccfcccfcccfmlaaaadaaaadadaaaddddddddddddfddddjdddddgfffffdfdffdfdfffdr4GGGGG",
"GGGGGGGqdccmcczczcccmzccccccccccjcccccccccccccccccfccfccccccfccccaaaadaddadaaadadddddddddddfdfffddjddggdffdffffffdfffffr8GGGGGGG",
"GGGGGGGGGefzcmmmzmzmcczmczcccccccccjcccccccccccccfccccfcfcccccfmladaaadaadaaadadddddddddffdffdffddjdgdddffffdffffffffp8*GGGGGGGG",
"GGGGGGGGGG,rfczmmmmzzmmzmzcccccccccccccccjcccccccccccccccccfcccccadadaaaaaadadadddddddfdfdfffdfdgddddddjffffffffffdp8*GGGGGGGGGG",
"GGGGGGGGGGGG4rjmmmzmmmzzzzmzcczmczmccccccccccccccccfccfccccfccfmcaaadaaddaadaaddddddhdddfdffffffddgdgjddfffffffffd6=GGGGGGGGGGGG",
"GGGGGGGGGGGGGG6rjcMMmMMmmmmmmmmzczmzcccccccccjccccccccccjccccfcccudadaaddaadahdddddddjjfffffffffgjddgddgfffffffd0;GGGGGGGGGGGGGG",
"GGGGGGGGGGGGGGGG6pcmzMmmzmmmczzmccmcmcccccccccccccccfcccccccccfmlaaaaaaaaaaahaddhhdddddddfffffffdgdjjdjdffffff0:GGGGGGGGGGGGGGGG",
"GGGGGGGGGGGGGGGGGG4rcmmMmmmzmmmzmcmmzcmcccccccccccjccccfccfcccccbuaaaddaaddadhhhhddhdhjdffffffffjdggddjdffffq,GGGGGGGGGGGGGGGGGG",
"GGGGGGGGGGGGGGGGGGGG8dcmMMmmmmzMmmmmzmzmzzmzzmzmzmcccccfjccccjcmzpsssssssdddffdddddjffffffffffffdjggjdjdffr1GGGGGGGGGGGGGGGGGGGG",
"GGGGGGGGGGGGGGGGGGGGGG8dzmMMMmmMMzzmmmmmmmmmmzmzcccccccccccjcczzzpsssssssdgdfffjjjddffffffffffffgddgdjdjr,GGGGGGGGGGGGGGGGGGGGGG",
"GGGGGGGGGGGGGGGGGGGGGGGGqjzMMMmmmmmmzmmMzmmzzmmmmcccccccccccjjjzzdsssssdddjdjdffddddfjfffffffffjdgggddp5OGGGGGGGGGGGGGGGGGGGGGGG",
"GGGGGGGGGGGGGGGGGGGGGGGGGGejmMMMMMmMMMzMmmmmmzmzmcmccccczjcjccjmzpssdddddddddjdddjjdjdjfffcfffffjgggd4OGGGGGGGGGGGGGGGGGGGGGGGGG",
"GGGGGGGGGGGGGGGGGGGGGGGGGGG;eczmMMMMMMmmmmMmmmMmmzmzzmmcccccccczzrddddddddjdjdjjjdgdfjddfffffffffdp8+GGGGGGGGGGGGGGGGGGGGGGGGGGG",
"GGGGGGGGGGGGGGGGGGGGGGGGGGGGG:ecmmVMMMMMMmMMmmMzmmmmmzcmcmcccccmmdddddddggggdjdddjdjfffjjffjffcfd8$GGGGGGGGGGGGGGGGGGGGGGGGGGGGG",
"GGGGGGGGGGGGGGGGGGGGGGGGGGGGGGG,rmmMVVMMMMMMmmMmmmmmzmmzzcmzcczmzddddddjgggdddffggjddffjjfjfffd8*GGGGGGGGGGGGGGGGGGGGGGGGGGGGGGG",
"GGGGGGGGGGGGGGGGGGGGGGGGGGGGGGGGG4rzmVMVMMMMmMMmmMmMMmmmmmcccczmzdddddjdgdgjjfjdggdjjjffffjfd0*GGGGGGGGGGGGGGGGGGGGGGGGGGGGGGGGG",
"GGGGGGGGGGGGGGGGGGGGGGGGGGGGGGGGGGG4dzmMVMVVMMMMMMMMMmmmzMmzzMmmmdddddffffffjjfjjgjdgdjjfffq;GGGGGGGGGGGGGGGGGGGGGGGGGGGGGGGGGGG",
"GGGGGGGGGGGGGGGGGGGGGGGGGGGGGGGGGGGGG6dmMMAMVVMMMMMMMMMMMMMMzmzMzddfffjfffjfffdjjdjdjgjdfr,GGGGGGGGGGGGGGGGGGGGGGGGGGGGGGGGGGGGG",
"GGGGGGGGGGGGGGGGGGGGGGGGGGGGGGGGGGGGGGG8dMMVAMVVMMMVMMMMMMmmMMmMmdddffjffjffjdfjggjjjdde,GGGGGGGGGGGGGGGGGGGGGGGGGGGGGGGGGGGGGGG",
"GGGGGGGGGGGGGGGGGGGGGGGGGGGGGGGGGGGGGGGGG0jmVVVVVVVMAMMMVMMMzmmVzddfffjffdcffjjfgjjdde5oGGGGGGGGGGGGGGGGGGGGGGGGGGGGGGGGGGGGGGGG",
"GGGGGGGGGGGGGGGGGGGGGGGGGGGGGGGGGGGGGGGGGG$qfMVZAAMMMMCMMVMVMMMMzdddjfjffjfjjfcfffdp6oGGGGGGGGGGGGGGGGGGGGGGGGGGGGGGGGGGGGGGGGGG",
"GGGGGGGGGGGGGGGGGGGGGGGGGGGGGGGGGGGGGGGGGGGG*rzVMMAAMAMCMVMMMMMMMddjfjfjfdjffffffd4OGGGGGGGGGGGGGGGGGGGGGGGGGGGGGGGGGGGGGGGGGGGG",
"GGGGGGGGGGGGGGGGGGGGGGGGGGGGGGGGGGGGGGGGGGGGGG*rzMAAAMMMVMAMVMMMMddjfjjffcfjfcfd8OGGGGGGGGGGGGGGGGGGGGGGGGGGGGGGGGGGGGGGGGGGGGGG",
"GGGGGGGGGGGGGGGGGGGGGGGGGGGGGGGGGGGGGGGGGGGGGGGG:pzMCAAAAMAMVVMAmdjfjffjfjjffd8$GGGGGGGGGGGGGGGGGGGGGGGGGGGGGGGGGGGGGGGGGGGGGGGG",
"GGGGGGGGGGGGGGGGGGGGGGGGGGGGGGGGGGGGGGGGGGGGGGGGGG;dmMVAAMAMAVVAzdfjffjjjjff8*GGGGGGGGGGGGGGGGGGGGGGGGGGGGGGGGGGGGGGGGGGGGGGGGGG",
"GGGGGGGGGGGGGGGGGGGGGGGGGGGGGGGGGGGGGGGGGGGGGGGGGGGG,pmVCAACCAMZmdfjcfjfff0*GGGGGGGGGGGGGGGGGGGGGGGGGGGGGGGGGGGGGGGGGGGGGGGGGGGG",
"GGGGGGGGGGGGGGGGGGGGGGGGGGGGGGGGGGGGGGGGGGGGGGGGGGGGGG4dnMAAAMZZMfjfffcfq=GGGGGGGGGGGGGGGGGGGGGGGGGGGGGGGGGGGGGGGGGGGGGGGGGGGGGG",
"GGGGGGGGGGGGGGGGGGGGGGGGGGGGGGGGGGGGGGGGGGGGGGGGGGGGGGGG6dMCAAZZMfjjcfq; GGGGGGGGGGGGGGGGGGGGGGGGGGGGGGGGGGGGGGGGGGGGGGGGGGGGGGG",
"GGGGGGGGGGGGGGGGGGGGGGGGGGGGGGGGGGGGGGGGGGGGGGGGGGGGGGGGGG0jmVZZmfffr, GGGGGGGGGGGGGGGGGGGGGGGGGGGGGGGGGGGGGGGGGGGGGGGGGGGGGGGGG",
"GGGGGGGGGGGGGGGGGGGGGGGGGGGGGGGGGGGGGGGGGGGGGGGGGGGGGGGGGGGo8cVZmfd,.GGGGGGGGGGGGGGGGGGGGGGGGGGGGGGGGGGGGGGGGGGGGGGGGGGGGGGGGGGG",
"GGGGGGGGGGGGGGGGGGGGGGGGGGGGGGGGGGGGGGGGGGGGGGGGGGGGGGGGGGGGG$8mm5.GGGGGGGGGGGGGGGGGGGGGGGGGGGGGGGGGGGGGGGGGGGGGGGGGGGGGGGGGGGGG",
"GGGGGGGGGGGGGGGGGGGGGGGGGGGGGGGGGGGGGGGGGGGGGGGGGGGGGGGGGGGGGGG*=GGGGGGGGGGGGGGGGGGGGGGGGGGGGGGGGGGGGGGGGGGGGGGGGGGGGGGGGGGGGGGG",
"GGGGGGGGGGGGGGGGGGGGGGGGGGGGGGGGGGGGGGGGGGGGGGGGGGGGGGGGGGGGGGGGGGGGGGGGGGGGGGGGGGGGGGGGGGGGGGGGGGGGGGGGGGGGGGGGGGGGGGGGGGGGGGGG",
"GGGGGGGGGGGGGGGGGGGGGGGGGGGGGGGGGGGGGGGGGGGGGGGGGGGGGGGGGGGGGGGGGGGGGGGGGGGGGGGGGGGGGGGGGGGGGGGGGGGGGGGGGGGGGGGGGGGGGGGGGGGGGGGG",
"GGGGGGGGGGGGGGGGGGGGGGGGGGGGGGGGGGGGGGGGGGGGGGGGGGGGGGGGGGGGGGGGGGGGGGGGGGGGGGGGGGGGGGGGGGGGGGGGGGGGGGGGGGGGGGGGGGGGGGGGGGGGGGGG",
"GGGGGGGGGGGGGGGGGGGGGGGGGGGGGGGGGGGGGGGGGGGGGGGGGGGGGGGGGGGGGGGGGGGGGGGGGGGGGGGGGGGGGGGGGGGGGGGGGGGGGGGGGGGGGGGGGGGGGGGGGGGGGGGG",
"GGGGGGGGGGGGGGGGGGGGGGGGGGGGGGGGGGGGGGGGGGGGGGGGGGGGGGGGGGGGGGGGGGGGGGGGGGGGGGGGGGGGGGGGGGGGGGGGGGGGGGGGGGGGGGGGGGGGGGGGGGGGGGGG",
"GGGGGGGGGGGGGGGGGGGGGGGGGGGGGGGGGGGGGGGGGGGGGGGGGGGGGGGGGGGGGGGGGGGGGGGGGGGGGGGGGGGGGGGGGGGGGGGGGGGGGGGGGGGGGGGGGGGGGGGGGGGGGGGG",
"GGGGGGGGGGGGGGGGGGGGGGGGGGGGGGGGGGGGGGGGGGGGGGGGGGGGGGGGGGGGGGGGGGGGGGGGGGGGGGGGGGGGGGGGGGGGGGGGGGGGGGGGGGGGGGGGGGGGGGGGGGGGGGGG",
"GGGGGGGGGGGGGGGGGGGGGGGGGGGGGGGGGGGGGGGGGGGGGGGGGGGGGGGGGGGGGGGGGGGGGGGGGGGGGGGGGGGGGGGGGGGGGGGGGGGGGGGGGGGGGGGGGGGGGGGGGGGGGGGG"
};
