/* XPM */
static char *gbrainy[] = {
/* columns rows colors chars-per-pixel */
"128 128 74 1",
"  c #000000000000",
". c #040404040404",
"X c #07A107A107A1",
"o c #0B3E0B3E0B3E",
"O c #0E0E0E0E0E0E",
"+ c #11AB11AB11AB",
"@ c #147A147A147A",
"# c #161616E316E3",
"$ c #18E518E518E5",
"% c #1B4E1B4E1B4E",
"& c #1E841E841E84",
"* c #20201FB91FB9",
"= c #215421542154",
"- c #255825582558",
"; c #26262626268C",
": c #282828282828",
"> c #295C29C3295C",
", c #2B5E2B5E2B5E",
"< c #2C922CF92C92",
"1 c #2C922C922D60",
"2 c #2E942E942E94",
"3 c #30302FC93030",
"4 c #323232323232",
"5 c #329833663298",
"6 c #32FF32FF33CD",
"7 c #350135013501",
"8 c #366B36563664",
"9 c #383838383838",
"0 c #39D3396C396C",
"q c #396C39D3396C",
"w c #39D339D3396C",
"e c #396C396C39D3",
"r c #39D3396C39D3",
"t c #396C39D339D3",
"y c #3B073B073B07",
"u c #3D093CA23CA2",
"i c #3CA23D093CA2",
"p c #3D093D093CA2",
"a c #3CA23CA23D09",
"s c #3D093CA23D09",
"d c #3CA23D093D09",
"f c #3E3E3E3E3E3E",
"g c #4012400B400C",
"h c #41DB41DB41DB",
"j c #4330434F4331",
"k c #44AA44AA44AA",
"l c #46754684467B",
"z c #484848484848",
"x c #49E3497C497C",
"c c #49E349E3497C",
"v c #497C497C49E3",
"b c #497C49E349E3",
"n c #4B7E4B7E4B7E",
"m c #4D194CB24CB2",
"M c #4CB24D194CB2",
"N c #4D194D194C4C",
"B c #4CB24CB24D19",
"V c #4D194CB24D19",
"C c #4CB24D194D19",
"Z c #4EB44EB44EB4",
"A c #502550145025",
"S c #51EB51EB51EB",
"D c #533D5365535D",
"F c #552155215521",
"G c #568856885688",
"H c #585857F15858",
"J c #59F3598C598C",
"K c #598C59F3598C",
"L c #59F359F3598C",
"P c #598C598C59F3",
"I c #59F3598C59F3",
"U c #598C59F359F3",
"Y c #59F359F359F3",
"T c None",
/* pixels */
"TTTTTTTTTTTTTTTTTTTTTTTTTTTTTTTTTTTTTTTTTTTTTTTTTTTTTTTTTTTTTTTTTTTTTTTTTTTTTTTTTTTTTTTTTTTTTTTTTTTTTTTTTTTTTTTTTTTTTTTTTTTTTTTT",
"TTTTTTTTTTTTTTTTTTTTTTTTTTTTTTTTTTTTTTTTTTTTTTTTTTTTTTTTTTTTTTTTTTTTTTTTTTTTTTTTTTTTTTTTTTTTTTTTTTTTTTTTTTTTTTTTTTTTTTTTTTTTTTTT",
"TTTTTTTTTTTTTTTTTTTTTTTTTTTTTTTTTTTTTTTTTTTTTTTTTTTTTTTTTTTTTTTTTTTTTTTTTTTTTTTTTTTTTTTTTTTTTTTTTTTTTTTTTTTTTTTTTTTTTTTTTTTTTTTT",
"TTTTTTTTTTTTTTTTTTTTTTTTTTTTTTTTTTTTTTTTTTTTTTTTTTTTTTTTTTTTTTTTTTTTTTTTTTTTTTTTTTTTTTTTTTTTTTTTTTTTTTTTTTTTTTTTTTTTTTTTTTTTTTTT",
"TTTTTTTTTTTTTTTTTTTTTTTTTTTTTTTTTTTTTTTTTTTTTTTTTTTTTTTTTTTTTTTTTTTTTTTTTTTTTTTTTTTTTTTTTTTTTTTTTTTTTTTTTTTTTTTTTTTTTTTTTTTTTTTT",
"TTTTTTTTTTTTTTYYYYYYYYYYYYYYYYYYYYYYYYYYYYYYYYYYYYYYYYYYYYYYYYYYYYYYYYYYYYYYYYYYYYYYYYYYYYYYYYYYYYYYYYYYYYYYYYYHYYYTTTTTTTTTTTTT",
"TTTTTTTTTTTHYYYYYYYYYYYYYYYYYYYYYYYYYYYYYYYYYYYYYYYYYYYYYYYYYYYYYYYYYYYYYYYYYYYYYYYYYYYYYYYYYYYYYYYYYYYYYYYYYYYYYYYYYTTTTTTTTTTT",
"TTTTTTTTTTHYYHYHYYHYYYYHYYHYYYYYYHYYYYHYYYHYYYYHYYYYHYYYYYYHYYYHYHYYYYHYHYYYYHYYYYYHYYYYHYYYYHYYYYHYYYYHYHYYYHYYYHHYYHTTTTTTTTTT",
"TTTTTTTTTGHHHYHYHYYYYYYHHYYYYHYHYHYHYYYHHYYYHYYHHHYYHYHHHHYYYYHHHYYYHHHHYHYHYYYHHHYYYHYHHYYYYHHHHHYHKHKYHYHYHKKKYHHHHHHTTTTTTTTT",
"TTTTTTTTGGYHYHHYYYHHHHHKHHHYHYYHHHYHHHHYHHHHHHYHHYHHHHYHHYHHHHHYYHHHHYHHHHHYHHYHHHHHYHHYHHHHHHHHHYHHHHHHHHHHHHHHHYHYHHHHTTTTTTTT",
"TTTTTTTTHYHHHHHHHHHHHHHHHHYHYHHHHHHHHYHHHHYHYHHHHHHYHHHHHHHHHHHHHHHHHHHHHYHHHYHHHHHHHHHHHHHHHHHHHHHHHHHHHHHHHHHHHHHHHHHHHTTTTTTT",
"TTTTTTTSHHHHHHHHHHHKHHHHHHHHHYHHHHHHHHHHHHHHHHHHHHHHHHHHHYHHHHHHHHHYHHHHHHHHHHHHHHHHHHHHHHHHHHHHHYHHHHHHHHHHHHHHHHHHHHHHHTTTTTTT",
"TTTTTTTGHHHHHHHHHHHHHHHHGHHHHHHHHHHHHHHHHHHHHHHHHHHHHGHHHHHHGHHGHHHHHHHHHGGHHHHHHHHHHHHHHHHHHHHHHHGHHHHFHHGHHHGHHHHHHGHHGGTTTTTT",
"TTTTTTbHHHHHHHHHHHHHGHHGHHHGHHHHHHGHHGHHHHHHGHHGHHHHGHHHHHHHGHHHHHHHGHHGHHHHHHHHGHHGHGHGHHHHHGGHHHHHHHHHHHHGHGHHHHHHHHHGHHTTTTTT",
"TTTTTTkGHHHGGGHGGHGGGHHGGGGHGFHHGGGHGGGGGHGHHGGGHHGHHGGGHHGGGHGHHHGHGHHGGHHGHHGHHGGHGGGHGGHHGHGGHGGHFFHHHGHHGHGHHHHGHGGGGGTTTTTT",
"TTTTTTkGGGGGGGGGHHGGFHFGHGHHGHHFHGGGGGHGGGGHGGGGGHGGGGGHHGGHGGGGFFHGGGGGGGGGGGGGGGGGGGGHGHHGGGGGHHFHFHHFGHGGGGGGFFHGGGGGGFTTTTTT",
"TTTTTThFFHHFFHHFGHFHHFFHFGFHGFHFGGGGGDGGGGGGGGGGGGGGGGGGGGGGGGGGGGFFFHFFGGGGGGFGGGGGGGFGGGGGGGGGGGGGSGGGGGGGGGFGHGGGGFGGGSTTTTTT",
"TTTTTTiHFFFHHFFFGGHFFFHFHFFHFHHFGFGGGGGGGGGGGGGDGGGDGGGDGFGGFFGGHFHFHFFHGGDGFGGGFGFGGGFGGGGDGGFGGGGGGGFGGGGDGFGGFGGGGFGFGSTTTTTT",
"TTTTTTyHFFHFFFFFFHFFFHHFFFHFFFFFGGGFGGFGGGFGGDGGFGGGGDGGFFFGGGGFFFFFFFFFFFGFGGFGGGGFGGFGGDFFDDGGGSGDGGFFGSFGFFGGFFFFFGFFFSTTTTTT",
"TTTTTTgFHFFFFFFFFFFFFFFFFFFFFFHFFFFFFFFFFFFFGGSGFFGDGGFFGFFFDDGGHFFFFHFFGGDGFFFGFFFFFFFFFGFFGGGFGGFFFGFFGGFFGFSGGGFFFFFFFSTTTTTT",
"TTTTTTgFFFFFFFFFFFFFFFFFFFFFFFFFFFFFFGGGFFGFFFGGFGFFGGGGFFn9-8kkkkknFFSFGGFFGGGGFFFFFFFFGDGFFFDGGGGGFFFFDGGSFFFGFFFFFFFFGSTTTTTT",
"TTTTTTgFFFFFFFFFFFFFFFSFFFSFFFFFFFFFFGSGFFGGFFGSZnuihZSGFFGZq%X....X&&3ikSSFSSGSFFFFFFDFSFFFFFGGSSGSFFFFGDGGFFFSFFFFFFFFFSTTTTTT",
"TTTTTTiFFFFFFFFFFFFFFFFFFFFFFFFFFFSGSGSSSFGSnk9>$@ ..=8xSFDGSZq&       .X@>qkZGGSFFFFDFDGFFFSFSGGGGSGFSGSGSGSGFFSSFSSFAFFZTTTTTT",
"TTTTTTyFSFSFFSFFFFAFAFFFSFFFSSFFSFGSGSGGSb8,@O         @4xDSGDGnq+TTTT      X+4kZSSFDFDFSGSSGSSGSSGSSGSGSGSSFFSFFFFFFFFFGATTTTTT",
"TTTTTTgFFFSFFSSFAFFAAFFFFDDFSFFSDSGSGSSi,@    TTTTTTT    @8kSGDGSzTTTTTTTT     X&8kZGSGSGSGSGSSSSDGSGGSDFSFGSFFSSGSGGSSSSZTTTTTT",
"TTTTTTqSSFFSSFFFFFFFFFSSDDFSFSSFGSSGZh>X  TTTTTTTTTTTTTTT  .8ZSGSGbTTTTTTTTTTT    X-unSDSDSDGSSGSFSSSSSSSFSSSSSGFSSSSGSGGZTTTTTT",
"TTTTTTgSFSFSFFASAFAFSFSFSSFFDSSFSGZk:X TTTTTTTTTTTTTTTTTTTTTT=bSSGSkTTTTTTTTTTTTT   .&iZSSDSGSFSSGSSGSFSGSSDSSSSSSGSFSSSSZTTTTTT",
"TTTTTTqFSSSFSSFSFSFAFAFASFSSSFSSZh-X TTTTTTTTTTTTTTTTTTTTTTTTT=bSSSZTTTTTTTTTTTTTTT   .%5bZGSSSSDSSGSSSGSFSDSFGSFSSSSSGSSZTTTTTT",
"TTTTTTqSFASSFSSSAFASSFAFSFSSSSSh-X TTTTTTTTTTTTTTTTTTTTTTTTTTTTqSSSSTTTTTTTTTTTTTTTTTT   $8ZSSSSSSSSSSSSSDSSSDSSSSSSSSSSSZTTTTTT",
"TTTTTTiSSSFAAAFSSSSSSSSSSSSSSSy$ TTTTTTTTTTTTTTTTTTTTTTTTTTTTTT=ZSSSTTTTTTTTTTTTTTTTTTTT   -qZSSSSSSSSSSSSSSSSSSSSSSSSSSSZTTTTTT",
"TTTTTTqSSSSSSSSSSSSSSSSSSSSSM5.TTTTTTTTTTTTTTTTTTTTTTTTTTTTTTTT=ZSSSTTTTTTTTTTTTTTTTTTTTTT  X-kSSSSSSZSSSSSSSSSSSSSSSSSSSZTTTTTT",
"TTTTTTiSASSSSSSSSASSASSSSSSj-.TTTTTTTTTTTTTTTTTTTTTTTTTTTTTTTTT2SSSZTTTTTTTTTTTTTTTTTTTTTTTT  +8ASSSASSSASASASASASSASASZSZTTTTTT",
"TTTTTTqASSSSASASASSSSZSSASk&TTTTTTTTTTTTTTTTTTTTTTTTTTTTTTTTTTThSASATTTTTTTTTTTTTTTTTTTTTTTTT  X,kASASSASAASASSAASSZSAASAZTTTTTT",
"TTTTTTuAAAAASZAASAAASSAZAk&TTTTTTTTTTTTTTTTTTTTTTTTTTTTTTTTTTTTbASAkTTTTTTTTTTTTTTTTTTTTTTTTTTT  +9AAAASSASAAASAASSSZSSAZNTTTTTT",
"TTTTTTqAASASZSASAAZSZAAAk&TTTTTTTTTTTTTTTTTTTTTTTTTTTTTTTTTTTTkAAAZTTTTTTTTTTTTTTTTTTTTTTTTTTTTT  XqASAAAAAAAZAASZZZASSZAZTTTTTT",
"TTTTTTqAAAAAAAAAASAZSZAk&TTTTTTTTTTTTTTTTTTTTTTTTTTTTTTTTTTTTTZAAAkTTTTTTTTTTTTTTTTTTTTTTTTTTTTTTT OqbAAAAAAAASZZSZSZSZAAbTTTTTT",
"TTTTTTqZAAAAZAAAAZZSZZz&TTTTTTTTTTTTTTTTTTTTTTTTTTTTTTTTTTTTTbAAAZ2TTTTTTTTTTTTTTTTTTTTTTTTTTTTTTTT .>bZZZAAAAZZAZAAAZZAZZTTTTTT",
"TTTTTTqSZAZAAZAZSZAZZZ3TTTTTTTTTTTTTTTTTTTTTTTTTTTTTTTTTTTTTbZZZZkTTTTTTTTTTTTTTTTTTTTTTTTTTTTTTTTTT  -xZZZZZZZZAZZZZZAZAbTTTTTT",
"TTTTTTqZZAAZZAZZZZZZZiTTTTTTTTTTTTTTTTTTTTTTTTTTTTTTTTTTTTTTZZZZb>TTTTTTTTTTTTTTTTTTTTTTTTTTTTTTTTTTT  >bSZZZZZZZZZZZAZZZbTTTTTT",
"TTTTTTqZZZZZZZZZZZZZh&TTTTTTTTTTTTTTTTTTTTTTTTTTTTTTTTTTTTTZZZZn2TTTTTTTTTTTTTTTTTTTTTTTTTTTTTTTTTTTTT .qZZZZZZZZZZZZZZZZZTTTTTT",
"TTTTTT8ZZZZZZZZZZZZb>TTTTTTTTTTTTTTTTTTTTTTTTTTTTTTTTTTTTnnZZZZuTTTTTTTTTTTTTTTTTTTTTTTTTTTTTTTTTTTTTTT oqZZZZZZZZZZZZZZZbTTTTTT",
"TTTTTTqZZZZZnZnZZZZiTTTTTTTTTTTTTTTTTTTTTTTTTTTTTTTTTTTTnnZZZb9TTTTTTTTTTTTTTTTTTTTTTTTTTTTTTTTTTTTTTTTT %kZnZZZZnZZZnZZZbTTTTTT",
"TTTTTTqZZZZNZZZZZnb&TTTTTTTTTTTTTTTTTTTTTTTTTTTTTTTTTTbZZZZZk4TTTTTTTTTTTTTTTTTTTTTTTTTTTTTTTTTTTTTTTTTTT >ZZZZZnZnZZZnZZbTTTTTT",
"TTTTTT8ZbAnZnNZnZnqTTTTTTTTTTTTTTTTTTTTTTTTTTTTTTTTTTnZbbZnq&TTTTTTTTTTTTTTTTTTTTTTTTTTTTTTTTTnZZZTTTTTTTT+hnZnnZnZnZnZZNbTTTTTT",
"TTTTTTqZbZbZZZZnZn-TTTTTTTTTTTTTTTTTTTTTTTTTTTTTTTTTbbZZZx2TTTTTTTTTTTTTTTTTTTTTTTbnZnZTTTTTTnZnZnZTTTTTTT 4ZbnZnnnZnnZnnbTTTTTT",
"TTTTTT8nZNZNnnZnnhTTTTTTTTTTTTTTTTTTTTTTTTTTTTTTTTTTnZbnb>TTTTTTTTTTTTTTTTTTTTTTnnZZbZZbnTTbZbnZZbnZTTTTTTT2bZZbnZZnZnnnnbTTTTTT",
"TTTTTT9bZbbZZnnnb4TTTTTTTTTTTTTTTTTTTTTTTTTTTTTTTTTznZnb,TTTTTTTTTTTTTTTTTTnnTTTnnnZnnNbnnnnnnnbkZbnbbTTTT&hnZnZZnnnbZZnnbTTTTTT",
"TTTTTT9ZZbZbbnZnbTTTTTTTTTTTTTTTTTTTTTTTTTTTTTTTTTTbnnn8TTTTTTTTTTTTTTTTTTnnnnnnnnnhikbZZnnbZnb4TqknZbbhihbnnnnnnnnnZnbnnbTTTTTT",
"TTTTTTqbnnnnnnnnuTTTTTTTTTTTTTTTTTTTTTTTTTTTTTTTTTTbnnb=TTTTTTTTTTTTTTTTTbnnnnnnnnuTTT8bbnnnZz2TTTTinnnnnnnbnkhnnnnnnnnnnlTTTTTT",
"TTTTTT8nnnnnnnnn8TTTTTTTTTTTTTTTTTTTTTTTTTTTTTTTTTTknnnTTTTTTTTTTTTTTTTTTbbnnnnnnz0TTTT>ukzbi=TTTTT>knnnnnnZk&-nnnnnnnnnnxTTTTTT",
"TTTTTT8nnnnnnnnzTTTTTTTTTTTTTTTTTTTTTTTTTTTTTTTTTTTknnbTTTTTTTTTTTTTTTTTbnnnnknbnnk3TTTTT@@@TTTTTTTT>hnnnbbi= +hnnnnbnbnxxTTTTTT",
"TTTTTT8nbnxnbnbzTTTTTTTTTTTTTTTTTTTTTTTTTTTTTTTTTTTkbbbqTTTTTTTTTbbbbnbbbnbz3=ibnbnbu=TTTTTTTTTTTTTTTT,222>@  .9bbnbnbnnxkTTTTTT",
"TTTTTT8bbnbnbnNiTTTTTTTTTTTTTTTTTTTTTTTTTTTTTTTTTTTknbbkTTTTTTxbnbbnbbnbnnz4. @5bbnbnki,TTTTTTTTTTTTTTTTTTTTTT 2bbnxxxxbnbTTTTTT",
"TTTTTT8bbbbbbbbqTTTTTTTTTTTTTTTTTTTTTTTTTTTTTTTTTTTqbbbxTTTTTzxbbbbbbbbbzi-.T  .4kbbbbbzhqTTTTTTTTTTTTTTTTTTTTT>zxxxxnxxbkTTTTTT",
"TTTTTT8bxxxzbbn3TTTTTTTTTTTTTTTTTTTTTTTTTTTTTTTTTTT;zbbxkTTTbbxzbbbzkk98-+TTTTTT.-8hbbbxbzkTTTTTTTTTTTTTTTTTTTT@kxxxxxxxbkTTTTTT",
"TTTTTT8bxbzznbkTTTTTTTTTTTTTTTTTTTTTTTTTTTTTTTTTTTT&uzxzbTTkbzbbxh8*TTTTTTTTTTTTTTT%5kbbbbbkTTTTTTTTTTTTTTTTTTT+hxxzxxlbbkTTTTTT",
"TTTTTT8kbbzbzbkTTTTTTTTTTTTTTTTTTTTTTTTTTTTTTTTTTqkkzbzbzzzbzbzh4@TTTTTTTTTTTTTTTTTTTT8kbzbzbTTTTTTTTTTTTTTTTTTT9zzbbzzzbkTTTTTT",
"TTTTTT8bbzzzzzbuTTTTTTTTTTTTTTTTTTTTTTTTTTTTTTTTTbbbzbzzzzzzbzq@TTTTTTTTTTTTTTTTTTTTTTT>izzzkbTTTTTTTTTTTTTTTTTT4zzbzzzzxkTTTTTT",
"TTTTTT4bzzzzzzzkTTTTTTTTTTTTTTTTTTTTTTTTTTTTTTTThzxzzzzbzzzzi2OTTTTTTTTTTTTTTTTTTTTTTTTT;kbzbbkTTTTTTTTTTTTTTTTT-kzkzzzzkkTTTTTT",
"TTTTTT8kzzzzzzzkTTTTTTTTTTTTTTTTTTTTTTTTTTTTTTTTkzzk428khk9>TTTTTTTTTTTTTTTTTTTTTTTTTTTTT3kzbkbTTTTTTTTTTTTTTTTT%kzzbkzzbkTTTTTT",
"TTTTTT8bkbkbzkbzhTTTTTTTTTTTTTTTTTTTTTTTTTTTTTThzzk>   OOOTTTTTTTTTTTTTTTTTTTTTTTTTTTTTTTOqbzkbTTTTTTTTTTTTTTTTT%kzzkbbzbkTTTTTT",
"TTTTTT4bbkzzzzkzkTTTTTTTTTTTTTTTTTTTTTTTTTTTThkzzkiXT TTTTTTTTTTTTTTTTTTTTTTTTTTTTTTTTTTTT&kzzkkTTTTTTTTTTTTTTTT%hzkkbkzkkTTTTTT",
"TTTTTT4kkzkbkzkzbkTTTTTTTTTTTTTTTTTTTTTTTTTTkkbkkk3TTTTTTTTTTTTTTTTTTTTTTTTTTTTTTTTTTTTTTTTqbkkbTTTTTTTTTTTTTTTTTqkkxkkbxhTTTTTT",
"TTTTTT8kzkzkkzzkkkTTTTTTTTTTTTTTTTTTTTTTTTTkkbkbk8TTTTTTTTTTTTTTTTTTTTTTTTTTTTTTTTTTTTTTTTT,kkbkTTTTTTTTTTTTTTTTTuzkkbkkkhTTTTTT",
"TTTTTT6lkzkzkzkxkbkTTTTTTTTTTTTTTTTTTTTTTjklklkj9TTTTTTTTTTTTTTTTTTTTTTTTTTTTTTTTTTTTTTTTTT-kbkzTTTTTTTTTTTTTTTTTqkkkkzkkkTTTTTT",
"TTTTTT4kzkkkxkkklkkkTTTTTTTTTTTTTTTTTTTTTkllkkq&TTTTTTTTTTTTTTTTTTTTTTTTTTTTTTTTTTTTTTTTTTT>kkkkhTTTTTTTTTTTTTTTTqkkkbkkkkTTTTTT",
"TTTTTT6kkklkkkkkkkkkTTTTTTTTTTTTTTTTTTTTkkkkf1TTTTTTTTTTTTTTTTTTTTTTTTTTTTTTTTTTTTTTTTTTTTT-kkkkhTTTTTTTTTTTTTTTTukbkkkkkhTTTTTT",
"TTTTTT6kkkkkkkkklkkkkTTTTTTTTTTTTTTTTTTjkkkq@TTTTTTTTTTTTTTTTTTTTTTTTTTTTTTTTTTTTTTTTTTTTTT>kkkkiTTTTTTTTTTTTTTTTqkkkkkkkkTTTTTT",
"TTTTTT6kkkkkkkkkkkkkkkkTTTTTTTTTTTTTTThkkkh=TTTTTTTTTTTTTTTTTTTTTTTTTTTTTTTTTTTTTTTTTTTTTTT>hkkkiTTTTTTTTTTTTTTTTqkkkkkkkhTTTTTT",
"TTTTTT3kkkkkkkkkkkkkkjkjjTTTTTTTTTTTTykkkj>TTTTTTTTTTTTTTTTTTTTTTTTTTTTTTTTTTTTTTTTTTTTTTTT8kkkk8TTTTTTTTTTTTTTTTqkkkkhkkhTTTTTT",
"TTTTTT3kkkkkkkjkkkkkkkkkkkkTTTTTTTTTTjjkj4TTTTTTTTTTTTTTTTTTTTTTTTTTTTTTTTTTTTTTTTTTTTTTTTTqkkhhTTTTTTTTTTTTTTTTTikhhkkkkiTTTTTT",
"TTTTTT3kkjkkhkkkjjkjjkjjjjkjljjjhhkkjjkh8TTTTTTTTTTTTTTTTTTTTTTTTTTTTTTTTTTTTTTTTTTTTTTTTTThkkhkihhkhkhkjjkhkhg94hhkkhkhkhTTTTTT",
"TTTTTT4jjkhkhkkhjjjjjjjjjjjjjjjjkkkhkkhi%TTTTTTTTTTTTTTTTTTTTTTTTTTTTTTTTTTTTTTTTTTTTTTTTT4hkhjjkjhhkkhkkkkhjjjhhkkhhkjjhhTTTTTT",
"TTTTTT4hjjkhhkjhjjjjjjjjjjjjjjjjjhhkhjh2TTTTTTTTTTTTTTTTTTTTTTTTTTTTTTTTTTTTTTTTTTTTTTTTTTikhjjhkjhkhkhhhhhhhhjjhhhkjjhjkiTTTTTT",
"TTTTTT3hjhjjhjhkjhjjjjjhhjjjjjjghhjjjhqTTTTTTTTTTTTTTTTTTTTTTTTTTTTTTTTTTTTTTTTTTTTTTTTTT4hjjhiuq822222222228hhhkhkhjhjhhhTTTTTT",
"TTTTTT4jjhhjhjhhhjhhhjjhjhhhjfjjhjhhhhqTTTTTTTTTTTTTTTTTTTTTTTTTTTTTTTTTTTTTTTTTTTTTTTTTTihjki=XTTTTTTTTTTTT8hhhhhhhhhhkhiTTTTTT",
"TTTTTT2hhhhhjhhhhhhhhhhjhhhhhhhhhhhhhhiTTTTTTTTTTTTTTTTTTTTTTTTTTTTTTTTTTTTTTTTTTTTTTTTTihhhh: TTTTTTTTTTTT>hhhhhhhhhhhhkiTTTTTT",
"TTTTTT2jhhhhhhhhhhhhhhhhjjhhhhhhhhhhhhhTTTTTTTTTTTTTTTTTTTTTTTTTTTTTTTTTTTTTTTTTTTTTTTTikhhh8XTTTTTTTTTTTTT3hhhhhhhhhhhhhiTTTTTT",
"TTTTTT2hhhhhhhhhhhjhjjhhjfhjhhjjhhhhhhhiTTTTTTTTTTTTTTTTTTTTTTTTTTTTTTTTTTTTTTTTTTTTTihhhhh8@TTTTTTTTTTTTTT4hhghhghhihhhhiTTTTTT",
"TTTTTT2hhghgjfhjfhjfgfjfjfhfhhfjhhhhfhhhTTTTTTTTTTTTTTTTTTTTTTTTTTTTTTTTTTTTTTTTTTTghhhhii2+TTTTTTTTTTTTTTT2hghhghhghhghhfTTTTTT",
"TTTTTT2hhihhhhhhjgfgjffjfjgfhfhjihhhhfhfgTTTTTTTTTTTTTTTTTTTTTTTTTTTTTTTTTTTTTTTfjhihhffq*TTTTTTTTTTTTTTTTT=fgjfhhhgghfhhuTTTTTT",
"TTTTTT2hjiihihhifjjfjfhhjujghfffhihihfghhfTTTTTTTTTTTTTTTTTTTTTTTTTTTTTTTTTTTggihfghhi9>+TTTTTTTTTTTTTTTTTT#fgfjihhihfhfjuTTTTTT",
"TTTTTT2hhikgkiihfgfhfjffhgfffjijgghifhfhfhfTTTTTTTTTTTTTTTTTTTTTTTTTTTTTTTTihgijfhfy8=TTTTTTTTTTTTTTTTTTTTT#yfjikiijfhhfiuTTTTTT",
"TTTTTT2iihihihigfjffgfjfffhfjfffghihhfgfhffhfTTTTTTTTTTTTTTTTTTTTTTTTTTiigggihgfyq3TTTTTTTTTTTTTTTTTTTTTTTT#yjfjihgihffhffTTTTTT",
"TTTTTT2iihgiukiufhfhfjffffjffffjihghigfhhfihffffTTTTTTTTTTTTTTTTTTTTighiffhgiy8>TTTTTTTTTTTTTTTTTTTTTTTTTTT=ifffffijiggfiiTTTTTT",
"TTTTTT4fgigkhiggfjffffffjfffffhfgiijgigffgfgfhffffffTTTTTTTTTTTfgigugihiffiq>TTTTTTTTTTTTTTTTTTTTTTTTTTTTTT6ffffffgigifffyTTTTTT",
"TTTTTT2iigiuigigffffffffffffffffiigiguffffgigifhffffffffffffffffiguggiiiffq%TTTTTTTTTTTTTTTTTTTTTTTTTTTTTTTqfffffffgiguffuTTTTTT",
"TTTTTT2igigigigiffffffffffffffffugigugffffigigiiffffffffffffffffigigigigffi=TTTTTTTTTTTTTTTTTTTTTTTTTTTTTTTiffffffffgiffiyTTTTTT",
"TTTTTT,fugffuffffufffyffffiffuffffffffifffffffffffffffffffffsffsguiii98ifff3TTTTTTTTTTTTTTTTTTTTTTTTTTTTTTqffyffffifffsffuTTTTTT",
"TTTTTT,ffuuffufufiuffffisiffsfuufyffyiffifiuuifyfyyffyfyyfyfffsfi92*%XX3yfiyTTTTTTTTTTTTTTTTTTTTTTTTTTTTT6iiffiffyfffyffiyTTTTTT",
"TTTTTT,iuuiusfyffffyiyfffyyffyffuyfufffiuuifuufyfffffyfffsssyffuu> T   %uiif9TTTTTTTTTTTTTTTTTTTTTTTTTTT9yfayfyfyfyfyffsiyTTTTTT",
"TTTTTT2iuffufyfiyfufifiiaffssfyfffiufyyfufiuufyfyfyfyfyfssfyfyuui8@TTT .3iiuyqTTTTTTTTTTTTTTTTTTTTTTTTTTyuysfyfyfyfyfyyfuyTTTTTT",
"TTTTTT1ifffyyfyyyfyfyffyyfyfyfyuyfyuyfyfyffyusyfyfyyyffyyfyfiyfuqi>TTTTT:yiuiu9TTTTTTTTTTTTTTTTTTTTTTTTqfuyfyuafyuuyuyusyqTTTTTT",
"TTTTTT>iyyyfyiyffyiyfyyfiyyyfyfyyufyfysyfyyfyuyyfyyffyyfsyyyyuyuuuqTTTTTO8yqiyyuTTTTTTTTTTTTTTTTTTTTTqiuyyiyyuyyyfyyyiuyyqTTTTTT",
"TTTTTT1yyyyyyyyyyayuyyayyfsyfyyyfyyyfyyuyyyyfyfyfyyiyyyyfyfyyuyyuyy3TTTTT>quyiyiqyTTTTTTTTTTTTTTTTTyyqquyfyfsyyuyffyiyyiiqTTTTTT",
"TTTTTT1iyysyyfyyayyyyyyyyyyyyyyyyyyyyyyyyyyyyyyyyyyyyyyyyyyyyyyyqyyyTTTTTo2qyyyyuqyyyTTTTTTTTTTTyyyyyuiqyyyyyyyyyyyyyyyyy9TTTTTT",
"TTTTTT,uyyyyyyyyyyyyyyyyyyyyyyyyuququququqyyyyyyyyyyyyyyyyyqyyyyyqyy8TTTTTX-38qqyyyyu9yyq99uu9quyyyyyyyyuyyyyyyyyuyyyyyyy9TTTTTT",
"TTTTTT1yyyyyyyqyyyyyyyyyyyyyyyyq9qquu9ququu9yyyyryyyyyyyququyyu9quqy9TTTTTTTX%3qyy9yyyyyuuqqqu9qyyyyyqqy9yyyy9yuy99yyy9yy9TTTTTT",
"TTTTTT>u9uyyyyyqu9qyyyyyyyyyryyyquuqqq9q9yyyyyyryyryyu9yyqqu9yyyuqyyqq4TTTTTTTT>9y9yy99yq9u9u9uqquqyy9y99uyyyu9ryuy9yrryy9TTTTTT",
"TTTTTT>qyy9y9qqu9u9y9yqyqy9yryy9uq9qquu9uur99yry9yry99u9yy9qu99uqqqqyqq4TTTTTTT.,yyy9uyyuqq9uq9qqqqqyyqyuq9y99u999qyy9yy99TTTTTT",
"TTTTTT>qu9yu9yqyyyyy9yy99q9uq9yy99uuuqu99yy9y99yyrq9yy9yuq9qu9quq9u9uq9qqTTTTTTT%9y9y9y99uy9qu9uyqy99y9yq9u9q9qq9uy9y9y999TTTTTT",
"TTTTTT>qq999yqqq999yy99yy9uq9y999u99999u99rr9yy99y9y99y99qu99q999u9q9qu9q9TTTTTT >9yy99y999y9uq99y9yy9y99u9q9u9q999y9y9yyqTTTTTT",
"TTTTTT>qu9q999q9y9999y9q999q9yy999qq9909y9y9999y99u99999999qq99qu9q9q9q9qqqTTTTTT&999999999yq9q999y99y99q99uq99q9r99999998TTTTTT",
"TTTTTT>q9q9q9q9q999y99y9999y9999u999999999999yr99999qy99u99999q99q9999q9q8qTTTTTTX,99y9u999999999q9999q99999q9999r9y9y9y98TTTTTT",
"TTTTTT>q99q99999999999999r9999999999999999999999y999999999q99999999999999998TTTTTT@999999999999999999999999999999999999998TTTTTT",
"TTTTTT>899999999999999999999999999999999999999999999999999999999999999999999TTTTTT.>99999999999999999999999989999999999998TTTTTT",
"TTTTTT:999999999999999999999999999999999999999999999999999998q99999999999899TTTTTTT#89999989999899999899999999999898988998TTTTTT",
"TTTTTT:9999998999999999999999999999999999997999999999899999999899999889999898TTTTT@-899989999999999999898899q8989999899986TTTTTT",
"TTTTTT>8899898989989999997799699997559959799898999988988888989989898989898988TTT246888989898988898989888988898888999988888TTTTTT",
"TTTTTT-888888888699679699997896979999999797789899688988888888888888888888888q558888888888888898898888888888888888896888988TTTTTT",
"TTTTTT>8888898896996979869797797979979889797878896986988888888898888988888888868888888889888888886988898888888888988888884TTTTTT",
"TTTTTT:8888888869599976797889979795597887979888869969688888888868886886886888888888886885888858869688868888888888696886886TTTTTT",
"TTTTTT=8888848887696977077707777778887878878778888887888888888856698888888888886888888887588788878878777878785886968777774TTTTTT",
"TTTTTT+477788884697977777777777777777877787777777777788678488488886885848858588848847877788877778778777877778886865986788>TTTTTT",
"TTTTTTT:77858788775977777777777787887777777777777777778877484848688648855868866848847777685877787787778677777768866858884TTTTTTT",
"TTTTTTT@3747775877757777777777776856777777777777777777467788488885884778858658588868777784857776774777687777778888588855,TTTTTTT",
"TTTTTTTT%48786885777776677767776448848887744874747748448774745844884846876777569584588865848854877484846787484865588688,TTTTTTTT",
"TTTTTTTT %2484645775555747747657488684667477477748575458484486487484484874775754848445688484484847744588448448468566843%TTTTTTTT",
"TTTTTTTTT %2684475756757747757775488655447757747547548868484484845478846475665554858544448446484474784855448654455554-OTTTTTTTTT",
"TTTTTTTTTT O=254545574444444444444454444444444448444444444444444455544444445555544444444444444444444444454444444554-%.TTTTTTTTTT",
"TTTTTTTTTTT  O%%@%%%@%%%$$%%$%$$%%@%%@%%@%%%@%%%%@%%@%%@%%@%%@%%@%%%@%%%$$%%$%$$%%@%%@%%@%%%@%%%$$%%@%#%%%@%@%%%%%@.TTTTTTTTTTTT",
"TTTTTTTTTTTT             .                                                                                        TTTTTTTTTTTTTT",
"TTTTTTTTTTTTTTTTTTTTTTTTTTTTTTTTTTTTTTTTTTTTTTTTTTTTTTTTTTTTTTTTTTTTTTTTTTTTTTTTTTTTTTTTTTTTTTTTTTTTTTTTTTTTTTTTTTTTTTTTTTTTTTTT",
"TTTTTTTTTTTTTTTTTTTTTTTTTTTTTTTTTTTTTTTTTTTTTTTTTTTTTTTTTTTTTTTTTTTTTTTTTTTTTTTTTTTTTTTTTTTTTTTTTTTTTTTTTTTTTTTTTTTTTTTTTTTTTTTT",
"TTTTTTTTTTTTTTTTTTTTTTTTTTTTTTTTTTTTTTTTTTTTTTTTTTTTTTTTTTTTTTTTTTTTTTTTTTTTTTTTTTTTTTTTTTTTTTTTTTTTTTTTTTTTTTTTTTTTTTTTTTTTTTTT",
"TTTTTTTTTTTTTTTTTTTTTTTTTTTTTTTTTTTTTTTTTTTTTTTTTTTTTTTTTTTTTTTTTTTTTTTTTTTTTTTTTTTTTTTTTTTTTTTTTTTTTTTTTTTTTTTTTTTTTTTTTTTTTTTT",
"TTTTTTTTTTTTTTTTTTTTTTTTTTTTTTTTTTTTTTTTTTTTTTTTTTTTTTTTTTTTTTTTTTTTTTTTTTTTTTTTTTTTTTTTTTTTTTTTTTTTTTTTTTTTTTTTTTTTTTTTTTTTTTTT",
"TTTTTTTTTTTTTTTTTTTTTTTTTTTTTTTTTTTTTTTTTTTTTTTTTTTTTTTTTTTTTTTTTTTTTTTTTTTTTTTTTTTTTTTTTTTTTTTTTTTTTTTTTTTTTTTTTTTTTTTTTTTTTTTT"
};
