/* XPM */
static char *opera[] = {
/* columns rows colors chars-per-pixel */
"128 128 60 1",
"  c #000000000000",
". c #040404040404",
"X c #080808080808",
"o c #0AD70AD70AD7",
"O c #0E0E0E0E0E0E",
"+ c #11AB11AB11AB",
"@ c #14E114E114E1",
"# c #17B117B11818",
"$ c #1A801A801A80",
"% c #1E1E1E1E1E1E",
"& c #20201FB91FB9",
"* c #215421542154",
"= c #24F124F124F1",
"- c #2626268C268C",
"; c #282828282828",
": c #28F528F529C3",
"> c #2AF72AF72AF7",
", c #2E2E2E2E2E2E",
"< c #31CB31CB31CB",
"1 c #329833663366",
"2 c #349A349A349A",
"3 c #367F3653364B",
"4 c #37D137D137D1",
"5 c #39D3396C396C",
"6 c #396C39D3396C",
"7 c #39D339D3396C",
"8 c #396C396C39D3",
"9 c #39D3396C39D3",
"0 c #396C39D339D3",
"q c #3B073B073B07",
"w c #3D093CA23CA2",
"e c #3CA23D093CA2",
"r c #3D093D093CA2",
"t c #3CA23CA23D09",
"y c #3D093CA23D09",
"u c #3CA23D093D09",
"i c #3EA43EA43EA4",
"p c #3FFD4020400C",
"a c #41DB41DB41DB",
"s c #435143364334",
"d c #451145114511",
"f c #46A346924665",
"g c #484848484848",
"h c #497C497C49E3",
"j c #4B174B174B17",
"k c #4CB24D194CB2",
"l c #4CB24CB24D19",
"z c #4E4E4E4E4E4E",
"x c #4FE9501F501A",
"c c #5184518451EB",
"v c #5364531F5341",
"b c #552155215521",
"n c #569356865689",
"m c #57F157F157F1",
"M c #59F3598C598C",
"N c #598C59F3598C",
"B c #598C598C59F3",
"V c #598C59F359F3",
"C c #59F359F359F3",
"Z c None",
/* pixels */
"ZZZZZZZZZZZZZZZZZZZZZZZZZZZZZZZZZZZZZZZZZZZZZZZZZZZZZZZZZZZZZZZZZZZZZZZZZZZZZZZZZZZZZZZZZZZZZZZZZZZZZZZZZZZZZZZZZZZZZZZZZZZZZZZZ",
"ZZZZZZZZZZZZZZZZZZZZZZZZZZZZZZZZZZZZZZZZZZZZZZZZZZZZZZZZZZZZZZZZZZZZZZZZZZZZZZZZZZZZZZZZZZZZZZZZZZZZZZZZZZZZZZZZZZZZZZZZZZZZZZZZ",
"ZZZZZZZZZZZZZZZZZZZZZZZZZZZZZZZZZZZZZZZZZZZZZZZZZZZZZZZZZZZZZZZZZZZZZZZZZZZZZZZZZZZZZZZZZZZZZZZZZZZZZZZZZZZZZZZZZZZZZZZZZZZZZZZZ",
"ZZZZZZZZZZZZZZZZZZZZZZZZZZZZZZZZZZZZZZZZZZZZZZZZZZZZZZZZZZZZZZZZZZZZZZZZZZZZZZZZZZZZZZZZZZZZZZZZZZZZZZZZZZZZZZZZZZZZZZZZZZZZZZZZ",
"ZZZZZZZZZZZZZZZZZZZZZZZZZZZZZZZZZZZZZZZZZZZZZZZZZZZZZZZZZZZZZZZZZZZZZZZZZZZZZZZZZZZZZZZZZZZZZZZZZZZZZZZZZZZZZZZZZZZZZZZZZZZZZZZZ",
"ZZZZZZZZZZZZZZZZZZZZZZZZZZZZZZZZZZZZZZZZZZZZZZZZZZZZZZZZZZZZZZZZZZZZZZZZZZZZZZZZZZZZZZZZZZZZZZZZZZZZZZZZZZZZZZZZZZZZZZZZZZZZZZZZ",
"ZZZZZZZZZZZZZZZZZZZZZZZZZZZZZZZZZZZZZZZZZZZZZZZZZZZZZZZZZZZZZZZZZZZZZZZZZZZZZZZZZZZZZZZZZZZZZZZZZZZZZZZZZZZZZZZZZZZZZZZZZZZZZZZZ",
"ZZZZZZZZZZZZZZZZZZZZZZZZZZZZZZZZZZZZZZZZZZZZZZZZZZZZZZZZZZZZZZZZZZZZZZZZZZZZZZZZZZZZZZZZZZZZZZZZZZZZZZZZZZZZZZZZZZZZZZZZZZZZZZZZ",
"ZZZZZZZZZZZZZZZZZZZZZZZZZZZZZZZZZZZZZZZZZZZZZZZZZZZZZZZZZZZZZZZZZZZZZZZZZZZZZZZZZZZZZZZZZZZZZZZZZZZZZZZZZZZZZZZZZZZZZZZZZZZZZZZZ",
"ZZZZZZZZZZZZZZZZZZZZZZZZZZZZZZZZZZZZZZZZZZZZZZZZZZZZZZZZZZZZZZZZZZZZZZZZZZZZZZZZZZZZZZZZZZZZZZZZZZZZZZZZZZZZZZZZZZZZZZZZZZZZZZZZ",
"ZZZZZZZZZZZZZZZZZZZZZZZZZZZZZZZZZZZZZZZZZZZZZZZZZZZZZZZZZZZZZZZZZZZZZZZZZZZZZZZZZZZZZZZZZZZZZZZZZZZZZZZZZZZZZZZZZZZZZZZZZZZZZZZZ",
"ZZZZZZZZZZZZZZZZZZZZZZZZZZZZZZZZZZZZZZZZZZZZZZZZZZZZZZZZZZZZZZZZZZZZZZZZZZZZZZZZZZZZZZZZZZZZZZZZZZZZZZZZZZZZZZZZZZZZZZZZZZZZZZZZ",
"ZZZZZZZZZZZZZZZZZZZZZZZZZZZZZZZZZZZZZZZZZZZZZZZZZZZZZZZZZZZZZZZZZZZZZZZZZZZZZZZZZZZZZZZZZZZZZZZZZZZZZZZZZZZZZZZZZZZZZZZZZZZZZZZZ",
"ZZZZZZZZZZZZZZZZZZZZZZZZZZZZZZZZZZZZZZZZZZZZZZZZZZZZZZZZZZZZZZZZZZZZZZZZZZZZZZZZZZZZZZZZZZZZZZZZZZZZZZZZZZZZZZZZZZZZZZZZZZZZZZZZ",
"ZZZZZZZZZZZZZZZZZZZZZZZZZZZZZZZZZZZZZZZZZZZZZZZZZZZZZZZZZZZnMVVMMMMMMMZZZZZZZZZZZZZZZZZZZZZZZZZZZZZZZZZZZZZZZZZZZZZZZZZZZZZZZZZZ",
"ZZZZZZZZZZZZZZZZZZZZZZZZZZZZZZZZZZZZZZZZZZZZZZZZZZZZZnMMMMMMMMMMMMMVMMMMMMMMZZZZZZZZZZZZZZZZZZZZZZZZZZZZZZZZZZZZZZZZZZZZZZZZZZZZ",
"ZZZZZZZZZZZZZZZZZZZZZZZZZZZZZZZZZZZZZZZZZZZZZZZZZmmVMMmMmMMMMmMMMVVmVVMVMMMMMMVmZZZZZZZZZZZZZZZZZZZZZZZZZZZZZZZZZZZZZZZZZZZZZZZZ",
"ZZZZZZZZZZZZZZZZZZZZZZZZZZZZZZZZZZZZZZZZZZZZZZZnmmMMmmMMMMmMMMmmVmVVMmVmMMmmMmmVmmZZZZZZZZZZZZZZZZZZZZZZZZZZZZZZZZZZZZZZZZZZZZZZ",
"ZZZZZZZZZZZZZZZZZZZZZZZZZZZZZZZZZZZZZZZZZZZZnmmmmMmmmmMmmmmmmmmMmVmmVmmmmmmmmmmmmVmmbZZZZZZZZZZZZZZZZZZZZZZZZZZZZZZZZZZZZZZZZZZZ",
"ZZZZZZZZZZZZZZZZZZZZZZZZZZZZZZZZZZZZZZZZZZbnmmmmmmmmmmmmmmmmmmmmmmmmmmmmmmmmmmmmmmmmMMnZZZZZZZZZZZZZZZZZZZZZZZZZZZZZZZZZZZZZZZZZ",
"ZZZZZZZZZZZZZZZZZZZZZZZZZZZZZZZZZZZZZZZZZnMnnMmmmmmmmmmMmmmmmmmmmbMnmmmmbMmMMbmmmmmmmmmbZZZZZZZZZZZZZZZZZZZZZZZZZZZZZZZZZZZZZZZZ",
"ZZZZZZZZZZZZZZZZZZZZZZZZZZZZZZZZZZZZZZZvnnnnmbnnmmbmMmbbmbmmmmmmmMbMnmmnMmmbbMbMnmnnbMbMmZZZZZZZZZZZZZZZZZZZZZZZZZZZZZZZZZZZZZZZ",
"ZZZZZZZZZZZZZZZZZZZZZZZZZZZZZZZZZZZZZZbnnMnnnnnMnnnnnbmbmbbmbmmbnnnnnnnnbbmmbMbmnnnmnnnmmbbZZZZZZZZZZZZZZZZZZZZZZZZZZZZZZZZZZZZZ",
"ZZZZZZZZZZZZZZZZZZZZZZZZZZZZZZZZZZZZZnbnnnnnnnnnnnnnnnnnnnnnmbbbnnnnnnnnMbbbmbmbnnnnbnnnbmmbZZZZZZZZZZZZZZZZZZZZZZZZZZZZZZZZZZZZ",
"ZZZZZZZZZZZZZZZZZZZZZZZZZZZZZZZZZZZZbnnnbnnnbnbbnnmbbnmbbbmbbmkffffvbbbnbnnbbnbbnnbnbbmbmbmbbZZZZZZZZZZZZZZZZZZZZZZZZZZZZZZZZZZZ",
"ZZZZZZZZZZZZZZZZZZZZZZZZZZZZZZZZZZZbnnnbnbbbbnbbnbnbbnbbbbbh3-+    ->ycbnbbnbbbmnbbnbbbbbbmbbbbZZZZZZZZZZZZZZZZZZZZZZZZZZZZZZZZZ",
"ZZZZZZZZZZZZZZZZZZZZZZZZZZZZZZZZZZcbbbbbbbbbbnbbbbbbbbbbbxy+         X>hbbnbbbbbbbbbbbbbbbbbbbbZZZZZZZZZZZZZZZZZZZZZZZZZZZZZZZZZ",
"ZZZZZZZZZZZZZZZZZZZZZZZZZZZZZZZZZbbbbbbbbbbbbbbbbbbbbbbbk-X            @ebbbbbbbbbbbbbbbbbbbbbbvZZZZZZZZZZZZZZZZZZZZZZZZZZZZZZZZ",
"ZZZZZZZZZZZZZZZZZZZZZZZZZZZZZZZZvbbbbbbvbbvbbbbbbbbbbbbj>  ZZZZZZZZZ    XgbbcbbbbbbbcbbvbbbbbvbbvZZZZZZZZZZZZZZZZZZZZZZZZZZZZZZZ",
"ZZZZZZZZZZZZZZZZZZZZZZZZZZZZZZZhvbvvvvvbbvbvvbvvbbcbbbb2 ZZZZZZZZZZZZZ   <cbcbvbbbbbbbbvbbcbbvvbbbZZZZZZZZZZZZZZZZZZZZZZZZZZZZZZ",
"ZZZZZZZZZZZZZZZZZZZZZZZZZZZZZZkbbvvvvbvvbvvbvvbvcvbcbbdOZZZZZZZZZZZZZZZZ  4cvvvbcbcbxvvbxbbvvvvvvvZZZZZZZZZZZZZZZZZZZZZZZZZZZZZZ",
"ZZZZZZZZZZZZZZZZZZZZZZZZZZZZZZcccbcvvvvvvvvvvvcvvvvvxx:ZZZZZZZZZZZZZZZZZZ @fcbvccbxbvvvvbcxbvvvvvvccZZZZZZZZZZZZZZZZZZZZZZZZZZZZ",
"ZZZZZZZZZZZZZZZZZZZZZZZZZZZZZcccvcvccvcvcvvvccvvvcvvvsZZZZZZZZZZZZZZZZZZZZ >xvvvcvcvvvvvxvxvvbvvcvvcZZZZZZZZZZZZZZZZZZZZZZZZZZZZ",
"ZZZZZZZZZZZZZZZZZZZZZZZZZZZZZccvcvvcvcvccccvcvcccvccc,ZZZZZZZZZZZZZZZZZZZZ OhcvcvcvvcccvvvvvxxxbccvccZZZZZZZZZZZZZZZZZZZZZZZZZZZ",
"ZZZZZZZZZZZZZZZZZZZZZZZZZZZZkccccvccvcvcccccccvccccchZZZZZZZZZZZZZZZZZZZZZZ.qvcvccvxccccxvxvvxxvccvccZZZZZZZZZZZZZZZZZZZZZZZZZZZ",
"ZZZZZZZZZZZZZZZZZZZZZZZZZZZhccccccccccxcccccccccccccwZZZZZZZZZZZZZZZZZZZZZZZ>ccccccxvxccxvvvxvvxccccccZZZZZZZZZZZZZZZZZZZZZZZZZZ",
"ZZZZZZZZZZZZZZZZZZZZZZZZZZZkcccccccxcccccxccccccxccx>ZZZZZZZZZZZZZZZZZZZZZZZOgxcxxccccxcvvxcxvxvccccccZZZZZZZZZZZZZZZZZZZZZZZZZZ",
"ZZZZZZZZZZZZZZZZZZZZZZZZZZsxccxccxcxxxxcxcxxcxxxcxxfZZZZZZZZZZZZZZZZZZZZZZZZX4xxcxxcxccxxxcxxxxxckcxcxcZZZZZZZZZZZZZZZZZZZZZZZZZ",
"ZZZZZZZZZZZZZZZZZZZZZZZZZZhxcxxxxxxxxxxxxxxxxxxcxxcfZZZZZZZZZZZZZZZZZZZZZZZZZ-xxxxxxxxxxxxxxxxxxxcxxxxkZZZZZZZZZZZZZZZZZZZZZZZZZ",
"ZZZZZZZZZZZZZZZZZZZZZZZZZscxxxxxxxxxxxxxxxxxxxxxxck4ZZZZZZZZZZZZZZZZZZZZZZZZZ&kxxxxxxxxxxxxxxxxxckxxxcckZZZZZZZZZZZZZZZZZZZZZZZZ",
"ZZZZZZZZZZZZZZZZZZZZZZZZZhxccxckxxxxkxxxxxxxxxxkkxjZZZZZZZZZZZZZZZZZZZZZZZZZZZpxxxxkxxkxxxxxxxxzxckcxlxlZZZZZZZZZZZZZZZZZZZZZZZZ",
"ZZZZZZZZZZZZZZZZZZZZZZZZZkkkkkkcxxkkxxklckxkkxxxxxkZZZZZZZZZZZZZZZZZZZZZZZZZZZpcjxzxxxxkkxkxxxzxxkkklxxxZZZZZZZZZZZZZZZZZZZZZZZZ",
"ZZZZZZZZZZZZZZZZZZZZZZZZsxkckxkxlxkxxkkxkxkxlxlxxkjZZZZZZZZZZZZZZZZZZZZZZZZZZZ4kxxxzkxkxxkxkkxkxckxkxlxlkZZZZZZZZZZZZZZZZZZZZZZZ",
"ZZZZZZZZZZZZZZZZZZZZZZZZgkxkxkxkxllxkxxkxkxkxlxlkxsZZZZZZZZZZZZZZZZZZZZZZZZZZZ&jxjjxxkxkkxkxxkxkkxkxlxlxxZZZZZZZZZZZZZZZZZZZZZZZ",
"ZZZZZZZZZZZZZZZZZZZZZZZZlkxlxkkklkxlxjkxxxlxlxjxxkpZZZZZZZZZZZZZZZZZZZZZZZZZZZ#jkkxkkjxxkkkkzzzzxkkxlkxkkZZZZZZZZZZZZZZZZZZZZZZZ",
"ZZZZZZZZZZZZZZZZZZZZZZZ3jkkkkkkxllxlxllljljxjxxjjxpZZZZZZZZZZZZZZZZZZZZZZZZZZZ$jxxjxxkjjkkxkzzjjkklxkklkxhZZZZZZZZZZZZZZZZZZZZZZ",
"ZZZZZZZZZZZZZZZZZZZZZZZslxkkkkkkjlllkklljlkkkljjkjZZZZZZZZZZZZZZZZZZZZZZZZZZZZ$hjkkkkkkkjkjzjzzzkkkkkxlljkZZZZZZZZZZZZZZZZZZZZZZ",
"ZZZZZZZZZZZZZZZZZZZZZZZslllkkkkkzlllkkklllllllllkjZZZZZZZZZZZZZZZZZZZZZZZZZZZZZ3kkkkkkkkzjzjzjhzkkkkllllkjZZZZZZZZZZZZZZZZZZZZZZ",
"ZZZZZZZZZZZZZZZZZZZZZZZhkkjkkjjkjjjzjzjjlljlljlllgZZZZZZZZZZZZZZZZZZZZZZZZZZZZZ4xjjjxjjzzjzjzjjzkkkkjkkkkhhZZZZZZZZZZZZZZZZZZZZZ",
"ZZZZZZZZZZZZZZZZZZZZZZZhjkkjkjkjjjjzjjljljjljljllgZZZZZZZZZZZZZZZZZZZZZZZZZZZZZ4jjjjjjjzjjjjjjzhjjjjkjjjjhfZZZZZZZZZZZZZZZZZZZZZ",
"ZZZZZZZZZZZZZZZZZZZZZZ3hjjjjjjjjjjjjjjjjjjjjjjjjjgZZZZZZZZZZZZZZZZZZZZZZZZZZZZZ4jjxjjjjjjjjzjjjjjjjjjjkjjjfZZZZZZZZZZZZZZZZZZZZZ",
"ZZZZZZZZZZZZZZZZZZZZZZsjjjjjjjjjjjjjjjjjjjjjjjjjjgZZZZZZZZZZZZZZZZZZZZZZZZZZZZZ4jjgjjjjjjjjjjjjjjjjjjjhkjjhZZZZZZZZZZZZZZZZZZZZZ",
"ZZZZZZZZZZZZZZZZZZZZZZfhjhjjjhhhjjjjjjjgjhjhjjhjldZZZZZZZZZZZZZZZZZZZZZZZZZZZZZ3kjjjjjjjhjjjhjjhjjhjjhjjjjhZZZZZZZZZZZZZZZZZZZZZ",
"ZZZZZZZZZZZZZZZZZZZZZZshhhhjhjhhjgjgjjjjjhhjhhjjhqZZZZZZZZZZZZZZZZZZZZZZZZZZZZZ$shhhhhhhjhhhjhjhhjjhhhhhjhhZZZZZZZZZZZZZZZZZZZZZ",
"ZZZZZZZZZZZZZZZZZZZZZZshhhhhhjhhgjgljlgjhjhhhhhhh5ZZZZZZZZZZZZZZZZZZZZZZZZZZZZZZgghhhhhhhhhhhhhjhhhhhhhhhhhZZZZZZZZZZZZZZZZZZZZZ",
"ZZZZZZZZZZZZZZZZZZZZZ,hhhhhhhhhhggjggggghjfhhhhhg5ZZZZZZZZZZZZZZZZZZZZZZZZZZZZZZshhhhhhhhhhhhhhhhhhhhhhhhhhsZZZZZZZZZZZZZZZZZZZZ",
"ZZZZZZZZZZZZZZZZZZZZZ,hhfghghhggjgjgjgggjghgjhhjg5ZZZZZZZZZZZZZZZZZZZZZZZZZZZZZZsjgjhghghhggghjghhhghhhgghggZZZZZZZZZZZZZZZZZZZZ",
"ZZZZZZZZZZZZZZZZZZZZZ>hhhhhgggghggggggggghhgggfgg5ZZZZZZZZZZZZZZZZZZZZZZZZZZZZZZsgggghgggggghggghhgggghggghdZZZZZZZZZZZZZZZZZZZZ",
"ZZZZZZZZZZZZZZZZZZZZZ>ggggggggghgggggggggggggggggqZZZZZZZZZZZZZZZZZZZZZZZZZZZZZZsggggggggggggggggggggggggggfZZZZZZZZZZZZZZZZZZZZ",
"ZZZZZZZZZZZZZZZZZZZZZ>gggggggggggggggggggggggggggqZZZZZZZZZZZZZZZZZZZZZZZZZZZZZZsggggggggggggggggggggggggggsZZZZZZZZZZZZZZZZZZZZ",
"ZZZZZZZZZZZZZZZZZZZZZ>fhfghgffgffggfgfgffgfgfggfgqZZZZZZZZZZZZZZZZZZZZZZZZZZZZZZsgggfggfggsggfggggggfgfggfgsZZZZZZZZZZZZZZZZZZZZ",
"ZZZZZZZZZZZZZZZZZZZZZ>fhgfffgfgfffgffgffgfffffffdqZZZZZZZZZZZZZZZZZZZZZZZZZZZZZZsgdgfgfgggggffsgfffffgffffgsZZZZZZZZZZZZZZZZZZZZ",
"ZZZZZZZZZZZZZZZZZZZZZ-ffffffffffffffffffgfffffffg5ZZZZZZZZZZZZZZZZZZZZZZZZZZZZZZssggffgfffffffffffffffffffgsZZZZZZZZZZZZZZZZZZZZ",
"ZZZZZZZZZZZZZZZZZZZZZ>ffffffffffffffffffffffffffd5ZZZZZZZZZZZZZZZZZZZZZZZZZZZZZZsgdsgssffffffffgsgfffffffffsZZZZZZZZZZZZZZZZZZZZ",
"ZZZZZZZZZZZZZZZZZZZZZ-dddgdgdddddgddgddddgddgdddg4ZZZZZZZZZZZZZZZZZZZZZZZZZZZZZZpddgddgagdgddgdgagdgdgdddfdsZZZZZZZZZZZZZZZZZZZZ",
"ZZZZZZZZZZZZZZZZZZZZZ:dddddddgddddddddddddddddddf4ZZZZZZZZZZZZZZZZZZZZZZZZZZZZZZsdddgdddddgddddddddddddddddsZZZZZZZZZZZZZZZZZZZZ",
"ZZZZZZZZZZZZZZZZZZZZZ>ddddddddddddddddddddddddddf4ZZZZZZZZZZZZZZZZZZZZZZZZZZZZZZafddaddddddddddddddddddddddsZZZZZZZZZZZZZZZZZZZZ",
"ZZZZZZZZZZZZZZZZZZZZZ-fsdddddddddddddddddddddddda4ZZZZZZZZZZZZZZZZZZZZZZZZZZZZZZydddfddddddddddddddddddddddpZZZZZZZZZZZZZZZZZZZZ",
"ZZZZZZZZZZZZZZZZZZZZZ>sfdddsddssddaddddddddaddddf4ZZZZZZZZZZZZZZZZZZZZZZZZZZZZZZpfafaffaddgddafdddgadddaafssZZZZZZZZZZZZZZZZZZZZ",
"ZZZZZZZZZZZZZZZZZZZZZ>ssdssssdsdddddadadddddddada4ZZZZZZZZZZZZZZZZZZZZZZZZZZZZZZpffaafagaaaagadaaaafddgasfsyZZZZZZZZZZZZZZZZZZZZ",
"ZZZZZZZZZZZZZZZZZZZZZ-sdssdsssssadssadadsspdspssa3ZZZZZZZZZZZZZZZZZZZZZZZZZZZZZZpaaaadasadadafaddadadaaassfyZZZZZZZZZZZZZZZZZZZZ",
"ZZZZZZZZZZZZZZZZZZZZZZ4apsssssssdpssdadpssdadasds4ZZZZZZZZZZZZZZZZZZZZZZZZZZZZZZpssfaaasdadaaaaaadadaadasss<ZZZZZZZZZZZZZZZZZZZZ",
"ZZZZZZZZZZZZZZZZZZZZZZ4fdaadsssspdasadassssspsass3ZZZZZZZZZZZZZZZZZZZZZZZZZZZZZZpaaasaassssaassaaadadadasspZZZZZZZZZZZZZZZZZZZZZ",
"ZZZZZZZZZZZZZZZZZZZZZZ3saaaapsspspdaspspsspssspss4ZZZZZZZZZZZZZZZZZZZZZZZZZZZZZZyaassaaaaaasaaaaaaaaaapssssZZZZZZZZZZZZZZZZZZZZZ",
"ZZZZZZZZZZZZZZZZZZZZZZ4saaaasspspaaasppssppspssssyZZZZZZZZZZZZZZZZZZZZZZZZZZZZZ,aaaaaspaaaaaaaaaapaaaaspsspZZZZZZZZZZZZZZZZZZZZZ",
"ZZZZZZZZZZZZZZZZZZZZZZ,saaaaspsppaaapspsppsssyppsyZZZZZZZZZZZZZZZZZZZZZZZZZZZZZ<paapasspaapaaaapaaaapspsps4ZZZZZZZZZZZZZZZZZZZZZ",
"ZZZZZZZZZZZZZZZZZZZZZZ$yppsayssppppspppdaappypppssZZZZZZZZZZZZZZZZZZZZZZZZZZZZZ2paaappsppaaaaaaapappaasyss3ZZZZZZZZZZZZZZZZZZZZZ",
"ZZZZZZZZZZZZZZZZZZZZZZ$ysppyspppsspppsppaaspsspspyZZZZZZZZZZZZZZZZZZZZZZZZZZZZZ<ppppasyspppppappapsyspspsy3ZZZZZZZZZZZZZZZZZZZZZ",
"ZZZZZZZZZZZZZZZZZZZZZZ+3ppppyaspypppppppsyysyaspypZZZZZZZZZZZZZZZZZZZZZZZZZZZZZ<spppppsyppspsypppppsypppyyZZZZZZZZZZZZZZZZZZZZZZ",
"ZZZZZZZZZZZZZZZZZZZZZZZ<ppppppppppppppepypppppypsyZZZZZZZZZZZZZZZZZZZZZZZZZZZZZ<ppypppppppaypepppppppppppeZZZZZZZZZZZZZZZZZZZZZZ",
"ZZZZZZZZZZZZZZZZZZZZZZZ>yysypyppyyppppppypppppppsyZZZZZZZZZZZZZZZZZZZZZZZZZZZZZysyspyyppypppyappypppppysy3ZZZZZZZZZZZZZZZZZZZZZZ",
"ZZZZZZZZZZZZZZZZZZZZZZZ+4syppppyppypppypypypypyeyp4ZZZZZZZZZZZZZZZZZZZZZZZZZZZZypyypppypppyppppypppypypyy<ZZZZZZZZZZZZZZZZZZZZZZ",
"ZZZZZZZZZZZZZZZZZZZZZZZ+4ypypyyppypppyypppyyyppppy4ZZZZZZZZZZZZZZZZZZZZZZZZZZZZyypyyypppypppypypypypypypyZZZZZZZZZZZZZZZZZZZZZZZ",
"ZZZZZZZZZZZZZZZZZZZZZZZZ,yppyeppyepyyypppyppeypeyp4ZZZZZZZZZZZZZZZZZZZZZZZZZZZ>4pyppyypyypyypypeepepypppyZZZZZZZZZZZZZZZZZZZZZZZ",
"ZZZZZZZZZZZZZZZZZZZZZZZZ*ypeyyyypyypeyyyepeppypeyyyZZZZZZZZZZZZZZZZZZZZZZZZZZZ3yyeepepeeeyypeppyeypeyyyy<ZZZZZZZZZZZZZZZZZZZZZZZ",
"ZZZZZZZZZZZZZZZZZZZZZZZZo2yypyeepyeepyypyyeeeeyypyyZZZZZZZZZZZZZZZZZZZZZZZZZZZ1eyepyypyeeeyyyyyyyyyesyyy-ZZZZZZZZZZZZZZZZZZZZZZZ",
"ZZZZZZZZZZZZZZZZZZZZZZZZZ=eeeeeeeyypeeeyyyeeeeyyyyeZZZZZZZZZZZZZZZZZZZZZZZZZZZ3eyyyyeeeyeeeeyyyyeeyeyy41ZZZZZZZZZZZZZZZZZZZZZZZZ",
"ZZZZZZZZZZZZZZZZZZZZZZZZZ$4yeeee4yyyeee4eeeeeeey4yy4ZZZZZZZZZZZZZZZZZZZZZZZZZZeyeeyy4eeeeeeeeeyyeeeey4y>ZZZZZZZZZZZZZZZZZZZZZZZZ",
"ZZZZZZZZZZZZZZZZZZZZZZZZZ.,4y4qqqyyqqyqqqeeqyyqyey44ZZZZZZZZZZZZZZZZZZZZZZZZZZ4ee4eeyyyyye4eeyyyeeqeqqqZZZZZZZZZZZZZZZZZZZZZZZZZ",
"ZZZZZZZZZZZZZZZZZZZZZZZZZZ@3yyqqyqqqqqyqqqqqqqqqy4yeZZZZZZZZZZZZZZZZZZZZZZZZZ,yyee4e4ee4eeeyy44eqqqqqe,ZZZZZZZZZZZZZZZZZZZZZZZZZ",
"ZZZZZZZZZZZZZZZZZZZZZZZZZZ >y4qqqqqqqyqqqqqqqqqqyeyyZZZZZZZZZZZZZZZZZZZZZZZZZ4y4eeee4y4ey44eyee4qqqqq4ZZZZZZZZZZZZZZZZZZZZZZZZZZ",
"ZZZZZZZZZZZZZZZZZZZZZZZZZZZ$4yqyqqqqqqqqqqqqqqqq4e444ZZZZZZZZZZZZZZZZZZZZZZZ>4yy44e4e4eeeey44y4eqqqqq,ZZZZZZZZZZZZZZZZZZZZZZZZZZ",
"ZZZZZZZZZZZZZZZZZZZZZZZZZZZ >4qyqqqqqq4qqqqqqqq4qy4y4ZZZZZZZZZZZZZZZZZZZZZZZ<4y4eee4e3e444e4e4e44ey4,ZZZZZZZZZZZZZZZZZZZZZZZZZZZ",
"ZZZZZZZZZZZZZZZZZZZZZZZZZZZZ@3444qq3y44q34qq4qqq4y4q44ZZZZZZZZZZZZZZZZZZZZZZ444444e4y4444y4ee4e44q44&ZZZZZZZZZZZZZZZZZZZZZZZZZZZ",
"ZZZZZZZZZZZZZZZZZZZZZZZZZZZZ.>q44qq44q3qq4q44q44444e44ZZZZZZZZZZZZZZZZZZZZZ<y4wy44ye4y4ee34y4e4yw4y>ZZZZZZZZZZZZZZZZZZZZZZZZZZZZ",
"ZZZZZZZZZZZZZZZZZZZZZZZZZZZZZX,y44q4q4qq3q4q4q4q4e444y3ZZZZZZZZZZZZZZZZZZZZ44444e444444e4e44444444<ZZZZZZZZZZZZZZZZZZZZZZZZZZZZZ",
"ZZZZZZZZZZZZZZZZZZZZZZZZZZZZZ %334444w44444444444w444q4ZZZZZZZZZZZZZZZZZZZ<44444444444444y44444444%ZZZZZZZZZZZZZZZZZZZZZZZZZZZZZ",
"ZZZZZZZZZZZZZZZZZZZZZZZZZZZZZZ $344444444qq4444444444444ZZZZZZZZZZZZZZZZZ,4444444e444444444444444>ZZZZZZZZZZZZZZZZZZZZZZZZZZZZZZ",
"ZZZZZZZZZZZZZZZZZZZZZZZZZZZZZZ  *444444444444444444444443ZZZZZZZZZZZZZZZZ44444444444444444444444>ZZZZZZZZZZZZZZZZZZZZZZZZZZZZZZZ",
"ZZZZZZZZZZZZZZZZZZZZZZZZZZZZZZZ X>344444444444434444444443ZZZZZZZZZZZZZ<34444444444444444444443>ZZZZZZZZZZZZZZZZZZZZZZZZZZZZZZZZ",
"ZZZZZZZZZZZZZZZZZZZZZZZZZZZZZZZZ X>433354344333444343443333ZZZZZZZZZZZ333343443444433344444343-ZZZZZZZZZZZZZZZZZZZZZZZZZZZZZZZZZ",
"ZZZZZZZZZZZZZZZZZZZZZZZZZZZZZZZZZ  *333334334443333334333334333ZZZZ31333344333333443333343434&ZZZZZZZZZZZZZZZZZZZZZZZZZZZZZZZZZZ",
"ZZZZZZZZZZZZZZZZZZZZZZZZZZZZZZZZZZ X;3333333333433333333333343333333333333343333433233333333> ZZZZZZZZZZZZZZZZZZZZZZZZZZZZZZZZZZ",
"ZZZZZZZZZZZZZZZZZZZZZZZZZZZZZZZZZZ  X&,333133313333331333333333333333331333333131414333333<-XZZZZZZZZZZZZZZZZZZZZZZZZZZZZZZZZZZZ",
"ZZZZZZZZZZZZZZZZZZZZZZZZZZZZZZZZZZZ   $12232333212232332332323221312323332332223143414133,@ZZZZZZZZZZZZZZZZZZZZZZZZZZZZZZZZZZZZZ",
"ZZZZZZZZZZZZZZZZZZZZZZZZZZZZZZZZZZZZZ  O&22222222222322222223232113122132222222211111313&OZZZZZZZZZZZZZZZZZZZZZZZZZZZZZZZZZZZZZZ",
"ZZZZZZZZZZZZZZZZZZZZZZZZZZZZZZZZZZZZZZ   $;1222222222222222222223133222222<32222413411;# ZZZZZZZZZZZZZZZZZZZZZZZZZZZZZZZZZZZZZZZ",
"ZZZZZZZZZZZZZZZZZZZZZZZZZZZZZZZZZZZZZZZ   X#:1111222212222222<2213112122223<22221111,-O ZZZZZZZZZZZZZZZZZZZZZZZZZZZZZZZZZZZZZZZZ",
"ZZZZZZZZZZZZZZZZZZZZZZZZZZZZZZZZZZZZZZZZZ   X$>121<3<112<1<2112221222121<3<3113111,*O ZZZZZZZZZZZZZZZZZZZZZZZZZZZZZZZZZZZZZZZZZZ",
"ZZZZZZZZZZZZZZZZZZZZZZZZZZZZZZZZZZZZZZZZZZ    .$:,<31111<32<1112<2<<1211331<111,-$O  ZZZZZZZZZZZZZZZZZZZZZZZZZZZZZZZZZZZZZZZZZZZ",
"ZZZZZZZZZZZZZZZZZZZZZZZZZZZZZZZZZZZZZZZZZZZZ     X$-><3<2<22112<211212113<<<,&@X   ZZZZZZZZZZZZZZZZZZZZZZZZZZZZZZZZZZZZZZZZZZZZZ",
"ZZZZZZZZZZZZZZZZZZZZZZZZZZZZZZZZZZZZZZZZZZZZZZ     ..+$$;,,,11<211112,,,,&$$X.   ZZZZZZZZZZZZZZZZZZZZZZZZZZZZZZZZZZZZZZZZZZZZZZZ",
"ZZZZZZZZZZZZZZZZZZZZZZZZZZZZZZZZZZZZZZZZZZZZZZZZZ       XXXX$***&*&**+XXX     ZZZZZZZZZZZZZZZZZZZZZZZZZZZZZZZZZZZZZZZZZZZZZZZZZZ",
"ZZZZZZZZZZZZZZZZZZZZZZZZZZZZZZZZZZZZZZZZZZZZZZZZZZZZ                       ZZZZZZZZZZZZZZZZZZZZZZZZZZZZZZZZZZZZZZZZZZZZZZZZZZZZZ",
"ZZZZZZZZZZZZZZZZZZZZZZZZZZZZZZZZZZZZZZZZZZZZZZZZZZZZZZZZZ             ZZZZZZZZZZZZZZZZZZZZZZZZZZZZZZZZZZZZZZZZZZZZZZZZZZZZZZZZZZ",
"ZZZZZZZZZZZZZZZZZZZZZZZZZZZZZZZZZZZZZZZZZZZZZZZZZZZZZZZZZZZZZZZZZZZZZZZZZZZZZZZZZZZZZZZZZZZZZZZZZZZZZZZZZZZZZZZZZZZZZZZZZZZZZZZZ",
"ZZZZZZZZZZZZZZZZZZZZZZZZZZZZZZZZZZZZZZZZZZZZZZZZZZZZZZZZZZZZZZZZZZZZZZZZZZZZZZZZZZZZZZZZZZZZZZZZZZZZZZZZZZZZZZZZZZZZZZZZZZZZZZZZ",
"ZZZZZZZZZZZZZZZZZZZZZZZZZZZZZZZZZZZZZZZZZZZZZZZZZZZZZZZZZZZZZZZZZZZZZZZZZZZZZZZZZZZZZZZZZZZZZZZZZZZZZZZZZZZZZZZZZZZZZZZZZZZZZZZZ",
"ZZZZZZZZZZZZZZZZZZZZZZZZZZZZZZZZZZZZZZZZZZZZZZZZZZZZZZZZZZZZZZZZZZZZZZZZZZZZZZZZZZZZZZZZZZZZZZZZZZZZZZZZZZZZZZZZZZZZZZZZZZZZZZZZ",
"ZZZZZZZZZZZZZZZZZZZZZZZZZZZZZZZZZZZZZZZZZZZZZZZZZZZZZZZZZZZZZZZZZZZZZZZZZZZZZZZZZZZZZZZZZZZZZZZZZZZZZZZZZZZZZZZZZZZZZZZZZZZZZZZZ",
"ZZZZZZZZZZZZZZZZZZZZZZZZZZZZZZZZZZZZZZZZZZZZZZZZZZZZZZZZZZZZZZZZZZZZZZZZZZZZZZZZZZZZZZZZZZZZZZZZZZZZZZZZZZZZZZZZZZZZZZZZZZZZZZZZ",
"ZZZZZZZZZZZZZZZZZZZZZZZZZZZZZZZZZZZZZZZZZZZZZZZZZZZZZZZZZZZZZZZZZZZZZZZZZZZZZZZZZZZZZZZZZZZZZZZZZZZZZZZZZZZZZZZZZZZZZZZZZZZZZZZZ",
"ZZZZZZZZZZZZZZZZZZZZZZZZZZZZZZZZZZZZZZZZZZZZZZZZZZZZZZZZZZZZZZZZZZZZZZZZZZZZZZZZZZZZZZZZZZZZZZZZZZZZZZZZZZZZZZZZZZZZZZZZZZZZZZZZ",
"ZZZZZZZZZZZZZZZZZZZZZZZZZZZZZZZZZZZZZZZZZZZZZZZZZZZZZZZZZZZZZZZZZZZZZZZZZZZZZZZZZZZZZZZZZZZZZZZZZZZZZZZZZZZZZZZZZZZZZZZZZZZZZZZZ",
"ZZZZZZZZZZZZZZZZZZZZZZZZZZZZZZZZZZZZZZZZZZZZZZZZZZZZZZZZZZZZZZZZZZZZZZZZZZZZZZZZZZZZZZZZZZZZZZZZZZZZZZZZZZZZZZZZZZZZZZZZZZZZZZZZ",
"ZZZZZZZZZZZZZZZZZZZZZZZZZZZZZZZZZZZZZZZZZZZZZZZZZZZZZZZZZZZZZZZZZZZZZZZZZZZZZZZZZZZZZZZZZZZZZZZZZZZZZZZZZZZZZZZZZZZZZZZZZZZZZZZZ",
"ZZZZZZZZZZZZZZZZZZZZZZZZZZZZZZZZZZZZZZZZZZZZZZZZZZZZZZZZZZZZZZZZZZZZZZZZZZZZZZZZZZZZZZZZZZZZZZZZZZZZZZZZZZZZZZZZZZZZZZZZZZZZZZZZ",
"ZZZZZZZZZZZZZZZZZZZZZZZZZZZZZZZZZZZZZZZZZZZZZZZZZZZZZZZZZZZZZZZZZZZZZZZZZZZZZZZZZZZZZZZZZZZZZZZZZZZZZZZZZZZZZZZZZZZZZZZZZZZZZZZZ"
};
