/* XPM */
static char *bluefish[] = {
/* columns rows colors chars-per-pixel */
"22 22 27 1 ",
"  c #BDF4BDF7BDDA",
". c #C22EC238C235",
"X c #CF18CF0FCF52",
"o c #D46FD472D48E",
"O c #D59AD589D58A",
"+ c #D80CD807D83B",
"@ c #DD6ADD59DDBA",
"# c #E184E17CE17B",
"$ c #E598E594E5C3",
"% c #E77CE776E77F",
"& c #EAB2EAADEAB3",
"* c #ED34ED32ED39",
"= c #EE66EE69EEA8",
"- c #F032F031F038",
"; c #F0BEF0BAF0D7",
": c #F2FDF2FFF2FB",
"> c #F54AF550F553",
", c #F591F591F599",
"< c #F717F718F71E",
"1 c #F841F841F841",
"2 c #F90DF90FF90C",
"3 c #F9DCF9DEF9DB",
"4 c #FA9BFA9BFA9C",
"5 c #FC07FC07FC08",
"6 c #FCECFCECFCEB",
"7 c #FDE3FDE4FDE4",
"8 c None",
/* pixels */
"8888888888888888888888",
"8888888888888888888888",
"8888888888888888888888",
"8888888888888888888888",
"8888888888888666688888",
"8888888886666666668888",
"8888888666666666668888",
"8888885666666666658888",
"8888855566555551588888",
"88888<5555<55515585558",
"8888555<55555<5<555<<8",
"88::<<5<<<<<<5<<<<<<88",
"888.-:<<<<<<<<<<<-:<<8",
"88888#::<><<>>>>:Oo-:8",
"888888O%-::::::::88888",
"88888888O-&&-----88888",
"888888888@%+%-*-&88888",
"8888888888XOoO%&%88888",
"88888888888888. 888888",
"8888888888888888888888",
"8888888888888888888888",
"8888888888888888888888"
};
