/* XPM */
static char *browser[] = {
/* columns rows colors chars-per-pixel */
"22 22 33 1 ",
"  c #A0EAA0FAA0EF",
". c #AE7FAE99AE79",
"X c #B433B463B43B",
"o c #B71DB724B718",
"O c #BEC7BEC3BEBC",
"+ c #C6ADC691C699",
"@ c #C9EAC9E2C9D9",
"# c #D25DD269D259",
"$ c #D61AD614D608",
"% c #D99CD98BD990",
"& c #DB42DB32DB32",
"* c #E034E033E030",
"= c #E5A8E5ABE5A1",
"- c #E6F9E6F7E6F0",
"; c #EAF6EAFBEAF5",
": c #EB90EB9AEB89",
"> c #ED4CED41ED3D",
", c #EEC8EED1EECE",
"< c #EFE0EFEDEFE9",
"1 c #F12FF13CF13D",
"2 c #F303F2EBF2EC",
"3 c #F3F8F3ECF3EC",
"4 c #F4BAF4A9F4A9",
"5 c #F609F604F608",
"6 c #F70DF709F709",
"7 c #F81BF81AF817",
"8 c #F917F909F907",
"9 c #FA4EFA49FA47",
"0 c #FB27FB27FB26",
"q c #FC04FC03FC03",
"w c #FD24FD22FD23",
"e c #FDF2FDF1FDF2",
"r c None",
/* pixels */
"rrrrrrrrrrrrrrrrrrrrrr",
"rrrrrrrrrreeeerrrrrrrr",
"rrrrrrrqqrrreeeqrrrrrr",
"rrrrrrr3qrrqqe6rrrrrrr",
"rrrrrqq6qeeqqqrrrrrrrr",
"rrrrrrr<qqqqqrrrrrrrrr",
"rrrrrrrqqqqqqrrrrrrrrr",
"rrrrrrqqqqqqqr3qrrrrrr",
"rrrr6qqq6qqqrrrrrrrrqr",
"rrr36q6q6qq6rrrrrrrqqr",
"rq6-3366qq6qrrrrrrr66r",
"rr63;O+36666rrrrrr666r",
"rr666rr%;366666rrr666r",
"rr666rrro;66666rrr666r",
"rr<33rrrr333333rr333rr",
"rr;33rrrr333333rr<33rr",
"rrr;<<rrr<<3<<<rr<3rrr",
"rrrr%3rr<<<<<<<<<<<rrr",
"rrrro#-<;<;<;<;<--rrrr",
"rrrrrr@$-;;;;-*%rrrrrr",
"rrrrrrrr .OOOXrrrrrrrr",
"rrrrrrrrrrrrrrrrrrrrrr"
};
