/* XPM */
static char *cmake[] = {
/* columns rows colors chars-per-pixel */
"22 22 22 1 ",
"  c #924292469246",
". c #E37FE380E381",
"X c #E559E55BE559",
"o c #EBE3EBE3EBE0",
"O c #ECC2ECC1ECBF",
"+ c #EE73EE72EE6D",
"@ c #F024F026F020",
"# c #F0DCF0D6F0CB",
"$ c #F249F23EF23E",
"% c #F42BF428F424",
"& c #F516F515F50C",
"* c #F588F586F56E",
"= c #F5C4F5C3F5A3",
"- c #F702F700F6ED",
"; c #F808F805F7FF",
": c #F914F912F90A",
"> c #F9CCF9CCF9CF",
", c #FB1FFB1FFB21",
"< c #FC31FC31FC31",
"1 c #FCBBFCBBFCBB",
"2 c #FDB6FDB6FDB6",
"3 c None",
/* pixels */
"3333333333333333333333",
"3333333333333333333333",
"3333333333223333333333",
"3333333333223333333333",
"3333333332222333333333",
"3333333332,22333333333",
"33333333,22,2,33333333",
"33333333,,,,,,33333333",
"3333333,,,,,,,,3333333",
"3333333;,,,;;,,3333333",
"333333;;;;,,;,;,333333",
"333333;;;;;+%;;;333333",
"33333;;;;%%3;;;;;33333",
"33333%%;%%33%%%%;33333",
"3333%%%%3333%%%%%%3333",
"3333%%+%%333+%#%%%3333",
"333%+%+++%++%+%++%%333",
"333++++++++++++++++333",
"33ooooo+o+o+ooo+ooOo33",
"33.................X33",
"333 333333333333333333",
"3333333333333333333333"
};
