/* XPM */
static char *DC__[] = {
/* columns rows colors chars-per-pixel */
"22 22 28 1 ",
"  c #C650C67DC650",
". c #CBB3CBD6CBAC",
"X c #D927D935D91A",
"o c #DD9DDDA7DD99",
"O c #DFDCDFD7DFCA",
"+ c #E1DCE1EDE1E5",
"@ c #E62DE62DE624",
"# c #E6E4E6E9E6E5",
"$ c #E90EE911E90C",
"% c #EB06EB02EB04",
"& c #EC23EC1DEC20",
"* c #ED46ED44ED42",
"= c #EF55EF50EF50",
"- c #F06EF068F06F",
"; c #F232F22FF235",
": c #F331F32EF334",
"> c #F3E8F3E8F3E9",
", c #F50FF50EF50F",
"< c #F626F626F628",
"1 c #F69CF69EF69F",
"2 c #F7DEF7DCF7DC",
"3 c #F8E1F8E0F8E0",
"4 c #F9E3F9E4F9E4",
"5 c #FB17FB17FB15",
"6 c #FBEEFBEEFBEF",
"7 c #FD12FD12FD11",
"8 c #FDECFDECFDED",
"9 c None",
/* pixels */
"9999999999999999999999",
"9999999977777799999999",
"9999997777777777999999",
"9999977576777777779999",
"9999775;#-<77777577999",
"99957599999<7755557999",
"999759999999<;%%%<5799",
"995559999999%%%##%<599",
"995559999999##%#$$-<99",
"99<55999999%%%#%%#-<59",
"99555<99999###%#%$-559",
"99<5<5599999 #%%##-<<9",
"99<<<<9999999X###-;<99",
"99<<<<9999999%-%-<<<99",
"99;<,,9999999;;><;<<99",
"999-<<;999999;<;;;;999",
"999+-;;;9999;;;;;--999",
"9999o%;;-------;--9999",
"99999.o--------##99999",
"9999999.X++%+oX9999999",
"9999999999999999999999",
"9999999999999999999999"
};
