/* XPM */
static char *dia_menu[] = {
/* columns rows colors chars-per-pixel */
"22 22 50 1 ",
"  c #BC09BC12BC05",
". c #BE6BBE69BE75",
"X c #C341C33CC341",
"o c #CDB1CDB2CDAB",
"O c #DDC3DE09DD66",
"+ c #DDF6E8C0CFF6",
"@ c #E136EA16D5D0",
"# c #EF67FA35D748",
"$ c #E921F1AEDD17",
"% c #E108E0F7E0FB",
"& c #E2ECE32DE29C",
"* c #E6C8E6C6E6B3",
"= c #E9E1E9DCE9C6",
"- c #EC77EC78EC64",
"; c #EE13EE12EE0B",
": c #EEDBEEDCEED7",
"> c #F02FF3B9EC06",
", c #F040F4E1EA5C",
"< c #F0DCF26AEF43",
"1 c #F34DF774EDCB",
"2 c #F34DF63DEFDF",
"3 c #F565FB0CEB60",
"4 c #F19CF19AF19F",
"5 c #F2E1F2E0F2E1",
"6 c #F37AF37DF37C",
"7 c #F4C8F4F3F496",
"8 c #F645F648F659",
"9 c #F6D5F6D4F6DB",
"0 c #F83DF83DF83E",
"q c #F7E1FB0EF353",
"w c #F750F91BF54D",
"e c #F7B5FA07F4C8",
"r c #F81FFA17F5CE",
"t c #F89AFB49F4E6",
"y c #F93BFAADF797",
"u c #FA61FC77F779",
"i c #F932F94AF922",
"p c #FA1FFA1FFA1F",
"a c #FA53FB52F934",
"s c #FABBFBEBF957",
"d c #FA99FAC0FA67",
"f c #FAF3FAF0FAF4",
"g c #FBB7FBB5FBBD",
"h c #FB74FC93FA18",
"j c #FBCDFCC4FAAC",
"k c #FCCBFDA4FBBA",
"l c #FCC4FCCDFCC5",
"z c #FD3CFDA9FCBC",
"x c #FDD7FDD8FDD4",
"c c None",
/* pixels */
"cccccccccccccccccccccc",
"cccc#ccccccccccccccccc",
"ccc3kzuccccccccccccccc",
"ccjqzzjyzzzzzccccccccc",
"cggqkzyqggggzzzzzccccc",
"cc>$ry2@<c9;0;7gggzccc",
"ccc+2w>cccc4ccc*4gzjcc",
"ccccggccccggccccc9ggcc",
"ccccrgccccgg9ccccc9ggc",
"cccc0gcccggggccccc4ggc",
"cccc9iccc99;9gccccc99c",
"cccc90cc9gcc99ccccc99c",
"cccc99cc99cc499ccc999c",
"cccc4949449444wccc994c",
"cccc444-******=4c494cc",
"cccc444cccccccc4w4;;cc",
"ccc;47;4ccccc444;;cccc",
"c;;;;;;;;;;;;-*&Occccc",
"cc.o*-&X.  ..ccccccccc",
"cccc&*Occccccccccccccc",
"cccccccccccccccccccccc",
"cccccccccccccccccccccc"
};
