/* XPM */
static char *evince[] = {
/* columns rows colors chars-per-pixel */
"22 22 26 1 ",
"  c #B1BFB1CAB1B4",
". c #CA6DCA6DCA65",
"X c #CC69CC5CCC51",
"o c #DB0CDB04DB01",
"O c #DEF7DEF5DEF1",
"+ c #E1ABE1A6E1AB",
"@ c #E44AE445E43B",
"# c #E83AE839E836",
"$ c #E9C7E9C6E9C7",
"% c #EB19EB17EB1A",
"& c #EE9DEE99EE9C",
"* c #EFC4EFBDEFC5",
"= c #F074F06EF077",
"- c #F216F212F216",
"; c #F3C3F3BEF3C2",
": c #F4D8F4D6F4DC",
"> c #F5ECF5F0F5F8",
", c #F70EF70DF712",
"< c #F816F81CF822",
"1 c #F8C0F8C4F8C5",
"2 c #F9C1F9BEF9BC",
"3 c #FADAFADCFADB",
"4 c #FC02FC04FC03",
"5 c #FCE9FCE9FCE9",
"6 c #FE25FE25FE24",
"7 c None",
/* pixels */
"7777777777777777777777",
"7777775557777777777777",
"7777775257777777777777",
"7777775255777777777777",
"7777772555777777777777",
"7777777255777777777777",
"7777777<25777777777777",
"7777777<52577777777777",
"777777722;227777777777",
"77777772<7;<<777777777",
"7777777<<77;<<77777777",
"777777;<7777&<<7777777",
"777777<;77777;<;;;7777",
"777777;;777;&&;&;;&;77",
"777777&&=&%@%@oO%&@%=7",
"77777;&#%@X 7777.OO#&7",
"777&&&%777777777777777",
"77%@@%7777777777777777",
"77@O@#7777777777777777",
"77oOO77777777777777777",
"7777777777777777777777",
"7777777777777777777777"
};
