/* XPM */
static char *file_roller[] = {
/* columns rows colors chars-per-pixel */
"22 22 7 1 ",
"  c #FB79FB79FB73",
". c #FC14FC14FC14",
"X c #FCCDFCCDFCCB",
"o c #FE1BFE1BFE1B",
"O c #FEF6FEF6FEF5",
"+ c #FFABFFABFFAB",
"@ c None",
/* pixels */
"@@@@@@@@@@@@@@@@@@@@@@",
"@@@@@@@@@OOOOOO@@@@@@@",
"@@@@@@@OOOOOOOOOOO@@@@",
"@@@@OOOOOOOOOOOOOOOO@@",
"@OOOOOOOOOOOOOOOOOOOO@",
"OOOO   OOOOOOOOOOOOOOO",
"OOOOOOOOOOOOOOOOOOOOOO",
"OOOOOOOOOOOOOOOOOO OO.",
"OOOOOOOOOOOOOO OO OO.O",
".O.O.OOOOOOOO       O ",
"OOOOOOO OO      .O O O",
"O .OO.OOOOO .  O.    .",
" OOOO O OOO ....      ",
"O.O.OOOO..OO.. OO .OOO",
"OOO. O.OOO      O     ",
"@ OOOOOOO.OO.  O  OO @",
"@@@@OOOOOO O   O   @@@",
"@@@@@OOOOOO  OO  @@@@@",
"@@@@@@@OOOO  O @@@@@@@",
"@@@@@@@@@OOO @@@@@@@@@",
"@@@@@@@@@@@@@@@@@@@@@@",
"@@@@@@@@@@@@@@@@@@@@@@"
};
