/* XPM */
static char *gbrainy[] = {
/* columns rows colors chars-per-pixel */
"22 22 31 1 ",
"  c #C5B4C5D3C5CE",
". c #CE46CE63CE5F",
"X c #D2E9D302D2FC",
"o c #D405D42BD423",
"O c #D45AD480D479",
"+ c #DE8DDEA9DEA4",
"@ c #E222E21DE222",
"# c #E658E658E663",
"$ c #E85FE85FE85F",
"% c #E919E91DE920",
"& c #EA3EEA40EA44",
"* c #EC63EC66EC6F",
"= c #EDA8EDA8EDAB",
"- c #F01EF01AF01E",
"; c #F148F146F14A",
": c #F1E5F1E4F1E6",
"> c #F3FEF3F7F3F9",
", c #F514F513F512",
"< c #F609F5FBF5FF",
"1 c #F6ABF6ADF6AC",
"2 c #F80DF80BF80B",
"3 c #F877F878F877",
"4 c #F96FF96EF96E",
"5 c #FA04FA05FA04",
"6 c #FADCFADDFADC",
"7 c #FBB7FBB4FBB5",
"8 c #FCCCFCCCFCCC",
"9 c #FDF4FDF1FDF5",
"0 c #FE81FE79FE81",
"q c #FE94FE8CFE93",
"w c None",
/* pixels */
"wwwwwwwwwwwwwwwwwwwwww",
"ww000000000000000000ww",
"w00000000070000000000w",
"w7000077<77<777000700w",
"w070773$ +::w@:<00700w",
"w7077wwwwww7wwww:7707w",
"w777wwwwww7wwwwww&707w",
"w77wwwwww7wwww777w<77w",
"w77wwwwwwwww7<<3w7-77w",
"w<7wwwww<<<<www<www<7w",
"w<7wwwww:wwwwwwwwww<<w",
"w<33ww<<wwwwwwww<ww<7w",
"w<7<<<<wwwwwwww<<<<<<w",
"w<<<<<<wwwwwwww-ww:<<w",
"w:<<<<<<wwwww:wwww:<<w",
"w:::<:::<::&$wwwww:::w",
"w:--:-::::-&w:www:--:w",
"w---:-------ww&------w",
"w&--*--&-*-&-&&------w",
"w@&-&&-&**&-&&&&&&&&&w",
"ww.OOOOOOOXOOOOXOOOOww",
"wwwwwwwwwwwwwwwwwwwwww"
};
