/* XPM */
static char *gnome_activity_journal[] = {
/* columns rows colors chars-per-pixel */
"22 22 18 1 ",
"  c #E330E34CE334",
". c #E5CCE5CFE5CA",
"X c #EAEFEAF5EAF8",
"o c #ED01ED04ECF4",
"O c #F003F008F006",
"+ c #F0F0F0F2F0F3",
"@ c #F2F1F2EFF2EF",
"# c #F44FF450F453",
"$ c #F478F475F474",
"% c #F614F612F610",
"& c #F764F760F767",
"* c #F8DAF8DBF8D8",
"= c #FA40FA41FA3D",
"- c #FB1EFB20FB21",
"; c #FBE8FBE8FBEB",
": c #FCB3FCB2FCB3",
"> c #FDB6FDB5FDB6",
", c None",
/* pixels */
",,,,,,,,,,,,,,,,,,,,,,",
",,,,,,,,,,,,,,,,,,,,,,",
",,,,,,,,,,,,,,,,,,,,,,",
",,,,,,,,,,,,,,,,,,,,,,",
",,,,,,,,,,,,,,,,,,,,,,",
",,,,,,,,::-::-:,,,,,,,",
",,,,,,,:::,,,,::,,,,,,",
",,,,,,::,,,,%,,,:,,,,,",
",,,,,---,,,:-,,,--,,,,",
",,,,,---,,,--,,,--,,,,",
",,,,,---,,,,#,,,-,,,,,",
",,,,,-%-,,,,#,,--,,,,,",
",,,,,$%%%,,,,,,%%,,,,,",
",,,,,,#%%#%,,$%%,,,,,,",
",,,,,,#########,,,,,,,",
",,,,,,OO#OO#OO,,,,,,,,",
",,,,,OXOOOXOX,,,,,,,,,",
",,,,,  ....,,,,,,,,,,,",
",,,,,,,,,,,,,,,,,,,,,,",
",,,,,,,,,,,,,,,,,,,,,,",
",,,,,,,,,,,,,,,,,,,,,,",
",,,,,,,,,,,,,,,,,,,,,,"
};
