/* XPM */
static char *google_earth[] = {
/* columns rows colors chars-per-pixel */
"22 22 29 1 ",
"  c #BFD3BFD1BFCD",
". c #CCD6CCCCCCCE",
"X c #D337D33AD33C",
"o c #D4A5D4B2D4AC",
"O c #D7AED7A9D7AA",
"+ c #DE28DE29DE2C",
"@ c #E1ABE1AEE18F",
"# c #E325E323E32D",
"$ c #E63BE63CE63A",
"% c #E794E791E799",
"& c #EA6FEA6EEA73",
"* c #EBB1EBB2EBB1",
"= c #ED79ED74ED7B",
"- c #EE98EE96EE9B",
"; c #F05FF05DF05C",
": c #F1AEF1ADF1A9",
"> c #F2FAF2F8F2FA",
", c #F3D5F3D5F3D4",
"< c #F51BF517F519",
"1 c #F61CF61BF61A",
"2 c #F6ADF6AEF6AC",
"3 c #F7F9F7F8F7FA",
"4 c #F88FF891F88E",
"5 c #F9FAF9FBF9F7",
"6 c #FB1CFB1BFB1A",
"7 c #FC0DFC0CFC10",
"8 c #FCF5FCF5FCF4",
"9 c #FDD8FDD8FDD7",
"0 c None",
/* pixels */
"0000000000000000000000",
"0000000000000000000000",
"0000000099900000000000",
"0000007779999000000000",
"0000000X&>799990000000",
"0000000000>79979000000",
"0000770000002977700000",
"0007777700000277700000",
"00277777770000>7770000",
"007772777770000-277700",
"0047272727277000$27700",
"00727272277227000#-200",
"0027272727222722000000",
"00>>>22222222222220000",
"00$Xo$&>22222222222000",
"000000 $$->>2>2>>>>000",
"0000000000$o+#####0000",
"0000000000000000000000",
"0000000-->->>--0000000",
"0000000.o#$$#++0000000",
"0000000000000000000000",
"0000000000000000000000"
};
