/* XPM */
static char *kxsldbg[] = {
/* columns rows colors chars-per-pixel */
"22 22 21 1 ",
"  c #AE72AE79AE8E",
". c #C467C446C471",
"X c #DC2EDC72DC73",
"o c #E35EE391E392",
"O c #E66DE66AE672",
"+ c #E980E982E98D",
"@ c #EBE3EBDFEBE4",
"# c #EE0FEE00EE12",
"$ c #F1F2F1F2F1F1",
"% c #F342F340F33F",
"& c #F392F392F390",
"* c #F4FDF4F8F4FB",
"= c #F707F705F705",
"- c #F793F77EF789",
"; c #F906F8FAF902",
": c #FA66FA6BFA66",
"> c #FACDFACFFACD",
", c #FBF2FBF2FBF3",
"< c #FCFFFCFFFCFE",
"1 c #FDDCFDDAFDDD",
"2 c None",
/* pixels */
"2222222222222222222222",
"2222222222222222222222",
"2222222222222222222222",
"2222222<<2222222222222",
"222222<<<<222222222222",
"2222<<<<<<<<<222222222",
"2222:<::#*::<222222222",
"222::::222;:::22222222",
"222:::22222:*:22222222",
"222#**2222:***22222222",
"2222%**22%*%*222222222",
"2222%%%%%%%%%222222222",
"2222#++###+O#222222222",
"2222222X+O. 222<<<2222",
"22222222X2222<<<<<<222",
"2222222222222:::::::22",
"222222222222*::22*::22",
"222222222222***22***22",
"2222222222222%*%*%%222",
"2222222222222++###+222",
"222222222222222ooO2222",
"2222222222222222222222"
};
