/* XPM */
static char *opera[] = {
/* columns rows colors chars-per-pixel */
"22 22 27 1 ",
"  c #9EDC9F399F32",
". c #A340A37DA378",
"X c #C19AC1B0C1C0",
"o c #D443D45CD469",
"O c #DB16DB40DB44",
"+ c #DE9BDEABDEB0",
"@ c #E30CE317E31C",
"# c #E564E576E581",
"$ c #E6EBE6E2E6DF",
"% c #E928E926E91B",
"& c #ECCFEC9CEC9F",
"* c #EE62EE57EE5B",
"= c #EEE6EEDDEEDF",
"- c #F1BBF1BEF1BD",
"; c #F399F39DF39D",
": c #F524F526F523",
"> c #F62AF62AF62D",
", c #F6B8F6B6F6B5",
"< c #F81FF829F825",
"1 c #F8F9F8F5F8FB",
"2 c #FA39FA39FA4A",
"3 c #FB01FB04FB07",
"4 c #FB71FB79FB7B",
"5 c #FC04FC0AFC0B",
"6 c #FCE4FCE5FCEE",
"7 c #FDFBFDFAFDFC",
"8 c None",
/* pixels */
"8888888888888888888888",
"8888888888888888888888",
"8888888888888888888888",
"8888888666666668888888",
"8888886664>-4666888888",
"888886666>88@466688888",
"8888866668888466688888",
"8888444688888866448888",
"8888444488888844448888",
"8888>44488888844448888",
"8888>44>8888884>4>8888",
"8888>>4>888888>4>48888",
"8888>>4>888888>>>>8888",
"8888->>>888888>>>>8888",
"8888=-->-88888->->8888",
"88888=---8888----88888",
"88888$====88=====88888",
"888888+%==%=%==%888888",
"8888888Xo@$$@Oo8888888",
"8888888888 .8888888888",
"8888888888888888888888",
"8888888888888888888888"
};
