/* XPM */
static char *picasa[] = {
/* columns rows colors chars-per-pixel */
"22 22 28 1 ",
"  c #AF06AEA0AE9D",
". c #B163B111B10F",
"X c #BEC7BEE4BEAA",
"o c #CEC6CECACEAD",
"O c #DA17D9D2D9EA",
"+ c #DCE9DCE9DCD6",
"@ c #DF13DEFDDF09",
"# c #E169E132E147",
"$ c #E530E4FAE502",
"% c #E62AE619E61E",
"& c #EB20EB15EB15",
"* c #ECE8ECCDECE8",
"= c #EE86EE79EE81",
"- c #EFAEEFA7EFAE",
"; c #F080F074F083",
": c #F1B6F1B3F1BE",
"> c #F3B3F3ADF3B8",
", c #F54BF538F544",
"< c #F585F57CF584",
"1 c #F709F708F70C",
"2 c #F816F814F812",
"3 c #F8FEF8FCF8FF",
"4 c #F9D1F9D4F9D3",
"5 c #FB25FB25FB24",
"6 c #FC05FC04FC05",
"7 c #FD35FD35FD35",
"8 c #FE36FE37FE36",
"9 c None",
/* pixels */
"9999999999999999999999",
"9999999997777999999999",
"9999999967777779999999",
"99997777%<777779799999",
"999977677@-77779669999",
"99967766779<7779667999",
"996666666699>679666699",
"9966666699999>69666699",
"9966666999999999666699",
"99<62<>999999999<6<699",
"9966<99999999999<6<699",
"99<<999999999999<6<699",
"99>9<<9999999999><<<99",
"9999<>9999999999--&>99",
"99>>>>99999999999oX999",
"99&->>99>>->>>>9-->999",
"999&->9>>--->->->--999",
"9999@&9&----&----&9999",
"9999999&&&-&&&&%#99999",
"9999999O#%%%%#@9999999",
"999999999  ..999999999",
"9999999999999999999999"
};
