/* XPM */
static char *python[] = {
/* columns rows colors chars-per-pixel */
"22 22 31 1 ",
"  c #DFFADFFAE003",
". c #D9A5F79EFB9A",
"X c #E3DCE3DAE3ED",
"o c #E511E50AE50C",
"O c #E619E613E614",
"+ c #E76BE762E75C",
"@ c #E83FE83EE835",
"# c #E994E9A1E99D",
"$ c #EAD7EAE2EADB",
"% c #EBF9EBF9EBDF",
"& c #ED2EED2BED16",
"* c #EE6CEE68EE60",
"= c #EF12EF02EF01",
"- c #E8F5F868FB51",
"; c #E68FFA6BFD28",
": c #F20BF1F9F1F8",
"> c #F345F33DF344",
", c #F515F512F520",
"< c #F61FF627F635",
"1 c #F727F733F737",
"2 c #F7D7F7DBF7DD",
"3 c #F9BEF9C1F9C3",
"4 c #FA5AFA71FA7B",
"5 c #FA54FB2BFB7C",
"6 c #FB37FB2FFB2C",
"7 c #FC13FC14FC15",
"8 c #FA12FBE7FC7C",
"9 c #F9A2FD0EFDE1",
"0 c #FCC7FCC7FCC7",
"q c #FDACFDABFDAA",
"w c None",
/* pixels */
"wwwwwwwwwwwwwwwwwwwwww",
"wwwwwwwwwwwwwwwwwwwwww",
"wwwwwwwwwwwwwwwwwwwwww",
"wwwwwwwwwwwwwwwwwwwwww",
"wwwwwwwwwwwwwwwwwwwwww",
"wwwwwwwwwww70wwwwwwwww",
"www000000077ww77wwwwww",
"ww007777707779ww77wwww",
"ww777www77ww-;.ww77www",
"wwwwwwww72wwwwwwww:2ww",
"ww2wwwww222wwwwwwww2ww",
"w2222www=:,:2wwwwwww:w",
"w:::::www======wwwww:w",
"w==:=======www@$$$$%=w",
"w@$$@$.$$wwwwwwww @@ww",
"w@X@X  wwwwwwwwwwwwwww",
"wwwwwwwwwwwwwwwwwwwwww",
"wwwwwwwwwwwwwwwwwwwwww",
"wwwwwwwwwwwwwwwwwwwwww",
"wwwwwwwwwwwwwwwwwwwwww",
"wwwwwwwwwwwwwwwwwwwwww",
"wwwwwwwwwwwwwwwwwwwwww"
};
