/* XPM */
static char *terminal[] = {
/* columns rows colors chars-per-pixel */
"22 22 20 1 ",
"  c #D738D73DD734",
". c #DD30DD38DD2F",
"X c #E3F9E3BCE3C2",
"o c #E7DDE7E8E7E5",
"O c #ED2DED25ED1D",
"+ c #EFD8EFD2EFCA",
"@ c #F11DF11DF115",
"# c #F2C5F2CBF2D1",
"$ c #F405F40EF411",
"% c #F505F4FDF501",
"& c #F5DFF5E4F5E9",
"* c #F753F75CF74F",
"= c #F84BF853F849",
"- c #F909F911F907",
"; c #F9EBF9EAF9E9",
": c #FB08FB09FAFB",
"> c #FBD9FBE4FBE6",
", c #FCB8FCC1FCC3",
"< c #FD82FD83FD84",
"1 c None",
/* pixels */
"1111111111111111111111",
"1111111111111111111111",
"1111111111111111111111",
"1111111111111111111111",
"11,>$$$$$$$$$$$$$$$>,1",
"11>$111111111111111>,1",
"11,>111111111111111>,1",
"11>>11>>11111111111>>1",
"11>>11o+%>111111111>>1",
"11>>1111$%111111111>>1",
"11>%11%%O1111111111>%1",
"11>%111111111111111>>1",
"11%%111111111111111%%1",
"11%%111111111111111%%1",
"11%%111111111111111$%1",
"11$$1111111oXXXX111$$1",
"11$+111111111111111$+1",
"11O$+$+$+$$++$+$+$+++1",
"111                .11",
"1111111111111111111111",
"1111111111111111111111",
"1111111111111111111111"
};
