/* XPM */
static char *uextras[] = {
/* columns rows colors chars-per-pixel */
"22 22 25 1 ",
"  c #D2D7D2E6D2F7",
". c #D7E5D7D8D7E6",
"X c #DC36DC3BDC54",
"o c #E00DDFFCE019",
"O c #E3CDE3BCE3DD",
"+ c #E4F0E4FAE505",
"@ c #E6D8E6D3E6D4",
"# c #EA2DEA28EA3F",
"$ c #EB7AEB79EB8A",
"% c #EE56EE56EE65",
"& c #F105F101F0FE",
"* c #F1CCF1CDF1D7",
"= c #F2D8F2D9F2DA",
"- c #F3A2F3A0F39E",
"; c #F4EFF4F2F4F9",
": c #F639F639F62B",
"> c #F737F739F735",
", c #F821F818F824",
"< c #F8D7F8D4F8E6",
"1 c #F9DFF9DCF9DD",
"2 c #FB0CFB07FB08",
"3 c #FC0CFBF9FC0C",
"4 c #FCD6FCCFFCD5",
"5 c #FDD3FDD4FDD3",
"6 c None",
/* pixels */
"6666666666666666666666",
"6666666666666666666666",
"6666666666666666666666",
"6666555666666655566666",
"6666555666666655666666",
"6666355666666655666666",
"6666353666666633666666",
"6666336663556633666666",
"6666333666455633666666",
"6666,33356335633666666",
"66663,66334366,,666666",
"6666,,666,33363,666666",
"6666,,,666%336,,666666",
"6666,,=66666,,,,666666",
"6666=,,66666=;,=666666",
"66666===66666%,=666666",
"66666$===666=$%=,66666",
"66666 +%===%=%X$=66666",
"6666666.XO+OX.6X$$6666",
"6666666666666666OO6666",
"6666666666666666666666",
"6666666666666666666666"
};
