/* XPM */
static char *ccc_large[] = {
/* columns rows colors chars-per-pixel */
"22 22 19 1 ",
"  c #33B333BD339C",
". c #375F3762375A",
"X c #3960395F3958",
"o c #3B5B3B5A3B5A",
"O c #3D163D163D14",
"+ c #3F563F553F57",
"@ c #40A14098409B",
"# c #41F441EC41EA",
"$ c #43BE43BC43A0",
"% c #462A46284625",
"& c #496949604966",
"* c #4AE44AE74ADC",
"= c #4C144C194C10",
"- c #4CF64CF84CF6",
"; c #4F984F984F8C",
": c #5106510A50FA",
"> c #523C523E5235",
", c #538D53925399",
"< c None",
/* pixels */
"<<<<<<<<<<<<<<<<<<<<<<",
"<<<<<<<<<<<<<<<<<<<<<<",
"<<<<<<<<<<<<<<<<<<<<<<",
"<<<<<<<<<<<<<<<<<<<<<<",
"<<<<<<<<<<<<<<<<<<<<<<",
"<<<<<<<<<<<<<<<<<<<<<<",
"<<<<<<<<<,<<,,,,,<<<<<",
"<<<<<<<<,,--,,,,,,<<<<",
"<<<<<<<--,-<O%,*$$---<",
"<<<<<<-*-*-<<<**<<**-<",
"<<<<<**%%*&<<<**<<%%%<",
"<<<<%%% o%%<<<%%<<$$%<",
"<<<%$$O<$%%<<<$$<<$$$<",
"<<$$$<ooOO$<<<$$<<O$O<",
"<<oo<<<<oOO<<<oO<<<OO<",
"<<o<<<<<<.<<<<.<<<<<o<",
"<<<<<<<<<<<<<<<<<<<<<<",
"<<<<<<<<<<<<<<<<<<<<<<",
"<<<<<<<<<<<<<<<<<<<<<<",
"<<<<<<<<<<<<<<<<<<<<<<",
"<<<<<<<<<<<<<<<<<<<<<<",
"<<<<<<<<<<<<<<<<<<<<<<"
};
