/* XPM */
static char *file_roller[] = {
/* columns rows colors chars-per-pixel */
"22 22 22 1 ",
"  c #4C5E4C5E4C4B",
". c #4E444E444E44",
"X c #4FB64FB64FB2",
"o c #502050205015",
"O c #50EF50EF50D9",
"+ c #527B527B5274",
"@ c #538253825380",
"# c #54C454C454BF",
"$ c #566D566D566B",
"% c #579257925788",
"& c #57FE57FE57FD",
"* c #595D595D595A",
"= c #5A135A1359AA",
"- c #5AC55AC55AC5",
"; c #5C105C105B98",
": c #5CD15CD15CD0",
"> c #5E695E695E69",
", c #5FA45FA45FA4",
"< c #606060606060",
"1 c #61F361F361F3",
"2 c #63EC63EC63EC",
"3 c None",
/* pixels */
"3333333333333333333333",
"333333333::::<<3333333",
"3333333-:::::<<<2<3333",
"3333--------:<<<<2<233",
"3--$$-----<<<2<22<22<3",
"::-$OOO-:<<<<<2<<22<:-",
":::::$O-:<<<<<22:<---$",
"---::::-:<<<2<<:-%OO$O",
"$---------<::-OOOOOOO$",
"$$-$$-$$$--OOOOOXXOOOO",
"O$$$-$-$$-$O.....OO.OO",
"O$$$$$$$$$OO.......OOO",
"$$$-$$$$$$$O....XXXOO.",
"$O$$$-$$$$$.....XX..OO",
"$$$$$$$$$$$....OXX.O.O",
"3O$$$$-$$$$...XXXOO..3",
"3333---$$$$X.XOOO..333",
"33333$----$OOOO..33333",
"3333333$--:OOX.3333333",
"333333333--O.333333333",
"3333333333333333333333",
"3333333333333333333333"
};
