/* XPM */
static char *kxsldbg[] = {
/* columns rows colors chars-per-pixel */
"22 22 27 1 ",
"  c #1C2D1C2F1C34",
". c #2248223D224B",
"X c #2B9B2BBD2BBD",
"o c #2F892FA82FA9",
"O c #317C317A3180",
"+ c #33AB33AD33B5",
"@ c #358F358C358F",
"# c #377637683778",
"$ c #3AEC3AEB3AEA",
"% c #3BC33BC33BC0",
"& c #3D5F3D5E3D5C",
"* c #3F563F4E3F52",
"= c #419E4198419B",
"- c #431D43174319",
"; c #45F745E545F1",
": c #46FE46D846F6",
"> c #496E497A496C",
", c #4A264A2C4A27",
"< c #4B594B634B5A",
"1 c #4DD54DD44DD9",
"2 c #4FE44FE14FDF",
"3 c #517E5180517A",
"4 c #52645264525F",
"5 c #544C54465445",
"6 c #55AC559A55B7",
"7 c #57DA57D857F9",
"8 c None",
/* pixels */
"8888888888888888888888",
"8888888888888888888888",
"8888888888888888888888",
"8888888678888888888888",
"8888886666888888888888",
"8888333333363888888888",
"8888<<3-#&><<888888888",
"888>>>>888-><>88888888",
"888->-88888->-88888888",
"888#--8888---&88888888",
"8888$&&88&&&-888888888",
"8888$&&$&$&$$888888888",
"8888##O####O#888888888",
"8888888XOO. 8886668888",
"88888888X8888333333888",
"8888888888888><>>><>88",
"888888888888->-88-->88",
"888888888888---88--&88",
"8888888888888$&$&$&888",
"8888888888888O####O888",
"888888888888888OOO8888",
"8888888888888888888888"
};
