/* XPM */
static char *terminal[] = {
/* columns rows colors chars-per-pixel */
"22 22 26 1 ",
"  c #2949294B2947",
". c #2C1C2C202C1C",
"X c #2FE82FC22FC6",
"o c #327A3282327F",
"O c #365E36543640",
"+ c #36D036CB36CA",
"@ c #390238FF38FE",
"# c #39BA39A8398E",
"$ c #3A863A863A7D",
"% c #3C623C6A3C71",
"& c #3CCF3CD53CDB",
"* c #3E013E0D3E11",
"= c #3F603F563F5B",
"- c #40A240AB40B1",
"; c #4302431342FB",
": c #44CB44DB44C6",
"> c #45C745D845C0",
", c #46D146E046CF",
"< c #48424840483D",
"1 c #4B174B1A4AF4",
"2 c #4CA94CC54CD1",
"3 c #4E3D4E654E6A",
"4 c #500B50305038",
"5 c #521A522E5239",
"6 c #53D153D253DA",
"7 c None",
/* pixels */
"7777777777777777777777",
"7777777777777777777777",
"7777777777777777777777",
"7777777777777777777777",
"776,**********$**$*347",
"774*777777777777777167",
"7743777777777777777347",
"7731771377777777777337",
"773,77X+*1777777777117",
"771,7777$;777777777117",
"77,,77,;+7777777777,,7",
"77,,777777777777777;;7",
"77,*777777777777777;;7",
"77;*777777777777777;;7",
"77**777777777777777**7",
"77*$7777777XXXXX777$*7",
"77*$777777777777777$$7",
"77+$$$$$$$$$$$$$$$$$$7",
"777                .77",
"7777777777777777777777",
"7777777777777777777777",
"7777777777777777777777"
};
