/* XPM */
static char *uextras[] = {
/* columns rows colors chars-per-pixel */
"22 22 30 1 ",
"  c #276F2776277C",
". c #299629902996",
"X c #2B9F2BA12BAE",
"o c #2DA02D962DA6",
"O c #300A30043015",
"+ c #31C531C131C2",
"@ c #342F342C343D",
"# c #353835373545",
"$ c #37B837B837C6",
"% c #3A6B3A663A64",
"& c #3B483B4A3B54",
"* c #3C843C853C86",
"= c #3D7F3D7E3D7B",
"- c #3F263F2A3F32",
"; c #3FCA3FCF3FDC",
": c #412E412F4119",
"> c #42FF43004306",
", c #44EC44D444E4",
"< c #45E245DC4601",
"1 c #4825481E4821",
"2 c #4A374A264A21",
"3 c #4BFB4BEE4BFA",
"4 c #4E284DEA4E29",
"5 c #4FFA4FC84FF9",
"6 c #503F501A503E",
"7 c #510B50FC510B",
"8 c #51EC51E451EA",
"9 c #540454055403",
"0 c #563D56445641",
"q c None",
/* pixels */
"qqqqqqqqqqqqqqqqqqqqqq",
"qqqqqqqqqqqqqqqqqqqqqq",
"qqqqqqqqqqqqqqqqqqqqqq",
"qqqq099qqqqqqq009qqqqq",
"qqqq999qqqqqqq99qqqqqq",
"qqqq888qqqqqqq89qqqqqq",
"qqqq558qqqqqqq88qqqqqq",
"qqqq44qqq899qq44qqqqqq",
"qqqq444qqq899q41qqqqqq",
"qqqq11148q888q41qqqqqq",
"qqqq11qq4454qq11qqqqqq",
"qqqq,,qqq,144q,,qqqqqq",
"qqqq>>>qqq-,1q,>qqqqqq",
"qqqq>>>qqqqq,,>>qqqqqq",
"qqqq---qqqqq$>>;qqqqqq",
"qqqqq---qqqqq$--qqqqqq",
"qqqqq#$-$qqq$#$--qqqqq",
"qqqqq.+$-$-$-$o+$qqqqq",
"qqqqqqq..+++..qo#+qqqq",
"qqqqqqqqqqqqqqqq++qqqq",
"qqqqqqqqqqqqqqqqqqqqqq",
"qqqqqqqqqqqqqqqqqqqqqq"
};
