/* XPM */
static char *browser[] = {
/* columns rows colors chars-per-pixel */
"128 128 85 1",
"  c #010101",
". c #0B0B0B",
"X c #131313",
"o c #1D1D1D",
"O c #242424",
"+ c #2D2D2D",
"@ c #302F2F",
"# c #333333",
"$ c #3D3D3D",
"% c #424242",
"& c #4B4B4B",
"* c #555555",
"= c #5B5B5B",
"- c #5F5F61",
"; c #636363",
": c #6C6C6C",
"> c #716F6F",
", c #6F6F70",
"< c #747474",
"1 c #767878",
"2 c #7C7C7C",
"3 c #807F7F",
"4 c #7F807F",
"5 c #848484",
"6 c #888787",
"7 c #878887",
"8 c #888887",
"9 c #878788",
"0 c #888788",
"q c #878888",
"w c #8C8C8C",
"e c #8F908F",
"r c #8F8F90",
"t c #8F9090",
"y c #949494",
"u c #999797",
"i c #979898",
"p c #9B9B9B",
"a c #A09F9F",
"s c #A0A09F",
"d c #9F9FA0",
"f c #A09FA0",
"g c #9FA0A0",
"h c #A4A4A4",
"j c #A8A7A7",
"k c #A7A8A7",
"l c #A8A8A7",
"z c #A7A7A8",
"x c #A8A7A8",
"c c #A7A8A8",
"v c #ACACAC",
"b c #AFB0AF",
"n c #B0B0AE",
"m c #AEAEB0",
"M c #B1AFB1",
"N c #AFB0B0",
"B c #B4B3B3",
"V c #B7B8B7",
"C c #B8B8B7",
"Z c #B7B8B8",
"A c #BBBBBB",
"S c #C0BFBF",
"D c #BFC0BF",
"F c #C0C0BF",
"G c #BFBFC0",
"H c #C0BFC0",
"J c #BFC0C0",
"K c #C3C3C3",
"L c #C8C7C7",
"P c #C7C8C7",
"I c #C8C8C7",
"U c #C7C7C8",
"Y c #C8C7C8",
"T c #C7C8C8",
"R c #CCCCCC",
"E c #D0CFCF",
"W c #CFD1CF",
"Q c #D0CFD0",
"! c #CFD0D0",
"~ c #D3D3D3",
"^ c #D7D8D7",
"/ c #D8D8D7",
"( c #D8D7D8",
") c #DBDBDB",
"_ c None",
/* pixels */
"________________________________________________________________________________________________________________________________",
"________________________________________________________________________________________________________________________________",
"________________________________________________________________________________________________________________________________",
"________________________________________________________________________________________________________________________________",
"________________________________________________________________________________________________________________________________",
"________________________________________________________________________________________________________________________________",
"_________________________________________________________))))))))))))))))_______________________________________________________",
"____________________________________________________))))))))))))))))))))))))))__________________________________________________",
"________________________________________________)))))))))))))(()))))))))))))))))))______________________________________________",
"_____________________________________________))))))))))~~RB_____BR^))))))))))))))))))___________________________________________",
"___________________________________________)))))~~~B________________vR)))))))))))))))))_________________________________________",
"________________________________________~)))))))A_____________________T))))))))))))))))))(______________________________________",
"______________________________________~()))))())^p__________________ :()))))))))))()))()))(^____________________________________",
"_____________________________________)())()()(()(~p__________________A())))))))))()/^^))()()(___________________________________",
"___________________________________^((~(^^~^/((())~g________________<~())))))))))()(^()^)(())^(_________________________________",
"_________________________________~~^^^Rk<_*wP///(((^v_______________A(()))))))))(^^^)(((^(^^()(()_______________________________",
"________________________________~((^~p____  +y~~^(^^~K______________~^^^^^^^^(((~^^((^(^~~(~(^(((~______________________________",
"_______________________________~~~~K_______  X5K~~^^(~_____________B~^^~^^~^~((^(^(^~~AppypvK~~~((~_____________________________",
"_____________________________R~~~~p_________   *Q^^~~~____________B~~~~~~^~~~^(~~~^~R1X.  ____wK~^~~~___________________________",
"____________________________~~~~K________BRv=_ .w~~~^K__________R~~~~R~~~~~~~~~~~~~Q2.    _______R~~~~__________________________",
"___________________________R~~Rp_______p~~R~R2_ OM~~~________R~~~~~Ry#2~~~~~~~~~~~~2. ___________KV_A~~_________________________",
"__________________________Q~~K________A~~!__AQk<dR~~~______~~~~~~~~5. $K~~Q~Q~~~~~v_____yK___________A~~________________________",
"_________________________R~Wv______BKE~E!~K__R~~!~Q~RB____R~E~~~~~R1o.#A!~~~!~~!!v$____p~R____________K~~_______________________",
"________________________R~~p____BK~~R~Q~RKRRBQ~R~Q~Q~R___RR~~~R~~R!RAAAR~~R~R~E~2______KQR_____________KE~______________________",
"_______________________RERh___wR~~R~RQK6__K~R~R~QQ~R~R__KQ~~Q~~RR~R~~R~~R~R~~W~R<______R~~R_____________RR~_____________________",
"______________________RRRh____RRR!EWRR:___vRRR~E!R!!R~RRRERRRRR~~RERQQRQ~RRRKRRWv______~RERK_____________KRR____________________",
"_____________________RR~p____pRR~RRRRz_____=pKREQQR!R~RR~RR~E~R!~RR~~RRRR~!B:ARRR______RRv________________RRR___________________",
"____________________KRRB______KRRRQRU;______.*vRRRRRRRRRRRRRRRRRRRRRRRRRRRRvX=KRRKRRRKSRA_________________vRER__________________",
"___________________ARRA________;yRRRZ_______  +ARRRRRRRRRRRRRRRRRRRRRRRRRRRkX 5RRR_vRRRR2__________________BRR__________________",
"___________________RRK___________BRR2________  1RRRRRRRRRRRRRRRRRRRRRRRRR2__. $ARk___hv5____________________FRR_________________",
"__________________KRRp__________.pRB__________ -KRRRRRRRRRRRRRRRRRRRRRRRR;:y_________________________________IRP________________",
"_________________BRRB____________=k____________5KRPRURRRKRRKRRKRRRKRRPPRRBKv_________________________________hRRR_______________",
"_________________KRK________________________k2_+wRRRKRKRRKRRRKRRKRRRRKRKRYIA<1________________________________ARR_______________",
"________________KRKy_______________________RKRp_&KKRRKRUKRRKRKKRRIKRKRURKIIRKA_________________________________KKK______________",
"________________TIA________________________YKRB_*KKIKKRRKRKIKRRKKRIKRKUUYURv___________________________________vKIK_____________",
"_______________KKK_________________________KRKKwpKRPKRKKRKTKRKKRKKKRKUUKRKK_____________________________________KRK_____________",
"______________vKKh________________________KIKKIKKRKIKKKYKKKIKRKKIYKYIKURKYKv____________________________________hKKK____________",
"______________KKK________________________AKKKKIKIKKKKRKKIKIKKKIKKKKKKKKKKKA______________________________________KKK____________",
"_____________vKKh_____________________KKKKKKKKKKKKPKKKKKKKKKKKKKKKKUKKKKKy________K____KK________________________hKKK___________",
"_____________SKA_____________________AKKKKKKKKKKKKKKKKKKKKKKKKKKKKKKKKKKv_______AKKKA__AK_________________________AKK___________",
"_____________KAp____________________AKKKKKKKKKKDKKKKKKKAGKAKKKHKKKKKKKKJ5______KKKKDK___KA________________________vKKB__________",
"____________AKK___________________AKKAKKKHHKAKAKSKAKKAKKKKKKHHKHKKKAAKKA______AKKKKDAA__KA__A_____________________5KKK__________",
"____________AKB__________________HKSKAKAAKSFKKKAKFKAAKSKAKKGHHHHAKAKAKKK_____BKDAKDKKJBAAA_BKH_____________________AJH__________",
"___________BSAp__________________AAKAKAKKAAKAASKAKAKKASAKAGHHHHHFFJHKGGAvh__BKAAAAAFADGKKGBAFSAA___________________hKHA_________",
"___________AAA__________________AKAHAKAAAKAKAKAKGAKKAFAFAAKAHHAHFAAKAAKAAKAAv_____;hAKAKAKAKAKKAAA_________________2AAA_________",
"___________AKm_________________vAASAKAAKFASAHAAAAKAAKAKAAKKAHAHAAKAAAKKAHAB______  _;BAAKAAAAAAAAKA_________________AAA_________",
"__________hAAp________________NAAKAAAGAKAAKAAAAKAAKAAAAKAAAAASSAAGAKDAAAAk_________  %yAAAByyBAAAC__________________kAAA________",
"__________BAA________________BAAAAAAAAAAAAAAAAAAAAAAAAAGAAAAASZSAAAAAAAAp____________ OtVB;_________________________wAAA________",
"__________AAB________________AAAAAAAAAAAAAAAAASZSZCSCHZSAAAAAACAAAAAAACy______________ _&&___________________________AAA________",
"_________yAAv_________BAA____AVAAAAAAZZAACCZAZZSSZSZZZZZCACAAZSZAAAAAAv______________________________________________BAAv_______",
"_________vZAh_________AAZVB_pABAAAZBAZZZAACAZZAZCZZZZZSZCAZAAZZAABBAAB;______________________________________AB______hBAB_______",
"_________MZZ________BZCZABABBAAZBAZACCAZZCCCZAZZCZZSZSZZCZAZZZACAAACAw______________________________B________BZZB____wAZA_______",
"_________BAA______BBABABABABBABACCZCZZZZZZZCZZZZCBMSZZSMZZZZZCZABAZZv_______________________________AB________BAVBv__:BAB_______",
"_________ZBB_____BAABABABABAABZABCBZCVVVZZZZZZBZZSBZZZBZCZCVBABBVBZC2_______________________________BB___________hBAxhABA_______",
"________5BAB_____BABBABAABBABBBBZZCVVVVVVBCZCCBZBZSMBBZBZZCZCBBABBAv________________________________vAB___________BBBABABk______",
"________pBBB_____BBBBBBBBBBBZBBBBBBBBBVMVBBBBBBBBBBBZMSBBBBBZBBBBCBp_________________________________BB___________BBBBBBBv______",
"________vBBB_____BBBBBBBBBBBBBBBBBBZBBBBBBBBBBBBBBBBBBBBBBBBBBBBBBB1_________________________________BBB__________vBBBBBBB______",
"________kBBB_____vBvy:*vBBBBBBBBBBBMBBBBBBBBBBBBBBBBBBBBBBBBBBBBBBv__________________________________kBB__________BBBBBBBv______",
"________knBnp_____%#. $BBBBBBNBBMBBBBBBBBBBBBBBBBBBBBBBBBBBBBnnBBBv___________________________________BBv________2BBBBBBBv______",
"________kBMBv______   &BnnBNBBBBBMBMBBnBvBBnBBMBBMBMBBvBBvBBBMBBBBy___________________________________kvB________vBBNBBBBv______",
"________hMBBvv______  ;vBvBvBBBvMMBnMBBvBMBmnBBvMBMMMMBbBvBBBvBBnBy___________________________________5bBv______lBBvBBvBvB______",
"________hMvBmBvw______&5uBBvBvBvMMBvBvBBBvBvBvBvMMnMnMMMvBvBvBvBMvh____________________________________hbv_____vBvvBnBBvBM______",
"________hNvBvBvBvw_____ &BvBvBvBMvMBvBvvvvBBvvBBMnnnnMMBBBvvBBvbvBv_____________________________________Bv___hvNBvBvBvvBvB______",
"________hvNvNvnvvBvvw__ OpvNvbvv:>hvvvBvvBvvvBvvvMvnnvvvvvvBvvvMBvv_____________________________________5k__hvBvvvBvvmvbvv______",
"________hnmvvvvvvnvvvh*_.3nvvny& .$wvvvvvMvnvnvvvBvMvmvvvBvmvmvvvbvv________________________________________wwhvvvBvvvnnnv______",
"________dvvvvvvvvvvvvvh&_$fvh1#    X%===pvvvvvvvvvvvvvvvvvvvbvvvvvvv__________________________________________uvvvvvvvvvvv______",
"________fvvvvvvvvvvvvvvh<X@&+           *vvvvvvvvvvvvvvvvvvvvvvlvvvvk_________________________________________vvvvvvvvvvvv______",
"________pvvvvvvvvvvvvvvvv5%.________    .<vvvvvvvvvvvvvvvvvvvvvvvvvvvk_______________________________________yvvvvvvvvvvvh______",
"________pvvkzvvvvvvvvvxvvvf;___________  Oykxvvvvvvlxvvvvvlvvvxvvvvvxvh______________________________________xvvvvvvxvvjvk______",
"________evvkvvkkvxxkxxxvkxvp_____________ %yvxzxvkkvvxkxlvvkxvxvckkvxkxk____________________________________yxxxkvkvxkvxkp______",
"________>kkkxxxxxxzxkkkvxxkk______________ $yxkkxzkkxxxxjkkkxxxxcxxxkxxxvxkhhkvkjjk_________________________kkxxkxxxzxvjxy______",
"________-kkkkjjxkkkkkkkxxhkk_______________ %yhkkkkkkkkkkkkkjjkkkkkkkkkjkzkkzkkkkkkk_______________________wkjkjzzkkjkkkk5______",
"_________kkjkhkhkkjkjjhzjkha_______________  $ykkhjkhxjjkkkzhjxxkkjkkkkkkkzkkzhxkkkk_______________________hkkkkzzkxkkkkk_______",
"_________pkhhjjxkhhjhjzhhkh5________________  O:hjhkkhhkhkhkhkxhhhkjhkhkhkjxhkhkhkhh______________________wkhkhkkhkxhkhhk_______",
"_________yhhhjhhhhkhhzhhhhh__________________  .:fhkhhhkkhhhhkhkhhxhhhhhhkhhhhhkkhhhh_____________________pkkhhhhhxhhhhkp_______",
"_________<hkhhhhhhhhhhhhkhy____________________ .#2phhhhhhhkhhhhhhhhhhhkhhhhhhhhhhhhh_____________________hkhhhhhhhhhhhhi_______",
"_________=khhhhhfhhhhhhfhp1_____________________  .$3hhhhhhhhhhhhhhfhhhhhhhhhhhfhhhhk____________________phhhhhhhhfhhhhh5_______",
"__________phhhphhhhhhhhhhh_______________________   X*yhfhhphahahhhhhhhphhphhhhhhsshhp___________________hhahphhhhfhahah________",
"__________rhphhhphhphfdfha_________________________   %ifhhaphdhhfffhphaggfhfhffhhhgph__________________2hhhhhghahhfahgp________",
"__________:phgphphdhphffph__________________________   ,ahphsahhhhffhpahsghffhffphphhp__________________1hphphhpfsahhfaw________",
"__________%pphaahhpphdghppw___________________________ =pphahphppafhphpfsssshphshphghh__________________whhhhhphfdhphhp_________",
"___________wapspphphhpgphpp____________________________;phgpphphhpfphppdggpsasphpsphpp__________________ypppppffphhppdy_________",
"___________:phphpppppfphphp____________________________5pfphhpgpphphphhpggggpphphphppp__________________yphppsfaphpphp5_________",
"___________$upppphppppfppppy__________________________;ppppppppppppppppppppppspppppphp__________________yppdpppppppspp__________",
"____________2ppppppppppppppp__________________________wppppppppppppppppppppppppppppppp__________________yppppppppppppw__________",
"____________*pppppppppppppppp_________________________pppppppppppppppppppppppppppppppy__________________ypppppppppppp:__________",
"_____________wpppppppppupppppp________________________pppppppppppppupppppppppppppppppy__________________ripppippppppy___________",
"_____________=yppyppyppippiiiiu_______________________ypppppipypupppipppipiupiuppppppy_________________:pppppipppppp<___________",
"_____________O5pupipypippuiipupy______________________ypiuuppuuuuupipyppipiupiipyppipy_________________yupipuuypippy____________",
"______________*yupiiiiuiiiiiiiiiy_____________________yppiiuuuuuiiuipypyiuiiupuipypypy________________ypipiiiipiiuy1____________",
"_______________2iyypypypuupiuyiiyy___________________=ppyiiiuuyuiuiiyppypyyppyiuiiyppy_______________yiipyypypypyiw_____________",
"______________ %yyiuiyuyuyyyuiyiiy___________________2yyyyuyuyyaiyiypyyiypyyyiyiyiyyyy______________yuiyuyiyiyuyuy-_____________",
"_______________.:yyyuyyyyyiyyyiyyy__________________:yyyiyuyyaeyyyiyyiyuyyuyyiuyyuyiyu5____________wyiyuyyuiyiyyy2______________",
"________________O5yyyyyyyyyyyyyyyyy________________2yyiyyyyyyyyyyyyyyyyyyyyyyyyyyyyyyyw____________wyyyyyuyyyyyyy_______________",
"________________ *yyyyyyyyyyyyyryyy_______________ryyyyyyyyyyyyyyyyyyyyyyyyyyyyyyyyyyyy____________5yyyyyyyyyyyy;_______________",
"_________________.:yyyyyyyyyryyyyyy______________yyyyyyyyyyyyyeyyyyyyyyyyyyyyyyyyyyyyyyw___________5yyyyyyyyyyy2________________",
"_________________ O1yyyyyryyryeyyyw_____________yyyryryyyryyryyyyyyyyeyeyyyyyyyyyyyyyyye___________eyyeyyeyyyyw_________________",
"__________________ $wwwywytyryrerye_____________eeeyryrrrrryyreereeeeyeerrrrererrrrrerey__________6rryreyyerew=_________________",
"___________________ *wywyyyyreryrry_____________wrrrrrryeeerrrrrrereeyeerrrreryerrrrerrrw________1ereeryywwyw-__________________",
"___________________  =wywwwweeeweew____________1eeeereeerrrreeeerrrrrreerreeeewyrreeeeeew_______1eeereeeewyw<___________________",
"____________________ o<werreerwerew____________6wrrrereerwrrrwrrrrwreeweeeweywewreerwywew______wwrrrrerwywe<____________________",
"_____________________ o,wwwwrwwrwww___________<ewwrewwewrrrweewwrrwrwreweeewweweeerwrwwrw____wwweewerwwrww<_____________________",
"______________________ o>wrwrwwrwww__________1wwrwewwwwrrwwewwwwrwwwwrrwrwwrwrwwwrwwywww5_5wwwwwwwwwrwwew:______________________",
"_______________________ o>0wwwwwwww_________2wwwwwwwwwwwwwwwwwwwwwwwwwwwwwwwwwwwwwwwwwwwwwwwwwwwwwwwwwww<_______________________",
"________________________ o:0wwwwww5_________7wwwwwwwwwwwwwwwwwwwwwwwwww6wwwwwwwwwwwwwwwwwwwwwww7wwwwww5,________________________",
"_________________________ o:5w6wwww5_______5w7w8w6w69w7w5wwww75wwww66wwwwq5w5w5w6w6w8ww6www5wwwwww66ww:_________________________",
"__________________________ .&5w5w0w95_____2w0www886wqw5www5wwww76w6ww666wwwwww7w6w6w6w6ww55w5wwww66w5:__________________________",
"___________________________  &1w5w5ww855__55w55w8666w5ww55w55w5w66666w665w55775w68686666w5w7w5586665&___________________________",
"____________________________  O:56605w5qw9w5q958868888w5957969w588686666w5ww579988q500w5w7ww705w66>$____________________________",
"_____________________________  o=55955w555w55ww5665666570qq5q5056668666656577w5959qw5859575556055;o_____________________________",
"______________________________   $,55w5w0555755556565558550w5q5w65655655w55w58w5w5q55ww5w555q551&_______________________________",
"________________________________  X*1595565555555656566559559555655655655555555555555555559555*o________________________________",
"__________________________________  O;555555555555555555555555555555555555555555555555555555;+ _________________________________",
"___________________________________  .+;25555555555553555555355555555535555545554555555552;#. __________________________________",
"_____________________________________  .+=2555553554535525545355553555454535544555253552;#. ____________________________________",
"______________________________________    O&<2255435353535453535335335355354455345552<*+. ______________________________________",
"________________________________________    X#*<23355522325353525445255425334544522=#X  ________________________________________",
"__________________________________________     X#*<1223535542525525252255255431<*#o.  __________________________________________",
"_____________________________________________     .o#*:11122225225252253<1<;*%oX   _____________________________________________",
"________________________________________________      ..oO%&**********&$OOX.     _______________________________________________",
"___________________________________________________                          ___________________________________________________",
"_________________________________________________________              _________________________________________________________",
"________________________________________________________________________________________________________________________________",
"________________________________________________________________________________________________________________________________",
"________________________________________________________________________________________________________________________________",
"________________________________________________________________________________________________________________________________",
"________________________________________________________________________________________________________________________________",
"________________________________________________________________________________________________________________________________"
};
