/* XPM */
static char *opera[] = {
/* columns rows colors chars-per-pixel */
"128 128 83 1",
"  c #000000",
". c #0A0A0A",
"X c #141414",
"o c #1B1B1B",
"O c #232323",
"+ c #2C2C2C",
"@ c #343434",
"# c #3B3B3C",
"$ c #424242",
"% c #4B4B4B",
"& c #504F4F",
"* c #535353",
"= c #5C5C5C",
"- c #5F6060",
"; c #646464",
": c #666668",
"> c #6B6B6B",
", c #737373",
"< c #7C7C7C",
"1 c #7E8080",
"2 c #838383",
"3 c #888787",
"4 c #878887",
"5 c #888887",
"6 c #878788",
"7 c #888788",
"8 c #878888",
"9 c #8B8B8B",
"0 c #908F8F",
"q c #8F908F",
"w c #90908F",
"e c #8F8F90",
"r c #908F90",
"t c #8F9090",
"y c #939393",
"u c #989797",
"i c #979897",
"p c #989897",
"a c #979798",
"s c #989798",
"d c #979898",
"f c #9C9C9C",
"g c #A09F9F",
"h c #9FA09F",
"j c #A0A09F",
"k c #9F9FA0",
"l c #A09FA0",
"z c #9FA0A0",
"x c #A4A4A4",
"c c #A8A7A7",
"v c #A8A8A7",
"b c #A7A7A8",
"n c #A8A7A8",
"m c #A7A8A8",
"M c #ACACAC",
"N c #AFB0AF",
"B c #B0B0AF",
"V c #B0AFB0",
"C c #AFB0B0",
"Z c #B4B4B4",
"A c #B7B7B8",
"S c #BBBBBB",
"D c #BFC0BF",
"F c #BFBFC0",
"G c #C3C3C3",
"H c #C7C8C7",
"J c #C7C7C8",
"K c #CBCBCC",
"L c #D0CFCF",
"P c #CFCFD0",
"I c #D4D4D4",
"U c #D8D7D7",
"Y c #D7D8D7",
"T c #D8D8D7",
"R c #D7D7D8",
"E c #D8D7D8",
"W c #DBDBDB",
"Q c #E0DFDF",
"! c #DFE0DF",
"~ c #DFDFE0",
"^ c #DFE0E0",
"/ c #E0E0E0",
"( c None",
/* pixels */
"((((((((((((((((((((((((((((((((((((((((((((((((((((((((((((((((((((((((((((((((((((((((((((((((((((((((((((((((((((((((((((((((",
"((((((((((((((((((((((((((((((((((((((((((((((((((((((((((((((((((((((((((((((((((((((((((((((((((((((((((((((((((((((((((((((((",
"((((((((((((((((((((((((((((((((((((((((((((((((((((((((((((((((((((((((((((((((((((((((((((((((((((((((((((((((((((((((((((((((",
"((((((((((((((((((((((((((((((((((((((((((((((((((((((((((((((((((((((((((((((((((((((((((((((((((((((((((((((((((((((((((((((((",
"((((((((((((((((((((((((((((((((((((((((((((((((((((((((((((((((((((((((((((((((((((((((((((((((((((((((((((((((((((((((((((((((",
"((((((((((((((((((((((((((((((((((((((((((((((((((((((((((((((((((((((((((((((((((((((((((((((((((((((((((((((((((((((((((((((((",
"((((((((((((((((((((((((((((((((((((((((((((((((((((((((((((((((((((((((((((((((((((((((((((((((((((((((((((((((((((((((((((((((",
"((((((((((((((((((((((((((((((((((((((((((((((((((((((((((((((((((((((((((((((((((((((((((((((((((((((((((((((((((((((((((((((((",
"((((((((((((((((((((((((((((((((((((((((((((((((((((((((((((((((((((((((((((((((((((((((((((((((((((((((((((((((((((((((((((((((",
"((((((((((((((((((((((((((((((((((((((((((((((((((((((((((((((((((((((((((((((((((((((((((((((((((((((((((((((((((((((((((((((((",
"((((((((((((((((((((((((((((((((((((((((((((((((((((((((((((((((((((((((((((((((((((((((((((((((((((((((((((((((((((((((((((((((",
"((((((((((((((((((((((((((((((((((((((((((((((((((((((((((((((((((((((((((((((((((((((((((((((((((((((((((((((((((((((((((((((((",
"((((((((((((((((((((((((((((((((((((((((((((((((((((((((((((((((((((((((((((((((((((((((((((((((((((((((((((((((((((((((((((((((",
"((((((((((((((((((((((((((((((((((((((((((((((((((((((((((((((((((((((((((((((((((((((((((((((((((((((((((((((((((((((((((((((((",
"(((((((((((((((((((((((((((((((((((((((((((((((((((((((((((EQ/////////((((((((((((((((((((((((((((((((((((((((((((((((((((((((((",
"(((((((((((((((((((((((((((((((((((((((((((((((((((((E!!/W////W//WQ//W////W/((((((((((((((((((((((((((((((((((((((((((((((((((((",
"(((((((((((((((((((((((((((((((((((((((((((((((((EW/~^W!W!!//W!!/!!W^/~^!!!//!!W((((((((((((((((((((((((((((((((((((((((((((((((",
"(((((((((((((((((((((((((((((((((((((((((((((((EWWQ/WW^!//W/!!WW/W!^~W/W!/WW!WW!WW((((((((((((((((((((((((((((((((((((((((((((((",
"((((((((((((((((((((((((((((((((((((((((((((YWWWW/WWWW!WWWWWWWW!W!WW/WWWWWWWWWW!W!WWE(((((((((((((((((((((((((((((((((((((((((((",
"((((((((((((((((((((((((((((((((((((((((((IEWWWWWWWWWWWWWWWWWWWWWWWWWWWWWWWWWWWWWWWWWWE(((((((((((((((((((((((((((((((((((((((((",
"(((((((((((((((((((((((((((((((((((((((((TWEWWWWWWWWWWWWWWWWWWWWWEWWWWWWEWWWWWWWWWWWWWWT((((((((((((((((((((((((((((((((((((((((",
"(((((((((((((((((((((((((((((((((((((((LEEWEWEEWWEYWWEEEWEWEWWEWWWEWEWWEWEWEEWEWYWEEEWEWW(((((((((((((((((((((((((((((((((((((((",
"((((((((((((((((((((((((((((((((((((((IEEWTEEEEWEEYYEEEEEEYTEEEEYEEEEETETEWEEEEEYREWTYTWEEI(((((((((((((((((((((((((((((((((((((",
"(((((((((((((((((((((((((((((((((((((YIYTTYYEYYEYYEYYTTTTYYTEIYIYYTYTUTTYYYTEEEEYYEEIYYYEEEI((((((((((((((((((((((((((((((((((((",
"((((((((((((((((((((((((((((((((((((IYYYIYYYIYYIYYRRIYRIYIYUITGMMMMIIIYUIEYIUUIIRRIYYIYIEIEYI(((((((((((((((((((((((((((((((((((",
"(((((((((((((((((((((((((((((((((((YYYYIYIIIIYIIRIRIIYIYIIIA3=+   .=;sKETIIEIIITRIIRIIIYIYTIYII(((((((((((((((((((((((((((((((((",
"((((((((((((((((((((((((((((((((((PIIIIIIIIIIYIIIIIIIIIIIJs+         X>AIIYIIIIIIIIIIIIIIIIIIII(((((((((((((((((((((((((((((((((",
"(((((((((((((((((((((((((((((((((PIIIIIIIIIIIIIIIIIIIIIIG=X            @yIIIIIIIIIIIIIIIIIIIIIIL((((((((((((((((((((((((((((((((",
"((((((((((((((((((((((((((((((((PIIIIIILIIPIIIIIIIIIILIG>  (((((((((    oCIIKIIIIIIIPIIPIIIIILIIL(((((((((((((((((((((((((((((((",
"(((((((((((((((((((((((((((((((ALIPPLLLIILIPLILLPIKIIII2 (((((((((((((   <KILIPIIPPIILIPLILIIPLIII((((((((((((((((((((((((((((((",
"((((((((((((((((((((((((((((((DILLPPPILLIPPPPPPPPLIKILmO((((((((((((((((  9KLPLIPIPPKPPIPPIPLPPPLL((((((((((((((((((((((((((((((",
"((((((((((((((((((((((((((((((KKPPPPPPPPPLLLLLLLLLLLKH:(((((((((((((((((( @MKILKKPKILLLLPLKLLLPLLLKK((((((((((((((((((((((((((((",
"(((((((((((((((((((((((((((((HLKLKLKKLKLKLLLKKLPLKLLLc(((((((((((((((((((( ;JLLLKLKLLLLLKLKLLLLLKLLK((((((((((((((((((((((((((((",
"(((((((((((((((((((((((((((((KKLKLLKLKLKKKKLKLKKKLKKK,(((((((((((((((((((( OAKLKLKLLKKKLKLKLKKKLKKLKH(((((((((((((((((((((((((((",
"((((((((((((((((((((((((((((GKKKKLKKLKLKKKKKKKPKKKKKA((((((((((((((((((((((.uKKLKKLKKKKKKKKKKKKKKKLKK(((((((((((((((((((((((((((",
"(((((((((((((((((((((((((((AKKKKKKKKKKJKKKKKKKKKKKKKs(((((((((((((((((((((((>KKKKKKHLHKKKKKKKKKKKKKKKH((((((((((((((((((((((((((",
"(((((((((((((((((((((((((((JKKKKKKKJKKKKKHKKKKKKJKKJ:(((((((((((((((((((((((OBJKHKKKKKHKKKJKKKKKKKHKKK((((((((((((((((((((((((((",
"((((((((((((((((((((((((((xHKHJKKJKJHHJKHKHHKJJJKJJB((((((((((((((((((((((((X0JJKGHKJKKHJKKJHKJJHHKHKHJ(((((((((((((((((((((((((",
"((((((((((((((((((((((((((SJHJJJJHHJHJJHHJHHHJHKHHKM(((((((((((((((((((((((((=HHJJHJJJJJJJHJHHJJHJHHJJJ(((((((((((((((((((((((((",
"(((((((((((((((((((((((((xHHHHHHJJHHHHJJHJJJJJJJHHG9(((((((((((((((((((((((((&GHJHHHJJJHHHHHJJJJHHHJJJJG((((((((((((((((((((((((",
"(((((((((((((((((((((((((AHHHGHGHJGHGHHHHJGHJHJGGHD(((((((((((((((((((((((((((gGHHJGJJGJHGHHHHHGHJGHGGJG((((((((((((((((((((((((",
"(((((((((((((((((((((((((FGGGGHHGJGGHGGGJGJGGGGJJGD(((((((((((((((((((((((((((gHGGGHGJGGGGGHGHGHJGGGGGGH((((((((((((((((((((((((",
"((((((((((((((((((((((((gJGHGGGGGGGGGGGGGGGGGGGGGGS(((((((((((((((((((((((((((9GGGGGGGGGGGGGGGGGHGGGGGGGD(((((((((((((((((((((((",
"((((((((((((((((((((((((ZGGGGGGGGGGGGGGGGGGGGGGGGGx(((((((((((((((((((((((((((&SGGGGGGGGGGGGGGGGGGGGGGGGG(((((((((((((((((((((((",
"((((((((((((((((((((((((FGGDGGDDFGGFGDGGGGGGGGDGGGg(((((((((((((((((((((((((((#SDGGFGDGGGGDGDGGDGDGGDGGGG(((((((((((((((((((((((",
"(((((((((((((((((((((((2SDDGDGDGGFGGGFDFFFFGDGGDDGg((((((((((((((((((((((((((($SGGDGGGDDDGGDGGDDDGDGDFFGGA((((((((((((((((((((((",
"(((((((((((((((((((((((cFGDDDDDDSGGSDDDDFFDDDDFFDA(((((((((((((((((((((((((((($ZDDFFFDDDDDDDDDDDDDDDDGFFDF((((((((((((((((((((((",
"(((((((((((((((((((((((xFFFFDDDDGFSGDDDFFFFFFFFFDS(((((((((((((((((((((((((((((3FFDDDDDDDDDDDDDDDFFFFFFFDS((((((((((((((((((((((",
"(((((((((((((((((((((((ADDSDDSSDSSSGSGSSDDSDDSDSDZ(((((((((((((((((((((((((((((9DDSSDDDDDDDDDDSDDDDDSDDDDSZ(((((((((((((((((((((",
"(((((((((((((((((((((((SSDDSDSDSSSSGSSFSDSSDSDSDDZ(((((((((((((((((((((((((((((9SDSDSSSDSSSSSSDSSSSSDSSSSAZ(((((((((((((((((((((",
"((((((((((((((((((((((3ASSSSSSSSSSSSSSSSSSSSSSSSSA(((((((((((((((((((((((((((((9SSDDSSSSSSSDSSSSSSSSSSDSSSM(((((((((((((((((((((",
"((((((((((((((((((((((vSSSSSSSSSSSSSSSSSSSSSSSSSSZ(((((((((((((((((((((((((((((9SSAASSSSSSSSSSSSSSSSSSADSSA(((((((((((((((((((((",
"((((((((((((((((((((((MASASSSASSSSSSSSSZSASASSASFc(((((((((((((((((((((((((((((2DASDSSSSASSSASSASSASSASSSSA(((((((((((((((((((((",
"((((((((((((((((((((((vAAAASASAASZSZSSSSSAASAASSA0((((((((((((((((((((((((((((($MAAAAAAASAAASASAASSAASAASAA(((((((((((((((((((((",
"((((((((((((((((((((((cAAAAAASAAZSASSSZSASAAAAAAA0((((((((((((((((((((((((((((((MAAAAAAAAAAAAAASAAAAAAAAAAA(((((((((((((((((((((",
"(((((((((((((((((((((,AAAAAAAAAAZZSZZZAZAAZAAAAAZ0((((((((((((((((((((((((((((((MAAAAAAAAAAAAAAAAAAAAAAAAAAx((((((((((((((((((((",
"(((((((((((((((((((((,AAZZAZAAZZSZSZAZAZAZAZAAAAZ0((((((((((((((((((((((((((((((MAAAAZAZAAAZZAAAAZAZAAAZAAZB((((((((((((((((((((",
"(((((((((((((((((((((>AZZAAZZZZAZZZZAZZAZAAZZZZZZ0((((((((((((((((((((((((((((((mZZZZAZZZZZAAZZZAZZZZZAZZZAM((((((((((((((((((((",
"(((((((((((((((((((((>ZZZZZZZZZAZZZZZZZZZZZZZZZZZ0((((((((((((((((((((((((((((((cZZZZZZZZZZZZZZZZZZZZZZZZZZM((((((((((((((((((((",
"(((((((((((((((((((((:ZZZZZZZZZZZZZZZZZZZZZZZZZZZy((((((((((((((((((((((((((((((cZZZZZZZZZBZZZZZZZZZZZZZZZZM((((((((((((((((((((",
"(((((((((((((((((((((>ZZBZZZVZZMBZZBZBZVBZVZVZZVZ0((((((((((((((((((((((((((((((cZCZBZZVBZBZZVZVZZZZBZBZZVZc((((((((((((((((((((",
"(((((((((((((((((((((:BZZBZMZMZZVVZBVZVVZBBBVVZVB0((((((((((((((((((((((((((((((cZCZVZVZZBZBVBVZBBBBBZBBVBVc((((((((((((((((((((",
"(((((((((((((((((((((;BNBZMZBMZMVBBBBBBBBBBVVVVVB0((((((((((((((((((((((((((((((cMVVBBVBBBBBBBBBBBBBBBBBBBBc((((((((((((((((((((",
"(((((((((((((((((((((:MZMBBBMZMZVVVVBBBBBBBVVBBBB0((((((((((((((((((((((((((((((cBVMZMMBBBBBBBBBBBBBBBBBBBBc((((((((((((((((((((",
"(((((((((((((((((((((;MMMZMZMMMMMVBMZMMMMZVMZMMMB9((((((((((((((((((((((((((((((xMMZMMCMZMCMMNNNMCMZMZMMMNMx((((((((((((((((((((",
"(((((((((((((((((((((:MMMMMMMZMMMMMMMBMMMMMMMNMMM9((((((((((((((((((((((((((((((xMMMCMMMMMZMMMMMMMCMMMMMMMMc((((((((((((((((((((",
"(((((((((((((((((((((;MMMMMMMMMMMMMMMMMMMMMMMMMMM9((((((((((((((((((((((((((((((xMMMMMMMMMMMMMMMMMMMMMMMMMMx((((((((((((((((((((",
"(((((((((((((((((((((;MMMMMMMMMMMMMMMMMMMMMMMMMMM9((((((((((((((((((((((((((((((fMMMMMMMMMMMMMMMMMMMMMMMMMMh((((((((((((((((((((",
"(((((((((((((((((((((;MMMMMmMMmvMMnMMvMvMMMbmMMMM3((((((((((((((((((((((((((((((zMmMbMMmMMMMMmMMMMMmMMMcMMmx((((((((((((((((((((",
"(((((((((((((((((((((;ccMcmvcMmMMMMcmMmMMccMMmmmv9((((((((((((((((((((((((((((((kMMmmMmMccvmMmmmcmmMMMMbvMvf((((((((((((((((((((",
"(((((((((((((((((((((-cmccMccmmmmmccmmmmmcccmmmmc3((((((((((((((((((((((((((((((fmmccmmmcbmmccmmcbmmmmcccvMs((((((((((((((((((((",
"((((((((((((((((((((((tmxcccccmmmxccmmmxcccccmmmc9((((((((((((((((((((((((((((((fcccccxccccccccxcccccxccmvx1((((((((((((((((((((",
"((((((((((((((((((((((ycccccxccxcccxcmcxcxccxcmxc2((((((((((((((((((((((((((((((fccxcxcccbbxxcccxxmcccccxcx(((((((((((((((((((((",
"((((((((((((((((((((((9xxxxxxxxxxxcxxxxxcxxxxxxcx9((((((((((((((((((((((((((((((scxccxxxxxxcxxxxcxxxxxxxcxx(((((((((((((((((((((",
"((((((((((((((((((((((9cxxxxxxxxxxxxxxxxxxxxxxxxxf(((((((((((((((((((((((((((((,xxxxxxxxxxxxxxxxxzxxxxxxxxz(((((((((((((((((((((",
"((((((((((((((((((((((,xxxxxxxxxzxxxxxxxxlxxxzxzxf(((((((((((((((((((((((((((((1jxxgxzxxxxzxxxxlxxxxxxxxzxy(((((((((((((((((((((",
"((((((((((((((((((((((#fxfxxfxxzgxxxzzxxxxflfxzxxx(((((((((((((((((((((((((((((1zxxxzxxxzxxxxxxxzxxzxxxfxx9(((((((((((((((((((((",
"((((((((((((((((((((((#fxxxfxxkxxxjfzxkhxxxxxxzxhf(((((((((((((((((((((((((((((<xxfxxxfxzzzzjxfxxzxfxfxlxf2(((((((((((((((((((((",
"((((((((((((((((((((((+9xflxfxxkfhhxjxhxxffxfxxzff(((((((((((((((((((((((((((((<xfzzfjxfzzzkxfhjkkkxfgjxfs((((((((((((((((((((((",
"(((((((((((((((((((((((<lkffhffhjfhlffffflzfkffkkf(((((((((((((((((((((((((((((<zzfhjffxffxfkfhhkkfkhjfzjs((((((((((((((((((((((",
"(((((((((((((((((((((((:ffhfhfhhffgffjhjfgjfjgfghf(((((((((((((((((((((((((((((yjhzhffzffhflfxfjfjfjhjfhf3((((((((((((((((((((((",
"(((((((((((((((((((((((+yhfhfffffgfgjfffffffffffffq((((((((((((((((((((((((((((sfffffzfkhfffffhfffjffffff<((((((((((((((((((((((",
"(((((((((((((((((((((((+qfffffffffffffffffffffffff9((((((((((((((((((((((((((((sffffffffffffffffffffffffp(((((((((((((((((((((((",
"((((((((((((((((((((((((,sfffsfffsfffsffffffsfffff9(((((((((((((((((((((((((((:yffffdfffdffffffpffpfffffy(((((((((((((((((((((((",
"((((((((((((((((((((((((*sfsfdfffsffsfsfsfsffffssfy(((((((((((((((((((((((((((3sfssfdfdssfffsfffssfsssfs<(((((((((((((((((((((((",
"((((((((((((((((((((((((o1ssfdssfsssfpsfsfsssssffsp(((((((((((((((((((((((((((2sssfssffssddsfiisfsfsfssf=(((((((((((((((((((((((",
"(((((((((((((((((((((((((=iiiiidpspdispsssddpipsssy(((((((((((((((((((((((((((3iidddpiisddsyiissppppssy2((((((((((((((((((((((((",
"(((((((((((((((((((((((((#qiiiydypiiypuyipdyiiiiyis9((((((((((((((((((((((((((ypiiisyiyiiiiiyiusuppysyy;((((((((((((((((((((((((",
"(((((((((((((((((((((((((.>yayyyyuuyyayyyiiydsydyaye((((((((((((((((((((((((((yyyydypyisipyyysuuyuyiyyy(((((((((((((((((((((((((",
"((((((((((((((((((((((((((@9yayyayyyyyayyyyyyyyyyyyy(((((((((((((((((((((((((,ypiyyiyyyyyyypyyyyyyyyys,(((((((((((((((((((((((((",
"(((((((((((((((((((((((((( :yyyyyyyyyayyyyyyyyyyyyyy(((((((((((((((((((((((((8yyyyyyyyyyyyyyyyyyyyyyy9((((((((((((((((((((((((((",
"(((((((((((((((((((((((((((#9yyyyyyyyyyyyyyyyyyyytyy9(((((((((((((((((((((((:yyyyyyywyyyyyyywyyyyyyyy,((((((((((((((((((((((((((",
"((((((((((((((((((((((((((( >tyyyyrywyeyyyryyyyr0y9y9(((((((((((((((((((((((<wy9yyywy9yqyeyqyqyqryyw,(((((((((((((((((((((((((((",
"((((((((((((((((((((((((((((@3etrry9yqew9rwyrry0yyy0y9((((((((((((((((((((((99rwwqywyyqq9ywyy9tq900y*(((((((((((((((((((((((((((",
"((((((((((((((((((((((((((((.:tqtyrt9y9ey9y90y9wy9ty99(((((((((((((((((((((<yrryqwyw9yqyy9yy9ytyy0y:((((((((((((((((((((((((((((",
"(((((((((((((((((((((((((((((X,y9909y9ry9eee9w909y999y3((((((((((((((((((((99r90q99w099q9y99w99qe9<(((((((((((((((((((((((((((((",
"((((((((((((((((((((((((((((( %29r999r909e9999999y999y9(((((((((((((((((((<9909999q99w999qq9999999%(((((((((((((((((((((((((((((",
"(((((((((((((((((((((((((((((( $199e99999r09999r99999999(((((((((((((((((,999999qq99999999990q999;((((((((((((((((((((((((((((((",
"((((((((((((((((((((((((((((((  *999999999999999999999992((((((((((((((((99999999999999999999999:(((((((((((((((((((((((((((((((",
"((((((((((((((((((((((((((((((( o;799999999999989999999993(((((((((((((<39999999999999999999999:((((((((((((((((((((((((((((((((",
"(((((((((((((((((((((((((((((((( X;997997799886999893993933(((((((((((295393993955949499999693=(((((((((((((((((((((((((((((((((",
"((((((((((((((((((((((((((((((((( .*633569886996388848433379333((((32388598855355994883355968*((((((((((((((((((((((((((((((((((",
"(((((((((((((((((((((((((((((((((( .=9333338633633484846333393336333333333794533444444334833;.((((((((((((((((((((((((((((((((((",
"((((((((((((((((((((((((((((((((((  o%,333223323334232333333233332333622332333234323423333<=X(((((((((((((((((((((((((((((((((((",
"(((((((((((((((((((((((((((((((((((   $<2232333222232332332323222222324432332223232324232,@(((((((((((((((((((((((((((((((((((((",
"(((((((((((((((((((((((((((((((((((((  O&22222222222322222223232222222222222222222222222*O((((((((((((((((((((((((((((((((((((((",
"((((((((((((((((((((((((((((((((((((((   $;2222222222222222222222222222222122222222221;# (((((((((((((((((((((((((((((((((((((((",
"(((((((((((((((((((((((((((((((((((((((   X#:<121222212222222<2222222122222222222122,=O ((((((((((((((((((((((((((((((((((((((((",
"(((((((((((((((((((((((((((((((((((((((((   X#:<21221112111211222122212122<211212<,*O ((((((((((((((((((((((((((((((((((((((((((",
"((((((((((((((((((((((((((((((((((((((((((    .$;,<21111<22<1112<2<<<211222<111,=#O  (((((((((((((((((((((((((((((((((((((((((((",
"((((((((((((((((((((((((((((((((((((((((((((     o#=><212<22112<211212111111,*@X   (((((((((((((((((((((((((((((((((((((((((((((",
"((((((((((((((((((((((((((((((((((((((((((((((     ..+$$;,,,11<2112<2,,,,*$#X.   (((((((((((((((((((((((((((((((((((((((((((((((",
"(((((((((((((((((((((((((((((((((((((((((((((((((       XXXo$***&*&**+XXX     ((((((((((((((((((((((((((((((((((((((((((((((((((",
"((((((((((((((((((((((((((((((((((((((((((((((((((((                       (((((((((((((((((((((((((((((((((((((((((((((((((((((",
"(((((((((((((((((((((((((((((((((((((((((((((((((((((((((             ((((((((((((((((((((((((((((((((((((((((((((((((((((((((((",
"((((((((((((((((((((((((((((((((((((((((((((((((((((((((((((((((((((((((((((((((((((((((((((((((((((((((((((((((((((((((((((((((",
"((((((((((((((((((((((((((((((((((((((((((((((((((((((((((((((((((((((((((((((((((((((((((((((((((((((((((((((((((((((((((((((((",
"((((((((((((((((((((((((((((((((((((((((((((((((((((((((((((((((((((((((((((((((((((((((((((((((((((((((((((((((((((((((((((((((",
"((((((((((((((((((((((((((((((((((((((((((((((((((((((((((((((((((((((((((((((((((((((((((((((((((((((((((((((((((((((((((((((((",
"((((((((((((((((((((((((((((((((((((((((((((((((((((((((((((((((((((((((((((((((((((((((((((((((((((((((((((((((((((((((((((((((",
"((((((((((((((((((((((((((((((((((((((((((((((((((((((((((((((((((((((((((((((((((((((((((((((((((((((((((((((((((((((((((((((((",
"((((((((((((((((((((((((((((((((((((((((((((((((((((((((((((((((((((((((((((((((((((((((((((((((((((((((((((((((((((((((((((((((",
"((((((((((((((((((((((((((((((((((((((((((((((((((((((((((((((((((((((((((((((((((((((((((((((((((((((((((((((((((((((((((((((((",
"((((((((((((((((((((((((((((((((((((((((((((((((((((((((((((((((((((((((((((((((((((((((((((((((((((((((((((((((((((((((((((((((",
"((((((((((((((((((((((((((((((((((((((((((((((((((((((((((((((((((((((((((((((((((((((((((((((((((((((((((((((((((((((((((((((((",
"((((((((((((((((((((((((((((((((((((((((((((((((((((((((((((((((((((((((((((((((((((((((((((((((((((((((((((((((((((((((((((((((",
"((((((((((((((((((((((((((((((((((((((((((((((((((((((((((((((((((((((((((((((((((((((((((((((((((((((((((((((((((((((((((((((((",
"(((((((((((((((((((((((((((((((((((((((((((((((((((((((((((((((((((((((((((((((((((((((((((((((((((((((((((((((((((((((((((((((("
};
