<?xml version="1.0" encoding="UTF-8" standalone="no"?>
<svg
   xmlns:dc="http://purl.org/dc/elements/1.1/"
   xmlns:cc="http://creativecommons.org/ns#"
   xmlns:rdf="http://www.w3.org/1999/02/22-rdf-syntax-ns#"
   xmlns:svg="http://www.w3.org/2000/svg"
   xmlns="http://www.w3.org/2000/svg"
   xmlns:xlink="http://www.w3.org/1999/xlink"
   xmlns:sodipodi="http://sodipodi.sourceforge.net/DTD/sodipodi-0.dtd"
   xmlns:inkscape="http://www.inkscape.org/namespaces/inkscape"
   viewBox="0 0 64 64"
   id="svg2"
   version="1.1"
   inkscape:version="0.91 r13725"
   sodipodi:docname="text-x-qml.svg"
   width="64"
   height="64">
  <metadata
     id="metadata84">
    <rdf:RDF>
      <cc:Work
         rdf:about="">
        <dc:format>image/svg+xml</dc:format>
        <dc:type
           rdf:resource="http://purl.org/dc/dcmitype/StillImage" />
        <dc:title></dc:title>
      </cc:Work>
    </rdf:RDF>
  </metadata>
  <sodipodi:namedview
     pagecolor="#ffffff"
     bordercolor="#666666"
     borderopacity="1"
     objecttolerance="10"
     gridtolerance="10"
     guidetolerance="10"
     inkscape:pageopacity="0"
     inkscape:pageshadow="2"
     inkscape:window-width="1366"
     inkscape:window-height="703"
     id="namedview82"
     showgrid="true"
     inkscape:showpageshadow="false"
     inkscape:zoom="5.6568543"
     inkscape:cx="26.958373"
     inkscape:cy="34.210217"
     inkscape:window-x="0"
     inkscape:window-y="0"
     inkscape:window-maximized="1"
     inkscape:current-layer="svg2"
     showguides="true">
    <inkscape:grid
       type="xygrid"
       id="grid3413" />
    <sodipodi:guide
       position="0,64"
       orientation="64,0"
       id="guide3482" />
    <sodipodi:guide
       position="0,0"
       orientation="0,64"
       id="guide3484" />
    <sodipodi:guide
       position="64,0"
       orientation="-64,0"
       id="guide3486" />
    <sodipodi:guide
       position="64,64"
       orientation="0,-64"
       id="guide3488" />
    <sodipodi:guide
       position="10,61"
       orientation="58,0"
       id="guide3492" />
    <sodipodi:guide
       position="10,3"
       orientation="0,44"
       id="guide3494" />
    <sodipodi:guide
       position="54,3"
       orientation="-58,0"
       id="guide3496" />
    <sodipodi:guide
       position="54,61"
       orientation="0,-44"
       id="guide3498" />
    <sodipodi:guide
       position="54,47"
       orientation="-14,0"
       id="guide4310" />
    <sodipodi:guide
       position="54,61"
       orientation="0,-14"
       id="guide4312" />
    <sodipodi:guide
       position="21,43"
       orientation="22,0"
       id="guide4250" />
    <sodipodi:guide
       position="21,21"
       orientation="0,22"
       id="guide4252" />
    <sodipodi:guide
       position="43,21"
       orientation="-22,0"
       id="guide4254" />
    <sodipodi:guide
       position="43,43"
       orientation="0,-22"
       id="guide4256" />
  </sodipodi:namedview>
  <defs
     id="defs4">
    <linearGradient
       inkscape:collect="always"
       id="linearGradient4351">
      <stop
         style="stop-color:#566472;stop-opacity:1"
         offset="0"
         id="stop4353" />
      <stop
         style="stop-color:#5e6b78;stop-opacity:1"
         offset="1"
         id="stop4355" />
    </linearGradient>
    <linearGradient
       inkscape:collect="always"
       id="linearGradient4300">
      <stop
         style="stop-color:#bdc3c7;stop-opacity:1"
         offset="0"
         id="stop4302" />
      <stop
         style="stop-color:#dadfe1;stop-opacity:1"
         offset="1"
         id="stop4304" />
    </linearGradient>
    <linearGradient
       inkscape:collect="always"
       xlink:href="#linearGradient4300"
       id="linearGradient4306"
       x1="32"
       y1="61"
       x2="32"
       y2="3"
       gradientUnits="userSpaceOnUse" />
    <linearGradient
       gradientTransform="matrix(1,0,0,-1,-14,78)"
       inkscape:collect="always"
       xlink:href="#linearGradient4410"
       id="linearGradient4427"
       x1="54"
       y1="31"
       x2="40"
       y2="17"
       gradientUnits="userSpaceOnUse" />
    <linearGradient
       inkscape:collect="always"
       id="linearGradient4410">
      <stop
         style="stop-color:#383e51;stop-opacity:1"
         offset="0"
         id="stop4412" />
      <stop
         style="stop-color:#655c6f;stop-opacity:0"
         offset="1"
         id="stop4414" />
    </linearGradient>
    <linearGradient
       inkscape:collect="always"
       xlink:href="#linearGradient4351"
       id="linearGradient4357"
       x1="47"
       y1="61"
       x2="47"
       y2="47"
       gradientUnits="userSpaceOnUse" />
    <linearGradient
       inkscape:collect="always"
       xlink:href="#linearGradient4286"
       id="linearGradient4282-7"
       y1="-0.88342798"
       x1="-41.25518"
       y2="37.95583"
       x2="-2.993856"
       gradientUnits="userSpaceOnUse"
       gradientTransform="matrix(0.77139832,0,0,0.75991976,45.18603,9.1857393)" />
    <linearGradient
       inkscape:collect="always"
       id="linearGradient4286">
      <stop
         style="stop-color:#66b036"
         id="stop4288" />
      <stop
         offset="1"
         style="stop-color:#239161"
         id="stop4290" />
    </linearGradient>
    <linearGradient
       inkscape:collect="always"
       xlink:href="#linearGradient4223"
       id="linearGradient4229-9-6"
       y1="9.2683239"
       x1="-28.755592"
       y2="27.436483"
       x2="-10.857779"
       gradientUnits="userSpaceOnUse"
       gradientTransform="matrix(0.77139832,0,0,0.75991976,45.962741,9.1857385)" />
    <linearGradient
       inkscape:collect="always"
       id="linearGradient4223">
      <stop
         id="stop4225" />
      <stop
         offset="1"
         style="stop-opacity:0"
         id="stop4227" />
    </linearGradient>
    <linearGradient
       inkscape:collect="always"
       xlink:href="#linearGradient4223"
       id="linearGradient4229-8-2-3"
       y1="9.1779833"
       x1="-14.649697"
       y2="17.521618"
       x2="-6.4302182"
       gradientUnits="userSpaceOnUse"
       gradientTransform="matrix(0.77139832,0,0,0.75991976,46.739452,9.1857385)" />
    <linearGradient
       inkscape:collect="always"
       xlink:href="#linearGradient4899"
       id="linearGradient4282-5-3"
       y1="37.95583"
       x1="-2.9938569"
       y2="-0.88342798"
       x2="-41.25518"
       gradientUnits="userSpaceOnUse"
       gradientTransform="matrix(0.77139832,0,0,0.75991976,45.962741,9.1857393)" />
    <linearGradient
       inkscape:collect="always"
       id="linearGradient4899">
      <stop
         style="stop-color:#34495e"
         id="stop4901" />
      <stop
         offset="1"
         style="stop-color:#1c7865"
         id="stop4903" />
    </linearGradient>
  </defs>
  <path
     style="fill:url(#linearGradient4306);fill-opacity:1;stroke:none"
     d="M 10 3 L 10 61 L 40 61 L 54 47 L 54 17 L 54 3 L 40 3 L 10 3 z "
     id="rect3500" />
  <rect
     style="opacity:1;fill:#2e3132;fill-opacity:0.29411765;stroke:none"
     id="rect4169"
     width="30"
     height="1"
     x="10"
     y="60" />
  <rect
     style="opacity:1;fill:#ffffff;fill-opacity:0.40983605;stroke:none"
     id="rect4236"
     width="44"
     height="1"
     x="10"
     y="3" />
  <path
     style="opacity:1;fill:#5e6b78;fill-opacity:1;stroke:none"
     d="m 14.105708,42.313709 0,1 22,0 0,-1 z m 0,3 0,1 19,0 0,-1 z m 0,2 0,1 11,0 0,-1 z m 0,3 0,1 22,0 0,-1 z m 0,3 0,1 16,0 0,-1 z"
     id="rect4274"
     inkscape:connector-curvature="0"
     sodipodi:nodetypes="ccccccccccccccccccccccccc" />
  <path
     style="fill:url(#linearGradient4357);fill-opacity:1;fill-rule:evenodd;stroke:none;stroke-width:1px;stroke-linecap:butt;stroke-linejoin:miter;stroke-opacity:1"
     d="M 54,47 40,61 40,47 Z"
     id="path4314"
     inkscape:connector-curvature="0" />
  <path
     inkscape:connector-curvature="0"
     id="path4320"
     d="M 26,61 40,47 40,61 Z"
     style="opacity:0.2;fill:url(#linearGradient4427);fill-opacity:1;fill-rule:evenodd;stroke:none;stroke-width:1px;stroke-linecap:butt;stroke-linejoin:miter;stroke-opacity:1" />
  <path
     inkscape:connector-curvature="0"
     style="fill:url(#linearGradient4282-7);stroke-width:2;stroke-linecap:round;stroke-linejoin:bevel"
     id="rect4274-77"
     d="m 18.167713,9.291108 c -2.232199,0 -3.962317,1.772016 -4.029147,3.969984 l 0,25.544734 25.48557,0 c 2.232199,0 4.029148,-1.771001 4.029148,-3.969985 l 0,-25.544733 z" />
  <path
     inkscape:connector-curvature="0"
     style="opacity:0.2;fill:url(#linearGradient4229-9-6);fill-rule:evenodd;stroke-width:1.01445305"
     id="path4221-2-35"
     d="m 23.459003,14.728029 -2.33011,3.106812 1.896249,13.203952 2.330109,1.553406 -0.828281,1.553407 3.341947,3.341947 10.037975,-1.453284 c 0.375699,-0.06451 0.729923,-0.225954 1.051284,-0.458133 l -4.273383,-6.60046 0.612869,-6.990328 -6.990332,-6.990328 z" />
  <path
     inkscape:connector-curvature="0"
     style="opacity:0.2;fill:url(#linearGradient4229-8-2-3);fill-rule:evenodd;stroke-width:1.01445305"
     id="path4221-9-1-6"
     d="m 36.66296,15.504732 -2.330117,15.534063 5.20786,5.207855 c 0.819833,-0.713486 1.782471,-2.761278 1.782471,-4.030665 l 0,-12.051035 z" />
  <path
     inkscape:connector-curvature="0"
     style="fill:#ffffff;stroke-width:2;stroke-linecap:round;stroke-linejoin:bevel"
     id="path4291-9"
     d="m 25.01241,13.951326 c -3.106813,10e-7 -5.436922,1.553406 -5.436922,8.932086 0,6.086441 1.657563,8.205295 3.922957,8.762182 0.404421,4.688851 5.39748,3.276716 5.39748,3.276716 l 0,-1.553406 c 0,0 -2.014373,0.668428 -2.295218,-1.739997 2.227745,-0.584644 3.848624,-2.72487 3.848624,-8.745495 0,-7.37868 -2.330109,-8.932087 -5.436921,-8.932086 z m 0,1.553407 c 1.553405,0 2.330109,1.283247 2.330109,7.378679 0,6.095433 -0.776704,7.378679 -2.330109,7.37868 -1.553406,0 -2.330111,-1.283247 -2.330111,-7.37868 0,-6.095432 0.776705,-7.378679 2.330111,-7.378679 z" />
  <path
     inkscape:connector-curvature="0"
     style="fill:url(#linearGradient4282-5-3);stroke-width:2;stroke-linecap:round;stroke-linejoin:bevel"
     id="rect4274-7-1"
     d="m 43.653284,34.059138 c 0,2.198984 -1.796949,3.969984 -4.029148,3.969984 l -25.48557,0 0,0.776704 25.48557,0 c 2.232199,0 4.029148,-1.771001 4.029148,-3.969985 z" />
  <path
     inkscape:connector-curvature="0"
     style="fill:#ffffff;fill-rule:evenodd;stroke-width:1.01445305"
     id="path4289-2"
     d="m 34.33285,15.504733 2.33011,0 0,3.106812 1.553402,0 0,1.553406 -1.553402,0 0,8.543735 c 0,1.553406 1.553402,0.388352 1.553402,0.388352 l 0,1.553406 c 0,0 -4.660217,2.71846 -4.660217,-1.941758 l 0,-8.543735 -0.776706,0 0,-1.553406 0.776706,0 z" />
</svg>
