<?xml version="1.0" encoding="UTF-8" standalone="no"?>
<!-- Created with Inkscape (http://www.inkscape.org/) -->

<svg
   xmlns:dc="http://purl.org/dc/elements/1.1/"
   xmlns:cc="http://creativecommons.org/ns#"
   xmlns:rdf="http://www.w3.org/1999/02/22-rdf-syntax-ns#"
   xmlns:svg="http://www.w3.org/2000/svg"
   xmlns="http://www.w3.org/2000/svg"
   xmlns:sodipodi="http://sodipodi.sourceforge.net/DTD/sodipodi-0.dtd"
   xmlns:inkscape="http://www.inkscape.org/namespaces/inkscape"
   width="48"
   height="48"
   id="svg4216"
   version="1.1"
   inkscape:version="0.91 r13725"
   viewBox="0 0 48 48"
   sodipodi:docname="evince.svg">
  <defs
     id="defs4218" />
  <sodipodi:namedview
     id="base"
     pagecolor="#242424"
     bordercolor="#666666"
     borderopacity="1.0"
     inkscape:pageopacity="0"
     inkscape:pageshadow="2"
     inkscape:zoom="11"
     inkscape:cx="22.221211"
     inkscape:cy="10.685866"
     inkscape:current-layer="layer1"
     showgrid="false"
     inkscape:document-units="px"
     inkscape:grid-bbox="true"
     showguides="false"
     inkscape:guide-bbox="true"
     objecttolerance="10000"
     guidetolerance="10000"
     inkscape:snap-path-clip="true"
     inkscape:snap-perpendicular="true"
     inkscape:snap-tangential="true"
     inkscape:window-width="1280"
     inkscape:window-height="987"
     inkscape:window-x="1366"
     inkscape:window-y="0"
     inkscape:window-maximized="1">
    <inkscape:grid
       type="xygrid"
       id="grid4764" />
    <sodipodi:guide
       position="0,57"
       orientation="1,0"
       id="guide4768" />
    <sodipodi:guide
       position="17,0"
       orientation="0,1"
       id="guide4772" />
    <sodipodi:guide
       position="40,48"
       orientation="0,1"
       id="guide4150" />
    <sodipodi:guide
       position="3,41"
       orientation="1,0"
       id="guide4154" />
    <sodipodi:guide
       position="7,45"
       orientation="0,1"
       id="guide4156" />
    <sodipodi:guide
       position="24,3"
       orientation="0,1"
       id="guide4160" />
    <sodipodi:guide
       position="41,22"
       orientation="1,0"
       id="guide4143" />
  </sodipodi:namedview>
  <metadata
     id="metadata4221">
    <rdf:RDF>
      <cc:Work
         rdf:about="">
        <dc:format>image/svg+xml</dc:format>
        <dc:type
           rdf:resource="http://purl.org/dc/dcmitype/StillImage" />
        <dc:title />
        <dc:creator>
          <cc:Agent>
            <dc:title>Chris D</dc:title>
          </cc:Agent>
        </dc:creator>
        <dc:description>diazchris.deviantart.com</dc:description>
      </cc:Work>
    </rdf:RDF>
  </metadata>
  <g
     id="layer1"
     inkscape:label="Layer 1"
     inkscape:groupmode="layer"
     transform="translate(0,-16)">
    <rect
       style="opacity:1;fill:#ffffff;fill-opacity:1;fill-rule:nonzero;stroke:#b6c1c9;stroke-width:0.5;stroke-linecap:round;stroke-linejoin:miter;stroke-miterlimit:4;stroke-dasharray:none;stroke-dashoffset:0;stroke-opacity:1"
       id="rect4197"
       width="42"
       height="42"
       x="3"
       y="19"
       ry="0"
       rx="0" />
    <path
       style="fill:#e67760"
       d="m 4.1562742,52.678814 c 0.6240337,-0.329945 2.0103053,-1.027558 3.0806031,-1.550262 1.0702977,-0.522699 2.4129168,-1.206316 2.9835967,-1.519146 1.087782,-0.596293 2.844567,-1.711756 2.844567,-1.806139 0,-0.03032 -0.198554,-0.192283 -0.441239,-0.359947 -1.147439,-0.792754 -2.491313,-2.506108 -3.154929,-4.022343 -0.7839644,-1.791214 -1.0681065,-3.285856 -1.0033723,-5.277922 0.071506,-2.20044 0.4964519,-3.550864 1.6697063,-5.306105 1.355574,-2.027997 3.121893,-3.531011 5.477598,-4.661034 2.237727,-1.073436 4.503596,-1.549805 6.548462,-1.376734 1.173137,0.09929 1.830958,0.280795 2.880178,0.794675 1.514319,0.741673 2.49155,1.761187 3.276539,3.418319 0.534622,1.128598 0.665794,1.689454 0.664359,2.840629 -0.0013,0.998194 -0.112724,1.595645 -0.470485,2.521347 -1.28483,3.324503 -5.019581,6.907905 -10.859595,10.419535 l -0.749636,0.450752 0.791651,0.286458 c 3.772691,1.365108 7.707307,1.437504 12.124997,0.223111 4.859839,-1.335949 10.373711,-4.490625 14.067812,-8.048684 l 0.862913,-0.83113 0,3.662571 0,3.662575 -0.357194,0.242173 c -1.820355,1.234201 -5.580499,2.934327 -8.467533,3.828548 -3.400361,1.053216 -6.284443,1.506894 -9.539103,1.500532 -4.080749,-0.0081 -7.629093,-0.826743 -11.117731,-2.565383 l -1.032341,-0.514488 -0.703091,0.356706 c -2.202198,1.117244 -9.3395663,4.035246 -10.2375396,4.18546 -0.1717509,0.02873 0.1490848,-0.177782 0.8608068,-0.554074 z M 16.931104,45.381709 c 1.98169,-1.238515 3.698986,-2.608965 5.382365,-4.295281 1.82598,-1.829167 2.843359,-3.23017 3.556815,-4.897987 0.882313,-2.06255 0.714427,-4.057162 -0.455245,-5.408612 -1.104688,-1.276366 -2.540814,-1.89029 -4.449772,-1.902204 -3.933082,-0.02455 -8.015072,2.666739 -9.591782,6.323946 -1.6394048,3.802636 -0.647033,7.719008 2.695002,10.635728 l 0.793338,0.692376 0.593407,-0.298221 c 0.326372,-0.164013 0.990519,-0.546403 1.475872,-0.849745 z"
       id="path4148"
       inkscape:connector-curvature="0"
       sodipodi:nodetypes="sssssssssssscsscssscccsssscsssssssssscss" />
  </g>
</svg>
