<?xml version="1.0" encoding="UTF-8" standalone="no"?>
<!-- Created with Inkscape (http://www.inkscape.org/) -->

<svg
   xmlns:dc="http://purl.org/dc/elements/1.1/"
   xmlns:cc="http://creativecommons.org/ns#"
   xmlns:rdf="http://www.w3.org/1999/02/22-rdf-syntax-ns#"
   xmlns:svg="http://www.w3.org/2000/svg"
   xmlns="http://www.w3.org/2000/svg"
   xmlns:sodipodi="http://sodipodi.sourceforge.net/DTD/sodipodi-0.dtd"
   xmlns:inkscape="http://www.inkscape.org/namespaces/inkscape"
   width="48"
   height="48"
   id="svg4216"
   version="1.1"
   inkscape:version="0.91 r13725"
   viewBox="0 0 48 48"
   sodipodi:docname="preferences-system-privacy.svg">
  <defs
     id="defs4218" />
  <sodipodi:namedview
     id="base"
     pagecolor="#242424"
     bordercolor="#666666"
     borderopacity="1.0"
     inkscape:pageopacity="0"
     inkscape:pageshadow="2"
     inkscape:zoom="11"
     inkscape:cx="3.4795737"
     inkscape:cy="21.656041"
     inkscape:current-layer="layer1"
     showgrid="false"
     inkscape:document-units="px"
     inkscape:grid-bbox="true"
     showguides="false"
     inkscape:guide-bbox="true"
     objecttolerance="10000"
     guidetolerance="10000"
     inkscape:snap-path-clip="true"
     inkscape:snap-perpendicular="true"
     inkscape:snap-tangential="true"
     inkscape:window-width="1366"
     inkscape:window-height="704"
     inkscape:window-x="0"
     inkscape:window-y="27"
     inkscape:window-maximized="1">
    <inkscape:grid
       type="xygrid"
       id="grid4764" />
    <sodipodi:guide
       position="0,57"
       orientation="1,0"
       id="guide4768" />
    <sodipodi:guide
       position="17,0"
       orientation="0,1"
       id="guide4772" />
    <sodipodi:guide
       position="40,48"
       orientation="0,1"
       id="guide4150" />
    <sodipodi:guide
       position="7,45"
       orientation="0,1"
       id="guide4156" />
    <sodipodi:guide
       position="24,3"
       orientation="0,1"
       id="guide4160" />
    <sodipodi:guide
       position="40,46"
       orientation="1,0"
       id="guide4143" />
    <sodipodi:guide
       position="25,16"
       orientation="-0.70710678,0.70710678"
       id="guide4145" />
    <sodipodi:guide
       position="24,15"
       orientation="0.70710678,0.70710678"
       id="guide4147" />
    <sodipodi:guide
       position="24,23"
       orientation="1,0"
       id="guide4149" />
    <sodipodi:guide
       position="8,37"
       orientation="1,0"
       id="guide4151" />
    <sodipodi:guide
       position="19,40"
       orientation="0,1"
       id="guide4153" />
    <sodipodi:guide
       position="1,35"
       orientation="0,1"
       id="guide4163" />
    <sodipodi:guide
       position="23,15"
       orientation="0,1"
       id="guide4165" />
    <sodipodi:guide
       position="45,26"
       orientation="1,0"
       id="guide4152" />
  </sodipodi:namedview>
  <metadata
     id="metadata4221">
    <rdf:RDF>
      <cc:Work
         rdf:about="">
        <dc:format>image/svg+xml</dc:format>
        <dc:type
           rdf:resource="http://purl.org/dc/dcmitype/StillImage" />
        <dc:title />
        <dc:creator>
          <cc:Agent>
            <dc:title>Chris D</dc:title>
          </cc:Agent>
        </dc:creator>
        <dc:description>diazchris.deviantart.com</dc:description>
      </cc:Work>
    </rdf:RDF>
  </metadata>
  <g
     id="layer1"
     inkscape:label="Layer 1"
     inkscape:groupmode="layer"
     transform="translate(0,-16)">
    <path
       style="opacity:1;fill:#e7e7e7;fill-opacity:1;fill-rule:nonzero;stroke:#5f7a8d;stroke-width:0.5;stroke-linecap:square;stroke-linejoin:miter;stroke-miterlimit:4;stroke-dasharray:none;stroke-dashoffset:0;stroke-opacity:1"
       d="M 23.863281 3 C 17.844827 3 13 7.46 13 13 L 13 28.216797 A 12 12 0 0 0 12 33 A 12 12 0 0 0 24 45 A 12 12 0 0 0 36 33 A 12 12 0 0 0 35 28.240234 L 35 13 C 35 7.46 30.155173 3 24.136719 3 L 23.863281 3 z M 24 5 C 28.986 5 33 8.568 33 13 L 33 25.085938 A 12 12 0 0 0 24 21 A 12 12 0 0 0 15 25.078125 L 15 13 C 15 8.568 19.014 5 24 5 z "
       transform="translate(0,16)"
       id="rect4166" />
    <path
       style="color:#000000;font-style:normal;font-variant:normal;font-weight:normal;font-stretch:normal;font-size:medium;line-height:normal;font-family:sans-serif;text-indent:0;text-align:start;text-decoration:none;text-decoration-line:none;text-decoration-style:solid;text-decoration-color:#000000;letter-spacing:normal;word-spacing:normal;text-transform:none;direction:ltr;block-progression:tb;writing-mode:lr-tb;baseline-shift:baseline;text-anchor:start;white-space:normal;clip-rule:nonzero;display:inline;overflow:visible;visibility:visible;opacity:1;isolation:auto;mix-blend-mode:normal;color-interpolation:sRGB;color-interpolation-filters:linearRGB;solid-color:#000000;solid-opacity:1;fill:#5f7a8d;fill-opacity:1;fill-rule:nonzero;stroke:none;stroke-width:2.5;stroke-linecap:butt;stroke-linejoin:miter;stroke-miterlimit:4;stroke-dasharray:1.25, 1.25000000000000000;stroke-dashoffset:0;stroke-opacity:1;color-rendering:auto;image-rendering:auto;shape-rendering:auto;text-rendering:auto;enable-background:accumulate"
       d="M 23.871094 22.75 L 23.902344 25.25 C 23.974315 25.249089 24.045427 25.256726 24.117188 25.257812 L 24.777344 25.291016 C 24.840493 25.29738 24.901979 25.310458 24.964844 25.318359 L 25.154297 25.347656 L 25.154297 25.345703 C 25.526028 25.401819 25.894403 25.47532 26.251953 25.583984 L 26.251953 25.585938 L 26.263672 25.589844 C 26.409665 25.634481 26.552339 25.689052 26.695312 25.742188 L 26.970703 25.84375 C 27.39161 26.0186 27.794528 26.235332 28.179688 26.482422 C 28.223721 26.51067 28.270959 26.533337 28.314453 26.5625 L 28.326172 26.570312 L 28.931641 27.023438 C 28.952568 27.040714 28.971425 27.060615 28.992188 27.078125 C 29.173786 27.231272 29.351343 27.389883 29.519531 27.560547 C 29.61744 27.659897 29.704927 27.767189 29.796875 27.871094 C 29.865325 27.948445 29.936859 28.02377 30.001953 28.103516 L 30.230469 28.40625 C 30.518496 28.796682 30.767707 29.210744 30.976562 29.644531 L 30.998047 29.6875 C 31.058386 29.814838 31.118594 29.941898 31.171875 30.072266 L 31.296875 30.414062 C 31.440676 30.819343 31.559954 31.234589 31.634766 31.660156 L 31.625 31.662109 L 31.677734 32.005859 C 31.688979 32.092554 31.702622 32.178401 31.710938 32.265625 L 31.736328 32.779297 L 31.738281 32.779297 C 31.741067 32.876861 31.745053 32.974308 31.744141 33.072266 L 31.707031 33.800781 L 31.667969 34.056641 L 34.138672 34.433594 L 34.189453 34.109375 L 34.199219 34.046875 L 34.201172 33.982422 L 34.236328 33.279297 L 34.246094 33.279297 C 34.2472 33.238753 34.241563 33.198708 34.242188 33.158203 L 34.248047 33.0625 L 34.240234 33.0625 C 34.241061 32.926098 34.235059 32.790126 34.230469 32.654297 L 34.234375 32.654297 L 34.228516 32.527344 C 34.222343 32.393681 34.218392 32.259872 34.207031 32.126953 L 34.201172 32.017578 L 34.199219 31.953125 L 34.189453 31.890625 L 34.125 31.458984 C 34.0407 30.905246 33.906656 30.36373 33.734375 29.833984 L 33.746094 29.830078 L 33.583984 29.388672 C 33.559775 29.324408 33.539166 29.259076 33.513672 29.195312 L 33.466797 29.066406 L 33.445312 29.009766 L 33.417969 28.955078 L 33.228516 28.560547 C 33.030667 28.14902 32.810706 27.748344 32.558594 27.365234 L 32.554688 27.359375 L 32.53125 27.318359 L 32.5 27.267578 L 32.464844 27.21875 L 32.146484 26.794922 C 32.082166 26.710445 32.022144 26.623633 31.955078 26.541016 C 31.95158 26.536707 31.948818 26.531647 31.945312 26.527344 L 31.910156 26.478516 L 31.869141 26.433594 L 31.646484 26.189453 L 31.644531 26.191406 C 31.529799 26.062546 31.422482 25.92818 31.300781 25.804688 C 31.100927 25.601891 30.888152 25.41459 30.673828 25.230469 C 30.673496 25.230183 30.674161 25.228801 30.673828 25.228516 L 30.566406 25.130859 L 30.533203 25.101562 L 30.521484 25.089844 L 30.472656 25.054688 L 29.78125 24.535156 L 29.732422 24.5 L 29.707031 24.484375 C 29.698771 24.47884 29.689916 24.47426 29.681641 24.46875 L 29.476562 24.345703 C 29.089509 24.100806 28.686334 23.885769 28.271484 23.695312 L 28.273438 23.691406 L 28.044922 23.582031 L 27.990234 23.554688 L 27.933594 23.533203 L 27.90625 23.523438 L 27.898438 23.519531 C 27.876167 23.510374 27.852413 23.505094 27.830078 23.496094 L 27.105469 23.230469 L 27.046875 23.208984 L 26.988281 23.193359 L 26.949219 23.183594 C 26.486895 23.044671 26.011288 22.949608 25.53125 22.876953 L 25.53125 22.875 L 25.109375 22.810547 L 25.046875 22.800781 L 24.982422 22.798828 L 24.976562 22.798828 C 24.820502 22.78388 24.663017 22.781221 24.505859 22.773438 L 24.162109 22.755859 L 24.162109 22.761719 C 24.064754 22.760173 23.968734 22.748764 23.871094 22.75 z M 22.664062 22.845703 L 21.998047 22.947266 L 21.935547 22.957031 L 21.875 22.972656 L 21.318359 23.115234 L 21.941406 25.537109 L 22.435547 25.408203 L 23.041016 25.316406 L 22.664062 22.845703 z M 19.90625 23.605469 L 19.167969 23.960938 L 19.113281 23.986328 L 19.060547 24.017578 L 18.693359 24.242188 L 19.990234 26.378906 L 20.304688 26.1875 L 20.990234 25.857422 L 19.90625 23.605469 z M 17.568359 25.023438 L 17.527344 25.054688 L 17.478516 25.089844 L 17.433594 25.130859 L 16.794922 25.710938 L 16.751953 25.751953 L 16.710938 25.794922 L 16.486328 26.042969 L 18.335938 27.724609 L 18.521484 27.519531 L 19.0625 27.027344 L 19.066406 27.025391 L 19.115234 26.980469 L 18.644531 26.460938 L 17.568359 25.023438 z M 15.623047 27.103516 L 15.535156 27.21875 L 15.5 27.267578 L 15.46875 27.318359 L 15.017578 28.060547 L 14.986328 28.113281 L 14.960938 28.167969 L 14.857422 28.380859 L 17.109375 29.464844 L 17.185547 29.306641 L 17.574219 28.669922 L 17.625 28.599609 L 15.623047 27.103516 z M 14.322266 29.642578 L 14.230469 29.894531 L 14.208984 29.953125 L 14.193359 30.011719 L 13.972656 30.875 L 13.957031 30.935547 L 13.947266 30.998047 L 13.933594 31.087891 L 16.078125 31.416016 L 16.392578 31.498047 L 16.400391 31.466797 L 16.404297 31.466797 L 16.410156 31.433594 L 16.599609 30.693359 L 16.669922 30.501953 L 14.322266 29.642578 z M 13.775391 32.455078 L 13.751953 32.9375 L 13.748047 33 L 13.751953 33.0625 L 13.791016 33.828125 L 16.287109 33.703125 L 16.251953 33 L 16.273438 32.580078 L 13.775391 32.455078 z M 16.441406 34.6875 L 14.019531 35.310547 L 14.193359 35.988281 L 14.208984 36.046875 L 14.230469 36.105469 L 14.419922 36.623047 L 16.767578 35.763672 L 16.599609 35.306641 L 16.441406 34.6875 z M 31.439453 35.15625 L 31.400391 35.302734 L 31.142578 36.009766 L 31.099609 36.099609 L 33.351562 37.183594 L 33.417969 37.044922 L 33.445312 36.990234 L 33.466797 36.933594 L 33.769531 36.105469 L 33.791016 36.046875 L 33.806641 35.988281 L 33.859375 35.779297 L 31.439453 35.15625 z M 17.179688 36.681641 L 15.042969 37.978516 L 15.46875 38.681641 L 15.5 38.732422 L 15.535156 38.78125 L 15.792969 39.125 L 17.794922 37.626953 L 17.570312 37.326172 L 17.179688 36.681641 z M 30.570312 37.09375 L 30.429688 37.326172 L 29.988281 37.917969 L 29.943359 37.976562 L 30.554688 38.433594 L 31.837891 39.599609 L 31.869141 39.566406 L 31.910156 39.521484 L 31.945312 39.472656 L 32.464844 38.78125 L 32.5 38.732422 L 32.53125 38.681641 L 32.707031 38.392578 L 30.570312 37.09375 z M 18.476562 38.439453 L 17.988281 38.976562 L 16.677734 40.167969 L 16.710938 40.205078 L 16.751953 40.248047 L 16.794922 40.289062 L 17.433594 40.869141 L 17.478516 40.910156 L 17.527344 40.945312 L 17.796875 41.146484 L 19.292969 39.144531 L 19.068359 38.976562 L 18.527344 38.486328 L 18.476562 38.439453 z M 29.203125 38.730469 L 28.931641 38.976562 L 28.320312 39.435547 L 29.816406 41.4375 L 30.472656 40.945312 L 30.521484 40.910156 L 30.566406 40.869141 L 30.884766 40.580078 L 29.203125 38.730469 z M 20.234375 39.769531 L 18.935547 41.90625 L 19.060547 41.982422 L 19.113281 42.013672 L 19.167969 42.039062 L 19.955078 42.417969 L 20.009766 42.445312 L 20.066406 42.466797 L 20.283203 42.544922 L 21.142578 40.197266 L 20.988281 40.142578 L 20.304688 39.8125 L 20.234375 39.769531 z M 27.445312 39.933594 L 27.009766 40.142578 L 26.404297 40.363281 L 27.263672 42.710938 L 27.933594 42.466797 L 27.990234 42.445312 L 28.044922 42.417969 L 28.529297 42.185547 L 27.445312 39.933594 z M 22.214844 40.533203 L 21.59375 42.955078 L 21.875 43.027344 L 21.935547 43.042969 L 21.998047 43.052734 L 22.890625 43.189453 L 22.953125 43.199219 L 23.017578 43.201172 L 23.072266 43.205078 L 23.162109 41.414062 L 23.267578 40.71875 L 23.197266 40.707031 L 23.189453 40.707031 L 22.4375 40.591797 L 22.214844 40.533203 z M 25.435547 40.611328 L 24.804688 40.707031 L 24.320312 40.732422 L 24.445312 43.228516 L 24.982422 43.201172 L 25.046875 43.199219 L 25.109375 43.189453 L 25.8125 43.082031 L 25.435547 40.611328 z "
       transform="translate(0,16)"
       id="path4262" />
    <path
       style="opacity:1;fill:#8698a6;fill-opacity:1;fill-rule:nonzero;stroke:#5f7a8d;stroke-width:0.5;stroke-linecap:square;stroke-linejoin:miter;stroke-miterlimit:4;stroke-dasharray:none;stroke-dashoffset:0;stroke-opacity:1"
       d="M 27 30 L 24 31 A 2 2 0 0 0 22 33 A 2 2 0 0 0 24 35 A 2 2 0 0 0 26 33 L 27 30 z "
       transform="translate(0,16)"
       id="path4175" />
  </g>
</svg>
