/* XPM */
static char *bluefish[] = {
/* columns rows colors chars-per-pixel */
"128 128 61 1",
"  c #006600660066",
". c #046A046A046A",
"X c #07A107A107A1",
"o c #0B3E0B3E0B3E",
"O c #0E0E0E0E0E0E",
"+ c #11AB11AB11AB",
"@ c #134612DF12DF",
"# c #147A147A147A",
"$ c #187E187E187E",
"% c #1BB51BB51BB5",
"& c #1E841E841E84",
"* c #222222222222",
"= c #24F124F124F1",
"- c #27C127C127C1",
"; c #2AF72AF72AF7",
": c #2CF92C922CF9",
"> c #2E942E942E94",
", c #3232323231CB",
"< c #331932FF334C",
"1 c #350135013501",
"2 c #366736733664",
"3 c #37D137D13838",
"4 c #39D3396C396C",
"5 c #396C39D3396C",
"6 c #39D339D3396C",
"7 c #396C396C39D3",
"8 c #39D3396C39D3",
"9 c #396C39D339D3",
"0 c #3B6E3B6E3B6E",
"q c #3D093CA23CA2",
"w c #3CA23D093CA2",
"e c #3D093D093CA2",
"r c #3CA23CA23D09",
"t c #3EA43EA43EA4",
"y c #400B40113FFB",
"u c #41DB41DB41DB",
"i c #433643384348",
"p c #451145114511",
"a c #4677467D466B",
"s c #47E147E147E1",
"d c #49E3497C497C",
"f c #497C49E3497C",
"g c #49E349E3497C",
"h c #497C497C49E3",
"j c #49E3497C49E3",
"k c #497C49E349E3",
"l c #4B174B174B17",
"z c #4D194CB24CB2",
"x c #4CB24D194CB2",
"c c #4D194D194CB2",
"v c #4CB24CB24D19",
"b c #4D194CB24D19",
"n c #4CB24D194D19",
"m c #4E4E4E4E4E4E",
"M c #5019501E501B",
"N c #518451845184",
"B c #535153595360",
"V c #54BA54BA54BA",
"C c #568F568B568D",
"Z c #578A578A578A",
"A c None",
/* pixels */
"AAAAAAAAAAAAAAAAAAAAAAAAAAAAAAAAAAAAAAAAAAAAAAAAAAAAAAAAAAAAAAAAAAAAAAAAAAAAAAAAAAAAAAAAAAAAAAAAAAAAAAAAAAAAAAAAAAAAAAAAAAAAAAAA",
"AAAAAAAAAAAAAAAAAAAAAAAAAAAAAAAAAAAAAAAAAAAAAAAAAAAAAAAAAAAAAAAAAAAAAAAAAAAAAAAAAAAAAAAAAAAAAAAAAAAAAAAAAAAAAAAAAAAAAAAAAAAAAAAA",
"AAAAAAAAAAAAAAAAAAAAAAAAAAAAAAAAAAAAAAAAAAAAAAAAAAAAAAAAAAAAAAAAAAAAAAAAAAAAAAAAAAAAAAAAAAAAAAAAAAAAAAAAAAAAAAAAAAAAAAAAAAAAAAAA",
"AAAAAAAAAAAAAAAAAAAAAAAAAAAAAAAAAAAAAAAAAAAAAAAAAAAAAAAAAAAAAAAAAAAAAAAAAAAAAAAAAAAAAAAAAAAAAAAAAAAAAAAAAAAAAAAAAAAAAAAAAAAAAAAA",
"AAAAAAAAAAAAAAAAAAAAAAAAAAAAAAAAAAAAAAAAAAAAAAAAAAAAAAAAAAAAAAAAAAAAAAAAAAAAAAAAAAAAAAAAAAAAAAAAAAAAAAAAAAAAAAAAAAAAAAAAAAAAAAAA",
"AAAAAAAAAAAAAAAAAAAAAAAAAAAAAAAAAAAAAAAAAAAAAAAAAAAAAAAAAAAAAAAAAAAAAAAAAAAAAAAAAAAAAAAAAAAAAAAAAAAAAAAAAAAAAAAAAAAAAAAAAAAAAAAA",
"AAAAAAAAAAAAAAAAAAAAAAAAAAAAAAAAAAAAAAAAAAAAAAAAAAAAAAAAAAAAAAAAAAAAAAAAAAAAAAAAAAAAAAAAAAAAAAAAAAAAAAAAAAAAAAAAAAAAAAAAAAAAAAAA",
"AAAAAAAAAAAAAAAAAAAAAAAAAAAAAAAAAAAAAAAAAAAAAAAAAAAAAAAAAAAAAAAAAAAAAAAAAAAAAAAAAAAAAAAAAAAAAAAAAAAAAAAAAAAAAAAAAAAAAAAAAAAAAAAA",
"AAAAAAAAAAAAAAAAAAAAAAAAAAAAAAAAAAAAAAAAAAAAAAAAAAAAAAAAAAAAAAAAAAAAAAAAAAAAAAAAAAAAAAAAAAAAAAAAAAAAAAAAAAAAAAAAAAAAAAAAAAAAAAAA",
"AAAAAAAAAAAAAAAAAAAAAAAAAAAAAAAAAAAAAAAAAAAAAAAAAAAAAAAAAAAAAAAAAAAAAAAAAAAAAAAAAAAAAAAAAAAAAAAAAAAAAAAAAAAAAAAAAAAAAAAAAAAAAAAA",
"AAAAAAAAAAAAAAAAAAAAAAAAAAAAAAAAAAAAAAAAAAAAAAAAAAAAAAAAAAAAAAAAAAAAAAAAAAAAAAAAAAAAAAAAAAAAAAAAAAAAAAAAAAAAAAAAAAAAAAAAAAAAAAAA",
"AAAAAAAAAAAAAAAAAAAAAAAAAAAAAAAAAAAAAAAAAAAAAAAAAAAAAAAAAAAAAAAAAAAAAAAAAAAAAAAAAAAAAAAAAAAAAAAAAAAAAAAAAAAAAAAAAAAAAAAAAAAAAAAA",
"AAAAAAAAAAAAAAAAAAAAAAAAAAAAAAAAAAAAAAAAAAAAAAAAAAAAAAAAAAAAAAAAAAAAAAAAAAAAAAAAAAAAAAAAAAAAAAAAAAAAAAAAAAAAAAAAAAAAAAAAAAAAAAAA",
"AAAAAAAAAAAAAAAAAAAAAAAAAAAAAAAAAAAAAAAAAAAAAAAAAAAAAAAAAAAAAAAAAAAAAAAAAAAAAAAAAAAAAAAAAAAAAAAAAAAAAAAAAAAAAAAAAAAAAAAAAAAAAAAA",
"AAAAAAAAAAAAAAAAAAAAAAAAAAAAAAAAAAAAAAAAAAAAAAAAAAAAAAAAAAAAAAAAAAAAAAAAAAAAAAAAAAAAAAAAAAAAAAAAAAAAAAAAAAAAAAAAAAAAAAAAAAAAAAAA",
"AAAAAAAAAAAAAAAAAAAAAAAAAAAAAAAAAAAAAAAAAAAAAAAAAAAAAAAAAAAAAAAAAAAAAAAAAAAAAAAAAAAAAAAAAAAAAAAAAAAAAAAAAAAAAAAAAAAAAAAAAAAAAAAA",
"AAAAAAAAAAAAAAAAAAAAAAAAAAAAAAAAAAAAAAAAAAAAAAAAAAAAAAAAAAAAAAAAAAAAAAAAAAAAAAAAAAAAAAAAAAAAAAAAAAAAAAAAAAAAAAAAAAAAAAAAAAAAAAAA",
"AAAAAAAAAAAAAAAAAAAAAAAAAAAAAAAAAAAAAAAAAAAAAAAAAAAAAAAAAAAAAAAAAAAAAAAAAAAAAAAAAAAAAAAAAAAAAAAAAAAAAAAAAAAAAAAAAAAAAAAAAAAAAAAA",
"AAAAAAAAAAAAAAAAAAAAAAAAAAAAAAAAAAAAAAAAAAAAAAAAAAAAAAAAAAAAAAAAAAAAAAAAAAAAAAAAAAAAAAAAAAAAAAAAAAAAAAAAAAAAAAAAAAAAAAAAAAAAAAAA",
"AAAAAAAAAAAAAAAAAAAAAAAAAAAAAAAAAAAAAAAAAAAAAAAAAAAAAAAAAAAAAAAAAAAAAAAAAAAAAAAAAAAAAAAAAAAAAAAAAAAAAAAAAAAAAAAAAAAAAAAAAAAAAAAA",
"AAAAAAAAAAAAAAAAAAAAAAAAAAAAAAAAAAAAAAAAAAAAAAAAAAAAAAAAAAAAAAAAAAAAAAAAAAAAAAAAAAAAAAAAAAAAAAAAAAAAAAAAAAAAAAAAAAAAAAAAAAAAAAAA",
"AAAAAAAAAAAAAAAAAAAAAAAAAAAAAAAAAAAAAAAAAAAAAAAAAAAAAAAAAAAAAAAAAAAAAAAAAAAAAAAAAAAAAAAAAAAAAAAAAAAAAAAAAAAAAAAAAAAAAAAAAAAAAAAA",
"AAAAAAAAAAAAAAAAAAAAAAAAAAAAAAAAAAAAAAAAAAAAAAAAAAAAAAAAAAAAAAAAAAAAAAAAAAAAAAAAAAAAAAAAAAAAAAAAAAAAAAAAAAAAAAAAAAAAAAAAAAAAAAAA",
"AAAAAAAAAAAAAAAAAAAAAAAAAAAAAAAAAAAAAAAAAAAAAAAAAAAAAAAAAAAAAAAAAAAAAAAAAAAAAAAAAAAAAAAAAAAAAAAAAAAAAAAAAAAAAAAAAAAAAAAAAAAAAAAA",
"AAAAAAAAAAAAAAAAAAAAAAAAAAAAAAAAAAAAAAAAAAAAAAAAAAAAAAAAAAAAAAAAAAAAAAAAAAAZZZZZZZZZZZZZZZZZZZZZCZZZZAAAAAAAAAAAAAAAAAAAAAAAAAAA",
"AAAAAAAAAAAAAAAAAAAAAAAAAAAAAAAAAAAAAAAAAAAAAAAAAAAAAAAAAAAAAAAAAAAAACZZZZZZZZZZZZZZZZZZZZZZZZZZZZZZZZAAAAAAAAAAAAAAAAAAAAAAAAAA",
"AAAAAAAAAAAAAAAAAAAAAAAAAAAAAAAAAAAAAAAAAAAAAAAAAAAAAAAAAAAAAAAAACCZZZZCZZZZZZZZZZZZZZZZZZZZZZCCZZZZZZCAAAAAAAAAAAAAAAAAAAAAAAAA",
"AAAAAAAAAAAAAAAAAAAAAAAAAAAAAAAAAAAAAAAAAAAAAAAAAAAAAAAAAAAAAACCCZZZZCZCZZZZZCZZZZZZZCZCZZZZZCCCZCCCCCZZAAAAAAAAAAAAAAAAAAAAAAAA",
"AAAAAAAAAAAAAAAAAAAAAAAAAAAAAAAAAAAAAAAAAAAAAAAAAAAAAAAAAAACCZCCCCCCCZCCZZCCCCCCZZCCCCCCZZCCVCCCVCVCCCCCVAAAAAAAAAAAAAAAAAAAAAAA",
"AAAAAAAAAAAAAAAAAAAAAAAAAAAAAAAAAAAAAAAAAAAAAAAAAAAAAAAAVVCCCCCCZCVCCCCCCCCCCCCCZZVCCCCCZZCCVCCCCCCCCVVCVAAAAAAAAAAAAAAAAAAAAAAA",
"AAAAAAAAAAAAAAAAAAAAAAAAAAAAAAAAAAAAAAAAAAAAAAAAAAAAAAVCCCVCVCVCCCVCCCCCCVCCVCVCZCVCVZVVZCCVCVCVVVCVVCVVCVAAAAAAAAAAAAAAAAAAAAAA",
"AAAAAAAAAAAAAAAAAAAAAAAAAAAAAAAAAAAAAAAAAAAAAAAAAAAAVCVVVCVCVVVVCVCVVVVVVVVVVVVVCCVVVVVCZCVVVVVVVVVVVVVVCZAAAAAAAAAAAAAAAAAAAAAA",
"AAAAAAAAAAAAAAAAAAAAAAAAAAAAAAAAAAAAAAAAAAAAAAAAAAVVVVVVVVVVVVVVVVVVVVVVVVVVVVVVVVVVVVVVVVVVVVVVVVVVVVVNVMVAAAAAAAAAAAAAAAAAAAAA",
"AAAAAAAAAAAAAAAAAAAAAAAAAAAAAAAAAAAAAAAAAAAAAAAANVVVVVVVVVVVVCVVVVVVVVVVVCNVVVVVVVVVNVVVVVVVNVVVVVNVVVNVVVMAAAAAAAAAAAAAAAAAAAAA",
"AAAAAAAAAAAAAAAAAAAAAAAAAAAAAAAAAAAAAAAAAAAAAAMVVVVVVVVVVVVVVNVVVNVNNVNVNVVVNVVVNVVNVNVVNVVMNVVNVVMVVNVNVVMAAAAAAAAAAAAAAAAAAAAA",
"AAAAAAAAAAAAAAAAAAAAAAAAAAAAAAAAAAAAAAAAAAAAABMVNVNVNVNVNNVVVVMCCNVNCNCNVNNVVNNCNVVVNVNVNVVNVNVVNVVNNVNVMVMAAAAAAAAAAAAAAAAAAAAA",
"AAAAAAAAAAAAAAAAAAAAAAAAAAAAAAAAAAAAAAAAAAAmMVVBVMVVVVNCVNVNVNVNNVNCCNCVNCNVVNNNNVNVVMNNMNVNVMVNNNNNNVNNVNMAAAAAAAAAAAAAAAAAAAAA",
"AAAAAAAAAAAAAAAAAAAAAAAAAAAAAAAAAAAAAAAAAAMVVMMVVNNVNVNNNVNVVNNVNNNNNNNNNNNNNNNVNNNNVNNVNVNNMVNNNNVNVMVNNMsAAAAAAAAAAAAAAAAAAAAA",
"AAAAAAAAAAAAAAAAAAAAAAAAAAAAAAAAAAAAAAAAAMMVMBBMNVVNNNNNNNNNNNNNNVNNNVNNNNNNNNNNNNNNNNNNVNNNNNNNNVNNNNMNMMAAAAAAAAAAAAAAAAAAAAAA",
"AAAAAAAAAAAAAAAAAAAAAAAAAAAAAAAAAAAAAAAmMVBBMVMBNNNNNNNNNNNVNNNNNNNNNNNNNNNNNNNNNNNNNNNNMNNNMNNMNNNNNNNNMlAAAAAAAAAAAAAAAAAAAAAA",
"AAAAAAAAAAAAAAAAAAAAAAAAAAAAAAAAAAAAAAMMMBMBMVMMNNNNNNNNNNNNNNMMNNNNNNNNMNNNMNMNNNMNMNNNMNMNMNMMMMNMMMMMMuAAAAAAAAAAAAAAAAAAAAAA",
"AAAAAAAAAAAAAAAAAAAAAAAAAAAAAAAAAAAAAMBMMMMBMMMVNNMNNMMNMNMNMMNMMNMNMMMMMMMMNMNMNMMMMNMMMMMMMMMMMNMMMMMMsAAAAAAAAAAAAAAAAAAAAAAA",
"AAAAAAAAAAAAAAAAAAAAAAAAAAAAAAAAAAAAMMMMBMMMMMMMNMMMMNMMNNMMMMMMMNMMMMMMMMMMMMMMMMMMMMMMMMMMMMMMMMMNvMMv>AAAAAAAAAAAAAAAAAAAAAAA",
"AAAAAAAAAAAAAAAAAAAAAAAAAAAAAAAAAAAmMMMMMMMMMMMMMMMMMNMMMMMMMMMMMMMMMMMMMMMMMMMMMMMMMMMMMvMMMMMMMMMMNMMiAAAAAAAAAAAAAAAAAAAAAAAA",
"AAAAAAAAAAAAAAAAAAAAAAAAAAAAAAAAAAlMMMMMMMmMMMMMMMMMMMMMMMMMlMMMMMMmMMMMMMmMmMmMmMmmmmMmMMMvMMMlvvNvMMM;AAAAAAAAAAAAAAAAAAAAAAAA",
"AAAAAAAAAAAAAAAAAAAAAAAAAAAAAAAAAAmMMmmMMmMMMMmMMMMllMvMMMMvMMMvlmmmMMMlmmmmmmmmmmmmmmmmMllMvlMMvMvMMvaAAAAAAAAAAAAAAAAAAAAAAAAA",
"AAAAAAAAAAAAAAAAAAAAAAAAAAAAAAAAAlmMmMmmmmmmMmmmMlvMMMMlMlvMlMMvMMmmmmmmmmmmmmmmmmmmmmmmMMlMMllMMvMvlMwAAAAAAAAAAAAAAAAAAAAAAAAA",
"AAAAAAAAAAAAAAAAAAAAAAAAAAAAAAAAsmmmmmmmmmmmmmmmMlMvMlMlMMMlMMlMMlmMlmMlMlmMlmMlmmmMlMlmllMvMvMvvvsMvl>AAAAAAAAAAAAAAAAAAAAAAAAA",
"AAAAAAAAAAAAAAAAAAAAAAAAAAAAAAAAlmmmmmmzvMvvMvMMvlMMlMlMMlMMlMMllMlMMlMlMglMlMlMMMlllMvMlMllMlvllMlMvsAAAAAAAAAAAAAAAAAAAAAAAAAA",
"AAAAAAAAAAAAAAAAAAAAAAAAAAAAAAApmmmmlmlmlMMlMllvlMlllMlllMllMllMccMllllMlclMlMllvvlMMllMvlMlsMlMvlvllpAAAAAAAAAAAAAAAAAAAAAAAAAA",
"AAAAAAAAAAAAAAAAAAAAAAAAAAAAAAAlzlmlzmmlvvvlvMlMlllMmmMllmlMlMlllMlllMllMlMlmlllMsMlsMlllMllMllvlllvMeAAAAAAAAAAAAAAAAAAAAAAAAAA",
"AAAAAAAAAAAAAAAAAAAAAAAAAAAAAApmlmlmlzlmlMlMllllMlMlllllmllllllvMlllclMlllllllMlllllllllllllllvlvllll3AAAAAAAAAAlllllllAAAAAAAAA",
"AAAAAAAAAAAAAAAAAAAAAAAAAAAAAAlzlmvlzmllllvvvlllllllmllllllmllllllllllllllllllllllllllllllllllllllllsAAAAAAAAAAsllllllllAAAAAAAA",
"AAAAAAAAAAAAAAAAAAAAAAAAAAAAAsllllllllvllllllllvllllllllllllllllllllllllllllllllllllllllllllllllllllsAAAAAAAAslllllvlslssAAAAAAA",
"AAAAAAAAAAAAAAAAAAAAAAAAAAAApzllllllllllllllllvslllllllllllllllllllllllllllgllllllllllllllllsllsllllsAAAAAAAllsvsslslsllsAAAAAAA",
"AAAAAAAAAAAAAAAAAAAAAAAAAAApllzslllsllllvsllllvsllllllllllsllllglsslllslslllsgllslssllsllssllsslsslspAAAAAslslsssvslslslvAAAAAAA",
"AAAAAAAAAAAAAAAAAAAAAAAAAApllllllslllllszlslsvsvllggslsllllallslllsllsgslsglslsllsllsllslssllssvsllsyAAAAsslsslsssslsvsssAAAAAAA",
"AAAAAAAAAAAAAAAAAAAAAAAAApsslzslllllslslsllshlsllggglllsalslsllsssglslsllsgggsssslsslsslsslsslssssssp3ypssssssslslsssssspAAAAAAA",
"AAAAAAAAAAAAAAAAAAAAAAAAszvssslsslsslsslllslhsssslsglslssssllalsslssssssslsgslgssssssssssslsssssssslssssssssssssssssssssyAAAAAAA",
"AAAAAAAAAAAAAAAAAAAAAAApsssslssssssllsssssssvssssgssssasssssalassslsslssssssssssssssssssssssssssssssssssssssssssssssssss3AAAAAAA",
"AAAAAAAAAAAAAAAAAAAAAAsssssssssslssssssssssssssssssssssssssssssssssssssssssssssssssssssssssssspssspsssssspsssssssspsssspAAAAAAAA",
"AAAAAAAAAAAAAAAAAAAAssssssssssssssssssssshsssssssssssssssssssssssssssspssspssssssspsssssssssssspspssssspsssppsasssspsppeAAAAAAAA",
"AAAAAAAAAAAAAAAAApspssssssssssssssssssssshssshssssassspssssaassassssssssssassspssspspsspsppsspsspspssapsspssspsppspspsp2AAAAAAAA",
"AAAAAAAAAspspsspssssspssssssssssssissspssppssppsssspassasspsaaaappsppsppspsappsppspspppspsppspppspsppsppspppppppspppsppAAAAAAAAA",
"AAAAAAAAsppssspssspsspshasspsspsaaaaaaaassaspsaspspsspaapapspspssspaappapsppsspppsppsppspspppppappppspppppppppppppppppiAAAAAAAAA",
"AAAAAAAppsspppsspspspspppapspppsaaaaaaaappapaappapaapsppspspppppppapppppppspppppppppppsppppppppaspppiphpppppppppppppppiAAAAAAAAA",
"AAAAAAAAuuuuppppspsppppsappppsppappaapppppappappppappppppppapppppappppppppppppppppppppppppppppppipppppipppppppppppppppiAAAAAAAAA",
"AAAAAAAAAAAA=,0ipppsppppspspppppappaapppaaappppppppppppppppapppppppppppppppppppppppppppppppppipppppiipppppipppppippppiuAAAAAAAAA",
"AAAAAAAAAAAAAAA$;3ppppppppppppppppppiiapippppppppppppippppppppipppppupppppppppppppipipiipipipipipiiiipipipiiipiiiiiiipiAAAAAAAAA",
"AAAAAAAAAAAAAAA  O=3ipppppppppipppppaipiapippiippppppppippiiippippipypipupuppppuiiiiiiiiiiiiiiiiipiiiiiiiiiiiiiiiiuiiii0AAAAAAAA",
"AAAAAAAAAAAAAAAA   +>eippipipiippiiiaiipipipipiipiiiiiiiiiiiiiiiypyppiiipupupuupiiiiiiiiiiiuiiuiiiiiiiiuiiuiiuiiiiiiiiutAAAAAAAA",
"AAAAAAAAAAAAAAAAAA  .$2uipiiuppiiipiiiiiiiiipiiiiiiiiiiiiiiiiiiipipuiiiiiiuuuupyitiiiiiuiiiiiiuiuiiiyuiuuiuuiuuuuuuiuuuuAAAAAAAA",
"AAAAAAAAAAAAAAAAAAA   O=tpuiiuiiiiiiiiuiiiiiiiuiiiuiuiuiiiuiiuiiuiuiiiuuyuuuupyuuuiuiuuiuiuuiuuiiuuuupuuuuuuuuuuuuuuuuuutAAAAAAA",
"AAAAAAAAAAAAAAAAAAAAA   *3iiuiuiiiiuuiuiuiyuuuiuuuiuuuuuuuuuiuuuuiuuyuuuuuuuuuuuuuuuuuuuuuuuuuuuuuuuuuuuuuuuuuuuuuuyuuyuuAAAAAAA",
"AAAAAAAAAAAAAAAAAAAAAAA  +<uuuuiuuuiuuuiuuuuuuuuuuuuuuuuuuuiuuuuuuuuiuuuuuuuuuuuuuuuuuuiuuuutiituuy3>3euuueituuuuyuuuyuyuAAAAAAA",
"AAAAAAAAAAAAAAAAAAAAAAAA  +>epuuuuuuuuuuuuuuuuuuuuuuuuuuuuuiuuuyyuuyuyuuuuyuuyuuituuututututitityyu> O+-3euuuutuyytiyyuttAAAAAAA",
"AAAAAAAAAAAAAAAAAAAAAAAAA   =0uuuutuuutiiuyuuuuuuuuuuuutuyyeyuyiyyuyuyuyiyuyyyyiiuttuitititititituu>    o%,euyueyutyutuut3AAAAAA",
"AAAAAAAAAAAAAAAAAAAAAAAAAAA  #2uttuutuiyyuuytutututuutuuutyuyyyyyuuttututtyuyytttttittttttttuytytty>      X*3eutttuteutttAAAAAAA",
"AAAAAAAAAAAAAAAAAAAAAAAAAAAA  +;qituuittyyeuuyuteuututettueutuyytutyyyyytyyyytytuttittittitttttttye<AAAAA   +-3ttttttttteAAAAAAA",
"AAAAAAAAAAAAAAAAAAAAAAAAAAAAA   =qutttyyueuyueeutttttutyutyyttytttyttyttyttttyytttttttttttttyttttty3AAAAAAA   +-rttttte3AAAAAAAA",
"AAAAAAAAAAAAAAAAAAAAAAAAAAAAAAA  &1ttytytytttyttttyttytttyyetttttyttttttttttttttttttttttttttttttttteAAAAAAAAA   %>e32<-AAAAAAAAA",
"AAAAAAAAAAAAAAAAAAAAAAAAAAAAAAAA  @-ettttttttttttttttttttteyttttttttetttttttettttttttttttt0ttreteteeAAAAAAAAAA   X$#XXAAAAAAAAAA",
"AAAAAAAAAAAAAAAAAAAAAAAAAAAAAAAAA   =3tetttttttttttettetttytttetetetttteeteettttrttettretteertteeteeAAAAAAAAAAAAA   AAAAAAAAAAAA",
"AAAAAAAAAAAAAAAAAAAAAAAAAAAAAAAAAAA  O-eetetetetteteettteteeeteeeteteeteteereeeereer0ee0eeere0reeeee<AAAAAAAAAAAAAAAAAAAAAAAAAAA",
"AAAAAAAAAAAAAAAAAAAAAAAAAAAAAAAAAAAA   &>0eeetetrrrerrrreerrrrrreeeeeeeerree3reerrrrtrreeerree0eeeee3AAAAAAAAAAAAAAAAAAAAAAAAAAA",
"AAAAAAAAAAAAAAAAAAAAAAAAAAAAAAAAAAAAAA  .=,0eerreeeeeeerrrrrrrereeeeeeeereeree0ee0er0r0eee000e0eee0r3AAAAAAAAAAAAAAAAAAAAAAAAAAA",
"AAAAAAAAAAAAAAAAAAAAAAAAAAAAAAAAAAAAAAA   .%>3rree0err0rrr00re00eee3ee3ee00eere000r000e0e000000000003AAAAAAAAAAAAAAAAAAAAAAAAAAA",
"AAAAAAAAAAAAAAAAAAAAAAAAAAAAAAAAAAAAAAAAA   .#=>000000rrrrr0000r0eee3e3e0000000000000000000000000000rAAAAAAAAAAAAAAAAAAAAAAAAAAA",
"AAAAAAAAAAAAAAAAAAAAAAAAAAAAAAAAAAAAAAAAAAA    X=ee000e300000e0e000000000003r0000000ww3w3e33030e3r030<AAAAAAAAAAAAAAAAAAAAAAAAAA",
"AAAAAAAAAAAAAAAAAAAAAAAAAAAAAAAAAAAAAAAAAAAAA   +20000r2,20r030e0003e330003eee303r333r3e3e3e0003r30002AAAAAAAAAAAAAAAAAAAAAAAAAA",
"AAAAAAAAAAAAAAAAAAAAAAAAAAAAAAAAAAAAAAAAAAAAAAA  &303e333,;>3333300300e30ee3e30r3rrr3ewre3e3e33e303e03AAAAAAAAAAAAAAAAAAAAAAAAAA",
"AAAAAAAAAAAAAAAAAAAAAAAAAAAAAAAAAAAAAAAAAAAAAAAA .-33e3er3<&&>20003030303303333333333333333e033e303333AAAAAAAAAAAAAAAAAAAAAAAAAA",
"AAAAAAAAAAAAAAAAAAAAAAAAAAAAAAAAAAAAAAAAAAAAAAAAA X,333r3032-&#*><3303e33333e33e3r3w333e333333333333332AAAAAAAAAAAAAAAAAAAAAAAAA",
"AAAAAAAAAAAAAAAAAAAAAAAAAAAAAAAAAAAAAAAAAAAAAAAAAA $23r333033,&.Xo%*>3330333333333333333333333333333332AAAAAAAAAAAAAAAAAAAAAAAAA",
"AAAAAAAAAAAAAAAAAAAAAAAAAAAAAAAAAAAAAAAAAAAAAAAAAAA.=3333333333-$.  O>333333333333333333333333333333332AAAAAAAAAAAAAAAAAAAAAAAAA",
"AAAAAAAAAAAAAAAAAAAAAAAAAAAAAAAAAAAAAAAAAAAAAAAAAAAA.=33333333332=O  *333333333333333333333333333333322AAAAAAAAAAAAAAAAAAAAAAAAA",
"AAAAAAAAAAAAAAAAAAAAAAAAAAAAAAAAAAAAAAAAAAAAAAAAAAAA O>33333333333>O #,32332333332232323223322332332322AAAAAAAAAAAAAAAAAAAAAAAAA",
"AAAAAAAAAAAAAAAAAAAAAAAAAAAAAAAAAAAAAAAAAAAAAAAAAAAAA #>23223233222#A *33322222223222222322332233222222AAAAAAAAAAAAAAAAAAAAAAAAA",
"AAAAAAAAAAAAAAAAAAAAAAAAAAAAAAAAAAAAAAAAAAAAAAAAAAAAAA #>3222222322&AAX>2232<332<32222222<2<2<2<2322222AAAAAAAAAAAAAAAAAAAAAAAAA",
"AAAAAAAAAAAAAAAAAAAAAAAAAAAAAAAAAAAAAAAAAAAAAAAAAAAAAAA +>2222<3<23-AA #>222<22<22223<223223222<2,2222>AAAAAAAAAAAAAAAAAAAAAAAAA",
"AAAAAAAAAAAAAAAAAAAAAAAAAAAAAAAAAAAAAAAAAAAAAAAAAAAAAAAA #>222222,2>AAA +-2222,2<22<22<2<<2<2<22<22,,2=AAAAAAAAAAAAAAAAAAAAAAAAA",
"AAAAAAAAAAAAAAAAAAAAAAAAAAAAAAAAAAAAAAAAAAAAAAAAAAAAAAAAA O*,2<,2222*AAA +-2<2222<22<22<22222<<22<222>AAAAAAAAAAAAAAAAAAAAAAAAAA",
"AAAAAAAAAAAAAAAAAAAAAAAAAAAAAAAAAAAAAAAAAAAAAAAAAAAAAAAAAA .$>222<,2,AAAA .&>2,2<,<22<,222<2<2<22,<2,=AAAAAAAAAAAAAAAAAAAAAAAAAA",
"AAAAAAAAAAAAAAAAAAAAAAAAAAAAAAAAAAAAAAAAAAAAAAAAAAAAAAAAAAA  O&>,2<22-AAAA  +->2222<,2<<,<,<<2,,2,,2>AAAAAAAAAAAAAAAAAAAAAAAAAAA",
"AAAAAAAAAAAAAAAAAAAAAAAAAAAAAAAAAAAAAAAAAAAAAAAAAAAAAAAAAAAA   O#-,,,,AAAAA  .O&-<2,22,<,2,,,2,2,,2-$AAAAAAAAAAAAAAAAAAAAAAAAAAA",
"AAAAAAAAAAAAAAAAAAAAAAAAAAAAAAAAAAAAAAAAAAAAAAAAAAAAAAAAAAAAAA   A+&>>-AAAAAA   X&->,,2,<,2,2,<2<,:#AAAAAAAAAAAAAAAAAAAAAAAAAAAA",
"AAAAAAAAAAAAAAAAAAAAAAAAAAAAAAAAAAAAAAAAAAAAAAAAAAAAAAAAAAAAAAAAAAAAAAAAAAAAAAA   .O%->,2222,,2>-&XAAAAAAAAAAAAAAAAAAAAAAAAAAAAA",
"AAAAAAAAAAAAAAAAAAAAAAAAAAAAAAAAAAAAAAAAAAAAAAAAAAAAAAAAAAAAAAAAAAAAAAAAAAAAAAAAA    .O%&&=,-*&+XAAAAAAAAAAAAAAAAAAAAAAAAAAAAAAA",
"AAAAAAAAAAAAAAAAAAAAAAAAAAAAAAAAAAAAAAAAAAAAAAAAAAAAAAAAAAAAAAAAAAAAAAAAAAAAAAAAAAAA      .XX   AAAAAAAAAAAAAAAAAAAAAAAAAAAAAAAA",
"AAAAAAAAAAAAAAAAAAAAAAAAAAAAAAAAAAAAAAAAAAAAAAAAAAAAAAAAAAAAAAAAAAAAAAAAAAAAAAAAAAAAAAA      AAAAAAAAAAAAAAAAAAAAAAAAAAAAAAAAAAA",
"AAAAAAAAAAAAAAAAAAAAAAAAAAAAAAAAAAAAAAAAAAAAAAAAAAAAAAAAAAAAAAAAAAAAAAAAAAAAAAAAAAAAAAAAAAAAAAAAAAAAAAAAAAAAAAAAAAAAAAAAAAAAAAAA",
"AAAAAAAAAAAAAAAAAAAAAAAAAAAAAAAAAAAAAAAAAAAAAAAAAAAAAAAAAAAAAAAAAAAAAAAAAAAAAAAAAAAAAAAAAAAAAAAAAAAAAAAAAAAAAAAAAAAAAAAAAAAAAAAA",
"AAAAAAAAAAAAAAAAAAAAAAAAAAAAAAAAAAAAAAAAAAAAAAAAAAAAAAAAAAAAAAAAAAAAAAAAAAAAAAAAAAAAAAAAAAAAAAAAAAAAAAAAAAAAAAAAAAAAAAAAAAAAAAAA",
"AAAAAAAAAAAAAAAAAAAAAAAAAAAAAAAAAAAAAAAAAAAAAAAAAAAAAAAAAAAAAAAAAAAAAAAAAAAAAAAAAAAAAAAAAAAAAAAAAAAAAAAAAAAAAAAAAAAAAAAAAAAAAAAA",
"AAAAAAAAAAAAAAAAAAAAAAAAAAAAAAAAAAAAAAAAAAAAAAAAAAAAAAAAAAAAAAAAAAAAAAAAAAAAAAAAAAAAAAAAAAAAAAAAAAAAAAAAAAAAAAAAAAAAAAAAAAAAAAAA",
"AAAAAAAAAAAAAAAAAAAAAAAAAAAAAAAAAAAAAAAAAAAAAAAAAAAAAAAAAAAAAAAAAAAAAAAAAAAAAAAAAAAAAAAAAAAAAAAAAAAAAAAAAAAAAAAAAAAAAAAAAAAAAAAA",
"AAAAAAAAAAAAAAAAAAAAAAAAAAAAAAAAAAAAAAAAAAAAAAAAAAAAAAAAAAAAAAAAAAAAAAAAAAAAAAAAAAAAAAAAAAAAAAAAAAAAAAAAAAAAAAAAAAAAAAAAAAAAAAAA",
"AAAAAAAAAAAAAAAAAAAAAAAAAAAAAAAAAAAAAAAAAAAAAAAAAAAAAAAAAAAAAAAAAAAAAAAAAAAAAAAAAAAAAAAAAAAAAAAAAAAAAAAAAAAAAAAAAAAAAAAAAAAAAAAA",
"AAAAAAAAAAAAAAAAAAAAAAAAAAAAAAAAAAAAAAAAAAAAAAAAAAAAAAAAAAAAAAAAAAAAAAAAAAAAAAAAAAAAAAAAAAAAAAAAAAAAAAAAAAAAAAAAAAAAAAAAAAAAAAAA",
"AAAAAAAAAAAAAAAAAAAAAAAAAAAAAAAAAAAAAAAAAAAAAAAAAAAAAAAAAAAAAAAAAAAAAAAAAAAAAAAAAAAAAAAAAAAAAAAAAAAAAAAAAAAAAAAAAAAAAAAAAAAAAAAA",
"AAAAAAAAAAAAAAAAAAAAAAAAAAAAAAAAAAAAAAAAAAAAAAAAAAAAAAAAAAAAAAAAAAAAAAAAAAAAAAAAAAAAAAAAAAAAAAAAAAAAAAAAAAAAAAAAAAAAAAAAAAAAAAAA",
"AAAAAAAAAAAAAAAAAAAAAAAAAAAAAAAAAAAAAAAAAAAAAAAAAAAAAAAAAAAAAAAAAAAAAAAAAAAAAAAAAAAAAAAAAAAAAAAAAAAAAAAAAAAAAAAAAAAAAAAAAAAAAAAA",
"AAAAAAAAAAAAAAAAAAAAAAAAAAAAAAAAAAAAAAAAAAAAAAAAAAAAAAAAAAAAAAAAAAAAAAAAAAAAAAAAAAAAAAAAAAAAAAAAAAAAAAAAAAAAAAAAAAAAAAAAAAAAAAAA",
"AAAAAAAAAAAAAAAAAAAAAAAAAAAAAAAAAAAAAAAAAAAAAAAAAAAAAAAAAAAAAAAAAAAAAAAAAAAAAAAAAAAAAAAAAAAAAAAAAAAAAAAAAAAAAAAAAAAAAAAAAAAAAAAA",
"AAAAAAAAAAAAAAAAAAAAAAAAAAAAAAAAAAAAAAAAAAAAAAAAAAAAAAAAAAAAAAAAAAAAAAAAAAAAAAAAAAAAAAAAAAAAAAAAAAAAAAAAAAAAAAAAAAAAAAAAAAAAAAAA",
"AAAAAAAAAAAAAAAAAAAAAAAAAAAAAAAAAAAAAAAAAAAAAAAAAAAAAAAAAAAAAAAAAAAAAAAAAAAAAAAAAAAAAAAAAAAAAAAAAAAAAAAAAAAAAAAAAAAAAAAAAAAAAAAA",
"AAAAAAAAAAAAAAAAAAAAAAAAAAAAAAAAAAAAAAAAAAAAAAAAAAAAAAAAAAAAAAAAAAAAAAAAAAAAAAAAAAAAAAAAAAAAAAAAAAAAAAAAAAAAAAAAAAAAAAAAAAAAAAAA",
"AAAAAAAAAAAAAAAAAAAAAAAAAAAAAAAAAAAAAAAAAAAAAAAAAAAAAAAAAAAAAAAAAAAAAAAAAAAAAAAAAAAAAAAAAAAAAAAAAAAAAAAAAAAAAAAAAAAAAAAAAAAAAAAA"
};
