/* XPM */
static char *browser[] = {
/* columns rows colors chars-per-pixel */
"128 128 58 1",
"  c #006600660066",
". c #046A046A046A",
"X c #07A107A107A1",
"o c #0BA50BA50BA5",
"O c #0E740E740E74",
"+ c #121212121212",
"@ c #134612DF12DF",
"# c #147A147A147A",
"$ c #187E187E187E",
"% c #1A801A801A80",
"& c #1E1E1E1E1E1E",
"* c #222222222222",
"= c #248A248A248A",
"- c #2626262626F3",
"; c #27C127C127C1",
": c #2B5E2B5E2B5E",
"> c #2D602C922C92",
", c #2C922C922CF9",
"< c #2E942E942E94",
"1 c #2F6230303030",
"2 c #31CB31CB31CB",
"3 c #333F332632FF",
"4 c #350135013501",
"5 c #367F3657364F",
"6 c #383838383838",
"7 c #396C39D3396C",
"8 c #396C396C39D3",
"9 c #396C39D339D3",
"0 c #3B6E3B6E3B6E",
"q c #3D703CA23CA2",
"w c #3CA23D093D09",
"e c #3E3E3E3E3E3E",
"r c #40263FFA401A",
"t c #41DB41DB41DB",
"y c #4332434F432D",
"u c #451145114511",
"i c #466F468E462D",
"p c #471346464713",
"a c #484847E147E1",
"s c #497C49E3497C",
"d c #49E349E3497C",
"f c #497C49E349E3",
"g c #4B174B174B17",
"h c #4D194CB24CB2",
"j c #4CB24D194CB2",
"k c #4D194D194CB2",
"l c #4CB24CB24D19",
"z c #4D194CB24D19",
"x c #4CB24D194D19",
"c c #4E4E4E4E4E4E",
"v c #5024502A5015",
"b c #51EB51EB51EB",
"n c #5368533D536A",
"m c #531F53ED531F",
"M c #54BA54BA54BA",
"N c #56905686568C",
"B c #57F157F157F1",
"V c None",
/* pixels */
"VVVVVVVVVVVVVVVVVVVVVVVVVVVVVVVVVVVVVVVVVVVVVVVVVVVVVVVVVVVVVVVVVVVVVVVVVVVVVVVVVVVVVVVVVVVVVVVVVVVVVVVVVVVVVVVVVVVVVVVVVVVVVVVV",
"VVVVVVVVVVVVVVVVVVVVVVVVVVVVVVVVVVVVVVVVVVVVVVVVVVVVVVVVVVVVVVVVVVVVVVVVVVVVVVVVVVVVVVVVVVVVVVVVVVVVVVVVVVVVVVVVVVVVVVVVVVVVVVVV",
"VVVVVVVVVVVVVVVVVVVVVVVVVVVVVVVVVVVVVVVVVVVVVVVVVVVVVVVVVVVVVVVVVVVVVVVVVVVVVVVVVVVVVVVVVVVVVVVVVVVVVVVVVVVVVVVVVVVVVVVVVVVVVVVV",
"VVVVVVVVVVVVVVVVVVVVVVVVVVVVVVVVVVVVVVVVVVVVVVVVVVVVVVVVVVVVVVVVVVVVVVVVVVVVVVVVVVVVVVVVVVVVVVVVVVVVVVVVVVVVVVVVVVVVVVVVVVVVVVVV",
"VVVVVVVVVVVVVVVVVVVVVVVVVVVVVVVVVVVVVVVVVVVVVVVVVVVVVVVVVVVVVVVVVVVVVVVVVVVVVVVVVVVVVVVVVVVVVVVVVVVVVVVVVVVVVVVVVVVVVVVVVVVVVVVV",
"VVVVVVVVVVVVVVVVVVVVVVVVVVVVVVVVVVVVVVVVVVVVVVVVVVVVVVVVVVVVVVVVVVVVVVVVVVVVVVVVVVVVVVVVVVVVVVVVVVVVVVVVVVVVVVVVVVVVVVVVVVVVVVVV",
"VVVVVVVVVVVVVVVVVVVVVVVVVVVVVVVVVVVVVVVVVVVVVVVVVVVVVVVVVBBBBBBBBBBBBBBBBVVVVVVVVVVVVVVVVVVVVVVVVVVVVVVVVVVVVVVVVVVVVVVVVVVVVVVV",
"VVVVVVVVVVVVVVVVVVVVVVVVVVVVVVVVVVVVVVVVVVVVVVVVVVVVBBBBBBBBBBBBBBBBBBBBBBBBBBVVVVVVVVVVVVVVVVVVVVVVVVVVVVVVVVVVVVVVVVVVVVVVVVVV",
"VVVVVVVVVVVVVVVVVVVVVVVVVVVVVVVVVVVVVVVVVVVVVVVVBBBBBBBBBBBBBMMBBBBBBBBBBBBBBBBBBBVVVVVVVVVVVVVVVVVVVVVVVVVVVVVVVVVVVVVVVVVVVVVV",
"VVVVVVVVVVVVVVVVVVVVVVVVVVVVVVVVVVVVVVVVVVVVVBBBBBBBBBBMMbaVVVVVanMBBBBBBBBBBBBBBBBBBVVVVVVVVVVVVVVVVVVVVVVVVVVVVVVVVVVVVVVVVVVV",
"VVVVVVVVVVVVVVVVVVVVVVVVVVVVVVVVVVVVVVVVVVVBBBBBMMMaVVVVVVVVVVVVVVVVubMBBBBBBBBBBBBBBBBVVVVVVVVVVVVVVVVVVVVVVVVVVVVVVVVVVVVVVVVV",
"VVVVVVVVVVVVVVVVVVVVVVVVVVVVVVVVVVVVVVVVMBBBBBBBgVVVVVVVVVVVVVVVVVVVVVbBBBBBBBBBBBBBBBBBBMVVVVVVVVVVVVVVVVVVVVVVVVVVVVVVVVVVVVVV",
"VVVVVVVVVVVVVVVVVVVVVVVVVVVVVVVVVVVVVVMBBBBBBBBBMrVVVVVVVVVVVVVVVVVV :MBBBBBBBBBBBBBBBMBBBBMVVVVVVVVVVVVVVVVVVVVVVVVVVVVVVVVVVVV",
"VVVVVVVVVVVVVVVVVVVVVVVVVVVVVVVVVVVVVBBBBMBBBMBBMMeVVVVVVVVVVVVVVVVVVlBBBBBBBBBBBMBMMBBBBBBBBVVVVVVVVVVVVVVVVVVVVVVVVVVVVVVVVVVV",
"VVVVVVVVVVVVVVVVVVVVVVVVVVVVVVVVVVVBMBMMBMMMMBBMBBMyVVVVVVVVVVVVVVVV,MBBBBBBBBBBBBBMBBBBBBMBBMMVVVVVVVVVVVVVVVVVVVVVVVVVVVVVVVVV",
"VVVVVVVVVVVVVVVVVVVVVVVVVVVVVVVVVMMMBMbu,V=6bMBMBBMBuVVVVVVVVVVVVVVVcMBBBBBBBBBBBMBBBMMBMBMBBBBBBVVVVVVVVVVVVVVVVVVVVVVVVVVVVVVV",
"VVVVVVVVVVVVVVVVVVVVVVVVVVVVVVVVMMBMMyVVVV  +ebMMBMBMcVVVVVVVVVVVVVVMMBMBBMMBMBMMBBBMBMBnMMMMBMBBMVVVVVVVVVVVVVVVVVVVVVVVVVVVVVV",
"VVVVVVVVVVVVVVVVVVVVVVVVVVVVVVVMMMMcVVVVVVV  X5cMMBMMMVVVVVVVVVVVVVaMBBMMBMBMBMBMBMMMMgey6eucMMMBMMVVVVVVVVVVVVVVVVVVVVVVVVVVVVV",
"VVVVVVVVVVVVVVVVVVVVVVVVVVVVVbMMMMeVVVVVVVVV   *MMBMMMVVVVVVVVVVVVaMMMMMMMMMMBMMMMBMb1X.  VVVV6cMMMMMVVVVVVVVVVVVVVVVVVVVVVVVVVV",
"VVVVVVVVVVVVVVVVVVVVVVVVVVVVMMMMcVVVVVVVVabu=V .6MMMMvVVVVVVVVVVbMMMMbMMMMMMMMMMMMMm2.    VVVVVVVbMMMMVVVVVVVVVVVVVVVVVVVVVVVVVV",
"VVVVVVVVVVVVVVVVVVVVVVVVVVVbMMbeVVVVVVVeMMbMb2V OuMMMVVVVVVVVbMMMMMbe#2MMMMMMMMMMMM2. VVVVVVVVVVVvaVgMMVVVVVVVVVVVVVVVVVVVVVVVVV",
"VVVVVVVVVVVVVVVVVVVVVVVVVVbMMcVVVVVVVVcMMbVVcbu,ybMMMVVVVVVMMMMMMMM5. $cMMbMbMMMMMuVVVVVecVVVVVVVVVVVgMMVVVVVVVVVVVVVVVVVVVVVVVV",
"VVVVVVVVVVVVVVVVVVVVVVVVVbMmuVVVVVVacbMbMMcVVbMMnMnMbaVVVVbMnMMMMMb1O.#aMMMMMMMMMu$VVVVeMbVVVVVVVVVVVVcMMVVVVVVVVVVVVVVVVVVVVVVV",
"VVVVVVVVVVVVVVVVVVVVVVVVbMMeVVVVacMMbMnMbcbbabMbMnMnMbVVVbbMMMbMMbMbaacbMMbMbMbM2VVVVVVcnbVVVVVVVVVVVVVcnMVVVVVVVVVVVVVVVVVVVVVV",
"VVVVVVVVVVVVVVVVVVVVVVVbnbyVVV6bMMbMbnc5VVcMbMbMnnMbMbVVcnMMnMMbbMbMMbMMbMbMMmMb,VVVVVVbMMbVVVVVVVVVVVVVbbMVVVVVVVVVVVVVVVVVVVVV",
"VVVVVVVVVVVVVVVVVVVVVVbbbyVVVVbbbnbMbb,VVVubbbMbnbbMbMbbbnbbbbbMMbbbbMbMMbbbcbbmuVVVVVVMbbbcVVVVVVVVVVVVVcbbVVVVVVVVVVVVVVVVVVVV",
"VVVVVVVVVVVVVVVVVVVVVbbMeVVVVebbMbbbbyVVVVV=ecbMnnbnbMbbMbbMnMbnMbbMMbbbbMba;cbbbVVVVVVbbuVVVVVVVVVVVVVVVVbbbVVVVVVVVVVVVVVVVVVV",
"VVVVVVVVVVVVVVVVVVVVvbbaVVVVVVcbbbnbb=VVVVVV.*unbbbbbbbbbbbbbbbbbbbbbbbbbbbuX=cbbvbbbccbgVVVVVVVVVVVVVVVVVubbbVVVVVVVVVVVVVVVVVV",
"VVVVVVVVVVVVVVVVVVVgbbaVVVVVVVV;0bbbaVVVVVVV  +abbbbbbbbbbbbbbbbbbbbbbbbbbbyX 5bbbVubbbb2VVVVVVVVVVVVVVVVVVabbVVVVVVVVVVVVVVVVVV",
"VVVVVVVVVVVVVVVVVVVbbcVVVVVVVVVVVabb3VVVVVVVV  1bbbbbbbbbbbbbbbbbbbbbbbbb2VV. $gbyVVVyu5VVVVVVVVVVVVVVVVVVVVcbbVVVVVVVVVVVVVVVVV",
"VVVVVVVVVVVVVVVVVVcbbeVVVVVVVVVV.ebaVVVVVVVVVV =cbbbbbbbbbbbbbbbbbbbbbbbb;:0VVVVVVVVVVVVVVVVVVVVVVVVVVVVVVVVVbbvVVVVVVVVVVVVVVVV",
"VVVVVVVVVVVVVVVVVabbaVVVVVVVVVVVV=uVVVVVVVVVVVV5cbvbbbbbcbbcbbcbbbcbbvvbbacuVVVVVVVVVVVVVVVVVVVVVVVVVVVVVVVVVybbnVVVVVVVVVVVVVVV",
"VVVVVVVVVVVVVVVVVcbvVVVVVVVVVVVVVVVVVVVVVVVVy2V+6bbbcbcbbcbbbcbbcbbbbcbcbbbg,2VVVVVVVVVVVVVVVVVVVVVVVVVVVVVVVVabbVVVVVVVVVVVVVVV",
"VVVVVVVVVVVVVVVVcbc6VVVVVVVVVVVVVVVVVVVVVVVbcbeV&ccbbcbvcbbcbccbbvcbcbvbcvvbcgVVVVVVVVVVVVVVVVVVVVVVVVVVVVVVVVVcvcVVVVVVVVVVVVVV",
"VVVVVVVVVVVVVVVVbvaVVVVVVVVVVVVVVVVVVVVVVVVbcbaV*ccvccbbcbcvcbbccbvcbcvvcvbuVVVVVVVVVVVVVVVVVVVVVVVVVVVVVVVVVVVucbcVVVVVVVVVVVVV",
"VVVVVVVVVVVVVVVccvVVVVVVVVVVVVVVVVVVVVVVVVVcbcc6ecbvcbccbcvcbccbcccbcvvcbccVVVVVVVVVVVVVVVVVVVVVVVVVVVVVVVVVVVVVcbcVVVVVVVVVVVVV",
"VVVVVVVVVVVVVVuccyVVVVVVVVVVVVVVVVVVVVVVVVcvccbccbcvcccvcccvcbccvvcvvcvbcbcuVVVVVVVVVVVVVVVVVVVVVVVVVVVVVVVVVVVVycccVVVVVVVVVVVV",
"VVVVVVVVVVVVVVcccVVVVVVVVVVVVVVVVVVVVVVVVaccccccvccccbccvcvcccvcccccccccccaVVVVVVVVVVVVVVVVVVVVVVVVVVVVVVVVVVVVVVcccVVVVVVVVVVVV",
"VVVVVVVVVVVVVuccyVVVVVVVVVVVVVVVVVVVVVbcvcccccccccvccccccccccccccccvccccceVVVVVVVVcVVVVccVVVVVVVVVVVVVVVVVVVVVVVVycccVVVVVVVVVVV",
"VVVVVVVVVVVVVccgVVVVVVVVVVVVVVVVVVVVVacccccccccccccccccvccccccccccccccccuVVVVVVVgcccgVVgcVVVVVVVVVVVVVVVVVVVVVVVVVaccVVVVVVVVVVV",
"VVVVVVVVVVVVVcgeVVVVVVVVVVVVVVVVVVVVgccccccccccccccccccallglvvgvcccccccc5VVVVVVccccgcVVVcgVVVVVVVVVVVVVVVVVVVVVVVVuccaVVVVVVVVVV",
"VVVVVVVVVVVVavcVVVVVVVVVVVVVVVVVVVaccgccccccacaclcavcgccvlvvggvgcccggcvaVVVVVVacccccggVVvgVVgVVVVVVVVVVVVVVVVVVVVV5cccVVVVVVVVVV",
"VVVVVVVVVVVVgcaVVVVVVVVVVVVVVVVVVccccgcgaccccvvgclcggclcglvlglgvacacgcccVVVVVaccgccvcgagagVaccVVVVVVVVVVVVVVVVVVVVVaccVVVVVVVVVV",
"VVVVVVVVVVVacgeVVVVVVVVVVVVVVVVVVggcgcgcvgavgaccgcgccgllvgllllgvccccccgguyVVacacggacacccccagccagVVVVVVVVVVVVVVVVVVVyccgVVVVVVVVV",
"VVVVVVVVVVVgacVVVVVVVVVVVVVVVVVVgcgcavggavgcgvgclgccglglggvgggggcggcggcgavgguVVVVV;ygvgcgcgcaccccaVVVVVVVVVVVVVVVVV2gggVVVVVVVVV",
"VVVVVVVVVVVgvuVVVVVVVVVVVVVVVVVuggcgvggccacgcagggcggcgvagllgvgvgacgggccgcgaVVVVVV  V;aggcgggccaacccVVVVVVVVVVVVVVVVVgggVVVVVVVVV",
"VVVVVVVVVVygaeVVVVVVVVVVVVVVVVaggvacacavcacggggcggcggggvggggggvggcgvgggggyVVVVVVVVV  %0gggae6aacaaVVVVVVVVVVVVVVVVVVyggaVVVVVVVV",
"VVVVVVVVVVaacVVVVVVVVVVVVVVVVagggggacacgggggggggggggggglgggggcagggggggggeVVVVVVVVVVVV O6aa;VVVVVVVVVVVVVVVVVVVVVVVVV6ggcVVVVVVVV",
"VVVVVVVVVVggaVVVVVVVVVVVVVVVVggggggggggggggggggggggcggggggggggggggggggg0VVVVVVVVVVVVVV V&&VVVVVVVVVVVVVVVVVVVVVVVVVVVacaVVVVVVVV",
"VVVVVVVVV0gguVVVVVVVVVaagVVVVggggggggaggggffgfgggggfafggggaggggagggggguVVVVVVVVVVVVVVVVVVVVVVVVVVVVVVVVVVVVVVVVVVVVVVaacuVVVVVVV",
"VVVVVVVVVuacyVVVVVVVVVcaggaVegagggaaggagggggffgfgffgfgggagfggffggaagga;VVVVVVVVVVVVVVVVVVVVVVVVVVVVVVVVVVVVVVcaVVVVVVyagaVVVVVVV",
"VVVVVVVVVagaVVVVVVVVagaggagaaggaagacaaggagaffgffgafgfgffffgfffgggggag6VVVVVVVVVVVVVVVVVVVVVVVVVVVVVVaVVVVVVVVaaaaVVVV6gacVVVVVVV",
"VVVVVVVVVaggVVVVVVaagagagagaagagfffggfffffffgggagaagffgagffgfgfgagagyVVVVVVVVVVVVVVVVVVVVVVVVVVVVVVVcaVVVVVVVVacaauVV:acaVVVVVVV",
"VVVVVVVVVaaaVVVVVaggagagagaggagaafafagfffgffaaagggagffagaffaagaagaga3VVVVVVVVVVVVVVVVVVVVVVVVVVVVVVVaaVVVVVVVVVVVyagyyaaaVVVVVVV",
"VVVVVVVV5agaVVVVVagaagaggaagaaaaffgaffffaaaggaaaaagaaafaffffaaagaaguVVVVVVVVVVVVVVVVVVVVVVVVVVVVVVVVuaaVVVVVVVVVVVaaaaacauVVVVVV",
"VVVVVVVVeaaaVVVVVaaaaaaaaaaaaaaaaaaaaaaagaaaaaaaaaaafagaaaaagaaaaaarVVVVVVVVVVVVVVVVVVVVVVVVVVVVVVVVVaaVVVVVVVVVVVaaaaaaauVVVVVV",
"VVVVVVVVuaaaVVVVVaaaaaaaaaaaaaaaaaafaaaaaaaaaaaaaaaaaaaaaaaaaaaaaaa1VVVVVVVVVVVVVVVVVVVVVVVVVVVVVVVVVaaaVVVVVVVVVVuaaaaaaaVVVVVV",
"VVVVVVVVyaaaVVVVVuau0:*uaaaaaaaaaaaaaaaaaaaaaaaaaaaaaaaaaaaaaaaaaauVVVVVVVVVVVVVVVVVVVVVVVVVVVVVVVVVVyaaVVVVVVVVVVaaaaaaauVVVVVV",
"VVVVVVVVuuaueVVVVV%#. $aaaaaaaaauaaaaaaaaaaaaaaaaaaaaaaaaaaaayaaaauVVVVVVVVVVVVVVVVVVVVVVVVVVVVVVVVVVVaauVVVVVVVV2aaaaaaauVVVVVV",
"VVVVVVVVyaaauVVVVVV   &auaauaaaaaaauaauauaauaaaaaaaaaayaayaaaaaaaa0VVVVVVVVVVVVVVVVVVVVVVVVVVVVVVVVVVVyuaVVVVVVVVuaaaaaaauVVVVVV",
"VVVVVVVVyuaauuVVVVVV  ;uauauaaauauauaaauaaaauaauaaaauaaaauaaauaaua0VVVVVVVVVVVVVVVVVVVVVVVVVVVVVVVVVVV5uauVVVVVVyaauaauauaVVVVVV",
"VVVVVVVVyauauau6VVVVVV&5eaauauauaaauauaaauauauauauyayauauauauayaauyVVVVVVVVVVVVVVVVVVVVVVVVVVVVVVVVVVVVyuuVVVVVuauuauaauaaVVVVVV",
"VVVVVVVVyuuauauau6VVVVV &auauauauuaauauuuuaauuaaayaaaaaaaauuaauauauVVVVVVVVVVVVVVVVVVVVVVVVVVVVVVVVVVVVVuuVVVyuuauauauuauaVVVVVV",
"VVVVVVVVyyuuauuuuauu6VV Oeuuuauu:,yyuuauuauuuauuyayauyyauuuauuuaauuVVVVVVVVVVVVVVVVVVVVVVVVVVVVVVVVVVVVV5yVVyuauuuauuauuuuVVVVVV",
"VVVVVVVVyuuuuuuuuuuuyy*V.3auuu6& .$6uuuuuauauuuuuauauuuuuauuuuuuuuuuVVVVVVVVVVVVVVVVVVVVVVVVVVVVVVVVVVVVVVVV66yuuuauuuauauVVVVVV",
"VVVVVVVVruuuuuuuuuuuuuy&V#yuy2#    X%===euuuuuuuuuuuuuuuuuuuauuauuuuVVVVVVVVVVVVVVVVVVVVVVVVVVVVVVVVVVVVVVVVVVeuuuuuuuuuuuVVVVVV",
"VVVVVVVVruuuuuuuuuuuuuuy,X#&+           *uuuuuuuuuuuuuuuuuuuuuutuuuuyVVVVVVVVVVVVVVVVVVVVVVVVVVVVVVVVVVVVVVVVVuuuuuuuuuuutVVVVVV",
"VVVVVVVVeuuuuuuuuuuuuuuuu5$.VVVVVVVV    .,uuuuuuuuuuuuuuuuuuuuuuuuuuuyVVVVVVVVVVVVVVVVVVVVVVVVVVVVVVVVVVVVVVV6uuuuuuuuuuuyVVVVVV",
"VVVVVVVVeuuuruuuuuuuuuyuuuy=VVVVVVVVVVV  O0ttuuuuuutuuuuuuuuuuuuuuuuuuyVVVVVVVVVVVVVVVVVVVVVVVVVVVVVVVVVVVVVVyuyuuuuyuututVVVVVV",
"VVVVVVVV6uuyuutuuyyyyyyuuyueVVVVVVVVVVVVV $euytuuytuuttutuuttatuyyyuyyyyVVVVVVVVVVVVVVVVVVVVVVVVVVVVVVVVVVVV6yyytuyuyyuyueVVVVVV",
"VVVVVVVV,yyyyyyyyyyyyyyuyyyyVVVVVVVVVVVVVV $eyyytyuttuututtuuttuyyyyyyyyuyyyyyuyyyyVVVVVVVVVVVVVVVVVVVVVVVVVuyyyuytyyyuyteVVVVVV",
"VVVVVVVV=yyyyyyyyyyyyyyyyyyyVVVVVVVVVVVVVVV %6yutyyuuttuttutttutyyyyyyyyyyyyyyyyyyyyVVVVVVVVVVVVVVVVVVVVVVV6utyyyyuytuyyy5VVVVVV",
"VVVVVVVVVyyyyyyyyyyyyyyyyyeeVVVVVVVVVVVVVVV  $0tuyyyyyyyyyyyrttuyyyyyyyyyyyyyyyyyyyyVVVVVVVVVVVVVVVVVVVVVVVyyyyyyyyyyyyyyVVVVVVV",
"VVVVVVVVVeyyyyyyyyyyryyryyy5VVVVVVVVVVVVVVVV  O:yyryyyeyyuyytttyyyyyyyyyyyyyeyyyyyyeVVVVVVVVVVVVVVVVVVVVVV5yryyyyryyyyyryVVVVVVV",
"VVVVVVVVV0ryryeryyyrryyryyyVVVVVVVVVVVVVVVVVV  .;yyyyryyttyrttturyyrryyryyyyryryyryyyVVVVVVVVVVVVVVVVVVVVVeyyyryyryyeyyyeVVVVVVV",
"VVVVVVVVV,yyyyyyryryyyryuy6VVVVVVVVVVVVVVVVVVVV .#2eyyryryryttttyryryryyyrryyyryyyeyyVVVVVVVVVVVVVVVVVVVVVyyryyrryyeyyryeVVVVVVV",
"VVVVVVVVV=yyryyrrryyrryere,VVVVVVVVVVVVVVVVVVVVV  .$2yyyyryyryryrryeyryryyyrryyeyyyeyVVVVVVVVVVVVVVVVVVVVeyyryryyyeyyyyr5VVVVVVV",
"VVVVVVVVVVeyyreyyyrryyryyyVVVVVVVVVVVVVVVVVVVVVVV   .*6rrrywyeyeyyryryywrreyyrryyeeyyeVVVVVVVVVVVVVVVVVVVyyeyeyyryrreyeyVVVVVVVV",
"VVVVVVVVVV6yeyryerrrrrrryeVVVVVVVVVVVVVVVVVVVVVVVVV   %eryyeeyeyrrrrreyrrrrreyeryeyreyVVVVVVVVVVVVVVVVVV2yyeeyereyyeeyyeVVVVVVVV",
"VVVVVVVVVV:errrreyryeyrreyVVVVVVVVVVVVVVVVVVVVVVVVVV   ,eyeyeeyyyyrryeeyrryrryrreyeeyeVVVVVVVVVVVVVVVVVV1ywyeyyerreyyee6VVVVVVVV",
"VVVVVVVVVV%eeyeetteetertee6VVVVVVVVVVVVVVVVVVVVVVVVVVV =eeyeywyeerryerrrrrreyetrteyeyrVVVVVVVVVVVVVVVVVV5yyyryeyrrreyywVVVVVVVVV",
"VVVVVVVVVVV6yereetettereteeVVVVVVVVVVVVVVVVVVVVVVVVVVVV;eyeeeywrrereywerrreyreeteyeyeeVVVVVVVVVVVVVVVVVV6eweeeeyeyyeer6VVVVVVVVV",
"VVVVVVVVVVV:eyeyeeeeeyeteteVVVVVVVVVVVVVVVVVVVVVVVVVVVV5eeeyyereeyerrrrrrrrreeteyereeeVVVVVVVVVVVVVVVVVVweyeeeeewyeeye5VVVVVVVVV",
"VVVVVVVVVVV$0eeeeteeeeeeeee0VVVVVVVVVVVVVVVVVVVVVVVVVV;eeeeeeeeeeeeeeeeeeeeeereeweeeyeVVVVVVVVVVVVVVVVVV0eereeeeeeereeVVVVVVVVVV",
"VVVVVVVVVVVV2eeeeeeeeeeeeeeeVVVVVVVVVVVVVVVVVVVVVVVVVV6eeeeeeeeeeeeeeeeeeeeeeeeeeeeeeeVVVVVVVVVVVVVVVVVV0eeeeeeeeeeee6VVVVVVVVVV",
"VVVVVVVVVVVV*eeeeeeeeeeeeeeeeVVVVVVVVVVVVVVVVVVVVVVVVVeeeeeeeeeeeeeeeeeeeeeeeeeeeeeee0VVVVVVVVVVVVVVVVVV0eeeeeeeeeeee:VVVVVVVVVV",
"VVVVVVVVVVVVV6eeeeeeeee0eeeeeeVVVVVVVVVVVVVVVVVVVVVVVVeeeeeeeeeeeeeweeeeeeeeeeeeeeeee0VVVVVVVVVVVVVVVVVV6eeeeeeeeeee0VVVVVVVVVVV",
"VVVVVVVVVVVVV=0ee0ee0eeweeeeeeeVVVVVVVVVVVVVVVVVVVVVVV0eeeeeee0eweee0eeewewqewqeeeeee0VVVVVVVVVVVVVVVVV:eeeeeeeeeeee,VVVVVVVVVVV",
"VVVVVVVVVVVVVO5e0eee0eeeeee6eee6VVVVVVVVVVVVVVVVVVVVVV0ewqwqrw0rwwewewqwwewqeqqe0eeeeeVVVVVVVVVVVVVVVVVweeeeee0eeeewVVVVVVVVVVVV",
"VVVVVVVVVVVVVV=6ee0eww0ee0ee0eee0VVVVVVVVVVVVVVVVVVVVV0eqwwwwww0wwwwqwewwwwwqqqwe0e6e6VVVVVVVVVVVVVVVV6eee6ee0eeee62VVVVVVVVVVVV",
"VVVVVVVVVVVVVVV2e00e0e0ew0eee6e000VVVVVVVVVVVVVVVVVVV=eewwwwww00wwwwwqq0qwwqq0ww6eeeeeVVVVVVVVVVVVVVV0eee00e6e0e6e6VVVVVVVVVVVVV",
"VVVVVVVVVVVVVV $06eww000e6w6eewee0VVVVVVVVVVVVVVVVVVV20000w0w00rw0wwq00wwq0w0w0weee66eVVVVVVVVVVVVVV0ee6e6e0e0e6ww=VVVVVVVVVVVVV",
"VVVVVVVVVVVVVVV.:000e000w0e600e600VVVVVVVVVVVVVVVVVV:000w0q00r9000w00w0w00w00ww06eee6e5VVVVVVVVVVVV60e6ee6ee6e0062VVVVVVVVVVVVVV",
"VVVVVVVVVVVVVVVVO5006000000w0e6e000VVVVVVVVVVVVVVVV200w00000000000000000000000006e6e6e6VVVVVVVVVVVV5000w6ee6e000eVVVVVVVVVVVVVVV",
"VVVVVVVVVVVVVVVV *00w0000000w6e6000VVVVVVVVVVVVVVV000000000000000000000000000000e6e6e6eVVVVVVVVVVVV50000000e6e00;VVVVVVVVVVVVVVV",
"VVVVVVVVVVVVVVVVV.:0000000006e60000VVVVVVVVVVVVVV00000000000009000000000000000006e6e6e66VVVVVVVVVVV500000006e602VVVVVVVVVVVVVVVV",
"VVVVVVVVVVVVVVVVV O2e6e006e6666e006VVVVVVVVVVVVV0006060099909000000006060900000000000006VVVVVVVVVVV6e06e06ee006VVVVVVVVVVVVVVVVV",
"VVVVVVVVVVVVVVVVVV $66505e600e666e6VVVVVVVVVVVVV6660006088900999060600909999999996066600VVVVVVVVVV666066006666=VVVVVVVVVVVVVVVVV",
"VVVVVVVVVVVVVVVVVVV =6650000060006eVVVVVVVVVVVVV60606000999999996999609699999909996006606VVVVVVVV260066e066e6=VVVVVVVVVVVVVVVVVV",
"VVVVVVVVVVVVVVVVVVV  =6e66666066666VVVVVVVVVVVV106069606888999999999999999969960999960066VVVVVVV1666606666061VVVVVVVVVVVVVVVVVVV",
"VVVVVVVVVVVVVVVVVVVV O,666066660666VVVVVVVVVVVV56996606095999696996999669969w696960660666VVVVVV666660066066,VVVVVVVVVVVVVVVVVVVV",
"VVVVVVVVVVVVVVVVVVVVV O;66660666666VVVVVVVVVVV1666906666999999669969699699666969999666606VVVV66600606666661VVVVVVVVVVVVVVVVVVVVV",
"VVVVVVVVVVVVVVVVVVVVVV O,6066660666VVVVVVVVVV16696666669966966669666699696696966696606665V566666666666606,VVVVVVVVVVVVVVVVVVVVVV",
"VVVVVVVVVVVVVVVVVVVVVVV O,566666666VVVVVVVVV366666666666666666666666666666666666666666666666666666666666,VVVVVVVVVVVVVVVVVVVVVVV",
"VVVVVVVVVVVVVVVVVVVVVVVV o;56666955VVVVVVVVV56666666666666666666666666656666666666666666666666636666665,VVVVVVVVVVVVVVVVVVVVVVVV",
"VVVVVVVVVVVVVVVVVVVVVVVVV O:56565985VVVVVVV56566656556663666655666655666655556365656566566636666665566,VVVVVVVVVVVVVVVVVVVVVVVVV",
"VVVVVVVVVVVVVVVVVVVVVVVVVV .&56555955VVVVV36566655565636693656655655655556656656565656566536596665565;VVVVVVVVVVVVVVVVVVVVVVVVVV",
"VVVVVVVVVVVVVVVVVVVVVVVVVVV  &1555555555VV3563365555656653655556555556555655553655555555636663565563&VVVVVVVVVVVVVVVVVVVVVVVVVVV",
"VVVVVVVVVVVVVVVVVVVVVVVVVVVV  O;355555556555553555555565535555555555555555653555555555636666553655,$VVVVVVVVVVVVVVVVVVVVVVVVVVVV",
"VVVVVVVVVVVVVVVVVVVVVVVVVVVVV  O-3555555556355655555553556555355555555555555593535565555353555553;OVVVVVVVVVVVVVVVVVVVVVVVVVVVVV",
"VVVVVVVVVVVVVVVVVVVVVVVVVVVVVV   %,3365555535553555555353556555954544554953655956555566365355331&VVVVVVVVVVVVVVVVVVVVVVVVVVVVVVV",
"VVVVVVVVVVVVVVVVVVVVVVVVVVVVVVVV  X*1553553535353535355555355515544544541555353535353535355355*OVVVVVVVVVVVVVVVVVVVVVVVVVVVVVVVV",
"VVVVVVVVVVVVVVVVVVVVVVVVVVVVVVVVVV  O;535353353335535553353535524444444444444444553535353353;# VVVVVVVVVVVVVVVVVVVVVVVVVVVVVVVVV",
"VVVVVVVVVVVVVVVVVVVVVVVVVVVVVVVVVVV  .@;25355355553533355355235544444434444425442353535352;#. VVVVVVVVVVVVVVVVVVVVVVVVVVVVVVVVVV",
"VVVVVVVVVVVVVVVVVVVVVVVVVVVVVVVVVVVVV  .@-3355443333535325525255443444242435522555253552;#. VVVVVVVVVVVVVVVVVVVVVVVVVVVVVVVVVVVV",
"VVVVVVVVVVVVVVVVVVVVVVVVVVVVVVVVVVVVVV    O&,2255335333333252523324434445342245223532,*+. VVVVVVVVVVVVVVVVVVVVVVVVVVVVVVVVVVVVVV",
"VVVVVVVVVVVVVVVVVVVVVVVVVVVVVVVVVVVVVVVV    X#*133335522323332524244244325253522522=#X  VVVVVVVVVVVVVVVVVVVVVVVVVVVVVVVVVVVVVVVV",
"VVVVVVVVVVVVVVVVVVVVVVVVVVVVVVVVVVVVVVVVVV     X#*11222535532525424242242255242,*#O.  VVVVVVVVVVVVVVVVVVVVVVVVVVVVVVVVVVVVVVVVVV",
"VVVVVVVVVVVVVVVVVVVVVVVVVVVVVVVVVVVVVVVVVVVVV     .o#*:11122225224242242,2,;=$O.   VVVVVVVVVVVVVVVVVVVVVVVVVVVVVVVVVVVVVVVVVVVVV",
"VVVVVVVVVVVVVVVVVVVVVVVVVVVVVVVVVVVVVVVVVVVVVVVV      ..oO$&**********&$OOX.     VVVVVVVVVVVVVVVVVVVVVVVVVVVVVVVVVVVVVVVVVVVVVVV",
"VVVVVVVVVVVVVVVVVVVVVVVVVVVVVVVVVVVVVVVVVVVVVVVVVVV                          VVVVVVVVVVVVVVVVVVVVVVVVVVVVVVVVVVVVVVVVVVVVVVVVVVV",
"VVVVVVVVVVVVVVVVVVVVVVVVVVVVVVVVVVVVVVVVVVVVVVVVVVVVVVVVV              VVVVVVVVVVVVVVVVVVVVVVVVVVVVVVVVVVVVVVVVVVVVVVVVVVVVVVVVV",
"VVVVVVVVVVVVVVVVVVVVVVVVVVVVVVVVVVVVVVVVVVVVVVVVVVVVVVVVVVVVVVVVVVVVVVVVVVVVVVVVVVVVVVVVVVVVVVVVVVVVVVVVVVVVVVVVVVVVVVVVVVVVVVVV",
"VVVVVVVVVVVVVVVVVVVVVVVVVVVVVVVVVVVVVVVVVVVVVVVVVVVVVVVVVVVVVVVVVVVVVVVVVVVVVVVVVVVVVVVVVVVVVVVVVVVVVVVVVVVVVVVVVVVVVVVVVVVVVVVV",
"VVVVVVVVVVVVVVVVVVVVVVVVVVVVVVVVVVVVVVVVVVVVVVVVVVVVVVVVVVVVVVVVVVVVVVVVVVVVVVVVVVVVVVVVVVVVVVVVVVVVVVVVVVVVVVVVVVVVVVVVVVVVVVVV",
"VVVVVVVVVVVVVVVVVVVVVVVVVVVVVVVVVVVVVVVVVVVVVVVVVVVVVVVVVVVVVVVVVVVVVVVVVVVVVVVVVVVVVVVVVVVVVVVVVVVVVVVVVVVVVVVVVVVVVVVVVVVVVVVV",
"VVVVVVVVVVVVVVVVVVVVVVVVVVVVVVVVVVVVVVVVVVVVVVVVVVVVVVVVVVVVVVVVVVVVVVVVVVVVVVVVVVVVVVVVVVVVVVVVVVVVVVVVVVVVVVVVVVVVVVVVVVVVVVVV",
"VVVVVVVVVVVVVVVVVVVVVVVVVVVVVVVVVVVVVVVVVVVVVVVVVVVVVVVVVVVVVVVVVVVVVVVVVVVVVVVVVVVVVVVVVVVVVVVVVVVVVVVVVVVVVVVVVVVVVVVVVVVVVVVV"
};
