/* XPM */
static char *control_center_[] = {
/* columns rows colors chars-per-pixel */
"128 128 60 1",
"  c #000000000000",
". c #060606060606",
"X c #073A073A073A",
"o c #0B3E0B3E0B3E",
"O c #10100F421010",
"+ c #0FA90FA90FA9",
"@ c #114411441144",
"# c #12DF13AD12DF",
"$ c #147A147A147A",
"% c #181818181818",
"& c #1B4E1B4E1B4E",
"* c #1E841E841E84",
"= c #21BB21BB21BB",
"- c #24F124F124F1",
"; c #268C2626268C",
": c #26F326262626",
"> c #262626F32626",
", c #262626F326F3",
"< c #27C127C127C1",
"1 c #29C328F529C3",
"2 c #2A902A902A90",
"3 c #2F622F622F62",
"4 c #303030302FC9",
"5 c #30FD30FD30FD",
"6 c #336632FF3366",
"7 c #350135013501",
"8 c #360A369C3643",
"9 c #389E389E389E",
"0 c #39D3396C396C",
"q c #396C39D3396C",
"w c #39D339D3396C",
"e c #396C396C39D3",
"r c #39D3396C39D3",
"t c #396C39D339D3",
"y c #3B6E3B6E3B6E",
"u c #3D093CA23CA2",
"i c #3CA23D093CA2",
"p c #3D093D093CA2",
"a c #3CA23CA23D09",
"s c #3CA23D093D09",
"d c #3E3E3E3E3E3E",
"f c #401B40204006",
"g c #417441744174",
"h c #432E432E4350",
"j c #451145114511",
"k c #4667468B4677",
"l c #47E147E147E1",
"z c #49E3497C497C",
"x c #497C49E3497C",
"c c #49E349E3497C",
"v c #497C497C49E3",
"b c #49E3497C49E3",
"n c #4B174B174B17",
"m c #4D194D194CB2",
"M c #4EB44EB44EB4",
"N c #4FE94FE95050",
"B c #518451845184",
"V c #535C53865349",
"C c #545454545454",
"Z c None",
/* pixels */
"ZZZZZZZZZZZZZZZZZZZZZZZZZZZZZZZZZZZZZZZZZZZZZZZZZZZZZZZZZZZZZZZZZZZZZZZZZZZZZZZZZZZZZZZZZZZZZZZZZZZZZZZZZZZZZZZZZZZZZZZZZZZZZZZZ",
"ZZZZZZZZZZZZZZZZZZZZZZZZZZZZZZZZZZZZZZZZZZZZZZZZZZZZZZZZZZZZZZZZZZZZZZZZZZZZZZZZZZZZZZZZZZZZZZZZZZZZZZZZZZZZZZZZZZZZZZZZZZZZZZZZ",
"ZZZZZZZZZZZZZZZZZZZZZZZZZZZZZZZZZZZZZZZZZZZZZZZZZZZZZZZZZZZZZZZZZZZZZZZZZZZZZZZZZZZZZZZZZZZZZZZZZZZZZZZZZZZZZZZZZZZZZZZZZZZZZZZZ",
"ZZZZZZZZZZZZZZZZZZZZZZZZZZZZZZZZZZZZZZZZZZZZZZZZZZZZZZZZZZZZZZZZZZZZZZZZZZZZZZZZZZZZZZZZZZZZZZZZZZZZZZZZZZZZZZZZZZZZZZZZZZZZZZZZ",
"ZZZZZZZZZZZZZZZZZZZZZZZZZZZZZZZZZZZZZZZZZZZZZZZZZZZZZZZZZZZZZZZZZZZZZZZZZZZZZZZZZZZZZZZZZZZZZZZZZZZZZZZZZZZZZZZZZZZZZZZZZZZZZZZZ",
"ZZZZZZZZZZZZZZZZZZZZZZZZZZZZZZZZZZZZZZZZZZZZZZZZZZZZZZZZZZZZZZZZZZZZZZZZZZZZZZZZZZZZZZZZZZZZZZZZZZZZZZZZZZZZZZZZZZZZZZZZZZZZZZZZ",
"ZZZZZZZZZZZZZZZZZZZZZZZZZZZZZZZZZZZZZZZZZZZZZZZZZZZZZZZZZZZZZZZZZZZZZZZZZZZZZZZZZZZZZZZZZZZZZZZZZZZZZZZZZZZZZZZZZZZZZZZZZZZZZZZZ",
"ZZZZZZZZZZZZZZZZZZZZZZZZZZZZZZZZZZZZZZZZZZZZZZZZZZZZZZZZZZZZZZZZZZZZZZZZZZZZZZZZZZZZZZZZZZZZZZZZZZZZZZZZZZZZZZZZZZZZZZZZZZZZZZZZ",
"ZZZZZZZZZZZZZZZZZZZZZZZZZZZZZZZZZZZZZZZZZZZZZZZZZZZZZZZZZZZZZZZZZZZZZZZZZZZZZZZZZZZZZZZZZZZZZZZZZZZZZZZZZZZZZZZZZZZZZZZZZZZZZZZZ",
"ZZZZZZZZZZZZZZZZZZZZZZZZZZZZZZZZZZZZZZZZZZZZZZZZZZZZZZZZZZZZZZZZZZZZZZZZZZZZZZZZZZZZZZZZZZZZZZZZZZZZZZZZZZZZZZZZZZZZZZZZZZZZZZZZ",
"ZZZZZZZZZZZZZZZZZZZZZZZZZZZZZZZZZZZZZZZZZZZZZZZZZZZZZZZZZZZZZZZZZZZZZZZZZZZZZZZZZZZZZZZZZZZZZZZZZZZZZZZZZZZZZZZZZZZZZZZZZZZZZZZZ",
"ZZZZZZZZZZZZZZZZZZZZZZZZZZZZZZZZZZZZZZZZZZZZZZZZZZZZZZZZZZZZZZZZZZZZZZZZZZZZZZZZZZZZZZZZZZZZZZZZZZZZZZZZZZZZZZZZZZZZZZZZZZZZZZZZ",
"ZZZZZZZZZZZZZZZZZZZZZZZZZZZZZZZZZZZZZZZZZZZZZZZZZZZZZZZZZZZZZZZZZZZZZZZZZZZZZZZZZZZZZZZZZZZZZZZZZZZZZZZZZZZZZZZZZZZZZZZZZZZZZZZZ",
"ZZZZZZZZZZZZZZZZZZZZZZZZZZZZZZZZZZZZZZZZZZZZZZZZZZZZZZZZZZZZZZZZZZZZZZZZZZZZZZZZZZZZZZZZZZZZZZZZZZZZZZZZZZZZZZZZZZZZZZZZZZZZZZZZ",
"ZZZZZZZZZZZZZZZZZZZZZZZZZZZZZZZZZZZZZZZZZZZZZZZZZZZZZZZZZZZZZZZZZZZZZZZZZZZZZZZZZZZZZZZZZZZZZZZZZZZZZZZZZZZZZZZZZZZZZZZZZZZZZZZZ",
"ZZZZZZZZZZZZZZZZZZZZZZZZZZZZZZZZZZZZZZZZZZZZZZZZZZZZZZZZZZZZZZZZZZZZZZZZZZZZZZZZZZZZZZZZZZZZZZZZZZZZZZZZZZZZZZZZZZZZZZZZZZZZZZZZ",
"ZZZZZZZZZZZZZZZZZZZZZZZZZZZZZZZZZZZZZZZZZZZZZZZZZZZZZZZZZZZZZZZZZZZZZZZZZZZZZZZZZZZZZZZZZZZZZZZZZZZZZZZZZZZZZZZZZZZZZZZZZZZZZZZZ",
"ZZZZZZZZZZZZZZZZZZZZZZZZZZZZZZZZZZZZZZZZZZZZZZZZZZZZZZZZZZZZZZZZZZZZZZZZZZZZZZZZZZZZZZZZZZZZZZZZZZZZZZZZZZZZZZZZZZZZZZZZZZZZZZZZ",
"ZZZZZZZZZZZZZZZZZZZZZZZZZZZZZZZZZZZZZZZZZZZZZZZZZZZZZZZZZZZZZZZZZZZZZZZZZZZZZZZZZZZZZZZZZZZZZZZZZZZZZZZZZZZZZZZZZZZZZZZZZZZZZZZZ",
"ZZZZZZZZZZZZZZZZZZZZZZZZZZZZZZZZZZZZZZZZZZZZZZZZZZZZZZZZZZZZZZZZZZZZZZZZZZZZZZZZZZZZZZZZZZZZZZZZZZZZZZZZZZZZZZZZZZZZZZZZZZZZZZZZ",
"ZZZZZZZZZZZZZZZZZZZZZZZZZZZZZZZZZZZZZZZZZZZZZZZZZZZZZZZZZZZZZZZZZZZZZZZZZZZZZZZZZZZZZZZZZZZZZZZZZZZZZZZZZZZZZZZZZZZZZZZZZZZZZZZZ",
"ZZZZZZZZZZZZZZZZZZZZZZZZZZZZZZZZZZZZZZZZZZZZZZZZZZZZZZZZZZZZZZZZZZZZZZZZZZZZZZZZZZZZZZZZZZZZZZZZZZZZZZZZZZZZZZZZZZZZZZZZZZZZZZZZ",
"ZZZZZZZZZZZZZZZZZZZZZZBCCCCCCCCCCCCCZZZZZZZZZZZZZZZZZZZZZZCCCCCCCCCCCCCZZZZZZZZZZZZZZZZZZZZZZCCCCCCCCCCCCCCZZZZZZZZZZZZZZZZZZZZZ",
"ZZZZZZZZZZZZZZZZZZZZZZCCCCCCCCCCCCCCVZZZZZZZZZZZZZZZZZZZZCCCCCCCCCCCCCCCZZZZZZZZZZZZZZZZZZZZVCCCCCCCCCCCCCCZZZZZZZZZZZZZZZZZZZZZ",
"ZZZZZZZZZZZZZZZZZZZZZBCCCCCCCCCCCCCCCZZZZZZZZZZZZZZZZZZZZCCCCCCCCCCCCCCCVZZZZZZZZZZZZZZZZZZZVCCCCCCCCCCCCCCVZZZZZZZZZZZZZZZZZZZZ",
"ZZZZZZZZZZZZZZZZZZZZZBCCCCCCCCCCCCCCCZZZZZZZZZZZZZZZZZZZZCCCCCCCCCCCCCCCNZZZZZZZZZZZZZZZZZZZVVCCCCCCCCCCCCCVZZZZZZZZZZZZZZZZZZZZ",
"ZZZZZZZZZZZZZZZZZZZZZNCCCCCCCCCCCCVVVZZZZZZZZZZZZZZZZZZZZVVVCCCVCCCCVVVVBZZZZZZZZZZZZZZZZZZZNVVVCCCCCCCCVVBBZZZZZZZZZZZZZZZZZZZZ",
"ZZZZZZZZZZZZZZZZZZZZZmCCCCCCCCCCVVVVVZZZZZZZZZZZZZZZZZZZaVVVCVVVCCCCVVVVMZZZZZZZZZZZZZZZZZZZVVVVCCCCCCCCVVVBZZZZZZZZZZZZZZZZZZZZ",
"ZZZZZZZZZZZZZZZZZZZZZmBCBCBBCCCCVVVVCZZZZZZZZZZZZZZZZZZZ8VNVVVBVCCVBVVVVmZZZZZZZZZZZZZZZZZZZVBVVBVBVVVVVVVVBZZZZZZZZZZZZZZZZZZZZ",
"ZZZZZZZZZZZZZZZZZZZZZmBCCBCCCCCBVVVVVZZZZZZZZZZZZZZZZZZZ8NVVVBVVCCVVVBVVnZZZZZZZZZZZZZZZZZZZBVVVVVVVVVVVBVBBZZZZZZZZZZZZZZZZZZZZ",
"ZZZZZZZZZZZZZZZZZZZZZnBVBBCBCBBBBBBVVZZZZZZZZZZZZZZZZZZZ7VNVNVBVVVBVBVBVnZZZZZZZZZZZZZZZZZZZMBBBVNBVVBMVBVBMZZZZZZZZZZZZZZZZZZZZ",
"ZZZZZZZZZZZZZZZZZZZZZnBBCBBBBBBBVBBBBZZZZZZZZZZZZZZZZZZZ4NVNVNBBVVBBBBBBnZZZZZZZZZZZZZZZZZZZNVBBBBBBBVBBBBBBZZZZZZZZZZZZZZZZZZZZ",
"ZZZZZZZZZZZZZZZZZZZZZnBBBBBBBBBBBBBBBZZZZZZZZZZZZZZZZZZZ4BBBVBBBBBBBBBBBnZZZZZZZZZZZZZZZZZZZNBBBBBBBBVBBMVNMZZZZZZZZZZZZZZZZZZZZ",
"ZZZZZZZZZZZZZZZZZZZZZnBBBBBBBBBBBBBBBZZZZZZZZZZZZZZZZZZZ8VBBMVBBBBBBBBBMlZZZZZZZZZZZZZZZZZZZMBNBBBBMBMMBVVMMZZZZZZZZZZZZZZZZZZZZ",
"ZZZZZZZZZZZZZZZZZZZZZnBBBBBBNBBBBBBBMZZZZZZZZZZZZBBNBMmnnVBMVNBBBBBBNBNVBmNNBBBMZZZZZZZZZZZZMBBBBBMVBBBBVMMMZZZZZZZZZZZZZZZZZZZZ",
"ZZZZZZZZZZZZZZZZZZZZZlBBNNBMBBMBNNBNBZZZZZZZZZZMMBNBBMBNBMBBMBMVBmBmBNVMBBBMBBNBMBZZZZZZZZZZMNNBBBVMNNNNMMVmZZZZZZZZZZZZZZZZZZZZ",
"ZZZZZZZZZZZZZZZZZZZZZnBMNNNNBMBNNNBNmZZZZZZZZZZBNNNBNNNNMMVMVMMMBBBmVMNVMMBMNNNNNNZZZZZZZZZZMNNNBBBBNNNNMBMMZZZZZZZZZZZZZZZZZZZZ",
"ZZZZZZZZZZZZZZZZZZZZZlMBNNNMMNMBmNMBBZZZZZZZZZlMNNNMNNNNMVNNMMVMmBBBNNMMMBMBMNNNNNMZZZZZZZZZmBNNMMMMNNBMBMNnZZZZZZZZZZZZZZZZZZZZ",
"ZZZZZZZZZZZZZZZZZZZZZnMMMNMNBMBMBmBMmZZZZZZZZZnBNMMNNNMNMMNNMVMNNBmBMNMMMVMMNNNNMMmZZZZZZZZZMMBMMMBMMBMMMBBmZZZZZZZZZZZZZZZZZZZZ",
"ZZZZZZZZZZZZZZZZZZZZZlMBMNMNMMMMmBmBMZZZZZZZZZkMMNMMMMMBMMMMMMMMmmNmMVMMMMMMMMMMMBnZZZZZZZZZmMmMMMMMMMNMMMMnZZZZZZZZZZZZZZZZZZZZ",
"ZZZZZZZZZZZZZZZZZZZZZlBmMNMMBNmBMMMMMZZZZZZZZZhBMMMMMMMnd41,,,,,,11,,<4flmMMBMMMMMlZZZZZZZZZmNMMMMMMMMMMMMMnZZZZZZZZZZZZZZZZZZZZ",
"ZZZZZZZZZZZZZZZZZZZZZlMMMMMMmmNmMMMMnZZZZZZZZZhmMMMMMMh=                =hMMMMMMMMlZZZZZZZZZmMMMMMMMMMMMmMMnZZZZZZZZZZZZZZZZZZZZ",
"ZZZZZZZZZZZZZZZZZZZZZlMmMMmNmNNmMMMMMZZZZZZZZZdmMMMMMm,                  1MMMMMMMMlZZZZZZZZZnMMMMMMMMmMMMnMnZZZZZZZZZZZZZZZZZZZZ",
"ZZZZZZZZZZZZZZZZZZZZZlMMMmmNmmmNMmmBnZZZZZZZZZfmMmmMMhXZZZZZZZZZZZZZZZZ  XfMmMnMMmkZZZZZZZZZnMMmMMmMMMnMMMMvZZZZZZZZZZZZZZZZZZZZ",
"ZZZZZZZZZZZZZZZZZZZZZkmmmmmmmmmmnMMmmZZZZZZZZZdmMMmmldZZZZZZZZZZZZZZZZZZ  ymMnMMnmkZZZZZZZZZmmmmnMMmMnMMMnMnZZZZZZZZZZZZZZZZZZZZ",
"ZZZZZZZZZZZZZZZZZZZZZlmMmmmmmmmNMnMnnZZZZZZZZZdmnMmmmhZZZZZZZZZZZZZZZZZZZ dnMMnnMmkZZZZZZZZZnmmNMnmmnMnMmmnnZZZZZZZZZZZZZZZZZZZZ",
"ZZZZZZZZZZZZZZZZZZZZZlmnmmmMmmmmnMnMnZZZZZZZZZdnnmnMmlZZZZZZZZZZZZZZZZZZZ%lnnnnMnMkZZZZZZZZZnmmnnMnmMMnnmmmnZZZZZZZZZZZZZZZZZZZZ",
"ZZZZZZZZZZZZZZZZZZZZZkmmnmmnnmmmnnmnnZZZZZZZZZdmMnmnmmhZZZZZZZZZZZZZZZZZZanMnmMnnnkZZZZZZZZZlnnmMnnmnnnMnmnlZZZZZZZZZZZZZZZZZZZZ",
"ZZZZZZZZZZZZZZZZZZZZZkllnmmmnmnnmmmmnZZZZZZZZZdlmmnmnnmlZZZZZZZZZZZZZZZZhnnMnmnnnnkZZZZZZZZZnmnmnmnmmnnnnnmlZZZZZZZZZZZZZZZZZZZZ",
"ZZZZZZZZZZZZZZZZZZZZZkmmnnnnmnmnnnnmlZZZZZZZZZdnmlnMnmnnnnnnnnnnnnnnnnnnnnnnnnnmnnkZZZZZZZZZlnnnnnnnnmnnnnnlZZZZZZZZZZZZZZZZZZZZ",
"ZZZZZZZZZZZZZZZZZZZZZkmnnnnnnnnnnnnnmZZZZZZZZZdnnnnnnnnnnnnnnnnnnnnnnnnnnnnnnnnnnnkZZZZZZZZZnnnnnnnnnnnnnnnlZZZZZZZZZZZZZZZZZZZZ",
"ZZZZZZZZZZZZZZZZZZZZZknnnnnnnnnnnnnnlZZZZZZZZZdlnnnnnnnnnnnnnnnnnnnnnnnnnnnnnnnnmlhZZZZZZZZZlnnmnnnnnnnnnnnlZZZZZZZZZZZZZZZZZZZZ",
"ZZZZZZZZZZZZZZZZZZZZZhlmnnlnmmnnnnnnnZZZZZZZZZylnmnmnnnnmnlmnnmlnnnnnnlnnnnnnnnlnlhZZZZZZZZZlmnlnnnlnnnnnnnlZZZZZZZZZZZZZZZZZZZZ",
"ZZZZZZZZZZZZZZZZZZZZZkllnnnnlllmnnlnlZZZZZZZZZ-lllllnnnllmmllmlmmlnllnmllnlmnnnnnlZZZZZZZZZZllnnnnnnnlnlnnllZZZZZZZZZZZZZZZZZZZZ",
"ZZZZZZZZZZZZZZZZZZZZZklmnlmnlnnllnnlnZZZZZZZZZZ4nnlllllnllnlnlmlllnnlnnnnllllllnnyZZZZZZZZZZllmllnnllnlnnnlkZZZZZZZZZZZZZZZZZZZZ",
"ZZZZZZZZZZZZZZZZZZZZZklllnllnllnlnlnlZZZZZZZZZZ -yhfhdhhknlnlnlllnlnnllnkhffhfhd2ZZZZZZZZZZZlllnnnlnnlnnllllZZZZZZZZZZZZZZZZZZZZ",
"ZZZZZZZZZZZZZZZZZZZZZhlnllnllnllnnlnlZZZZZZZZZZZ XXXXXXX1lnlmllmllllnlll8..o..o.ZZZZZZZZZZZZlllllllnlnlnlnljZZZZZZZZZZZZZZZZZZZZ",
"ZZZZZZZZZZZZZZZZZZZZZhlllnnlnlnllllllZZZZZZZZZZZZ       -lnllllllnlnllnl8     ZZZZZZZZZZZZZZlnlnnllnllllllllZZZZZZZZZZZZZZZZZZZZ",
"ZZZZZZZZZZZZZZZZZZZZZhlllllllllllnlllZZZZZZZZZZZZZZZZ   -lllllllnlnllllly ZZZZZZZZZZZZZZZZZZkllllllllnllllljZZZZZZZZZZZZZZZZZZZZ",
"ZZZZZZZZZZZZZZZZZZZZZhlllllllllllllllZZZZZZZZZZZZZZZZZZ -lllllllllllllll8ZZZZZZZZZZZZZZZZZZZjllllllllllllllkZZZZZZZZZZZZZZZZZZZZ",
"ZZZZZZZZZZZZZZZZZZZZZhllllllllllllllkZZZZZZZZZZZZZZZZZZZ1llllllllllllllldZZZZZZZZZZZZZZZZZZZjllllllllllllllhZZZZZZZZZZZZZZZZZZZZ",
"ZZZZZZZZZZZZZZZZZZZ43hllllklklllllllkdZZZZZZZZZZZZZZZZZZ1llllklklllllklldZZZZZZZZZZZZZZZZZZZjllllljllllllllkZZZZZZZZZZZZZZZZZZZZ",
"ZZZZZZZZZZZZkllkllkkklkklklllklklllkllkkllkklkZZZZZZZZZZ1kkkklkkklkllkkldZZZZZZZZZZZZZZZZZZZjjljjlllklkllhlhZZZZZZZZZZZZZZZZZZZZ",
"ZZZZZZZZZZZZlkkkkkklkkkkllkkklkklkkkhllkkkkkkkZZZZZZZZZZ1kklkkklkkkklkkkdZZZZZZZZZZZZZZZZZZZhlllljhlkljllljlZZZZZZZZZZZZZZZZZZZZ",
"ZZZZZZZZZZZhkkkkkkkkkkkkklkkkkkkkkkkkkkkkkkkkkkZZZZZZZZZ2jjljkljkkkkjljldZZZZZZZZZZZZZZZZZZZjjjkkkkljkjlkkkjZZZZZZZZZZZZZZZZZZZZ",
"ZZZZZZZZZZZkkkkkkkkkkkkkhkhkkkkkkkkkkjkkkkjkkkkZZZZZZZZZ2ljklkjkkkhkljkjdZZZZZZZZZZZZZZZZZZZjjjkkjlhjkjjjkjhZZZZZZZZZZZZZZZZZZZZ",
"ZZZZZZZZZZZkjjjjhkkkkkkklkkkhkhkjjkjkhjkjkkkkkkZZZZZZZZZ2jkjjjjjhlkkljjkdZZZZZZZZZZZZZZZZZZZjjjjjjkkjlkjjjkhZZZZZZZZZZZZZZZZZZZZ",
"ZZZZZZZZZZZjjkjjjkhkhhyddyaydaddpdyjjkjjjkkhkhkZZZZZZZZZ<jjkjjjjkkkhjjjhdZZZZZZZZZZZZZZZZZZZjjjjjkhkjjkjjkhfZZZZZZZZZZZZZZZZZZZZ",
"ZZZZZZZZZZZkjjjjjjjd1@.............$1dhjjjjjhkhZZZZZZZZZ2kjjjjjjjjjjjjhkdZZZZZZZZZZZZZZZZZZZhkjjjjhkjjjjjjjhZZZZZZZZZZZZZZZZZZZZ",
"ZZZZZZZZZZZhjjjjjjd%                 %dkjjjjkkhZZZZZZZZZ1hjjjjjjjjhjjjkhdZZZZZZZZZZZZZZZZZZZhkhjjhkhjjjjjkjfZZZZZZZZZZZZZZZZZZZZ",
"ZZZZZZZZZZZhjhhkhk3  ZZZZZZZZZZZZZ    3hjjjhkhkZZZZZZZZZ<jjhjhjjjjhjhkhhdZZZZZZZZZZZZZZZZZZZhhhjjhhkkkjhkhhhZZZZZZZZZZZZZZZZZZZZ",
"ZZZZZZZZZZZhhkhhkh&ZZZZZZZZZZZZZZZZZ  %fhhhjhhhZZZZZZZZZ2hjhjhhhjhhjhhhkdZZZZZZZZZZZZZZZZZZZhhjhjhhhhhhhhhhhZZZZZZZZZZZZZZZZZZZZ",
"ZZZZZZZZZZZhhhhhhf%ZZZZZZZZZZZZZZZZZZZ$hhhhjhhhZZZZZZZZZ<hhkhhhhhhhhhhhhdZZZZZZZZZZZZhhddyy8hhhhhhhhhhhhhhhhyfhhhhhZZZZZZZZZZZZZ",
"ZZZZZZZZZZZhkhhhhh1ZZZZZZZZZZZZZZZZZZZ=hhhhhhhhZZZZZZZZZ<hhhhhhhhhhhhhhhdZZZZZZZZZZhhhhhkhhhhhhhhhhhhhhhhhhhhhhhhhhhhZZZZZZZZZZZ",
"ZZZZZZZZZZZfhhhhhhyZZZZZZZZZZZZZZZZZZZ8hhhhhhhfZZZZZZZZZ<hhhhhhhhhhhhhhhdZZZZZZZZZdhhhhfhhhhfhhhhhhhdhhhhhhhhhhhhhfhhZZZZZZZZZZZ",
"ZZZZZZZZZZZhdhhhhhfyZZZZZZZZZZZZZZZZZ4hhhfhhhhfZZZZZZZZZ-hhhfhhhfhfhhhhhyZZZZZZZZZhfhhhhhhfhhhhhhfhfhhhhhhdhhfhhhfhhhhZZZZZZZZZZ",
"ZZZZZZZZZZZdfhhfhhfhhdZZZZZZZZZZZZZydhhfhffhhfhZZZZZZZZZ<hhfhhfhhhhfhhhddZZZZZZZZZkhhhfffhfhhhdhhfhfhhhdhfhhfhffhfhhhhZZZZZZZZZZ",
"ZZZZZZZZZZZhhhffhdhfhfhhhhhhhhhhhfhhhhdhhfhfhhhZZZZZZZZZ-hfhffhffffhdhfhyZZZZZZZZ4hhffhhfhfhhhhffhhhhfhhfhfhdhhffhffhdZZZZZZZZZZ",
"ZZZZZZZZZZZffhfhdhdhdhhdhdfhhdhfhhhfddhhfhhffhdZZZZZZZZZ-hfffhfhfhhfdhdhyZZZZZZZZ1fhhfhffhhy84443444344434yhhhfhhhhfhdZZZZZZZZZZ",
"ZZZZZZZZZZZdffhdhfhhfhdhfhddhhfhhddhhhhdhfdfhdhZZZZZZZZZ-hfhfffhfffhhhdhyZZZZZZZZ<hfdhfhfd3O.             .=8dhffdfhhdZZZZZZZZZZ",
"ZZZZZZZZZZZyhdfhhfhhdhfdhfdhfhddddhdfhddhddfhhdZZZZZZZZZ1hfhfhdffhhfffffyZZZZZZZZ1hhdhhdd4                  &ddhdhdhhdZZZZZZZZZZ",
"ZZZZZZZZZZZ1dhhddhdffphddhfddffhdhhddhdhdhhfdf4ZZZZZZZZZ-ffddhdhffffffhfyZZZZZZZZ1ddddhdd* ZZZZZZZZZZZZZZ    3fdffhdddZZZZZZZZZZ",
"ZZZZZZZZZZZZ1ydhhddhhdfffhdhdhdfdhdfdfhhhfddd4ZZZZZZZZZZ-fdfffffffffffdfyZZZZZZZZ<dhdhddy.ZZZZZZZZZZZZZZZZZ  -dfdhddhdZZZZZZZZZZ",
"ZZZZZZZZZZZZ +******=ydhddfdfdhhddhdd-****==$ZZZZZZZZZZZ-fffdhdfdfdfddffyZZZZZZZZ-hdddhdyZZZZZZZZZZZZZZZZZZZ -hdddfdddZZZZZZZZZZ",
"ZZZZZZZZZZZZZ       .8dddfdfdddddhdhp+     ZZZZZZZZZZZZZ-hhddffddfphhfdf8ZZZZZZZZ-hdhdddd-ZZZZZZZZZZZZZZZZZZZ4dhdhdfddZZZZZZZZZZ",
"ZZZZZZZZZZZZZZZ     .ydddddhhdfddddfd@   ZZZZZZZZZZZZZZZ-ddfdddhffddddddyZZZZZZZZ-ddddddd8ZZZZZZZZZZZZZZZZZZ=dddddphdaZZZZZZZZZZ",
"ZZZZZZZZZZZZZZZZZZZ .ydddfddpdddddddd@ZZZZZZZZZZZZZZZZZZ-dddddddddfddddd8ZZZZZZZZ-dhddddddyZZZZZZZZZZZZZZZZ18ddddddddyZZZZZZZZZZ",
"ZZZZZZZZZZZZZZZZZZZZ.8ddddddddddddddy%ZZZZZZZZZZZZZZZZZZ-dddddddddddddddyZZZZZZZZ-dddddddddddddydddddydddydddddddddddyZZZZZZZZZZ",
"ZZZZZZZZZZZZZZZZZZZZZyddddddddddpddddZZZZZZZZZZZZZZZZZZZ-pdffffyddpdddpdyZZZZZZZZ-dddddddddddpddddddddddddpddddddddddyZZZZZZZZZZ",
"ZZZZZZZZZZZZZZZZZZZZZ8addpdddyddddyddZZZZZZZZZZZZZZZZZZZ-fyyyyyfddddpddy8ZZZZZZZZ-ddddyddyydddpdydpdyddydddyyddydydddyZZZZZZZZZZ",
"ZZZZZZZZZZZZZZZZZZZZZ8dayddyddydpdddyZZZZZZZZZZZZZZZZZZZ-ypffyfypppdydpdyZZZZZZZZ-ddyydyyddpydyddydppydydypddyddyddydyZZZZZZZZZZ",
"ZZZZZZZZZZZZZZZZZZZZZyydyddydydydydydZZZZZZZZZZZZZZZZZZZ-ayyfyayppppddyp8ZZZZZZZZ$8dddyddpdydyddydydddydpdyyyddydyydd4ZZZZZZZZZZ",
"ZZZZZZZZZZZZZZZZZZZZZ8dyddyydyddyydyyZZZZZZZZZZZZZZZZZZZ-yaaaayapdpayppp8ZZZZZZZZZ1ddyyyydydyydydpydddyaaaaaaydydydyyZZZZZZZZZZZ",
"ZZZZZZZZZZZZZZZZZZZZZ8ydyydyydyyyddydZZZZZZZZZZZZZZZZZZZ-yayayaadyaayyya8ZZZZZZZZZZ-88yy8yyydyydypyyyydyyaya9y8y8yy3ZZZZZZZZZZZZ",
"ZZZZZZZZZZZZZZZZZZZZZ8yyydyyyyydyyyyyZZZZZZZZZZZZZZZZZZZ-yyyyayyyyyyydyp8ZZZZZZZZZZ o@@@o@@*yyyyyydyyyyyayy7$@@@@@@ZZZZZZZZZZZZZ",
"ZZZZZZZZZZZZZZZZZZZZZ8yyyyyyyyyyyyyyyZZZZZZZZZZZZZZZZZZZ-yyyyyyyyyyyyyyy8ZZZZZZZZZZZ       @8yyyyyyyyyyyyyy8.     ZZZZZZZZZZZZZZ",
"ZZZZZZZZZZZZZZZZZZZZZ8yyyyyyyyyyyyyyyZZZZZZZZZZZZZZZZZZZ-yyyyyyyyyyyyyyy8ZZZZZZZZZZZZZZ    @9yyyyyyyyyyyyyy7.  ZZZZZZZZZZZZZZZZZ",
"ZZZZZZZZZZZZZZZZZZZZZ8yyyyy8yyyyyyyyyZZZZZZZZZZZZZZZZZZZ=yy99yyyyy9yyy9y8ZZZZZZZZZZZZZZZZZ @9y9yyy9yy9y99yy7ZZZZZZZZZZZZZZZZZZZZ",
"ZZZZZZZZZZZZZZZZZZZZZ8yyyyyyyyyyy9yyyZZZZZZZZZZZZZZZZZZZ=yyyyyyyy8yy9yy98ZZZZZZZZZZZZZZZZZZ@9y9y99yyyy9y9yy8ZZZZZZZZZZZZZZZZZZZZ",
"ZZZZZZZZZZZZZZZZZZZZZ79yy8yy8yy8y8yy8ZZZZZZZZZZZZZZZZZZZ=9yy9y9y9yy8yyyy8ZZZZZZZZZZZZZZZZZZ@8yyyyy9y8y9yyy86ZZZZZZZZZZZZZZZZZZZZ",
"ZZZZZZZZZZZZZZZZZZZZZ8y89yy9y9y9yy99pZZZZZZZZZZZZZZZZZZZ=yy99y99yy9yy9yy8ZZZZZZZZZZZZZZZZZZ$89y9yyyyy9yyy9y8ZZZZZZZZZZZZZZZZZZZZ",
"ZZZZZZZZZZZZZZZZZZZZZ88yy99y8yy9999yyZZZZZZZZZZZZZZZZZZZ=98y99yy99999y993ZZZZZZZZZZZZZZZZZZ$y88y998y8y989y8yZZZZZZZZZZZZZZZZZZZZ",
"ZZZZZZZZZZZZZZZZZZZZZ4yy9999y9999y8y8ZZZZZZZZZZZZZZZZZZZ=9a999y88y9y998y4ZZZZZZZZZZZZZZZZZZ$8y9999y8999yy8y8ZZZZZZZZZZZZZZZZZZZZ",
"ZZZZZZZZZZZZZZZZZZZZZ88y999999999998yZZZZZZZZZZZZZZZZZZZ=999999998y8999y8ZZZZZZZZZZZZZZZZZZZ9999999999998y88ZZZZZZZZZZZZZZZZZZZZ",
"ZZZZZZZZZZZZZZZZZZZZZ3989999999989998ZZZZZZZZZZZZZZZZZZZ*y8yy8y9999999994ZZZZZZZZZZZZZZZZZZZ8y99999989899994ZZZZZZZZZZZZZZZZZZZZ",
"ZZZZZZZZZZZZZZZZZZZZZ*8y99999899y8991ZZZZZZZZZZZZZZZZZZZZ388888899899897ZZZZZZZZZZZZZZZZZZZZ-8899999y89989y1ZZZZZZZZZZZZZZZZZZZZ",
"ZZZZZZZZZZZZZZZZZZZZZZ-89y989989yy81ZZZZZZZZZZZZZZZZZZZZZ$1y8yy899898y3ZZZZZZZZZZZZZZZZZZZZZZ-899888y88y98<ZZZZZZZZZZZZZZZZZZZZZ",
"ZZZZZZZZZZZZZZZZZZZZZZ O%&&&&&&&%*%ZZZZZZZZZZZZZZZZZZZZZZZ.$&&%*&&&&%&ZZZZZZZZZZZZZZZZZZZZZZZ @*&&&&&&&&&#ZZZZZZZZZZZZZZZZZZZZZZ",
"ZZZZZZZZZZZZZZZZZZZZZZZ          ZZZZZZZZZZZZZZZZZZZZZZZZZ           ZZZZZZZZZZZZZZZZZZZZZZZZZ          ZZZZZZZZZZZZZZZZZZZZZZZZ",
"ZZZZZZZZZZZZZZZZZZZZZZZZZ      ZZZZZZZZZZZZZZZZZZZZZZZZZZZZZ       ZZZZZZZZZZZZZZZZZZZZZZZZZZZZZ      ZZZZZZZZZZZZZZZZZZZZZZZZZZ",
"ZZZZZZZZZZZZZZZZZZZZZZZZZZZZZZZZZZZZZZZZZZZZZZZZZZZZZZZZZZZZZZZZZZZZZZZZZZZZZZZZZZZZZZZZZZZZZZZZZZZZZZZZZZZZZZZZZZZZZZZZZZZZZZZZ",
"ZZZZZZZZZZZZZZZZZZZZZZZZZZZZZZZZZZZZZZZZZZZZZZZZZZZZZZZZZZZZZZZZZZZZZZZZZZZZZZZZZZZZZZZZZZZZZZZZZZZZZZZZZZZZZZZZZZZZZZZZZZZZZZZZ",
"ZZZZZZZZZZZZZZZZZZZZZZZZZZZZZZZZZZZZZZZZZZZZZZZZZZZZZZZZZZZZZZZZZZZZZZZZZZZZZZZZZZZZZZZZZZZZZZZZZZZZZZZZZZZZZZZZZZZZZZZZZZZZZZZZ",
"ZZZZZZZZZZZZZZZZZZZZZZZZZZZZZZZZZZZZZZZZZZZZZZZZZZZZZZZZZZZZZZZZZZZZZZZZZZZZZZZZZZZZZZZZZZZZZZZZZZZZZZZZZZZZZZZZZZZZZZZZZZZZZZZZ",
"ZZZZZZZZZZZZZZZZZZZZZZZZZZZZZZZZZZZZZZZZZZZZZZZZZZZZZZZZZZZZZZZZZZZZZZZZZZZZZZZZZZZZZZZZZZZZZZZZZZZZZZZZZZZZZZZZZZZZZZZZZZZZZZZZ",
"ZZZZZZZZZZZZZZZZZZZZZZZZZZZZZZZZZZZZZZZZZZZZZZZZZZZZZZZZZZZZZZZZZZZZZZZZZZZZZZZZZZZZZZZZZZZZZZZZZZZZZZZZZZZZZZZZZZZZZZZZZZZZZZZZ",
"ZZZZZZZZZZZZZZZZZZZZZZZZZZZZZZZZZZZZZZZZZZZZZZZZZZZZZZZZZZZZZZZZZZZZZZZZZZZZZZZZZZZZZZZZZZZZZZZZZZZZZZZZZZZZZZZZZZZZZZZZZZZZZZZZ",
"ZZZZZZZZZZZZZZZZZZZZZZZZZZZZZZZZZZZZZZZZZZZZZZZZZZZZZZZZZZZZZZZZZZZZZZZZZZZZZZZZZZZZZZZZZZZZZZZZZZZZZZZZZZZZZZZZZZZZZZZZZZZZZZZZ",
"ZZZZZZZZZZZZZZZZZZZZZZZZZZZZZZZZZZZZZZZZZZZZZZZZZZZZZZZZZZZZZZZZZZZZZZZZZZZZZZZZZZZZZZZZZZZZZZZZZZZZZZZZZZZZZZZZZZZZZZZZZZZZZZZZ",
"ZZZZZZZZZZZZZZZZZZZZZZZZZZZZZZZZZZZZZZZZZZZZZZZZZZZZZZZZZZZZZZZZZZZZZZZZZZZZZZZZZZZZZZZZZZZZZZZZZZZZZZZZZZZZZZZZZZZZZZZZZZZZZZZZ",
"ZZZZZZZZZZZZZZZZZZZZZZZZZZZZZZZZZZZZZZZZZZZZZZZZZZZZZZZZZZZZZZZZZZZZZZZZZZZZZZZZZZZZZZZZZZZZZZZZZZZZZZZZZZZZZZZZZZZZZZZZZZZZZZZZ",
"ZZZZZZZZZZZZZZZZZZZZZZZZZZZZZZZZZZZZZZZZZZZZZZZZZZZZZZZZZZZZZZZZZZZZZZZZZZZZZZZZZZZZZZZZZZZZZZZZZZZZZZZZZZZZZZZZZZZZZZZZZZZZZZZZ",
"ZZZZZZZZZZZZZZZZZZZZZZZZZZZZZZZZZZZZZZZZZZZZZZZZZZZZZZZZZZZZZZZZZZZZZZZZZZZZZZZZZZZZZZZZZZZZZZZZZZZZZZZZZZZZZZZZZZZZZZZZZZZZZZZZ",
"ZZZZZZZZZZZZZZZZZZZZZZZZZZZZZZZZZZZZZZZZZZZZZZZZZZZZZZZZZZZZZZZZZZZZZZZZZZZZZZZZZZZZZZZZZZZZZZZZZZZZZZZZZZZZZZZZZZZZZZZZZZZZZZZZ",
"ZZZZZZZZZZZZZZZZZZZZZZZZZZZZZZZZZZZZZZZZZZZZZZZZZZZZZZZZZZZZZZZZZZZZZZZZZZZZZZZZZZZZZZZZZZZZZZZZZZZZZZZZZZZZZZZZZZZZZZZZZZZZZZZZ",
"ZZZZZZZZZZZZZZZZZZZZZZZZZZZZZZZZZZZZZZZZZZZZZZZZZZZZZZZZZZZZZZZZZZZZZZZZZZZZZZZZZZZZZZZZZZZZZZZZZZZZZZZZZZZZZZZZZZZZZZZZZZZZZZZZ",
"ZZZZZZZZZZZZZZZZZZZZZZZZZZZZZZZZZZZZZZZZZZZZZZZZZZZZZZZZZZZZZZZZZZZZZZZZZZZZZZZZZZZZZZZZZZZZZZZZZZZZZZZZZZZZZZZZZZZZZZZZZZZZZZZZ",
"ZZZZZZZZZZZZZZZZZZZZZZZZZZZZZZZZZZZZZZZZZZZZZZZZZZZZZZZZZZZZZZZZZZZZZZZZZZZZZZZZZZZZZZZZZZZZZZZZZZZZZZZZZZZZZZZZZZZZZZZZZZZZZZZZ"
};
