/* XPM */
static char *kommander[] = {
/* columns rows colors chars-per-pixel */
"128 128 63 1",
"  c #000000000000",
". c #04D104D104D1",
"X c #080808080808",
"o c #0B3E0B3E0B3E",
"O c #0DA70DA70DA7",
"+ c #11AB11AB11AB",
"@ c #14E114E114E1",
"# c #17B117B117B1",
"$ c #1B4E1B4E1B4E",
"% c #1E841E841E1E",
"& c #21BB21BB21BB",
"* c #24F124F124F1",
"= c #25BF268C268C",
"- c #2626262626F3",
"; c #27C127C127C1",
": c #2B5E2B5E2B5E",
"> c #2E2E2E2E2E2E",
", c #316431643164",
"< c #336632FF3366",
"1 c #349A349A349A",
"2 c #365136593665",
"3 c #383838383838",
"4 c #39D3396C396C",
"5 c #396C39D3396C",
"6 c #39D339D3396C",
"7 c #396C396C39D3",
"8 c #39D3396C39D3",
"9 c #396C39D339D3",
"0 c #3B6E3B6E3B6E",
"q c #3D093CA23CA2",
"w c #3CA23D093CA2",
"e c #3D093D093CA2",
"r c #3CA23CA23D09",
"t c #3D093CA23D09",
"y c #3CA23D093D09",
"u c #3E3E3E3E3E3E",
"i c #400B3FF9400E",
"p c #41DB41DB41DB",
"a c #4339434B4342",
"s c #451145114511",
"d c #4665466C4672",
"f c #47E147E147E1",
"g c #49E3497C497C",
"h c #497C49E3497C",
"j c #49E349E3497C",
"k c #497C497C49E3",
"l c #49E3497C49E3",
"z c #497C49E349E3",
"x c #4B7E4B7E4B7E",
"c c #4D194CB24CB2",
"v c #4CB24D194CB2",
"b c #4D194D194CB2",
"n c #4CB24CB24D19",
"m c #4D194CB24D19",
"M c #4CB24D194D19",
"N c #4EB44EB44EB4",
"B c #502B501A5028",
"V c #51EB51EB51EB",
"C c #535453515350",
"Z c #545454545454",
"A c #567C56965656",
"S c #57F157F157F1",
"D c None",
/* pixels */
"DDDDDDDDDDDDDDDDDDDDDDDDDDDDDDDDDDDDDDDDDDDDDDDDDDDDDDDDDDDDDDDDDDDDDDDDDDDDDDDDDDDDDDDDDDDDDDDDDDDDDDDDDDDDDDDDDDDDDDDDDDDDDDDD",
"DDDDDDDDDDDDDDDDDDDDDDDDDDDDDDDDDDDDDDDDDDDDDDDDDDDDDDDDDDDDDDDDDDDDDDDDDDDDDDDDDDDDDDDDDDDDDDDDDDDDDDDDDDDDDDDDDDDDDDDDDDDDDDDD",
"DDDDDDDDDDDDDDDDDDDDDDDDDDDDDDDDDDDDDDDDDDDDDDDDDDDDDDDDDDDDDDDDDDDDDDDDDDDDDDDDDDDDDDDDDDDDDDDDDDDDDDDDDDDDDDDDDDDDDDDDDDDDDDDD",
"DDDDDDDDDDDDDDDDDDDDDDDDDDDDDDDDDDDDDDDDDDDDDDDDDDDDDDDDDDDDDDDDDDDDDDDDDDDDDDDDDDDDDDDDDDDDDDDDDDDDDDDDDDDDDDDDDDDDDDDDDDDDDDDD",
"DDDDDDDDDDDDDDDDDDDDDDDDDDDDDDDDDDDDDDDDDDDDDDDDDDDDDDDDDDDDDDDDDDDDDDDDDDDDDDDDDDDDDDDDDDDDDDDDDDDDDDDDDDDDDDDDDDDDDDDDDDDDDDDD",
"DDDDDDDDDDDDDDDDDDDDDDDDDDDDDDDDDDDDDDDDDDDDDDDDDDDDDDDDDDDDDDDDDDDDDDDDDDDDDDDDDDDDDDDDDDDDDDDDDDDDDDDDDDDDDDDDDDDDDDDDDDDDDDDD",
"DDDDDDDDDDDDDDDDDDDDDDDDDDDDDDDDDDDDDDDDDDDDDDDDDDDDDDDDDDDDDDDDDDDDDDDDDDDDDDDDDDDDDDDDDDDDDDDDDDDDDDDDDDDDDDDDDDDDDDDDDDDDDDDD",
"DDDDDDDDDDDDDDDDDDDDDDDDDDDDDDDDDDDDDDDDDDDDDDDDDDDDDDDDDDDDDDDDDDDDDDDDDDDDDDDDDDDDDDDDDDDDDDDDDDDDDDDDDDDDDDDDDDDDDDDDDDDDDDDD",
"DDDDDDDDDDDDDDDDDDDDDDDDDDDDDDDDDDDDDDDDDDDDDDDDDDDDDDDDDDDDDDDDDDDDDDDDDDDDDDDDDDDDDDDDDDDDDDDDDDDDDDDDDDDDDDDDDDDDDDDDDDDDDDDD",
"DDDDDDDDDDDDDDDDDDDDDDDDDDDDDDDDDDDDDDDDDDDDDDDDDDDDDDDDDDDDDDDDDDDDDDDDDDDDDDDDDDDDDDDDDDDDDDDDDDDDDDDDDDDDDDDDDDDDDDDDDDDDDDDD",
"DDDDDDDDDDDDDDDDDDDDDDDDDDDDDDDDDDDDDDDDDDDDDDDDDDDDDDDDDDDDDDDDDDDDDDDDDDDDDDDDDDDDDDDDDDDDDDDDDDDDDDDDDDDDDDDDDDDDDDDDDDDDDDDD",
"DDDDDDDDDDDDDDDDDDDDDDDDDDDDDDDDDDDDDDDDDDDDDDDDDDDDDDDDDDDDDDDDDDDDDDDDDDDDDDDDDDDDDDDDDDDDDDDDDDDDDDDDDDDDDDDDDDDDDDDDDDDDDDDD",
"DDDDDDDDDDDDDDDDDDDDDDDDDDDDDDDDDDDDDDDDDDDDDDDDDDDDDDDDDDDDDDDDDDDDDDDDDDDDDDDDDDDDDDDDDDDDDDDDDDDDDDDDDDDDDDDDDDDDDDDDDDDDDDDD",
"DDDDDDDDDDDDDDDDDDDDDDDDDDDDDDDDDDDDDDDDDDDDDDDDDDDDDDDDDDDDSSSSSSSSSDDDDDDDDDDDDDDDDDDDDDDDDDDDDDDDDDDDDDDDDDDDDDDDDDDDDDDDDDDD",
"DDDDDDDDDDDDDDDDDDDDDDDDDDDDDDDDDDDDDDDDDDDDDDDDDDDDDDDDDDSSSSSSSSSSSSDDDDDDDDDDDDDDDDDDDDDDDDDDDDDDDDDDDDDDDDDDDDDDDDDDDDDDDDDD",
"DDDDDDDDDDDDDDDDDDDDDDDDDDDDDDDDDDDDDDDDDDDDDDDDDDDDDDDDDDSSSSSSSSSSSSSDDDDDDDDDDDDDDDDDDDDDDDDDDDDDDDDDDDDDDDDDDDDDDDDDDDDDDDDD",
"DDDDDDDDDDDDDDDDDDDDDDDDDDDDDDDDDDDDDDDDDDDDDDDDDDDDDDDDDDSSSSSSSSSSSSSSDDDDDDDDDDDDDDDDDDDDDDDDDDDDDDDDDDDDDDDDDDDDDDDDDDDDDDDD",
"DDDDDDDDDDDDDDDDDDDDDDDDDDDDDDDDDDDDDDDDDDDDDDDDDDDDDDDDDCSSSSSSSSSSSSSSDDDDDDDDDDDDDDDDDDDDDDDDDDDDDDDDDDDDDDDDDDDDDDDDDDDDDDDD",
"DDDDDDDDDDDDDDDDDDDDDDDDDDDDDDDDDDDDDDDDDDDDDDDDDDDDDDDDDZSASASASSSSSSSSDDDDDDDDDDDDDDDDDDDDDDDDDDDDDDDDDDDDDDDDDDDDDDDDDDDDDDDD",
"DDDDDDDDDDDDDDDDDDDDDDDDDDDDDDDDDDDDDDDDDDDDDDDDDDDDDDDDaSAASAAASSSSSSSSDDDDDDDDDDDDDDDDDDDDDDDDDDDDDDDDDDDDDDDDDDDDDDDDDDDDDDDD",
"DDDDDDDDDDDDDDDDDDDDDDDDDDDDDDDDDDDDDDDDDDDDDDDDDDDDDDDDxAAAAAAAAAAASSZABDDDDDDDDDDDDDDDDDDDDDDDDDDDDDDDDDDDDDDDDDDDDDDDDDDDDDDD",
"DDDDDDDDDDDDDDDDDDDDDDDDDDDDDDDDDDDDDDDDDDDDDDDDDDDDDDDDCAAAAAAZAAZASSAAZDDDDDDDDDDDDDDDDDDDDDDDDDDDDDDDDDDDDDDDDDDDDDDDDDDDDDDD",
"DDDDDDDDDDDDDDDDDDDDDDDDDDDDDDDDDDDDDDDDDDDDDDDDDDDDDDDCZAZZAZZAZSZAAZAZZCDDDDDDDDDDDDDDDDDDDDDDDDDDDDDDDDDDDDDDDDDDDDDDDDDDDDDD",
"DDDDDDDDDDDDDDDDDDDDDDDDDDDDDDDDDDDDDDDDDDDDDDDDDDDDDDNZZZAZZAZZZZAZZAZZZSBDDDDDDDDDDDDDDDDDDZDDDDDDDDDDDDDDDDDDDDDDDDDDDDDDDDDD",
"DDDDDDDDDDDDDDDDDDDDDDDDDDDDDDDDDDDDDDDDDDDDDDDDDDDDBBZAZZZZZZZZZZZZZZZZZZZZZZDDDDDDDDDDDDDBZZZZDDDDDDDDDDDDDDDDDDDDDDDDDDDDDDDD",
"DDDDDDDDDDDDDDDDDDDDDDDDDDDDDDDDBZZZZZZDDDDDDDDDDDCZZZZZZZZZZZZZZZZZZZZZZZZZZZZZDDDDDDDDDBZZZZZZZBDDDDDDDDDDDDDDDDDDDDDDDDDDDDDD",
"DDDDDDDDDDDDDDDDDDDDDDDDDDDDDDDBZZCCZZZZDDDDDDDBZZZZZZZZZZZCZZCZZZZZZZZZZZZZZZZZZCBDDDDBCZZZZZCZZZBDDDDDDDDDDDDDDDDDDDDDDDDDDDDD",
"DDDDDDDDDDDDDDDDDDDDDDDDDDDDDDBBZBZCZZZCZCDDBZZCBZZZZZZBCCCCCCCZZBZZZCCZBZZBBZZZZZZZZZZZZBZZBZCCZZZDDDDDDDDDDDDDDDDDDDDDDDDDDDDD",
"DDDDDDDDDDDDDDDDDDDDDDDDDDDDDBZBCCCCZZCZCZZCZZZCZZZZBZBZCCCCCCCCZBZZBZBZZCZCZBZBBZZZBZZBBZZCCCZCCZCZBDDDDDDDDDDDDDDDDDDDDDDDDDDD",
"DDDDDDDDDDDDDDDDDDDDDDDDDDDDNBZZCCBZCBCZCBZBBZBZBZBZZZZBCCVVVCVCZCZZZBZZZBBCCZCZBCZBZCBZZZCCZBZBBZBZCDDDDDDDDDDDDDDDDDDDDDDDDDDD",
"DDDDDDDDDDDDDDDDDDDDDDDDDDDxBZBBCCBCBCCBCCCCBZZZBZZBZZCBCVCVVCBCBBZBBZZZCBZZBCZBCZBCBCZZBCBZBCCCBZZBBBDDDDDDDDDDDDDDDDDDDDDDDDDD",
"DDDDDDDDDDDDDDDDDDDDDDDDDDDBBZBZCBCCCBBCBBCBZBBBZBBCBBBZVVVVVVCBBZBZZBBBBCBCCBBZBZCBCBBBCBCBCBBCBCCBZBDDDDDDDDDDDDDDDDDDDDDDDDDD",
"DDDDDDDDDDDDDDDDDDDDDDDDDDDBBZBBCZBCBZBZBZBCBBBZBCBCBCVVBVVVBCCCBCCBBZCBCBBCBCBCVVVVVVCBVVBCCBBCCBZBBBDDDDDDDDDDDDDDDDDDDDDDDDDD",
"DDDDDDDDDDDDDDDDDDDDDDDDDDDNBBBZBBBBBZBBBBZBBZBBBCCBBBCBVVVBCBBBBBBZCBBCBCBBBCBBBVBVVBVCBCBBBBZBCBBZBBDDDDDDDDDDDDDDDDDDDDDDDDDD",
"DDDDDDDDDDDDDDDDDDDDDDDDDDDaBBBBBBBCBBBBBCBBBBBBBBBBBBCBBVBBBBBBBZBBBBBBBCBCCNCBBBVBBBBBBVZBBBBBBBBBBgDDDDDDDDDDDDDDDDDDDDDDDDDD",
"DDDDDDDDDDDDDDDDDDDDDDDDDDDDpBBBBBBBBBBBBBBBBZBBBCBBBBBBBBBBBBBBBBBBBBBBBNBBBBBBBBBBBBBBBBBBBBBBBBBBNDDDDDDDDDDDDDDDDDDDDDDDDDDD",
"DDDDDDDDDDDDDDDDDDDDDDDDDDDD*xBBBBBBBBBBBBBBBBBBBBBBBBNBBBBBBBBBBBBBBBNBBBBBBBNNBBBNNBBBBBvBBNBBNBNg,DDDDDDDDDDDDDDDDDDDDDDDDDDD",
"DDDDDDDDDDDDDDDDDDDDDDDDDDDDX0BBBBNBBNBNBBNBBBBBBBvBxBBNvBvBBBBBBNNNBNBNNNBNNBBNBNNNBBNNNBBBBNNBBNN8DDDDDDDDDDDDDDDDDDDDDDDDDDDD",
"DDDDDDDDDDDDDDDDDDDDDDDDDDDDD;NNBNBNNBNBNNBNNBNNvBBBBBNNBBvBvBBBBNNBNBBNNBNNNNNNNNNBBNNNBNNNNNNNNNNDDDDDDDDDDDDDDDDDDDDDDDDDDDDD",
"DDDDDDDDDDDDDDDDDDDDDDDDDDDDDOdNNNNNNNNNNNNNNNNNBBxBxBNBvBBBBvvBNNNNNNNNNNNNNNNNNNNNNNNNNNNNNNNNNNaDDDDDDDDDDDDDDDDDDDDDDDDDDDDD",
"DDDDDDDDDDDDDDDDDDDDDDDDDDDDD.aNNNNNNNNNNNNNNNNNBBNBNNxBNNNNNNNNNNNNNNxBNNNNNNNNNNvNNNNNxBNNNxxBNNrDDDDDDDDDDDDDDDDDDDDDDDDDDDDD",
"DDDDDDDDDDDDDDDDDDDDDDDDDDDDDDwNxNNNNNNNNNNBxNxNxNNxBxBxgNNNxNxNNNBxxBxNNNNzNNxNvNNNNvNxNBxBxBBxNNxDDDDDDDDDDDDDDDDDDDDDDDDDDDDD",
"DDDDDDDDDDDDDDDDDDDDDDDDDDDDDDrNNxNxgBxNNxBxNNNxxNxBxNNNNxNxNNNNxNNBxBxNNNzNzNzNvNvxxBvNBxBBxNxNNNxwDDDDDDDDDDDDDDDDDDDDDDDDDDDD",
"DDDDDDDDDDDDDDDDDDDDDDDDDDDDDDpNxNNxNxNNxNxNxgNNNBxxNxxNxNxNNgNxNxxxxBxxxNxNNxNNvvvNxMvxxxxxBxxBggNfDDDDDDDDDDDDDDDDDDDDDDDDDDDD",
"DDDDDDDDDDDDDDDDDDDDDDDDDDDDD8xNxxNxNxxxxNxNxBxNBxxBxNxBNxxBap,%%%:upsBxxNxxxBxMxBMMxxBxBxxxxxxxNxNgDDDDDDDDDDDDDDDDDDDDDDDDDDDD",
"DDDDDDDDDDDDDDDDDDDDDDDDDDDDDdNgNxNxxNNxxxxxNgxxxxxxxxxggd3&...    ..+=3gzxNxxxMxxxMNxxxxxxNxBxxNxNxdDDDDDDDDDDDDDDDDDDDDDDDDDDD",
"DDDDDDDDDDDDDDDDDDDDDDDDDDDD1xNxxxxxxxNxNgxNxxxxxNxxxxgg8+X            X&wfxxxxxxxxxxxxxxxxxxxxxgxxxgDDDDDDDDDDDDDDDDDDDDDDDDDDD",
"DDDDDDDDDDDDDDDDDDDDDDDDDDDDpxgxxxxxxxgxxxxxxxxxxxxxxx8&.   DDDDDDDD     o=dxxxxxxxxxxxxxxxxxxxxxxxxgDDDDDDDDDDDDDDDDDDDDDDDDDDD",
"DDDDDDDDDDDDDDDDDDDDDDDDDDDDggxxxxxxxxxxxxfxxhxxxxxxf>.  DDDDDDDDDDDDDD    ;gggxxgxxxxxfxxxxxfxxgxxxggDDDDDDDDDDDDDDDDDDDDDDDDDD",
"DDDDDDDDDDDDDDDDDDDDDDDDDDDrgxxxxgxxfxfxxxxxhxfxggxf> DDDDDDDDDDDDDDDDDDD   #wxgxgxgxfxxxffxxxxggxggxgDDDDDDDDDDDDDDDDDDDDDDDDDD",
"DDDDDDDDDDDDDDDDDDDDDDDDDDDdggxxgxggfxxxxffxhxfxxgx1.DDDDDDDDDDDDDDDDDDDDDD  :dfggxxfxxxfxxfxfxfhxgxggdDDDDDDDDDDDDDDDDDDDDDDDDD",
"DDDDDDDDDDDDDDDDDDDDDDDDDD8ggggggggxxggfxfxghxxffxi@DDDDDDDDDDDDDDDDDDDDDDDD  *dggggxfffxhfxgfxxhfgggggDDDDDDDDDDDDDDDDDDDDDDDDD",
"DDDDDDDDDDDDDDDDDDDDDDDDDrfggggggffxfffgggfgggfgfd*DDDDDDDDDDDDDDDDDDDDDDDDDD  >fggggggffhhffxfffffxggffdDDDDDDDDDDDDDDDDDDDDDDD",
"DDDDDDDDDDDDDDDDDDDDDDDDafgfzffffxffxfgffgfgffgfg8DDDDDDDDDDDDDDDDDDDDDDDDDDDD #pffffffffffhffxffxfffgfggdgDDDDDDDDDDDDDDDDDDDDD",
"DDDDDDDDDDDDDDDDDDDDDdgggffzffffffffxffffffgfffff&DDDDDDDDDDDDDDDDDDDDDDDDDDDDD ,ffffgfffhffffhfffffffgdgddgfffDDDDDDDDDDDDDDDDD",
"DDDDDDDDDDDDDDDDDDddgdgdffffffffffffffffffffffffpDDDDDDDDDDDDDDDDDDDDDDDDDDDDDD @pfffffffffffffffffffffgdgddffffDDDDDDDDDDDDDDDD",
"DDDDDDDDDDDDDDDDDdddffffffffffffffffffffffffffff2DDDDDDDDDDDDDDDDDDDDDDDDDDDDDDDo8gfffffffffffsfffffffffffdffdffgDDDDDDDDDDDDDDD",
"DDDDDDDDDDDDDDDDDgfffddffffffdfsfffffffsffffdfdf*DDDDDDDDDDDDDDDDDDDDDDDDDDDDDDDD;fdfdfdsfdffsffffffsffsfdfddfdfdDDDDDDDDDDDDDDD",
"DDDDDDDDDDDDDDDDrddddffdsfsffffffsfsfdffffddfdfuDDDDDDDDDDDDDDDDDDDDDDDDDDDDDDDDD*dddffdfsfssfffdffsffsfdddfdddddDDDDDDDDDDDDDDD",
"DDDDDDDDDDDDDDDD8dddfadffddssdsfsfsfsfssssdsdfdrDDDDDDDDDDDDDDDDDDDDDDDDDDDDDDDDD$pddaddsfddfssffssfsfssddfddddddDDDDDDDDDDDDDDD",
"DDDDDDDDDDDDDDDD2ddadddassdsdsdsfsdssdfsssfsdsfrDDDDDDDDDDDDDDDDDDDDDDDDDDDDDDDDDDrfsfsfsfssdfsssfsssfssdddddddddDDDDDDDDDDDDDDD",
"DDDDDDDDDDDDDDDD<dddadddddsdsdsdsssdsssssdsddsdiDDDDDDDDDDDDDDDDDDDDDDDDDDDDDDDDDDrdssssssssssssssssssfsfadppddpdDDDDDDDDDDDDDDD",
"DDDDDDDDDDDDDDDD,addddadsssssssddsssdssssssssssuDDDDDDDDDDDDDDDDDDDDDDDDDDDDDDDDDDwsssssssssssssssssssssdddpdddddDDDDDDDDDDDDDDD",
"DDDDDDDDDDDDDDDD>dadaddasssssssssssssssssssssssrDDDDDDDDDDDDDDDDDDDDDDDDDDDDDDDDD%sssssssssssssssssssssspadddadpdDDDDDDDDDDDDDDD",
"DDDDDDDDDDDDDDDD>ddddddaaddaaadaaddaaaaadaaafaaiDDDDDDDDDDDDDDDDDDDDDDDDDDDDDDDDD:addsdssdasaadddpdaadpdpddddpdpdDDDDDDDDDDDDDDD",
"DDDDDDDDDDDDDDDD>ppppaaaaaaaadpaaaaafadaaadaadaaDDDDDDDDDDDDDDDDDDDDDDDDDDDDDDDDD:aaapaapasadapadaaaadapdappdpdapDDDDDDDDDDDDDDD",
"DDDDDDDDDDDDDDDD*ppdpaaaaaaaadaaaaaaaaaaaaaaaaaaDDDDDDDDDDDDDDDDDDDDDDDDDDDDDDDDD0aaaaaaaapaaaaapaaaaapaaapdpaaarDDDDDDDDDDDDDDD",
"DDDDDDDDDDDDDDDDD2aaaaaaaaaaapaaaaaaaaaaaaaaaaiaiDDDDDDDDDDDDDDDDDDDDDDDDDDDDDDDDuaaaaaaaaaapaaapaaaaaaaaapppaaa2DDDDDDDDDDDDDDD",
"DDDDDDDDDDDDDDDDD+20rappaaapapaaaapaapapaaaaaaiaaDDDDDDDDDDDDDDDDDDDDDDDDDDDDDDD2paaiaaaaapapaaaaaapaapaapaaa00,DDDDDDDDDDDDDDDD",
"DDDDDDDDDDDDDDDDDDXXO&,rapappappaapppapaiaaiapaapuDDDDDDDDDDDDDDDDDDDDDDDDDDDDDDuaiaapapppapappppppaappppp2*&ODDDDDDDDDDDDDDDDDD",
"DDDDDDDDDDDDDDDDDDD   .X&5ppppppppppppppppppppppppDDDDDDDDDDDDDDDDDDDDDDDDDDDDD2pppppppppppppppppppppppi2&o  DDDDDDDDDDDDDDDDDDD",
"DDDDDDDDDDDDDDDDDDDD     #5ppppppppppppppppppppppppDDDDDDDDDDDDDDDDDDDDDDDDDDDDupppppppppppppppppppppar*o   DDDDDDDDDDDDDDDDDDDD",
"DDDDDDDDDDDDDDDDDDDDDD    #8pppppppippippraappipppprDDDDDDDDDDDDDDDDDDDDDDDDDDripuaprauauaiipiiaipipip,o DDDDDDDDDDDDDDDDDDDDDDD",
"DDDDDDDDDDDDDDDDDDDDDDDD   ;prpapipiippupipruppiprppuDDDDDDDDDDDDDDDDDDDDDDDD8uppuiaauauauaauaiipiiipi&DDDDDDDDDDDDDDDDDDDDDDDDD",
"DDDDDDDDDDDDDDDDDDDDDDDDDD #rprriaippiipipuppprppupuprDDDDDDDDDDDDDDDDDDDDDD0ppuuaauuuaaupaupuiiiiipp<oDDDDDDDDDDDDDDDDDDDDDDDDD",
"DDDDDDDDDDDDDDDDDDDDDDDDDDD.>prariiuupuuauipuiaurpuprpuDDDDDDDDDDDDDDDDDDDDuruuppuuapuuiuuiuuppuiiprp*DDDDDDDDDDDDDDDDDDDDDDDDDD",
"DDDDDDDDDDDDDDDDDDDDDDDDDDD *rupupuuupuiiupuuiauraraiaruDDDDDDDDDDDDDDDDDrrpuprpiuiuiuiiuiuipuupiriur#DDDDDDDDDDDDDDDDDDDDDDDDDD",
"DDDDDDDDDDDDDDDDDDDDDDDDDDDDO8uuuuipuuuuiuuuiuriuuuuuuiuiurDDDDDDDDDDDDruiuupruuiuuiuuruiuuuuuuuriuu>DDDDDDDDDDDDDDDDDDDDDDDDDDD",
"DDDDDDDDDDDDDDDDDDDDDDDDDDDDD;uuuuuuuuuuuuuuuuuuuuuuuuuuuuuuurDDDDDDrruuuuuuuuuuuuuuuuuuuuuuuuuuuuur$DDDDDDDDDDDDDDDDDDDDDDDDDDD",
"DDDDDDDDDDDDDDDDDDDDDDDDDDDDD$uuuuuuuuuuuuuuuuuuuuuuuuuuuuuruuuuuuuuuuuuuuuuuuuuuuuuuuuuuuuuuuuuuuu3DDDDDDDDDDDDDDDDDDDDDDDDDDDD",
"DDDDDDDDDDDDDDDDDDDDDDDDDDDDD.:ruuuerururuuuuuurruuireuuurierrurruuruuuurrurirrurirrrierrurruurrrrr;DDDDDDDDDDDDDDDDDDDDDDDDDDDD",
"DDDDDDDDDDDDDDDDDDDDDDDDDDDDDD$reeeurrrururrereurrrrrurreeeerrruurrrrrrerrrrrrreereerrerrrurrreerrrDDDDDDDDDDDDDDDDDDDDDDDDDDDDD",
"DDDDDDDDDDDDDDDDDDDDDDDDDDDDDD@errerrrrerurerrerrrrrrererrere0rrrurereerreeereeeeeeeeeeeee00reeerrrDDDDDDDDDDDDDDDDDDDDDDDDDDDDD",
"DDDDDDDDDDDDDDDDDDDDDDDDDDDDDD#0eeer8eeerueeeeeerrrreeeeeeeeeee0rreeeeeee00eeeeeeeeeeeeer0reeeeeerr,DDDDDDDDDDDDDDDDDDDDDDDDDDDD",
"DDDDDDDDDDDDDDDDDDDDDDDDDDDDDD&reee0e0ee8e8eee0e00rre00eee0ee00e0u00e0ee00eeeeeer00000e0000ee0eee0e2DDDDDDDDDDDDDDDDDDDDDDDDDDDD",
"DDDDDDDDDDDDDDDDDDDDDDDDDDDDDD,0e0e0e000rere0e00e0000e0e8ee000r00000e000e0000r880r000ee000e00000eee0,DDDDDDDDDDDDDDDDDDDDDDDDDDD",
"DDDDDDDDDDDDDDDDDDDDDDDDDDDDD:0000000000e000000000000000e0000000000000000000008e000000000000000000008DDDDDDDDDDDDDDDDDDDDDDDDDDD",
"DDDDDDDDDDDDDDDDDDDDDDDDDDDDD8000000000000800000000800800000080000000000008008e80000800008000880080888DDDDDDDDDDDDDDDDDDDDDDDDDD",
"DDDDDDDDDDDDDDDDDDDDDDDDDDDD,0000020000080e8800808008800080808e800808e858e80808e80808e88058e0800058085DDDDDDDDDDDDDDDDDDDDDDDDDD",
"DDDDDDDDDDDDDDDDDDDDDDDDDDDD255020002300888888888558e85858585858880258585885508888885880588588885850588DDDDDDDDDDDDDDDDDDDDDDDDD",
"DDDDDDDDDDDDDDDDDDDDDDDDDDD<000003050002888850888055558885588585805085588355888350858558585585832858882DDDDDDDDDDDDDDDDDDDDDDDDD",
"DDDDDDDDDDDDDDDDDDDDDDDDDDD>02200302028088552802583528583555855802025583555535535285383585825853e285882DDDDDDDDDDDDDDDDDDDDDDDDD",
"DDDDDDDDDDDDDDDDDDDDDDDDDDDD28223020882228855852333553338852552520525553333333335533333352333333882822DDDDDDDDDDDDDDDDDDDDDDDDDD",
"DDDDDDDDDDDDDDDDDDDDDDDDDDDD:880332228885528825533333333333525525225522533333333523333582533333322828>DDDDDDDDDDDDDDDDDDDDDDDDDD",
"DDDDDDDDDDDDDDDDDDDDDDDDDDDDD;0220022282285225253333333333335255285522553333332333333538533333338252:DDDDDDDDDDDDDDDDDDDDDDDDDDD",
"DDDDDDDDDDDDDDDDDDDDDDDDDDDDD.*2222082528222:>5232323323233352225222552233333333332<;>;;23323323588*DDDDDDDDDDDDDDDDDDDDDDDDDDDD",
"DDDDDDDDDDDDDDDDDDDDDDDDDDDDD  &828222222>&+ X@*8582223252252552222223322323828222&+    +&58252822;DDDDDDDDDDDDDDDDDDDDDDDDDDDDD",
"DDDDDDDDDDDDDDDDDDDDDDDDDDDDDD .*228288>@       @*>2282222222222225222222222222>%+.      .%:22222;DDDDDDDDDDDDDDDDDDDDDDDDDDDDDD",
"DDDDDDDDDDDDDDDDDDDDDDDDDDDDDDD X-,82>%X         .X%:,2222222222222222222222,*#X           X#;,;$.DDDDDDDDDDDDDDDDDDDDDDDDDDDDDD",
"DDDDDDDDDDDDDDDDDDDDDDDDDDDDDDDD .@&&@  DDDDDDD     X+&22<222<2<2222222121,*+   DDDDDDDDD     o DDDDDDDDDDDDDDDDDDDDDDDDDDDDDDDD",
"DDDDDDDDDDDDDDDDDDDDDDDDDDDDDDDDD     DDDDDDDDDDDD     %2222,222<222212212%   DDDDDDDDDDDDDD  DDDDDDDDDDDDDDDDDDDDDDDDDDDDDDDDDD",
"DDDDDDDDDDDDDDDDDDDDDDDDDDDDDDDDDDDDDDDDDDDDDDDDDDDD    %2,222<<2,,2<2111;X DDDDDDDDDDDDDDDDDDDDDDDDDDDDDDDDDDDDDDDDDDDDDDDDDDDD",
"DDDDDDDDDDDDDDDDDDDDDDDDDDDDDDDDDDDDDDDDDDDDDDDDDDDDDD  X;<22,<211222<222&DDDDDDDDDDDDDDDDDDDDDDDDDDDDDDDDDDDDDDDDDDDDDDDDDDDDDD",
"DDDDDDDDDDDDDDDDDDDDDDDDDDDDDDDDDDDDDDDDDDDDDDDDDDDDDDD  %2,222<112,<<<,,+DDDDDDDDDDDDDDDDDDDDDDDDDDDDDDDDDDDDDDDDDDDDDDDDDDDDDD",
"DDDDDDDDDDDDDDDDDDDDDDDDDDDDDDDDDDDDDDDDDDDDDDDDDDDDDDDD %22<2,2112,<2,2>DDDDDDDDDDDDDDDDDDDDDDDDDDDDDDDDDDDDDDDDDDDDDDDDDDDDDDD",
"DDDDDDDDDDDDDDDDDDDDDDDDDDDDDDDDDDDDDDDDDDDDDDDDDDDDDDDDD$,,<<<<1,<<<<<,&DDDDDDDDDDDDDDDDDDDDDDDDDDDDDDDDDDDDDDDDDDDDDDDDDDDDDDD",
"DDDDDDDDDDDDDDDDDDDDDDDDDDDDDDDDDDDDDDDDDDDDDDDDDDDDDDDDDo:2<<<<,,<<<<<<%DDDDDDDDDDDDDDDDDDDDDDDDDDDDDDDDDDDDDDDDDDDDDDDDDDDDDDD",
"DDDDDDDDDDDDDDDDDDDDDDDDDDDDDDDDDDDDDDDDDDDDDDDDDDDDDDDDDD&,<<<<,2<<<,2,DDDDDDDDDDDDDDDDDDDDDDDDDDDDDDDDDDDDDDDDDDDDDDDDDDDDDDDD",
"DDDDDDDDDDDDDDDDDDDDDDDDDDDDDDDDDDDDDDDDDDDDDDDDDDDDDDDDDDX*<<2,<<<,<<<;DDDDDDDDDDDDDDDDDDDDDDDDDDDDDDDDDDDDDDDDDDDDDDDDDDDDDDDD",
"DDDDDDDDDDDDDDDDDDDDDDDDDDDDDDDDDDDDDDDDDDDDDDDDDDDDDDDDDDDX*>>>>>>>>>-DDDDDDDDDDDDDDDDDDDDDDDDDDDDDDDDDDDDDDDDDDDDDDDDDDDDDDDDD",
"DDDDDDDDDDDDDDDDDDDDDDDDDDDDDDDDDDDDDDDDDDDDDDDDDDDDDDDDDDD .X....XXXDDDDDDDDDDDDDDDDDDDDDDDDDDDDDDDDDDDDDDDDDDDDDDDDDDDDDDDDDDD",
"DDDDDDDDDDDDDDDDDDDDDDDDDDDDDDDDDDDDDDDDDDDDDDDDDDDDDDDDDDDDD       DDDDDDDDDDDDDDDDDDDDDDDDDDDDDDDDDDDDDDDDDDDDDDDDDDDDDDDDDDDD",
"DDDDDDDDDDDDDDDDDDDDDDDDDDDDDDDDDDDDDDDDDDDDDDDDDDDDDDDDDDDDDDDDDDDDDDDDDDDDDDDDDDDDDDDDDDDDDDDDDDDDDDDDDDDDDDDDDDDDDDDDDDDDDDDD",
"DDDDDDDDDDDDDDDDDDDDDDDDDDDDDDDDDDDDDDDDDDDDDDDDDDDDDDDDDDDDDDDDDDDDDDDDDDDDDDDDDDDDDDDDDDDDDDDDDDDDDDDDDDDDDDDDDDDDDDDDDDDDDDDD",
"DDDDDDDDDDDDDDDDDDDDDDDDDDDDDDDDDDDDDDDDDDDDDDDDDDDDDDDDDDDDDDDDDDDDDDDDDDDDDDDDDDDDDDDDDDDDDDDDDDDDDDDDDDDDDDDDDDDDDDDDDDDDDDDD",
"DDDDDDDDDDDDDDDDDDDDDDDDDDDDDDDDDDDDDDDDDDDDDDDDDDDDDDDDDDDDDDDDDDDDDDDDDDDDDDDDDDDDDDDDDDDDDDDDDDDDDDDDDDDDDDDDDDDDDDDDDDDDDDDD",
"DDDDDDDDDDDDDDDDDDDDDDDDDDDDDDDDDDDDDDDDDDDDDDDDDDDDDDDDDDDDDDDDDDDDDDDDDDDDDDDDDDDDDDDDDDDDDDDDDDDDDDDDDDDDDDDDDDDDDDDDDDDDDDDD",
"DDDDDDDDDDDDDDDDDDDDDDDDDDDDDDDDDDDDDDDDDDDDDDDDDDDDDDDDDDDDDDDDDDDDDDDDDDDDDDDDDDDDDDDDDDDDDDDDDDDDDDDDDDDDDDDDDDDDDDDDDDDDDDDD",
"DDDDDDDDDDDDDDDDDDDDDDDDDDDDDDDDDDDDDDDDDDDDDDDDDDDDDDDDDDDDDDDDDDDDDDDDDDDDDDDDDDDDDDDDDDDDDDDDDDDDDDDDDDDDDDDDDDDDDDDDDDDDDDDD",
"DDDDDDDDDDDDDDDDDDDDDDDDDDDDDDDDDDDDDDDDDDDDDDDDDDDDDDDDDDDDDDDDDDDDDDDDDDDDDDDDDDDDDDDDDDDDDDDDDDDDDDDDDDDDDDDDDDDDDDDDDDDDDDDD",
"DDDDDDDDDDDDDDDDDDDDDDDDDDDDDDDDDDDDDDDDDDDDDDDDDDDDDDDDDDDDDDDDDDDDDDDDDDDDDDDDDDDDDDDDDDDDDDDDDDDDDDDDDDDDDDDDDDDDDDDDDDDDDDDD",
"DDDDDDDDDDDDDDDDDDDDDDDDDDDDDDDDDDDDDDDDDDDDDDDDDDDDDDDDDDDDDDDDDDDDDDDDDDDDDDDDDDDDDDDDDDDDDDDDDDDDDDDDDDDDDDDDDDDDDDDDDDDDDDDD",
"DDDDDDDDDDDDDDDDDDDDDDDDDDDDDDDDDDDDDDDDDDDDDDDDDDDDDDDDDDDDDDDDDDDDDDDDDDDDDDDDDDDDDDDDDDDDDDDDDDDDDDDDDDDDDDDDDDDDDDDDDDDDDDDD",
"DDDDDDDDDDDDDDDDDDDDDDDDDDDDDDDDDDDDDDDDDDDDDDDDDDDDDDDDDDDDDDDDDDDDDDDDDDDDDDDDDDDDDDDDDDDDDDDDDDDDDDDDDDDDDDDDDDDDDDDDDDDDDDDD",
"DDDDDDDDDDDDDDDDDDDDDDDDDDDDDDDDDDDDDDDDDDDDDDDDDDDDDDDDDDDDDDDDDDDDDDDDDDDDDDDDDDDDDDDDDDDDDDDDDDDDDDDDDDDDDDDDDDDDDDDDDDDDDDDD",
"DDDDDDDDDDDDDDDDDDDDDDDDDDDDDDDDDDDDDDDDDDDDDDDDDDDDDDDDDDDDDDDDDDDDDDDDDDDDDDDDDDDDDDDDDDDDDDDDDDDDDDDDDDDDDDDDDDDDDDDDDDDDDDDD",
"DDDDDDDDDDDDDDDDDDDDDDDDDDDDDDDDDDDDDDDDDDDDDDDDDDDDDDDDDDDDDDDDDDDDDDDDDDDDDDDDDDDDDDDDDDDDDDDDDDDDDDDDDDDDDDDDDDDDDDDDDDDDDDDD",
"DDDDDDDDDDDDDDDDDDDDDDDDDDDDDDDDDDDDDDDDDDDDDDDDDDDDDDDDDDDDDDDDDDDDDDDDDDDDDDDDDDDDDDDDDDDDDDDDDDDDDDDDDDDDDDDDDDDDDDDDDDDDDDDD"
};
