/* XPM */
static char *terminal[] = {
/* columns rows colors chars-per-pixel */
"128 128 52 1",
"  c #000000000000",
". c #059F059F059F",
"X c #073A073A073A",
"o c #0C0C0C0C0C0C",
"O c #0DA70DA70DA7",
"+ c #11AB11AB11AB",
"@ c #141414141414",
"# c #181818181818",
"$ c #1BB51BB51BB5",
"% c #1E1E1E1E1E1E",
"& c #20ED20ED20ED",
"* c #255825582558",
"= c #26F326F326F3",
"- c #2A902A902A90",
"; c #2E2E2E942E2E",
": c #31CB31CB31CB",
"> c #329833663298",
", c #336632FF3366",
"< c #356835683568",
"1 c #3653367F365F",
"2 c #383838383838",
"3 c #39D3396C396C",
"4 c #396C39D3396C",
"5 c #39D339D3396C",
"6 c #396C396C39D3",
"7 c #39D3396C39D3",
"8 c #390539D339D3",
"9 c #3B073B073B07",
"0 c #3D093D093CA2",
"q c #3F0B3EA43EA4",
"w c #400A3FD9402D",
"e c #41DB41DB41DB",
"r c #43394376434C",
"t c #451145114511",
"y c #464646AC4646",
"u c #484848484848",
"i c #49E3497C497C",
"p c #497C49E3497C",
"a c #49E349E3497C",
"s c #49E3497C49E3",
"d c #497C49E349E3",
"f c #4B7E4B7E4B17",
"g c #4D194CB24CB2",
"h c #4CB24CB24D19",
"j c #4CB24D194D19",
"k c #4E4E4E4E4E4E",
"l c #50504FE95050",
"z c #518451EB51EB",
"x c #558855885588",
"c c #5692567C568D",
"v c #572357235723",
"b c None",
/* pixels */
"bbbbbbbbbbbbbbbbbbbbbbbbbbbbbbbbbbbbbbbbbbbbbbbbbbbbbbbbbbbbbbbbbbbbbbbbbbbbbbbbbbbbbbbbbbbbbbbbbbbbbbbbbbbbbbbbbbbbbbbbbbbbbbbb",
"bbbbbbbbbbbbbbbbbbbbbbbbbbbbbbbbbbbbbbbbbbbbbbbbbbbbbbbbbbbbbbbbbbbbbbbbbbbbbbbbbbbbbbbbbbbbbbbbbbbbbbbbbbbbbbbbbbbbbbbbbbbbbbbb",
"bbbbbbbbbbbbbbbbbbbbbbbbbbbbbbbbbbbbbbbbbbbbbbbbbbbbbbbbbbbbbbbbbbbbbbbbbbbbbbbbbbbbbbbbbbbbbbbbbbbbbbbbbbbbbbbbbbbbbbbbbbbbbbbb",
"bbbbbbbbbbbbbbbbbbbbbbbbbbbbbbbbbbbbbbbbbbbbbbbbbbbbbbbbbbbbbbbbbbbbbbbbbbbbbbbbbbbbbbbbbbbbbbbbbbbbbbbbbbbbbbbbbbbbbbbbbbbbbbbb",
"bbbbbbbbbbbbbbbbbbbbbbbbbbbbbbbbbbbbbbbbbbbbbbbbbbbbbbbbbbbbbbbbbbbbbbbbbbbbbbbbbbbbbbbbbbbbbbbbbbbbbbbbbbbbbbbbbbbbbbbbbbbbbbbb",
"bbbbbbbbbbbbbbbbbbbbbbbbbbbbbbbbbbbbbbbbbbbbbbbbbbbbbbbbbbbbbbbbbbbbbbbbbbbbbbbbbbbbbbbbbbbbbbbbbbbbbbbbbbbbbbbbbbbbbbbbbbbbbbbb",
"bbbbbbbbbbbbbbbbbbbbbbbbbbbbbbbbbbbbbbbbbbbbbbbbbbbbbbbbbbbbbbbbbbbbbbbbbbbbbbbbbbbbbbbbbbbbbbbbbbbbbbbbbbbbbbbbbbbbbbbbbbbbbbbb",
"bbbbbbbbbbbbbbbbbbbbbbbbbbbbbbbbbbbbbbbbbbbbbbbbbbbbbbbbbbbbbbbbbbbbbbbbbbbbbbbbbbbbbbbbbbbbbbbbbbbbbbbbbbbbbbbbbbbbbbbbbbbbbbbb",
"bbbbbbbbbbbbbbbbbbbbbbbbbbbbbbbbbbbbbbbbbbbbbbbbbbbbbbbbbbbbbbbbbbbbbbbbbbbbbbbbbbbbbbbbbbbbbbbbbbbbbbbbbbbbbbbbbbbbbbbbbbbbbbbb",
"bbbbbbbbbbbbbbbbbbbbbbbbbbbbbbbbbbbbbbbbbbbbbbbbbbbbbbbbbbbbbbbbbbbbbbbbbbbbbbbbbbbbbbbbbbbbbbbbbbbbbbbbbbbbbbbbbbbbbbbbbbbbbbbb",
"bbbbbbbbbbbbbbbbbbbbbbbbbbbbbbbbbbbbbbbbbbbbbbbbbbbbbbbbbbbbbbbbbbbbbbbbbbbbbbbbbbbbbbbbbbbbbbbbbbbbbbbbbbbbbbbbbbbbbbbbbbbbbbbb",
"bbbbbbbbbbbbbbbbbbbbbbbbbbbbbbbbbbbbbbbbbbbbbbbbbbbbbbbbbbbbbbbbbbbbbbbbbbbbbbbbbbbbbbbbbbbbbbbbbbbbbbbbbbbbbbbbbbbbbbbbbbbbbbbb",
"bbbbbbbbbbbbbbbbbbbbbbbbbbbbbbbbbbbbbbbbbbbbbbbbbbbbbbbbbbbbbbbbbbbbbbbbbbbbbbbbbbbbbbbbbbbbbbbbbbbbbbbbbbbbbbbbbbbbbbbbbbbbbbbb",
"bbbbbbbbbbbbbbbbbbbbbbbbbbbbbbbbbbbbbbbbbbbbbbbbbbbbbbbbbbbbbbbbbbbbbbbbbbbbbbbbbbbbbbbbbbbbbbbbbbbbbbbbbbbbbbbbbbbbbbbbbbbbbbbb",
"bbbbbbbbbbbbbbbbbbbbbbbbbbbbbbbbbbbbbbbbbbbbbbbbbbbbbbbbbbbbbbbbbbbbbbbbbbbbbbbbbbbbbbbbbbbbbbbbbbbbbbbbbbbbbbbbbbbbbbbbbbbbbbbb",
"bbbbbbbbbbbbbbbbbbbbbbbbbbbbbbbbbbbbbbbbbbbbbbbbbbbbbbbbbbbbbbbbbbbbbbbbbbbbbbbbbbbbbbbbbbbbbbbbbbbbbbbbbbbbbbbbbbbbbbbbbbbbbbbb",
"bbbbbbbbbbbbbbbbbbbbbbbbbbbbbbbbbbbbbbbbbbbbbbbbbbbbbbbbbbbbbbbbbbbbbbbbbbbbbbbbbbbbbbbbbbbbbbbbbbbbbbbbbbbbbbbbbbbbbbbbbbbbbbbb",
"bbbbbbbbbbbbbbbbbbbbbbbbbbbbbbbbbbbbbbbbbbbbbbbbbbbbbbbbbbbbbbbbbbbbbbbbbbbbbbbbbbbbbbbbbbbbbbbbbbbbbbbbbbbbbbbbbbbbbbbbbbbbbbbb",
"bbbbbbbbbbbbbbbbbbbbbbbbbbbbbbbbbbbbbbbbbbbbbbbbbbbbbbbbbbbbbbbbbbbbbbbbbbbbbbbbbbbbbbbbbbbbbbbbbbbbbbbbbbbbbbbbbbbbbbbbbbbbbbbb",
"bbbbbbbbbbbbbbbbvvvvvvvvvvvvvvvvvvvvvvvvvvvvvvvvvvvvvvvvvvvvvvvvvvvvvvvvvvvvvvvvvvvvvvvvvvvvvvvvvvvvvvvvvvvvvvvvvvvbbbbbbbbbbbbb",
"bbbbbbbbbbbbbbvvvvvvvvvvvvvvvvvvvvvvvvvvvvvvvvvvvvvvvvvvvvvvvvvvvvvvvvvvvvvvvvvvvvvvvvvvvvvvvvvvvvvvvvvvvvvvvvvvvvzvvbbbbbbbbbbb",
"bbbbbbbbbbbbbvvvvvvvvvvvvvvvvvvvvvvvvvvvvvvvvvvvvvvvvvvvvvvvvvvvvvvvvvvvvvvvzvvvvvvvvvvvvvxvvvxvvvvvxvxvvvzvvvzvvvvvvvbbbbbbbbbb",
"bbbbbbbbbbbbzvvvvvvvvvvvvvvvvvvvvvvvvvvvvvvvvvvvvvvvvvvvvvvvvvvvvvvvvvvvvzvvvvvxvzvzvvvvvxvvxvxvxvvvxvxvvvvvxxxxzvzvzvzbbbbbbbbb",
"bbbbbbbbbbbvvvvvvvvvvvvvvvvvvvvvvvvvvvvvvvvvvvvvvvvvvzvvvvvvxvvzvvvvvvvvvvvzvvvxvvvvvzvvxxxvvzxvxvvzvxxxvzvvxxxxvvvvvvvbbbbbbbbb",
"bbbbbbbbbbbvvvvxxvvvvvvvvvvxvvxvvzvvzvvvvvvvvvvvvvvvxvzvxxxxxxvvvvvvvzvxxxxxvzvxvvvzvzvvzzvvzvvvxxxxxxxxxxxxxxvvxxxxxvxxbbbbbbbb",
"bbbbbbbbbbzvvzvvvxxxvzvzvvxxxxxxvvvvvvzvvvzvvvzzvzzvxxxvxxxxxxzvvzzvvzvxxxxxvzvxvzvvvvvlvvxxvvzzxxxxxxxzzxxxxxzvlxxxxlxvbbbbbbbb",
"bbbbbbbbbbzzvvvvxxvvxxvvvvvxzvxxvzzvzvzvzvvzzvvvvvvvxvxxvvzvxvxvvvvvvvzvvvxxvvzvxvxxvzzvxxxzvzzvxvzvzvxxvvzvxvvvxxcvxxxlzbbbbbbb",
"bbbbbbbbbbvvvzzvxxzr9119q919991121999222222191191111122111991211,211221912111119,2,22119,12221191112112,1119,19rxzlxxlvlkbbbbbbb",
"bbbbbbbbbbzvxvzvxxq.                                                                                           $kxxzvlvxzbbbbbbb",
"bbbbbbbbbbzvxvzvxx2                                                                                            Xyzzxlvlxlbbbbbbb",
"bbbbbbbbbbkzzxvzzv,bbbbbbbbbbbbbbbbbbbbbbbbbbbbbbbbbbbbbbbbbbbbbbbbbbbbbbbbbbbbbbbbbbbbbbbbbbbbbbbbbbbbbbbbbbb .rxzxvlvzkbbbbbbb",
"bbbbbbbbbblxxzzvzz9bbbbbbbbbbbbbbbbbbbbbbbbbbbbbbbbbbbbbbbbbbbbbbbbbbbbbbbbbbbbbbbbbbbbbbbbbbbbbbbbbbbbbbbbbbbb.yzzzzzzzkbbbbbbb",
"bbbbbbbbbblzzxzzvlqbbbbbbbbbbbbbbbbbbbbbbbbbbbbbbbbbbbbbbbbbbbbbbbbbbbbbbbbbbbbbbbbbbbbbbbbbbbbbbbbbbbbbbbbbbbbbfzzzzzzvfbbbbbbb",
"bbbbbbbbbbkvvzzxzvqbbbbbbbbbbbbbbbbbbbbbbbbbbbbbbbbbbbbbbbbbbbbbbbbbbbbbbbbbbbbbbbbbbbbbbbbbbbbbbbbbbbbbbbbbbbbbrzzzzzzzkbbbbbbb",
"bbbbbbbbbbzzxzzxzzrbbbbbbbbbbbbbbbbbbbbbbbbbbbbbbbbbbbbbbbbbbbbbbbbbbbbbbbbbbbbbbbbbbbbbbbbbbbbbbbbbbbbbbbbbbbbbyzzzzzlzfbbbbbbb",
"bbbbbbbbbbkzzzzzzzrbbbbbbbbbbbbbbbbbbbbbbbbbbbbbbbbbbbbbbbbbbbbbbbbbbbbbbbbbbbbbbbbbbbbbbbbbbbbbbbbbbbbbbbbbbbbbfzzzzlzzfbbbbbbb",
"bbbbbbbbbbkzzzzzzzrbbbbbbbbbbbbbbbbbbbbbbbbbbbbbbbbbbbbbbbbbbbbbbbbbbbbbbbbbbbbbbbbbbbbbbbbbbbbbbbbbbbbbbbbbbbbbrlzllzllfbbbbbbb",
"bbbbbbbbbbkzzzzzzzrbbbbbbbbbbbbbbbbbbbbbbbbbbbbbbbbbbbbbbbbbbbbbbbbbbbbbbbbbbbbbbbbbbbbbbbbbbbbbbbbbbbbbbbbbbbbbullzllllfbbbbbbb",
"bbbbbbbbbbkzzzzzzzrbbbbbbbbbbbbbbbbbbbbbbbbbbbbbbbbbbbbbbbbbbbbbbbbbbbbbbbbbbbbbbbbbbbbbbbbbbbbbbbbbbbbbbbbbbbbbylllllllfbbbbbbb",
"bbbbbbbbbbkkzzzzzzrbbbbbbbbbbbbbbbbbbbbbbbbbbbbbbbbbbbbbbbbbbbbbbbbbbbbbbbbbbbbbbbbbbbbbbbbbbbbbbbbbbbbbbbbbbbbbykllllllfbbbbbbb",
"bbbbbbbbbbgzlllzllrbbbbbbbbbbbbbbbbbbbbbbbbbbbbbbbbbbbbbbbbbbbbbbbbbbbbbbbbbbbbbbbbbbbbbbbbbbbbbbbbbbbbbbbbbbbbbylkllkkkfbbbbbbb",
"bbbbbbbbbbglllllllrbbbbbbbbbbbbbllzbbbbbbbbbbbbbbbbbbbbbbbbbbbbbbbbbbbbbbbbbbbbbbbbbbbbbbbbbbbbbbbbbbbbbbbbbbbbbykllkzkkfbbbbbbb",
"bbbbbbbbbbkzlllllkrbbbbbbbbbbbbbklllzkbbbbbbbbbbbbbbbbbbbbbbbbbbbbbbbbbbbbbbbbbbbbbbbbbbbbbbbbbbbbbbbbbbbbbbbbbbrkkkkkkkfbbbbbbb",
"bbbbbbbbbbfkkllklkrbbbbbbbbbbbbbklklkklkzbbbbbbbbbbbbbbbbbbbbbbbbbbbbbbbbbbbbbbbbbbbbbbbbbbbbbbbbbbbbbbbbbbbbbbbykkkkkkkybbbbbbb",
"bbbbbbbbbbfklklkkkrbbbbbbbbbbbbbfkkklkkllkkbbbbbbbbbbbbbbbbbbbbbbbbbbbbbbbbbbbbbbbbbbbbbbbbbbbbbbbbbbbbbbbbbbbbbrkkkkkkkfbbbbbbb",
"bbbbbbbbbbfkkklkkkrbbbbbbbbbbbbbfkkkkkkkkkkkkkbbbbbbbbbbbbbbbbbbbbbbbbbbbbbbbbbbbbbbbbbbbbbbbbbbbbbbbbbbbbbbbbbbrggkkkfkybbbbbbb",
"bbbbbbbbbbfkkkkgkkrbbbbbbbbbbbbb1rfkkkkkkkkkkkkkkbbbbbbbbbbbbbbbbbbbbbbbbbbbbbbbbbbbbbbbbbbbbbbbbbbbbbbbbbbbbbbbrfgghhfkubbbbbbb",
"bbbbbbbbbbfkkkkkkkqbbbbbbbbbbbbbbb%1rfkkfkkkkkfkkkkkbbbbbbbbbbbbbbbbbbbbbbbbbbbbbbbbbbbbbbbbbbbbbbbbbbbbbbbbbbbbrkggggfffbbbbbbb",
"bbbbbbbbbbfkkkkgkkqbbbbbbbbbbbbbbbb o&1rfkkkkkkkggfkfkbbbbbbbbbbbbbbbbbbbbbbbbbbbbbbbbbbbbbbbbbbbbbbbbbbbbbbbbbbrggghhffubbbbbbb",
"bbbbbbbbbbfkkfkkkfrbbbbbbbbbbbbbbbbb   o&1rfkffkkkkfkfkfkbbbbbbbbbbbbbbbbbbbbbbbbbbbbbbbbbbbbbbbbbbbbbbbbbbbbbbbrfgffhfkybbbbbbb",
"bbbbbbbbbbffgkgfffrbbbbbbbbbbbbbbbbbbb    o*1yfffkfkfgfkfhgfbbbbbbbbbbbbbbbbbbbbbbbbbbbbbbbbbbbbbbbbbbbbbbbbbbbbrkffhfffybbbbbbb",
"bbbbbbbbbbykfgfkkfqbbbbbbbbbbbbbbbbbbbbbb    +*9rfffffkfggfgffbbbbbbbbbbbbbbbbbbbbbbbbbbbbbbbbbbbbbbbbbbbbbbbbbbrfffffffybbbbbbb",
"bbbbbbbbbbfkfhhhffqbbbbbbbbbbbbbbbbbbbbbbbbb    +=8rffffffffffbbbbbbbbbbbbbbbbbbbbbbbbbbbbbbbbbbbbbbbbbbbbbbbbbbqfffffffybbbbbbb",
"bbbbbbbbbbyfhfffkfqbbbbbbbbbbbbbbbbbbbbbbbbbbbb    @-qffffffffbbbbbbbbbbbbbbbbbbbbbbbbbbbbbbbbbbbbbbbbbbbbbbbbbbrffuffffybbbbbbb",
"bbbbbbbbbbufffffffqbbbbbbbbbbbbbbbbbbbbbbbbbbbbbb X%,wfffffffybbbbbbbbbbbbbbbbbbbbbbbbbbbbbbbbbbbbbbbbbbbbbbbbbbrfufuddfrbbbbbbb",
"bbbbbbbbbbufffffffqbbbbbbbbbbbbbbbbbbbbbbbbbbbbb&,quufffuffffybbbbbbbbbbbbbbbbbbbbbbbbbbbbbbbbbbbbbbbbbbbbbbbbbbquuffuddybbbbbbb",
"bbbbbbbbbbfffufffuqbbbbbbbbbbbbbbbbbbbbbbbbbbb9ruffufuffffuffqbbbbbbbbbbbbbbbbbbbbbbbbbbbbbbbbbbbbbbbbbbbbbbbbbbrfuuuuffrbbbbbbb",
"bbbbbbbbbbyffffuffqbbbbbbbbbbbbbbbbbbbbbbbbbyufffufuufufuuq:bbbbbbbbbbbbbbbbbbbbbbbbbbbbbbbbbbbbbbbbbbbbbbbbbbbbwuufufyurbbbbbbb",
"bbbbbbbbbbyfufuuffqbbbbbbbbbbbbbbbbbbbbbbyffufuffuufyufq;%.bbbbbbbbbbbbbbbbbbbbbbbbbbbbbbbbbbbbbbbbbbbbbbbbbbbbbquuuuuuurbbbbbbb",
"bbbbbbbbbbyufuffuyqbbbbbbbbbbbbbbbbbbbfuffyffuuuuufur,&o  bbbbbbbbbbbbbbbbbbbbbbbbbbbbbbbbbbbbbbbbbbbbbbbbbbbbbbquuuufuurbbbbbbb",
"bbbbbbbbbbyfuffuuf9bbbbbbbbbbbbbbbbfyyfuyuuufuffur9=+   bbbbbbbbbbbbbbbbbbbbbbbbbbbbbbbbbbbbbbbbbbbbbbbbbbbbbbbbquuuuuuurbbbbbbb",
"bbbbbbbbbbrfuyuffyqbbbbbbbbbbbbbyfuuyfuufuuuuur9-@  bbbbbbbbbbbbbbbbbbbbbbbbbbbbbbbbbbbbbbbbbbbbbbbbbbbbbbbbbbbbquuuuyuyrbbbbbbb",
"bbbbbbbbbbyfufyuyuqbbbbbbbbbbbbbuuuuuuuuyuuuq,$. bbbbbbbbbbbbbbbbbbbbbbbbbbbbbbbbbbbbbbbbbbbbbbbbbbbbbbbbbbbbbbbqyuuuyfyrbbbbbbb",
"bbbbbbbbbbyyuuuuuu9bbbbbbbbbbbbbruuuuuuuuw,%. bbbbbbbbbbbbbbbbbbbbbbbbbbbbbbbbbbbbbbbbbbbbbbbbbbbbbbbbbbbbbbbbbbquuyuuryrbbbbbbb",
"bbbbbbbbbbruuuuufyqbbbbbbbbbbbbbruyyyyr9*+  bbbbbbbbbbbbbbbbbbbbbbbbbbbbbbbbbbbbbbbbbbbbbbbbbbbbbbbbbbbbbbbbbbbbqyyuyyuywbbbbbbb",
"bbbbbbbbbbruuyuyyy9bbbbbbbbbbbbbryyr9*+  bbbbbbbbbbbbbbbbbbbbbbbbbbbbbbbbbbbbbbbbbbbbbbbbbbbbbbbbbbbbbbbbbbbbbbbqyyyuuyyrbbbbbbb",
"bbbbbbbbbbruyyyuyy9bbbbbbbbbbbbbqq;$. bbbbbbbbbbbbbbbbbbbbbbbbbbbbbbbbbbbbbbbbbbbbbbbbbbbbbbbbbbbbbbbbbbbbbbbbbbquyyurrywbbbbbbb",
"bbbbbbbbbbruyyyyyy9bbbbbbbbbbbbbbbbbbbbbbbbbbbbbbbbbbbbbbbbbbbbbbbbbbbbbbbbbbbbbbbbbbbbbbbbbbbbbbbbbbbbbbbbbbbbbqryrruruwbbbbbbb",
"bbbbbbbbbbruyyyyyy9bbbbbbbbbbbbbbbbbbbbbbbbbbbbbbbbbbbbbbbbbbbbbbbbbbbbbbbbbbbbbbbbbbbbbbbbbbbbbbbbbbbbbbbbbbbbb9ryryrrrrbbbbbbb",
"bbbbbbbbbbryyyrury9bbbbbbbbbbbbbbbbbbbbbbbbbbbbbbbbbbbbbbbbbbbbbbbbbbbbbbbbbbbbbbbbbbbbbbbbbbbbbbbbbbbbbbbbbbbbb9yryryurqbbbbbbb",
"bbbbbbbbbbryruyyyr9bbbbbbbbbbbbbbbbbbbbbbbbbbbbbbbbbbbbbbbbbbbbbbbbbbbbbbbbbbbbbbbbbbbbbbbbbbbbbbbbbbbbbbbbbbbbb9rrrrrrrqbbbbbbb",
"bbbbbbbbbbrryyrryy9bbbbbbbbbbbbbbbbbbbbbbbbbbbbbbbbbbbbbbbbbbbbbbbbbbbbbbbbbbbbbbbbbbbbbbbbbbbbbbbbbbbbbbbbbbbbb9yyrryruqbbbbbbb",
"bbbbbbbbbbryryryry1bbbbbbbbbbbbbbbbbbbbbbbbbbbbbbbbbbbbbbbbbbbbbbbbbbbbbbbbbbbbbbbbbbbbbbbbbbbbbbbbbbbbbbbbbbbbb9rrrrrrrqbbbbbbb",
"bbbbbbbbbbrryryrrr9bbbbbbbbbbbbbbbbbbbbbbbbbbbbbbbbbbbbbbbbbbbbbbbbbbbbbbbbbbbbbbbbbbbbbbbbbbbbbbbbbbbbbbbbbbbbb9rrrrrrrqbbbbbbb",
"bbbbbbbbbbrrryryyr2bbbbbbbbbbbbbbbbbbbbbbbbbbbbbbbbbbbbbbbbbbbbbbbbbbbbbbbbbbbbbbbbbbbbbbbbbbbbbbbbbbbbbbbbbbbbb9rrrrrrrqbbbbbbb",
"bbbbbbbbbbrrrrrrrr2bbbbbbbbbbbbbbbbbbbbbbbbbbbbbbbbbbbbbbbbbbbbbbbbbbbbbbbbbbbbbbbbbbbbbbbbbbbbbbbbbbbbbbbbbbbbb2rwrrrrrqbbbbbbb",
"bbbbbbbbbbrrrrrrrr9bbbbbbbbbbbbbbbbbbbbbbbbbbbbbbbbbbbbbbbbbbbbbbbbbbbbbbbbbbbbbbbbbbbbbbbbbbbbbbbbbbbbbbbbbbbbb9wrrrwrrqbbbbbbb",
"bbbbbbbbbbqrrqrrrr1bbbbbbbbbbbbbbbbbbbbbbbbbbbbbbbbbbbbbbbbbbbbbbbbbbbbbbbbbbbbbbbbbbbbbbbbbbbbbbbbbbbbbbbbbbbbb9rrwrwrqqbbbbbbb",
"bbbbbbbbbbqrrrrrrr1bbbbbbbbbbbbbbbbbbbbbbbbbbbbbbbbbbbbbbbbbbbbbbbbbbbbbbbbbbbbbbbbbbbbbbbbbbbbbbbbbbbbbbbbbbbbb2wwrrqqr9bbbbbbb",
"bbbbbbbbbbqwrrrrrq9bbbbbbbbbbbbbbbbbbbbbbbbbbbbbbbbbbbbbbbbbbbbbbbbbbbbbbbbbbbbbbbbbbbbbbbbbbbbbbbbbbbbbbbbbbbbb9rqrrrqrqbbbbbbb",
"bbbbbbbbbbqwrrwrwr,bbbbbbbbbbbbbbbbbbbbbbbbbbbbbbbbbbbbbbbbbbbbbbbbbbbbbbbbbbbbbbbbbbbbbbbbbbbbbbbbbbbbbbbbbbbbb1rwwweww9bbbbbbb",
"bbbbbbbbbbqrwrwrrr1bbbbbbbbbbbbbbbbbbbbbbbbbbbbbbbbbbbbbbbbbbbbbbbbbbbbbbbbbbbbbbbbbbbbbbbbbbbbbbbbbbbbbbbbbbbbb2wwwwewe9bbbbbbb",
"bbbbbbbbbbqrrrrwqq1bbbbbbbbbbbbbbbbbbbbbbbbbbbbbbbbbbbbbbbbbbbbbbbbbbbbbbbbbbbbbbbbbbbbbbbbbbbbbbbbbbbbbbbbbbbbb2wwqwwww9bbbbbbb",
"bbbbbbbbbbqrwqrqrr1bbbbbbbbbbbbbbbbbbbbbbbbbbbbbbbbbbbbbbbbbbbbbbbqrqqrqqqrqrqqrqrqrqqrqwwwwrqqqqrrbbbbbbbbbbbbb2qqrw0ww9bbbbbbb",
"bbbbbbbbbb9wqrwrrq,bbbbbbbbbbbbbbbbbbbbbbbbbbbbbbbbbbbbbbbbbbbbbbqqqrrqqrqqrqqrqqrqqrrqqqwwwqqqqqqwbbbbbbbbbbbbb2wqqqqww9bbbbbbb",
"bbbbbbbbbbqrwwwqqr1bbbbbbbbbbbbbbbbbbbbbbbbbbbbbbbbbbbbbbbbbbbbbbqqqqqrqqqqqqqqqqqqqqqqqwqqqqqqqwqqbbbbbbbbbbbbb2qqqqq9w9bbbbbbb",
"bbbbbbbbbbqqqrqqqq1bbbbbbbbbbbbbbbbbbbbbbbbbbbbbbbbbbbbbbbbbbbbbbqqqqqqqqqqqqqqqqqqqqqqqqqqqqqqqqqqbbbbbbbbbbbbb,qqqqqqw9bbbbbbb",
"bbbbbbbbbb9qqqqwqq1bbbbbbbbbbbbbbbbbbbbbbbbbbbbbbbbbbbbbbbbbbbbbb9qqqqqqqqqqqqqqqqqqqqqqqqqqqqqqqqq9bbbbbbbbbbbb1wqqqqq99bbbbbbb",
"bbbbbbbbbb9qqqqqqq,bbbbbbbbbbbbbbbbbbbbbbbbbbbbbbbbbbbbbbbbbbbbbb,99999991999999999999991989998919qbbbbbbbbbbbbb1000w99q9bbbbbbb",
"bbbbbbbbbb9qqqqqqq,bbbbbbbbbbbbbbbbbbbbbbbbbbbbbbbbbbbbbbbbbbbbbbbooooooooooooooooooooooooooooooobbbbbbbbbbbbbbb<w0w9w9q9bbbbbbb",
"bbbbbbbbbbqqqqqqqq1bbbbbbbbbbbbbbbbbbbbbbbbbbbbbbbbbbbbbbbbbbbbbbbbb                           bbbbbbbbbbbbbbbbb<900q9q91bbbbbbb",
"bbbbbbbbbb9q9qq99q,bbbbbbbbbbbbbbbbbbbbbbbbbbbbbbbbbbbbbbbbbbbbbbbbbbbbbbbbbbbbbbbbbbbbbbbbbbbbbbbbbbbbbbbbbbbbb,00q9q9q1bbbbbbb",
"bbbbbbbbbb9wqq9qq9,bbbbbbbbbbbbbbbbbbbbbbbbbbbbbbbbbbbbbbbbbbbbbbbbbbbbbbbbbbbbbbbbbbbbbbbbbbbbbbbbbbbbbbbbbbbbb100999q99bbbbbbb",
"bbbbbbbbbb99q9q99q,bbbbbbbbbbbbbbbbbbbbbbbbbbbbbbbbbbbbbbbbbbbbbbbbbbbbbbbbbbbbbbbbbbbbbbbbbbbbbbbbbbbbbbbbbbbbb,0w999991bbbbbbb",
"bbbbbbbbbb999q9q99,bbbbbbbbbbbbbbbbbbbbbbbbbbbbbbbbbbbbbbbbbbbbbbbbbbbbbbbbbbbbbbbbbbbbbbbbbbbbbbbbbbbbbbbbbbbbb,0999q991bbbbbbb",
"bbbbbbbbbb99q9q9q9,bbbbbbbbbbbbbbbbbbbbbbbbbbbbbbbbbbbbbbbbbbbbbbbbbbbbbbbbbbbbbbbbbbbbbbbbbbbbbbbbbbbbbbbbbbbbb199999999bbbbbbb",
"bbbbbbbbbb9q99q99q,bbbbbbbbbbbbbbbbbbbbbbbbbbbbbbbbbbbbbbbbbbbbbbbbbbbbbbbbbbbbbbbbbbbbbbbbbbbbbbbbbbbbbbbbbbbbb199999991bbbbbbb",
"bbbbbbbbbb99q99999,bbbbbbbbbbbbbbbbbbbbbbbbbbbbbbbbbbbbbbbbbbbbbbbbbbbbbbbbbbbbbbbbbbbbbbbbbbbbbbbbbbbbbbbbbbbbb,99999991bbbbbbb",
"bbbbbbbbbb29999999,bbbbbbbbbbbbbbbbbbbbbbbbbbbbbbbbbbbbbbbbbbbbbbbbbbbbbbbbbbbbbbbbbbbbbbbbbbbbbbbbbbbbbbbbbbbbb,92999991bbbbbbb",
"bbbbbbbbbb299999991bbbbbbbbbbbbbbbbbbbbbbbbbbbbbbbbbbbbbbbbbbbbbbbbbbbbbbbbbbbbbbbbbbbbbbbbbbbbbbbbbbbbbbbbbbbbb192929291bbbbbbb",
"bbbbbbbbbb999999999,bbbbbbbbbbbbbbbbbbbbbbbbbbbbbbbbbbbbbbbbbbbbbbbbbbbbbbbbbbbbbbbbbbbbbbbbbbbbbbbbbbbbbbbbbbb;199192921bbbbbbb",
"bbbbbbbbbb199999999199999991999991999991991999199999999929999999999919919999919999999291999992919992992911929222912919221bbbbbbb",
"bbbbbbbbbb,9199119999191999999999929999999199919919999199219919192199919291199221911921919119222199229199919122211929292;bbbbbbb",
"bbbbbbbbbb&9918891991999919199119199211919191919911191911929912229221299222922221919222919192222912221912222192291221212bbbbbbbb",
"bbbbbbbbbb@,81992999192219291929222192291992222292222222222222222222222222222291912222222222222212222222222222221891229;bbbbbbbb",
"bbbbbbbbbbb&1991211219219122222122292222921222221292222222222222221922222222221922222212222221212222222212221221911121,bbbbbbbbb",
"bbbbbbbbbbb *11922229119122222222291222212222222211912191222221922211222911922112221212121222112222221191211221911111,&bbbbbbbbb",
"bbbbbbbbbbbb.&,92222221922222222211122222222221929119111222221112221222211212221222122121112121211111111212111111191;$bbbbbbbbbb",
"bbbbbbbbbbbb  @=112191119111212121191111211191111191,1911191,191111111,119,111,1111,11,119,111111,1111111,11111111;&obbbbbbbbbbb",
"bbbbbbbbbbbbb   o+$@@$$@@$@$##$@#$@$@$@$####@$@$$@@$@$@$$@@$@$@$@$@$@$##@$@$$$@$#@$$####@$##@$@$##@$$@@$##@$$@@$@+Xbbbbbbbbbbbbb",
"bbbbbbbbbbbbbbb                                                                                                   bbbbbbbbbbbbbb",
"bbbbbbbbbbbbbbbbbbbb                                                                                         bbbbbbbbbbbbbbbbbbb",
"bbbbbbbbbbbbbbbbbbbbbbbbbbbbbbbbbbbbbbbbbbbbbbbbbbbbbbbbbbbbbbbbbbbbbbbbbbbbbbbbbbbbbbbbbbbbbbbbbbbbbbbbbbbbbbbbbbbbbbbbbbbbbbbb",
"bbbbbbbbbbbbbbbbbbbbbbbbbbbbbbbbbbbbbbbbbbbbbbbbbbbbbbbbbbbbbbbbbbbbbbbbbbbbbbbbbbbbbbbbbbbbbbbbbbbbbbbbbbbbbbbbbbbbbbbbbbbbbbbb",
"bbbbbbbbbbbbbbbbbbbbbbbbbbbbbbbbbbbbbbbbbbbbbbbbbbbbbbbbbbbbbbbbbbbbbbbbbbbbbbbbbbbbbbbbbbbbbbbbbbbbbbbbbbbbbbbbbbbbbbbbbbbbbbbb",
"bbbbbbbbbbbbbbbbbbbbbbbbbbbbbbbbbbbbbbbbbbbbbbbbbbbbbbbbbbbbbbbbbbbbbbbbbbbbbbbbbbbbbbbbbbbbbbbbbbbbbbbbbbbbbbbbbbbbbbbbbbbbbbbb",
"bbbbbbbbbbbbbbbbbbbbbbbbbbbbbbbbbbbbbbbbbbbbbbbbbbbbbbbbbbbbbbbbbbbbbbbbbbbbbbbbbbbbbbbbbbbbbbbbbbbbbbbbbbbbbbbbbbbbbbbbbbbbbbbb",
"bbbbbbbbbbbbbbbbbbbbbbbbbbbbbbbbbbbbbbbbbbbbbbbbbbbbbbbbbbbbbbbbbbbbbbbbbbbbbbbbbbbbbbbbbbbbbbbbbbbbbbbbbbbbbbbbbbbbbbbbbbbbbbbb",
"bbbbbbbbbbbbbbbbbbbbbbbbbbbbbbbbbbbbbbbbbbbbbbbbbbbbbbbbbbbbbbbbbbbbbbbbbbbbbbbbbbbbbbbbbbbbbbbbbbbbbbbbbbbbbbbbbbbbbbbbbbbbbbbb",
"bbbbbbbbbbbbbbbbbbbbbbbbbbbbbbbbbbbbbbbbbbbbbbbbbbbbbbbbbbbbbbbbbbbbbbbbbbbbbbbbbbbbbbbbbbbbbbbbbbbbbbbbbbbbbbbbbbbbbbbbbbbbbbbb",
"bbbbbbbbbbbbbbbbbbbbbbbbbbbbbbbbbbbbbbbbbbbbbbbbbbbbbbbbbbbbbbbbbbbbbbbbbbbbbbbbbbbbbbbbbbbbbbbbbbbbbbbbbbbbbbbbbbbbbbbbbbbbbbbb",
"bbbbbbbbbbbbbbbbbbbbbbbbbbbbbbbbbbbbbbbbbbbbbbbbbbbbbbbbbbbbbbbbbbbbbbbbbbbbbbbbbbbbbbbbbbbbbbbbbbbbbbbbbbbbbbbbbbbbbbbbbbbbbbbb",
"bbbbbbbbbbbbbbbbbbbbbbbbbbbbbbbbbbbbbbbbbbbbbbbbbbbbbbbbbbbbbbbbbbbbbbbbbbbbbbbbbbbbbbbbbbbbbbbbbbbbbbbbbbbbbbbbbbbbbbbbbbbbbbbb",
"bbbbbbbbbbbbbbbbbbbbbbbbbbbbbbbbbbbbbbbbbbbbbbbbbbbbbbbbbbbbbbbbbbbbbbbbbbbbbbbbbbbbbbbbbbbbbbbbbbbbbbbbbbbbbbbbbbbbbbbbbbbbbbbb",
"bbbbbbbbbbbbbbbbbbbbbbbbbbbbbbbbbbbbbbbbbbbbbbbbbbbbbbbbbbbbbbbbbbbbbbbbbbbbbbbbbbbbbbbbbbbbbbbbbbbbbbbbbbbbbbbbbbbbbbbbbbbbbbbb",
"bbbbbbbbbbbbbbbbbbbbbbbbbbbbbbbbbbbbbbbbbbbbbbbbbbbbbbbbbbbbbbbbbbbbbbbbbbbbbbbbbbbbbbbbbbbbbbbbbbbbbbbbbbbbbbbbbbbbbbbbbbbbbbbb",
"bbbbbbbbbbbbbbbbbbbbbbbbbbbbbbbbbbbbbbbbbbbbbbbbbbbbbbbbbbbbbbbbbbbbbbbbbbbbbbbbbbbbbbbbbbbbbbbbbbbbbbbbbbbbbbbbbbbbbbbbbbbbbbbb",
"bbbbbbbbbbbbbbbbbbbbbbbbbbbbbbbbbbbbbbbbbbbbbbbbbbbbbbbbbbbbbbbbbbbbbbbbbbbbbbbbbbbbbbbbbbbbbbbbbbbbbbbbbbbbbbbbbbbbbbbbbbbbbbbb"
};
