/* XPM */
static char *uextras[] = {
/* columns rows colors chars-per-pixel */
"128 128 59 1",
"  c #000000000000",
". c #060606060606",
"X c #080808080808",
"o c #0BA50BA50BA5",
"O c #0F420F420F42",
"+ c #107610761076",
"@ c #147A147A147A",
"# c #181818181818",
"$ c #1AE71AE71AE7",
"% c #1E1E1E1E1E1E",
"& c #1FB920861FB9",
"* c #21BB21BB21BB",
"= c #248A248A248A",
"- c #268C26262626",
"; c #27C127C127C1",
": c #295C295C29C3",
"> c #29C328F529C3",
", c #2BC52B5E2B5E",
"< c #2E2E2E942E2E",
"1 c #303030302FC9",
"2 c #31CB31CB31CB",
"3 c #329833663298",
"4 c #350135013501",
"5 c #367D3655369C",
"6 c #383838383838",
"7 c #396C396C39D3",
"8 c #39D3396C39D3",
"9 c #396C39D339D3",
"0 c #3B073B073B07",
"q c #3D093CA23CA2",
"w c #3CA23D093CA2",
"e c #3D093D093CA2",
"r c #3CA23CA23D09",
"t c #3CA23D093D09",
"y c #3EA43EA43EA4",
"u c #3FE63FF04035",
"i c #41DB41DB41DB",
"p c #43764376430F",
"a c #44AA44AA44AA",
"s c #4659465A46A1",
"d c #484848484848",
"f c #49E3497C497C",
"g c #497C49E3497C",
"h c #49E349E3497C",
"j c #49E3497C49E3",
"k c #4B7E4B7E4B7E",
"l c #4D194C4C4C4C",
"z c #4CB24D194CB2",
"x c #4D194D194CB2",
"c c #4D194CB24D19",
"v c #4CB24D194D19",
"b c #4EB44E4E4EB4",
"n c #501A50185018",
"m c #518451845184",
"M c #53625343534E",
"N c #552155215521",
"B c #567D5698568A",
"V c #578A578A578A",
"C c None",
/* pixels */
"CCCCCCCCCCCCCCCCCCCCCCCCCCCCCCCCCCCCCCCCCCCCCCCCCCCCCCCCCCCCCCCCCCCCCCCCCCCCCCCCCCCCCCCCCCCCCCCCCCCCCCCCCCCCCCCCCCCCCCCCCCCCCCCC",
"CCCCCCCCCCCCCCCCCCCCCCCCCCCCCCCCCCCCCCCCCCCCCCCCCCCCCCCCCCCCCCCCCCCCCCCCCCCCCCCCCCCCCCCCCCCCCCCCCCCCCCCCCCCCCCCCCCCCCCCCCCCCCCCC",
"CCCCCCCCCCCCCCCCCCCCCCCCCCCCCCCCCCCCCCCCCCCCCCCCCCCCCCCCCCCCCCCCCCCCCCCCCCCCCCCCCCCCCCCCCCCCCCCCCCCCCCCCCCCCCCCCCCCCCCCCCCCCCCCC",
"CCCCCCCCCCCCCCCCCCCCCCCCCCCCCCCCCCCCCCCCCCCCCCCCCCCCCCCCCCCCCCCCCCCCCCCCCCCCCCCCCCCCCCCCCCCCCCCCCCCCCCCCCCCCCCCCCCCCCCCCCCCCCCCC",
"CCCCCCCCCCCCCCCCCCCCCCCCCCCCCCCCCCCCCCCCCCCCCCCCCCCCCCCCCCCCCCCCCCCCCCCCCCCCCCCCCCCCCCCCCCCCCCCCCCCCCCCCCCCCCCCCCCCCCCCCCCCCCCCC",
"CCCCCCCCCCCCCCCCCCCCCCCCCCCCCCCCCCCCCCCCCCCCCCCCCCCCCCCCCCCCCCCCCCCCCCCCCCCCCCCCCCCCCCCCCCCCCCCCCCCCCCCCCCCCCCCCCCCCCCCCCCCCCCCC",
"CCCCCCCCCCCCCCCCCCCCCCCCCCCCCCCCCCCCCCCCCCCCCCCCCCCCCCCCCCCCCCCCCCCCCCCCCCCCCCCCCCCCCCCCCCCCCCCCCCCCCCCCCCCCCCCCCCCCCCCCCCCCCCCC",
"CCCCCCCCCCCCCCCCCCCCCCCCCCCCCCCCCCCCCCCCCCCCCCCCCCCCCCCCCCCCCCCCCCCCCCCCCCCCCCCCCCCCCCCCCCCCCCCCCCCCCCCCCCCCCCCCCCCCCCCCCCCCCCCC",
"CCCCCCCCCCCCCCCCCCCCCCCCCCCCCCCCCCCCCCCCCCCCCCCCCCCCCCCCCCCCCCCCCCCCCCCCCCCCCCCCCCCCCCCCCCCCCCCCCCCCCCCCCCCCCCCCCCCCCCCCCCCCCCCC",
"CCCCCCCCCCCCCCCCCCCCCCCCCCCCCCCCCCCCCCCCCCCCCCCCCCCCCCCCCCCCCCCCCCCCCCCCCCCCCCCCCCCCCCCCCCCCCCCCCCCCCCCCCCCCCCCCCCCCCCCCCCCCCCCC",
"CCCCCCCCCCCCCCCCCCCCCCCCCCCCCCCCCCCCCCCCCCCCCCCCCCCCCCCCCCCCCCCCCCCCCCCCCCCCCCCCCCCCCCCCCCCCCCCCCCCCCCCCCCCCCCCCCCCCCCCCCCCCCCCC",
"CCCCCCCCCCCCCCCCCCCCCCCCCCCCCCCCCCCCCCCCCCCCCCCCCCCCCCCCCCCCCCCCCCCCCCCCCCCCCCCCCCCCCCCCCCCCCCCCCCCCCCCCCCCCCCCCCCCCCCCCCCCCCCCC",
"CCCCCCCCCCCCCCCCCCCCCCCCCCCCCCCCCCCCCCCCCCCCCCCCCCCCCCCCCCCCCCCCCCCCCCCCCCCCCCCCCCCCCCCCCCCCCCCCCCCCCCCCCCCCCCCCCCCCCCCCCCCCCCCC",
"CCCCCCCCCCCCCCCCCCCCCCCCCCCCCCCCCCCCCCCCCCCCCCCCCCCCCCCCCCCCCCCCCCCCCCCCCCCCCCCCCCCCCCCCCCCCCCCCCCCCCCCCCCCCCCCCCCCCCCCCCCCCCCCC",
"CCCCCCCCCCCCCCCCCCCCCCCCVVVVVVVVVVVVVVVBCCCCCCCCCCCCCCCCCCCCCCCCCCCCCCCCCCCCCCCCCBVVVVVVVVVVVVVVVCCCCCCCCCCCCCCCCCCCCCCCCCCCCCCC",
"CCCCCCCCCCCCCCCCCCCCCCCCVVVVVVVVVVVVVVVVCCCCCCCCCCCCCCCCCCCCCCCCCCCCCCCCCCCCCCCCCVVVVVVVVVVVVVVVVCCCCCCCCCCCCCCCCCCCCCCCCCCCCCCC",
"CCCCCCCCCCCCCCCCCCCCCCCCVVVVVVMVVVBVVVBVCCCCCCCCCCCCCCCCCCCCCCCCCCCCCCCCCCCCCCCCCVVVVVVVVVVVVBVVVCCCCCCCCCCCCCCCCCCCCCCCCCCCCCCC",
"CCCCCCCCCCCCCCCCCCCCCCCCVVVVVVVVVVBVBVBBCCCCCCCCCCCCCCCCCCCCCCCCCCCCCCCCCCCCCCCCCBVVVVVVBBBBVBBBVCCCCCCCCCCCCCCCCCCCCCCCCCCCCCCC",
"CCCCCCCCCCCCCCCCCCCCCCCCVVVVVVVNBBBBBBBBCCCCCCCCCCCCCCCCCCCCCCCCCCCCCCCCCCCCCCCCCBBBMVVVBBBBBBBBVCCCCCCCCCCCCCCCCCCCCCCCCCCCCCCC",
"CCCCCCCCCCCCCCCCCCCCCCCCVVVMVMVVBBBBBBBBCCCCCCCCCCCCCCCCCCCCCCCCCCCCCCCCCCCCCCCCCBBBVVVMBBBVBBBBVCCCCCCCCCCCCCCCCCCCCCCCCCCCCCCC",
"CCCCCCCCCCCCCCCCCCCCCCCCMVMVMMVMBMBBVVVMCCCCCCCCCCCCCCCCCCCCCCCCCCCCCCCCCCCCCCCCCVBVVVMVMVBVBVVVVCCCCCCCCCCCCCCCCCCCCCCCCCCCCCCC",
"CCCCCCCCCCCCCCCCCCCCCCCCVVMVVVMVMVVMMMVVCCCCCCCCCCCCCCCCCCCCCCCCCCCCCCCCCCCCCCCCCVMBMVMMBBBMMBMMMCCCCCCCCCCCCCCCCCCCCCCCCCCCCCCC",
"CCCCCCCCCCCCCCCCCCCCCCCCMVVMMVMVVMVMMVMMCCCCCCCCCCCCCCCCCCCCCCCCCCCCCCCCCCCCCCCCCVMMMMVMBMMBBBMBVCCCCCCCCCCCCCCCCCCCCCCCCCCCCCCC",
"CCCCCCCCCCCCCCCCCCCCCCCCVMMVMMVMMVMMVMVMCCCCCCCCCCCCCCCCCCCCCCCCCCCCCCCCCCCCCCCCCVVMVVMVBMBMBMBMVCCCCCCCCCCCCCCCCCCCCCCCCCCCCCCC",
"CCCCCCCCCCCCCCCCCCCCCCCCMVMMVMMVMMVVMMMVCCCCCCCCCCCCCCCCCCCCCCCCCCCCCCCCCCCCCCCCCMVMVMMMMMMVMBMBMCCCCCCCCCCCCCCCCCCCCCCCCCCCCCCC",
"CCCCCCCCCCCCCCCCCCCCCCCCMMMVMVMMVMMMVMMMCCCCCCCCCCCCCCCCCCCCCCCCCCCCCCCCCCCCCCCCCVMMMVVMMVMMBMMMVCCCCCCCCCCCCCCCCCCCCCCCCCCCCCCC",
"CCCCCCCCCCCCCCCCCCCCCCCCMVMMVMMMMMVMnMMVCCCCCCCCCCCCCCCCCCCCCCCCCCCCCCCCCCCCCCCCCVVMMMMMMVMMMMMVMCCCCCCCCCCCCCCCCCCCCCCCCCCCCCCC",
"CCCCCCCCCCCCCCCCCCCCCCCCMMMMnMMMMVnMVMMMCCCCCCCCCCCCCCCCCCCCCCCCCCCCCCCCCCCCCCCCCMVcMnVMnMMMMMMMMCCCCCCCCCCCCCCCCCCCCCCCCCCCCCCC",
"CCCCCCCCCCCCCCCCCCCCCCCCnMMnMMMnMMMMMMMMCCCCCCCCCCCCCCCCCCCCCCCCCCCCCCCCCCCCCCCCCMMMMMMMMMMMMMMMMCCCCCCCCCCCCCCCCCCCCCCCCCCCCCCC",
"CCCCCCCCCCCCCCCCCCCCCCCCMMMVMMMMMMMnMMMMCCCCCCCCCCCCCCCCCCCCCCCCCCCCCCCCCCCCCCCCCMMMMnnVMMMMnMnMVCCCCCCCCCCCCCCCCCCCCCCCCCCCCCCC",
"CCCCCCCCCCCCCCCCCCCCCCCCMMnnnMMMMnnMnMVVCCCCCCCCCCCCCCCCCCCCCCCCCCCCCCCCCCCCCCCCCMcMMVnnnnMMnMnncCCCCCCCCCCCCCCCCCCCCCCCCCCCCCCC",
"CCCCCCCCCCCCCCCCCCCCCCCCMnMnVMnnMnMMMnVVCCCCCCCCCCCCCCCCCCCCCCCCCCCCCCCCCCCCCCCCCMMMnnMnMMMnMMMMMCCCCCCCCCCCCCCCCCCCCCCCCCCCCCCC",
"CCCCCCCCCCCCCCCCCCCCCCCCMMMbnMnMnnMnnnMnCCCCCCCCCCCCCCCCCCCCCCCCCCCCCCCCCCCCCCCCCmmmnMMnmmnMmmMnMCCCCCCCCCCCCCCCCCCCCCCCCCCCCCCC",
"CCCCCCCCCCCCCCCCCCCCCCCCMbnMnMMnMnnMMnnMCCCCCCCCCCCCCCCCCCCCCCCCCCCCCCCCCCCCCCCCCmmmMnnMmmmnmmnMMCCCCCCCCCCCCCCCCCCCCCCCCCCCCCCC",
"CCCCCCCCCCCCCCCCCCCCCCCCnMMnMnnnMnMnnMnnCCCCCCCCCCCCCCCCCCCCCCCCCCCCCCCCCCCCCCCCCMmmnbMnmmnMmmnbMCCCCCCCCCCCCCCCCCCCCCCCCCCCCCCC",
"CCCCCCCCCCCCCCCCCCCCCCCCMcnMcMnnnnnnbMnMCCCCCCCCCCCCCCCCCCCCCCCCCCCCCCCCCCCCCCCCCbmbnMnnmbbMbmMbcCCCCCCCCCCCCCCCCCCCCCCCCCCCCCCC",
"CCCCCCCCCCCCCCCCCCCCCCCCcMbnMcMnnnnnnnnbCCCCCCCCCCCCCCCCCCCCCCCCCCCCCCCCCCCCCCCCCcMcnnMnbMnmnMbMMCCCCCCCCCCCCCCCCCCCCCCCCCCCCCCC",
"CCCCCCCCCCCCCCCCCCCCCCCCMcMccMnnnnnbnnmbCCCCCCCCCCCCCCCCCCCCCCCCCCCCCCCCCCCCCCCCCMcMbMbbnbbbbMbncCCCCCCCCCCCCCCCCCCCCCCCCCCCCCCC",
"CCCCCCCCCCCCCCCCCCCCCCCCccMMnMccnnnnnmbmCCCCCCCCCCCCCCCCCCCCCCCCCCCCCCCCCCCCCCCCCMncnbnnMbmbnbbmnCCCCCCCCCCCCCCCCCCCCCCCCCCCCCCC",
"CCCCCCCCCCCCCCCCCCCCCCCCcMcbbbbMbnbnbnbbCCCCCCCCCCCCCCCCCCCCCCCCCCCCCCCCCCCCCCCCCbcMnbbbbbnbnbbbcCCCCCCCCCCCCCCCCCCCCCCCCCCCCCCC",
"CCCCCCCCCCCCCCCCCCCCCCCCbbbbbbbbbbbbbbbbCCCCCCCCCCCCCCCCCCCCCCCCCCCCCCCCCCCCCCCCCcbbbbbbbbbbbbbbcCCCCCCCCCCCCCCCCCCCCCCCCCCCCCCC",
"CCCCCCCCCCCCCCCCCCCCCCCCbbbbbbbbbbbbbbbbCCCCCCCCCCCVVVVVVVVVVVCCCCCCCCCCCCCCCCCCCcbbbbbbbbbbbbbbMCCCCCCCCCCCCCCCCCCCCCCCCCCCCCCC",
"CCCCCCCCCCCCCCCCCCCCCCCCbbbbbbbbbbbbbbbcCCCCCCCCCCVVVVVVVVVVVVVVBCCCCCCCCCCCCCCCCccbbbbbbbbbbbbbcCCCCCCCCCCCCCCCCCCCCCCCCCCCCCCC",
"CCCCCCCCCCCCCCCCCCCCCCCCbbbbbbbbbbbbbbbbCCCCCCCCCCVVVVVVVVVVVVVVVVVCCCCCCCCCCCCCCMbbbbbbbbvbbbbbcCCCCCCCCCCCCCCCCCCCCCCCCCCCCCCC",
"CCCCCCCCCCCCCCCCCCCCCCCCbbcbbcbbbccccccnCCCCCCCCCCC3VVVVVVVVVVVVVVVVVCCCCCCCCCCCCccnbbccbbkbbbvbMCCCCCCCCCCCCCCCCCCCCCCCCCCCCCCC",
"CCCCCCCCCCCCCCCCCCCCCCCCbcbkcbvkcbncbcccCCCCCCCCCCC CcVVVVVVMVVVVVVVVVCCCCCCCCCCCcccccccbbbkkbkbcCCCCCCCCCCCCCCCCCCCCCCCCCCCCCCC",
"CCCCCCCCCCCCCCCCCCCCCCCCbkcbccccvcvccvbcCCCCCCCCCCCC  :VVVVVVVVVVVBVBBBCCCCCCCCCCccccccnbkkbbkbkcCCCCCCCCCCCCCCCCCCCCCCCCCCCCCCC",
"CCCCCCCCCCCCCCCCCCCCCCCCkbkkvvvccccvvcvvCCCCCCCCCCCCCC.ChVVVVVMMMVBBBVBMCCCCCCCCCccccckkkbkbkkkbcCCCCCCCCCCCCCCCCCCCCCCCCCCCCCCC",
"CCCCCCCCCCCCCCCCCCCCCCCCvkvvkvccvhckckccCCCCCCCCCCCCCCCC =VVVVVVBVMBBBMBCCCCCCCCCkcccvbkkckbkvkkhCCCCCCCCCCCCCCCCCCCCCCCCCCCCCCC",
"CCCCCCCCCCCCCCCCCCCCCCCCkkkkkkkccvkcckkkCCCCCCCCCCCCCCCCC C<VMMVVMVMBMBMCCCCCCCCCkkkvkkkvkkkkkkvcCCCCCCCCCCCCCCCCCCCCCCCCCCCCCCC",
"CCCCCCCCCCCCCCCCCCCCCCCCkkkkkkkkhckkkkkkCCCCCCCCCCCCCCCCCCC :VMMMMMVBBMMnCCCCCCCCkkkkkkkkkkkkkkkkCCCCCCCCCCCCCCCCCCCCCCCCCCCCCCC",
"CCCCCCCCCCCCCCCCCCCCCCCCkkkkkkkkvhkkkkkkCCCCCCCCCCCCCCCCCCCC#MVMMVMMMMBMVCCCCCCCCkkkkkkkkkkkkkkkkCCCCCCCCCCCCCCCCCCCCCCCCCCCCCCC",
"CCCCCCCCCCCCCCCCCCCCCCCCkkkkkkkkkkkkkkkhCCCCMMCCCCCCCCCCCCCCCMVMMMVMMMMVVCCCCCCCCkkkkhkhkkkkhkkkkCCCCCCCCCCCCCCCCCCCCCCCCCCCCCCC",
"CCCCCCCCCCCCCCCCCCCCCCCChkjkhkhkhhkhkkkhCCCCMMMMCCCCCCCCCCCCCMnMMMMMMMMMMCCCCCCCChkhkkkkkkkhhkdkkCCCCCCCCCCCCCCCCCCCCCCCCCCCCCCC",
"CCCCCCCCCCCCCCCCCCCCCCCCkkkhkkkhkhhkhhhhCCCCMMVnMCCCCCCCCCCCsMMMMnMMnMMMnCCCCCCCCkhdhhhkhkhkhhdkkCCCCCCCCCCCCCCCCCCCCCCCCCCCCCCC",
"CCCCCCCCCCCCCCCCCCCCCCCCskhhdhhhdhhvhhhhCCCCMnMbMMMCCCCCCCCCcMnnMMnMnMnMMCCCCCCCChhkkdhhhhhhhkhkhCCCCCCCCCCCCCCCCCCCCCCCCCCCCCCC",
"CCCCCCCCCCCCCCCCCCCCCCCChhhhhhdhhhhhhskkCCCCyMMMMMnMcCCCCCCknMnMMMMnnMMMhCCCCCCCChhhhhhhhdhhdhhhhCCCCCCCCCCCCCCCCCCCCCCCCCCCCCCC",
"CCCCCCCCCCCCCCCCCCCCCCCChhhhhhhshhkshkhsCCCCCbbMcMMccMCCCCCMnMMnncnMMMcMCCCCCCCCChhdhdhshhhddhdhhCCCCCCCCCCCCCCCCCCCCCCCCCCCCCCC",
"CCCCCCCCCCCCCCCCCCCCCCCCdhhshhshhhshhsddCCCCCMMbMMMnMccMccMccMnMMccMcMccCCCCCCCCChhhdhdhshdhddhdhCCCCCCCCCCCCCCCCCCCCCCCCCCCCCCC",
"CCCCCCCCCCCCCCCCCCCCCCCChshhshhhshshdskdCCCCCCcMccMcncMcMMcMMMcccMMcMcMMCCCCCCCCCddsddhdddhdhdddhCCCCCCCCCCCCCCCCCCCCCCCCCCCCCCC",
"CCCCCCCCCCCCCCCCCCCCCCCCddddddhshdddddddCCCCCC<bcMMcMccMcMMcMccMnMcnMMccCCCCCCCCChshddddddddhshdhCCCCCCCCCCCCCCCCCCCCCCCCCCCCCCC",
"CCCCCCCCCCCCCCCCCCCCCCCCdddhddshddddddddCCCCCCCbcccMccMMcccMbcMbcccncccsCCCCCCCCCshsddddddddshshhCCCCCCCCCCCCCCCCCCCCCCCCCCCCCCC",
"CCCCCCCCCCCCCCCCCCCCCCCCsdssshhssdddddddCCCCCCCCccMcMcMcncncbbbbbnncMccsCCCCCCCCChsdsdddsdddhssssCCCCCCCCCCCCCCCCCCCCCCCCCCCCCCC",
"CCCCCCCCCCCCCCCCCCCCCCCCsdhsssssdsssssadCCCCCCCCC3cccccccncnbbbbbccnccchCCCCCCCCCsddssssddsssshshCCCCCCCCCCCCCCCCCCCCCCCCCCCCCCC",
"CCCCCCCCCCCCCCCCCCCCCCCCssssssssadpdpdddCCCCCCCCC :cnncccncncbbbbcncccbcCCCCCCCCChssssadssdaddadaCCCCCCCCCCCCCCCCCCCCCCCCCCCCCCC",
"CCCCCCCCCCCCCCCCCCCCCCCCsassssssdadsdsasCCCCCCCCCC CkcccccccccccbcccccccCCCCCCCCCsssusdsssadasdahCCCCCCCCCCCCCCCCCCCCCCCCCCCCCCC",
"CCCCCCCCCCCCCCCCCCCCCCCCdsasssssaddspdsaCCCCCCCCCCC C;kcvcccvcccvccccvvvCCCCCCCCCssshsshsadassadaCCCCCCCCCCCCCCCCCCCCCCCCCCCCCCC",
"CCCCCCCCCCCCCCCCCCCCCCCCdpsssssaaaadpsasCCCCCCCCCCCCC C6hvvchcvckkvvvkkkvCCCCCCCCpsssssuaadaasaaaCCCCCCCCCCCCCCCCCCCCCCCCCCCCCCC",
"CCCCCCCCCCCCCCCCCCCCCCCCpdpsaadaadaaasaaCCCCCCCCCCCCCCC *vhckkkkkkvhvhkkkcCCCCCCCsssspsasaaadaadsCCCCCCCCCCCCCCCCCCCCCCCCCCCCCCC",
"CCCCCCCCCCCCCCCCCCCCCCCCpaspaaaaaaaaaaaaCCCCCCCCCCCCCCCC C;kkkkkkkhvkvkkkhhCCCCCCpspsspaaaaaaaaaaCCCCCCCCCCCCCCCCCCCCCCCCCCCCCCC",
"CCCCCCCCCCCCCCCCCCCCCCCCaapspaaaaaaaaaasCCCCCCCCCCCCCCCCCC CuckkkkkhhkkkhkhCCCCCCsaapsaaaaaaaaaaaCCCCCCCCCCCCCCCCCCCCCCCCCCCCCCC",
"CCCCCCCCCCCCCCCCCCCCCCCCapapaaappaaaapasCCCCCCCCCCCCCCCCCCC C=hkkkhhkhhhkhvhCCCCCaapsuaaaausaaapsCCCCCCCCCCCCCCCCCCCCCCCCCCCCCCC",
"CCCCCCCCCCCCCCCCCCCCCCCCapapapaapaaapaapCCCCCCCCCCCCCCCCCCCCC C5dhhhhdhhhhhhdCCCCdpsppappappuspsuCCCCCCCCCCCCCCCCCCCCCCCCCCCCCCC",
"CCCCCCCCCCCCCCCCCCCCCCCCppapappaapppppppCCCCCCCCCCCCCCCCCCCCCCC %dhhdhhhhddhhaCCCppppppsppppspppsCCCCCCCCCCCCCCCCCCCCCCCCCCCCCCC",
"CCCCCCCCCCCCCCCCCCCCCCCCappaapapppppppppCCCCCCCCCCCCCCCCCCCCCCCC *dddhddddhdhhuCCappppppppppppppuCCCCCCCCCCCCCCCCCCCCCCCCCCCCCCC",
"CCCCCCCCCCCCCCCCCCCCCCCCaupauauappppupppCCCCCCCCCCCCCCCCCCCCCCCCC ;dddddddddssh66puppuppppppppppsCCCCCCCCCCCCCCCCCCCCCCCCCCCCCCC",
"CCCCCCCCCCCCCCCCCCCCCCCCaapauaupuspupsupqCCCCCCCCCCCCCCCCCCCCCCCCC 5shsdhssshshspyupusupupppusppaCCCCCCCCCCCCCCCCCCCCCCCCCCCCCCC",
"CCCCCCCCCCCCCCCCCCCCCCCCuauupapupupapuauqCCCCCCCCCCCCCCCCCCCCCCCCCCCahshsahhsshsduuppuapaupupuupuCCCCCCCCCCCCCCCCCCCCCCCCCCCCCCC",
"CCCCCCCCCCCCCCCCCCCCCCCCupuaupuaupuppupuqCCCCCCCCCCCCCCCCCCCCCCCCCCCCsddsssssspdssuupuuapuupuppuuCCCCCCCCCCCCCCCCCCCCCCCCCCCCCCC",
"CCCCCCCCCCCCCCCCCCCCCCCCpupupuuaupppupupuCCCCCCCCCCCCCCCCCCCCCCCCCCCC*aasssdsspssdduypupupuppuppaCCCCCCCCCCCCCCCCCCCCCCCCCCCCCCC",
"CCCCCCCCCCCCCCCCCCCCCCC#puupuuauppuupupauCCCCCCCCCCCCCCCCCCCCCCCCCCCC :sssassasasaaauuuupupupuuuuCCCCCCCCCCCCCCCCCCCCCCCCCCCCCCC",
"CCCCCCCCCCCCCCCCCCCCCCCCupuusuuuuuupupyupCCCCCCCCCCCCCCCCCCCCCCCCCCCCCCpaaaaaaaaaaaaauuuuuypuppuuCCCCCCCCCCCCCCCCCCCCCCCCCCCCCCC",
"CCCCCCCCCCCCCCCCCCCCCCCCuuupsqqauuupuuauu0CCCCCCCCCCCCCCCCCCCCCCCCCCCCCCaaaaasssaaaaauuuuppyupypuCCCCCCCCCCCCCCCCCCCCCCCCCCCCCCC",
"CCCCCCCCCCCCCCCCCCCCCCCC5ypyuuuuuuuuuuuuuqCCCCCCCCCCCCCCCCCCCCCCCCCCCCCC&uaaauauaausaaaqyuuuyuuuqCCCCCCCCCCCCCCCCCCCCCCCCCCCCCCC",
"CCCCCCCCCCCCCCCCCCCCCCCC5ypyuyuuuuuuuuuuuuCCCCCCCCCCCCCCCCCCCCCCCCCCCCCC =ssppppppppaapuyuupuuuu6CCCCCCCCCCCCCCCCCCCCCCCCCCCCCCC",
"CCCCCCCCCCCCCCCCCCCCCCCC=yyuuuyuuuwuuuquyyCCCCCCCCCCCCCCCCCCCCCCCCCCCCCCC 3upppppppauaauyyyyqyuuCCCCCCCCCCCCCCCCCCCCCCCCCCCCCCCC",
"CCCCCCCCCCCCCCCCCCCCCCCC@yuyyyyuuuuuuyuupyqCCCCCCCCCCCCCCCCCCCCCCCCCCCCCCCCqppuappauuauapqyyuyyyCCCCCCCCCCCCCCCCCCCCCCCCCCCCCCCC",
"CCCCCCCCCCCCCCCCCCCCCCCCCyyyyuuyuuququyyyyyCCCCCCCCCCCCCCCCCCCCCCCCCCCCCCCC#uuaupuuapupuupyyyyyyCCCCCCCCCCCCCCCCCCCCCCCCCCCCCCCC",
"CCCCCCCCCCCCCCCCCCCCCCCCC3yyyyyyyyyyyyyyyyy0CCCCCCCCCCCCCCCCCCCCCCCCCCCCCCC %quuuupupupauaqeqyy6CCCCCCCCCCCCCCCCCCCCCCCCCCCCCCCC",
"CCCCCCCCCCCCCCCCCCCCCCCCC=yyyyyyyyyyyyyyyyyyCCCCCCCCCCCCCCCCCCCCCCCCCCCCCCCCo3uaupiiupuuuuuuqqyCCCCCCCCCCCCCCCCCCCCCCCCCCCCCCCCC",
"CCCCCCCCCCCCCCCCCCCCCCCCCCwwryqyywywwquyyyyyqCCCCCCCCCCCCCCCCCCCCCCCCCCCCCCC%;uuiuuuuuupaupyq0qCCCCCCCCCCCCCCCCCCCCCCCCCCCCCCCCC",
"CCCCCCCCCCCCCCCCCCCCCCCCCC3ryrywywuwwwwuqqqqy6CCCCCCCCCCCCCCCCCCCCCCCCCCCCC::*<quiuuuuuuyuuuuq3CCCCCCCCCCCCCCCCCCCCCCCCCCCCCCCCC",
"CCCCCCCCCCCCCCCCCCCCCCCCCC%qqyqywwrrqqqqqqqqyy0CCCCCCCCCCCCCCCCCCCCCCCCCCC563;%<uuuuueuqyyuuuu<CCCCCCCCCCCCCCCCCCCCCCCCCCCCCCCCC",
"CCCCCCCCCCCCCCCCCCCCCCCCCC 3wwwqwwqwwwqqyqyqqqqqCCCCCCCCCCCCCCCCCCCCCCCCC6qw51=%,ueuuuuuuyyyyy6CCCCCCCCCCCCCCCCCCCCCCCCCCCCCCCCC",
"CCCCCCCCCCCCCCCCCCCCCCCCCCC%00qr0rrqqqwwqww6ww0qw0CCCCCCCCCCCCCCCCCCCCCqqqwq05<*$4uuuueqyyyyyyy6CCCCCCCCCCCCCCCCCCCCCCCCCCCCCCCC",
"CCCCCCCCCCCCCCCCCCCCCCCCCCC 3r0rqqq0q6wwwwqw0wwqqq000CCCCCCCCCCCCCCC6q6qqqq6063,*,0eeeueyeyyyyey6CCCCCCCCCCCCCCCCCCCCCCCCCCCCCCC",
"CCCCCCCCCCCCCCCCCCCCCCCCCCCCC000000wq0w0w0q0000y0w0w00w00CCCCCCC06600qrr0qq00053:%,0uqqqywqqquqqqqCCCCCCCCCCCCCCCCCCCCCCCCCCCCCC",
"CCCCCCCCCCCCCCCCCCCCCCCCCCCC =q0000q000000w000000000000000qq0000rrqr0060000000651=%,wqqqwyyqqqqqqqCCCCCCCCCCCCCCCCCCCCCCCCCCCCCC",
"CCCCCCCCCCCCCCCCCCCCCCCCCCCCC :60000000000000000000000000000000000000000000000005<=$<wqqwwqqqqqqqqqCCCCCCCCCCCCCCCCCCCCCCCCCCCCC",
"CCCCCCCCCCCCCCCCCCCCCCCCCCCCC +060000000000000000000000000600000r60000000006000063,*;w00ww6www0qq000CCCCCCCCCCCCCCCCCCCCCCCCCCCC",
"CCCCCCCCCCCCCCCCCCCCCCCCCCCCCC $w6w060w60000600000700006060000070r6077700600w066653;%,600000000000000CCCCCCCCCCCCCCCCCCCCCCCCCCC",
"CCCCCCCCCCCCCCCCCCCCCCCCCCCCCCC $6606q66060006606070000077000050666r700700066q006651=%,000000000000q06CCCCCCCCCCCCCCCCCCCCCCCCCC",
"CCCCCCCCCCCCCCCCCCCCCCCCCCCCCCC  $60w6qw060660000500605077770706066006067706066q6664,=#*5w0000w000w66w6CCCCCCCCCCCCCCCCCCCCCCCCC",
"CCCCCCCCCCCCCCCCCCCCCCCCCCCCCCCC  $66066506005665066070577777760600667005700660606663;o =660q666606q66qCCCCCCCCCCCCCCCCCCCCCCCCC",
"CCCCCCCCCCCCCCCCCCCCCCCCCCCCCCCCC  O*666666666660050050050660066606060666666q6666066*o  o35666w66w606606CCCCCCCCCCCCCCCCCCCCCCCC",
"CCCCCCCCCCCCCCCCCCCCCCCCCCCCCCCCCC   %666066666650556666666666666566666666666666655= CC  @556666666666666CCCCCCCCCCCCCCCCCCCCCCC",
"CCCCCCCCCCCCCCCCCCCCCCCCCCCCCCCCCCC   O*66666666667666666666666666666666666566656=o CCCCC %666666666666666CCCCCCCCCCCCCCCCCCCCCC",
"CCCCCCCCCCCCCCCCCCCCCCCCCCCCCCCCCCCCC   C<6666666666665666665666666666665665666<C CCCCCCCC =666665666666666CCCCCCCCCCCCCCCCCCCCC",
"CCCCCCCCCCCCCCCCCCCCCCCCCCCCCCCCCCCCCC    O%:66656666566566656566666656666655%O  CCCCCCCCCCC555565565555565CCCCCCCCCCCCCCCCCCCCC",
"CCCCCCCCCCCCCCCCCCCCCCCCCCCCCCCCCCCCCCCC     O%,5555566565655666555666555,%OC  CCCCCCCCCCCCCC55565555;;55555CCCCCCCCCCCCCCCCCCCC",
"CCCCCCCCCCCCCCCCCCCCCCCCCCCCCCCCCCCCCCCCCC      .+$:,,5555555555555,,,$O.    CCCCCCCCCCCCCCCC#555555#  C5555CCCCCCCCCCCCCCCCCCCC",
"CCCCCCCCCCCCCCCCCCCCCCCCCCCCCCCCCCCCCCCCCCCCC         .............        CCCCCCCCCCCCCCCCCC %55555CCC C554CCCCCCCCCCCCCCCCCCCC",
"CCCCCCCCCCCCCCCCCCCCCCCCCCCCCCCCCCCCCCCCCCCCCCCC                       CCCCCCCCCCCCCCCCCCCCCCCC,5544CCCCC535CCCCCCCCCCCCCCCCCCCC",
"CCCCCCCCCCCCCCCCCCCCCCCCCCCCCCCCCCCCCCCCCCCCCCCCCCCCCCC         CCCCCCCCCCCCCCCCCCCCCCCCCCCCCCCC3444:CCC5355CCCCCCCCCCCCCCCCCCCC",
"CCCCCCCCCCCCCCCCCCCCCCCCCCCCCCCCCCCCCCCCCCCCCCCCCCCCCCCCCCCCCCCCCCCCCCCCCCCCCCCCCCCCCCCCCCCCCCCCC5345334335CCCCCCCCCCCCCCCCCCCCC",
"CCCCCCCCCCCCCCCCCCCCCCCCCCCCCCCCCCCCCCCCCCCCCCCCCCCCCCCCCCCCCCCCCCCCCCCCCCCCCCCCCCCCCCCCCCCCCCCCC@33534433CCCCCCCCCCCCCCCCCCCCCC",
"CCCCCCCCCCCCCCCCCCCCCCCCCCCCCCCCCCCCCCCCCCCCCCCCCCCCCCCCCCCCCCCCCCCCCCCCCCCCCCCCCCCCCCCCCCCCCCCCC C:3333=CCCCCCCCCCCCCCCCCCCCCCC",
"CCCCCCCCCCCCCCCCCCCCCCCCCCCCCCCCCCCCCCCCCCCCCCCCCCCCCCCCCCCCCCCCCCCCCCCCCCCCCCCCCCCCCCCCCCCCCCCCCCC o+OCCCCCCCCCCCCCCCCCCCCCCCCC",
"CCCCCCCCCCCCCCCCCCCCCCCCCCCCCCCCCCCCCCCCCCCCCCCCCCCCCCCCCCCCCCCCCCCCCCCCCCCCCCCCCCCCCCCCCCCCCCCCCCCCCCCCCCCCCCCCCCCCCCCCCCCCCCCC",
"CCCCCCCCCCCCCCCCCCCCCCCCCCCCCCCCCCCCCCCCCCCCCCCCCCCCCCCCCCCCCCCCCCCCCCCCCCCCCCCCCCCCCCCCCCCCCCCCCCCCCCCCCCCCCCCCCCCCCCCCCCCCCCCC",
"CCCCCCCCCCCCCCCCCCCCCCCCCCCCCCCCCCCCCCCCCCCCCCCCCCCCCCCCCCCCCCCCCCCCCCCCCCCCCCCCCCCCCCCCCCCCCCCCCCCCCCCCCCCCCCCCCCCCCCCCCCCCCCCC",
"CCCCCCCCCCCCCCCCCCCCCCCCCCCCCCCCCCCCCCCCCCCCCCCCCCCCCCCCCCCCCCCCCCCCCCCCCCCCCCCCCCCCCCCCCCCCCCCCCCCCCCCCCCCCCCCCCCCCCCCCCCCCCCCC",
"CCCCCCCCCCCCCCCCCCCCCCCCCCCCCCCCCCCCCCCCCCCCCCCCCCCCCCCCCCCCCCCCCCCCCCCCCCCCCCCCCCCCCCCCCCCCCCCCCCCCCCCCCCCCCCCCCCCCCCCCCCCCCCCC",
"CCCCCCCCCCCCCCCCCCCCCCCCCCCCCCCCCCCCCCCCCCCCCCCCCCCCCCCCCCCCCCCCCCCCCCCCCCCCCCCCCCCCCCCCCCCCCCCCCCCCCCCCCCCCCCCCCCCCCCCCCCCCCCCC",
"CCCCCCCCCCCCCCCCCCCCCCCCCCCCCCCCCCCCCCCCCCCCCCCCCCCCCCCCCCCCCCCCCCCCCCCCCCCCCCCCCCCCCCCCCCCCCCCCCCCCCCCCCCCCCCCCCCCCCCCCCCCCCCCC",
"CCCCCCCCCCCCCCCCCCCCCCCCCCCCCCCCCCCCCCCCCCCCCCCCCCCCCCCCCCCCCCCCCCCCCCCCCCCCCCCCCCCCCCCCCCCCCCCCCCCCCCCCCCCCCCCCCCCCCCCCCCCCCCCC",
"CCCCCCCCCCCCCCCCCCCCCCCCCCCCCCCCCCCCCCCCCCCCCCCCCCCCCCCCCCCCCCCCCCCCCCCCCCCCCCCCCCCCCCCCCCCCCCCCCCCCCCCCCCCCCCCCCCCCCCCCCCCCCCCC",
"CCCCCCCCCCCCCCCCCCCCCCCCCCCCCCCCCCCCCCCCCCCCCCCCCCCCCCCCCCCCCCCCCCCCCCCCCCCCCCCCCCCCCCCCCCCCCCCCCCCCCCCCCCCCCCCCCCCCCCCCCCCCCCCC"
};
