/* XPM */
static char *DC__[] = {
/* columns rows colors chars-per-pixel */
"24 24 38 1",
"  c #1DA01DB11DA0",
". c #1F4E1F4E1F49",
"X c #241B2420240D",
"o c #25DE25ED25DF",
"O c #27E227E127D8",
"+ c #29F829FE29FC",
"@ c #2C002C0B2C05",
"# c #2D3F2D482D37",
"$ c #2EEF2EEB2EDC",
"% c #3139313B313C",
"& c #335E3363335D",
"* c #35EB35EB35EB",
"= c #381738133810",
"- c #394C39493951",
"; c #39EA39E339ED",
": c #3AF53AF83AFB",
"> c #3C123C043C1A",
", c #3D043D043D04",
"< c #3F843F803F85",
"1 c #40444043403E",
"2 c #42344237423F",
"3 c #43824382437C",
"4 c #450A450B450C",
"5 c #45F845F845FC",
"6 c #471447104708",
"7 c #4841483C485C",
"8 c #48C948C848D5",
"9 c #4A754A7A4A71",
"0 c #4C484C484C4D",
"q c #4E0A4E094E0D",
"w c #4F284F224F1C",
"e c #51885184517B",
"r c #51F551F651FF",
"t c #54895493548C",
"y c #55665571556D",
"u c #566C5668566F",
"i c #5784577C5784",
"p c None",
/* pixels */
"pppppppppppppppppppppppp",
"pppppppppyiiiiippppppppp",
"pppppppyiyyyiyiyyppppppp",
"ppppppyyyyyyyyyytyyppppp",
"pppprrr4*&,qrrryryrrpppp",
"pppprr4pppp+9rrrqrrrrppp",
"pppqqqpppppp=q4,*=1qqppp",
"pppqqpppppppp1*&&**=qqpp",
"pp90qpppppppp&&&&&&&1qpp",
"pp999pppppppp&&&&&*&=9pp",
"pp9994pppppp*&&&&&&&=97p",
"pp44949ppppp&&&&&&&&,44p",
"pp144444ppppp &&&&&&,44p",
"pp44341pppppppX&$&&*41pp",
"pp11141ppppppp$&*&=111pp",
"pp=1111ppppppp=1111111pp",
"ppp=1,,ppppppp,,,,,,,ppp",
"ppp$,,,,pppppp,,,,,,=ppp",
"pppp$,,==pppp=,,,,==pppp",
"ppppp+==,====>====*ppppp",
"pppppp &**=**===*$pppppp",
"pppppppp +$$&$+Xpppppppp",
"pppppppppppppppppppppppp",
"pppppppppppppppppppppppp"
};
