/* XPM */
static char *dia_menu[] = {
/* columns rows colors chars-per-pixel */
"24 24 70 1",
"  c #161716181619",
". c #173A173C173E",
"X c #1E801E831E88",
"o c #1B2220A615CD",
"O c #21862AD018C5",
"+ c #21492148214F",
"@ c #224222362233",
"# c #28DC28DD28D9",
"$ c #2BEF2BF12BE1",
"% c #2F0A2F532EBC",
"& c #2CBF362823BB",
"* c #361A3DBA2EF7",
"= c #323B323D322F",
"- c #33FC340533E7",
"; c #34FE34FA34FE",
": c #367036813672",
"> c #374D3751374E",
", c #3850384B3843",
"< c #394A39A438F5",
"1 c #39A8399A39C7",
"2 c #3AB83AB63AB2",
"3 c #3B5A3B5C3B67",
"4 c #3BE03D603A76",
"5 c #3CA03C9C3CA8",
"6 c #3DB63DBD3DC0",
"7 c #3E7F3E7E3E7A",
"8 c #3F383F403F38",
"9 c #30B4450C1D6F",
"0 c #36FF46B42800",
"q c #38DA41943082",
"w c #3AD641AE3462",
"e c #3CA847D631F5",
"r c #3F4748943647",
"t c #3CEE40C53944",
"y c #40DB46D53B2C",
"u c #41A24B6F3829",
"i c #438849B73D80",
"p c #45594C1C3ED6",
"a c #3FCD3FCB3FD6",
"s c #417141734173",
"d c #42894273427C",
"f c #433A433C4330",
"g c #44514451444E",
"h c #44E045474482",
"j c #45654568456C",
"k c #4662464E4685",
"l c #47074700470A",
"z c #48B74CDA44AF",
"x c #4861486C4861",
"c c #49A849B149D2",
"v c #4A3A4A254A38",
"b c #4B074B044B06",
"n c #4AAB4C09496F",
"m c #4C324C324C40",
"M c #4D7E4D8D4D90",
"N c #4E6C4E634E7D",
"B c #4E8D537049A7",
"V c #4F1A50BE4D96",
"C c #518054994E43",
"Z c #501750265038",
"A c #514D52C94FDD",
"S c #51E75236519E",
"D c #526052605263",
"F c #536A536D536A",
"G c #53E755415269",
"H c #5434548A53DC",
"J c #550155055505",
"K c #56A1562956FA",
"L c #579E571F57DF",
"P c None",
/* pixels */
"PPPPPPPPPPPPPPPPPPPPPPPP",
"PPPP9PPPPPPPPPPPPPPPPPPP",
"PPP0BBCuPPPPPPPPPPPPPPPP",
"PPSeGLJzpJJJJJPPPPPPPPPP",
"PSGrSGJizJJJJJJJJSPPPPPP",
"PjjqVSSytljjxxnSGSSSPPPP",
"PPPO*ww&oPPP@PX#1xSZSPPP",
"PPPP4nxPPPPPNPPPPX3NNNPP",
"PPPPjNNPPPPmNPPPPPP1NxPP",
"PPPPjxxPPPPxxxPPPPPPdNxP",
"PPPPdjxPPPlxxxPPPPPP1jxP",
"PPPP8xjPPPl8=jxPPPPPPjxP",
"PPPP1jjPPdjPP8jPPPPPPdjP",
"PPPP8ddPPddPP,ddPPPPdddP",
"PPPP1ddPddd8d8ddPPPP8d8P",
"PPPP>88>========1PP888PP",
"PPPP>81PPPPPPPPPP8181>PP",
"PPPP>811PPPPPPP11181=PPP",
"P>>1,1111111111111=PPPPP",
"P>>=>>>>=>-=>==%#@PPPPPP",
"PP..$>-@......PPPPPPPPPP",
"PPPPP%%PPPPPPPPPPPPPPPPP",
"PPPPPPPPPPPPPPPPPPPPPPPP",
"PPPPPPPPPPPPPPPPPPPPPPPP"
};
