/* XPM */
static char *gcolor_[] = {
/* columns rows colors chars-per-pixel */
"24 24 44 1",
"  c #180618091809",
". c #1DE11DE41DE0",
"X c #20EE20F520F7",
"o c #222C222A222E",
"O c #242124192424",
"+ c #255F25602561",
"@ c #274A27522752",
"# c #2AEC2AF82AFB",
"$ c #2C4A2C462C40",
"% c #2D472D482D48",
"& c #2DF62DEC2DF4",
"* c #2F3F2F462F42",
"= c #30EF30E730EC",
"- c #31D931DB31DE",
"; c #335B3366336B",
": c #35C335C335C3",
"> c #36D236D236D5",
", c #3827381E381A",
"< c #395C3960395C",
"1 c #3A063A083A06",
"2 c #3B4E3B573B4E",
"3 c #3BB73BAA3BBC",
"4 c #3D413D403D1E",
"5 c #3F013F0E3F02",
"6 c #418A41724175",
"7 c #42494240423B",
"8 c #43FA44164412",
"9 c #450445174519",
"0 c #45EA45E745E6",
"q c #478E47974790",
"w c #488B488D4892",
"e c #4A754A884A7C",
"r c #4B484B5B4B58",
"t c #4BE84BE84BE8",
"y c #4D264D324D28",
"u c #4ECA4EC84ECF",
"i c #505E50615047",
"p c #526452615260",
"a c #53745376536D",
"s c #55C355C055BE",
"d c #56535656563C",
"f c #57B457B45767",
"g c #586758685866",
"h c None",
/* pixels */
"hhhhhhhhhhhhhhhhhhhhhhhh",
"hhhhhhhhhhhgghhhhhhhhhhh",
"hhhhhhhhgsp4<tgghhhhhhhh",
"hhhhhhspe4hhhh=qpshhhhhh",
"hhhhspq>hhhhhhhh%4tphhhh",
"hhtpq=hhhhhhhhhhhh+7pphh",
"hhetethhhhhhhhhhhhhetthh",
"hhe4#7thhhhhhhhhhte4<thh",
"hheehh=ethhhhhhteqhhqehh",
"hhqqhhh+3eehhheq<hhhqehh",
"hhqqhhhhh%7eeq4hhhhh77hh",
"hh7qhhhhhh.<7=hhhhhhqqhh",
"hh47hhhhhhh>7hhhhhhh77hh",
"hh<7hhhhhhh<7hhhhhhh77hh",
"hhh7hhhhhhh>4hhhhhhh4hhh",
"hhh44hhhhhh>4hhhhhh44hhh",
"hhho>4hhhhh><hhhhh4<=hhh",
"hhhh %<hhhh=<hhhh<>hhhhh",
"hhhhhh+><hh=<hh<<;hhhhhh",
"hhhhhhh.%<h=<h>>%hhhhhhh",
"hhhhhhhhh+>=>>=hhhhhhhhh",
"hhhhhhhhhh.==%hhhhhhhhhh",
"hhhhhhhhhhhhohhhhhhhhhhh",
"hhhhhhhhhhhhhhhhhhhhhhhh"
};
