/* XPM */
static char *graveman[] = {
/* columns rows colors chars-per-pixel */
"24 24 46 1",
"  c #16161615160D",
". c #1BF11BEF1BEC",
"X c #1F281F251F38",
"o c #1FE51FE51FDF",
"O c #20A820A8209A",
"+ c #22832281226F",
"@ c #2882287F2870",
"# c #2A3F2A3E2A2C",
"$ c #2C822C832C84",
"% c #2D682D632D5C",
"& c #2F592F552F4D",
"* c #309E3091308E",
"= c #32DF32DE32E6",
"- c #33C933C533B9",
"; c #34D334D034DA",
": c #35D235CA3594",
"> c #36B336AE36A2",
", c #37AE37A63777",
"< c #37E837ED37DE",
"1 c #3917391C3914",
"2 c #39E539E539B5",
"3 c #3A6D3A653A65",
"4 c #3B973B8F3B62",
"5 c #3CE63CE23CA8",
"6 c #3E213E1B3E29",
"7 c #3EFA3EFC3EBC",
"8 c #3FB03FB43F82",
"9 c #4018401B3FE0",
"0 c #4168416B4167",
"q c #42AF42AA42A4",
"w c #433C43484352",
"e c #441144114410",
"r c #462F46304630",
"t c #493E493F4956",
"y c #4A5B4A604A53",
"u c #4B594B4E4B51",
"i c #4C454C434C44",
"p c #4E2C4E2E4E35",
"a c #4FAC4FA84FA6",
"s c #508350835079",
"d c #52F752F952F4",
"f c #53DA53E953E4",
"g c #559B55AD55A5",
"h c #56EE571E56FD",
"j c #582258315837",
"k c None",
/* pixels */
"kkkkkkkkkkkkkkkkkkkkkkkk",
"kkkkkkkkkjjgjjjjkkkkkkkk",
"kkkkkkkggjjjjjjjggkkkkkk",
"kkkkkggggsywwwiggggkkkkk",
"kkkksggaw%kk;ko*eggfkkkk",
"kkkssgi5kkkkskkkk5ssskkk",
"kkkssikkkkkskkkkkk5asskk",
"kkiiiekkkkiikkkkkkkyiikk",
"kkyyykkkkkyiykkkkkk1iikk",
"kkyyekkkkyyyyyykkkkkeyik",
"keyykkkke5yyyyykykkkeyek",
"kwyekkkekk#1eeekkekkeyek",
"k5eekkewkkkk;ewkkwwkwwek",
"kkeekkwwwkkk1wkk8we5wwwk",
"kkwwwk1wwwkk5kkwww1k9w8k",
"kk45wkk555kw1k5585k585kk",
"kk*555k55;158kk;55k555kk",
"kkk;5555*#1545;X<5445kkk",
"kkkk;1111;41111%<111;kkk",
"kkkk+;11111111111<1;kkkk",
"kkkkkX%;11;;;1;1;;%kkkkk",
"kkkkkkko#*;;;;*%#kkkkkkk",
"kkkkkkkkk Xo+oXkkkkkkkkk",
"kkkkkkkkkkkkkkkkkkkkkkkk"
};
