/* XPM */
static char *uextras[] = {
/* columns rows colors chars-per-pixel */
"24 24 35 1",
"  c #1FCF1FD51FE1",
". c #2265225A2262",
"X c #23EF23E823F0",
"o c #26B826BA26C2",
"O c #2B702B5C2B6E",
"+ c #2CF82D082D04",
"@ c #2F1C2F392F1C",
"# c #313A31283147",
"$ c #32393242324C",
"% c #346734563475",
"& c #37F637FB37FA",
"* c #38C038BA38C0",
"= c #39EB39EF3A08",
"- c #3B0A3B083B0F",
"; c #3C963C903C8A",
": c #3E5E3E633E67",
"> c #4048404D405B",
", c #41C541C5419A",
"< c #430043014306",
"1 c #440043FF43DD",
"2 c #44F844FD44E8",
"3 c #460946034631",
"4 c #480D4808480B",
"5 c #49B449AE499C",
"6 c #4A3A4A284A1C",
"7 c #4B9C4B984BA1",
"8 c #4C4B4C104C48",
"9 c #4D844D4D4D87",
"0 c #4F454EFB4F44",
"q c #510450F65103",
"w c #52D152CE52CE",
"e c #54D254D754D2",
"r c #54F054EA54EE",
"t c #568F56965693",
"y c None",
/* pixels */
"yyyyyyyyyyyyyyyyyyyyyyyy",
"yyyyyyyyyyyyyyyyyyyyyyyy",
"yyyyyyyyyyyyyyyyyyyyyyyy",
"yyyyttrryyyyyyytrryyyyyy",
"yyyyrrrryyyyyyyrrryyyyyy",
"yyyywwwwyyyyyyyrwwyyyyyy",
"yyyywwwwyyyyyyyww9yyyyyy",
"yyyy999yyyyyyyy9w9yyyyyy",
"yyyy999yyy9rryy999yyyyyy",
"yyyy6696yyy9try979yyyyyy",
"yyyy6666wwywwwy666yyyyyy",
"yyyy266yy9999yy626yyyyyy",
"yyyy222yyy<997y222yyyyyy",
"yyyy<<22yyy=26y22<yyyyyy",
"yyyy<<<<yyyyy221<<yyyyyy",
"yyyy:::<yyyyy=<2:<yyyyyy",
"yyyyy:::yyyyyy=<<:yyyyyy",
"yyyyy=:::yyyyy#=::yyyyyy",
"yyyyyo%:=::==:=#%::yyyyy",
"yyyyyy #%=====%Oo%=yyyyy",
"yyyyyyyy.oOOOo.yy#%#yyyy",
"yyyyyyyyyyyyyyyyyy@@yyyy",
"yyyyyyyyyyyyyyyyyyyyyyyy",
"yyyyyyyyyyyyyyyyyyyyyyyy"
};
