/* XPM */
static char *baobab[] = {
/* columns rows colors chars-per-pixel */
"22 22 56 1 ",
"  c #09BE09BE09BF",
". c #0B810B810B82",
"X c #0CE60CE60CE7",
"o c #086D07361102",
"O c #100310031003",
"+ c #17C717C717C7",
"@ c #1CBB1CB31D3B",
"# c #1DD81DD61DDE",
"$ c #1EEC1EEC1EED",
"% c #0BB6098926DC",
"& c #1C041AC822D1",
"* c #13CE115829A6",
"= c #1E131C162F0A",
"- c #145313163C6E",
"; c #146013603ED4",
": c #21221F1B2F53",
"> c #206F1DE43B87",
", c #21321EF13C84",
"< c #215821582158",
"1 c #225E225E225E",
"2 c #246024602460",
"3 c #292429242924",
"4 c #3394338E33A9",
"5 c #3332330E33B8",
"6 c #363F362C367E",
"7 c #3747374F3729",
"8 c #357534A63831",
"9 c #372C36863944",
"0 c #378E36263B32",
"q c #37C636F53A04",
"w c #38593858385B",
"e c #391139103915",
"r c #39D239D239D3",
"t c #3B743B743B75",
"y c #3CBA3CBA3CBA",
"u c #3E683E683E68",
"i c #40AA40AA40AB",
"p c #4180417F4180",
"a c #41D641D641D7",
"s c #430A4309430A",
"d c #44B644B644B8",
"f c #45D145D045D2",
"g c #482548254826",
"h c #4AA54AA54AA6",
"j c #4C584C584C58",
"k c #4D1F4D1F4D20",
"l c #4EF44EF44EF4",
"z c #505850585058",
"x c #526652665266",
"c c #548654865486",
"v c #567656765676",
"b c #571357135713",
"n c #584A584A584A",
"m c #5ACE5ACE5ACE",
"M c #5B865B865B86",
"N c None",
/* pixels */
"NNNNNNNNNNNNNNNNNNNNNN",
"NNNNNNNNNNNNNNNNNNNNNN",
"NNNNmmmmmmccccmxxxNNNN",
"NNNmmmmmmccmmcccxxlNNN",
"NNNmmccmmccxxxxxlhlNNN",
"NNNmmcccccxlxllhlhhNNN",
"NNNccccxxllhhhhhfhhNNN",
"NNcxxllllhhhhhfhfffNNN",
"NNclhhhhffffffssssssNN",
"NNllhlfhhffsssusssuuNN",
"NNlllhhfffffssssiuuuNN",
"NNhlhhhfffffusuuuuuuNN",
"NhlhhfffssussuuuueeeeN",
"Nhhfgsfsssuuuue7e9ee7N",
"Nffffsssuuuuueeeqw777N",
"fsfssuuuueueeee7777775",
"ssuuuuueeeeeee779q9095",
"N32111#11#######&=,,:N",
"N+OX       X    o%;-*N",
"NNNNNNNNNNNNNNNNNNNNNN",
"NNNNNNNNNNNNNNNNNNNNNN",
"NNNNNNNNNNNNNNNNNNNNNN"
};
