/* XPM */
static char *bluefish[] = {
/* columns rows colors chars-per-pixel */
"22 22 35 1 ",
"  c #20512052204A",
". c #219621982198",
"X c #25F925F6260F",
"o c #285628532859",
"O c #29A829A529BC",
"+ c #2C3A2C312C63",
"@ c #2E722E6E2E6D",
"# c #30EF30ED310C",
"$ c #323532313238",
"% c #349734933498",
"& c #3622361B3620",
"* c #36D436D336DA",
"= c #37C737CA3805",
"- c #398B398A3992",
"; c #3A1E3A1B3A3A",
": c #3C7A3C7C3C75",
"> c #3CFE3D013CFE",
", c #3FF43FF94000",
"< c #428C42904299",
"1 c #4320431B4321",
"2 c #446844674468",
"3 c #450A450C450A",
"4 c #465346574651",
"5 c #47C747CC47C2",
"6 c #48A048A248A0",
"7 c #49F449F349F8",
"8 c #4CC74CCA4CC9",
"9 c #4DE14DDE4DEA",
"0 c #4F824F824F81",
"q c #502550245024",
"w c #52905290528A",
"e c #53BF53C753C7",
"r c #5589558A558D",
"t c #56DE56DC56D7",
"y c None",
/* pixels */
"yyyyyyyyyyyyyyyyyyyyyy",
"yyyyyyyyyyyyyyyyyyyyyy",
"yyyyyyyyyyyyyyyyyyyyyy",
"yyyyyyyyyyyyyyyyyyyyyy",
"yyyyyyyyyyyyyrrttyyyyy",
"yyyyyyyyyrrrrrrrrryyyy",
"yyyyyyyqqreqqqrqqqyyyy",
"yyyyyy0qqqqqqqqqqqyyyy",
"yyyyy000000000060yyyyy",
"yyyyy666666626666y666y",
"yyyy66666666666626622y",
"yy1>2222222222222222yy",
"yyy.%121111111111;;>1y",
"yyyyy@;>>1>,1>1>;OO;>y",
"yyyyyyO$;>>>>>;>>yyyyy",
"yyyyyyyyO;%%;;;;;yyyyy",
"yyyyyyyyy@$O@%%%;yyyyy",
"yyyyyyyyyyXOOO$%$yyyyy",
"yyyyyyyyyyyyyy..yyyyyy",
"yyyyyyyyyyyyyyyyyyyyyy",
"yyyyyyyyyyyyyyyyyyyyyy",
"yyyyyyyyyyyyyyyyyyyyyy"
};
