/* XPM */
static char *browser[] = {
/* columns rows colors chars-per-pixel */
"22 22 41 1 ",
"  c #190D1910190E",
". c #1C301C371C2F",
"X c #1E251E2B1E25",
"o c #208F208E208C",
"O c #230422FA22FD",
"+ c #241B24182415",
"@ c #273E2743273D",
"# c #28CC28C928C4",
"$ c #2A5F2A572A59",
"% c #2B272B202B20",
"& c #2DB52DB52DB3",
"* c #30FA30FC30F5",
"= c #31DB31DA31D5",
"- c #34FA350034F8",
"; c #36C536BC36B8",
": c #3823382C382A",
"> c #393839453941",
", c #3A993AA73AA8",
"< c #3C823C683C6A",
"1 c #3D133CEF3CF0",
"2 c #3DF03DE03DE1",
"3 c #3EF63EDF3EDF",
"4 c #403740324031",
"5 c #40F040E840EE",
"6 c #428A42834283",
"7 c #4470446D4468",
"8 c #4669464A4645",
"9 c #47E247D947D8",
"0 c #497E4972496C",
"q c #4A554A4C4A4C",
"w c #4B574B574B56",
"e c #4BFC4BFC4BFC",
"r c #4D304D2A4D28",
"t c #4E744E734E73",
"y c #4F1B4F1D4F19",
"u c #50E650E450E5",
"i c #527752705274",
"p c #5400540053FD",
"a c #565F565C565D",
"s c #56E356D556DE",
"d c None",
/* pixels */
"dddddddddddddddddddddd",
"ddddddddddaaaadddddddd",
"dddddddwrdddiairdddddd",
"ddddddd2wddrra7ddddddd",
"dddddrr6wiarw7dddddddd",
"ddddddd,7iiirddddddddd",
"dddddddwrrrrrddddddddd",
"ddddddrwwrwwrd69dddddd",
"ddddwwwwrww7ddddddddwd",
"ddd277wwwwwwddddddd77d",
"d76*,2677797ddddddd79d",
"dd72-OO,6777dddddd777d",
"dd666dd$-266666ddd666d",
"dd666dddX-26666ddd266d",
"dd,22dddd,22222dd222dd",
"dd-,2dddd222222dd,,2dd",
"ddd-,,ddd,,,,,,dd,,ddd",
"dddd$,dd,,,-,,,,,-,ddd",
"ddddX$*---,-*:--**dddd",
"dddddd+$*--*-*&&dddddd",
"dddddddd XXOOXdddddddd",
"dddddddddddddddddddddd"
};
