/* XPM */
static char *cmake[] = {
/* columns rows colors chars-per-pixel */
"22 22 25 1 ",
"  c #160616071607",
". c #2F9D2F9E2F9F",
"X c #30C730C830C6",
"o c #358E358E358C",
"O c #364C364B364A",
"+ c #37D337D237CD",
"@ c #397E397F3979",
"# c #3A3F3A393A2D",
"$ c #3BD83BCC3BCB",
"% c #3E333E303E2A",
"& c #3F793F783F6A",
"* c #405F405E4030",
"= c #427742734253",
"- c #444C4446443B",
"; c #4662465E464D",
": c #478747874789",
"> c #486D486E487C",
", c #4A6E4A6E4A7A",
"< c #4C4D4C4D4C4E",
"1 c #4EA44EA44EA4",
"2 c #509450935093",
"3 c #53CC53CA53CA",
"4 c #5530552E552E",
"5 c #56A356A356A3",
"6 c None",
/* pixels */
"6666666666666666666666",
"6666666666666666666666",
"6666666666446666666666",
"6666666666446666666666",
"6666666662244666666666",
"6666666662222666666666",
"666666662<<22<66666666",
"66666666<2<<<<66666666",
"6666666:,,,,,,<6666666",
"6666666::,::::,6666666",
"666666::::::::::666666",
"666666=:=:=+%=:=666666",
"66666=====%6%====66666",
"66666%=%=+66&==%=66666",
"6666%%%%6666%%%%%%6666",
"6666$$$$$666+$%+%%6666",
"666++%+++%+++++%+$+666",
"666++++++++++++++++666",
"66oooo++ooo++ooooooo66",
"66....XX....XXXXXXXX66",
"666 666666666666666666",
"6666666666666666666666"
};
