/* XPM */
static char *control_center2[] = {
/* columns rows colors chars-per-pixel */
"22 22 31 1 ",
"  c #1EC21ECA1EC6",
". c #21CF21D521D6",
"X c #237723842381",
"o c #251C25222522",
"O c #2D742D6A2D68",
"+ c #2EDF2EE12EE0",
"@ c #316631643169",
"# c #3222321F3223",
"$ c #342F342A342C",
"% c #35853587358C",
"& c #36AE36B136AA",
"* c #394839433948",
"= c #3A7A3A773A79",
"- c #3B7C3B703B7B",
"; c #3C4A3C4A3C48",
": c #3E493E473E4D",
"> c #3F733F733F72",
", c #40AB40AD40B1",
"< c #43384337433C",
"1 c #44F344F644F0",
"2 c #46974698469D",
"3 c #4828481B4823",
"4 c #4B1E4B184B1F",
"5 c #4C1D4C1A4C28",
"6 c #4CF64CF54CF4",
"7 c #4F6B4F6A4F88",
"8 c #506D506D5075",
"9 c #5198519B51A8",
"0 c #51E651E851F4",
"q c #538B538E5387",
"w c None",
/* pixels */
"wwwwwwwwwwwwwwwwwwwwww",
"wwwwwwwwwwwwwwwwwwwwww",
"wwwwwwwwwwwwwwwwwwwwww",
"wwwwwwwwwwwwwwwwwwwwww",
"wwwwqqwwwwqqwwwwqqwwww",
"wwwwqqwww6qqqwwwqqwwww",
"wwww6qwwq2,>26wwq6wwww",
"wwww66ww4www#46w66wwww",
"wwww44ww4664244w65wwww",
"wwww24ww#*24>$ww24wwww",
"www222www$22,www22wwww",
"ww2,$$>2ww2,2www22wwww",
"ww,*ww>>ww,,>ww,,>,www",
"ww*>,>>>ww,>>w,*##$>ww",
"ww+$>>*www>>>w*>ww#>ww",
"wwww*>www$>*>w$*>>**ww",
"wwww>*www$***ww+$>$www",
"wwww$*wwww***www$*wwww",
"wwwwoowwww .wwww.owwww",
"wwwwwwwwwwwwwwwwwwwwww",
"wwwwwwwwwwwwwwwwwwwwww",
"wwwwwwwwwwwwwwwwwwwwww"
};
