/* XPM */
static char *DC__[] = {
/* columns rows colors chars-per-pixel */
"22 22 36 1 ",
"  c #22E522F422E5",
". c #24BB24C824B9",
"X c #2A282A2F2A22",
"o c #2C542C592C52",
"O c #2D852D822D7B",
"+ c #2EA52EAF2EAA",
"@ c #31513152314B",
"# c #31CC31D031CE",
"$ c #335633593355",
"% c #34DA34D734D8",
"& c #35DC35D835DA",
"* c #36D036CE36CD",
"= c #38AC38A838A8",
"- c #39CA39C439CB",
"; c #3B383B373B3F",
": c #3BD83BD43BDB",
"> c #3CF13CED3CF4",
", c #3DDB3DDA3DDC",
"< c #3F6E3F6D3F6E",
"1 c #413641374137",
"2 c #41D641D841DD",
"3 c #43FD43FA43F8",
"4 c #45F645F545F6",
"5 c #479847964795",
"6 c #48EF48F148F4",
"7 c #4B424B424B3D",
"8 c #4CD24CD34CD8",
"9 c #4E234E214E1F",
"0 c #4EEE4EED4EEF",
"q c #504D50495043",
"w c #52A352A652A2",
"e c #531C5321531F",
"r c #53E753ED53ED",
"t c #565C565D565E",
"y c #5772576A5772",
"u c None",
/* pixels */
"uuuuuuuuuuuuuuuuuuuuuu",
"uuuuuuuuytytyyuuuuuuuu",
"uuuuuuttttttyyttuuuuuu",
"uuuuut8878qttqtqtquuuu",
"uuuuqq7-#-28qqtqqtquuu",
"uuuqq8uuuuu2884478quuu",
"uuu88uuuuuuu4:***:88uu",
"uu788uuuuuuu*$###*:8uu",
"uu777uuuuuuu###**#-4uu",
"uu477uuuuuu*#*####*47u",
"uu4444uuuuu###*#*#-24u",
"uu44444uuuuu #*#$#-24u",
"uu2442uuuuuuuX###*22uu",
"uu:222uuuuuuu#**-:22uu",
"uu-22:uuuuuuu2:2222:uu",
"uuu*2::uuuuuu::::::uuu",
"uuu+*-::uuuu-:-::--uuu",
"uuuu+*------------uuuu",
"uuuuu.+*-*----*##uuuuu",
"uuuuuuu.X+###XXuuuuuuu",
"uuuuuuuuuuuuuuuuuuuuuu",
"uuuuuuuuuuuuuuuuuuuuuu"
};
