/* XPM */
static char *dia_menu[] = {
/* columns rows colors chars-per-pixel */
"22 22 62 1 ",
"  c #20392039203B",
". c #21EB21E921EB",
"X c #257425742572",
"o c #2C682C8C2C38",
"O c #2E2C2E222E24",
"+ c #2F452F6C2F15",
"@ c #2C82331C264E",
"# c #2E46341E28AC",
"$ c #33643B262C10",
"% c #318331873187",
"& c #31D131CE31BB",
"* c #33F533F133E0",
"= c #360B360C35FB",
"- c #377A37793772",
"; c #39893D9D35AC",
": c #399A3F2D3453",
"> c #383638363831",
", c #3B113B0F3B15",
"< c #3A3F3BFF389A",
"1 c #3C8E3C8D3C8E",
"2 c #3D4D3D503D4F",
"3 c #3F0B3F463EC4",
"4 c #38BE48F42950",
"5 c #3D14433C3737",
"6 c #3D1441353937",
"7 c #3FEC4B243523",
"8 c #439B4A403D35",
"9 c #43B248843F0A",
"0 c #446D4C1B3D01",
"q c #45664BD13F35",
"w c #414241474161",
"e c #422C422A4235",
"r c #42FE46713FC8",
"t c #449744964498",
"y c #450A450B450E",
"u c #464846364668",
"i c #46CE4726468C",
"p c #447748AA4089",
"a c #46B64A24437B",
"s c #49614F994346",
"d c #493C4BEB46A5",
"f c #4A474DBE46F1",
"g c #48BD48BE48BE",
"h c #49EE4A564970",
"j c #4A814A724A7F",
"k c #4B604B614B67",
"l c #4C724C884C7A",
"z c #4D5F4D4C4D75",
"x c #4C4E4FFD48AE",
"c c #4D5E50B54A21",
"v c #50D1546C4D24",
"b c #502750375047",
"n c #52C253005285",
"m c #52E853865252",
"M c #5293552E4FD4",
"N c #52A153DE5162",
"B c #544754A653E3",
"V c #553455A454A2",
"C c #551154BF5561",
"Z c #55E955C4560F",
"A c #578256EA57EE",
"S c None",
/* pixels */
"SSSSSSSSSSSSSSSSSSSSSS",
"SSSS4SSSSSSSSSSSSSSSSS",
"SSS7vMsSSSSSSSSSSSSSSS",
"SSc0CAc0MCCCASSSSSSSSS",
"Szd8mCd9hmzbmmBBmSSSSS",
"SS;$aa5#,Sw=w=3hbmmSSS",
"SSS@5r;SSSS,SSS%,hmzSS",
"SSSSukSSSSzzSSSSSwuzSS",
"SSSSuhSSSShhhSSSSSwghS",
"SSSSuhSSSuuuhSSSSS3uhS",
"SSSSwuSSSu3,uuSSSSSwuS",
"SSSSwuSSutSS3uSSSSSuuS",
"SSSS3wSSwwSS,wwSSSwwwS",
"SSSS,w333333133SSS3w3S",
"SSSS,3,=+%%%%%%,S333SS",
"SSSS,,,SSSSSSSS,,3==SS",
"SSS,,3=,SSSSS,3,=>SSSS",
"S==,==-->>>>==%OOSSSSS",
"SS X%=O    . SSSSSSSSS",
"SSSS#%OSSSSSSSSSSSSSSS",
"SSSSSSSSSSSSSSSSSSSSSS",
"SSSSSSSSSSSSSSSSSSSSSS"
};
