/* XPM */
static char *evince[] = {
/* columns rows colors chars-per-pixel */
"22 22 35 1 ",
"  c #1D001D031CFD",
". c #244824482446",
"X c #24FC24F824F4",
"o c #2B0D2B092B08",
"O c #2D0A2D082D06",
"+ c #2E892E862E89",
"@ c #301A30173011",
"# c #32BC32BB32B9",
"$ c #33E133E033E1",
"% c #34E934E834EA",
"& c #37FA37F737F9",
"* c #391C3914391C",
"= c #39D039CA39D3",
"- c #3AF13AF13AF1",
"; c #3BF53BEE3BF5",
": c #3D8A3D843D89",
"> c #3E4F3E483E4C",
", c #3F213F1E3F26",
"< c #40B740BC40C8",
"1 c #428C428B4293",
"2 c #44664472447D",
"3 c #45B245BB45BE",
"4 c #47644755474E",
"5 c #48A048A248A6",
"6 c #4A2C4A314A31",
"7 c #4BC14BC34BB5",
"8 c #4E084E0E4E0C",
"9 c #5007500C5009",
"0 c #50F650F450EE",
"q c #5276527E527C",
"w c #53965392538F",
"e c #55CE55CE55C7",
"r c #56FD56FA56F9",
"t c #584B58495848",
"y c None",
/* pixels */
"yyyyyyyyyyyyyyyyyyyyyy",
"yyyyyytteyyyyyyyyyyyyy",
"yyyyyye69yyyyyyyyyyyyy",
"yyyyyy968eyyyyyyyyyyyy",
"yyyyyy6999yyyyyyyyyyyy",
"yyyyyyy699yyyyyyyyyyyy",
"yyyyyyy188yyyyyyyyyyyy",
"yyyyyyy2668yyyyyyyyyyy",
"yyyyyyy62>26yyyyyyyyyy",
"yyyyyyy21y>22yyyyyyyyy",
"yyyyyyy21yy-12yyyyyyyy",
"yyyyyy>1yyyy-12yyyyyyy",
"yyyyyy1>yyyyy%11>>yyyy",
"yyyyyy>-yyy>--&->---yy",
"yyyyyy----%@%@oO%-O%-y",
"yyyyy%-%@OX yyyyXO@@-y",
"yyy&&-%yyyyyyyyyyyyyyy",
"yy%@@@yyyyyyyyyyyyyyyy",
"yy@O@@yyyyyyyyyyyyyyyy",
"yyoOOyyyyyyyyyyyyyyyyy",
"yyyyyyyyyyyyyyyyyyyyyy",
"yyyyyyyyyyyyyyyyyyyyyy"
};
