/* XPM */
static char *gbrainy[] = {
/* columns rows colors chars-per-pixel */
"22 22 32 1 ",
"  c #22B222BC22BB",
". c #25AB25B625B4",
"X c #27772781277E",
"o c #280C281C2819",
"O c #2CD12CE02CDE",
"+ c #2ECD2ECB2ECD",
"@ c #316E316E3175",
"# c #330333043305",
"$ c #343C343E3441",
"% c #35FA35FD3604",
"& c #37183717371A",
"* c #397739733977",
"= c #3AB43AB23AB6",
"- c #3B653B633B66",
"; c #3DF83DEE3DF2",
": c #3F753F753F74",
"> c #40E340CE40D4",
", c #41E641E941E8",
"< c #444744434443",
"1 c #4518451A4518",
"2 c #472647254725",
"3 c #487C487F487C",
"4 c #4AA04AA44AA0",
"5 c #4C834C7C4C7C",
"6 c #4E024DF94DFF",
"7 c #505650585057",
"8 c #521452145213",
"9 c #53CC53D053CE",
"0 c #5576556E5574",
"q c #575B57375767",
"w c #592558F15922",
"e c None",
/* pixels */
"eeeeeeeeeeeeeeeeeeeeee",
"eewwwwwwwwwqwwwwwqwwee",
"eqqqqqqqwqqqqqqqqqqqqe",
"e7qqq774>13>446qqq7q7e",
"e67q761# +--e+->6q7q7e",
"e6764eeeeee6eeee-4777e",
"e674eeeeee4eeeeee$177e",
"e46eeeeee4eeee645e166e",
"e46eeeeeeeee1-11e1-14e",
"e11eeeee>1>>eee>eee14e",
"e14eeeee-eeeeeeeeee>1e",
"e>11ee>:eeeeeeee>ee11e",
"e>1>>1>eeeeeeee>>->>>e",
"e>>>>>>eeeeeeee-ee->>e",
"e->>>>->eeeee-eeee->>e",
"e---->-->--$#eeeee---e",
"e----------#e-eee----e",
"e------$$---ee$-----$e",
"e$-$$-$$$-$-$##$$-$-$e",
"e+$$$$$--$$$$-$$$$$$$e",
"eeXoooooooXoooooooooee",
"eeeeeeeeeeeeeeeeeeeeee"
};
