/* XPM */
static char *gcolor2[] = {
/* columns rows colors chars-per-pixel */
"22 22 29 1 ",
"  c #235423542352",
". c #264E2650264F",
"X c #2D582D592D5B",
"o c #2EB22EB02EAA",
"O c #30002FFF3002",
"+ c #31E331E631DE",
"@ c #340E34113413",
"# c #362D36313632",
"$ c #389138963895",
"% c #3A493A463A42",
"& c #3B793B783B7A",
"* c #3DCE3DD03DCC",
"= c #3F723F673F67",
"- c #40A840A540A1",
"; c #41C141CC41C8",
": c #42A342A2429E",
"> c #43D443D543CB",
", c #4533453C453A",
"< c #479047954794",
"1 c #48244829482A",
"2 c #49AF49AE49AA",
"3 c #4ABA4AC54ABA",
"4 c #4B984B9A4B92",
"5 c #4E484E4A4E4A",
"6 c #4F8E4F8A4F7E",
"7 c #50BC50BE509B",
"8 c #533853395327",
"9 c #54A354A85473",
"0 c None",
/* pixels */
"0000000000000000000000",
"0000000000970000000000",
"0000000975:&5770000000",
"00000751:0000#,1700000",
"00071,=00000000+&,5000",
"0055,000000000000&5500",
"001==100000000005,:500",
"001:0=:100000011,0:100",
"00,500o&150001:=001,00",
"001,0000#=1,,:0000,,00",
"00:,00000 &:#00000,:00",
"00=:000000#=000000::00",
"00=:000000#=000000::00",
"000:000000#=000000=000",
"000#=00000#=00000&&000",
"000 o&0000+&0000&&+000",
"00000o#000+&000&#00000",
"000000.o#0+#0##+000000",
"00000000o++###00000000",
"000000000.++o000000000",
"00000000000 0000000000",
"0000000000000000000000"
};
