/* XPM */
static char *geany[] = {
/* columns rows colors chars-per-pixel */
"22 22 30 1 ",
"  c #1CA01CB51CB0",
". c #233023382335",
"X c #261426372624",
"o c #28EA28EA28E1",
"O c #2AC22AD62ACC",
"+ c #2BFD2C162C0B",
"@ c #2CEF2CFB2CEA",
"# c #2F3B2F452F3A",
"$ c #308C309D309D",
"% c #32DC32E032E1",
"& c #33ED33EA33E8",
"* c #355B356E356B",
"= c #371A371B3712",
"- c #38393838383A",
"; c #397E397E397E",
": c #3B1B3B193B14",
"> c #3E203E153E11",
", c #3FF83FF23FF4",
"< c #414141394138",
"1 c #423042284229",
"2 c #444C444C4444",
"3 c #459145A94597",
"4 c #489648884898",
"5 c #4A144A164A0C",
"6 c #4C5B4C524C57",
"7 c #4E524E644E54",
"8 c #4FA04FA74F9A",
"9 c #52C352CE52C4",
"0 c #544D5451544E",
"q c None",
/* pixels */
"qqqqqqqqqqqqqqqqqqqqqq",
"qqqqqqqqqqqqqqqqqqqqqq",
"qqqqqqqqqqqqqqq700qqqq",
"qqqqqqqqqqqq9443qqqqqq",
"qqqqqqqqqqq73qqqqqqqqq",
"qqqqqqqqqq7qqqqqqqqqqq",
"qqqqqqqqq4qqq44qqqqqqq",
"qqqqqqq4qqq743qqqqqqqq",
"qqqqqq<3q43<qqqqqqqqqq",
"qqqqq3<<;;qqqqqqqqqqqq",
"qq<<:qqqqqqqqqqqqqqqqq",
"q<:qqqqqqqqqqqqqqqqqqq",
"q:qqqqqqqqqqqqqqqqqqqq",
"qqqqqqqqqqqqqqqqqqqqqq",
"qqqqqqqqq;;:qqqqq**;qq",
"qq;;qqqqq*;;qqq;:@X$qq",
"qqq**qqq;*:;;;;*qqq*qq",
"qqqq$**;;*;*;-**qqqqqq",
"qqqqqo$*******$qqqqqqq",
"qqqqqq .o@@@@oqqqqqqqq",
"qqqqqqqqqqqqqqqqqqqqqq",
"qqqqqqqqqqqqqqqqqqqqqq"
};
