/* XPM */
static char *gnome_activity_journal[] = {
/* columns rows colors chars-per-pixel */
"22 22 21 1 ",
"  c #2F6E2F7E2F70",
". c #311131143110",
"X c #34C834CC34CE",
"o c #368336853678",
"O c #395B3960395E",
"+ c #3A543A563A57",
"@ c #3CA13CA03C9F",
"# c #3E7D3E7C3E7D",
"$ c #40F540F240EF",
"% c #4322431A4326",
"& c #45734575456F",
"* c #471D471D4717",
"= c #490E49104906",
"- c #4B554B5B4B5D",
"; c #4DB34DB34DBF",
": c #4FC64FC44FC4",
"> c #509B508E5097",
", c #52B452B152AE",
"< c #53FC53F653FD",
"1 c #566C5665566F",
"2 c None",
/* pixels */
"2222222222222222222222",
"2222222222222222222222",
"2222222222222222222222",
"2222222222222222222222",
"2222222222222222222222",
"22222222<>:>:->2222222",
"2222222<<>2222::222222",
"222222>>2222$222:22222",
"22222:::222-*222-:2222",
"22222*--222--222-:2222",
"22222--*2222#222*22222",
"22222***2222#22**22222",
"22222#$$*222222$$22222",
"222222#$##$22#$$222222",
"222222###O#####2222222",
"222222O#OOOOOO22222222",
"22222ooOOoooo222222222",
"22222  ....22222222222",
"2222222222222222222222",
"2222222222222222222222",
"2222222222222222222222",
"2222222222222222222222"
};
