/* XPM */
static char *google_earth[] = {
/* columns rows colors chars-per-pixel */
"22 22 35 1 ",
"  c #20DE20DE20DD",
". c #252425202521",
"X c #279627982798",
"o c #282E28332830",
"O c #297D297B297C",
"+ c #2C9C2C9D2C9E",
"@ c #2E892E8A2E78",
"# c #2F672F662F6C",
"$ c #315B315C315A",
"% c #32463244324A",
"& c #346334623466",
"* c #356535663565",
"= c #36EE36E936EF",
"- c #37F637F437F9",
"; c #39BB39B839B7",
": c #3B263B253B21",
"> c #3CAD3CAA3CAC",
", c #3DC23DC23DC1",
"< c #3F803F7B3F7C",
"1 c #410140FF40FD",
"2 c #41E941EB41E8",
"3 c #435E435D435E",
"4 c #4430442C4430",
"5 c #454745494545",
"6 c #47CF47CC47C9",
"7 c #48DC48E248D7",
"8 c #4B504B4F4B4B",
"9 c #4DDE4DDC4DE5",
"0 c #4ECA4ECB4EE4",
"q c #50325032503C",
"w c #522152225216",
"e c #53D553D853D0",
"r c #55DA55D555D6",
"t c #57E857E657E6",
"y c None",
/* pixels */
"yyyyyyyyyyyyyyyyyyyyyy",
"yyyyyyyyyyyyyyyyyyyyyy",
"yyyyyyyytttyyyyyyyyyyy",
"yyyyyy759wrrryyyyyyyyy",
"yyyyyyyo&:9wrweyyyyyyy",
"yyyyyyyyyy,7wwwwyyyyyy",
"yyyy99yyyyyy5w9wwyyyyy",
"yyy99999yyyyy1999yyyyy",
"yy89797979yyyy,997yyyy",
"yy779797977yyyy&7777yy",
"yy77777767777yyy%177yy",
"yy575557557575yyy%&5yy",
"yy15155555555555yyyyyy",
"yy,,,1511151111111yyyy",
"yy%Xo%&,11111111111yyy",
"yyyyyy %%-:,1,1,,,,yyy",
"yyyyyyyyyy%o++%%++yyyy",
"yyyyyyyyyyyyyyyyyyyyyy",
"yyyyyyy&::::,:&yyyyyyy",
"yyyyyyyXo+%%+++yyyyyyy",
"yyyyyyyyyyyyyyyyyyyyyy",
"yyyyyyyyyyyyyyyyyyyyyy"
};
