/* XPM */
static char *graveman[] = {
/* columns rows colors chars-per-pixel */
"22 22 37 1 ",
"  c #1C391C381C32",
". c #214B21492145",
"X c #2404240323FA",
"o c #25A2259E259F",
"O c #2A8A2A882A7E",
"+ c #2D032CFF2CF2",
"@ c #2F382F322F20",
"# c #30A2309E3099",
"$ c #333533313328",
"% c #3622361C3603",
"& c #36BA36BA369B",
"* c #380C380F3800",
"= c #390E390E3900",
"- c #3A4C3A4B3A30",
"; c #3B0A3B023AEF",
": c #3C953C8E3C52",
"> c #3D313D2E3D0A",
", c #3E8E3E8E3E64",
"< c #3F8C3F8F3F6B",
"1 c #40B340B4409C",
"2 c #41D241D141D0",
"3 c #4328432C4331",
"4 c #462C462C462C",
"5 c #476E476D4776",
"6 c #47E947EB47ED",
"7 c #495C495E496A",
"8 c #4A4E4A524A47",
"9 c #4C0B4C084C0A",
"0 c #4D324D324D35",
"q c #4F234F234F25",
"w c #5041503F5037",
"e c #52BA52C652C7",
"r c #537B5383537E",
"t c #552055305526",
"y c #57BA57E157CD",
"u c #582F58435844",
"i c None",
/* pixels */
"iiiiiiiiiiiiiiiiiiiiii",
"iiiiiiiiuuuuuuuiiiiiii",
"iiiiiiututeeettttiiiii",
"iiiittee443>338tteiiii",
"iiieee83#ii3i.&80eeiii",
"iiiee0iiiiiiiiii30e0ii",
"ii008iiiii0iiiiii600ii",
"ii088iiii008iiiii>80ii",
"ii884iii888888iiii488i",
"i488iii4348886iiii384i",
"i344ii4ii@-444ii4i344i",
"i344ii3iiii&33ii3i334i",
"ii33i3>3iii->ii433>33i",
"ii>33i>33ii>ii>3>i3<>i",
"ii->3i>>>i<>i>>>i>3>ii",
"ii&->>>-#&>>i#@>->:>ii",
"iii&--:&#----#O*---iii",
"iiii@---&----&&---&iii",
"iiii.O#--*&&-&-&##iiii",
"iiiiiioO##&&#&@Oiiiiii",
"iiiiiiii .oo..iiiiiiii",
"iiiiiiiiiiiiiiiiiiiiii"
};
