/* XPM */
static char *kommander[] = {
/* columns rows colors chars-per-pixel */
"22 22 31 1 ",
"  c #211C211B211E",
". c #21F121EF21E7",
"X c #231A2318231C",
"o c #256225582561",
"O c #270E26F4270E",
"+ c #29F529F829F2",
"@ c #2BED2BF22BEF",
"# c #2F032F062F03",
"$ c #30A03093309B",
"% c #31BC31C031BD",
"& c #343634403433",
"* c #35783584357E",
"= c #370337073704",
"- c #390F39143910",
"; c #39D439D839D2",
": c #3C8A3C903C8C",
"> c #3DD13DD63DD3",
", c #3EC83ECC3EC7",
"< c #415D415C415F",
"1 c #41D841D641D8",
"2 c #445C445D445E",
"3 c #4512450C450F",
"4 c #484E484F4852",
"5 c #4B384B364B37",
"6 c #4C454C2E4C3D",
"7 c #4D034CF74CFF",
"8 c #5037502D5032",
"9 c #51CA51C251C6",
"0 c #53E853E853E2",
"q c #581458155816",
"w c None",
/* pixels */
"wwwwwwwwwwwwwwwwwwwwww",
"wwwwwwwwwwwwwwwwwwwwww",
"wwwwwwwwwwwqwwwwwwwwww",
"wwwwwwwwwwqqqwwwwwwwww",
"wwwwwwwww0008wwwwwwwww",
"wwwww888088880888wwwww",
"wwwww488888888887wwwww",
"wwwww47773&&<7777wwwww",
"wwwww4743wwww;474wwwww",
"www44444wwwwww34444www",
"www33333wwwwww<3333www",
"www;>3<3wwwwww<33<<www",
"wwww+><<<wwwww<<>&wwww",
"wwwww;>>>>ww>>>>>wwwww",
"wwwww>;>>>;>>>>>>wwwww",
"wwwww;;;;;;;;&;;;wwwww",
"wwwww##.O%&;&#.O#wwwww",
"wwwwwwwww.%&%wwwwwwwww",
"wwwwwwwwwwO+wwwwwwwwww",
"wwwwwwwwwwwwwwwwwwwwww",
"wwwwwwwwwwwwwwwwwwwwww",
"wwwwwwwwwwwwwwwwwwwwww"
};
