/* XPM */
static char *opera[] = {
/* columns rows colors chars-per-pixel */
"22 22 32 1 ",
"  c #189B18AF18AE",
". c #1990199E199D",
"X c #2168216F2174",
"o c #2804280F2814",
"O c #2B122B262B28",
"+ c #2CD92CE12CE4",
"@ c #2F582F5E2F61",
"# c #30CE30D930E0",
"$ c #31D131CC31CA",
"% c #336933683360",
"& c #3658362C362E",
"* c #3816380E3810",
"= c #3B343B383B37",
"- c #3D753D7A3D7A",
"; c #3F8C3F903F8B",
": c #41174116411B",
"> c #41FB41F841F7",
", c #447744894481",
"< c #457645724579",
"1 c #46E446D646EC",
"2 c #48FC48FE4926",
"3 c #4B044B0C4B17",
"4 c #4C464C5C4C64",
"5 c #4E0F4E244E26",
"6 c #50175029503C",
"7 c #5280527652AE",
"8 c #535B534A5380",
"9 c #548E54915497",
"0 c #555555515559",
"q c #57125707570D",
"w c #580557FE5804",
"e c None",
/* pixels */
"eeeeeeeeeeeeeeeeeeeeee",
"eeeeeeeeeeeeeeeeeeeeee",
"eeeeeeeeeeeeeeeeeeeeee",
"eeeeeee9ww769wweeeeeee",
"eeeeee9994>=>999eeeeee",
"eeeee7777<ee#3997eeeee",
"eeeee7774eeee<747eeeee",
"eeee4444eeeeee6444eeee",
"eeee3344eeeeee4433eeee",
"eeee<333eeeeee3334eeee",
"eeee<<<<eeeeee<<<<eeee",
"eeee><<>eeeeee<<<<eeee",
"eeee>>>>eeeeee>>>>eeee",
"eeee=>;>eeeeee;>;;eeee",
"eeee&;;;;eeeee;;;;eeee",
"eeeee&===eeee====eeeee",
"eeeee#=*&=ee&==&&eeeee",
"eeeeee+#&=&&&&&&eeeeee",
"eeeeeeeXo###+ooeeeeeee",
"eeeeeeeeee..eeeeeeeeee",
"eeeeeeeeeeeeeeeeeeeeee",
"eeeeeeeeeeeeeeeeeeeeee"
};
