/* XPM */
static char *picasa[] = {
/* columns rows colors chars-per-pixel */
"22 22 35 1 ",
"  c #1C521C381C38",
". c #1CE91CD41CD4",
"X c #208F20982086",
"o c #25DA25DC25D1",
"O c #2A982A782A83",
"+ c #2BF82BF82BEF",
"@ c #2D182D0C2D13",
"# c #2E632E442E4F",
"$ c #30AC3089308F",
"% c #314F31443148",
"& c #34EF34E634E6",
"* c #366D3655366D",
"= c #37E537D837E0",
"- c #390538FE3905",
"; c #39DD39D139E0",
": c #3B303B2C3B38",
"> c #3D963D8E3D9D",
", c #3FC53FAA3FBC",
"< c #401B400D4019",
"1 c #427042704276",
"2 c #431D431C4320",
"3 c #44654462445F",
"4 c #463446304636",
"5 c #4766476F476A",
"6 c #48F248F348F1",
"7 c #4B1E4B1D4B18",
"8 c #4BEC4BEE4BEC",
"9 c #4D024D034CFE",
"0 c #4EB74EB54EBF",
"q c #513951345142",
"w c #52C452C652C0",
"e c #536D5372536B",
"r c #55A055A655A1",
"t c #57FA57FA57FA",
"y c None",
/* pixels */
"yyyyyyyyyyyyyyyyyyyyyy",
"yyyyyyyyyttttyyyyyyyyy",
"yyyyyyyy7etrtrtyyyyyyy",
"yyyyeere$>errrryeyyyyy",
"yyyyreeer#;9eeey9eyyyy",
"yyy9ee0ee9y37eey9eeyyy",
"yy99999977yy<39y9999yy",
"yy997997yyyyy<3y9999yy",
"yy77993yyyyyyyyy3878yy",
"yy373<>yyyyyyyyy3773yy",
"yy373yyyyyyyyyyy3737yy",
"yy3<yyyyyyyyyyyy<333yy",
"yy>y<3yyyyyyyyyy><<<yy",
"yyyy<<yyyyyyyyyy;;*>yy",
"yy:><>yyyyyyyyyyyoXyyy",
"yy*;;>yy;:;>;>;y;;;yyy",
"yyy*;;y;;>;;;;;;;;;yyy",
"yyyyO*y;*;*;==;;**yyyy",
"yyyyyyy********$$yyyyy",
"yyyyyyyO#$$$$#+yyyyyyy",
"yyyyyyyyy....yyyyyyyyy",
"yyyyyyyyyyyyyyyyyyyyyy"
};
