/* XPM */
static char *python[] = {
/* columns rows colors chars-per-pixel */
"22 22 34 1 ",
"  c #2D962D952D9A",
". c #305730543059",
"X c #314431403141",
"o c #322A3223321F",
"O c #32BF32BE32B8",
"+ c #33BA33C433C1",
"@ c #34E934F034E7",
"# c #36AA36A83696",
"$ c #383238273824",
"% c #3B283B0F3B14",
"& c #3BD83BC43BC0",
"* c #3D093D003D08",
"= c #3E9D3E9B3EB3",
"- c #3F793F773F92",
"; c #2A6343894CC0",
": c #334445034BE8",
"> c #3193497A5245",
", c #3FE83FDE3FE8",
"< c #410741134128",
"1 c #429742AA42B2",
"2 c #4316432E432D",
"3 c #43F043F843FB",
"4 c #47D847E047E4",
"5 c #494F498A49A3",
"6 c #4AAE4A7A4A66",
"7 c #49414B7B4C64",
"8 c #489F4DB04FAC",
"9 c #4C314C2F4C30",
"0 c #4E3F4E444E48",
"q c #479851D95599",
"w c #500E500D500E",
"e c #521052125214",
"r c #5491548E548B",
"t c None",
/* pixels */
"tttttttttttttttttttttt",
"tttttttttttttttttttttt",
"tttttttttttttttttttttt",
"tttttttttttttttttttttt",
"tttttttttttttttttttttt",
"ttttttttttt0wttttttttt",
"tttrwwwwwww0tt90tttttt",
"ttww00000w058qtt07tttt",
"tt505ttt55tt:>;tt55ttt",
"tttttttt45tttttttt*3tt",
"tt3ttttt133tttttttt*tt",
"t1111ttt%*-*1ttttttt*t",
"t%**%%ttt%#%#%#ttttt%t",
"t%%#%#%####tttX######t",
"t#X#X#;##tttttttt XXtt",
"t XX   ttttttttttttttt",
"tttttttttttttttttttttt",
"tttttttttttttttttttttt",
"tttttttttttttttttttttt",
"tttttttttttttttttttttt",
"tttttttttttttttttttttt",
"tttttttttttttttttttttt"
};
