/* XPM */
static char *baobab[] = {
/* columns rows colors chars-per-pixel */
"22 22 48 1 ",
"  c #3E443594768F",
". c #47804780478B",
"X c #53925392539D",
"o c #5CDA5CDA5CE2",
"O c #709070907090",
"+ c #54F84610D165",
"@ c #8686788BD80A",
"# c #9AF19AF19AF1",
"$ c #B0ADB08EB2A7",
"% c #B475B46FB48C",
"& c #B733B72EB73D",
"* c #B907B905B909",
"= c #ADCAA89AC611",
"- c #8955828BF2C7",
"; c #899C8428F4A1",
": c #B5E2AE12E288",
"> c #BE5AB532F203",
", c #C0B4B9B0E304",
"< c #C0E7B918F2D8",
"1 c #C164C164C164",
"2 c #C4ACC4ACC4AD",
"3 c #CAB0CAB0CAB0",
"4 c #D6E5D6E5D6E5",
"5 c #E920E903E988",
"6 c #EBC4EAC5EED6",
"7 c #ECB3EC9DECFB",
"8 c #EDDCEDE4EDBB",
"9 c #EDBEED05EFEC",
"0 c #EEFEEEFEEF01",
"q c #EFBAEFB9EFBE",
"w c #EE66ED82F0A5",
"e c #EE2AEC96F1B8",
"r c #F076F076F077",
"t c #F1F3F1F3F1F3",
"y c #F304F304F304",
"u c #F42BF42AF42B",
"i c #F47DF47CF47D",
"p c #F5ECF5ECF5EC",
"a c #F744F744F744",
"s c #F840F840F841",
"d c #F8CEF8CEF8CF",
"f c #F9DFF9DFF9DF",
"g c #FB19FB19FB1A",
"h c #FBFFFBFFFBFF",
"j c #FCF6FCF6FCF6",
"k c #FE07FE07FE07",
"l c #FED3FED3FED3",
"z c None",
/* pixels */
"zzzzzzzzzzzzzzzzzzzzzz",
"zzzzzzzzzzzzzzzzzzzzzz",
"zzzzlllllllglllllgzzzz",
"zzzlllllllllglgllglzzz",
"zzzlllllgllllllggggzzz",
"zzzlllllllgggggggggzzz",
"zzzlllglglgggggggsgzzz",
"zzllgggggggggggggsszzz",
"zzllgggggsgssssssssszz",
"zzggggsggssssssyisyuzz",
"zzgjgggssssssssysyiizz",
"zzgggggggsssiysyiiyyzz",
"zggggdsssssssyysirre0z",
"zgggdsssysyyyy0000r00z",
"zgsssssssyyyyy0000770z",
"sssssyyiyryy0r00770777",
"sssyyyyyy0y0007060ee67",
"z43222*&**&%%&$&=:<>,z",
"z#OoX......X.... +;-@z",
"zzzzzzzzzzzzzzzzzzzzzz",
"zzzzzzzzzzzzzzzzzzzzzz",
"zzzzzzzzzzzzzzzzzzzzzz"
};
