/* XPM */
static char *ccc_large[] = {
/* columns rows colors chars-per-pixel */
"22 22 15 1 ",
"  c #E98BE998E96B",
". c #EDF7EDF9EDF0",
"X c #F008F007F000",
"o c #F1DCF1DCF1DC",
"O c #F34FF34FF34D",
"+ c #F4FEF4FDF4FE",
"@ c #F5DEF5D8F5DA",
"# c #F6B3F6AEF6AD",
"$ c #F7BCF7BBF7AB",
"% c #F8F9F8F8F8F7",
"& c #FA64FA61FA63",
"* c #FB2FFB31FB2D",
"= c #FC1BFC1BFC18",
"- c #FD3BFD3BFD3A",
"; c None",
/* pixels */
";;;;;;;;;;;;;;;;;;;;;;",
";;;;;;;;;;;;;;;;;;;;;;",
";;;;;;;;;;;;;;;;;;;;;;",
";;;;;;;;;;;;;;;;;;;;;;",
";;;;;;;;;;;;;;;;;;;;;;",
";;;;;;;;;;;;;;;;;;;;;;",
";;;;;;;;;-;;-----;;;;;",
";;;;;;;;----------;;;;",
";;;;;;;*=--;o***$$***;",
";;;;;;*****;;;**;;***;",
";;;;;**%***;;;**;;$**;",
";;;;$** o$$;;;*$;;$$$;",
";;;$$$o;$$$;;;$$;;$$$;",
";;$$$;ooo$$;;;$$;;$$$;",
";;oo;;;;oo$;;;oo;;;oo;",
";;o;;;;;;.;;;;.;;;;;.;",
";;;;;;;;;;;;;;;;;;;;;;",
";;;;;;;;;;;;;;;;;;;;;;",
";;;;;;;;;;;;;;;;;;;;;;",
";;;;;;;;;;;;;;;;;;;;;;",
";;;;;;;;;;;;;;;;;;;;;;",
";;;;;;;;;;;;;;;;;;;;;;"
};
