/* XPM */
static char *control_center2[] = {
/* columns rows colors chars-per-pixel */
"22 22 28 1 ",
"  c #B86DB88CB87C",
". c #C2E8C2FAC2FF",
"X c #C809C82FC825",
"o c #CCC1CCD0CCD2",
"O c #DFBEDFABDFA6",
"+ c #E240E243E241",
"@ c #E64BE649E651",
"# c #E760E75CE761",
"$ c #EA2DEA27EA28",
"% c #EBD8EBDAEBE0",
"& c #ED32ED36ED2D",
"* c #EFF1EFEBEFF0",
"= c #F112F110F112",
"- c #F1F9F1EFF1F8",
"; c #F2A9F2A8F2A7",
": c #F435F434F437",
"> c #F473F473F478",
", c #F512F512F512",
"< c #F5E5F5E6F5E9",
"1 c #F770F76FF771",
"2 c #F774F775F778",
"3 c #F84CF84FF84A",
"4 c #F8EDF8EEF8EE",
"5 c #F9E0F9DBF9DE",
"6 c #FB3DFB3CFB3F",
"7 c #FBEBFBEBFBED",
"8 c #FD15FD15FD16",
"9 c None",
/* pixels */
"9999999999999999999999",
"9999999999999999999999",
"9999999999999999999999",
"9999999999999999999999",
"9999889999889999889999",
"9999889998888999889999",
"9999879987,,7799789999",
"999977997999@779779999",
"999977997777,779779999",
"9999,799@&77:&99,79999",
"999777999$,7,999779999",
"99,,$$:7997,7999,79999",
"99,&99:,997,:99,,,,999",
"99:,,,:,99,,,9::@@&,99",
"99O$::&999::,9&:99@:99",
"9999::999$:::9&&:::&99",
"9999::999$:::99+&:&999",
"9999&&9999$&&999$&9999",
"9999oo9999 .9999Xo9999",
"9999999999999999999999",
"9999999999999999999999",
"9999999999999999999999"
};
