/* XPM */
static char *gcolor2[] = {
/* columns rows colors chars-per-pixel */
"22 22 24 1 ",
"  c #C7A1C79EC799",
". c #CFF8CFFBCFF9",
"X c #DF89DF8BDF8F",
"o c #E1F3E1F0E1E4",
"O c #E41FE41EE423",
"+ c #E704E70AE6FD",
"@ c #EA03EA06EA08",
"# c #EC29EC29EC2B",
"$ c #ED10ED19ED1A",
"% c #EF39EF3EEF3C",
"& c #F0E6F0E2F0DF",
"* c #F1F7F1F6F1F8",
"= c #F3DEF3E0F3DD",
"- c #F512F50AF509",
"; c #F5E3F5E0F5DE",
": c #F70BF70BF709",
"> c #F7C8F7C8F7C3",
", c #F880F885F883",
"< c #F9CBF9CDF9CD",
"1 c #FAEFFAF2FAEE",
"2 c #FC4AFC4AFC47",
"3 c #FD13FD14FD0D",
"4 c #FDAFFDB0FDA5",
"5 c None",
/* pixels */
"5555555555555555555555",
"5555555555445555555555",
"555555544<:=<<45555555",
"555554<<:5555#<<455555",
"5554<<=55555555+=:<555",
"55<<<555555555555=4<55",
"55<:=<5555555555<<:<55",
"55<:5=:<5555554<<5:<55",
"55<<55X=<<555<::55<<55",
"55<<5555#:<<::5555:<55",
"55::55555 %:%55555<:55",
"55::555555#:555555::55",
"55=:555555%:555555::55",
"555:555555#=555555=555",
"555#=55555#%55555==555",
"555 X=5555#=5555%%#555",
"55555o#555+%555%%55555",
"555555.o%5o%5%#+555555",
"55555555X++%##55555555",
"555555555.o+o555555555",
"55555555555 5555555555",
"5555555555555555555555"
};
