/* XPM */
static char *geany[] = {
/* columns rows colors chars-per-pixel */
"22 22 28 1 ",
"  c #B042B096B082",
". c #C734C74BC743",
"X c #CF60CFBACF8A",
"o c #D65FD65ED64A",
"O c #DA70DA99DA85",
"+ c #DCF2DD24DD0E",
"@ c #DEC6DEDCDEBC",
"# c #E2DCE2EDE2DB",
"$ c #E4FFE518E518",
"% c #E866E86CE86E",
"& c #E9D7E9D3E9D1",
"* c #EBA5EBBBEBB8",
"= c #EDABEDACEDA2",
"- c #EEDFEEDEEEDF",
"; c #F025F025F025",
": c #F1A4F1A2F19E",
"> c #F41DF414F411",
", c #F56EF56AF56B",
"< c #F645F640F63F",
"1 c #F6D7F6D3F6D3",
"2 c #F808F809F804",
"3 c #F8AFF8BBF8B2",
"4 c #FA0FFA09FA10",
"5 c #FAEDFAEDFAEA",
"6 c #FC38FC3DFC38",
"7 c #FD46FD48FD46",
"8 c #FD9DFD9EFD9D",
"9 c None",
/* pixels */
"9999999999999999999999",
"9999999999999999999999",
"9999999999999994889999",
"9999999999998444999999",
"9999999999983999999999",
"9999999999499999999999",
"9999999994999449999999",
"9999999499944299999999",
"9999992294429999999999",
"99999222:;999999999999",
"9922:99999999999999999",
"92:9999999999999999999",
"9:99999999999999999999",
"9999999999999999999999",
"999999999;::99999**;99",
"99:;99999*;;999:;#X%99",
"999%*999;;;;;;:;999%99",
"9999#*;;*;*;;***999999",
"99999o#%******#9999999",
"999999 .O@@@@O99999999",
"9999999999999999999999",
"9999999999999999999999"
};
