/* XPM */
static char *graveman[] = {
/* columns rows colors chars-per-pixel */
"22 22 31 1 ",
"  c #AEA3AEA0AE88",
". c #BFDBBFDBBFDC",
"X c #C221C215C201",
"o c #C9A7C9A5C989",
"O c #CE30CE24CE26",
"+ c #D9F8D9F5D9DE",
"@ c #DEEBDEE4DECC",
"# c #E2D6E2CCE2AE",
"$ c #E520E51BE513",
"% c #E86EE86AE846",
"& c #E927E91FE921",
"* c #EC7BEC76EC4F",
"= c #ED38ED37ED17",
"- c #EEAFEEB3EEA3",
"; c #EFB7EFB7EFA9",
": c #F0E8F0E7F0CF",
"> c #F195F18EF17D",
", c #F2F5F2F0F2C7",
"< c #F377F374F355",
"1 c #F46EF46EF44F",
"2 c #F523F525F50C",
"3 c #F5EAF5EAF5DB",
"4 c #F720F724F72A",
"5 c #F7A3F7A1F7A0",
"6 c #F8FAF8FAF8FB",
"7 c #FA14FA15FA19",
"8 c #FAE5FAE6FAE4",
"9 c #FBFBFBFBFBFC",
"0 c #FD1FFD21FD20",
"q c #FE30FE34FE33",
"w c None",
/* pixels */
"wwwwwwwwwwwwwwwwwwwwww",
"wwwwwwww0000000wwwwwww",
"wwwwww00000000000wwwww",
"wwww0009994<440000wwww",
"www00094$ww4wX-9999www",
"www909wwwwwwwwww4999ww",
"ww999wwwww9wwwwww999ww",
"ww999wwww999wwwww<99ww",
"ww949www999949wwww994w",
"w499www9444999wwww499w",
"w449ww4ww#<949ww9w444w",
"w449ww4wwww*44ww4w444w",
"ww44w444www-4ww444444w",
"ww444w<44ww<ww44<w<44w",
"ww-1<w<<<w4<w<<<w<4<ww",
"ww$<<<<<$-<<w##<<<<<ww",
"www--<<-$-<<<$+-<--www",
"wwww#-:-*<---------www",
"wwwwX+&-<&*-----&$wwww",
"wwwwwwO+&&&*&&#@wwwwww",
"wwwwwwww .oOX.wwwwwwww",
"wwwwwwwwwwwwwwwwwwwwww"
};
