/* XPM */
static char *kommander[] = {
/* columns rows colors chars-per-pixel */
"22 22 27 1 ",
"  c #C0A1C09DC0A7",
". c #C355C34FC334",
"X c #C6EFC6ECC6F7",
"o c #CD80CD65CD7E",
"O c #D1E5D1A3D1E5",
"+ c #D8B7D8BDD8B1",
"@ c #DCD3DCDBDCD6",
"# c #E27DE282E27D",
"$ c #E51DE509E516",
"% c #E6CCE6D2E6CD",
"& c #EA36EA43EA32",
"* c #EBC8EBD6EBD0",
"= c #ED91ED96ED93",
"- c #EFB8EFBCEFB9",
"; c #F077F07BF076",
": c #F2DEF2E3F2DF",
"> c #F3E1F3E5F3E2",
", c #F499F49CF498",
"< c #F656F655F658",
"1 c #F6A2F6A1F6A3",
"2 c #F84CF84BF84C",
"3 c #F9F0F9F1F9F2",
"4 c #FB23FB21FB22",
"5 c #FBB0FBACFBAE",
"6 c #FCC6FCC4FCC5",
"7 c #FDFDFDFDFDFD",
"8 c None",
/* pixels */
"8888888888888888888888",
"8888888888888888888888",
"8888888888868888888888",
"8888888888666888888888",
"8888888886666888888888",
"8888866666666666688888",
"8888836666636666688888",
"8888833663=*,666388888",
"8888833338888=33388888",
"8883333388888833333888",
"888,3333888888,333,888",
"888>,,,3888888,33,,888",
"8888+>,,,88888,,>*8888",
"88888=,,,>88,,,,>88888",
"88888>>>>>>>>>,>>88888",
"88888>==>=>;==>=>88888",
"88888$@XO$===@.o#88888",
"888888888.$=$888888888",
"8888888888O+8888888888",
"8888888888888888888888",
"8888888888888888888888",
"8888888888888888888888"
};
