/* XPM */
static char *baobab[] = {
/* columns rows colors chars-per-pixel */
"22 22 131 2",
"   c #177917791782",
".  c #178917451A41",
"X  c #185B185B185F",
"o  c #18BA18C11879",
"O  c #194E194E194E",
"+  c #1B0B1B0A1B10",
"@  c #1CC31CC31CC7",
"#  c #151212092A87",
"$  c #204020402043",
"%  c #280928092809",
"&  c #3B733B733B73",
"*  c #1D4817D76127",
"=  c #31852B5E6821",
"-  c #47D447C14915",
";  c #47E547E647CC",
":  c #48D448CF48E7",
">  c #4A404A3C4A4F",
",  c #4B6C4B694B75",
"<  c #4C114C0E4C18",
"1  c #4D4F4D4E4D51",
"2  c #4F5D4F5D4F5E",
"3  c #460B42F4570B",
"4  c #535C535C535C",
"5  c #55EB55EB55EC",
"6  c #5AF15AF15AF1",
"7  c #4B3046377599",
"8  c #52D64DC47651",
"9  c #66DC66DC66DC",
"0  c #32D02FB99715",
"q  c #32F130729D13",
"w  c #51164ABC94D3",
"e  c #52FD4D5B974A",
"r  c #7FFE7FA4814E",
"t  c #80F480E38128",
"y  c #879E876E883B",
"u  c #85A583A18C7C",
"i  c #885E87F689BF",
"p  c #88C488C588C2",
"a  c #899E899989AF",
"s  c #89FE8A16899E",
"d  c #892A88CE8A68",
"f  c #898989148B18",
"g  c #8AEA8AEB8AE7",
"h  c #89EE88518F2B",
"j  c #8C178C148C22",
"k  c #8DA48DA48DA5",
"l  c #8EAB8EA98EB6",
"z  c #8FB38FB38FB6",
"x  c #8AE5875F93FD",
"c  c #899585659576",
"v  c #8B718966910C",
"b  c #908F908F9091",
"n  c #919D919C91A3",
"m  c #924992499249",
"M  c #93B393B393B3",
"N  c #94A394A394A5",
"B  c #95C195C195C2",
"V  c #97D197D197D1",
"C  c #989B989B989B",
"Z  c #998699869986",
"A  c #9AA09A9F9AA0",
"S  c #9B809B7F9B80",
"D  c #9C969C959C97",
"F  c #9DAD9DAB9DAE",
"G  c #9EA29EA19EA3",
"H  c #9FA29FA19FA2",
"J  c #A08CA08BA08D",
"K  c #A1ABA1AAA1AC",
"L  c #A2CCA2CBA2CD",
"P  c #A3C0A3BFA3C1",
"I  c #A499A498A49B",
"U  c #A5F1A5F0A5F3",
"Y  c #A672A671A675",
"T  c #A799A798A79B",
"R  c #A8D3A8D2A8D7",
"E  c #AA99AA98AA9C",
"W  c #ABC8ABC8ABCC",
"Q  c #AD05AD04AD09",
"!  c #ADB6ADB5ADBA",
"~  c #AE74AE73AE78",
"^  c #AF91AF90AF95",
"/  c #B0D7B0D6B0DA",
"(  c #B193B192B196",
")  c #B285B285B286",
"_  c #B3E1B3E0B3E2",
"`  c #B4D2B4D2B4D2",
"'  c #B5A9B5A9B5AA",
"]  c #B6BEB6BEB6BE",
"[  c #B778B778B77A",
"{  c #B87FB87FB881",
"}  c #B9A3B9A3B9A3",
"|  c #BAC3BAC3BAC5",
" . c #BBC3BBC3BBC4",
".. c #BCA6BCA6BCA8",
"X. c #BDABBDABBDAE",
"o. c #BEC3BEC3BEC5",
"O. c #BFCCBFCCBFCD",
"+. c #C0CFC0CFC0D0",
"@. c #C1A9C1A9C1A9",
"#. c #C481C481C481",
"$. c #C563C563C563",
"%. c #C68BC68BC68B",
"&. c #C7E4C7E4C7E4",
"*. c #C8DEC8DEC8DE",
"=. c #C9E7C9E7C9E7",
"-. c #CAC8CAC8CAC8",
";. c #CCB8CCB8CCB8",
":. c #CE00CE00CE00",
">. c #CF1ACF1ACF1A",
",. c #CFFFCFFFCFFF",
"<. c #D07CD07CD07C",
"1. c #D1D5D1D5D1D5",
"2. c #D34FD34FD34F",
"3. c #D3CED3CED3CE",
"4. c #D477D477D477",
"5. c #D5F7D5F7D5F7",
"6. c #D6A6D6A6D6A6",
"7. c #D827D827D827",
"8. c #D884D884D884",
"9. c #D9B1D9B1D9B1",
"0. c #DAB7DAB7DAB7",
"q. c #DBAFDBAFDBAF",
"w. c #DCBBDCBBDCBB",
"e. c #DDC7DDC7DDC7",
"r. c #DFD4DFD4DFD4",
"t. c #E0D0E0D0E0D0",
"y. c #E20DE20DE20D",
"u. c #E303E303E303",
"i. c #E438E438E438",
"p. c #E4D1E4D1E4D1",
"a. c None",
/* pixels */
"a.a.a.a.a.a.a.a.a.a.a.a.a.a.a.a.a.a.a.a.a.a.",
"a.a.a.a.a.a.a.a.a.a.a.a.a.a.a.a.a.a.a.a.a.a.",
"a.a.a.a.p.p.p.p.u.w.w.9.7.7.7.2.2.:.a.a.a.a.",
"a.a.a.u.p.u.w.w.w.9.9.9.7.2.2.2.:.*.$.a.a.a.",
"a.a.a.w.u.w.9.9.7.7.7.2.:.:.:.*.$.+.+.a.a.a.",
"a.a.a.w.9.9.9.7.2.2.:.*.*.*.$.+.+.o.| a.a.a.",
"a.a.a.9.9.2.2.:.:.$.+.| o.o.| | ` ` _ a.a.a.",
"a.a.2.:.*.$.+.+.o.| ` | | ` ` _ ~ ~ ~ a.a.a.",
"a.a.2.$.o.| | { ` _ _ ~ W W T T T T T T a.a.",
"a.a.*.$.| o.` ` _ ~ ~ W T T K K I P D D a.a.",
"a.a.$.$.+.o.| ` ~ ~ W W T T T K K D D D a.a.",
"a.a.O.o.| | ` _ _ ~ ~ W K K K D D S V N a.a.",
"a.o.o.| ` _ ^ ~ W T K K K S S S S b b b l a.",
"a.` ` _ _ W W T K I D S S S b b b v b j s a.",
"a._ _ ~ W T K K K S S S N N b l l k g s s a.",
"W W W T T K D D S N N N b l l s s y g y y t ",
"T K D D D S S N N b b l l l s s h v x x u r ",
"a.9 6 5 5 4 1 1 1 1 < > > > - > 3 7 e w 8 a.",
"a.& % $ @ X X X X X X @ X X X X # * q 0 = a.",
"a.a.a.a.a.a.a.a.a.a.a.a.a.a.a.a.a.a.a.a.a.a.",
"a.a.a.a.a.a.a.a.a.a.a.a.a.a.a.a.a.a.a.a.a.a.",
"a.a.a.a.a.a.a.a.a.a.a.a.a.a.a.a.a.a.a.a.a.a."
};
