/* XPM */
static char *browser[] = {
/* columns rows colors chars-per-pixel */
"22 22 108 2",
"   c #3EA13EAA3EA4",
".  c #467A468A4676",
"X  c #4A154A344A1A",
"o  c #4B234B214B17",
"O  c #4C024C074BFF",
"+  c #5013501A5010",
"@  c #51665163515E",
"#  c #53BC53B953B0",
"$  c #578A5773577A",
"%  c #5A455A3E5A36",
"&  c #621D62296219",
"*  c #65FF65F865EC",
"=  c #69EE69DA69E0",
"-  c #6BE36BD06BD0",
";  c #6FF76FF76FFB",
":  c #724672457240",
">  c #7A717A777A66",
",  c #7CA57CA17C96",
"<  c #7E9B7E867E78",
"1  c #80097FFD7FF9",
"2  c #80C380A68099",
"3  c #81A0818F8183",
"4  c #820781F581E9",
"5  c #8402840C8400",
"6  c #846284528447",
"7  c #853A854F852B",
"8  c #87D187BD87B2",
"9  c #88ED88D688CC",
"0  c #891B890D88FE",
"q  c #89F389E289D7",
"w  c #8B8F8B868B7D",
"e  c #8C598C708C69",
"r  c #8DB28DE88DE0",
"t  c #8DF48E128DFC",
"y  c #8E4A8E658E54",
"u  c #8F0C8F2E8F24",
"i  c #8F7B8F958F92",
"p  c #90BA90AF90B1",
"a  c #918591779171",
"s  c #928092A292A6",
"d  c #93109336933F",
"f  c #94D394D494DB",
"g  c #96AC96819686",
"h  c #974597069709",
"j  c #98B19857985A",
"k  c #995998FC98FF",
"l  c #99A0998F998B",
"z  c #9A889A629A64",
"x  c #9BC59B9E9B9F",
"c  c #9D169CC79CC7",
"v  c #9D289D149D15",
"b  c #9D689D2E9D2E",
"n  c #9F669F0D9F05",
"m  c #9F6E9F669F60",
"M  c #A08BA07DA07C",
"N  c #A14FA10BA100",
"B  c #A258A244A255",
"V  c #A333A303A2FD",
"C  c #A3F0A3DEA3DC",
"Z  c #A45DA44BA447",
"A  c #A5F4A5E0A5E0",
"S  c #A62DA61AA618",
"D  c #A659A649A648",
"F  c #A984A99EA987",
"G  c #AB18AB11AB04",
"H  c #ABABAB8AAB84",
"J  c #AC57AC18AC10",
"K  c #AD12ACE9ACEA",
"L  c #AE53AE01ADF8",
"P  c #AE1EAE46AE20",
"I  c #AF33AF02AEF3",
"U  c #B003AFB8AFB1",
"Y  c #B04EAFF0AFE6",
"T  c #B0D5B06DB065",
"R  c #B14AB0BFB0C4",
"E  c #B216B18AB18B",
"W  c #B329B277B274",
"Q  c #B33CB285B283",
"!  c #B3B7B3A0B39D",
"~  c #B619B5EAB5D9",
"^  c #B667B61DB613",
"/  c #B6D3B6B5B6AB",
"(  c #B7BCB79EB78F",
")  c #B9D6B9C0B9BE",
"_  c #BAE6BAE2BAE4",
"`  c #BBB9BBB3BBB7",
"'  c #BC5ABC5ABC59",
"]  c #BDF7BDF7BDF6",
"[  c #BED7BECDBECB",
"{  c #BF79BF7ABF7A",
"}  c #C0F9C0E9C0E5",
"|  c #C1C1C1D9C1C1",
" . c #C25EC250C24D",
".. c #C422C421C421",
"X. c #C4CBC4C4C4CD",
"o. c #C5C4C5C9C5C0",
"O. c #CA41CA3ACA3E",
"+. c #CC05CBFBCC00",
"@. c #CE2ACE1ACE23",
"#. c #CF65CF54CF61",
"$. c #D201D202D1FA",
"%. c #D464D468D460",
"&. c #D7EFD7E8D7E9",
"*. c #D85FD83CD853",
"=. c #D939D916D92D",
"-. c #D998D97ED990",
";. c #DB71DB66DB6E",
":. c None",
/* pixels */
":.:.:.:.:.:.:.:.:.:.:.:.:.:.:.:.:.:.:.:.:.:.",
":.:.:.:.:.:.:.:.:.:.=.&.=.=.:.:.:.:.:.:.:.:.",
":.:.:.:.:.:.:.) o.:.:.:.$.=.@.] :.:.:.:.:.:.",
":.:.:.:.:.:.:.z ( :.:.] o.$.G :.:.:.:.:.:.:.",
":.:.:.:.:.} } D ) @.@...) I :.:.:.:.:.:.:.:.",
":.:.:.:.:.:.:.s ! O.@.@.} :.:.:.:.:.:.:.:.:.",
":.:.:.:.:.:.:.] ] o.o.} } :.:.:.:.:.:.:.:.:.",
":.:.:.:.:.:.] ] ] ] ] ] ] :.M T :.:.:.:.:.:.",
":.:.:.:.) ( ] ) ] ' ) ( :.:.:.:.:.:.:.:.! :.",
":.:.:.b I ( ( ( ( ( ( T :.:.:.:.:.:.:.T T :.",
":.T B , s b B T T I Y I :.:.:.:.:.:.:.I T :.",
":.:.G b 5 @ $ s G I G G :.:.:.:.:.:.D I I :.",
":.:.D D B :.:.= 7 b D D D D D :.:.:.D D B :.",
":.:.B B B :.:.:.O 5 B B B B B :.:.:.b B B :.",
":.:.s x x :.:.:.:.s z b b b b :.:.h z z :.:.",
":.:.5 s z :.:.:.:.h j j j h z :.:.s h h :.:.",
":.:.:.7 u s :.:.:.u s s s s s :.:.u s :.:.:.",
":.:.:.:.- u :.:.u u u u e u u u u 9 e :.:.:.",
":.:.:.:.O & , 9 7 9 9 9 7 9 9 9 , , :.:.:.:.",
":.:.:.:.:.:.% * > 5 5 5 5 , : - :.:.:.:.:.:.",
":.:.:.:.:.:.:.:.  . @ @ @ X :.:.:.:.:.:.:.:.",
":.:.:.:.:.:.:.:.:.:.:.:.:.:.:.:.:.:.:.:.:.:."
};
