/* XPM */
static char *control_center_[] = {
/* columns rows colors chars-per-pixel */
"22 22 83 1",
"  c #4CE64CFB4CF0",
". c #548754955499",
"X c #58AB58CB58C3",
"o c #5CC75CD55CD7",
"O c #5D5D5D625D6A",
"+ c #5DE85E045E02",
"@ c #71A4718B7184",
"# c #752F75337530",
"$ c #7B7F7B7C7B88",
"% c #7BE07C027BFE",
"& c #7D567D4F7D58",
"* c #7F457F477F43",
"= c #8276826B826E",
"- c #83BC83BD83C9",
"; c #85CE85D385DF",
": c #86F286D486EA",
"> c #88B388BC88A9",
", c #896A89658967",
"< c #8A8C8A8B8A88",
"1 c #8BA08BA78BB1",
"2 c #8C608C658C60",
"3 c #8D348D358D3B",
"4 c #8E408E478E58",
"5 c #8F368F288F34",
"6 c #916E91629173",
"7 c #9231922A922F",
"8 c #93249320931F",
"9 c #94B7949A94B4",
"0 c #954B95409546",
"q c #96BA96B996B6",
"w c #978E9786978C",
"e c #98659856985C",
"r c #995D994C9967",
"t c #9A509A439A51",
"y c #9BA39B9E9BAA",
"u c #9C749C739C85",
"i c #9DAF9DB99DCE",
"p c #9EA09EA09E9F",
"a c #9F139F129F2C",
"s c #9FCF9FC89FDA",
"d c #A0B0A0B8A0C2",
"f c #A1ADA1B2A1BC",
"g c #A23DA239A24B",
"h c #A321A317A333",
"j c #A329A320A337",
"k c #A3A8A39EA3B8",
"l c #A49FA493A4AE",
"z c #A807A803A80C",
"x c #A81AA81DA82B",
"c c #A86BA86CA87B",
"v c #A985A986A982",
"b c #AA9EAA9CAAA6",
"n c #AC02AC0EABF8",
"m c #ACECACF1ACE9",
"M c #ADF5ADFBADFC",
"N c #AFA1AFB3AFA2",
"B c #B07BB07DB08A",
"V c #B1B5B1C2B1B2",
"C c #B292B281B28D",
"Z c #B464B445B458",
"A c #B7D9B7B5B7C7",
"S c #B8FCB8EFB8F4",
"D c #B992B980B989",
"F c #BADDBAD9BADF",
"G c #BBCCBBBEBBCF",
"H c #BCB7BCB1BCB8",
"J c #BDAABDA7BDBC",
"K c #BE49BE43BE64",
"L c #BFA8BFA8BFB3",
"P c #C067C066C063",
"I c #C1F7C1F5C229",
"U c #C318C317C316",
"Y c #C68DC68BC6D5",
"T c #C775C776C794",
"R c #C911C912C925",
"E c #CBFECC04CC24",
"W c #CCBFCCC5CCE3",
"Q c #CE23CE28CE3B",
"! c #CFC6CFC9CFEA",
"~ c #D056D05ED04A",
"^ c #D0F8D0FFD0EF",
"/ c #D184D189D182",
"( c None",
/* pixels */
"((((((((((((((((((((((",
"((((((((((((((((((((((",
"((((((((((((((((((((((",
"((((((((((((((((((((((",
"((((^^((((^^((((^~((((",
"((((WW(((RWWW(((EE((((",
"((((YR((RBppBY((RR((((",
"((((PP((K(((&GK(PP((((",
"((((KK((GKKGnGZ(KK((((",
"((((ZZ(($5BGp>((ZG((((",
"(((nBB(((=nBf(((BZ((((",
"((ny;>yn((mmn(((mm((((",
"((f5((qf((xzf((ffpf(((",
"((qyzfyp((ffp(p7&$;p((",
"((@=yy>(((puy(7q((&q((",
"((((qq(((;qqq(>5yy55((",
"((((q7(((=797((#>q;(((",
"((((>5((((>5>(((=5((((",
"((((oo(((( .((((Xo((((",
"((((((((((((((((((((((",
"((((((((((((((((((((((",
"(((((((((((((((((((((("
};
