/* XPM */
static char *evince[] = {
/* columns rows colors chars-per-pixel */
"22 22 82 1",
"  c #48814888487A",
". c #5AB65AB65AAF",
"X c #5C785C6C5C62",
"o c #691969116905",
"O c #6BA26B986B95",
"+ c #6FA96F9E6FA5",
"@ c #709970967090",
"# c #70F170DF70E6",
"$ c #71877173717C",
"% c #7457744F7457",
"& c #76437633763D",
"* c #778D7776778B",
"= c #7843783B782B",
"- c #79517945793A",
"; c #7A407A437A42",
": c #7B847B867B74",
"> c #7C297C1F7C2D",
", c #7D6D7D667D5F",
"< c #7ED77ED47ECF",
"1 c #7F367F3E7F23",
"2 c #81B381B281B3",
"3 c #823B823B8224",
"4 c #84488444844B",
"5 c #85FC85FF85F9",
"6 c #87F287EB87EA",
"7 c #897E8982897B",
"8 c #8ADD8AD78ADF",
"9 c #8BF38BEB8BF0",
"0 c #8CB98CAB8CBE",
"q c #8E018DF88DFE",
"w c #8EC68EB48EC8",
"e c #8F6E8F6F8F6D",
"r c #908A907B9091",
"t c #91E091D891E0",
"y c #92AE92A492B2",
"u c #935C935C935B",
"i c #95E695D495E5",
"p c #977D97739788",
"a c #98DF98D998E4",
"s c #99D999CB99D8",
"d c #9BC69BB69BBF",
"f c #9DD39DCB9DDF",
"g c #9FAF9FAF9FC5",
"h c #A1CBA1D7A1F6",
"j c #A20DA21EA241",
"k c #A274A26BA27F",
"l c #A3B8A3AAA3BA",
"z c #A49DA485A493",
"x c #A65FA65CA670",
"c c #A743A721A730",
"v c #A808A804A7FE",
"b c #AA23AA16AA0F",
"n c #AAC5AAC1AABE",
"m c #AB01AB1DAB39",
"M c #AC1CAC0CAC16",
"N c #ADF0AE21AE18",
"B c #AE3FAE54AE5D",
"V c #B0B2B0D8B0EC",
"C c #B11BB143B157",
"Z c #B27BB256B245",
"A c #B50FB4E4B4D1",
"S c #B590B596B59F",
"D c #B85CB877B855",
"F c #B970B97BB97B",
"G c #BB30BB73BB45",
"H c #BBD2BBC1BBA9",
"J c #BD63BD69BD46",
"K c #C141C1A2C14C",
"L c #C316C323C320",
"P c #C57BC589C58E",
"I c #C6B4C6C4C6C6",
"U c #C813C820C818",
"Y c #CA2BCA3CCA36",
"T c #CA69CA62CA53",
"R c #CE29CE3BCE37",
"E c #CEAACEBDCEB3",
"W c #D0F7D0EDD0E7",
"Q c #D683D685D672",
"! c #D97AD972D96F",
"~ c #DB4DDB46DB44",
"^ c #DCBDDCB8DCB5",
"/ c None",
/* pixels */
"//////////////////////",
"//////^!!/////////////",
"//////QJT/////////////",
"//////RSLW////////////",
"//////FURT////////////",
"///////FUU////////////",
"///////xFL////////////",
"///////mFFJ///////////",
"///////ZmdZS//////////",
"///////Zx/sBB/////////",
"///////mx//uxm////////",
"//////hh////whx///////",
"//////hf/////rhhsf////",
"//////si///srwrrsiwr//",
"//////rrrw4=4=O@2w%4r/",
"/////ww<2%X ////.@%<9/",
"///9992///////////////",
"//2==2////////////////",
"//=@=<////////////////",
"//O@@/////////////////",
"//////////////////////",
"//////////////////////"
};
