/* XPM */
static char *gbrainy[] = {
/* columns rows colors chars-per-pixel */
"22 22 104 2",
"   c #56BF56D856D4",
".  c #5E2C5E475E43",
"X  c #62AA62C362BD",
"o  c #639163B463AC",
"O  c #63CC63F363EB",
"+  c #6424644C6445",
"@  c #65BE65FF65ED",
"#  c #700C7031702B",
"$  c #750274FC7502",
"%  c #77D777CE77EC",
"&  c #7B947B947BA6",
"*  c #7F197F187F18",
"=  c #806C80748079",
"-  c #81E681EC8201",
";  c #8297829B82A3",
":  c #8462845D8468",
">  c #8596859585A1",
",  c #860186098624",
"<  c #867F86868697",
"1  c #86F286FA870C",
"2  c #8775877F877B",
"3  c #89BD89BB89C2",
"4  c #8A818A7D8A77",
"5  c #8CCB8CBD8CC1",
"6  c #8E0F8E098E0C",
"7  c #8EEB8EDE8EE8",
"8  c #8F9C8F918F9C",
"9  c #901390089015",
"0  c #90629053905E",
"q  c #921192079212",
"w  c #92C492BF92C9",
"e  c #93769370937A",
"r  c #947D94789480",
"t  c #96B596B196B7",
"y  c #977E977D9781",
"u  c #986998669869",
"i  c #998299859986",
"p  c #9AEC9AD49ADD",
"a  c #9B9B9B7D9B89",
"s  c #9CC49CBD9CBF",
"d  c #9DB79DB39DB0",
"f  c #9EA69EA59EA2",
"g  c #9F9B9F909F8E",
"h  c #A08AA083A085",
"j  c #A1DBA1B7A1BF",
"k  c #A238A205A214",
"l  c #A2AAA2A3A2A4",
"z  c #A3CCA3CEA3CB",
"x  c #A4BFA4C8A4C5",
"c  c #A57EA580A57C",
"v  c #A674A679A674",
"b  c #A71FA72DA729",
"n  c #A8C1A8C7A8C6",
"m  c #A9D1A9CBA9C8",
"M  c #AAB2AAA9AAA9",
"N  c #AB51AB54AB51",
"B  c #AC2FAC37AC2B",
"V  c #ACD5ACD9ACD5",
"C  c #AD73AD70AD6A",
"Z  c #AFD0AFCFAFCB",
"A  c #B1E0B1DEB1DD",
"S  c #B321B30EB31A",
"D  c #B3EFB3F4B3F1",
"F  c #B4A4B498B499",
"G  c #B56EB575B56E",
"H  c #B778B782B77A",
"J  c #B99BB9A5B991",
"K  c #BA91BA9ABA90",
"L  c #BBE9BBDABBD2",
"P  c #BC3FBC2DBC37",
"I  c #BD48BD18BD2A",
"U  c #BF49BF37BF37",
"Y  c #C036C013C02A",
"T  c #C0AAC08DC0A8",
"R  c #C17CC14BC170",
"E  c #C307C2EFC2FF",
"W  c #C3DBC3C4C3D6",
"Q  c #C594C593C594",
"!  c #C6C2C6B6C6BA",
"~  c #C7E8C7E5C7E8",
"^  c #C8D9C8CAC8C9",
"/  c #C9FBCA09CA00",
"(  c #CAD9CADFCAD5",
")  c #CB4ECB50CB4B",
"_  c #CD32CD34CD31",
"`  c #CDA3CDA3CDA0",
"'  c #D033D03FD03A",
"]  c #D073D07ED07A",
"[  c #D17ED188D183",
"{  c #D3A1D38FD391",
"}  c #D5A9D594D5A2",
"|  c #D67CD620D689",
" . c #D69FD698D694",
".. c #D79CD781D799",
"X. c #DA20D9C8DA3A",
"o. c #DA4FD9F3DA6D",
"O. c #DA74DA1ADA94",
"+. c #DB43DAE7DB61",
"@. c #DB84DB2CDB9A",
"#. c #DEBCDE3CDEB7",
"$. c #DF15DE95DF0F",
"%. c #DF97DF14DF87",
"&. c #DFEDDF6BDFDC",
"*. c None",
/* pixels */
"*.*.*.*.*.*.*.*.*.*.*.*.*.*.*.*.*.*.*.*.*.*.",
"*.*.#.#.#.&.#.#.&.#.#.#.#.#.#.#.#.#.#.#.*.*.",
"*.} o.o.o.o.o.o.#.o.} } } o.@.o.o.o.o.o.} *.",
"*._ } } } [ / G k V G x U D ^ } } } } } [ *.",
"*.~ _ [ / E V *   # p r *.$ r k E [ _ [ _ *.",
"*.E / ~ K *.*.*.*.*.*.~ *.*.*.*.p A / _ / *.",
"*.U ~ K *.*.*.*.*.*.G *.*.*.*.*.*.1 A ~ ~ *.",
"*.K U *.*.*.*.*.*.A *.*.*.*.U K K *.M U E *.",
"*.G U *.*.*.*.*.*.*.*.*.M f M M *.B w M K *.",
"*.V G *.*.*.*.*.x M x k *.*.*.x *.*.*.M G *.",
"*.V A *.*.*.*.*.w *.*.*.*.*.*.*.*.*.*.x A *.",
"*.x V V *.*.x f *.*.*.*.*.*.*.*.k *.*.M M *.",
"*.k M M x x k *.*.*.*.*.*.*.*.p f f k k x *.",
"*.f k k k k k *.*.*.*.*.*.*.*.8 *.*.r k k *.",
"*.r f f f f f f *.*.*.*.*.p *.*.*.*.w p f *.",
"*.w p p p p p r p p r ; & *.*.*.*.*.r p r *.",
"*.8 w w r w w w r w w 1 *.8 *.*.*.w w w w *.",
"*.3 w 8 w 8 9 8 8 8 8 8 *.*.; 8 8 8 w 9 8 *.",
"*.1 3 3 3 3 3 3 3 3 3 3 3 = * 3 3 3 3 3 3 *.",
"*.$ 1 1 1 1 1 1 1 1 1 1 1 1 1 ; 1 1 1 ; ; *.",
"*.*.. + + + + + + + X + O + + X + + + + *.*.",
"*.*.*.*.*.*.*.*.*.*.*.*.*.*.*.*.*.*.*.*.*.*."
};
