/* XPM */
static char *gcolor_[] = {
/* columns rows colors chars-per-pixel */
"22 22 89 1",
"  c #58545852584E",
". c #59C459C359C9",
"X c #5B185B295B27",
"o c #5FC55FC85FC6",
"O c #715D715F7165",
"+ c #74BE74BA74A9",
"@ c #759D7595758D",
"# c #76C276C276C4",
"$ c #77797782777B",
"% c #780077FE7806",
"& c #7900790178FF",
"* c #7CB87CC17CAB",
"= c #7CF27D097D11",
"- c #7D717D727D75",
"; c #7E427E5B7E5F",
": c #7FEA7FF37FED",
"> c #8058805A8064",
", c #815A8162815F",
"< c #8225822B8230",
"1 c #84F184EC84F0",
"2 c #854F8565856A",
"3 c #86778678867D",
"4 c #8869887C8880",
"5 c #8A4A8A488A47",
"6 c #8C308C3E8C3C",
"7 c #8DBC8DC78DC2",
"8 c #8E988EA08E98",
"9 c #8F6F8F708F5A",
"0 c #909D909090A5",
"q c #91B891AF91A6",
"w c #94B094AC94B2",
"e c #95C695CF95C7",
"r c #968196789652",
"t c #970C97219713",
"y c #993999499945",
"u c #9A149A279A03",
"i c #9A849A889A7F",
"p c #9CD29CDC9CB9",
"a c #9DE99E049DF5",
"s c #9E9F9E839E82",
"d c #A044A04FA00F",
"f c #A0E6A0EFA0CA",
"g c #A124A0FCA0FE",
"h c #A1A6A19DA193",
"j c #A29CA28AA286",
"k c #A396A35FA366",
"l c #A464A480A476",
"z c #A534A515A510",
"x c #A56FA59EA59A",
"c c #A638A61FA616",
"v c #A699A696A68C",
"b c #A784A760A75E",
"n c #A994A996A97C",
"m c #AA33AA31AA20",
"M c #AAA2AAABAAAA",
"N c #ABAEABCDABCA",
"B c #AD01AD18AD11",
"V c #AD66AD66AD64",
"C c #AED0AED4AED1",
"Z c #B2EAB2F6B2F3",
"A c #B40DB424B410",
"S c #B41AB451B43E",
"D c #B464B46EB474",
"F c #B52FB530B53D",
"G c #B5E2B5EFB5E6",
"H c #B602B637B620",
"J c #B647B646B65A",
"K c #B836B835B82A",
"L c #B8C1B8D1B8C9",
"P c #B99CB9AAB9AF",
"I c #BAD1BAEEBAD3",
"U c #BCFDBD02BCEF",
"Y c #BD9CBDABBDA1",
"T c #BEECBEEABEE1",
"R c #C0A1C0A7C099",
"E c #C204C213C20E",
"W c #C23EC268C249",
"Q c #C3B6C3BBC3B9",
"! c #C4ECC4ECC461",
"~ c #C586C595C583",
"^ c #C6E3C6DAC6BC",
"/ c #C86DC871C85B",
"( c #C9D7C9DDC984",
") c #CAEBCAE6CADE",
"_ c #CD49CD4CCD48",
"` c #CFE9CFF0CFE7",
"' c #D056D053CFD5",
"] c #D398D3A4D321",
"[ c None",
/* pixels */
"[[[[[[[[[[[[[[[[[[[[[[",
"[[[[[[[[[[``[[[[[[[[[[",
"[[[[[[[](^hwU^'[[[[[[[",
"[[[[[(UIh[[[[3BD^[[[[[",
"[[[(Knw[[[[[[[[*wB^[[[",
"[[QQB[[[[[[[[[[[[qQ^[[",
"[[DsiI[[[[[[[[[[QnhI[[",
"[[Dv[ilU[[[[[[UDZ[hI[[",
"[[DI[[OqDI[[[Kns[[DD[[",
"[[ZZ[[[[<sZAnh[[[[nB[[",
"[[vB[[[[[ 7v4[[[[[BB[[",
"[[sv[[[[[[3h[[[[[[vv[[",
"[[iv[[[[[[7h[[[[[[hh[[",
"[[[h[[[[[[4i[[[[[[s[[[",
"[[[3i[[[[[3w[[[[[wq[[[",
"[[[ +q[[[[<q[[[[qq<[[[",
"[[[[[+<[[[*7[[[74[[[[[",
"[[[[[[o%4[%6[43*[[[[[[",
"[[[[[[[[O**43<[[[[[[[[",
"[[[[[[[[[o%*+[[[[[[[[[",
"[[[[[[[[[[[ [[[[[[[[[[",
"[[[[[[[[[[[[[[[[[[[[[["
};
