/* XPM */
static char *gnome_activity_journal[] = {
/* columns rows colors chars-per-pixel */
"22 22 57 1",
"  c #769376BD7699",
". c #778777A57786",
"X c #7AAC7AB27AA9",
"o c #7C027C0A7C09",
"O c #83F483FF8405",
"+ c #87FF880387FF",
"@ c #8849884E882C",
"# c #895D89698948",
"$ c #8A658A718A56",
"% c #8B948B968B83",
"& c #8C2F8C2A8C1E",
"* c #8F658F718F6D",
"= c #91D391D891DB",
"- c #923A923C9241",
"; c #97949790978E",
": c #9829982C9834",
"> c #99119913991C",
", c #99DD99DE99E8",
"< c #9A549A569A62",
"1 c #9BFC9BFE9C08",
"2 c #9C849C7D9C78",
"3 c #9DDE9DDE9DE6",
"4 c #9E7C9E8E9E91",
"5 c #A092A08AA085",
"6 c #A122A11DA119",
"7 c #A195A18FA18A",
"8 c #A266A25EA256",
"9 c #A4ADA4B0A4C0",
"0 c #A576A577A58A",
"q c #A68BA679A697",
"w c #A7D5A7C2A7E0",
"e c #ADA1ADA6AD97",
"r c #AE36AE3BAE29",
"t c #AE4DAE55AE41",
"y c #B1C9B1CAB1BB",
"u c #B4CBB4C9B4C0",
"i c #B5BEB5C0B5B4",
"p c #B6A5B6AAB690",
"a c #BAA4BAB7BAA9",
"s c #BB31BB2ABB3D",
"d c #BC13BC2ABC24",
"f c #BCDDBCD9BCF3",
"g c #C0A7C0A7C0BC",
"h c #C1D0C1D4C1E7",
"j c #C240C241C25F",
"k c #C536C546C563",
"l c #C70AC701C6DD",
"z c #C770C76AC76A",
"x c #C822C82BC84A",
"c c #C844C85EC879",
"v c #C984C965C97B",
"b c #CA7BCA6DCA64",
"n c #CBFCCBFBCBF6",
"m c #CEC3CEBCCEB4",
"M c #D1F8D1E9D1F9",
"N c #D80FD7FDD816",
"B c None",
/* pixels */
"BBBBBBBBBBBBBBBBBBBBBB",
"BBBBBBBBBBBBBBBBBBBBBB",
"BBBBBBBBBBBBBBBBBBBBBB",
"BBBBBBBBBBBBBBBBBBBBBB",
"BBBBBBBBBBBBBBBBBBBBBB",
"BBBBBBBBNMjvzdvBBBBBBB",
"BBBBBBBMmvBBBBzzBBBBBB",
"BBBBBBvvBBBB8BBBzBBBBB",
"BBBBBjjjBBBfyBBBjjBBBB",
"BBBBBpddBBBppBBBdfBBBB",
"BBBBBpppBBBB2BBByBBBBB",
"BBBBBeeeBBBB1BBeeBBBBB",
"BBBBB2wwwBBBBBBwwBBBBB",
"BBBBBB;8828BB282BBBBBB",
"BBBBBB;1;;1111;BBBBBBB",
"BBBBBB*=====**BBBBBBBB",
"BBBBB@@**@@@OBBBBBBBBB",
"BBBBB  XXXXBBBBBBBBBBB",
"BBBBBBBBBBBBBBBBBBBBBB",
"BBBBBBBBBBBBBBBBBBBBBB",
"BBBBBBBBBBBBBBBBBBBBBB",
"BBBBBBBBBBBBBBBBBBBBBB"
};
