/* XPM */
static char *kommander[] = {
/* columns rows colors chars-per-pixel */
"22 22 78 1",
"  c #52C852C552CC",
". c #54DC54D754C2",
"X c #57C157BE57C7",
"o c #5D755D5C5D73",
"O c #60D060D460C6",
"+ c #61A5616461A5",
"@ c #68E568EC68DE",
"# c #6A6F6A826A72",
"$ c #6DD26DDD6DD7",
"% c #6E616E756E69",
"& c #758875907588",
"* c #786C7853787A",
"= c #799179707985",
"- c #7C587C627C5A",
"; c #7E247E267E1C",
": c #828882A28281",
"> c #840A84168424",
", c #85AD85CB85BD",
"< c #89898993898C",
"1 c #8A6C8A758A62",
"2 c #8BD38BDD8BD7",
"3 c #8C5D8C598C5D",
"4 c #8E068DF78DFB",
"5 c #8E838E8F8E89",
"6 c #8FC08FC98FB8",
"7 c #9092909C908F",
"8 c #916E917D9175",
"9 c #94AA94BB94A1",
"0 c #950495199500",
"q c #96CE96DB96BA",
"w c #975B976A975E",
"e c #986A987D985F",
"r c #99A299A7999B",
"t c #9A8C9A999A91",
"y c #9BAE9BBC9BAC",
"u c #9CF69D009CF3",
"i c #9D159D219D11",
"p c #9D769D789D74",
"a c #A043A03CA043",
"s c #A196A18DA191",
"d c #A21FA21BA224",
"f c #A2B9A2B5A2BB",
"g c #A36AA366A36F",
"h c #A49CA497A49E",
"j c #A7F9A800A7FD",
"k c #A8B4A8B7A8B2",
"l c #A97EA978A975",
"z c #AAE8AAEAAAED",
"x c #ABAAABA5ABA3",
"c c #ACAEACA0ACA7",
"v c #ADD1ADD1ADD2",
"b c #AE76AE77AE78",
"n c #B287B287B28F",
"m c #B3DEB3E3B3ED",
"M c #B453B45AB460",
"N c #B57BB578B57C",
"B c #B7BBB7B3B7B9",
"V c #BA1CBA15BA11",
"C c #BA7BBA82BA75",
"Z c #BC0CBC07BC0A",
"A c #BEADBE73BE99",
"S c #BFEEBFC3BFDD",
"D c #C050C023C03F",
"F c #C096C079C08C",
"G c #C2DCC2CAC2D3",
"H c #C6E9C6E9C6E5",
"J c #C7E9C7E7C7E4",
"K c #C8F5C8CFC8E4",
"L c #CB27CB0FCB1C",
"P c #CB50CB38CB46",
"I c #CBD3CBC4CBC7",
"U c #CC79CC67CC70",
"Y c #CDF0CDE5CDE3",
"T c #D0E8D0DCD0D2",
"R c #D1C5D1C6D1B7",
"E c #D9A3D9A6D99D",
"W c #DC34DC36DC38",
"Q c None",
/* pixels */
"QQQQQQQQQQQQQQQQQQQQQQ",
"QQQQQQQQQQQQQQQQQQQQQQ",
"QQQQQQQQQQQWQQQQQQQQQQ",
"QQQQQQQQQQWWWQQQQQQQQQ",
"QQQQQQQQQRRRUQQQQQQQQQ",
"QQQQQKKUUUKKKUUUUQQQQQ",
"QQQQQNKJKKJJJJKJFQQQQQ",
"QQQQQNFFFz<:uZFDAQQQQQ",
"QQQQQNZZcQQQQ5NZZQQQQQ",
"QQQMmmmmQQQQQQzNNNmQQQ",
"QQQcccccQQQQQQgccccQQQ",
"QQQ7uzhzQQQQQQgzzguQQQ",
"QQQQ@tgggQQQQQggu,QQQQ",
"QQQQQ5uuttQQtutttQQQQQ",
"QQQQQwwtwwwwwwwwwQQQQQ",
"QQQQQ556777575557QQQQQ",
"QQQQQ&$X+-<<,$ o=QQQQQ",
"QQQQQQQQQ.-,=QQQQQQQQQ",
"QQQQQQQQQQ+@QQQQQQQQQQ",
"QQQQQQQQQQQQQQQQQQQQQQ",
"QQQQQQQQQQQQQQQQQQQQQQ",
"QQQQQQQQQQQQQQQQQQQQQQ"
};
