/* XPM */
static char *picasa[] = {
/* columns rows colors chars-per-pixel */
"22 22 99 2",
"   c #454245174514",
".  c #46CD468E468C",
"X  c #473D46FE46FE",
"o  c #484748134812",
"O  c #5166517C5151",
"+  c #5EA35EA75E8C",
"@  c #6A7E6A2D6A49",
"#  c #6DEE6DEE6DD7",
"$  c #6F036EEF6F05",
"%  c #70BE70A070B1",
"&  c #734B72EE730B",
"*  c #73F873AA73C7",
"=  c #79AF79587966",
"-  c #7B477B2C7B34",
";  c #7E3E7DEB7DEB",
":  c #7E647E177E2C",
">  c #845784408441",
",  c #860485DD8622",
"<  c #866C86588674",
"1  c #86F686CD8726",
"2  c #872486FD8757",
"3  c #875A873D877B",
"4  c #881187D68812",
"5  c #88E888AD88F2",
"6  c #894489318931",
"7  c #8BBE8B9E8BB1",
"8  c #8C4B8C268C41",
"9  c #8D248D1F8D24",
"0  c #8E8D8E7C8E8E",
"q  c #8FB28FAD8FBD",
"w  c #90A9908B90B2",
"e  c #91AC91AA91A0",
"r  c #922E922C9223",
"t  c #93A2939693A9",
"y  c #947A947594A6",
"u  c #952D952B9577",
"i  c #971A96F0972F",
"p  c #98F898E89935",
"a  c #99F899E49A09",
"s  c #9C1A9BDC9C2F",
"d  c #9C759C349C8E",
"f  c #9DEE9DEA9DEC",
"g  c #9EF69EF69F0C",
"h  c #9F6D9F2A9F56",
"j  c #A044A022A040",
"k  c #A23BA1FBA20C",
"l  c #A309A2DDA2E5",
"z  c #A457A42CA423",
"x  c #A496A495A4A1",
"c  c #A61AA618A627",
"v  c #A71EA71AA727",
"b  c #A7C9A7C7A7D2",
"n  c #A995A96EA98B",
"m  c #AAFDAAF7AAEE",
"M  c #ABF6ABF8ABF5",
"N  c #ADA5ADAAADB2",
"B  c #AEC6AEDBAED6",
"V  c #AF82AF78AF89",
"C  c #B11FB0F9B124",
"Z  c #B188B193B194",
"A  c #B22BB21CB23C",
"S  c #B280B296B28A",
"D  c #B441B42CB444",
"F  c #B4CFB4DFB4DA",
"G  c #B594B59AB596",
"H  c #B65DB661B65C",
"J  c #B9BCB9C8B9BB",
"K  c #BACFBAC9BACE",
"L  c #BBCCBBCABBBE",
"P  c #BDCFBDD3BDCE",
"I  c #BEEFBEF2BEEF",
"U  c #BFB4BFB1BFB2",
"Y  c #C085C088C07D",
"T  c #C22DC22DC231",
"R  c #C43CC440C445",
"E  c #C4D8C4D1C4EE",
"W  c #C5EEC5D7C616",
"Q  c #C63CC62DC65D",
"!  c #C6D9C6D9C6E9",
"~  c #C7CFC7C0C7E5",
"^  c #C914C917C91A",
"/  c #C938C920C94A",
"(  c #C95FC93BC96A",
")  c #C9DFC9CBC9F5",
"_  c #CB0FCB03CB26",
"`  c #CB42CB35CB59",
"'  c #CCE7CCF2CCE4",
"]  c #CEECCEF1CEE2",
"[  c #CFD8CFE0CFCE",
"{  c #D091D09FD08C",
"}  c #D1A2D1ADD1A1",
"|  c #D280D28BD27F",
" . c #D3F3D3FAD3F8",
".. c #D450D460D454",
"X. c #D611D61FD614",
"o. c #DA1ADA19DA22",
"O. c #DAEEDAF3DAF3",
"+. c #DBF1DBF3DBF3",
"@. c None",
/* pixels */
"@.@.@.@.@.@.@.@.@.@.@.@.@.@.@.@.@.@.@.@.@.@.",
"@.@.@.@.@.@.@.@.@.+.+.+.+.@.@.@.@.@.@.@.@.@.",
"@.@.@.@.@.@.@.@.H { +.+.+.+.+.@.@.@.@.@.@.@.",
"@.@.@.@.{ { X.{ - h _ X.{ X.{ @.] @.@.@.@.@.",
"@.@.@.@.{ { ] ] { % 0 P { { ] @.E ] @.@.@.@.",
"@.@.@.E _ _ _ _ ] E @.m L _ _ @.Y _ _ @.@.@.",
"@.@.Y E R E E E L P @.@.j S E @.P E E E @.@.",
"@.@.P Y P Y Y S @.@.@.@.@.j m @.L Y Y P @.@.",
"@.@.L L L L m @.@.@.@.@.@.@.@.@.S L L L @.@.",
"@.@.H H S c a @.@.@.@.@.@.@.@.@.V H H S @.@.",
"@.@.V V b @.@.@.@.@.@.@.@.@.@.@.m S V S @.@.",
"@.@.c c @.@.@.@.@.@.@.@.@.@.@.@.j V m m @.@.",
"@.@.a @.c c @.@.@.@.@.@.@.@.@.@.h c c c @.@.",
"@.@.@.@.j h @.@.@.@.@.@.@.@.@.@.0 7 > y @.@.",
"@.@.t a h a @.@.@.@.@.@.@.@.@.@.@.+ O @.@.@.",
"@.@.4 0 y y @.@.t y y y y t y @.0 0 t @.@.@.",
"@.@.@.> 0 t @.t t t 0 t t 0 t w t 0 0 @.@.@.",
"@.@.@.@.# > @.7 7 0 7 7 7 7 0 0 7 > @.@.@.@.",
"@.@.@.@.@.@.@.> 4 > 7 > > 4 > - = @.@.@.@.@.",
"@.@.@.@.@.@.@.@ * - - - - * % @.@.@.@.@.@.@.",
"@.@.@.@.@.@.@.@.@.. . o o @.@.@.@.@.@.@.@.@.",
"@.@.@.@.@.@.@.@.@.@.@.@.@.@.@.@.@.@.@.@.@.@."
};
