/* XPM */
static char *python[] = {
/* columns rows colors chars-per-pixel */
"22 22 71 1",
"  c #71F771F67203",
". c #7798779677B3",
"X c #797E79727975",
"o c #7ADA7AD17AD5",
"O c #7B7B7B727B72",
"+ c #7C4B7C3D7C37",
"@ c #7D697D597D4F",
"# c #7EDF7EDD7ECE",
"$ c #69F8A8D7BFE2",
"% c #7BF0B7B1CDAD",
"& c #8153816B8163",
"* c #82AA82C182C2",
"= c #831E831582DC",
"- c #83C583DB83CC",
"; c #83EC84048404",
": c #8566855B8525",
"> c #8614861485DE",
", c #871787368737",
"< c #88AB88A58877",
"1 c #89D289D389B5",
"2 c #8AD78AC98A8F",
"3 c #8B808B778B63",
"4 c #8CBF8CAE8CA2",
"5 c #8D178CE28CE5",
"6 c #8DBD8DA48DA4",
"7 c #8F458F1C8F19",
"8 c #9083904A9040",
"9 c #93E493A793B2",
"0 c #94BA949D9490",
"q c #959E956B9561",
"w c #97AF979597A4",
"e c #982B98149822",
"r c #98BB98A398BC",
"t c #9C899C849CC1",
"y c #9EAF9EAA9EEF",
"u c #9EDB9EDC9F21",
"i c #9FC49FAB9FC5",
"p c #802AAC88BDC4",
"a c #A1E8A1FDA23C",
"s c #A33AA362A38E",
"d c #A67AA6AAA6BF",
"f c #A7B8A7F4A7F1",
"g c #A8A1A8A8A8DF",
"h c #A9DAA9ECA9F4",
"j c #AF2EB15CB23E",
"k c #B39DB3B1B3BA",
"l c #B418B4C4B507",
"z c #B47CB4B8B4C2",
"x c #B747B7D9B819",
"c c #B723BCB4BEFC",
"v c #B8DCB919B929",
"b c #B9E0BA09BA1C",
"n c #BAB3BA32BA00",
"m c #BE49BE10BDF6",
"M c #BE9EBEBBBECE",
"N c #C00AC029C035",
"B c #B58EC239C72E",
"V c #B2FDCCA0D600",
"C c #C145C13DC13F",
"Z c #C1B7C1B3C1B2",
"A c #C2A7C2A9C2AA",
"S c #C39FC3AAC3B4",
"D c #C5EFC5F2C5F6",
"F c #C70FC709C70F",
"G c #C798C796C798",
"H c #C983C97FC981",
"J c #CA6BCA67CA63",
"K c #CD2ACD2ECD32",
"L c #CDCDCDD1CDD8",
"P c #D36CD365D35C",
"I c None",
/* pixels */
"IIIIIIIIIIIIIIIIIIIIII",
"IIIIIIIIIIIIIIIIIIIIII",
"IIIIIIIIIIIIIIIIIIIIII",
"IIIIIIIIIIIIIIIIIIIIII",
"IIIIIIIIIIIIIIIIIIIIII",
"IIIIIIIIIIISKIIIIIIIII",
"IIIPHGGKKKGSIInSIIIIII",
"IIGHSSSMMGSxBVIIMcIIII",
"IImmnIIIknIIp%$IIkkIII",
"IIIIIIIIkkIIIIIIIIifII",
"IIhIIIIIdhhIIIIIIIIiII",
"IasddIII9eytyIIIIIIIrI",
"IqrrqqIII343344IIIII9I",
"I556555<<33III#--->><I",
"I&--@&$--IIIIIIII O#II",
"IXXo.  IIIIIIIIIIIIIII",
"IIIIIIIIIIIIIIIIIIIIII",
"IIIIIIIIIIIIIIIIIIIIII",
"IIIIIIIIIIIIIIIIIIIIII",
"IIIIIIIIIIIIIIIIIIIIII",
"IIIIIIIIIIIIIIIIIIIIII",
"IIIIIIIIIIIIIIIIIIIIII"
};
