/* XPM */
static char *terminal[] = {
/* columns rows colors chars-per-pixel */
"22 22 67 1",
"  c #66A566A766A2",
". c #6737673D6733",
"X c #6E486E526E47",
"o c #761575A275A4",
"O c #768576167618",
"+ c #77C677677771",
"@ c #7E317E457E3F",
"# c #803B80258009",
"$ c #87EC87D387A1",
"% c #890888FC88F9",
"& c #8AE08AE08AB4",
"* c #8E868E7E8E7B",
"= c #905190268FE4",
"- c #9032902C9025",
"; c #9160912890C9",
": c #9196919B917D",
"> c #924F924F9239",
", c #95BC956E9504",
"< c #95E595D295A5",
"1 c #96B59680961C",
"2 c #96F69709971C",
"3 c #97A697BF97D2",
"4 c #980698159824",
"5 c #98C598C098BC",
"6 c #98D4990F991C",
"7 c #98F499369942",
"8 c #998E997C9978",
"9 c #9AFC9B159B21",
"0 c #9B539B9A9B96",
"q c #9D1B9D309D05",
"w c #9D2A9D429D17",
"e c #9DDB9DA79D4F",
"r c #9E129E419E3E",
"t c #9E719E579E64",
"y c #A196A1ACA1BC",
"u c #A3C6A3E4A3CD",
"i c #A648A65CA639",
"p c #A787A7B0A775",
"a c #A9A1A9C9A98D",
"s c #ABFDAC24ABF1",
"d c #ACDEACF9ACB4",
"f c #AD37AD58AD0F",
"g c #AE73AE9CAE61",
"h c #B10CB132B106",
"j c #B116B128B13C",
"k c #B150B172B14F",
"l c #B3FEB478B481",
"z c #B4A5B4A1B499",
"x c #B5E6B624B5E9",
"c c #B745B72DB72A",
"v c #B777B75FB74E",
"b c #B887B895B83B",
"n c #BA7FBA8DBABF",
"m c #BBBBBBC2BB63",
"M c #BE60BE78BE9C",
"N c #BFA8BFEDC00B",
"B c #C184C148C186",
"V c #C216C244C247",
"C c #C291C2E7C302",
"Z c #C33CC3B2C3B2",
"A c #C39AC3FEC409",
"S c #C7B5C80CC824",
"D c #C8EBC955C95E",
"F c #CD41CD75CD8F",
"G c #D18CD18ED1A2",
"H c #D411D441D44B",
"J c None",
/* pixels */
"JJJJJJJJJJJJJJJJJJJJJJ",
"JJJJJJJJJJJJJJJJJJJJJJ",
"JJJJJJJJJJJJJJJJJJJJJJ",
"JJJJJJJJJJJJJJJJJJJJJJ",
"JJGh299992949229229AGJ",
"JJD9JJJJJJJJJJJJJJJzFJ",
"JJSAJJJJJJJJJJJJJJJASJ",
"JJAmJJzAJJJJJJJJJJJNNJ",
"JJNzJJ@%tmJJJJJJJJJNmJ",
"JJmhJJJJ>pJJJJJJJJJzzJ",
"JJzgJJst$JJJJJJJJJJhgJ",
"JJgpJJJJJJJJJJJJJJJssJ",
"JJsyJJJJJJJJJJJJJJJppJ",
"JJytJJJJJJJJJJJJJJJyyJ",
"JJt2JJJJJJJJJJJJJJJ0tJ",
"JJ9>JJJJJJJ@++++JJJ22J",
"JJ2=JJJJJJJJJJJJJJJ>>J",
"JJ%>>>>>>>>>>>>>>>***J",
"JJJ................XJJ",
"JJJJJJJJJJJJJJJJJJJJJJ",
"JJJJJJJJJJJJJJJJJJJJJJ",
"JJJJJJJJJJJJJJJJJJJJJJ"
};
