/* XPM */
static char *uextras[] = {
/* columns rows colors chars-per-pixel */
"22 22 70 1",
"  c #629762A762B8",
". c #675F6766677D",
"X c #67F867E967F9",
"o c #6D0E6D146D34",
"O c #6F136F006F28",
"+ c #721171F97221",
"@ c #7583758675A6",
"# c #76C176CB76D8",
"$ c #77817767779A",
"% c #787278537886",
"& c #79497958796B",
"* c #7C6D7C637C66",
"= c #8276826E829A",
"- c #83ED83EB83EE",
"; c #840883E7841F",
": c #850D850A852D",
"> c #873D87338747",
", c #8B4D8B4C8B6F",
"< c #8DF38DF38E12",
"1 c #920C920191FA",
"2 c #925492529271",
"3 c #943694399454",
"4 c #95B995B895CE",
"5 c #964B963E963D",
"6 c #974A974D974F",
"7 c #98C198BE98C6",
"8 c #99BF99BB99B4",
"9 c #9B669B689B6F",
"0 c #9DDF9DEB9DFF",
"q c #9F7B9F879FA7",
"w c #A2F4A2F6A2C0",
"e c #A47BA481A45D",
"r c #A5C8A5D2A5E7",
"t c #A70FA716A706",
"y c #A894A88BA8E5",
"u c #A957A957A907",
"i c #A9B1A9B1A971",
"p c #AC4EAC12AC3C",
"a c #ACD3ACD6ACAF",
"s c #AD9AAD9BAD97",
"d c #AEB5AEA6AF04",
"f c #B426B41EB42C",
"g c #B45EB44DB453",
"h c #B7E6B798B7D1",
"j c #B8F8B8E4B8CA",
"k c #B98AB961B954",
"l c #BDF4BDD4BDF2",
"z c #BE89BE05BE75",
"x c #BEE1BE72BEE3",
"c c #C0E1C061C0DB",
"v c #C303C266C306",
"b c #C34DC2A1C353",
"n c #C40AC3E6C3F6",
"m c #C640C59DC63D",
"M c #C6C1C62CC6BD",
"N c #C7F2C776C7F0",
"B c #C89FC843C89D",
"V c #C910C8BFC915",
"C c #CA9CCA76CA9C",
"Z c #CCCECCBCCCCA",
"A c #CE36CE29CE34",
"S c #CF46CF39CF43",
"D c #D20CD20DD208",
"F c #D35BD367D35B",
"G c #D4D0D4E3D4D2",
"H c #D609D607D616",
"J c #D70DD71BD716",
"K c #D747D759D750",
"L c #D8B6D8C8D8C4",
"P c None",
/* pixels */
"PPPPPPPPPPPPPPPPPPPPPP",
"PPPPPPPPPPPPPPPPPPPPPP",
"PPPPPPPPPPPPPPPPPPPPPP",
"PPPPKKLPPPPPPPKKKPPPPP",
"PPPPDDDPPPPPPPDDPPPPPP",
"PPPPZZZPPPPPPPZZPPPPPP",
"PPPPNNBPPPPPPPBNPPPPPP",
"PPPPbbPPPbKLPPbbPPPPPP",
"PPPPlllPPPCKDPllPPPPPP",
"PPPPkkknCPCZZPkkPPPPPP",
"PPPPggPPbbNNPPggPPPPPP",
"PPPPddPPPpgllPddPPPPPP",
"PPPPpyyPPP1dkPptPPPPPP",
"PPPPwtwPPPPPppttPPPPPP",
"PPPP8q0PPPPP3wt0PPPPPP",
"PPPPP808PPPPP,00PPPPPP",
"PPPPP:333PPP1:,68PPPPP",
"PPPPP &113311,+*1PPPPP",
"PPPPPPPXo$&$oXP+:=PPPP",
"PPPPPPPPPPPPPPPP$$PPPP",
"PPPPPPPPPPPPPPPPPPPPPP",
"PPPPPPPPPPPPPPPPPPPPPP"
};
