/* XPM */
static char *terminal[] = {
/* columns rows colors chars-per-pixel */
"24 24 74 1",
"  c #50AC50AA50A9",
". c #5154515D5159",
"X c #51CF51DE51D6",
"o c #520F52175210",
"O c #536153685366",
"+ c #5439543D543C",
"@ c #56EB56EE56EF",
"# c #5E075E245E1A",
"$ c #61A261C961AB",
"% c #6383639E6387",
"& c #75AF7540754C",
"* c #762375B175B4",
"= c #767675F875FD",
"- c #79EC79A779BA",
"; c #8049802D803A",
": c #812180A580A6",
"> c #81B181A98188",
", c #8282827F82A5",
"< c #89B989CB89BA",
"1 c #8C1C8C138C11",
"2 c #8D6D8D718D70",
"3 c #8E1C8E128E0B",
"4 c #8E918E918E8F",
"5 c #8F108F0C8EF8",
"6 c #8F778F788F69",
"7 c #909790B29094",
"8 c #9183913B90D1",
"9 c #939393949336",
"0 c #941A941F93CF",
"q c #9616956D9573",
"w c #9899984397D9",
"e c #988C9852982A",
"r c #9AB59A8F9A97",
"t c #9D589CBE9CD7",
"y c #9D919CFF9D4B",
"u c #9F2F9F7C9F71",
"i c #A191A18AA15E",
"p c #A21CA21CA233",
"a c #A26FA263A25D",
"s c #A3BCA3EEA3EC",
"d c #A6DDA6F7A6C7",
"f c #A7B9A7CCA766",
"g c #A87FA8C3A877",
"h c #ABB2ABEFABB4",
"j c #AD6FAD87AD40",
"k c #B087B0B9B081",
"l c #B213B1FCB188",
"z c #B23AB1F5B228",
"x c #B4E6B54CB51A",
"c c #B526B55DB536",
"v c #B575B5D0B579",
"b c #B6ACB664B60A",
"n c #B6F5B6D3B6F9",
"m c #BA3CBA39B9A5",
"M c #BA67BA70B9D6",
"N c #BB07BAC7BAFF",
"B c #BDD8BDB1BD2B",
"V c #BEF9BEE2BEBA",
"C c #BF87BF98BFD0",
"Z c #C046C0ECC0D3",
"A c #C0F3C169C160",
"S c #C3E5C3A1C3E4",
"D c #C543C5AAC5E1",
"F c #C8D9C8F5C918",
"G c #C9BEC9C0C9C1",
"H c #CAD7CADBCADA",
"J c #CBA1CB9FCB9E",
"K c #CCBCCD64CD6F",
"L c #CFB2CFFDD019",
"P c #D311D2EAD317",
"I c #D3C5D3EFD400",
"U c #D4A9D4BCD4BC",
"Y c #D802D7E6D7FC",
"T c None",
/* pixels */
"TTTTTTTTTTTTTTTTTTTTTTTT",
"TTTTTTTTTTTTTTTTTTTTTTTT",
"TTTTTTTTTTTTTTTTTTTTTTTT",
"TTTTTTTTTTTTTTTTTTTTTTTT",
"TTYIFKFKJJFJFJFFFFFFFYTT",
"TTIpO++++++++++++++o%ZIT",
"TTKZTTTTTTTTTTTTTTTTTDFT",
"TTFCTTTTTTTTTTTTTTTTTZZT",
"TTDMTTknSTTTTTTTTTTTTCCT",
"TTCnTTT#>pCTTTTTTTTTTMMT",
"TTMkTTTTT7fTTTTTTTTTTnxT",
"TTnjTTkdw>TTTTTTTTTTTkjT",
"TTkgTTTTTTTTTTTTTTTTTjgT",
"TTjpTTTTTTTTTTTTTTTTTdgT",
"TTduTTTTTTTTTTTTTTTTTppT",
"TTprTTTTTTTTTTTTTTTTTuuT",
"TTt0TTTTTTTT>****-TTTwwT",
"TTr8TTTTTTTTTTTTTTTTT08T",
"TT06TTTTTTTTTTTTTTTTT68T",
"TT>6666666666666666111TT",
"TTT+oooooooooooooooo+%TT",
"TTTTTTTTTTTTTTTTTTTTTTTT",
"TTTTTTTTTTTTTTTTTTTTTTTT",
"TTTTTTTTTTTTTTTTTTTTTTTT"
};
