<?xml version="1.0" encoding="UTF-8" standalone="no"?>
<svg
   xmlns:dc="http://purl.org/dc/elements/1.1/"
   xmlns:cc="http://creativecommons.org/ns#"
   xmlns:rdf="http://www.w3.org/1999/02/22-rdf-syntax-ns#"
   xmlns:svg="http://www.w3.org/2000/svg"
   xmlns="http://www.w3.org/2000/svg"
   xmlns:xlink="http://www.w3.org/1999/xlink"
   xmlns:sodipodi="http://sodipodi.sourceforge.net/DTD/sodipodi-0.dtd"
   xmlns:inkscape="http://www.inkscape.org/namespaces/inkscape"
   width="64"
   version="1.1"
   viewBox="0 0 64 64"
   height="64"
   id="svg2"
   inkscape:version="0.91 r13725"
   sodipodi:docname="application-sql.svg">
  <sodipodi:namedview
     pagecolor="#ffffff"
     bordercolor="#666666"
     borderopacity="1"
     objecttolerance="10"
     gridtolerance="10"
     guidetolerance="10"
     inkscape:pageopacity="0"
     inkscape:pageshadow="2"
     inkscape:window-width="1366"
     inkscape:window-height="703"
     id="namedview24"
     showgrid="false"
     inkscape:zoom="3.6875"
     inkscape:cx="32"
     inkscape:cy="32"
     inkscape:window-x="0"
     inkscape:window-y="0"
     inkscape:window-maximized="1"
     inkscape:current-layer="svg2" />
  <defs
     id="defs4">
    <linearGradient
       inkscape:collect="always"
       xlink:href="#linearGradient4300-1"
       id="linearGradient4306"
       y1="61"
       y2="3"
       x2="0"
       gradientUnits="userSpaceOnUse" />
    <linearGradient
       inkscape:collect="always"
       xlink:href="#linearGradient4410"
       id="linearGradient4427"
       y1="31"
       x1="54"
       y2="17"
       x2="40"
       gradientUnits="userSpaceOnUse"
       gradientTransform="matrix(1 0 0 -1 -14 78)" />
    <linearGradient
       inkscape:collect="always"
       id="linearGradient4410">
      <stop
         style="stop-color:#383e51"
         id="stop4412" />
      <stop
         offset="1"
         style="stop-color:#655c6f;stop-opacity:0"
         id="stop4414" />
    </linearGradient>
    <linearGradient
       inkscape:collect="always"
       xlink:href="#linearGradient4351-2"
       id="linearGradient4357"
       y1="61"
       y2="47"
       x2="0"
       gradientUnits="userSpaceOnUse" />
    <linearGradient
       inkscape:collect="always"
       id="linearGradient4351-2">
      <stop
         style="stop-color:#d3bdd7"
         id="stop4353-8" />
      <stop
         offset="1"
         style="stop-color:#e8d9eb"
         id="stop4355-6" />
    </linearGradient>
    <linearGradient
       inkscape:collect="always"
       id="linearGradient4300-1">
      <stop
         style="stop-color:#8e44ad"
         id="stop4302-0" />
      <stop
         offset="1"
         style="stop-color:#9b59b6"
         id="stop4304-6" />
    </linearGradient>
  </defs>
  <metadata
     id="metadata84">
    <rdf:RDF>
      <cc:Work
         rdf:about="">
        <dc:format>image/svg+xml</dc:format>
        <dc:type
           rdf:resource="http://purl.org/dc/dcmitype/StillImage" />
      </cc:Work>
    </rdf:RDF>
  </metadata>
  <path
     style="fill:url(#linearGradient4306)"
     id="rect3500"
     d="M 10 3 L 10 61 L 40 61 L 54 47 L 54 17 L 54 3 L 40 3 L 10 3 z " />
  <rect
     width="30"
     x="10"
     y="60"
     height="1"
     style="fill:#2e3132;fill-opacity:0.294118"
     id="rect4169" />
  <rect
     width="44"
     x="10"
     y="3"
     height="1"
     style="fill:#ffffff;fill-opacity:0.409836"
     id="rect4236" />
  <path
     inkscape:connector-curvature="0"
     style="fill:url(#linearGradient4357);fill-rule:evenodd"
     id="path4314"
     d="M 54,47 40,61 40,47 Z" />
  <path
     inkscape:connector-curvature="0"
     style="fill:url(#linearGradient4427);opacity:0.2;fill-rule:evenodd"
     id="path4320"
     d="M 26,61 40,47 40,61 Z" />
  <path
     style="fill:#e8d9eb"
     id="rect4185"
     d="M 32 21 A 11 3 0 0 0 21 24 L 21 29 L 21 35 L 21 40 A 11 3 0 0 0 32 43 A 11 3 0 0 0 43 40 L 43 35 L 43 29 L 43 24 A 11 3 0 0 0 32 21 z M 32 22 A 10 2 0 0 1 42 24 A 10 2 0 0 1 32 26 A 10 2 0 0 1 22 24 A 10 2 0 0 1 32 22 z M 22 25.242188 A 11 3 0 0 0 32 27 A 11 3 0 0 0 42 25.242188 L 42 29 A 10 2 0 0 1 32 31 A 10 2 0 0 1 22 29 L 22 25.242188 z M 22 30.242188 A 11 3 0 0 0 32 32 A 11 3 0 0 0 42 30.242188 L 42 35 A 10 2 0 0 1 32 37 A 10 2 0 0 1 22 35 L 22 30.242188 z M 22 36.242188 A 11 3 0 0 0 32 38 A 11 3 0 0 0 42 36.242188 L 42 39 L 42 40 A 10 2 0 0 1 32 42 A 10 2 0 0 1 22 40 L 22 39 L 22 36.242188 z " />
  <g
     style="font-style:normal;font-weight:normal;font-size:40px;line-height:125%;font-family:sans-serif;letter-spacing:0px;word-spacing:0px;fill:#000000;fill-opacity:1;stroke:none;stroke-width:1px;stroke-linecap:butt;stroke-linejoin:miter;stroke-opacity:1"
     id="text4152">
    <path
       id="path4245"
       style="font-style:normal;font-variant:normal;font-weight:bold;font-stretch:normal;font-size:12.5px;font-family:Roboto;-inkscape-font-specification:'Roboto Bold';letter-spacing:2px;fill:#e8d9eb;fill-opacity:1"
       d="m 41.327271,14.309522 3.955078,0 0,1.367188 -5.737305,0 0,-8.8867192 1.782227,0 0,7.5195312 z m -5.22876,-2.276611 q 0,0.915527 -0.335694,1.66626 -0.329589,0.744629 -0.958252,1.269531 l 1.458741,1.263428 -1.135254,0.970459 -1.727295,-1.525879 q -0.244141,0.06103 -0.500488,0.09155 -0.250245,0.03662 -0.524903,0.03662 -1.672363,0 -2.685547,-1.055909 -1.00708,-1.062011 -1.00708,-2.716064 l 0,-1.599121 q 0,-1.6479496 1.00708,-2.7099613 1.00708,-1.0620117 2.679444,-1.0620117 1.68457,0 2.703857,1.0620117 1.025391,1.0620117 1.025391,2.7099613 l 0,1.599121 z m -1.782227,-1.611328 q 0,-1.0437016 -0.512695,-1.7028812 -0.512695,-0.6652832 -1.434326,-0.6652832 -0.921631,0 -1.416016,0.6591796 -0.494385,0.6591797 -0.494385,1.7089848 l 0,1.611328 q 0,1.062012 0.494385,1.727295 0.500488,0.65918 1.422119,0.65918 0.927735,0 1.434326,-0.65918 0.506592,-0.665283 0.506592,-1.727295 l 0,-1.611328 z m -10.483887,2.935791 q 0,-0.524903 -0.354003,-0.823975 -0.354004,-0.305176 -1.281739,-0.585937 -1.617431,-0.463867 -2.416992,-1.080323 -0.793457,-0.616455 -0.793457,-1.7272947 0,-1.1108398 0.915527,-1.7944336 0.921631,-0.6835937 2.392579,-0.6835937 1.495361,0 2.404785,0.769043 0.915527,0.7690429 0.915527,1.965332 l -1.782227,0 q 0,-0.6286621 -0.402832,-1.0009766 -0.402832,-0.3784179 -1.159668,-0.3784179 -0.732421,0 -1.116943,0.3173828 -0.384521,0.3112793 -0.384521,0.8117675 0,0.4638672 0.408935,0.744629 0.408936,0.2807612 1.452637,0.6103512 1.495361,0.421143 2.23999,1.074219 0.744629,0.653076 0.744629,1.77002 0,1.165771 -0.88501,1.812744 -0.88501,0.646973 -2.392578,0.646973 -1.483154,0 -2.551269,-0.738526 -1.068116,-0.738525 -1.068116,-2.142334 l 1.782227,0 q 0,0.811768 0.476074,1.171875 0.476074,0.360108 1.361084,0.360108 0.744629,0 1.116943,-0.292969 0.378418,-0.299072 0.378418,-0.805664 z"
       inkscape:connector-curvature="0" />
  </g>
</svg>
