<?xml version="1.0" encoding="UTF-8" standalone="no"?>
<svg
   xmlns:dc="http://purl.org/dc/elements/1.1/"
   xmlns:cc="http://creativecommons.org/ns#"
   xmlns:rdf="http://www.w3.org/1999/02/22-rdf-syntax-ns#"
   xmlns:svg="http://www.w3.org/2000/svg"
   xmlns="http://www.w3.org/2000/svg"
   xmlns:xlink="http://www.w3.org/1999/xlink"
   xmlns:sodipodi="http://sodipodi.sourceforge.net/DTD/sodipodi-0.dtd"
   xmlns:inkscape="http://www.inkscape.org/namespaces/inkscape"
   viewBox="0 0 64 64"
   id="svg2"
   version="1.1"
   inkscape:version="0.91 r13725"
   sodipodi:docname="application-x-php.svg"
   width="64"
   height="64">
  <metadata
     id="metadata84">
    <rdf:RDF>
      <cc:Work
         rdf:about="">
        <dc:format>image/svg+xml</dc:format>
        <dc:type
           rdf:resource="http://purl.org/dc/dcmitype/StillImage" />
        <dc:title />
      </cc:Work>
    </rdf:RDF>
  </metadata>
  <sodipodi:namedview
     pagecolor="#ffffff"
     bordercolor="#666666"
     borderopacity="1"
     objecttolerance="10"
     gridtolerance="10000"
     guidetolerance="10"
     inkscape:pageopacity="0"
     inkscape:pageshadow="2"
     inkscape:window-width="1366"
     inkscape:window-height="699"
     id="namedview82"
     showgrid="true"
     inkscape:showpageshadow="false"
     inkscape:zoom="3.9711774"
     inkscape:cx="-22.394836"
     inkscape:cy="60.178362"
     inkscape:window-x="0"
     inkscape:window-y="0"
     inkscape:window-maximized="1"
     inkscape:current-layer="svg2"
     showguides="true">
    <inkscape:grid
       type="xygrid"
       id="grid3413" />
    <sodipodi:guide
       position="0,64"
       orientation="64,0"
       id="guide3482" />
    <sodipodi:guide
       position="0,0"
       orientation="0,64"
       id="guide3484" />
    <sodipodi:guide
       position="64,0"
       orientation="-64,0"
       id="guide3486" />
    <sodipodi:guide
       position="64,64"
       orientation="0,-64"
       id="guide3488" />
    <sodipodi:guide
       position="10,61"
       orientation="58,0"
       id="guide3492" />
    <sodipodi:guide
       position="10,3"
       orientation="0,44"
       id="guide3494" />
    <sodipodi:guide
       position="54,3"
       orientation="-58,0"
       id="guide3496" />
    <sodipodi:guide
       position="54,61"
       orientation="0,-44"
       id="guide3498" />
    <sodipodi:guide
       position="54,47"
       orientation="-14,0"
       id="guide4310" />
    <sodipodi:guide
       position="54,61"
       orientation="0,-14"
       id="guide4312" />
    <sodipodi:guide
       position="21,43"
       orientation="22,0"
       id="guide4250" />
    <sodipodi:guide
       position="21,21"
       orientation="0,22"
       id="guide4252" />
    <sodipodi:guide
       position="43,21"
       orientation="-22,0"
       id="guide4254" />
    <sodipodi:guide
       position="43,43"
       orientation="0,-22"
       id="guide4256" />
  </sodipodi:namedview>
  <defs
     id="defs4">
    <linearGradient
       inkscape:collect="always"
       id="linearGradient4351">
      <stop
         style="stop-color:#444e7e;stop-opacity:1"
         offset="0"
         id="stop4353" />
      <stop
         style="stop-color:#5a669e;stop-opacity:1"
         offset="1"
         id="stop4355" />
    </linearGradient>
    <linearGradient
       inkscape:collect="always"
       id="linearGradient4300">
      <stop
         style="stop-color:#8892bf;stop-opacity:1"
         offset="0"
         id="stop4302" />
      <stop
         style="stop-color:#939dc9;stop-opacity:1"
         offset="1"
         id="stop4304" />
    </linearGradient>
    <linearGradient
       inkscape:collect="always"
       xlink:href="#linearGradient4300"
       id="linearGradient4306"
       x1="32"
       y1="61"
       x2="32"
       y2="3"
       gradientUnits="userSpaceOnUse" />
    <linearGradient
       gradientTransform="matrix(1,0,0,-1,-14,78)"
       inkscape:collect="always"
       xlink:href="#linearGradient4410"
       id="linearGradient4427"
       x1="54"
       y1="31"
       x2="40"
       y2="17"
       gradientUnits="userSpaceOnUse" />
    <linearGradient
       inkscape:collect="always"
       id="linearGradient4410">
      <stop
         style="stop-color:#383e51;stop-opacity:1"
         offset="0"
         id="stop4412" />
      <stop
         style="stop-color:#655c6f;stop-opacity:0"
         offset="1"
         id="stop4414" />
    </linearGradient>
    <linearGradient
       inkscape:collect="always"
       xlink:href="#linearGradient4351"
       id="linearGradient4357"
       x1="47"
       y1="61"
       x2="47"
       y2="47"
       gradientUnits="userSpaceOnUse" />
  </defs>
  <path
     style="fill:url(#linearGradient4306);fill-opacity:1;stroke:none"
     d="M 10 3 L 10 61 L 40 61 L 54 47 L 54 17 L 54 3 L 40 3 L 10 3 z "
     id="rect3500" />
  <rect
     style="opacity:1;fill:#2e3132;fill-opacity:0.29411765;stroke:none"
     id="rect4169"
     width="30"
     height="1"
     x="10"
     y="60" />
  <rect
     style="opacity:1;fill:#ffffff;fill-opacity:0.40983605;stroke:none"
     id="rect4236"
     width="44"
     height="1"
     x="10"
     y="3" />
  <path
     style="fill:url(#linearGradient4357);fill-opacity:1;fill-rule:evenodd;stroke:none;stroke-width:1px;stroke-linecap:butt;stroke-linejoin:miter;stroke-opacity:1"
     d="M 54,47 40,61 40,47 Z"
     id="path4314"
     inkscape:connector-curvature="0" />
  <path
     inkscape:connector-curvature="0"
     id="path4320"
     d="M 26,61 40,47 40,61 Z"
     style="opacity:0.2;fill:url(#linearGradient4427);fill-opacity:1;fill-rule:evenodd;stroke:none;stroke-width:1px;stroke-linecap:butt;stroke-linejoin:miter;stroke-opacity:1" />
  <g
     transform="matrix(1.3626943,0,0,1.3626943,-0.20087742,-0.80369068)"
     id="g10">
    <path
       d="m 37.627,26.949 c 0,5.5603 -6.693,10.068 -14.949,10.068 -8.2562,0 -14.949,-4.5075 -14.949,-10.068 0,-5.5603 6.693,-10.068 14.949,-10.068 8.2562,0 14.949,4.5075 14.949,10.068 z"
       transform="matrix(0.80272,0,0,0.79461,5.7959,2.5859)"
       id="path12"
       inkscape:connector-curvature="0"
       style="fill:#ffffff;fill-rule:evenodd" />
  </g>
  <g
     transform="matrix(1.0901554,0,0,0.9733589,6.3400526,5.6204601)"
     id="g14"
     style="fill:#919bc7;fill-opacity:1">
    <path
       d="m 19.79,22.851 c 0.63964,8e-6 1.1435,0.2461 1.5115,0.73828 0.37239,0.48764 0.55859,1.1712 0.5586,2.0508 -7e-6,0.87045 -0.15116,1.709 -0.45345,2.5156 -0.29793,0.80209 -0.70756,1.4401 -1.2289,1.9141 -0.52136,0.4694 -1.0953,0.7041 -1.7218,0.7041 -0.36364,0 -0.67689,-0.08431 -0.93976,-0.25293 -0.26287,-0.16862 -0.50603,-0.45573 -0.72946,-0.86133 l -0.05257,0 c -0.05257,0.72461 -0.14677,1.3968 -0.28258,2.0166 l -0.473,2.323 -1.9781,0 2.2475,-11.006 1.5115,0 -0.11172,1.1621 0.05915,0 c 0.6046,-0.87044 1.299,-1.3057 2.0832,-1.3057 m -0.79518,1.668 c -0.29792,7e-6 -0.58708,0.15495 -0.86747,0.46484 -0.27602,0.30534 -0.49946,0.7155 -0.67032,1.2305 -0.16649,0.51042 -0.24973,1.0755 -0.24973,1.6953 -3e-6,0.36459 0.08105,0.65625 0.24315,0.875 0.1621,0.21875 0.38554,0.32813 0.67032,0.32812 0.29353,2e-6 0.57393,-0.15722 0.84118,-0.47168 0.26725,-0.31445 0.48192,-0.74511 0.64403,-1.292 0.16648,-0.55143 0.24972,-1.0937 0.24973,-1.627 -5e-6,-0.80208 -0.28697,-1.2031 -0.8609,-1.2031"
       id="path16"
       inkscape:connector-curvature="0"
       style="fill:#919bc7;fill-opacity:1" />
    <path
       d="m 26.885,30.637 -1.9781,0 0.90033,-4.4639 c 0.07009,-0.30989 0.10514,-0.58105 0.10515,-0.81348 -6e-6,-0.56054 -0.23659,-0.84081 -0.70975,-0.84082 -0.40307,7e-6 -0.7689,0.25977 -1.0975,0.7793 -0.32859,0.51954 -0.58708,1.2441 -0.77547,2.1738 l -0.64403,3.165 -1.9781,0 2.169,-10.637 1.9781,0 c -0.17087,0.82488 -0.3023,1.4583 -0.3943,1.9004 -0.09201,0.44207 -0.2804,1.1462 -0.56517,2.1123 l 0.05257,0 c 0.27163,-0.3509 0.57393,-0.63118 0.9069,-0.84082 0.33296,-0.21418 0.71851,-0.32128 1.1566,-0.32129 0.60459,8e-6 1.0712,0.19141 1.3998,0.57422 0.33296,0.37826 0.49944,0.92058 0.49945,1.627 -7e-6,0.33269 -0.05039,0.74284 -0.15115,1.2305 l -0.87404,4.3545"
       id="path18"
       inkscape:connector-curvature="0"
       style="fill:#919bc7;fill-opacity:1" />
    <path
       d="m 31.93,22.851 c 0.63964,8e-6 1.1435,0.2461 1.5115,0.73828 0.37239,0.48764 0.55859,1.1712 0.5586,2.0508 -7e-6,0.87045 -0.15116,1.709 -0.45345,2.5156 -0.29792,0.80209 -0.70756,1.4401 -1.2289,1.9141 -0.52136,0.4694 -1.0953,0.7041 -1.7218,0.7041 -0.36364,0 -0.67689,-0.08431 -0.93976,-0.25293 -0.263,-0.169 -0.506,-0.456 -0.729,-0.862 l -0.05257,0 c -0.05257,0.72461 -0.14677,1.3968 -0.28258,2.0166 l -0.473,2.324 -1.9781,0 2.2475,-11.006 1.5115,0 -0.11172,1.1621 0.05914,0 c 0.6046,-0.87044 1.299,-1.3057 2.0832,-1.3057 m -0.79518,1.668 c -0.29792,7e-6 -0.58708,0.15495 -0.86747,0.46484 -0.27602,0.30534 -0.49946,0.7155 -0.67032,1.2305 -0.16649,0.51042 -0.24973,1.0755 -0.24973,1.6953 -3e-6,0.36459 0.08105,0.65625 0.24316,0.875 0.1621,0.21875 0.38554,0.32813 0.67032,0.32812 0.29353,2e-6 0.57393,-0.15722 0.84118,-0.47168 0.26725,-0.31445 0.48192,-0.74511 0.64403,-1.292 0.16648,-0.55143 0.24972,-1.0937 0.24973,-1.627 -5e-6,-0.80208 -0.28697,-1.2031 -0.8609,-1.2031"
       id="path20"
       inkscape:connector-curvature="0"
       style="fill:#919bc7;fill-opacity:1" />
  </g>
</svg>
