<?xml version="1.0" encoding="UTF-8" standalone="no"?>
<svg
   xmlns:dc="http://purl.org/dc/elements/1.1/"
   xmlns:cc="http://creativecommons.org/ns#"
   xmlns:rdf="http://www.w3.org/1999/02/22-rdf-syntax-ns#"
   xmlns:svg="http://www.w3.org/2000/svg"
   xmlns="http://www.w3.org/2000/svg"
   xmlns:xlink="http://www.w3.org/1999/xlink"
   xmlns:sodipodi="http://sodipodi.sourceforge.net/DTD/sodipodi-0.dtd"
   xmlns:inkscape="http://www.inkscape.org/namespaces/inkscape"
   viewBox="0 0 64 64"
   id="svg2"
   version="1.1"
   inkscape:version="0.91 r13725"
   sodipodi:docname="application-vnd.iccprofile.svg"
   width="64"
   height="64">
  <metadata
     id="metadata84">
    <rdf:RDF>
      <cc:Work
         rdf:about="">
        <dc:format>image/svg+xml</dc:format>
        <dc:type
           rdf:resource="http://purl.org/dc/dcmitype/StillImage" />
        <dc:title />
      </cc:Work>
    </rdf:RDF>
  </metadata>
  <sodipodi:namedview
     pagecolor="#ffffff"
     bordercolor="#666666"
     borderopacity="1"
     objecttolerance="10"
     gridtolerance="10"
     guidetolerance="10"
     inkscape:pageopacity="0"
     inkscape:pageshadow="2"
     inkscape:window-width="1366"
     inkscape:window-height="699"
     id="namedview82"
     showgrid="true"
     inkscape:showpageshadow="false"
     inkscape:zoom="5.6568543"
     inkscape:cx="7.3499065"
     inkscape:cy="30.833165"
     inkscape:window-x="0"
     inkscape:window-y="0"
     inkscape:window-maximized="1"
     inkscape:current-layer="svg2"
     showguides="true">
    <inkscape:grid
       type="xygrid"
       id="grid3413" />
    <sodipodi:guide
       position="0,64"
       orientation="64,0"
       id="guide3482" />
    <sodipodi:guide
       position="0,0"
       orientation="0,64"
       id="guide3484" />
    <sodipodi:guide
       position="64,0"
       orientation="-64,0"
       id="guide3486" />
    <sodipodi:guide
       position="64,64"
       orientation="0,-64"
       id="guide3488" />
    <sodipodi:guide
       position="10,61"
       orientation="58,0"
       id="guide3492" />
    <sodipodi:guide
       position="10,3"
       orientation="0,44"
       id="guide3494" />
    <sodipodi:guide
       position="54,3"
       orientation="-58,0"
       id="guide3496" />
    <sodipodi:guide
       position="54,61"
       orientation="0,-44"
       id="guide3498" />
    <sodipodi:guide
       position="54,47"
       orientation="-14,0"
       id="guide4310" />
    <sodipodi:guide
       position="54,61"
       orientation="0,-14"
       id="guide4312" />
    <sodipodi:guide
       position="21,43"
       orientation="22,0"
       id="guide4250" />
    <sodipodi:guide
       position="21,21"
       orientation="0,22"
       id="guide4252" />
    <sodipodi:guide
       position="43,21"
       orientation="-22,0"
       id="guide4254" />
    <sodipodi:guide
       position="43,43"
       orientation="0,-22"
       id="guide4256" />
  </sodipodi:namedview>
  <defs
     id="defs4">
    <linearGradient
       inkscape:collect="always"
       id="linearGradient4351">
      <stop
         style="stop-color:#c8e3fe;stop-opacity:1"
         offset="0"
         id="stop4353" />
      <stop
         style="stop-color:#ffffff;stop-opacity:1"
         offset="1"
         id="stop4355" />
    </linearGradient>
    <linearGradient
       inkscape:collect="always"
       id="linearGradient4300">
      <stop
         style="stop-color:#22a7f0;stop-opacity:1"
         offset="0"
         id="stop4302" />
      <stop
         style="stop-color:#19b5fe;stop-opacity:1"
         offset="1"
         id="stop4304" />
    </linearGradient>
    <linearGradient
       inkscape:collect="always"
       xlink:href="#linearGradient4300"
       id="linearGradient4306"
       x1="32"
       y1="61"
       x2="32"
       y2="3"
       gradientUnits="userSpaceOnUse" />
    <linearGradient
       gradientTransform="matrix(1,0,0,-1,-14,78)"
       inkscape:collect="always"
       xlink:href="#linearGradient4410"
       id="linearGradient4427"
       x1="54"
       y1="31"
       x2="40"
       y2="17"
       gradientUnits="userSpaceOnUse" />
    <linearGradient
       inkscape:collect="always"
       id="linearGradient4410">
      <stop
         style="stop-color:#383e51;stop-opacity:1"
         offset="0"
         id="stop4412" />
      <stop
         style="stop-color:#655c6f;stop-opacity:0"
         offset="1"
         id="stop4414" />
    </linearGradient>
    <linearGradient
       inkscape:collect="always"
       xlink:href="#linearGradient4351"
       id="linearGradient4357"
       x1="47"
       y1="61"
       x2="47"
       y2="47"
       gradientUnits="userSpaceOnUse" />
    <clipPath
       clipPathUnits="userSpaceOnUse"
       id="clipPath50">
      <path
         d="m 8.83203,530.043 c 0,286.605 232.33997,518.947 518.94497,518.947 286.61,0 518.953,-232.342 518.953,-518.947 C 1046.73,243.438 814.387,11.0938 527.777,11.0938 241.172,11.0938 8.83203,243.438 8.83203,530.043 l 0,0 z"
         id="path52"
         inkscape:connector-curvature="0" />
    </clipPath>
  </defs>
  <path
     style="fill:url(#linearGradient4306);fill-opacity:1;stroke:none"
     d="M 10 3 L 10 61 L 40 61 L 54 47 L 54 17 L 54 3 L 40 3 L 10 3 z "
     id="rect3500" />
  <rect
     style="opacity:1;fill:#2e3132;fill-opacity:0.29411765;stroke:none"
     id="rect4169"
     width="30"
     height="1"
     x="10"
     y="60" />
  <rect
     style="opacity:1;fill:#ffffff;fill-opacity:0.40983605;stroke:none"
     id="rect4236"
     width="44"
     height="1"
     x="10"
     y="3" />
  <path
     style="fill:url(#linearGradient4357);fill-opacity:1;fill-rule:evenodd;stroke:none;stroke-width:1px;stroke-linecap:butt;stroke-linejoin:miter;stroke-opacity:1"
     d="M 54,47 40,61 40,47 Z"
     id="path4314"
     inkscape:connector-curvature="0" />
  <path
     inkscape:connector-curvature="0"
     id="path4320"
     d="M 26,61 40,47 40,61 Z"
     style="opacity:0.2;fill:url(#linearGradient4427);fill-opacity:1;fill-rule:evenodd;stroke:none;stroke-width:1px;stroke-linecap:butt;stroke-linejoin:miter;stroke-opacity:1" />
  <g
     id="g12"
     transform="matrix(0.02070157,0,0,-0.02070157,21.070742,42.97608)">
    <path
       d="M 527.645,532.645 120.648,854.254 C 49.6719,765.676 7.12891,653.332 7.12891,530.984 c 0,-40.261 4.74609,-79.39 13.44529,-117.019 l 507.0588,118.664 0.012,0.016 0,0"
       style="fill:#009857;fill-opacity:1;fill-rule:nonzero;stroke:none"
       id="path14"
       inkscape:connector-curvature="0" />
    <path
       d="m 527.617,1048.43 c -1,0 -1.98,0.07 -2.976,0.07 -163.477,0 -309.153,-75.879 -403.993,-194.246 l 406.997,-321.609 -0.028,515.785 0,0"
       style="fill:#e31b22;fill-opacity:1;fill-rule:nonzero;stroke:none"
       id="path16"
       inkscape:connector-curvature="0" />
    <path
       d="M 928.594,854.301 C 834.336,971.918 689.863,1047.5 527.617,1048.43 l 0.028,-515.785 400.949,321.656 0,0"
       style="fill:#00adef;fill-opacity:1;fill-rule:nonzero;stroke:none"
       id="path18"
       inkscape:connector-curvature="0" />
    <path
       d="m 928.594,854.301 -400.949,-321.656 0.046,-0.008 0.024,0.004 -0.024,-0.004 502.169,-113.606 c 7.97,36.067 12.29,73.496 12.29,111.953 0,122.368 -42.56,234.731 -113.556,323.317 l 0,0"
       style="fill:#ec008c;fill-opacity:1;fill-rule:nonzero;stroke:none"
       id="path20"
       inkscape:connector-curvature="0" />
    <path
       d="M 527.656,532.629 752.707,66.4062 C 891.809,134.824 995.625,263.84 1029.86,419.031 l -502.169,113.606 -0.035,-0.008 0,0"
       style="fill:#fff200;fill-opacity:1;fill-rule:nonzero;stroke:none"
       id="path22"
       inkscape:connector-curvature="0" />
    <path
       d="M 20.5742,413.965 C 56.625,258.105 162.973,129.23 304.527,62.5898 L 527.633,532.629 20.5742,413.965 l 0,0"
       style="fill:#214395;fill-opacity:1;fill-rule:nonzero;stroke:none"
       id="path24"
       inkscape:connector-curvature="0" />
    <path
       d="M 527.633,532.629 304.527,62.5898 c 66.801,-31.4453 141.379,-49.1054 220.114,-49.1054 81.863,0 159.246,19.0742 228.066,52.9218 l -225.051,466.2228 -0.023,0 0,0"
       style="fill:#0e0d0f;fill-opacity:1;fill-rule:nonzero;stroke:none"
       id="path26"
       inkscape:connector-curvature="0" />
    <path
       d="m 8.83203,530.043 c 0,286.605 232.33997,518.947 518.94497,518.947 286.61,0 518.953,-232.342 518.953,-518.947 C 1046.73,243.438 814.387,11.0938 527.777,11.0938 241.172,11.0938 8.83203,243.438 8.83203,530.043 l 0,0 z"
       style="fill:none;stroke:#231f20;stroke-width:10;stroke-linecap:butt;stroke-linejoin:miter;stroke-miterlimit:3.86369991;stroke-dasharray:none;stroke-opacity:1"
       id="path28"
       inkscape:connector-curvature="0" />
    <path
       d="m 102.543,525.117 c 0,235.442 190.855,426.289 426.289,426.289 235.438,0 426.297,-190.847 426.297,-426.289 C 955.129,289.68 764.27,98.8281 528.832,98.8281 293.398,98.8281 102.543,289.68 102.543,525.117 l 0,0"
       style="fill:#0e0d0f;fill-opacity:1;fill-rule:nonzero;stroke:none"
       id="path30"
       inkscape:connector-curvature="0" />
    <path
       d="m 102.543,525.117 c 0,235.442 190.855,426.289 426.289,426.289 235.438,0 426.297,-190.847 426.297,-426.289 C 955.129,289.68 764.27,98.8281 528.832,98.8281 293.398,98.8281 102.543,289.68 102.543,525.117 l 0,0 z"
       style="fill:none;stroke:#0e0d0f;stroke-width:26.50799942;stroke-linecap:butt;stroke-linejoin:miter;stroke-miterlimit:3.86369991;stroke-dasharray:none;stroke-opacity:1"
       id="path32"
       inkscape:connector-curvature="0" />
    <path
       d="m 165.445,333.445 c -4.82,45.278 129.102,222.059 363.719,255.793 C 762.219,622.754 954.289,521.289 944.875,445.684 926.105,294.895 764.27,98.8281 528.832,98.8281 293.398,98.8281 173.301,259.641 165.445,333.445 l 0,0"
       style="fill:#ffffff;fill-opacity:1;fill-rule:nonzero;stroke:none"
       id="path34"
       inkscape:connector-curvature="0" />
    <path
       d="m 710.527,319.402 c 130.559,134.094 -85.742,216.368 -86.023,201.356 0.562,-1.637 -3.957,1.383 0,-12.809 71.387,-26.054 39.676,-142.004 -25.637,-142.793 -66.91,-1.523 -85.679,41.465 -82.383,80.559 2.36,49.961 44.297,45.281 34.805,71.367 C 549.805,520.66 459.215,510.82 443.27,443.867 421.777,355.852 480.305,307.383 540.293,264.48 325.953,334.375 400.004,431.758 379.211,405.438 267.727,268.574 171.062,284.922 177.852,288.293 c 147.578,75.762 207.144,261.391 351.449,289.211 180.484,36.223 283.824,-83.449 389.91,-102.516 0.867,-0.652 -37.063,-2.136 -60.41,0 -32.832,1.914 -82.004,13.032 -82.383,12.817 53.289,-93.34 -35.234,-178.508 -34.777,-179.387 l -31.114,10.984 0,0"
       style="fill:#ffffff;fill-opacity:1;fill-rule:nonzero;stroke:none"
       id="path36"
       inkscape:connector-curvature="0" />
    <path
       d="m 710.527,319.402 c 130.559,134.094 -85.742,216.368 -86.023,201.356 0.562,-1.637 -3.957,1.383 0,-12.809 71.387,-26.054 39.676,-142.004 -25.637,-142.793 -66.91,-1.523 -85.679,41.465 -82.383,80.559 2.36,49.961 44.297,45.281 34.805,71.367 C 549.805,520.66 459.215,510.82 443.27,443.867 421.777,355.852 480.305,307.383 540.293,264.48 325.953,334.375 400.004,431.758 379.211,405.438 267.727,268.574 171.062,284.922 177.852,288.293 c 147.578,75.762 207.144,261.391 351.449,289.211 180.484,36.223 283.824,-83.449 389.91,-102.516 0.867,-0.652 -37.063,-2.136 -60.41,0 -32.832,1.914 -82.004,13.032 -82.383,12.817 53.289,-93.34 -35.234,-178.508 -34.777,-179.387 l -31.114,10.984 0,0 z"
       style="fill:none;stroke:#ffffff;stroke-width:6.62699986;stroke-linecap:butt;stroke-linejoin:miter;stroke-miterlimit:3.86369991;stroke-dasharray:none;stroke-opacity:1"
       id="path38"
       inkscape:connector-curvature="0" />
    <path
       d="m 713.254,306.836 c 130.555,134.082 -85.742,216.363 -86.027,201.348 0.566,-1.641 -3.957,1.386 0,-12.801 71.386,-26.059 39.675,-142.004 -25.633,-142.793 -66.91,-1.535 -85.68,41.453 -82.383,80.555 2.355,49.96 44.297,45.273 34.805,71.367 -1.489,3.574 -92.078,-6.258 -108.02,-73.211 C 424.504,343.281 483.027,294.805 543.02,251.914 328.676,321.809 402.734,419.188 381.934,392.871 270.449,256.008 173.789,272.344 180.574,275.715 c 147.578,75.769 207.145,261.394 351.453,289.219 180.485,36.218 283.825,-83.457 389.907,-102.52 0.871,-0.656 -37.059,-2.133 -60.411,0 -32.832,1.922 -82.003,13.035 -82.382,12.82 53.281,-93.339 -35.235,-178.515 -34.778,-179.382 l -31.109,10.984 0,0"
       style="fill:#0e0d0f;fill-opacity:1;fill-rule:nonzero;stroke:none"
       id="path40"
       inkscape:connector-curvature="0" />
    <path
       d="m 713.254,306.836 c 130.555,134.082 -85.742,216.363 -86.027,201.348 0.566,-1.641 -3.957,1.386 0,-12.801 71.386,-26.059 39.675,-142.004 -25.633,-142.793 -66.91,-1.535 -85.68,41.453 -82.383,80.555 2.355,49.96 44.297,45.273 34.805,71.367 -1.489,3.574 -92.078,-6.258 -108.02,-73.211 C 424.504,343.281 483.027,294.805 543.02,251.914 328.676,321.809 402.734,419.188 381.934,392.871 270.449,256.008 173.789,272.344 180.574,275.715 c 147.578,75.769 207.145,261.394 351.453,289.219 180.485,36.218 283.825,-83.457 389.907,-102.52 0.871,-0.656 -37.059,-2.133 -60.411,0 -32.832,1.922 -82.003,13.035 -82.382,12.82 53.281,-93.339 -35.235,-178.515 -34.778,-179.382 l -31.109,10.984 0,0 z"
       style="fill:none;stroke:#0e0d0f;stroke-width:6.62699986;stroke-linecap:butt;stroke-linejoin:miter;stroke-miterlimit:3.86369991;stroke-dasharray:none;stroke-opacity:1"
       id="path42"
       inkscape:connector-curvature="0" />
    <path
       d="m 102.543,525.117 c 0,235.442 190.855,426.289 426.289,426.289 235.438,0 426.297,-190.847 426.297,-426.289 C 955.129,289.68 764.27,98.8281 528.832,98.8281 293.398,98.8281 102.543,289.68 102.543,525.117 l 0,0 z"
       style="fill:none;stroke:#0e0d0f;stroke-width:26.50799942;stroke-linecap:butt;stroke-linejoin:miter;stroke-miterlimit:3.86369991;stroke-dasharray:none;stroke-opacity:1"
       id="path44"
       inkscape:connector-curvature="0" />
    <g
       id="g46">
      <g
         id="g48"
         clip-path="url(#clipPath50)">
        <path
           d="m 967.414,252.18 -22.285,-31.907 -306.027,108.133 328.312,-76.226 0,0"
           style="fill:#0e0d0f;fill-opacity:1;fill-rule:nonzero;stroke:none"
           id="path54"
           inkscape:connector-curvature="0" />
        <path
           d="M 877.793,143.477 857.121,127.449 638.848,328.27 897.031,168.977 l -19.238,-25.5 0,0"
           style="fill:#00adef;fill-opacity:1;fill-rule:nonzero;stroke:none"
           id="path56"
           inkscape:connector-curvature="0" />
        <path
           d="M 845.891,119.434 786.73,84.3242 638.828,328.203 845.891,119.434 l 0,0"
           style="fill:#ec008c;fill-opacity:1;fill-rule:nonzero;stroke:none"
           id="path58"
           inkscape:connector-curvature="0" />
        <path
           d="M 924.289,194.621 906.648,175.383 639.031,328.281 940.32,212.258 l -16.031,-17.637 0,0"
           style="fill:#fff200;fill-opacity:1;fill-rule:nonzero;stroke:none"
           id="path60"
           inkscape:connector-curvature="0" />
      </g>
    </g>
    <path
       d="m 8.83203,530.043 c 0,286.605 232.33997,518.947 518.94497,518.947 286.61,0 518.953,-232.342 518.953,-518.947 C 1046.73,243.438 814.387,11.0938 527.777,11.0938 241.172,11.0938 8.83203,243.438 8.83203,530.043 l 0,0 z"
       style="fill:none;stroke:#0e0d0f;stroke-width:26.50799942;stroke-linecap:butt;stroke-linejoin:miter;stroke-miterlimit:3.86369991;stroke-dasharray:none;stroke-opacity:1"
       id="path62"
       inkscape:connector-curvature="0" />
    <path
       d="m 292.145,640.398 -0.083,267.258 -72.121,0 0.082,-267.258 72.122,0 0,0"
       style="fill:#0e0d0f;fill-opacity:1;fill-rule:nonzero;stroke:none"
       id="path64"
       inkscape:connector-curvature="0" />
    <path
       d="m 311.516,611.363 -0.086,267.254 -72.114,0 0.082,-267.254 72.118,0 0,0"
       style="fill:#ffffff;fill-opacity:1;fill-rule:nonzero;stroke:none"
       id="path66"
       inkscape:connector-curvature="0" />
    <path
       d="m 463.691,606.918 c 67.34,-0.004 104.114,22.945 104.082,94.387 l -71.156,0.004 c -0.953,-21.098 0.492,-54.414 -32.941,-54.414 -40.594,0 -45.856,29.613 -45.879,98.089 -0.02,68.485 5.226,98.09 45.82,98.09 21.488,0 29.613,-13.324 29.625,-48.859 l 70.684,0 c 2.851,57.379 -26.774,88.844 -100.317,88.844 -118.925,0 -118.902,-67.371 -118.882,-138.075 0.023,-69.957 0.043,-138.066 118.964,-138.066 l 0,0"
       style="fill:#ffffff;fill-opacity:1;fill-rule:nonzero;stroke:none"
       id="path68"
       inkscape:connector-curvature="0" />
    <path
       d="m 705.156,606.914 c 67.332,-0.004 104.102,22.945 104.082,94.391 l -71.164,0 c -0.945,-21.106 0.5,-54.414 -32.937,-54.414 -40.594,0 -45.848,29.613 -45.879,98.089 -0.02,68.481 5.222,98.09 45.82,98.09 21.492,0 29.617,-13.32 29.629,-48.855 l 70.684,-0.004 c 2.839,57.375 -26.778,88.84 -100.325,88.84 -118.921,0 -118.894,-67.367 -118.875,-138.067 0.02,-69.961 0.039,-138.07 118.965,-138.07 l 0,0"
       style="fill:#ffffff;fill-opacity:1;fill-rule:nonzero;stroke:none"
       id="path70"
       inkscape:connector-curvature="0" />
  </g>
</svg>
