<?xml version="1.0" encoding="UTF-8" standalone="no"?>
<svg
   xmlns:dc="http://purl.org/dc/elements/1.1/"
   xmlns:cc="http://creativecommons.org/ns#"
   xmlns:rdf="http://www.w3.org/1999/02/22-rdf-syntax-ns#"
   xmlns:svg="http://www.w3.org/2000/svg"
   xmlns="http://www.w3.org/2000/svg"
   xmlns:xlink="http://www.w3.org/1999/xlink"
   xmlns:sodipodi="http://sodipodi.sourceforge.net/DTD/sodipodi-0.dtd"
   xmlns:inkscape="http://www.inkscape.org/namespaces/inkscape"
   viewBox="0 0 64 64"
   id="svg2"
   version="1.1"
   inkscape:version="0.91 r13725"
   sodipodi:docname="application-x-trash.svg"
   width="64"
   height="64">
  <metadata
     id="metadata84">
    <rdf:RDF>
      <cc:Work
         rdf:about="">
        <dc:format>image/svg+xml</dc:format>
        <dc:type
           rdf:resource="http://purl.org/dc/dcmitype/StillImage" />
        <dc:title></dc:title>
      </cc:Work>
    </rdf:RDF>
  </metadata>
  <sodipodi:namedview
     pagecolor="#ffffff"
     bordercolor="#666666"
     borderopacity="1"
     objecttolerance="10"
     gridtolerance="10"
     guidetolerance="10"
     inkscape:pageopacity="0"
     inkscape:pageshadow="2"
     inkscape:window-width="1366"
     inkscape:window-height="703"
     id="namedview82"
     showgrid="true"
     inkscape:showpageshadow="false"
     inkscape:zoom="6.4958892"
     inkscape:cx="22.518893"
     inkscape:cy="26.948153"
     inkscape:window-x="0"
     inkscape:window-y="0"
     inkscape:window-maximized="1"
     inkscape:current-layer="svg2"
     showguides="true">
    <inkscape:grid
       type="xygrid"
       id="grid3413" />
    <sodipodi:guide
       position="0,64"
       orientation="64,0"
       id="guide3482" />
    <sodipodi:guide
       position="0,0"
       orientation="0,64"
       id="guide3484" />
    <sodipodi:guide
       position="64,0"
       orientation="-64,0"
       id="guide3486" />
    <sodipodi:guide
       position="64,64"
       orientation="0,-64"
       id="guide3488" />
    <sodipodi:guide
       position="10,61"
       orientation="58,0"
       id="guide3492" />
    <sodipodi:guide
       position="10,3"
       orientation="0,44"
       id="guide3494" />
    <sodipodi:guide
       position="54,3"
       orientation="-58,0"
       id="guide3496" />
    <sodipodi:guide
       position="54,61"
       orientation="0,-44"
       id="guide3498" />
    <sodipodi:guide
       position="54,47"
       orientation="-14,0"
       id="guide4310" />
    <sodipodi:guide
       position="54,61"
       orientation="0,-14"
       id="guide4312" />
    <sodipodi:guide
       position="21,43"
       orientation="22,0"
       id="guide4250" />
    <sodipodi:guide
       position="21,21"
       orientation="0,22"
       id="guide4252" />
    <sodipodi:guide
       position="43,21"
       orientation="-22,0"
       id="guide4254" />
    <sodipodi:guide
       position="43,43"
       orientation="0,-22"
       id="guide4256" />
  </sodipodi:namedview>
  <defs
     id="defs4">
    <linearGradient
       inkscape:collect="always"
       id="linearGradient4351">
      <stop
         style="stop-color:#ade2a1;stop-opacity:1"
         offset="0"
         id="stop4353" />
      <stop
         style="stop-color:#cfeec9;stop-opacity:1"
         offset="1"
         id="stop4355" />
    </linearGradient>
    <linearGradient
       inkscape:collect="always"
       xlink:href="#linearGradient4300-2"
       id="linearGradient4306"
       x1="32"
       y1="61"
       x2="32"
       y2="3"
       gradientUnits="userSpaceOnUse" />
    <linearGradient
       gradientTransform="matrix(1,0,0,-1,-14,78)"
       inkscape:collect="always"
       xlink:href="#linearGradient4410"
       id="linearGradient4427"
       x1="54"
       y1="31"
       x2="40"
       y2="17"
       gradientUnits="userSpaceOnUse" />
    <linearGradient
       inkscape:collect="always"
       id="linearGradient4410">
      <stop
         style="stop-color:#383e51;stop-opacity:1"
         offset="0"
         id="stop4412" />
      <stop
         style="stop-color:#655c6f;stop-opacity:0"
         offset="1"
         id="stop4414" />
    </linearGradient>
    <linearGradient
       inkscape:collect="always"
       xlink:href="#linearGradient4351"
       id="linearGradient4357"
       x1="47"
       y1="61"
       x2="47"
       y2="47"
       gradientUnits="userSpaceOnUse" />
    <linearGradient
       id="linearGradient4300-2">
      <stop
         id="stop4302-4"
         offset="0"
         style="stop-color:#7fcc74;stop-opacity:1" />
      <stop
         id="stop4304-1"
         offset="1"
         style="stop-color:#87d37c;stop-opacity:1" />
    </linearGradient>
  </defs>
  <path
     style="fill:url(#linearGradient4306);fill-opacity:1.0;stroke:none"
     d="M 10 3 L 10 61 L 40 61 L 54 47 L 54 17 L 54 3 L 40 3 L 10 3 z "
     id="rect3500" />
  <rect
     style="opacity:1;fill:#2e3132;fill-opacity:0.29411765;stroke:none"
     id="rect4169"
     width="30"
     height="1"
     x="10"
     y="60" />
  <rect
     style="opacity:1;fill:#ffffff;fill-opacity:0.40983605;stroke:none"
     id="rect4236"
     width="44"
     height="1"
     x="10"
     y="3" />
  <path
     style="fill:url(#linearGradient4357);fill-opacity:1;fill-rule:evenodd;stroke:none;stroke-width:1px;stroke-linecap:butt;stroke-linejoin:miter;stroke-opacity:1"
     d="M 54,47 40,61 40,47 Z"
     id="path4314"
     inkscape:connector-curvature="0" />
  <path
     inkscape:connector-curvature="0"
     id="path4320"
     d="M 26,61 40,47 40,61 Z"
     style="opacity:0.2;fill:url(#linearGradient4427);fill-opacity:1;fill-rule:evenodd;stroke:none;stroke-width:1px;stroke-linecap:butt;stroke-linejoin:miter;stroke-opacity:1" />
  <g
     transform="matrix(0.31078191,0,0,0.31078191,12.947636,11.764664)"
     id="g3"
     style="fill:#ffffff;fill-opacity:1">
    <path
       inkscape:connector-curvature="0"
       style="fill:#ffffff;fill-opacity:1"
       d="m 13.461,53.73 7.406,4.273 1.977,1.141 -5.773,9.992 c -0.523,0.898 -0.789,1.898 -0.789,2.898 0,0.984 0.242,1.953 0.766,2.836 0,0 5.055,8.789 9.172,15.891 0.305,-1 0.68,-1.977 1.203,-2.898 l 11.305,-19.531 1.945,1.117 7.422,4.297 L 36.539,53.754 13.461,53.73 Z"
       id="path9" />
    <path
       inkscape:connector-curvature="0"
       style="fill:#ffffff;fill-opacity:1"
       d="m 35.539,81.707 c -1.008,1.734 -4.672,8.078 -4.672,8.078 -0.648,1.078 -0.953,2.273 -0.953,3.469 0,1.196 0.305,2.367 0.93,3.422 1.203,2.125 3.492,3.414 5.945,3.391 0,0 19.211,0 22.805,0 0,-3.273 0,-15.062 0,-18.359 -3.461,-0.001 -21.953,-0.001 -24.055,-0.001 z"
       id="path11" />
    <path
       inkscape:connector-curvature="0"
       style="fill:#ffffff;fill-opacity:1"
       d="m 96.242,24.238 -7.422,4.273 -1.977,1.148 -5.742,-10.016 c -0.508,-0.898 -1.266,-1.633 -2.125,-2.125 -0.852,-0.508 -1.828,-0.75 -2.828,-0.75 0,0 -10.156,0 -18.367,0 0.719,0.75 1.375,1.562 1.891,2.484 l 11.273,19.531 -1.922,1.148 -7.453,4.273 23.102,0 11.57,-19.966 z"
       id="path13" />
    <path
       inkscape:connector-curvature="0"
       style="fill:#ffffff;fill-opacity:1"
       d="m 60.961,29.34 c -1,-1.734 -4.656,-8.086 -4.656,-8.086 -0.625,-1.07 -1.5,-1.953 -2.539,-2.562 -1.023,-0.586 -2.188,-0.898 -3.406,-0.922 -2.438,0.023 -4.719,1.344 -5.906,3.484 0,0 -9.617,16.633 -11.43,19.758 2.859,1.633 13.062,7.516 15.922,9.148 1.71,-2.976 10.968,-19.015 12.015,-20.82 z"
       id="path15" />
    <path
       inkscape:connector-curvature="0"
       style="fill:#ffffff;fill-opacity:1"
       d="m 79.906,110.613 0,-8.547 0,-2.266 11.523,0.023 c 1.055,0 2.078,-0.273 2.93,-0.781 0.859,-0.492 1.586,-1.195 2.078,-2.078 0,0 5.102,-8.789 9.18,-15.891 -1,0.219 -2.055,0.414 -3.102,0.414 l -22.585,-0.022 0,-2.273 0.031,-8.57 -11.578,20 11.523,19.991 z"
       id="path17" />
    <path
       inkscape:connector-curvature="0"
       style="fill:#ffffff;fill-opacity:1"
       d="m 93.117,77.535 c 2.023,0 9.328,0 9.328,0 1.242,0 2.461,-0.32 3.516,-0.93 1,-0.586 1.852,-1.414 2.484,-2.492 1.203,-2.125 1.172,-4.734 -0.047,-6.836 0,0 -9.594,-16.648 -11.398,-19.773 -2.836,1.656 -13.062,7.547 -15.898,9.18 1.71,2.976 10.968,19.039 12.015,20.851 z"
       id="path19" />
  </g>
</svg>
