/* XPM */
static char *bluefish[] = {
/* columns rows colors chars-per-pixel */
"22 22 86 1",
"  c #50CC50CE50B9",
". c #5381537F537E",
"X c #53F753FE53FC",
"o c #5EF05EE85F27",
"O c #622B6227625E",
"+ c #643A643D645B",
"@ c #657665636564",
"# c #6761675467B2",
"$ c #6824681E6858",
"% c #6B2A6B276B22",
"& c #6E926E7C6EF9",
"* c #741E74137412",
"= c #7855785F78AC",
"- c #79CF79CC79FE",
"; c #7A577A517A9E",
": c #7D867D7C7D8C",
"> c #809A809B80BC",
", c #837B8371837C",
"< c #875687448752",
"1 c #891389118922",
"2 c #8A768A6A8ADA",
"3 c #8AD68AD18B7E",
"4 c #8B158B1B8BB1",
"5 c #8B728B798C0E",
"6 c #8E7B8E718EB5",
"7 c #8FC38FC28FC1",
"8 c #90029002902E",
"9 c #903290299049",
"0 c #914D91449191",
"q c #91D791CF9217",
"w c #9245924C9271",
"e c #94BE94C894FE",
"r c #9701970496F4",
"t c #97B097B497A1",
"y c #987D9884987D",
"u c #99EF99F699DB",
"i c #9AB99AB09AC1",
"p c #9B569B599B63",
"a c #9DF19DFC9E06",
"s c #9E779E7C9E7B",
"d c #9F6B9F819F8A",
"f c #A06FA072A08D",
"g c #A151A163A174",
"h c #A2DEA2E3A2F1",
"j c #A4CDA4D3A4E3",
"k c #A606A60CA620",
"l c #A65FA669A67F",
"z c #A7D0A7C4A7D4",
"x c #A9DEA9D1A9DD",
"c c #AAA2AA9DAAA2",
"v c #ABCEABD0ABCD",
"b c #AC9AAC9FAC99",
"n c #AF2BAF30AF28",
"m c #AFD1AFDBAFCC",
"M c #B05EB068B059",
"N c #B32AB338B31F",
"B c #B372B380B367",
"V c #B4DCB4E5B4D8",
"C c #B5DAB5DDB5DC",
"Z c #B7A1B79BB7AF",
"A c #B8E3B8E1B8ED",
"S c #BA20BA26BA1E",
"D c #BA9DBAA2BA9D",
"F c #BE13BE18BE19",
"G c #BFF3BFF9BFF8",
"H c #C098C09CC09C",
"J c #C1CEC1C8C1D9",
"K c #C2B3C2ACC2C9",
"L c #C52FC52AC537",
"P c #C5F5C5F0C5F2",
"I c #C6C6C6C6C6C3",
"U c #C85EC85BC85A",
"Y c #CA4CCA4ECA3E",
"T c #CBF4CBECCBC5",
"R c #CD03CD0ECCE7",
"E c #CE14CE14CE03",
"W c #CE69CE69CE5A",
"Q c #D15FD172D172",
"! c #D312D314D2FD",
"~ c #D440D44ED43F",
"^ c #D44FD45CD44D",
"/ c #D4CAD4D3D4CB",
"( c #D5D8D5D9D5E1",
") c #D92DD926D91B",
"_ c #DAD3DAC1DACF",
"` c None",
/* pixels */
"``````````````````````",
"``````````````````````",
"``````````````````````",
"``````````````````````",
"`````````````))))`````",
"`````````Q(((((((Q````",
"```````UWWWWUWWWWU````",
"``````IUUIUUUIIIII````",
"`````KKKKKKGGGGGG`````",
"`````AAAAAAAAAAAC`CAC`",
"````VBCCBVBBBBBBmBBmb`",
"``dybbvvbbbbbbccvccc``",
"```X1fclzllllllld0tfl`",
"`````*7dffffddddr@+8y`",
"``````@:0yrytyrrr`````",
"````````$5<,70708`````",
"`````````&;$;1115`````",
"``````````o$+$;,:`````",
"``````````````X ``````",
"``````````````````````",
"``````````````````````",
"``````````````````````"
};
