/* XPM */
static char *ccc_large[] = {
/* columns rows colors chars-per-pixel */
"22 22 55 1",
"  c #814181598106",
". c #8A6F8A758A61",
"X c #8B9F8BAB8BA0",
"o c #8F728F6F8F5D",
"O c #93F893F793F3",
"+ c #949A94999498",
"@ c #969496849688",
"# c #97CA97C997C8",
"$ c #98B998B898B3",
"% c #993F993D993D",
"& c #9A229A179A1B",
"* c #9CF19CE79CE8",
"= c #9D3F9D3E9D3F",
"- c #9E599E569E5A",
"; c #A027A016A01B",
": c #A066A052A05A",
"> c #A194A17EA185",
", c #A3C2A3AAA3AE",
"< c #A4E3A4CEA4C9",
"1 c #A52EA512A517",
"2 c #A703A71EA6D4",
"3 c #A72EA724A6F4",
"4 c #A90DA909A8CD",
"5 c #A966A961A91B",
"6 c #AA09AA0EA9AC",
"7 c #AA43AA48A9E6",
"8 c #AD11AD12AD04",
"9 c #ADD4ADD4AD8E",
"0 c #AE3DAE45AE02",
"q c #AEC4AEC1AEBC",
"w c #B07DB07AB026",
"e c #B096B090B09E",
"r c #B326B31EB32E",
"t c #B4F5B4E3B4D1",
"y c #B748B72FB73E",
"u c #B787B770B781",
"i c #B845B831B830",
"p c #B87CB85EB881",
"a c #BA28BA1BBA26",
"s c #BB3BBB43BB28",
"d c #BC70BC74BC71",
"f c #BE20BE1DBE1A",
"g c #BE33BE40BE2A",
"h c #C015C01AC013",
"j c #C069C06DC067",
"k c #C26AC268C264",
"l c #C60AC601C5F2",
"z c #C6FEC6FDC6DF",
"x c #C7B4C7B4C796",
"c c #CA91CA99CA72",
"v c #CCECCCFCCCD2",
"b c #CD96CD9CCD86",
"n c #CEC0CEBECEB9",
"m c #D0E2D0EDD0FF",
"M c None",
/* pixels */
"MMMMMMMMMMMMMMMMMMMMMM",
"MMMMMMMMMMMMMMMMMMMMMM",
"MMMMMMMMMMMMMMMMMMMMMM",
"MMMMMMMMMMMMMMMMMMMMMM",
"MMMMMMMMMMMMMMMMMMMMMM",
"MMMMMMMMMMMMMMMMMMMMMM",
"MMMMMMMMMmMMmmmmmMMMMM",
"MMMMMMMMbbczbbbbbcMMMM",
"MMMMMMMzzzzM$qzs<5jjjM",
"MMMMMMggjjgMMMgsMMsggM",
"MMMMMusqquuMMMusMMqueM",
"MMMMeeq OqeMMMwqMM4qqM",
"MMM55<-M<55MMM55MM><<M",
"MM<<>M+$->>MMM<<MM->>M",
"MM$$MMMM+$-MMM$$MMM$$M",
"MMoMMMMMM.MMMM.MMMMMoM",
"MMMMMMMMMMMMMMMMMMMMMM",
"MMMMMMMMMMMMMMMMMMMMMM",
"MMMMMMMMMMMMMMMMMMMMMM",
"MMMMMMMMMMMMMMMMMMMMMM",
"MMMMMMMMMMMMMMMMMMMMMM",
"MMMMMMMMMMMMMMMMMMMMMM"
};
