/* XPM */
static char *cmake[] = {
/* columns rows colors chars-per-pixel */
"22 22 70 1",
"  c #371137133713",
". c #76D376D776D7",
"X c #76F276F676F7",
"o c #76F576F976FA",
"O c #770A770C770E",
"+ c #79F279F579F1",
"@ c #85E585E585DF",
"# c #86FD86FC86FB",
"$ c #87BF87BC87B9",
"% c #887F887F887F",
"& c #8B908B8F8B82",
"* c #8CA18C998C65",
"= c #8DE18DE88DE5",
"- c #8EA68EAE8EAA",
"; c #8FBB8FBF8FB0",
": c #9081907E9071",
"> c #919E918F9171",
", c #921B920891CE",
"< c #925F924A9215",
"1 c #93EE93F093EC",
"2 c #941F94029400",
"3 c #950294DC94D9",
"4 c #959D957E957D",
"5 c #9627960C9608",
"6 c #969D969E969A",
"7 c #977B975A9757",
"8 c #989098649859",
"9 c #9924990698FB",
"0 c #995F994B9945",
"q c #9A6C9A719A64",
"w c #9B809B799B6B",
"e c #9DAE9DAC9D7F",
"r c #9EB09EAC9E8B",
"t c #A04FA0499FEE",
"y c #A0F1A0EDA08C",
"u c #A130A12EA0B3",
"i c #A308A2FBA2C7",
"p c #A573A565A51C",
"a c #A62AA621A5D1",
"s c #A665A657A603",
"d c #A6B5A6AAA664",
"f c #A730A71DA708",
"g c #AABEAAB1AA94",
"h c #ACDCACD6ACC2",
"j c #ADBDADB4AD9E",
"k c #AE6CAE5FAE58",
"l c #AF34AF2CAF23",
"z c #AFE0AFCBAFAA",
"x c #B038B04CB005",
"c c #B084B071B05F",
"v c #B2D3B2D2B2D8",
"b c #B4D7B4DAB4EF",
"n c #B51BB521B547",
"m c #B555B558B56B",
"M c #B62BB632B657",
"N c #B7BDB7C2B7E0",
"B c #BA13BA13BA31",
"V c #BAB7BAB9BAC6",
"C c #BBC3BBC3BBCB",
"Z c #BEC2BEC2BEC4",
"A c #BF4ABF4ABF4C",
"S c #C49CC49CC49C",
"D c #C920C91BC91B",
"F c #C972C970C970",
"G c #CC12CC08CC08",
"H c #D0ACD0A8D0A8",
"J c #D17ED17BD17B",
"K c #D4F8D4F5D4F5",
"L c #D899D899D899",
"P c None",
/* pixels */
"PPPPPPPPPPPPPPPPPPPPPP",
"PPPPPPPPPPPPPPPPPPPPPP",
"PPPPPPPPPPKLPPPPPPPPPP",
"PPPPPPPPPPKKPPPPPPPPPP",
"PPPPPPPPPFJJJPPPPPPPPP",
"PPPPPPPPPFFFFPPPPPPPPP",
"PPPPPPPPSSSSSSPPPPPPPP",
"PPPPPPPPZSZZZZPPPPPPPP",
"PPPPPPPnBBBBBBZPPPPPPP",
"PPPPPPPvnvnbvnnPPPPPPP",
"PPPPPPzzxzvzzvxvPPPPPP",
"PPPPPPgggga>rgzgPPPPPP",
"PPPPPaaaauwPraaaaPPPPP",
"PPPPPrutr>PPrtuuuPPPPP",
"PPPPwwwwPPPP4rwwrwPPPP",
"PPPP44444PPP;44444PPPP",
"PPP;;>;;>>;;;;>;>>;PPP",
"PPP;&&&&&&&&&&&;&;;PPP",
"PP@@@@@&@$@&@$$$@@$@PP",
"PPOOOOOOOOOOOOOOOOO+PP",
"PPP PPPPPPPPPPPPPPPPPP",
"PPPPPPPPPPPPPPPPPPPPPP"
};
