/* XPM */
static char *DC__[] = {
/* columns rows colors chars-per-pixel */
"22 22 93 2",
"   c #573E5763573E",
".  c #5BD55BF45BCF",
"X  c #5F8C5F8C5F7C",
"o  c #688B6891687A",
"O  c #696669766957",
"+  c #6ED46EE06ECF",
"@  c #70E770F470E6",
"#  c #71CD71C671B5",
"$  c #749D74B674AA",
"%  c #766A76767655",
"&  c #79CC79CC79BE",
"*  c #7B4C7B4D7B3D",
"=  c #7C007C0C7BEF",
"-  c #7C807C897C83",
";  c #7E907E917E8B",
":  c #7FA47FAE7FA0",
">  c #80818087807D",
",  c #826C8271826E",
"<  c #8400840983FD",
"1  c #8422841A841E",
"2  c #866B865F8666",
"3  c #8794879D8790",
"4  c #88938894888E",
"5  c #890A89038901",
"6  c #897F89938989",
"7  c #8A8F8A958A8F",
"8  c #8C928C8E8C87",
"9  c #8D188D0E8D09",
"0  c #8DC38DB78DB8",
"q  c #8EB38EB38EB5",
"w  c #8F758F6E8F71",
"e  c #900E90129010",
"r  c #9079906B907D",
"t  c #916291629161",
"y  c #925F92539269",
"u  c #93B493B793BC",
"i  c #940E940A941E",
"p  c #959E959495A5",
"a  c #961496039622",
"s  c #967D96769687",
"d  c #97AB97A097B0",
"f  c #985B98529864",
"g  c #99BC99AE99C2",
"h  c #9AA59AA39AA6",
"j  c #9C839C7F9C85",
"k  c #9DB69DB19DBA",
"l  c #9E949E919E95",
"z  c #A09FA09CA0A3",
"x  c #A13AA138A139",
"c  c #A2ACA2ABA2B1",
"v  c #A41FA423A416",
"b  c #A499A49EA4A9",
"n  c #A6DBA6E6A6EB",
"m  c #A8BDA8B7A8B1",
"M  c #A9F9A9F1A9EE",
"N  c #AADBAAD5AAC9",
"B  c #AB59AB4DAB4A",
"V  c #AD7DAD7DAD80",
"C  c #AE96AE93AE97",
"Z  c #AFB8AFB3AFB3",
"A  c #B1D1B1C7B1BB",
"S  c #B2FCB2F7B2F6",
"D  c #B33FB33FB342",
"F  c #B5D4B5D0B5F3",
"G  c #B657B65BB664",
"H  c #BAD6BAD9BAD2",
"J  c #BC25BC26BC1A",
"K  c #BCD7BCD4BCD0",
"L  c #BD44BD59BD4B",
"P  c #BED1BEE4BEDB",
"I  c #C00FC010C01D",
"U  c #C308C305C2FE",
"Y  c #C3CDC3CDC3D3",
"T  c #C444C43DC43D",
"R  c #C555C552C556",
"E  c #C6E8C6D6C6E5",
"W  c #C792C781C76F",
"Q  c #C8C1C8B7C8A8",
"!  c #C97EC974C963",
"~  c #CCE7CCE8CCEB",
"^  c #CE98CEA0CE97",
"/  c #CFC8CFD3CFCE",
"(  c #D124D136D131",
")  c #D1C3D1D1D1D2",
"_  c #D283D29CD28C",
"`  c #D4DED4FAD4EC",
"'  c #D5F6D612D608",
"]  c #D7E6D7EAD7ED",
"[  c #D8A8D8A3D8AA",
"{  c #D958D95ED95F",
"}  c #DA03D9FEDA09",
"|  c #DA9DDA8BDA9E",
" . c None",
/* pixels */
" . . . . . . . . . . . . . . . . . . . . . .",
" . . . . . . . .| | | | | |  . . . . . . . .",
" . . . . . .] ] ] | ] ] ] | ] )  . . . . . .",
" . . . . .) Q I G I ^ ) ) ) ) ) ) ^  . . . .",
" . . . .^ R G r - r l T Q ^ / ^ ^ ^ ^  . . .",
" . . .R Q J  . . . . .b R I C M S U Q  . . .",
" . . .R U  . . . . . . .M p 2 1 5 l J U  . .",
" . .J I I  . . . . . . .3 > : : - > l I  . .",
" . .J J J  . . . . . . .- > > > > > r S  . .",
" . .S G G  . . . . . .2 > > > > > : 5 M G  .",
" . .Z S S S  . . . . .- - > > > > > 8 M Z  .",
" . .M C C C M  . . . . .  - > > : > r M C  .",
" . .b M M b  . . . . . . .O - - - 5 l b  . .",
" . .l b v c  . . . . . . .> 5 2 0 l c c  . .",
" . .r l l l  . . . . . . .h l l l l l l  . .",
" . . .5 l h f  . . . . . .p h h p h p  . . .",
" . . .$ 5 p p p  . . . .i p p f p r 0  . . .",
" . . . .# 2 i r r 0 0 0 r 0 0 r 0 0  . . . .",
" . . . . .. # 5 0 0 0 0 0 0 5 : -  . . . . .",
" . . . . . . .. O $ * > * + O  . . . . . . .",
" . . . . . . . . . . . . . . . . . . . . . .",
" . . . . . . . . . . . . . . . . . . . . . ."
};
