/* XPM */
static char *dia_menu[] = {
/* columns rows colors chars-per-pixel */
"22 22 131 2",
"   c #4F6A4F704F67",
".  c #50A550AB50A0",
"X  c #51235121512A",
"o  c #529252A75255",
"O  c #54CC54C854CC",
"+  c #5DA25DA35D9D",
"@  c #6F467FC85FC3",
"#  c #6D4A6D536D55",
"$  c #6F056F5F6E8D",
"%  c #719D71A3719D",
"&  c #736E7356735B",
"*  c #762D768F75B6",
"=  c #79CC7A51793A",
"-  c #7BB27BB27BBC",
";  c #7BF87C107C02",
":  c #7C8C7C857C54",
">  c #7D1E7D197CEC",
",  c #7D437D3B7D0C",
"<  c #7DD57E197D97",
"1  c #7E417E437E35",
"2  c #73AF824B65AF",
"3  c #807C93E06E28",
"4  c #8DDCB6636749",
"5  c #81E581DB81B2",
"6  c #847F847B8471",
"7  c #871D872086F5",
"8  c #870A86F8872F",
"9  c #88C688CA88B8",
"0  c #8955894D8958",
"q  c #8AB18AAF8A9F",
"w  c #8B028B0B8AE1",
"e  c #8B8C8B828B70",
"r  c #8BF98C148BDC",
"t  c #8CA08C9C8C98",
"y  c #8D158D238D25",
"u  c #8DF88E2C8DB7",
"i  c #8E768E6A8E6C",
"p  c #8FB48FB68FA2",
"a  c #90029DF182D1",
"s  c #8FD79A0A862F",
"d  c #919F95FF8D83",
"f  c #9081907F908C",
"g  c #913D91269148",
"h  c #92259202927A",
"j  c #92D292D092CC",
"k  c #93A5939993B3",
"l  c #9411944A93D8",
"z  c #94D294CD94C6",
"x  c #950E95109516",
"c  c #956395569569",
"v  c #96109626961F",
"b  c #976397619765",
"n  c #981F981D9811",
"m  c #988D988A988F",
"M  c #9942994A9946",
"N  c #9BB19BBA9BBB",
"B  c #9C249C339C39",
"V  c #9DB19DBC9DB4",
"C  c #9D9C9E319CEB",
"Z  c #9F7D9F819F7C",
"A  c #98B3A8188A0B",
"S  c #98B4A3058F0A",
"D  c #9FCFBBDB84D8",
"F  c #A77BB01B9F74",
"G  c #A93EB54B9D99",
"H  c #A904B9A09906",
"J  c #AB12BE459884",
"K  c #AD81BD8B9E05",
"L  c #A0C1A0CBA0C8",
"P  c #A207A212A21B",
"I  c #A284A28AA288",
"U  c #A325A332A374",
"Y  c #A4C1A4A8A4B4",
"T  c #A534A515A522",
"R  c #A56FA56BA586",
"E  c #A681A66BA676",
"W  c #A757A743A73F",
"Q  c #AA6BAA65AA63",
"!  c #AB7AAB79AB7C",
"~  c #AC9AAC9CACA3",
"^  c #AE1DADFAAE64",
"/  c #AFB4AF89B006",
"(  c #AB2BB5AAA158",
")  c #B0C8B95CA8B4",
"_  c #B09FB098B0A7",
"`  c #B105B1DFB05F",
"'  c #B1B8B1A8B1BF",
"]  c #B260B24BB26E",
"[  c #B407B403B404",
"{  c #B5DAB5DDB5DC",
"}  c #B648B64FB647",
"|  c #B718B72DB74F",
" . c #B78EB78DB79C",
".. c #B718BDCDB09E",
"X. c #B8D5B9D8B798",
"o. c #B9B1B97FB9AC",
"O. c #BA43BA1DBA3E",
"+. c #BA8EBA66BA8D",
"@. c #BBE4BBC5BBEB",
"#. c #BC15BC2EBC4D",
"$. c #BCA0BC97BC9F",
"%. c #BF1DBF54BF32",
"&. c #B774C6FFA830",
"*. c #B9B2C25BB15B",
"=. c #BEC3C7FAB5B3",
"-. c #BEDDC11ABCCB",
";. c #C16BC9C5B954",
":. c #C0EAC102C12A",
">. c #C16EC13FC1A6",
",. c #C3C0C3A3C3C6",
"<. c #C439C440C449",
"1. c #C42BC459C47A",
"2. c #C524C4EDC576",
"3. c #C7C6C7FCC83D",
"4. c #C8D9C8F7C909",
"5. c #CAB7CAA6CAC4",
"6. c #CB6DCB95CB8B",
"7. c #CF08CF07CF18",
"8. c #CEE6CF81CE4E",
"9. c #CA0BD30EC0DB",
"0. c #CE70D4F5C792",
"q. c #CE93D1ACCB77",
"w. c #CF45D0D0CDCD",
"e. c #D2B2D3A1D1B8",
"r. c #D502D61AD396",
"t. c #D4ABD3DED574",
"y. c #D542D55DD53F",
"u. c #D598D5A4D59F",
"i. c #D6C7D66BD727",
"p. c #DAC6D94BDBD3",
"a. c None",
/* pixels */
"a.a.a.a.a.a.a.a.a.a.a.a.a.a.a.a.a.a.a.a.a.a.",
"a.a.a.a.4 a.a.a.a.a.a.a.a.a.a.a.a.a.a.a.a.a.",
"a.a.a.D 9.0.&.a.a.a.a.a.a.a.a.a.a.a.a.a.a.a.",
"a.a.;.J r.p.=.K q.i.i.i.i.a.a.a.a.a.a.a.a.a.",
"a.>...H w.t.*.G $.3.>.3.3.8.e.e.e.a.a.a.a.a.",
"a.a.s 3 ( ) A 2 d a.R 7 U 7 C X.4.4.4.a.a.a.",
"a.a.a.@ S F a a.a.a.a.k a.a.a.- k O.4.>.a.a.",
"a.a.a.a.` %.a.a.a.a.%.>.a.a.a.a.a.U { >.a.a.",
"a.a.a.a.` $.a.a.a.a.O.#.O.a.a.a.a.a.R { O.a.",
"a.a.a.a.~ { a.a.a.` { ` { a.a.a.a.a.b ! { a.",
"a.a.a.a.R ` a.a.a./ C t / / a.a.a.a.a.! ` a.",
"a.a.a.a.U ~ a.a.! ! a.a.C ! a.a.a.a.a.! ! a.",
"a.a.a.a.C R a.a.R R a.a.k R R a.a.a.U U R a.",
"a.a.a.a.b U M M M M M M b M M a.a.a.C U M a.",
"a.a.a.a.k M k 5 : ; : : : : 5 k a.M M b a.a.",
"a.a.a.a.k b k a.a.a.a.a.a.a.a.l M b t q a.a.",
"a.a.a.t k b t k a.a.a.a.a.k b k q q a.a.a.a.",
"a.7 q t r t q q q q q q q 5 : & $ a.a.a.a.a.",
"a.a.X + : 7 & O X     X X a.a.a.a.a.a.a.a.a.",
"a.a.a.a.* - $ a.a.a.a.a.a.a.a.a.a.a.a.a.a.a.",
"a.a.a.a.a.a.a.a.a.a.a.a.a.a.a.a.a.a.a.a.a.a.",
"a.a.a.a.a.a.a.a.a.a.a.a.a.a.a.a.a.a.a.a.a.a."
};
