/* XPM */
static char *file_roller[] = {
/* columns rows colors chars-per-pixel */
"22 22 76 1",
"  c #BEECBEECBEBD",
". c #C1A5C1A5C188",
"X c #C26DC26DC222",
"o c #C2E0C2E0C2B7",
"O c #C398C398C396",
"+ c #C4BEC4BEC4B8",
"@ c #C5EBC5EBC5DA",
"# c #C64AC64AC63E",
"$ c #C6D8C6D8C6CB",
"% c #C749C749C73D",
"& c #C7BBC7BBC7A8",
"* c #C850C850C836",
"= c #C8B5C8B5C897",
"- c #C969C969C948",
"; c #C9D9C9D9C9BC",
": c #CA57CA57CA20",
"> c #CACDCACDCAB6",
", c #CB84CB84CB40",
"< c #CBDACBDACBB3",
"1 c #CCE2CCE2CCA7",
"2 c #CE02CE02CDE7",
"3 c #CE97CE97CE92",
"4 c #CFF8CFF8CFBC",
"5 c #D0C7D0C7D0C2",
"6 c #D209D209D203",
"7 c #D2F4D2F4D2F0",
"8 c #D3EBD3EBD3DE",
"9 c #D4E3D4E3D4D7",
"0 c #D5AFD5AFD5A8",
"q c #D70FD70FD706",
"w c #D7FBD7FBD7F7",
"e c #D85BD85BD850",
"r c #D8F2D8F2D8E6",
"t c #D97BD97BD91C",
"y c #D9B7D9B7D9B1",
"u c #DAEDDAEDDAD5",
"i c #DB7DDB7DDB3A",
"p c #DBFCDBFCDBF9",
"a c #DCF4DCF4DCD9",
"s c #DDD1DDD1DDAB",
"d c #DEABDEABDE5B",
"f c #DEC7DEC7DEC4",
"g c #DF63DF63DF5C",
"h c #E003E003DFCD",
"j c #E130E130E029",
"k c #E0F9E0F9E0F7",
"l c #E209E209E0DF",
"z c #E210E210E20E",
"x c #E2EBE2EBE1B6",
"c c #E2EEE2EEE2ED",
"v c #E3ACE3ACE29E",
"b c #E448E448E442",
"n c #E4B7E4B7E4B7",
"m c #E628E628E4FE",
"M c #E605E605E605",
"N c #E71EE71EE71D",
"B c #E80BE80BE80A",
"V c #E904E904E904",
"C c #E9EAE9EAE9E9",
"Z c #EAE8EAE8EAE8",
"A c #EC07EC07EC07",
"S c #ECDFECDFECDF",
"D c #EE1AEE1AEE1A",
"F c #EF1AEF1AEF1A",
"G c #F04AF04AF04A",
"H c #F0F0F0F0F0F0",
"J c #F213F213F213",
"K c #F2FDF2FDF2FD",
"L c #F46FF46FF46F",
"P c #F4E1F4E1F4E1",
"I c #F61FF61FF61F",
"U c #F6FBF6FBF6FB",
"Y c #F804F804F804",
"T c #F8B7F8B7F8B7",
"R c #F9CFF9CFF9CF",
"E c None",
/* pixels */
"EEEEEEEEEEEEEEEEEEEEEE",
"EEEEEEEEEAAAAAHEEEEEEE",
"EEEEEEEcABBBBAHPPPEEEE",
"EEEEccccgggcBHHPPPPREE",
"EcguuggggcAHHPPPRPPRPE",
"ABcw5:5cAHHHHPPPPRRHAc",
"BBBBcw5cAFHHPPRRHFcuww",
"cgcBBBchcFHPPHFBuw53w5",
"pggcccccccFFBu53:::335",
"ueguugpupgg5:%%%%%:::3",
"5wwuueuwuuw:OOOO+%%%::",
"55wwueewww5%OOOOOO%%%%",
"5wwuueuewww*OOOO%%%%%%",
"w5wwuuwwww8%OOO%%%O%%:",
"8wwweuuewe5%OOO%%%%%%%",
"E8wwuuuuwww%OO%%%:%%OE",
"EEEEggguuew*+*::%OOEEE",
"EEEEEwgcjge:*1:%OEEEEE",
"EEEEEEEegmc31% EEEEEEE",
"EEEEEEEEEjc3 EEEEEEEEE",
"EEEEEEEEEEEEEEEEEEEEEE",
"EEEEEEEEEEEEEEEEEEEEEE"
};
