/* XPM */
static char *geany[] = {
/* columns rows colors chars-per-pixel */
"22 22 64 1",
"  c #479147C647B9",
". c #57FA580D5806",
"X c #5F345F8A5F5C",
"o c #664A66496633",
"O c #6AE76B186B00",
"+ c #6CA26CD86CB6",
"@ c #6DFA6E396E1D",
"# c #6F366F6A6F69",
"$ c #6FE170016FD7",
"% c #709370AF7084",
"& c #7571758A7570",
"* c #7615762E7613",
"= c #796079897989",
"- c #7D697D767D58",
"; c #7E437E487E34",
": c #7F267F317F34",
"> c #807880798052",
", c #80FB810380F0",
"< c #81D281CA81C6",
"1 c #830282FF82E6",
"2 c #836983758362",
"3 c #85658593858D",
"4 c #86458659864D",
"5 c #873B874D874F",
"6 c #8805881E8826",
"7 c #89C289C589AE",
"8 c #8A918A888A6F",
"9 c #8BB28BA68B98",
"0 c #8C0C8C028BE7",
"q c #8C358C248C02",
"w c #8C908C8E8C92",
"e c #8D958D908D8E",
"r c #8E478E468E3F",
"t c #8FBD8FBC8FBC",
"y c #907390729068",
"u c #917491709176",
"i c #937E937B9373",
"p c #94BC94A7949C",
"a c #9A289A0A9A01",
"s c #9B529B359B2C",
"d c #9D3F9D339D30",
"f c #9FEE9FDF9FE2",
"g c #A0FAA0E3A0DF",
"h c #A2B9A2B1A2DB",
"j c #A323A30FA30E",
"k c #A578A566A567",
"l c #A804A7EFA7F8",
"z c #AABEAAC0AAAB",
"x c #ABD7ABCEABCE",
"c c #ADEBAE27ADFA",
"v c #B3F1B3B4B3F0",
"b c #B4AAB4BCB4AA",
"n c #B578B555B57E",
"m c #B89DB892B86F",
"M c #B934B939B920",
"N c #BA06BA13B9FD",
"B c #BB8DBB88BB76",
"V c #BEE4BECFBEDA",
"C c #C094C0AAC081",
"Z c #C3CFC3FCC3D3",
"A c #C712C722C703",
"S c #CEE9CF03CEEA",
"D c #D2C1D2CBD2C4",
"F c None",
/* pixels */
"FFFFFFFFFFFFFFFFFFFFFF",
"FFFFFFFFFFFFFFFFFFFFFF",
"FFFFFFFFFFFFFFFZSDFFFF",
"FFFFFFFFFFFFAMMcFFFFFF",
"FFFFFFFFFFFZzFFFFFFFFF",
"FFFFFFFFFFVFFFFFFFFFFF",
"FFFFFFFFFMFFFMnFFFFFFF",
"FFFFFFFnFFFVnzFFFFFFFF",
"FFFFFFzzFnzjFFFFFFFFFF",
"FFFFFzkfiwFFFFFFFFFFFF",
"FFjfsFFFFFFFFFFFFFFFFF",
"FjiFFFFFFFFFFFFFFFFFFF",
"FsFFFFFFFFFFFFFFFFFFFF",
"FFFFFFFFFFFFFFFFFFFFFF",
"FFFFFFFFFwppFFFFF337FF",
"FFtwFFFFF3wwFFFii*X:FF",
"FFF:3FFFwwiitwi7FFF:FF",
"FFFF*<ww7777w73<FFFFFF",
"FFFFFo*<33333<=FFFFFFF",
"FFFFFF .O$@%%@FFFFFFFF",
"FFFFFFFFFFFFFFFFFFFFFF",
"FFFFFFFFFFFFFFFFFFFFFF"
};
