/* XPM */
static char *google_earth[] = {
/* columns rows colors chars-per-pixel */
"22 22 83 1",
"  c #522D522C5229",
". c #5CDA5CD15CD3",
"X c #62F962FC62FE",
"o c #64736480647A",
"O c #65E965F565D0",
"+ c #67BA67B567B6",
"@ c #6C4E6C496C4F",
"# c #6F886F896F8D",
"$ c #7457745B742E",
"% c #7682767F768E",
"& c #779B779B7796",
"* c #7801780177E3",
"= c #78F5790078FD",
"- c #7A3B7A377A3E",
"; c #7B647B667B63",
": c #7C4E7C4F7C26",
"> c #7DB17DAB7DBA",
", c #82F882F582FF",
"< c #857D8580857E",
"1 c #87C487C687C4",
"2 c #895389478956",
"3 c #8BE78BE38BEF",
"4 c #8E7C8E788E70",
"5 c #9054904E904B",
"6 c #91A0919D918F",
"7 c #93E093DD93D3",
"8 c #94C794CD94C6",
"9 c #95EA95F495F5",
"0 c #97B197AB97B0",
"q c #9A679A679A64",
"w c #9B489B3C9B3E",
"e c #9C989C8C9C90",
"r c #9EC29EB49EB8",
"t c #A113A112A10D",
"y c #A204A201A1FB",
"u c #A283A27EA27A",
"i c #A417A417A431",
"p c #A4C7A4CDA4C5",
"a c #A521A52CA52B",
"s c #A55CA567A563",
"d c #A6ADA6B4A6B2",
"f c #A86BA869A86D",
"g c #A997A997A997",
"h c #AA78AA70AA7A",
"j c #ABD1ABBAABD3",
"k c #AC93AC8DAC94",
"l c #AD4BAD52AD44",
"z c #AED9AED0AEDF",
"x c #AFE6AFE7AFEB",
"c c #B0D3B0D0B0DC",
"v c #B1D2B1D1B1DC",
"b c #B2BEB2C0B2C9",
"n c #B386B380B378",
"m c #B501B507B508",
"M c #B59BB59DB5A4",
"N c #B627B636B61B",
"B c #B69BB69CB69D",
"V c #B93BB939B910",
"C c #B9C5B9C2B9A2",
"Z c #BAE6BAE2BAC8",
"A c #BBD3BBCFBBCB",
"S c #BD18BD1CBD05",
"D c #BDC2BDBDBDC4",
"F c #BEA5BE9FBEA8",
"G c #C0C1C0B5C0AC",
"H c #C1C3C1BDC1C9",
"J c #C2ACC2A7C2BE",
"K c #C3EBC3EAC416",
"L c #C4FAC4FCC53A",
"P c #C51AC51CC55C",
"I c #C800C7FCC817",
"U c #C87FC87DC898",
"Y c #CCCECCCFCCAF",
"T c #CD54CD55CD38",
"R c #CDA6CDAFCD8C",
"E c #D103D10FD0F6",
"W c #D196D19CD18A",
"Q c #D6A2D696D699",
"! c #D8BDD8ABD8B4",
"~ c #D962D959D95B",
"^ c #DA91DA8BDA8A",
"/ c #DBC6DBC1DBBF",
"( c None",
/* pixels */
"((((((((((((((((((((((",
"((((((((((((((((((((((",
"((((((((///(((((((((((",
"((((((NlAWQQQ(((((((((",
"(((((((X,7SWWWW(((((((",
"((((((((((qNTTTT((((((",
"((((LL((((((lULUL(((((",
"(((JJJJJ(((((pJJJ(((((",
"((ASSASSSS((((qASA((((",
"((NAAAAAAAN((((3nAAN((",
"((NNNNNNnNNNn(((;pnn((",
"((lnnllnllnnnl(((%3h((",
"((plhlkhlhlkhlhh((((((",
"((000ufhppfppppupp((((",
"((;oo;<0uppuuuuuuuu(((",
"(((((( ;>27qrrrrq00(((",
"((((((((((;o#%%%$%((((",
"((((((((((((((((((((((",
"(((((((23537752(((((((",
"(((((((.+%;>%##(((((((",
"((((((((((((((((((((((",
"(((((((((((((((((((((("
};
