/* XPM */
static char *graveman[] = {
/* columns rows colors chars-per-pixel */
"22 22 121 2",
"   c #4690468E467F",
".  c #4E824E804E79",
"X  c #523352335234",
"o  c #53ED53E353D4",
"O  c #5558554D5535",
"+  c #5625561D5635",
"@  c #5A0B5A0959F1",
"#  c #5DE75DE35DA4",
"$  c #5E175E0C5E0E",
"%  c #697F697F6973",
"&  c #6A596A566A3B",
"*  c #7088707F705F",
"=  c #74C474C2749F",
"-  c #760C75FD75D0",
";  c #76F176EC76D3",
":  c #771A771176E8",
">  c #77937787774E",
",  c #78D378C87880",
"<  c #7996798D7980",
"1  c #7A737A687A3A",
"2  c #7BE17BD57BC4",
"3  c #7EA07EA17E95",
"4  c #7F337F2C7EEC",
"5  c #80868077807B",
"6  c #8294828A825F",
"7  c #83678362834B",
"8  c #8409840583C7",
"9  c #858A85808547",
"0  c #86EB86F386C5",
"q  c #8727871B86C9",
"w  c #881887FE87FF",
"e  c #88D288D28885",
"r  c #89C089BB8969",
"t  c #8AAC8AAA8A7D",
"y  c #8B0C8B078AC5",
"u  c #8B108B108AF1",
"i  c #8BBD8BBE8B8A",
"p  c #8C1E8C278C01",
"a  c #8C858C848C68",
"s  c #8E268E238DC6",
"d  c #8EA58EA48E81",
"f  c #8F9B8F988F6F",
"g  c #906890689062",
"h  c #9155914090DA",
"j  c #91BE91BC917A",
"k  c #9311930092CC",
"l  c #9345933C92BE",
"z  c #939993869357",
"x  c #94FF94EF9493",
"c  c #95CD95BF9592",
"v  c #9688967C95FF",
"b  c #9776976496CF",
"n  c #97DE97D19761",
"m  c #9824982197E7",
"M  c #98AC98A2989D",
"N  c #9938992D98CC",
"B  c #9A959A8E9A6C",
"V  c #9B5B9B5C9AE7",
"C  c #9C659C649BFA",
"Z  c #9C169C099C53",
"A  c #9D8B9D8D9D3E",
"S  c #9EDE9EE69E8C",
"D  c #9FA99FB39F7B",
"F  c #A097A09BA088",
"G  c #A1C0A1C2A188",
"H  c #A298A2A3A286",
"J  c #A39EA3A1A37D",
"K  c #A48FA48BA48A",
"L  c #A52BA52BA521",
"P  c #A5C4A5C0A5AE",
"I  c #A68AA686A67B",
"U  c #A70EA725A742",
"Y  c #A82AA827A81D",
"T  c #A8EBA8E5A8DD",
"R  c #A9C2A9C2A9B9",
"E  c #AAD1AAD0AACC",
"W  c #ABBAABBCABBE",
"Q  c #ADB1ADB2ADB1",
"!  c #AEC3AEC5AEC8",
"~  c #AF6EAF6EAF70",
"^  c #B08EB08FB095",
"/  c #B294B291B2A7",
"(  c #B3C8B3CCB3D2",
")  c #B5B1B5B6B5DA",
"_  c #B6B2B6B6B6E5",
"`  c #B713B716B73C",
"'  c #B766B76CB78A",
"]  c #B9C3B9CEB9B3",
"[  c #BA2FBA43BA37",
"{  c #BA3EBA49BA2B",
"}  c #BAABBAB2BA9E",
"|  c #BB3CBB3DBB33",
" . c #BE1DBE15BE1A",
".. c #BEE0BEDDBEE7",
"X. c #BFADBFABBFB2",
"o. c #C0FFC0FDC106",
"O. c #C1C7C1C5C1C5",
"+. c #C38EC3A1C378",
"@. c #C4BCC4BBC4C1",
"#. c #C5D8C5D8C5DE",
"$. c #C6EEC6EFC6F4",
"%. c #C828C822C812",
"&. c #C8A4C89FC88B",
"*. c #C9D3C9E6C9D4",
"=. c #CB23CB22CB0C",
"-. c #CCC6CCC7CCB5",
";. c #CE0ECE25CE1C",
":. c #CED3CEEFCEF2",
">. c #D016D036D04A",
",. c #D0B5D0C9D0BC",
"<. c #D336D35BD346",
"1. c #D397D3BDD3C0",
"2. c #D4D0D4FAD4E0",
"3. c #D5BAD5DDD5D5",
"4. c #D7EDD839D80D",
"5. c #D8BFD908D8E7",
"6. c #D996D9ECD9B9",
"7. c #DB53DBB3DB81",
"8. c #DBA0DBDDDBD1",
"9. c #DCCEDCF8DD03",
"0. c None",
/* pixels */
"0.0.0.0.0.0.0.0.0.0.0.0.0.0.0.0.0.0.0.0.0.0.",
"0.0.0.0.0.0.0.0.9.9.8.9.9.9.8.0.0.0.0.0.0.0.",
"0.0.0.0.0.0.7.7.7.,.,.:.:.7.7.2.2.0.0.0.0.0.",
"0.0.0.0.,.2.,.&.~ / U N G G ] :.2.,.0.0.0.0.",
"0.0.0.&.,.:.] T < 0.0.G 0.o e ( o.,.:.0.0.0.",
"0.0.0.&.&.#.0.0.0.0.0.0.0.0.0.0.K o.&.&.0.0.",
"0.0.o.#. .0.0.0.0.0.#.0.0.0.0.0.0./ o.#.0.0.",
"0.0. . .] 0.0.0.0. .o.] 0.0.0.0.0.m ' o.0.0.",
"0.0.] ' / 0.0.0.' ] ] ] ] ] 0.0.0.0.~ ] ] 0.",
"0.~ ' ' 0.0.0.~ G ~ ' ' ' ' 0.0.0.0.T ' / 0.",
"0.U / ~ 0.0.~ 0.0.- j ~ ~ ~ 0.0.~ 0.T ~ ~ 0.",
"0.G T ~ 0.0.T 0.0.0.0.e T U 0.0.T 0.U T T 0.",
"0.0.U U 0.G G U 0.0.0.d S 0.0.U U G G U U 0.",
"0.0.G G G 0.N K G 0.0.b 0.0.G G N 0.G G S 0.",
"0.0.d S S 0.N S N 0.S b 0.b C N 0.N S N 0.0.",
"0.0.5 j N b b j < p N N 0.< - b b m m b 0.0.",
"0.0.0.q j z b e < d j j z 4 & d z j d 0.0.0.",
"0.0.0.0.- d j d e d d j j e q d d d w 0.0.0.",
"0.0.0.0.o & 5 d d e e e d e d e 4 < 0.0.0.0.",
"0.0.0.0.0.0.$ & 4 5 q q 5 5 - * 0.0.0.0.0.0.",
"0.0.0.0.0.0.0.0.  X @ $ o X 0.0.0.0.0.0.0.0.",
"0.0.0.0.0.0.0.0.0.0.0.0.0.0.0.0.0.0.0.0.0.0."
};
