/* XPM */
static char *kxsldbg[] = {
/* columns rows colors chars-per-pixel */
"22 22 75 1",
"  c #467246764683",
". c #55B4559A55BC",
"X c #6AF96AF66B0B",
"o c #6D046D596D5A",
"O c #76D877267728",
"+ c #7827781F7854",
"@ c #79B1795979B2",
"# c #7A287A227A30",
"$ c #7BB77BB37BC0",
"% c #808E808A8097",
"& c #812D81318146",
"* c #826A826A8273",
"= c #85038502850A",
"- c #85E685DE85E7",
"; c #86A5869D86A6",
": c #875B875D8768",
"> c #89128914891D",
", c #8AA78A848AAE",
"< c #8C408C3E8C4A",
"1 c #90E590E890EE",
"2 c #926B9264926C",
"3 c #934F934D934B",
"4 c #9461946F9462",
"5 c #956895699562",
"6 c #9667966A9664",
"7 c #97569754974D",
"8 c #988F988B9886",
"9 c #998E998C9987",
"0 c #9A6B9A6A9A68",
"q c #9B759B689B67",
"w c #9DD09DCE9DC5",
"e c #9E579E459E4F",
"r c #A013A005A00D",
"t c #A0E1A0E8A0D9",
"y c #A1D6A185A1AE",
"u c #A29AA282A28A",
"i c #A40DA3FDA404",
"p c #A482A461A47D",
"a c #A530A539A52A",
"s c #A66CA667A663",
"d c #A7AFA7AAA7A9",
"f c #A8A4A848A879",
"g c #AEA9AE81AE9A",
"h c #AF4FAF21AF3D",
"j c #AF68AF36AF58",
"k c #B06EB028B05A",
"l c #B17CB11DB168",
"z c #B1B7B192B1AD",
"x c #B384B35AB37B",
"c c #B524B547B51F",
"v c #B793B7B2B790",
"b c #B83EB83AB835",
"n c #B88AB893B887",
"m c #B95FB96FB962",
"M c #BAB2BABDBAB4",
"N c #BB3ABB61BB39",
"B c #BB4DBB47BB53",
"V c #BC60BC79BC63",
"C c #BD35BD42BD30",
"Z c #BF04BF01BF02",
"A c #C074C07FC07A",
"S c #C197C1A4C1A0",
"D c #C296C292C29F",
"F c #C7BAC7B3C7AF",
"G c #CA19CA20CA0F",
"H c #CA90CA96CA8B",
"J c #CBBDCBC2CBB2",
"K c #CCBCCCC1CCB2",
"L c #CDFBCDFBCDEE",
"P c #D2C0D2B0D2AE",
"I c #D3AAD394D3A1",
"U c #D630D602D64B",
"Y c #D81FD7E4D84B",
"T c #DBA2DB9CDBF0",
"R c None",
/* pixels */
"RRRRRRRRRRRRRRRRRRRRRR",
"RRRRRRRRRRRRRRRRRRRRRR",
"RRRRRRRRRRRRRRRRRRRRRR",
"RRRRRRRTTRRRRRRRRRRRRR",
"RRRRRRPPPPRRRRRRRRRRRR",
"RRRRLJJJJLJJJRRRRRRRRR",
"RRRRVDDd,9mDDRRRRRRRRR",
"RRRvmmmRRRdvmvRRRRRRRR",
"RRRklgRRRRRgggRRRRRRRR",
"RRR,idRRRRddi9RRRRRRRR",
"RRRR3eeRR9eeeRRRRRRRRR",
"RRRR359855553RRRRRRRRR",
"RRRR--&-,,&$,RRRRRRRRR",
"RRRRRRRo&$. RRRUUURRRR",
"RRRRRRRRoRRRRJLJFJLRRR",
"RRRRRRRRRRRRRmVvvmVmRR",
"RRRRRRRRRRRRflgRRdglRR",
"RRRRRRRRRRRRiidRRideRR",
"RRRRRRRRRRRRR399559RRR",
"RRRRRRRRRRRRR&&-,-&RRR",
"RRRRRRRRRRRRRRROO$RRRR",
"RRRRRRRRRRRRRRRRRRRRRR"
};
