/* XPM */
static char *opera[] = {
/* columns rows colors chars-per-pixel */
"22 22 82 1",
"  c #3D853DB73DB3",
". c #3FEA400C4009",
"X c #5385539653A2",
"o c #63AB63B863C1",
"O c #640C64266434",
"+ c #6BAE6BE16BE5",
"@ c #701F7034703A",
"# c #73537377737B",
"$ c #765D766D7674",
"% c #7A037A207A32",
"& c #7C8C7C7E7C79",
"* c #808880848070",
"= c #84FB8510850C",
"- c #87C387518756",
"; c #885687FD8804",
": c #893A88E288E3",
"> c #89AD8994898E",
", c #8B698B4F8B59",
"< c #8CA18C8C8C90",
"1 c #8DB88DBE8DB8",
"2 c #8EA98EB78EB6",
"3 c #90B2909E90B2",
"4 c #939193999396",
"5 c #945F94679469",
"6 c #95EE95ED95F0",
"7 c #99A599B299B2",
"8 c #9AB29AB69AB5",
"9 c #9B179B319B29",
"0 c #9B2F9B4A9B3E",
"q c #9EE09EE89EDD",
"w c #9F309F539F44",
"e c #A0C2A0D2A0CF",
"r c #A1D6A1D9A1DA",
"t c #A2BAA2B9A2C5",
"y c #A4F5A4EDA4EA",
"u c #A592A588A587",
"i c #A87AA874A870",
"p c #AB2AAB57AB44",
"a c #ABB3ABAFABA9",
"s c #ACAEACACACA8",
"d c #ADA9AD9FADB0",
"f c #B0E0B0BDB0F7",
"g c #B13AB118B14F",
"h c #B176B156B18A",
"j c #B3C7B3BAB3F4",
"k c #B677B67CB6E1",
"l c #B887B899B8E0",
"z c #B8DFB8F0B93C",
"x c #B924B939B981",
"c c #B97EB99DB9CA",
"v c #B9F0B9FBBA40",
"b c #BB8BBBA0BBBA",
"n c #BCF9BD1EBD39",
"m c #BD1ABD2CBD5B",
"M c #BD33BD58BD65",
"N c #BDB7BDDEBDDC",
"B c #BE38BE5CBE73",
"V c #BEB0BEE6BEFB",
"C c #C239C25AC260",
"Z c #C2B9C2EBC2EA",
"A c #C326C35AC360",
"S c #C367C388C385",
"D c #C7B4C7EAC828",
"F c #C7FEC830C86D",
"G c #C8B0C8D0C8F6",
"H c #C8E8C915C951",
"J c #CAEDCAF4CAFB",
"K c #CCEACCF9CD34",
"L c #CE40CE27CEB5",
"P c #CF07CEECCF6F",
"I c #D020CFF8D07B",
"U c #D065D03BD0C2",
"Y c #D365D36BD37B",
"T c #D554D54BD55F",
"R c #D556D54CD560",
"E c #D5B3D5B0D5B6",
"W c #D8CDD8C0D8DD",
"Q c #D961D94CD951",
"! c #D9AFD993D9A1",
"~ c #DB48DB55DB41",
"^ c #DC0EDBFCDC0A",
"/ c None",
/* pixels */
"//////////////////////",
"//////////////////////",
"//////////////////////",
"///////!!!GG!^^///////",
"//////RRRVt4tYRR//////",
"/////LULLp//$bYUL/////",
"/////FGDA////dDDG/////",
"////VAAA//////AAAA////",
"////bbVV//////bVVb////",
"////gbbk//////kkkb////",
"////dggd//////gggg////",
"////yddp//////pdpd////",
"////tyyy//////yyyy////",
"////5ttt//////qttq////",
"////<7777/////7777////",
"/////<545////4554/////",
"/////%,<<<//;<<<,/////",
"//////@*-,---,-*//////",
"///////XO$&&$+O///////",
"////////// .//////////",
"//////////////////////",
"//////////////////////"
};
