/* XPM */
static char *browser[] = {
/* columns rows colors chars-per-pixel */
"24 24 121 2",
"   c #2E1C2E202E1E",
".  c #36EC36D636DF",
"X  c #3BBB3BC03BC3",
"o  c #3C1E3C3D3C22",
"O  c #3F693F893F85",
"+  c #4619461B4614",
"@  c #477B477D477A",
"#  c #49F749F549EB",
"$  c #4ED44EA44EC2",
"%  c #5EFA5EF85EFC",
"&  c #648A6489647E",
"*  c #688568736877",
"=  c #69BB69BC69C6",
"-  c #70D570E270D3",
";  c #735872F872F7",
":  c #75777562754F",
">  c #77AA778A777E",
",  c #7B867BA17B8D",
"<  c #7C867C817C9A",
"1  c #7D147D137D0F",
"2  c #7F657F3E7F31",
"3  c #809E80948087",
"4  c #81B881B281B9",
"5  c #822282078200",
"6  c #82978287828A",
"7  c #83C983CA83D6",
"8  c #85D585EC85F7",
"9  c #871487058701",
"0  c #87988775876B",
"q  c #882987D787AC",
"w  c #88A388AB88A2",
"e  c #8A9A8A888A8D",
"r  c #8BC58BC18BBC",
"t  c #8C008C228C0D",
"y  c #8C528C558C56",
"u  c #8DD28E3F8E34",
"i  c #8EC88EDD8EC8",
"p  c #8FA28FE38FCD",
"a  c #8FB990059016",
"s  c #907790BF90C7",
"d  c #90B790EE9126",
"f  c #91A091DA91E7",
"g  c #93AC93AD93B5",
"h  c #951195119518",
"j  c #9502951B9529",
"k  c #9583957A9576",
"l  c #962A960F9614",
"z  c #96C796D096DA",
"x  c #977297769776",
"c  c #98B598C798C6",
"v  c #99A9999A999A",
"b  c #9B1B9A869A86",
"n  c #9C579C889C4C",
"m  c #9DA09D959DA4",
"M  c #9E1F9E1F9E1A",
"N  c #9E289E069E1F",
"B  c #9E5C9E559E56",
"V  c #A007A00BA000",
"C  c #A0639F889FE4",
"Z  c #A02FA02DA025",
"A  c #A188A178A19C",
"S  c #A2F6A302A2F2",
"D  c #A317A327A30F",
"F  c #A344A315A330",
"G  c #A377A35BA371",
"H  c #A440A430A428",
"J  c #A59CA5C3A597",
"K  c #A6ABA69AA694",
"L  c #A6CBA72FA6CA",
"P  c #A7BDA7BEA7A4",
"I  c #A8B2A87CA84F",
"U  c #ABCFABCDABC0",
"Y  c #AC77AC63AC6E",
"T  c #AD42ACE6ACF2",
"R  c #AD8EAD77AD73",
"E  c #AECAAE2CAE33",
"W  c #AF63AF0CAF04",
"Q  c #AFC8AF59AF48",
"!  c #B122B08DB094",
"~  c #B176B0BCB0D7",
"^  c #B34CB297B295",
"/  c #B399B37AB371",
"(  c #B59FB503B502",
")  c #B5B1B586B570",
"_  c #B693B5F0B5EC",
"`  c #B71FB713B6FE",
"'  c #B7D1B797B787",
"]  c #B8F3B8D1B8DD",
"[  c #B962B923B912",
"{  c #B9B8B9EEB9D3",
"}  c #BB39BB30BB38",
"|  c #BB42BB40BB36",
" . c #BCBBBCBDBCB9",
".. c #BDA3BDA3BDAE",
"X. c #BE41BE2EBE33",
"o. c #BE8ABE30BE7B",
"O. c #BE64BE5ABE5C",
"+. c #BFDABFFEBFD8",
"@. c #C0E0C0ECC0E2",
"#. c #C1DEC1D9C1DD",
"$. c #C2FEC2ECC2F3",
"%. c #C446C437C45D",
"&. c #C545C55DC54C",
"*. c #C701C734C703",
"=. c #C80EC7FFC7FF",
"-. c #C89DC898C89B",
";. c #C9C8C9ADC9DD",
":. c #CCD2CCCFCCD2",
">. c #CE11CE12CE10",
",. c #CED2CEC0CEC9",
"<. c #D0CED0BDD0CE",
"1. c #D1E4D1D2D1DB",
"2. c #D470D476D474",
"3. c #D60AD5E8D609",
"4. c #D6FCD6FCD6F7",
"5. c #D7C7D7C7D7CB",
"6. c #D95FD939D953",
"7. c #D9ECD9ECD9EF",
"8. c #DA80DA77DA7A",
"9. c #DBECDBEBDBEC",
"0. c None",
/* pixels */
"0.0.0.0.0.0.0.0.0.0.0.0.0.0.0.0.0.0.0.0.0.0.0.0.",
"0.0.0.0.0.0.0.0.0.0.0.6.4.6.9.0.0.0.0.0.0.0.0.0.",
"0.0.0.0.0.0.0.-.-.,.0.0.0.4.6.6.4.0.0.0.0.0.0.0.",
"0.0.0.0.0.0.0.0.3 #.0.0.} *.6.+.7 0.<.0.0.0.0.0.",
"0.0.0.0.0.#.-.#.] -.,.<. .} *.0.0.0.0.0.0.0.0.0.",
"0.0.0.0.0.0.) 0., #.,.,.,.#.i 0.0.0.0.0.0.0.0.0.",
"0.0.0.0.0.0.0.0.^  .-.-.-.*.0.0.0.0.0.0.0.0.0.0.",
"0.0.0.0.0.0.0.#.#.#.%.#.#. .0. .0.0.0.0.0.} 0.0.",
"0.0.0.0.0.0. . . . . . . .} 0.i K } 0.0.0.0.0.0.",
"0.0.0.0.} ' } } }  .} } ) 0.0.0.0.0.0.0.0.0.^ 0.",
"0.0.0.b P ) ) ) ) ) ( ) W 0.0.0.0.0.0.0.0.^ ^ 0.",
"0.W W : 2 P B W ^ ! ! Q W 0.0.0.0.0.0.0.0.W Q 0.",
"0.0.U U e & . * K W Y Y U 0.0.0.0.0.0.0.K W W 0.",
"0.0.K K K 0.0.0.* n I K K K K K 0.0.0.0.H K H 0.",
"0.0.G G G 0.0.0.0.# i G G G G G 0.0.0.0.G G B 0.",
"0.0.h B B 0.0.0.0.0.e B B B B B 0.0.0.h B B 0.0.",
"0.0.3 x b b 0.0.0.0.b b b b b b 0.0.0.h b h 0.0.",
"0.0.0.2 h h 0.0.0.0.s h h j h h 0.0.0.s h 0.0.0.",
"0.0.0.0.3 s s 0.0.i s i a s s i i 0.i i e 0.0.0.",
"0.0.0.0.$ , i 0.e e i i t t t i t i e 0 0.0.0.0.",
"0.0.0.0.0.o * 3 0 0 0 0 0 0 0 e 0 2 - 0.0.0.0.0.",
"0.0.0.0.0.0.0.# & , 2 3 3 3 , - % 0.0.0.0.0.0.0.",
"0.0.0.0.0.0.0.0.0.  o @ # @ o 0.0.0.0.0.0.0.0.0.",
"0.0.0.0.0.0.0.0.0.0.0.0.0.0.0.0.0.0.0.0.0.0.0.0."
};
