/* XPM */
static char *opera[] = {
/* columns rows colors chars-per-pixel */
"24 24 102 2",
"   c #289D28CD28CD",
".  c #2C542C6F2C6F",
"X  c #3B8E3B9E3BCA",
"o  c #51CE51ED51FA",
"O  c #5B525B9E5BA9",
"+  c #6157615C616E",
"@  c #625B62176223",
"#  c #635563C363CB",
"$  c #6C1D6C9A6C9A",
"%  c #7041707A7089",
"&  c #730773167347",
"*  c #74B575347534",
"=  c #767176927684",
"-  c #812180F18112",
";  c #83BD83D48397",
":  c #83E083F18405",
">  c #85C885CC85D5",
",  c #861285C785CC",
"<  c #86D98666866D",
"1  c #871486EE86E0",
"2  c #87A38780876E",
"3  c #8ABE8A9E8A96",
"4  c #8BAE8BBC8BA8",
"5  c #8CBB8C998CB3",
"6  c #8D758DA28D9F",
"7  c #908C90979089",
"8  c #911190E990FC",
"9  c #910A911F90D6",
"0  c #910E90FE911F",
"q  c #92E192D592F5",
"w  c #94EA94D594FA",
"e  c #95D695A995AF",
"r  c #960996309610",
"t  c #9681968A967E",
"y  c #971897049709",
"u  c #979197749774",
"i  c #9946993A9942",
"p  c #9AF09B039B10",
"a  c #9B419B579B4D",
"s  c #9C6E9C619C69",
"d  c #9EFE9F2C9F12",
"f  c #9F9F9F969F8E",
"g  c #A156A116A116",
"h  c #A1CBA1DDA1D7",
"j  c #A219A22AA220",
"k  c #A45DA453A451",
"l  c #A59DA58EA58E",
"z  c #A6A7A678A6A9",
"x  c #A732A706A712",
"c  c #A768A74EA753",
"v  c #A9AEA9B6A9A4",
"b  c #AB86AB88AB7C",
"n  c #ACD9ACE2ACC6",
"m  c #AD43AD47AD3D",
"M  c #B08FB064B09C",
"N  c #B172B159B10B",
"B  c #B222B201B1D5",
"V  c #B23BB22AB1F8",
"C  c #B243B244B1DC",
"Z  c #B293B27FB282",
"A  c #B419B41CB499",
"S  c #B57EB570B5F0",
"D  c #B681B67FB704",
"F  c #B723B71EB79C",
"G  c #B774B78AB7B7",
"H  c #BA96BAC3BAC1",
"J  c #BB76BBA3BBC0",
"K  c #BC33BC67BC64",
"L  c #BC84BCBABCA1",
"P  c #BFC6C005C01E",
"I  c #C0CFC102C110",
"U  c #C178C1CEC196",
"Y  c #C1E2C25EC1E4",
"T  c #C3CEC3A7C3A7",
"R  c #C507C50BC577",
"E  c #C553C531C568",
"W  c #C5AFC60AC5FA",
"Q  c #C6ABC6F6C705",
"!  c #C6E7C72DC750",
"~  c #C70AC76DC768",
"^  c #C9FDCA03CAA6",
"/  c #CC01CBFBCC7E",
"(  c #CC8CCC6ACD11",
")  c #CCD0CCAFCD62",
"_  c #CD73CD4ECDD4",
"`  c #CE98CE8CCE82",
"'  c #D0CBD09DD0CA",
"]  c #D12FD103D166",
"[  c #D260D20ED241",
"{  c #D27ED248D281",
"}  c #D292D25ED294",
"|  c #D341D31ED36D",
" . c #D71ED732D709",
".. c #D7B2D7B9D7BA",
"X. c #D850D867D864",
"o. c #D8CED88CD8C0",
"O. c #DAC0DA8BDAB8",
"+. c #DBD5DBCADBD4",
"@. c #DCD7DCE5DCD9",
"#. c #DE06DE0ADE0E",
"$. c #DFFDE00DE000",
"%. c None",
/* pixels */
"%.%.%.%.%.%.%.%.%.%.%.%.%.%.%.%.%.%.%.%.%.%.%.%.",
"%.%.%.%.%.%.%.%.%.%.%.%.%.%.%.%.%.%.%.%.%.%.%.%.",
"%.%.%.%.%.%.%.%.%.%.%.%.%.%.%.%.%.%.%.%.%.%.%.%.",
"%.%.%.%.%.%.%.%.O.O.#.#.$.#.+.#.%.%.%.%.%.%.%.%.",
"%.%.%.%.%.%.%. . . .( h t T O. . .%.%.%.%.%.%.%.",
"%.%.%.%.%.%.| | | | d %.%.+ W | | | %.%.%.%.%.%.",
"%.%.%.%.%.^ ( ( ^ W %.%.%.%.l ( ( ( / %.%.%.%.%.",
"%.%.%.%.%.W W W W P %.%.%.%.l W W ~ W %.%.%.%.%.",
"%.%.%.%.J P T P T %.%.%.%.%.%.P T P T P %.%.%.%.",
"%.%.%.%.S J J P J %.%.%.%.%.%.S K K J J %.%.%.%.",
"%.%.%.%.M G J S S %.%.%.%.%.%.A J S J S %.%.%.%.",
"%.%.%.%.b M M M M %.%.%.%.%.%.M M M M M %.%.%.%.",
"%.%.%.%.l m m m b %.%.%.%.%.%.b m m m m %.%.%.%.",
"%.%.%.%.h l l c l %.%.%.%.%.%.l l l l l %.%.%.%.",
"%.%.%.%.q h h h h %.%.%.%.%.%.d h h h f %.%.%.%.",
"%.%.%.%.; p s s p p %.%.%.%.%.p d p d t %.%.%.%.",
"%.%.%.%.%.6 u t t t %.%.%.%.%.t t t t %.%.%.%.%.",
"%.%.%.%.%.& 7 q 6 q %.%.%.%.5 q 6 q 3 %.%.%.%.%.",
"%.%.%.%.%.%.% 4 3 3 3 %.%.< 3 4 4 < %.%.%.%.%.%.",
"%.%.%.%.%.%.%.+ ; < < < < < 2 : = %.%.%.%.%.%.%.",
"%.%.%.%.%.%.%.%.X O $ = = % # o %.%.%.%.%.%.%.%.",
"%.%.%.%.%.%.%.%.%.%.%.  . %.%.%.%.%.%.%.%.%.%.%.",
"%.%.%.%.%.%.%.%.%.%.%.%.%.%.%.%.%.%.%.%.%.%.%.%.",
"%.%.%.%.%.%.%.%.%.%.%.%.%.%.%.%.%.%.%.%.%.%.%.%."
};
