<?xml version="1.0" encoding="UTF-8" standalone="no"?>
<svg
   xmlns:dc="http://purl.org/dc/elements/1.1/"
   xmlns:cc="http://creativecommons.org/ns#"
   xmlns:rdf="http://www.w3.org/1999/02/22-rdf-syntax-ns#"
   xmlns:svg="http://www.w3.org/2000/svg"
   xmlns="http://www.w3.org/2000/svg"
   xmlns:xlink="http://www.w3.org/1999/xlink"
   xmlns:sodipodi="http://sodipodi.sourceforge.net/DTD/sodipodi-0.dtd"
   xmlns:inkscape="http://www.inkscape.org/namespaces/inkscape"
   id="svg2"
   height="48"
   version="1.1"
   width="48"
   inkscape:version="0.91 r13725"
   sodipodi:docname="alienarena.svg">
  <sodipodi:namedview
     pagecolor="#ffffff"
     bordercolor="#666666"
     borderopacity="1"
     objecttolerance="10"
     gridtolerance="10"
     guidetolerance="10"
     inkscape:pageopacity="0"
     inkscape:pageshadow="2"
     inkscape:window-width="1366"
     inkscape:window-height="699"
     id="namedview15"
     showgrid="false"
     inkscape:zoom="4.9166667"
     inkscape:cx="-42.81356"
     inkscape:cy="32.135593"
     inkscape:window-x="0"
     inkscape:window-y="0"
     inkscape:window-maximized="1"
     inkscape:current-layer="layer1" />
  <defs
     id="defs5455">
    <linearGradient
       inkscape:collect="always"
       id="linearGradient4200">
      <stop
         style="stop-color:#66ea58;stop-opacity:1"
         id="stop4202" />
      <stop
         offset="1"
         style="stop-color:#239145;stop-opacity:1"
         id="stop4204" />
    </linearGradient>
    <linearGradient
       id="linearGradient4176"
       inkscape:collect="always">
      <stop
         id="stop4178"
         style="stop-color:#66c76b;stop-opacity:1" />
      <stop
         id="stop4180"
         style="stop-color:#239161"
         offset="1" />
    </linearGradient>
    <linearGradient
       gradientUnits="userSpaceOnUse"
       x2="0"
       y2="503.798"
       y1="543.79797"
       id="linearGradient4174"
       xlink:href="#linearGradient4303" />
    <linearGradient
       id="linearGradient4303">
      <stop
         id="stop4305"
         style="stop-color:#c6cdd1" />
      <stop
         id="stop4307"
         style="stop-color:#e0e5e7"
         offset="1" />
    </linearGradient>
    <clipPath
       id="clipPath-790372096">
      <g
         transform="translate(0,-1004.3622)"
         id="g17">
        <path
           inkscape:connector-curvature="0"
           d="m -24,13 c 0,1.105 -0.672,2 -1.5,2 -0.828,0 -1.5,-0.895 -1.5,-2 0,-1.105 0.672,-2 1.5,-2 0.828,0 1.5,0.895 1.5,2 z"
           transform="matrix(15.333333,0,0,11.5,414.99999,878.8622)"
           style="fill:#1890d0"
           id="path19" />
      </g>
    </clipPath>
    <linearGradient
       id="linearGradient4422">
      <stop
         style="stop-color:#30cf41;stop-opacity:1"
         offset="0"
         id="stop4424" />
      <stop
         style="stop-color:#47f383;stop-opacity:1"
         offset="1"
         id="stop4426" />
    </linearGradient>
    <linearGradient
       id="linearGradient4232">
      <stop
         id="stop4234-0"
         offset="0"
         style="stop-color:#3889e9;stop-opacity:1" />
      <stop
         id="stop4236"
         offset="1"
         style="stop-color:#5ea5fb;stop-opacity:1" />
    </linearGradient>
    <radialGradient
       inkscape:collect="always"
       xlink:href="#linearGradient4176"
       id="radialGradient4174"
       cx="292.54648"
       cy="534.97845"
       fx="292.54648"
       fy="534.97845"
       r="4.7555084"
       gradientTransform="matrix(1,0,0,1.2676083,0,-143.16465)"
       gradientUnits="userSpaceOnUse" />
    <linearGradient
       inkscape:collect="always"
       xlink:href="#linearGradient4200"
       id="linearGradient4198"
       x1="305.8244"
       y1="609.76282"
       x2="303.19855"
       y2="8.1933317"
       gradientUnits="userSpaceOnUse" />
  </defs>
  <metadata
     id="metadata5458">
    <rdf:RDF>
      <cc:Work
         rdf:about="">
        <dc:format>image/svg+xml</dc:format>
        <dc:type
           rdf:resource="http://purl.org/dc/dcmitype/StillImage" />
        <dc:title />
      </cc:Work>
    </rdf:RDF>
  </metadata>
  <g
     transform="matrix(1 0 0 1 -384.57143 -499.798)"
     id="layer1">
    <g
       style="opacity:0.9;fill-opacity:1;fill:#239161"
       transform="matrix(3.4668436,0,0,3.4668436,-605.51809,-1330.7317)"
       id="g4541">
      <g
         transform="translate(-2.1372744e-6,-0.12047652)"
         id="g4567"
         style="fill-opacity:1.0;fill:url(#radialGradient4174)">
        <g
           id="g4471"
           transform="matrix(0.53740594,0,0,0.53740594,75.811585,245.29007)"
           style="fill-opacity:1.0;fill:url(#radialGradient4174)">
          <g
             inkscape:label="Capa 1"
             id="layer1-39"
             transform="matrix(1.5444819,0,0,1.5444819,-275.38426,-295.80854)"
             style="fill-opacity:1.0;fill:url(#radialGradient4174)" />
          <g
             id="g3"
             transform="matrix(0.0366571,0,0,0.0366571,392.08121,528.05654)"
             style="fill-opacity:1.0;fill:url(#radialGradient4174)">
            <path
               d="M 64.601,236.822 C 64.601,394.256 192.786,612 306.001,612 412.582,612 547.4,394.256 547.4,236.822 547.4,79.388 439.322,0 306,0 172.678,0 64.601,79.388 64.601,236.822 Z m 304.12,116.415 c 29.475,-29.475 70.598,-40.195 108.552,-32.173 8.021,37.954 -2.698,79.077 -32.173,108.552 -29.475,29.475 -70.598,40.195 -108.552,32.173 -8.022,-37.955 2.698,-79.078 32.173,-108.552 z M 134.727,321.063 c 37.954,-8.021 79.077,2.698 108.552,32.173 29.475,29.475 40.195,70.598 32.173,108.552 -37.954,8.021 -79.077,-2.698 -108.552,-32.173 -29.475,-29.476 -40.194,-70.598 -32.173,-108.552 z"
               id="path5"
               inkscape:connector-curvature="0"
               style="fill-opacity:1;fill:url(#linearGradient4198)" />
          </g>
        </g>
      </g>
    </g>
  </g>
</svg>
