<?xml version="1.0" encoding="UTF-8" standalone="no"?>
<!-- Created with Inkscape (http://www.inkscape.org/) -->

<svg
   xmlns:dc="http://purl.org/dc/elements/1.1/"
   xmlns:cc="http://creativecommons.org/ns#"
   xmlns:rdf="http://www.w3.org/1999/02/22-rdf-syntax-ns#"
   xmlns:svg="http://www.w3.org/2000/svg"
   xmlns="http://www.w3.org/2000/svg"
   xmlns:xlink="http://www.w3.org/1999/xlink"
   xmlns:sodipodi="http://sodipodi.sourceforge.net/DTD/sodipodi-0.dtd"
   xmlns:inkscape="http://www.inkscape.org/namespaces/inkscape"
   width="48"
   height="48"
   id="svg5453"
   version="1.1"
   inkscape:version="0.91 r13725"
   sodipodi:docname="atom.svg">
  <defs
     id="defs5455">
    <linearGradient
       gradientTransform="matrix(1.0108865,0,0,1.009542,324.76204,484.47117)"
       inkscape:collect="always"
       xlink:href="#linearGradient4288-0"
       id="linearGradient4337"
       x1="83.375053"
       y1="32.12505"
       x2="83.375053"
       y2="47.12505"
       gradientUnits="userSpaceOnUse" />
    <linearGradient
       id="linearGradient4288-0"
       inkscape:collect="always">
      <stop
         id="stop4290-7"
         offset="0"
         style="stop-color:#00a199;stop-opacity:1" />
      <stop
         id="stop4292-0"
         offset="1"
         style="stop-color:#00f89a;stop-opacity:0.98823529" />
    </linearGradient>
    <linearGradient
       gradientTransform="matrix(0.75839582,0,0,0.83141545,346.2089,491.79537)"
       inkscape:collect="always"
       xlink:href="#linearGradient4288-0"
       id="linearGradient4329"
       x1="78.375053"
       y1="22.12505"
       x2="78.375053"
       y2="52.12505"
       gradientUnits="userSpaceOnUse" />
  </defs>
  <sodipodi:namedview
     id="base"
     pagecolor="#ffffff"
     bordercolor="#666666"
     borderopacity="1.0"
     inkscape:pageopacity="0"
     inkscape:pageshadow="2"
     inkscape:zoom="7.562496"
     inkscape:cx="21.120467"
     inkscape:cy="16.425871"
     inkscape:document-units="px"
     inkscape:current-layer="layer1"
     showgrid="true"
     fit-margin-top="0"
     fit-margin-left="0"
     fit-margin-right="0"
     fit-margin-bottom="0"
     inkscape:window-width="683"
     inkscape:window-height="699"
     inkscape:window-x="0"
     inkscape:window-y="0"
     inkscape:window-maximized="0"
     inkscape:showpageshadow="false"
     borderlayer="true"
     showguides="true">
    <inkscape:grid
       type="xygrid"
       id="grid4063" />
    <sodipodi:guide
       position="1.1650391e-05,47.999996"
       orientation="4,0"
       id="guide4146" />
    <sodipodi:guide
       position="1.1650391e-05,43.999996"
       orientation="0,48"
       id="guide4148" />
    <sodipodi:guide
       position="48.000012,43.999996"
       orientation="-4,0"
       id="guide4150" />
    <sodipodi:guide
       position="1.1650391e-05,4.0000264"
       orientation="4,0"
       id="guide4154" />
    <sodipodi:guide
       position="1.1650391e-05,2.6367188e-05"
       orientation="0,48"
       id="guide4156" />
    <sodipodi:guide
       position="48.000012,2.6367188e-05"
       orientation="-4,0"
       id="guide4158" />
    <sodipodi:guide
       position="48.000012,4.0000264"
       orientation="0,-48"
       id="guide4160" />
    <sodipodi:guide
       position="48.000012,48.000026"
       orientation="0,-4"
       id="guide4162" />
    <sodipodi:guide
       position="44.000012,48.000026"
       orientation="48,0"
       id="guide4164" />
    <sodipodi:guide
       position="44.000012,2.6367188e-05"
       orientation="0,4"
       id="guide4166" />
    <sodipodi:guide
       position="48.000012,2.6367188e-05"
       orientation="-48,0"
       id="guide4168" />
    <sodipodi:guide
       position="4.0000422,48.000026"
       orientation="0,-4"
       id="guide4170" />
    <sodipodi:guide
       position="4.2167969e-05,48.000026"
       orientation="48,0"
       id="guide4172" />
    <sodipodi:guide
       position="4.2167969e-05,2.6367188e-05"
       orientation="0,4"
       id="guide4174" />
    <sodipodi:guide
       position="4.0000422,2.6367188e-05"
       orientation="-48,0"
       id="guide4176" />
  </sodipodi:namedview>
  <metadata
     id="metadata5458">
    <rdf:RDF>
      <cc:Work
         rdf:about="">
        <dc:format>image/svg+xml</dc:format>
        <dc:type
           rdf:resource="http://purl.org/dc/dcmitype/StillImage" />
        <dc:title></dc:title>
      </cc:Work>
    </rdf:RDF>
  </metadata>
  <g
     inkscape:label="Capa 1"
     inkscape:groupmode="layer"
     id="layer1"
     transform="translate(-384.57143,-499.798)">
    <rect
       id="rect4166"
       style="fill:#ecf5ff;fill-opacity:1;stroke-width:2.79999995;stroke-opacity:0.55026502"
       height="39.999969"
       rx="19.999985"
       y="503.83643"
       x="388.60703"
       width="39.999989" />
    <path
       inkscape:connector-curvature="0"
       d="m 388.67456,523.33648 c -0.004,0.16686 -0.0117,0.33212 -0.0117,0.5 0,11.07999 8.92001,20 20,20 11.07999,0 20,-8.92001 20,-20 0,-0.16788 -0.008,-0.33315 -0.0117,-0.5 -0.26418,10.84657 -9.07584,19.5 -19.98828,19.5 -10.91244,0 -19.7241,-8.65343 -19.98828,-19.5 z"
       id="rect4775"
       style="fill:#cde4ff;fill-opacity:1;stroke-width:2.79999995;stroke-opacity:0.55026502" />
    <path
       style="display:inline;opacity:0.9;fill:url(#linearGradient4329);fill-opacity:1;enable-background:new"
       inkscape:connector-curvature="0"
       id="path53"
       d="m 413.00427,536.74944 c -1.97356,-0.35529 -4.53636,-2.83583 -6.8771,-6.64554 -0.9803,-1.59776 -1.98463,-3.57276 -2.6418,-5.1914 -0.12903,-0.32569 -0.18008,-0.40245 -0.21909,-0.35531 -0.078,0.0897 -0.65221,1.45193 -0.9533,2.26567 -0.50813,1.37073 -0.86326,2.67355 -1.06632,3.92806 -0.13306,0.78851 -0.14105,2.31277 -0.0199,2.78869 0.28105,1.09662 0.89526,1.55941 1.85254,1.37956 0.69126,-0.12831 1.52345,-0.53955 2.41076,-1.19968 0.39111,-0.29172 0.49612,-0.34327 0.64822,-0.34327 0.23405,0 0.40611,0.13708 0.48809,0.38604 0.0554,0.1667 0.0554,0.21819 0,0.37724 -0.0553,0.15903 -0.14498,0.2489 -0.55914,0.55267 -0.5742,0.42877 -1.55949,0.9771 -2.05565,1.15254 -1.31642,0.46278 -2.34077,0.29172 -3.06696,-0.50553 -0.66416,-0.73255 -0.93827,-1.9147 -0.85226,-3.56841 0.10505,-2.14605 0.97731,-5.08066 2.3367,-7.95928 l 0.34016,-0.71938 -0.25805,-0.76655 c -0.25018,-0.73254 -0.73428,-2.42896 -0.73428,-2.55727 0,-0.0944 -0.14802,-0.0723 -0.80525,0.10304 -1.50049,0.40245 -2.61382,0.92115 -3.41103,1.57692 -1.5705,1.29402 -1.15639,2.75033 1.19534,4.20233 0.37516,0.2357 0.46115,0.35963 0.46115,0.66783 0,0.15898 -0.0272,0.22257 -0.14803,0.3553 -0.25813,0.2829 -0.49615,0.2226 -1.29343,-0.31697 -1.1483,-0.78409 -1.87556,-1.67013 -2.13362,-2.61322 -0.0941,-0.34326 -0.0941,-1.03193 0,-1.37954 0.13301,-0.5012 0.36307,-0.89927 0.77724,-1.35327 0.92224,-1.01984 2.45776,-1.80389 4.56042,-2.33033 0.4301,-0.10744 0.52713,-0.14584 0.51214,-0.20609 -0.0121,-0.0427 -0.0633,-0.30821 -0.11308,-0.5999 -0.2851,-1.67893 -0.29308,-3.60682 -0.0201,-4.67823 0.31615,-1.22923 0.88733,-1.96621 1.79756,-2.30838 0.37113,-0.13708 1.11736,-0.11507 1.62555,0.0515 0.51611,0.16671 1.14838,0.5099 1.71148,0.92553 0.67221,0.49241 0.87129,0.69856 0.89827,0.93761 0.063,0.54833 -0.44907,0.84439 -0.87118,0.49678 -1.32049,-1.07471 -2.26278,-1.4903 -3.02102,-1.31484 -0.55119,0.12829 -0.96926,0.74576 -1.18038,1.73922 -0.0861,0.3937 -0.098,0.58233 -0.098,1.56381 0,1.11852 0.0159,1.294 0.19914,2.46304 l 0.094,0.58664 0.21907,-0.0298 c 1.01232,-0.13268 1.88359,-0.22699 2.41878,-0.26099 l 0.63718,-0.0387 0.10504,-0.13706 c 1.07834,-1.51662 2.64183,-3.28983 3.8292,-4.33495 2.27072,-1.99586 4.21629,-2.68995 5.5567,-1.97935 0.75823,0.39805 1.23439,1.22049 1.42247,2.43774 0.121,0.79286 0.0225,2.67358 -0.16406,3.20433 -0.0633,0.17987 -0.27308,0.31257 -0.50018,0.31257 -0.14103,0 -0.21499,-0.0298 -0.32407,-0.14149 -0.13305,-0.12388 -0.14108,-0.16229 -0.14108,-0.41559 0,-0.15025 0.0353,-0.5867 0.078,-0.96396 0.12904,-1.09659 0.039,-2.12524 -0.23003,-2.7119 -0.13708,-0.28737 -0.40615,-0.5911 -0.6452,-0.71506 -0.17609,-0.0987 -0.27311,-0.11182 -0.68023,-0.11182 -0.43814,0 -0.52315,0.0175 -0.94524,0.17987 -1.32449,0.49671 -2.84091,1.68764 -4.47447,3.50807 -0.31606,0.35091 -0.77723,0.8992 -1.03528,1.22931 l -0.48014,0.59105 0.41015,0.0133 c 5.74371,0.15028 10.58525,1.59781 12.86691,3.84256 0.51218,0.50556 0.95738,1.25892 1.08237,1.84672 0.0659,0.29938 0.0699,0.87841 0.004,1.18653 -0.23407,1.1394 -1.37944,2.26565 -3.05201,2.99051 -0.26607,0.11515 -0.31606,0.12395 -0.4651,0.0767 -0.23007,-0.0767 -0.38313,-0.29171 -0.38313,-0.54833 0,-0.30375 0.12904,-0.44963 0.60919,-0.6722 1.03533,-0.47592 1.84053,-1.14375 2.14569,-1.78641 0.10901,-0.2182 0.121,-0.30374 0.121,-0.66017 0,-0.3641 -0.0122,-0.43639 -0.14502,-0.71061 -0.18404,-0.39368 -0.79725,-1.06699 -1.30545,-1.43543 -2.49274,-1.80399 -7.1932,-2.98176 -11.94167,-2.98176 l -0.78122,0 -0.29711,0.43652 c -0.44114,0.65571 -1.39842,2.25351 -1.77756,2.9685 l -0.33612,0.62944 0.23009,0.58232 c 2.31667,5.82642 5.91182,10.75239 8.56567,11.73715 0.57814,0.20625 1.01631,0.20946 1.36339,0.0222 0.66021,-0.35529 1.01036,-1.27643 1.06333,-2.81056 0.0861,-2.57487 -0.75821,-6.13456 -2.33268,-9.81368 -0.16408,-0.38167 -0.26213,-0.67228 -0.26213,-0.77976 0,-0.30812 0.23408,-0.55265 0.52314,-0.5483 0.25815,0 0.37115,0.11188 0.57023,0.57024 1.27744,2.93018 2.12969,5.87242 2.44975,8.43855 0.10507,0.86083 0.10507,2.62203 0,3.25141 -0.17205,1.0068 -0.47719,1.73053 -0.93826,2.24487 -0.56619,0.62067 -1.29741,0.85639 -2.16474,0.70293 m -9.1632,-15.66079 c 0.16411,-0.29608 0.48017,-0.81806 0.70327,-1.17336 0.22301,-0.35975 0.40212,-0.66348 0.40212,-0.68542 0,-0.0647 -2.04763,0.16673 -2.10572,0.23139 -0.0353,0.0422 0.082,0.53957 0.3552,1.46067 0.19101,0.66784 0.25405,0.80496 0.29709,0.75447 0.031,-0.0386 0.18805,-0.29938 0.34804,-0.58659" />
    <path
       style="display:inline;opacity:0.9;fill:url(#linearGradient4337);fill-opacity:1;enable-background:new"
       inkscape:connector-curvature="0"
       id="path55"
       d="m 410.57143,523.8007 c 0,1.10248 -0.89595,1.9973 -2,1.9973 -1.10404,0 -2,-0.89482 -2,-1.9973 0,-1.1026 0.89596,-2.0027 2,-2.0027 1.10405,0 2,0.9001 2,2.0027" />
  </g>
</svg>
