<?xml version="1.0" encoding="UTF-8" standalone="no"?>
<!-- Created with Inkscape (http://www.inkscape.org/) -->

<svg
   xmlns:dc="http://purl.org/dc/elements/1.1/"
   xmlns:cc="http://creativecommons.org/ns#"
   xmlns:rdf="http://www.w3.org/1999/02/22-rdf-syntax-ns#"
   xmlns:svg="http://www.w3.org/2000/svg"
   xmlns="http://www.w3.org/2000/svg"
   xmlns:xlink="http://www.w3.org/1999/xlink"
   xmlns:sodipodi="http://sodipodi.sourceforge.net/DTD/sodipodi-0.dtd"
   xmlns:inkscape="http://www.inkscape.org/namespaces/inkscape"
   width="48"
   height="48"
   id="svg5453"
   version="1.1"
   inkscape:version="0.91 r13725"
   sodipodi:docname="converseen.svg">
  <defs
     id="defs5455">
    <linearGradient
       inkscape:collect="always"
       xlink:href="#linearGradient4143"
       id="linearGradient4174"
       x1="409.57144"
       y1="543.79797"
       x2="409.57144"
       y2="503.798"
       gradientUnits="userSpaceOnUse"
       gradientTransform="matrix(1.0033058,0,0,1.0033058,-1.3754886,-1.7150298)" />
    <linearGradient
       id="linearGradient4143"
       inkscape:collect="always">
      <stop
         id="stop4145"
         offset="0"
         style="stop-color:#197cf1;stop-opacity:1" />
      <stop
         id="stop4147"
         offset="1"
         style="stop-color:#20bcfa;stop-opacity:1" />
    </linearGradient>
  </defs>
  <sodipodi:namedview
     id="base"
     pagecolor="#ffffff"
     bordercolor="#666666"
     borderopacity="1.0"
     inkscape:pageopacity="0"
     inkscape:pageshadow="2"
     inkscape:zoom="7.562496"
     inkscape:cx="18.806416"
     inkscape:cy="16.425871"
     inkscape:document-units="px"
     inkscape:current-layer="layer1"
     showgrid="true"
     fit-margin-top="0"
     fit-margin-left="0"
     fit-margin-right="0"
     fit-margin-bottom="0"
     inkscape:window-width="1366"
     inkscape:window-height="699"
     inkscape:window-x="0"
     inkscape:window-y="0"
     inkscape:window-maximized="1"
     inkscape:showpageshadow="false"
     borderlayer="true"
     showguides="true">
    <inkscape:grid
       type="xygrid"
       id="grid4063" />
    <sodipodi:guide
       position="1.1650391e-05,47.999996"
       orientation="4,0"
       id="guide4146" />
    <sodipodi:guide
       position="1.1650391e-05,43.999996"
       orientation="0,48"
       id="guide4148" />
    <sodipodi:guide
       position="48.000012,43.999996"
       orientation="-4,0"
       id="guide4150" />
    <sodipodi:guide
       position="1.1650391e-05,4.0000264"
       orientation="4,0"
       id="guide4154" />
    <sodipodi:guide
       position="1.1650391e-05,2.6367188e-05"
       orientation="0,48"
       id="guide4156" />
    <sodipodi:guide
       position="48.000012,2.6367188e-05"
       orientation="-4,0"
       id="guide4158" />
    <sodipodi:guide
       position="48.000012,4.0000264"
       orientation="0,-48"
       id="guide4160" />
    <sodipodi:guide
       position="48.000012,48.000026"
       orientation="0,-4"
       id="guide4162" />
    <sodipodi:guide
       position="44.000012,48.000026"
       orientation="48,0"
       id="guide4164" />
    <sodipodi:guide
       position="44.000012,2.6367188e-05"
       orientation="0,4"
       id="guide4166" />
    <sodipodi:guide
       position="48.000012,2.6367188e-05"
       orientation="-48,0"
       id="guide4168" />
    <sodipodi:guide
       position="4.0000422,48.000026"
       orientation="0,-4"
       id="guide4170" />
    <sodipodi:guide
       position="4.2167969e-05,48.000026"
       orientation="48,0"
       id="guide4172" />
    <sodipodi:guide
       position="4.2167969e-05,2.6367188e-05"
       orientation="0,4"
       id="guide4174" />
    <sodipodi:guide
       position="4.0000422,2.6367188e-05"
       orientation="-48,0"
       id="guide4176" />
  </sodipodi:namedview>
  <metadata
     id="metadata5458">
    <rdf:RDF>
      <cc:Work
         rdf:about="">
        <dc:format>image/svg+xml</dc:format>
        <dc:type
           rdf:resource="http://purl.org/dc/dcmitype/StillImage" />
        <dc:title></dc:title>
      </cc:Work>
    </rdf:RDF>
  </metadata>
  <g
     inkscape:label="Capa 1"
     inkscape:groupmode="layer"
     id="layer1"
     transform="translate(-384.57143,-499.798)">
    <rect
       style="opacity:1;fill:url(#linearGradient4174);fill-opacity:1;stroke:none;stroke-width:2.79999995;stroke-miterlimit:4;stroke-dasharray:none;stroke-opacity:0.55026455"
       id="rect4166-8"
       width="40.132221"
       height="40.132202"
       x="388.4805"
       y="503.74838"
       ry="20.066101" />
    <path
       inkscape:connector-curvature="0"
       style="opacity:1;fill:#0c69cf;fill-opacity:1;stroke:none;stroke-width:2.79999995;stroke-miterlimit:4;stroke-dasharray:none;stroke-opacity:0.55026455"
       d="m 388.49225,523.31287 c -0.004,0.16741 -0.0117,0.33322 -0.0117,0.50165 0,11.11662 8.9495,20.06612 20.06612,20.06612 11.11661,0 20.06611,-8.9495 20.06611,-20.06612 0,-0.16843 -0.008,-0.33425 -0.0117,-0.50165 -0.26505,10.88243 -9.10584,19.56446 -20.05435,19.56446 -10.94852,0 -19.78931,-8.68203 -20.05436,-19.56446 z"
       id="rect4775-5" />
    <path
       inkscape:connector-curvature="0"
       style="fill:#ecf0f1;fill-opacity:1;fill-rule:evenodd;stroke:none;stroke-width:5.06806755"
       d="m 409.80967,507.73017 c 3.90814,3.37379 4.88522,6.7935 4.88522,12.16723 l 1.60301,-4.15249 c 1.68764,1.65926 2.83785,3.85772 3.17541,6.32024 0.12423,1.89362 -0.18496,3.57004 -0.67346,5.03558 1.9935,-1.26929 4.51136,-2.71975 5.58914,-5.03558 -0.71938,-7.66268 -6.8786,-13.74906 -14.57932,-14.33498 z m -2.74671,0.0904 c -7.66268,0.71938 -13.74905,6.87851 -14.33497,14.57919 3.37383,-3.90814 6.79339,-4.88508 12.16709,-4.88508 l -4.15236,-1.60301 c 1.65928,-1.68764 3.85771,-2.83774 6.32024,-3.17528 1.89358,-0.12424 3.57003,0.18482 5.03559,0.67333 -1.26927,-1.99352 -2.71973,-4.51138 -5.03559,-5.58915 z m -8.65529,12.29044 c -1.99351,1.26927 -4.51153,2.71972 -5.58929,5.03558 0.71939,7.66268 6.87863,13.74909 14.57933,14.335 -3.90815,-3.37383 -4.88523,-6.79354 -4.88523,-12.16724 l -1.60301,4.15247 c -1.6876,-1.65924 -2.83774,-3.85772 -3.17526,-6.32023 -0.12424,-1.89361 0.18495,-3.57 0.67346,-5.03558 z m 26.07173,4.70084 c -3.37381,3.90814 -6.79339,4.88524 -12.16711,4.88524 l 4.15235,1.603 c -1.65924,1.68765 -3.85771,2.83784 -6.32024,3.17541 -1.8936,0.12423 -3.57002,-0.18496 -5.03558,-0.67348 1.26928,1.99349 2.71973,4.5114 5.03558,5.58916 7.66267,-0.71938 13.74906,-6.8786 14.335,-14.57933 z"
       id="path3794" />
  </g>
</svg>
