<?xml version="1.0" encoding="UTF-8" standalone="no"?>
<!-- Created with Inkscape (http://www.inkscape.org/) -->

<svg
   xmlns:dc="http://purl.org/dc/elements/1.1/"
   xmlns:cc="http://creativecommons.org/ns#"
   xmlns:rdf="http://www.w3.org/1999/02/22-rdf-syntax-ns#"
   xmlns:svg="http://www.w3.org/2000/svg"
   xmlns="http://www.w3.org/2000/svg"
   xmlns:xlink="http://www.w3.org/1999/xlink"
   xmlns:sodipodi="http://sodipodi.sourceforge.net/DTD/sodipodi-0.dtd"
   xmlns:inkscape="http://www.inkscape.org/namespaces/inkscape"
   width="48"
   height="48"
   id="svg5453"
   version="1.1"
   inkscape:version="0.91 r13725"
   sodipodi:docname="geogebra.svg">
  <defs
     id="defs5455">
    <linearGradient
       inkscape:collect="always"
       xlink:href="#linearGradient4143"
       id="linearGradient4174"
       x1="409.57144"
       y1="543.79797"
       x2="409.57144"
       y2="503.798"
       gradientUnits="userSpaceOnUse"
       gradientTransform="translate(-5.9283447e-6,1.1108398e-5)" />
    <linearGradient
       id="linearGradient4143"
       inkscape:collect="always">
      <stop
         id="stop4145"
         offset="0"
         style="stop-color:#197cf1;stop-opacity:1" />
      <stop
         id="stop4147"
         offset="1"
         style="stop-color:#20bcfa;stop-opacity:1" />
    </linearGradient>
    <linearGradient
       id="linearGradient3795">
      <stop
         id="stop3797"
         offset="0"
         style="stop-color:#ff6302;stop-opacity:1" />
      <stop
         id="stop3799"
         offset="1"
         style="stop-color:#ffcf00;stop-opacity:1" />
    </linearGradient>
    <linearGradient
       id="linearGradient4091">
      <stop
         style="stop-color:#b9ddff;stop-opacity:1"
         offset="0"
         id="stop4093" />
      <stop
         style="stop-color:#f5fcff;stop-opacity:1"
         offset="1"
         id="stop4095" />
    </linearGradient>
    <clipPath
       id="clipPath-157313340">
      <g
         transform="translate(0,-1004.3622)"
         id="g17">
        <path
           style="fill:#1890d0"
           inkscape:connector-curvature="0"
           d="m -24,13 c 0,1.105 -0.672,2 -1.5,2 -0.828,0 -1.5,-0.895 -1.5,-2 0,-1.105 0.672,-2 1.5,-2 0.828,0 1.5,0.895 1.5,2 z"
           transform="matrix(15.333333,0,0,11.5,414.99999,878.8622)"
           id="path19" />
      </g>
    </clipPath>
  </defs>
  <sodipodi:namedview
     id="base"
     pagecolor="#ffffff"
     bordercolor="#666666"
     borderopacity="1.0"
     inkscape:pageopacity="0"
     inkscape:pageshadow="2"
     inkscape:zoom="8.0639959"
     inkscape:cx="20.861273"
     inkscape:cy="21.207043"
     inkscape:document-units="px"
     inkscape:current-layer="layer1"
     showgrid="false"
     fit-margin-top="0"
     fit-margin-left="0"
     fit-margin-right="0"
     fit-margin-bottom="0"
     inkscape:window-width="1366"
     inkscape:window-height="699"
     inkscape:window-x="0"
     inkscape:window-y="0"
     inkscape:window-maximized="1"
     inkscape:showpageshadow="false"
     borderlayer="true"
     showguides="false">
    <inkscape:grid
       type="xygrid"
       id="grid4063" />
    <sodipodi:guide
       position="1.1650391e-05,47.999996"
       orientation="4,0"
       id="guide4146" />
    <sodipodi:guide
       position="1.1650391e-05,43.999996"
       orientation="0,48"
       id="guide4148" />
    <sodipodi:guide
       position="48.000012,43.999996"
       orientation="-4,0"
       id="guide4150" />
    <sodipodi:guide
       position="48.000012,47.999996"
       orientation="0,-48"
       id="guide4152" />
    <sodipodi:guide
       position="1.1650391e-05,4.0000264"
       orientation="4,0"
       id="guide4154" />
    <sodipodi:guide
       position="1.1650391e-05,2.6367188e-05"
       orientation="0,48"
       id="guide4156" />
    <sodipodi:guide
       position="48.000012,2.6367188e-05"
       orientation="-4,0"
       id="guide4158" />
    <sodipodi:guide
       position="48.000012,4.0000264"
       orientation="0,-48"
       id="guide4160" />
    <sodipodi:guide
       position="48.000012,48.000026"
       orientation="0,-4"
       id="guide4162" />
    <sodipodi:guide
       position="44.000012,48.000026"
       orientation="48,0"
       id="guide4164" />
    <sodipodi:guide
       position="44.000012,2.6367188e-05"
       orientation="0,4"
       id="guide4166" />
    <sodipodi:guide
       position="48.000012,2.6367188e-05"
       orientation="-48,0"
       id="guide4168" />
    <sodipodi:guide
       position="4.0000422,48.000026"
       orientation="0,-4"
       id="guide4170" />
    <sodipodi:guide
       position="4.2167969e-05,48.000026"
       orientation="48,0"
       id="guide4172" />
    <sodipodi:guide
       position="4.2167969e-05,2.6367188e-05"
       orientation="0,4"
       id="guide4174" />
    <sodipodi:guide
       position="4.0000422,2.6367188e-05"
       orientation="-48,0"
       id="guide4176" />
    <sodipodi:guide
       position="4.0000117,47.999996"
       orientation="43.999969,0"
       id="guide4638" />
    <sodipodi:guide
       position="4.0000117,4.0000264"
       orientation="0,20"
       id="guide4640" />
    <sodipodi:guide
       position="24.000012,4.0000264"
       orientation="-43.999969,0"
       id="guide4642" />
    <sodipodi:guide
       position="24.000012,47.999996"
       orientation="0,-20"
       id="guide4644" />
    <sodipodi:guide
       position="4.0000422,24.000026"
       orientation="20,0"
       id="guide4666" />
    <sodipodi:guide
       position="4.0000422,4.0000264"
       orientation="0,39.999969"
       id="guide4668" />
    <sodipodi:guide
       position="44.000012,4.0000264"
       orientation="-20,0"
       id="guide4670" />
    <sodipodi:guide
       position="44.000012,24.000026"
       orientation="0,-39.999969"
       id="guide4672" />
  </sodipodi:namedview>
  <metadata
     id="metadata5458">
    <rdf:RDF>
      <cc:Work
         rdf:about="">
        <dc:format>image/svg+xml</dc:format>
        <dc:type
           rdf:resource="http://purl.org/dc/dcmitype/StillImage" />
        <dc:title></dc:title>
      </cc:Work>
    </rdf:RDF>
  </metadata>
  <g
     inkscape:label="Capa 1"
     inkscape:groupmode="layer"
     id="layer1"
     transform="translate(-384.57143,-499.798)">
    <rect
       style="opacity:1;fill:url(#linearGradient4174);fill-opacity:1;stroke:none;stroke-width:2.79999995;stroke-miterlimit:4;stroke-dasharray:none;stroke-opacity:0.55026455"
       id="rect4166"
       width="39.999989"
       height="39.999969"
       x="388.57144"
       y="503.798"
       ry="19.999985" />
    <path
       style="opacity:1;fill:#0c69cf;fill-opacity:1;stroke:none;stroke-width:2.79999995;stroke-miterlimit:4;stroke-dasharray:none;stroke-opacity:0.55026455"
       d="M 4.0117188 23.5 C 4.007647 23.666859 4 23.832126 4 24 C 4 35.079992 12.920008 44 24 44 C 35.079992 44 44 35.079992 44 24 C 44 23.832126 43.992353 23.666859 43.988281 23.5 C 43.724099 34.346571 34.912435 43 24 43 C 13.087565 43 4.2759007 34.346571 4.0117188 23.5 z "
       transform="translate(384.57143,499.798)"
       id="rect4775" />
    <g
       id="g57"
       transform="matrix(1.1196586,0,0,1.1196586,381.18397,496.68668)"
       style="fill:#ecf0f1;fill-opacity:1">
      <g
         clip-path="url(#clipPath-157313340)"
         id="g59"
         style="fill:#ecf0f1;fill-opacity:1">
        <!-- color: #eeeeee -->
        <g
           id="g61"
           style="fill:#ecf0f1;fill-opacity:1">
          <path
             d="m 20.801,14.281 c -6.465,2.352 -10.02,8.637 -7.918,14.01 2.105,5.375 9.08,7.832 15.543,5.48 6.461,-2.352 10.02,-8.641 7.914,-14.02 -2.105,-5.375 -9.08,-7.828 -15.543,-5.477 m 0.727,1.848 c 5.266,-1.918 10.891,0.063 12.602,4.434 1.711,4.367 -1.152,9.441 -6.422,11.359 -5.27,1.918 -10.898,-0.066 -12.605,-4.438 -1.711,-4.367 1.156,-9.438 6.426,-11.355 m 0,0"
             id="path63"
             inkscape:connector-curvature="0"
             style="fill:#ecf0f1;fill-opacity:1;fill-rule:nonzero;stroke:none" />
          <path
             d="M 26,14.5 C 26,15.879 24.879,17 23.5,17 22.121,17 21,15.879 21,14.5 21,13.121 22.121,12 23.5,12 c 1.379,0 2.5,1.121 2.5,2.5 m 0,0"
             id="path65"
             inkscape:connector-curvature="0"
             style="fill:#ecf0f1;fill-opacity:1;fill-rule:nonzero;stroke:none" />
          <path
             d="M 37,18.5 C 37,19.879 35.879,21 34.5,21 33.121,21 32,19.879 32,18.5 32,17.121 33.121,16 34.5,16 c 1.379,0 2.5,1.121 2.5,2.5 m 0,0"
             id="path67"
             inkscape:connector-curvature="0"
             style="fill:#ecf0f1;fill-opacity:1;fill-rule:nonzero;stroke:none" />
          <path
             d="M 35,29.5 C 35,30.879 33.879,32 32.5,32 31.121,32 30,30.879 30,29.5 30,28.121 31.121,27 32.5,27 c 1.379,0 2.5,1.121 2.5,2.5 m 0,0"
             id="path69"
             inkscape:connector-curvature="0"
             style="fill:#ecf0f1;fill-opacity:1;fill-rule:nonzero;stroke:none" />
          <path
             d="M 22,33.5 C 22,34.879 20.879,36 19.5,36 18.121,36 17,34.879 17,33.5 17,32.121 18.121,31 19.5,31 c 1.379,0 2.5,1.121 2.5,2.5 m 0,0"
             id="path71"
             inkscape:connector-curvature="0"
             style="fill:#ecf0f1;fill-opacity:1;fill-rule:nonzero;stroke:none" />
          <path
             d="M 16,23.5 C 16,24.879 14.879,26 13.5,26 12.121,26 11,24.879 11,23.5 11,22.121 12.121,21 13.5,21 c 1.379,0 2.5,1.121 2.5,2.5 m 0,0"
             id="path73"
             inkscape:connector-curvature="0"
             style="fill:#ecf0f1;fill-opacity:1;fill-rule:nonzero;stroke:none" />
        </g>
      </g>
    </g>
  </g>
</svg>
