<?xml version="1.0" encoding="UTF-8" standalone="no"?>
<!-- Created with Inkscape (http://www.inkscape.org/) -->

<svg
   xmlns:dc="http://purl.org/dc/elements/1.1/"
   xmlns:cc="http://creativecommons.org/ns#"
   xmlns:rdf="http://www.w3.org/1999/02/22-rdf-syntax-ns#"
   xmlns:svg="http://www.w3.org/2000/svg"
   xmlns="http://www.w3.org/2000/svg"
   xmlns:sodipodi="http://sodipodi.sourceforge.net/DTD/sodipodi-0.dtd"
   xmlns:inkscape="http://www.inkscape.org/namespaces/inkscape"
   id="svg2"
   version="1.1"
   inkscape:version="0.91 r13725"
   width="512"
   height="512"
   sodipodi:docname="handbrake.svg">
  <sodipodi:namedview
     pagecolor="#ffffff"
     bordercolor="#666666"
     borderopacity="1"
     objecttolerance="10"
     gridtolerance="10"
     guidetolerance="10"
     inkscape:pageopacity="0"
     inkscape:pageshadow="2"
     inkscape:window-width="1169"
     inkscape:window-height="636"
     id="namedview4"
     showgrid="false"
     inkscape:zoom="0.67428572"
     inkscape:cx="157.89831"
     inkscape:cy="222.78192"
     inkscape:window-x="15"
     inkscape:window-y="39"
     inkscape:window-maximized="0"
     inkscape:current-layer="svg2" />
  <metadata
     id="metadata8">
    <rdf:RDF>
      <cc:Work
         rdf:about="">
        <dc:format>image/svg+xml</dc:format>
        <dc:type
           rdf:resource="http://purl.org/dc/dcmitype/StillImage" />
        <dc:title></dc:title>
      </cc:Work>
    </rdf:RDF>
  </metadata>
  <defs
     id="defs6" />
  <path
     style="fill:#479951;fill-opacity:1"
     d="m 370.01809,36.53013 c -0.1187,0.06555 -0.30506,0.382482 -0.5954,0.889173 -0.4617,0.805612 -1.81358,4.198518 -3.0015,7.555972 -1.18775,3.357512 -2.9948,8.360403 -4.01493,11.129039 -1.02041,2.768554 -2.34351,6.731947 -2.94624,8.772717 -0.60273,2.040784 -3.12555,8.992297 -5.613,15.45135 -2.48734,6.459048 -6.05814,15.868243 -7.93432,20.912549 -1.98612,5.34019 -3.83089,9.19929 -4.39646,9.2478 -1.00431,0.0861 -2.52315,-4.28816 -5.79407,-16.571193 -0.89737,-3.370167 -2.22832,-8.107096 -2.95982,-10.533952 -2.33142,-7.735607 -5.66699,-19.244007 -6.54988,-22.676541 -0.83683,-3.252924 -1.39174,-4.327443 -1.92664,-3.692202 -0.14693,0.174391 -1.43088,10.91871 -2.85367,23.86947 -2.62668,23.909658 -3.08471,26.721258 -4.32183,26.827388 -0.38201,0.0328 -1.59851,-1.36729 -2.72673,-3.08986 -1.12814,-1.72256 -3.6082,-5.165854 -5.51277,-7.683603 -4.76654,-6.301242 -7.75075,-10.48898 -10.65824,-14.948417 -3.15478,-4.838721 -4.25169,-4.855277 -3.24255,-0.06199 0.89268,4.240266 4.35488,18.68773 7.24812,30.19539 3.29071,13.08872 3.84714,16.73109 2.60132,16.83792 -0.99111,0.0849 -22.75765,-8.48309 -26.54791,-10.44808 -0.96771,-0.50169 -2.51943,-1.07041 -3.44497,-1.26325 -0.92571,-0.19287 -2.84836,-0.90082 -4.26946,-1.58293 -1.42119,-0.68209 -4.48266,-1.95267 -6.80741,-2.81764 l -4.21653,-1.56792 1.49988,1.76953 c 0.83813,0.97545 3.69786,3.84783 6.34167,6.37451 2.64384,2.52667 6.87115,6.63654 9.38528,9.15391 2.51395,2.51738 5.0961,5.08728 5.73577,5.6879 0.63957,0.60057 2.09538,2.11356 3.24494,3.37985 1.1496,1.26631 4.09957,3.14443 6.56431,4.17852 1.91642,0.80408 3.89522,1.79638 5.79093,2.87247 l 87.07589,24.70201 c 8.0356,-2.80821 10.83421,-3.70485 11.91544,-3.79757 0.76608,-0.0656 2.87161,-0.67141 4.67578,-1.36164 1.80402,-0.69027 6.94294,-2.42417 11.41653,-3.85333 4.47366,-1.4291 10.41322,-3.37084 13.18052,-4.32518 2.76704,-0.9544 5.58451,-1.79307 6.27332,-1.85215 0.68889,-0.059 1.24113,-0.35835 1.21559,-0.65605 -0.0449,-0.52358 -3.21873,-0.90944 -16.54043,-1.97556 -9.18007,-0.73475 -12.65951,-1.03167 -18.94698,-1.65738 -3.09051,-0.30756 -6.9576,-0.64017 -8.59476,-0.75097 -2.1834,-0.14782 -3.01087,-0.53832 -3.08638,-1.4189 -0.0566,-0.66037 7.01191,-9.60143 15.7058,-19.88036 8.69378,-10.27891 15.77006,-18.95883 15.74095,-19.29846 -0.0984,-1.14732 -3.7319,0.48334 -15.40515,6.92554 -4.56019,2.51671 -16.09866,7.80545 -17.25879,7.9153 -0.47498,0.0449 -0.8835,-0.18785 -0.91167,-0.516 -0.0281,-0.32808 1.71154,-5.25356 3.8491,-10.9473 4.2984,-11.4492 6.16658,-16.544976 9.68164,-26.164804 4.77992,-13.081185 4.76986,-13.14473 -0.71234,-7.065303 -1.96517,2.179348 -7.49514,8.20259 -12.32446,13.404435 -4.8293,5.201811 -11.63341,12.607412 -15.1038,16.447952 -3.47073,3.84047 -6.75523,7.03371 -7.29902,7.08035 -1.2358,0.10601 -1.43362,-2.236 -0.70708,-8.29347 0.30181,-2.51547 1.44417,-12.513608 2.54689,-22.183494 1.10259,-9.6699 2.82141,-23.58773 3.80396,-30.949258 0.98254,-7.361519 1.80471,-14.484488 1.85973,-15.82977 0.0577,-1.410148 0.0695,-1.975851 -0.12817,-1.866557 z"
     id="path4021"
     inkscape:connector-curvature="0"
     sodipodi:nodetypes="ccccscccccccscccssscscccccsccssccccccccssccsssccsscsccccscc" />
  <rect
     style="fill:#e5b731;fill-opacity:1;stroke:none"
     id="rect3899"
     width="214.12091"
     height="314.65329"
     x="258.75156"
     y="51.323608"
     ry="97.279533"
     transform="matrix(0.96203824,0.27291467,-0.27291467,0.96203824,0,0)" />
  <path
     style="fill:#9f7e21"
     d="m 306.41544,144.0138 c 0.13093,0.15882 0.26735,0.30885 0.38356,0.46275 2.30816,3.05735 3.85135,3.67652 4.74919,1.90767 0.18612,-0.36675 0.37968,-0.59195 0.71647,-0.71109 z m 17.92365,1.07262 c 0.28565,0.69914 -5.51931,4.06369 -7.07589,5.04273 -1.71133,1.07647 -5.57055,0.92609 -5.43012,-0.21314 0.1699,-1.37728 -0.24743,-2.06318 -1.19945,-2.0215 -1.35634,0.0593 -1.32538,0.17889 0.66702,2.99127 0.929,1.31127 1.95078,2.12618 2.25747,1.82023 0.30677,-0.3059 0.32699,-0.15426 0.0814,0.31806 -0.59938,1.15283 1.10359,4.52385 1.97559,3.92289 0.37935,-0.26145 0.52202,-0.16536 0.31304,0.2068 -0.20908,0.37219 0.41692,3.33548 1.4252,6.56885 1.00821,3.23335 1.89413,6.71614 1.94808,7.74951 0.0873,1.68624 0.15536,1.72481 0.65268,0.42111 0.36972,-0.97038 0.48619,-0.25194 0.36545,2.13885 -0.45001,9.57537 -0.51333,0.96287 1.02916,10.58585 1.30328,1.24734 3.27874,6.63395 2.86798,7.8335 -0.42239,1.23251 -4.06055,2.90992 -5.33308,2.46896 -1.19481,-0.41399 -31.57259,9.86394 -30.74856,11.14141 -0.51506,12.05585 22.99489,1.88514 31.60622,-0.87867 3.903,-2.23032 8.02962,-4.67135 8.85653,-4.58693 1.17392,0.11985 2.87208,2.75105 7.83043,12.01383 6.06202,11.32516 7.17278,14.31055 6.00457,16.3331 -0.88748,1.5362 -23.35224,14.06688 -25.3775,14.15546 -1.78269,0.0781 -2.33652,-0.7461 -8.21965,-12.15374 -3.46167,-8.11829 -32.70457,-51.03593 -36.23586,-50.19777 -1.48626,2.28986 -2.89053,3.3687 -2.89053,3.3687 -3.30289,-0.79893 7.73816,19.48158 10.2302,20.40436 -0.21002,0.37359 19.45836,25.46881 22.48465,31.1833 3.02624,5.71446 5.51806,10.90853 5.53428,11.53943 0.0415,1.62101 -2.27268,3.24778 -14.28069,10.01809 -6.83402,3.85309 -11.19922,5.89892 -12.37224,5.81072 -1.59424,-0.11986 -2.57882,-1.60326 -8.20737,-12.29772 -3.52167,-6.69116 -6.43205,-12.91847 -6.45562,-13.83598 25.20676,-35.01273 54.94939,-22.3763 24.35755,-31.0482 -2.07347,-0.46728 -19.37878,12.22479 -19.5512,12.41429 -0.17247,0.18951 -16.86551,12.7695 -16.4315,12.75048 0.43438,-0.019 -0.58856,0.27358 -0.79756,0.88453 -0.20934,0.61085 -4.23877,3.27913 -8.94513,5.92758 l -8.54045,4.80359 -5.60111,10.26819 c -3.07401,5.64519 -5.55507,10.66692 -5.54218,11.16978 0.0129,0.50287 2.64803,5.76737 5.86289,11.69163 3.2148,5.92426 5.86188,11.43711 5.88221,12.22803 0.0254,0.98546 -0.79124,1.81465 -2.55795,2.66632 -1.41802,0.68355 -3.50454,1.76996 -4.63601,2.43076 -1.13156,0.66081 -5.84849,3.42326 -10.49169,6.13774 -5.30203,3.09948 -8.92978,4.80733 -9.73605,4.58239 -0.70604,-0.19755 -1.6667,-1.29983 -2.16654,-2.44333 -0.49974,-1.14346 -1.16272,-2.07419 -1.4455,-2.06181 -3.02863,-17.81558 -7.23684,-6.4039 -8.43872,-3.89625 -1.20186,2.50762 2.89102,14.03129 2.07356,15.2455 -2.27559,3.37969 -10.19008,6.6188 -9.76546,7.02513 -2.63761,7.35103 -2.7438,7.80481 0.15576,6.12285 2.85699,-1.57473 15.38949,-7.32175 15.88648,-7.14952 1.21381,0.42057 14.5436,26.17267 14.31643,27.65763 -0.20919,1.36806 -24.02971,15.31306 -26.47281,15.49648 -1.18952,0.0892 -1.90713,-0.56874 -2.85915,-2.52183 -0.70297,-1.44222 -2.04822,-4.02196 -3.00209,-5.74786 l -12.159,-23.92018 -2.69173,13.07287 c -0.30996,1.192 12.99259,17.56129 12.91542,23.32873 l -12.50619,7.22949 1.471,7.59174 15.21405,-6.07843 7.14941,13.70835 c 3.92912,7.55231 6.95447,14.09205 6.72423,14.50207 -0.23044,0.40999 -1.8583,1.48773 -3.60569,2.42809 -1.7473,0.94038 -5.12766,2.85128 -7.52193,4.23714 -4.0758,2.35916 -4.27869,2.6166 -3.20856,3.75006 0.62857,0.66586 1.32258,1.74707 1.33289,2.14584 0.49943,0.31883 0.78845,0.76515 1.21523,1.67404 1.31565,1.13698 1.65189,1.03076 8.29281,-2.72068 3.80707,-2.15062 7.32628,-3.76358 7.8247,-3.59084 1.09839,0.38058 14.39573,25.9497 14.41453,27.71496 0.008,0.68711 -0.29589,1.26562 -0.67829,1.28235 -1.51555,0.0663 -1.13962,2.55246 1.36306,3.67316 4.83096,2.16325 12.11386,5.68589 12.40404,5.36704 0.15746,-0.17303 0.78118,-3.08186 0.34758,-3.85627 -1.50912,-2.69466 -0.88385,-3.40976 6.53071,-7.49739 4.05786,-2.23696 8.16202,-4.56869 9.10337,-5.1748 0.94154,-0.60608 3.62592,-2.20236 5.98369,-3.5527 3.76194,-2.15443 4.41626,-2.31644 5.3267,-1.43844 0.57066,0.55029 3.98623,6.55744 7.59102,13.36169 6.48768,12.24592 5.04703,17.03713 2.69759,18.07554 -1.81809,0.80352 0.82005,0.51869 6.18535,1.14928 2.70269,1.05761 6.92875,0.12776 7.50544,0.22197 0.57659,0.0942 1.44098,-0.52215 1.68241,-0.48707 0.24124,0.0351 0.8598,-0.58346 1.36451,-1.38263 0.98928,-1.56662 24.81517,-15.39027 26.66577,-15.47124 0.69105,-0.0302 2.19626,1.96244 3.95236,5.22108 1.56344,2.90152 3.03014,5.37796 3.24607,5.49264 0.76807,0.40792 6.93676,-2.10307 6.91835,-2.81562 -0.01,-0.39896 -1.33048,-2.99469 -2.93366,-5.78747 -1.60292,-2.79271 -2.92359,-5.57621 -2.93887,-6.17238 -0.0371,-1.44669 26.06757,-16.41959 27.66449,-15.86631 0.63248,0.21915 2.06526,2.16229 3.1588,4.28809 1.09355,2.12575 2.19785,3.83617 2.46101,3.82465 0.93844,-0.041 4.66649,-5.27817 4.61169,-6.47851 -0.0308,-0.67238 -0.53109,-2.01044 -1.10277,-2.96744 -1.93586,-3.24072 -1.4575,-4.03666 4.30255,-7.3036 5.25385,-2.97995 5.51776,-3.23415 7.45644,-7.73618 1.92276,-4.46466 2.37561,-6.27578 1.59903,-6.24183 -0.19661,0.009 -4.41596,2.29989 -9.36798,5.09974 -7.40221,4.18516 -9.15065,4.93403 -9.88126,4.18726 -1.45904,-1.49122 -14.22214,-25.62999 -14.25638,-26.96222 -0.0227,-0.88594 3.78903,-3.36214 13.61459,-8.87975 7.49986,-4.21161 13.90808,-7.48471 14.24861,-7.28413 0.34051,0.20062 2.75919,4.48799 5.36498,9.51521 2.60568,5.02719 4.95099,9.10484 5.22748,9.09276 0.27641,-0.012 1.14441,-2.21992 1.90899,-4.91509 l 1.3862,-4.88644 -3.00976,-5.72055 c -1.6599,-3.14957 -3.0436,-6.41412 -3.06486,-7.24046 -0.0307,-1.19647 1.20735,-2.175 6.12372,-4.75178 l 6.17864,-3.23194 1.6127,-5.38258 c 0.88156,-2.96111 1.5185,-5.44117 1.42419,-5.52455 -0.0941,-0.0834 -4.3996,2.23033 -9.58426,5.15637 -5.18473,2.92602 -9.83989,5.17426 -10.34081,5.00072 -1.28571,-0.44552 -14.56402,-25.78486 -14.32227,-27.33484 0.22841,-1.46248 23.87198,-15.40569 26.4432,-15.59337 1.33003,-0.0972 2.32762,1.30457 6.51011,9.30914 2.70879,5.18441 5.09076,9.42028 5.30877,9.41078 0.21813,-0.01 1.06022,-2.32608 1.85741,-5.13619 l 1.44816,-5.10482 -2.96592,-5.47218 c -4.36358,-8.00945 -4.31316,-8.30944 2.9917,-12.15875 l 6.11799,-3.21963 1.44815,-5.10482 c 0.79654,-2.80683 1.32021,-5.19714 1.16924,-5.33143 -0.15094,-0.13433 -4.34813,2.00728 -9.30928,4.79194 -5.22956,2.9353 -9.46557,4.90599 -10.10778,4.68341 -0.60945,-0.21124 -4.29134,-6.37988 -8.14558,-13.72547 -5.45913,-10.4046 -6.81652,-13.57256 -6.2213,-14.35942 1.20836,-1.59764 25.9847,-15.19912 27.02928,-14.83719 0.51683,0.17909 3.25692,4.4964 6.08409,9.60122 5.73562,10.35623 5.54294,10.32154 7.26995,1.59044 0.63822,-3.22681 0.56024,-3.61353 -2.34969,-8.95477 -1.66868,-3.0628 -3.03722,-6.05564 -3.05321,-6.67673 -0.017,-0.66449 1.65223,-2.09613 4.07427,-3.47498 l 4.12408,-2.34001 -0.094,-3.80207 c -0.0536,-2.08697 -0.31609,-3.98757 -0.57224,-4.2327 -0.25606,-0.24511 -2.75153,0.9536 -5.53516,2.67712 -2.78338,1.72355 -5.51526,2.98369 -6.08118,2.78765 -1.34386,-0.46561 -14.19655,-25.14729 -14.25382,-27.37441 -0.0377,-1.4662 1.05802,-2.35058 7.67345,-6.08188 4.24519,-2.39435 7.83458,-4.43633 7.9557,-4.55652 0.27331,-0.27214 -1.71388,-3.77319 -3.08737,-5.44761 -0.96616,-1.17797 -1.41952,-1.00376 -8.68904,3.10967 -4.22958,2.39326 -8.13801,4.21341 -8.66451,4.031 -0.91969,-0.31863 -14.8891,-26.17147 -14.92648,-27.62423 -0.01,-0.38964 1.52759,-1.58165 3.41398,-2.65944 3.38171,-1.9321 7.09079,-3.11224 5.70488,-3.91739 -3.6907,-6.05327 -15.53359,-11.87774 -29.93987,-15.96456 1.97153,1.53466 3.54887,7.41399 5.64926,11.306 4.11348,7.62241 4.20426,7.44469 -9.43829,15.22622 -12.40088,7.07325 -13.8574,7.76536 -15.35047,7.23698 -1.11503,-0.39455 -13.96022,-25.00331 -14.0072,-26.83251 -0.0339,-1.31533 13.76584,-10.88505 17.4584,-11.92328 z m 43.61564,15.93638 c 1.61522,0.4481 4.33897,2.48628 4.9171,3.38512 -0.12203,1.08628 -2.44284,2.48889 -3.68704,2.6922 -1.4481,0.23659 -2.04029,-0.1468 -2.97986,-1.99566 -1.00097,-1.96984 -4.8441,-7.12639 -4.00987,-7.64971 0.50615,-0.31748 5.02553,3.36437 5.75967,3.56805 z m -3.81747,19.33411 c 1.0558,0.3578 3.17113,3.80327 8.30237,13.475 8.32555,15.69234 8.31309,14.89018 0.21056,18.61232 -2.50186,1.14933 -5.39608,2.7478 -6.41162,3.54928 -1.01563,0.80148 -4.53368,2.85395 -7.81557,4.56678 -6.65842,3.47508 -6.75907,3.52182 -7.74863,2.31465 -1.68814,-2.05943 -13.95965,-26.55658 -13.6936,-27.33348 0.37901,-1.10604 25.24874,-15.13478 26.96341,-15.20983 0.0617,-0.002 0.1227,0.002 0.19307,0.0253 z m 19.53807,35.86387 c 1.35668,0.78821 14.63441,26.86958 14.25,27.99275 -0.20108,0.58658 -5.96023,4.2126 -12.80646,8.04716 -6.8465,3.83456 -12.98078,6.99939 -13.6032,7.0248 -0.62227,0.0261 -1.43333,-0.3399 -1.82817,-0.81359 -1.85428,-2.22501 -13.33338,-24.67814 -13.37127,-26.15069 -0.0375,-1.4561 1.63205,-2.59601 13.24861,-9.10158 7.32186,-4.10054 13.67689,-7.25071 14.11049,-6.99885 z m -35.74346,20.15192 c 1.58691,0.47269 15.08138,26.29201 14.55019,27.84193 -0.22279,0.65022 -6.08724,4.32774 -13.01172,8.1659 -6.92449,3.83817 -13.06613,7.01096 -13.6638,7.03711 -1.5398,0.0674 -1.76425,-0.31274 -8.98797,-14.08244 -5.21533,-9.94143 -6.36818,-12.64714 -5.79391,-13.64825 1.04628,-1.82402 25.49131,-15.73602 26.90721,-15.31425 z m -83.91435,-3.68932 c -203.367622,133.25303 -101.68382,66.62652 0,0 z m -7.89388,-0.39769 c -144.89976,167.38057 -72.44988,83.69029 0,0 z m 0.53166,3.94257 c 1.37087,0.47501 16.35764,30.74488 15.90642,32.06129 -0.21043,0.61402 -6.24979,4.41494 -13.40358,8.43818 -7.15364,4.02335 -13.26096,7.31416 -13.5746,7.32786 -0.77603,0.0339 -3.20226,-4.05937 -9.37481,-15.84392 -5.39729,-10.30423 -5.94026,-11.99408 -4.32927,-13.46872 2.10995,-1.93133 23.91772,-18.81203 24.77584,-18.51469 z m 110.08652,36.15569 c 0.99015,0.39506 3.24512,4.14313 7.98604,13.1788 3.82606,7.29204 6.96396,13.7202 6.97915,14.30894 0.0174,0.67796 -4.77263,3.77329 -13.08917,8.4389 -7.22171,4.05138 -13.52492,7.39304 -13.99944,7.41381 -0.47459,0.0208 -1.18882,-0.35345 -1.56668,-0.82789 -1.6142,-2.02653 -13.35755,-25.17876 -13.38885,-26.39164 -0.0259,-1.01135 3.06213,-3.12138 12.82588,-8.72009 7.0736,-4.05609 13.39304,-7.39233 14.06001,-7.42609 0.0552,-0.002 0.12703,-8.7e-4 0.19306,0.0253 z m -54.55261,-15.35771 c 0.74811,0.24252 1.57505,0.8723 2.17484,1.70829 2.91734,4.06632 12.64976,23.50061 12.4888,24.92702 -0.13149,1.16606 -3.01079,3.10393 -12.77604,8.64572 -6.93734,3.93698 -13.1814,7.20663 -13.89229,7.23773 -0.98256,0.043 -2.97188,-3.1493 -8.29592,-13.2962 -3.85138,-7.34019 -6.87256,-13.78626 -6.69122,-14.31574 0.43163,-1.25964 24.30913,-14.90645 26.28047,-15.02014 0.22188,-0.0128 0.46197,0.0325 0.71134,0.11341 z m -35.07656,19.51523 c 1.39886,0.48468 14.27814,25.38231 14.07298,27.20513 -0.13567,1.20534 -2.87105,3.09647 -12.52239,8.65868 -6.79005,3.91332 -12.87191,7.14501 -13.53588,7.19137 -0.67047,0.0468 -2.01775,-1.13268 -3.02121,-2.6563 -3.07361,-4.66646 -12.07976,-22.81094 -12.12092,-24.40971 -0.0321,-1.25232 2.20697,-2.79423 13.05429,-8.92073 7.21307,-4.07382 13.54828,-7.25028 14.07313,-7.06844 z m 54.4041,16.08247 c 1.27545,0.44198 14.4687,25.00183 14.52105,27.03729 0.0282,1.09833 -2.75857,2.98323 -13.01555,8.78423 -7.16991,4.05519 -13.49075,7.37422 -14.0523,7.3988 -0.98811,0.0432 -14.9447,-25.63161 -14.99497,-27.58467 -0.0314,-1.22623 26.18109,-16.10718 27.54177,-15.63565 z m -89.87188,4.20663 c 0.16791,0.0481 0.31215,0.13897 0.44542,0.24434 1.37992,1.09082 14.22033,25.26418 14.26095,26.84552 0.0284,1.10425 -0.94287,1.71947 -15.97191,10.3347 -5.22178,2.99334 -10.09131,5.48761 -10.80238,5.51868 -1.4391,0.063 -3.46235,-3.22125 -10.9396,-17.58561 -3.6447,-7.00162 -4.51066,-9.18735 -3.97458,-10.18258 0.37545,-0.69702 6.4224,-4.55374 13.44223,-8.57474 9.88854,-5.66419 12.36479,-6.93706 13.53987,-6.60031 z m 54.35125,16.06747 c 0.0737,0.0163 0.15685,0.0275 0.21175,0.06 1.52731,0.90666 14.0738,24.45674 14.12654,26.51244 0.0346,1.3489 -1.26112,2.38296 -7.67345,6.08187 -4.24367,2.44802 -10.01034,5.79509 -12.82907,7.42136 -2.81873,1.62631 -5.30737,2.91289 -5.50991,2.89075 -1.61219,-0.1763 -2.97858,-2.26473 -9.11388,-13.94119 -5.29777,-10.08248 -6.787,-13.5008 -6.22578,-14.2427 0.40608,-0.53693 6.42531,-4.24042 13.39449,-8.20482 9.17843,-5.22101 12.51429,-6.8241 13.61931,-6.57777 z m 54.07885,16.0197 c 1.02306,0.10258 3.15315,3.43439 8.14413,12.72221 3.71231,6.90814 6.77711,13.20243 6.81068,13.9957 0.0491,1.16089 -2.47984,2.90164 -12.9484,8.95075 -7.15384,4.13373 -13.47474,7.5526 -14.04591,7.57759 -1.00693,0.0441 -14.98124,-25.66507 -15.03233,-27.65425 -0.0306,-1.18822 25.28789,-15.7709 27.07183,-15.592 z m -89.46262,4.17525 c 1.7186,0.95365 13.93876,24.66866 13.83283,26.84206 -0.0763,1.56668 -1.63208,2.67705 -12.66043,8.94398 -6.9275,3.93655 -12.84814,7.16601 -13.16097,7.17972 -1.33216,0.0582 -3.1976,-2.80419 -9.09065,-14.02307 -3.44561,-6.55992 -6.17828,-12.59075 -6.083,-13.4353 0.24427,-2.16943 25.35934,-16.50782 27.16222,-15.50739 z m 54.27309,15.83882 c 1.04529,0.35877 3.14323,3.80524 8.16362,13.25869 3.89801,7.34029 6.93082,13.78571 6.74408,14.33073 -0.18664,0.54502 -5.97611,4.12825 -12.87032,7.97007 -6.89424,3.84179 -13.24293,7.02349 -14.09949,7.06097 -1.32614,0.058 -2.5808,-1.91655 -8.55739,-13.28189 -3.86021,-7.3406 -6.87834,-13.76588 -6.69897,-14.28845 0.39443,-1.15133 25.30687,-14.99582 27.1255,-15.07536 0.0608,-0.002 0.12325,8.8e-4 0.19295,0.0253 z m -90.19595,3.93775 c 1.02025,0.37287 3.16396,3.90343 8.02023,13.15901 3.82604,7.29202 6.96439,13.73415 6.97913,14.30891 0.0164,0.64313 -4.98674,3.90646 -13.03623,8.45394 -7.19386,4.06415 -13.4923,7.40029 -13.97301,7.42129 -0.92133,0.0403 -8.39623,-12.4539 -8.43859,-14.10356 -0.0136,-0.52911 -0.81047,-1.99948 -1.76768,-3.24452 -0.9574,-1.24505 -2.48212,-3.97573 -3.39013,-6.09392 -1.61999,-3.77929 -1.60748,-3.89211 -0.34638,-5.23047 1.71624,-1.82119 24.16187,-14.62606 25.75959,-14.69595 0.0586,-0.002 0.12498,3.5e-4 0.19305,0.0253 z m 54.82118,16.0238 c 0.0772,0.0136 0.15263,0.0307 0.21173,0.06 1.02896,0.51285 12.7727,22.03467 14.20528,26.03335 0.72064,2.01155 -1.38749,3.63746 -12.96253,10.0086 -12.86778,7.0827 -13.55291,7.39686 -14.51848,6.82411 -0.98585,-0.58482 -14.05954,-25.4716 -14.09438,-26.82776 -0.0403,-1.5646 0.61723,-2.02411 13.91862,-9.64888 8.76831,-5.02625 12.08124,-6.65334 13.23975,-6.4495 z m 54.51972,16.38072 c 1.27061,0.37647 2.62142,2.67527 7.7407,12.43081 3.62493,6.90784 6.59559,13.15293 6.61444,13.88102 0.0519,2.01978 -1.42627,3.06866 -13.78752,9.89255 -6.29291,3.47376 -12.07769,6.34953 -12.84928,6.38329 -1.12489,0.0492 -2.78449,-2.57533 -8.37982,-13.20204 -3.91123,-7.42855 -6.80703,-13.73402 -6.59631,-14.3478 0.4911,-1.43312 24.49362,-15.00936 26.70522,-15.10609 0.18885,-0.008 0.37109,0.0146 0.55254,0.0683 z m -90.47746,4.12333 c 1.30053,0.32356 2.84215,2.81661 8.37983,13.20203 5.43587,10.19464 6.87883,13.43604 6.36141,14.36966 -0.36719,0.66279 -6.05976,4.24224 -12.63536,7.94824 -6.57567,3.70597 -12.60942,6.76327 -13.40113,6.81666 -1.41033,0.0951 -3.89704,-3.53829 -8.99761,-13.14134 -0.91756,-1.72747 -2.63087,-4.94201 -3.80394,-7.15515 -3.90515,-7.36871 -4.23646,-6.8598 9.86494,-15.01667 6.90704,-3.99538 13.07558,-7.1065 13.98596,-7.06368 0.0856,0.004 0.15922,0.0187 0.2459,0.0404 z m 55.07746,15.6246 c 0.17218,0.0301 0.31721,0.0896 0.43448,0.18228 1.6116,1.27409 14.50214,26.53298 14.11571,27.65968 -0.17971,0.52417 -6.12898,4.18266 -13.23129,8.13313 -7.10213,3.95056 -13.07674,7.29801 -13.2835,7.41044 -0.20685,0.11239 -0.73553,-0.0179 -1.15353,-0.26822 -1.08877,-0.65194 -14.11658,-25.79147 -14.1558,-27.3171 -0.024,-0.9368 3.50265,-3.28328 13.30026,-8.88045 9.86337,-5.63473 12.76844,-7.13088 13.97365,-6.9197 z"
     id="path2986"
     inkscape:connector-curvature="0"
     sodipodi:nodetypes="cccccccccccccccccccccccscccccccscscsccccccccsscccccccscccccccccccccccccscccscccsscccccsccccccccccccsccccccsccscscscccccccscccccscccccsscsccsccccccccccsccsccsccssccccscsccscsscscccccccccccscccsssccccccscscccscscscsccccccscsccccccccccsccccccccccscsssccsscscscsccscsssccccccccccsssscccccscsccccccccccssccsccsscsccccccscccscsccccccccccscsccc" />
  <g
     id="g4047"
     transform="matrix(0.88035777,0,0,0.88035777,40.534702,30.852635)">
    <circle
       transform="translate(556.84659,-203.44301)"
       id="path4029"
       style="fill:#e2e5e7;fill-opacity:1;stroke:#48b19b;stroke-width:6.80000019;stroke-miterlimit:4;stroke-dasharray:none;stroke-opacity:1"
       cx="-287.33704"
       cy="372.52618"
       r="56.628468" />
    <g
       style="fill:#48b19b;fill-opacity:1"
       transform="translate(-456.21276,27.332565)"
       id="g3975">
      <path
         inkscape:connector-curvature="0"
         id="path3047"
         d="m 714.87514,187.48618 c -6.79058,-1.78013 -12.09549,-4.36345 -12.09549,-5.89011 0,-1.50403 16.22924,-28.41815 18.98744,-31.48825 3.83441,-4.26799 4.15131,-2.81996 4.03766,18.44946 -0.0557,10.42689 -0.31483,19.30349 -0.57581,19.72578 -0.69568,1.12562 -3.98619,0.87238 -10.3538,-0.79688 z"
         style="fill:#48b19b;fill-opacity:1" />
      <path
         inkscape:connector-curvature="0"
         id="path3045"
         d="m 734.2963,186.43712 c -1.10967,-2.66927 -4.75317,-25.14123 -5.27486,-32.53369 -0.31322,-4.43833 -0.19153,-6.62377 0.36883,-6.62377 2.2774,0 28.55886,25.96654 28.55886,28.21665 0,2.4357 -12.48364,9.85949 -19.94114,11.85862 -2.72331,0.73005 -3.0614,0.64644 -3.71169,-0.91781 z"
         style="fill:#48b19b;fill-opacity:1" />
      <path
         inkscape:connector-curvature="0"
         id="path3043"
         d="m 754.65791,161.99455 c -13.30177,-9.3082 -22.87343,-17.00391 -22.51076,-18.09886 0.53099,-1.60321 8.93345,-2.16179 24.87544,-1.65367 11.26156,0.35894 15.33083,0.74759 15.61629,1.49149 1.19577,3.11613 -4.38428,20.74481 -7.4359,23.49176 -1.22744,1.10489 -2.13357,0.65542 -10.54507,-5.23072 z"
         style="fill:#48b19b;fill-opacity:1" />
      <path
         inkscape:connector-curvature="0"
         id="path3041"
         d="m 679.41746,139.21468 c -1.6425,-2.64797 5.75086,-22.67231 8.37105,-22.67231 2.60302,0 30.74515,20.73483 30.75091,22.65694 0.002,0.76422 -4.31426,0.93976 -19.38034,0.78813 -10.66081,-0.10729 -19.54454,-0.45504 -19.74162,-0.77276 z"
         style="fill:#48b19b;fill-opacity:1" />
      <path
         inkscape:connector-curvature="0"
         id="path3039"
         d="m 731.15253,138.79775 c 0,-1.70395 6.37373,-8.80172 16.47158,-18.34269 5.71839,-5.40304 10.8619,-9.92856 11.43001,-10.05672 2.46945,-0.55707 10.00331,11.68373 12.17335,19.77888 1.00924,3.76487 1.29607,3.64314 -15.06995,6.39523 -14.99741,2.52195 -25.00499,3.41257 -25.00499,2.2253 z"
         style="fill:#48b19b;fill-opacity:1" />
      <path
         inkscape:connector-curvature="0"
         id="path3037"
         d="m 717.20404,133.22295 c -6.11864,-5.09937 -23.09389,-23.26882 -23.09389,-24.71854 0,-3.18078 20.96518,-13.871433 23.07177,-11.764853 0.93558,0.93558 5.06367,24.982973 5.75829,33.543833 0.3786,4.66614 0.28355,6.75051 -0.30787,6.75051 -0.47059,0 -2.91332,-1.71493 -5.4283,-3.81095 z"
         style="fill:#48b19b;fill-opacity:1" />
      <path
         inkscape:connector-curvature="0"
         id="path3004"
         d="m 726.64599,135.22617 c -1.02884,-1.58704 -0.58741,-38.337313 0.47322,-39.397943 2.33378,-2.33378 24.52484,5.015293 24.52484,8.121943 0,2.40155 -20.86371,30.87676 -23.31155,31.81608 -0.5886,0.22587 -1.34752,-0.0172 -1.68651,-0.54008 z"
         style="fill:#48b19b;fill-opacity:1" />
    </g>
  </g>
  <g
     id="g3967"
     transform="matrix(0.88035777,0,0,0.88035777,-13.450626,67.864967)">
    <path
       sodipodi:nodetypes="cccc"
       inkscape:connector-curvature="0"
       d="M 98.303408,124.78831 214.03354,325.05693 329.1999,124.14878 Z"
       style="fill:#e2e5e7;fill-opacity:1;stroke:none"
       inkscape:label="Triangle"
       id="path3104" />
    <rect
       style="fill:#e2e5e7;fill-opacity:1;stroke:none"
       id="rect3059"
       width="25.168207"
       height="200.20081"
       x="201.47197"
       y="241.95932" />
    <rect
       style="fill:#e2e5e7;fill-opacity:1;stroke:none"
       id="rect3059-0"
       width="9.3964777"
       height="118.76775"
       x="441.72552"
       y="-273.00745"
       transform="matrix(0,1,-1,0,0,0)" />
  </g>
  <path
     style="fill:#eb8923;fill-opacity:1"
     d="m 100.3481,191.43858 c -0.0833,0.15409 -0.0782,0.33609 -0.0275,0.55238 0.62092,2.64855 44.76463,80.46074 54.47212,96.02122 5.32726,8.53923 11.24511,15.50113 15.10365,17.76808 3.39252,1.99314 7.27761,2.1487 10.64683,0.39892 3.67916,-1.91071 10.95188,-10.35345 16.23159,-18.84213 9.14359,-14.70097 53.72569,-93.22807 54.1145,-95.3154 0.0478,-0.25656 -0.18253,-0.43408 -0.74281,-0.58307 l -149.79837,0 z"
     id="path3049"
     inkscape:connector-curvature="0" />
  <path
     id="path3104-5"
     inkscape:label="Triangle"
     style="fill:#48b19b;fill-opacity:1;stroke:none"
     d="M 108.31837,116.89299 170.2271,291.70623 116.12491,116.56598 Z"
     inkscape:connector-curvature="0"
     sodipodi:nodetypes="cccc" />
  <path
     sodipodi:type="arc"
     style="fill:#48b19b;fill-opacity:1;stroke:#48b19b;stroke-width:5.98643303;stroke-miterlimit:4;stroke-dasharray:none;stroke-dashoffset:0;stroke-opacity:1"
     id="path4082"
     sodipodi:cx="119.35554"
     sodipodi:cy="-100.73377"
     sodipodi:rx="7.8472805"
     sodipodi:ry="7.8472805"
     d="m 127.20282,-100.73377 a 7.8472805,7.8472805 0 0 1 -6.81143,7.77861 7.8472805,7.8472805 0 0 1 -8.60966,-5.725026 7.8472805,7.8472805 0 0 1 4.53843,-9.290044 7.8472805,7.8472805 0 0 1 9.80784,3.27242 l -6.77246,3.96404 z"
     sodipodi:start="0"
     sodipodi:end="5.7536314"
     transform="matrix(0.08743945,0.99616984,-0.99616984,0.08743945,0,0)" />
  <circle
     id="path4029-1"
     style="fill:#eb8923;fill-opacity:1;stroke:none"
     cx="122.11533"
     cy="142.75323"
     r="19.660957" />
  <path
     id="path3104-5-0"
     inkscape:label="Triangle"
     style="fill:#ecad6b;fill-opacity:1;stroke:none"
     d="m 220.1578,191.43132 -35.02826,93.30041 54.94852,-93.41302 z"
     inkscape:connector-curvature="0"
     sodipodi:nodetypes="cccc" />
</svg>
