<?xml version="1.0" encoding="UTF-8" standalone="no"?>
<!-- Created with Inkscape (http://www.inkscape.org/) -->

<svg
   xmlns:dc="http://purl.org/dc/elements/1.1/"
   xmlns:cc="http://creativecommons.org/ns#"
   xmlns:rdf="http://www.w3.org/1999/02/22-rdf-syntax-ns#"
   xmlns:svg="http://www.w3.org/2000/svg"
   xmlns="http://www.w3.org/2000/svg"
   xmlns:xlink="http://www.w3.org/1999/xlink"
   xmlns:sodipodi="http://sodipodi.sourceforge.net/DTD/sodipodi-0.dtd"
   xmlns:inkscape="http://www.inkscape.org/namespaces/inkscape"
   width="48"
   height="48"
   id="svg5453"
   version="1.1"
   inkscape:version="0.91 r13725"
   sodipodi:docname="higan.svg">
  <defs
     id="defs5455">
    <linearGradient
       id="linearGradient4143"
       inkscape:collect="always">
      <stop
         id="stop4145"
         offset="0"
         style="stop-color:#faae2a;stop-opacity:1" />
      <stop
         id="stop4147"
         offset="1"
         style="stop-color:#ffc35a;stop-opacity:1" />
    </linearGradient>
    <linearGradient
       inkscape:collect="always"
       id="linearGradient4300-7">
      <stop
         style="stop-color:#f39c12;stop-opacity:1"
         offset="0"
         id="stop4302-4" />
      <stop
         style="stop-color:#ffc35a;stop-opacity:1"
         offset="1"
         id="stop4304-1" />
    </linearGradient>
    <linearGradient
       inkscape:collect="always"
       xlink:href="#linearGradient4143"
       id="linearGradient4514"
       gradientUnits="userSpaceOnUse"
       x1="428.57144"
       y1="543.79797"
       x2="388.57144"
       y2="503.798" />
    <linearGradient
       id="linearGradient3819">
      <stop
         style="stop-color:#eff0f1;stop-opacity:1;"
         offset="0"
         id="stop3821" />
      <stop
         style="stop-color:#bdc3c7;stop-opacity:1;"
         offset="1"
         id="stop3823" />
    </linearGradient>
    <linearGradient
       id="linearGradient4227"
       inkscape:collect="always">
      <stop
         id="stop4229"
         offset="0"
         style="stop-color:#292c2f;stop-opacity:1" />
      <stop
         id="stop4231"
         offset="1"
         style="stop-color:#000000;stop-opacity:0;" />
    </linearGradient>
    <linearGradient
       gradientTransform="translate(-182.85714,-77.150103)"
       inkscape:collect="always"
       xlink:href="#linearGradient4256-6"
       id="linearGradient6638"
       gradientUnits="userSpaceOnUse"
       x1="410.57144"
       y1="534.79797"
       x2="410.57144"
       y2="510.798" />
    <linearGradient
       id="linearGradient4256-6">
      <stop
         style="stop-color:#8cbdf8;stop-opacity:1;"
         offset="0"
         id="stop4258-2" />
      <stop
         style="stop-color:#d5e8ff;stop-opacity:1;"
         offset="1"
         id="stop4260-8" />
    </linearGradient>
    <linearGradient
       inkscape:collect="always"
       xlink:href="#linearGradient4227"
       id="linearGradient6640"
       gradientUnits="userSpaceOnUse"
       gradientTransform="translate(-182.85714,-76.735793)"
       x1="396.57144"
       y1="513.38367"
       x2="412.57144"
       y2="531.38367" />
    <linearGradient
       inkscape:collect="always"
       xlink:href="#linearGradient4232"
       id="linearGradient4849"
       gradientUnits="userSpaceOnUse"
       gradientTransform="matrix(1.0810811,0,0,1.0810811,199.76834,420.70195)"
       x1="24"
       y1="43"
       x2="24"
       y2="5" />
    <linearGradient
       id="linearGradient4232">
      <stop
         style="stop-color:#3889e9;stop-opacity:1"
         offset="0"
         id="stop4234-0" />
      <stop
         style="stop-color:#5ea5fb;stop-opacity:1"
         offset="1"
         id="stop4236" />
    </linearGradient>
    <linearGradient
       inkscape:collect="always"
       xlink:href="#linearGradient4300-7"
       id="linearGradient4426"
       x1="391.57144"
       y1="506.798"
       x2="425.57144"
       y2="540.79797"
       gradientUnits="userSpaceOnUse" />
    <clipPath
       id="clipPath-653236590">
      <g
         transform="translate(0,-1004.3622)"
         id="g17">
        <path
           style="fill:#1890d0"
           inkscape:connector-curvature="0"
           d="m -24,13 c 0,1.105 -0.672,2 -1.5,2 -0.828,0 -1.5,-0.895 -1.5,-2 0,-1.105 0.672,-2 1.5,-2 0.828,0 1.5,0.895 1.5,2 z"
           transform="matrix(15.333333,0,0,11.5,414.99999,878.8622)"
           id="path19" />
      </g>
    </clipPath>
  </defs>
  <sodipodi:namedview
     id="base"
     pagecolor="#ffffff"
     bordercolor="#666666"
     borderopacity="1.0"
     inkscape:pageopacity="0"
     inkscape:pageshadow="2"
     inkscape:zoom="5.665"
     inkscape:cx="13.446201"
     inkscape:cy="21.417449"
     inkscape:document-units="px"
     inkscape:current-layer="layer1"
     showgrid="false"
     fit-margin-top="0"
     fit-margin-left="0"
     fit-margin-right="0"
     fit-margin-bottom="0"
     inkscape:window-width="1366"
     inkscape:window-height="699"
     inkscape:window-x="0"
     inkscape:window-y="0"
     inkscape:window-maximized="1"
     inkscape:showpageshadow="false"
     borderlayer="true"
     showguides="false"
     inkscape:snap-bbox="true"
     inkscape:bbox-nodes="true"
     inkscape:snap-smooth-nodes="true"
     inkscape:snap-center="true">
    <inkscape:grid
       type="xygrid"
       id="grid4063" />
    <sodipodi:guide
       position="1.1650391e-05,47.999996"
       orientation="4,0"
       id="guide4146" />
    <sodipodi:guide
       position="1.1650391e-05,43.999996"
       orientation="0,48"
       id="guide4148" />
    <sodipodi:guide
       position="48.000012,43.999996"
       orientation="-4,0"
       id="guide4150" />
    <sodipodi:guide
       position="48.000012,47.999996"
       orientation="0,-48"
       id="guide4152" />
    <sodipodi:guide
       position="1.1650391e-05,4.0000264"
       orientation="4,0"
       id="guide4154" />
    <sodipodi:guide
       position="1.1650391e-05,2.6367188e-05"
       orientation="0,48"
       id="guide4156" />
    <sodipodi:guide
       position="48.000012,2.6367188e-05"
       orientation="-4,0"
       id="guide4158" />
    <sodipodi:guide
       position="48.000012,4.0000264"
       orientation="0,-48"
       id="guide4160" />
    <sodipodi:guide
       position="48.000012,48.000026"
       orientation="0,-4"
       id="guide4162" />
    <sodipodi:guide
       position="44.000012,48.000026"
       orientation="48,0"
       id="guide4164" />
    <sodipodi:guide
       position="44.000012,2.6367188e-05"
       orientation="0,4"
       id="guide4166" />
    <sodipodi:guide
       position="48.000012,2.6367188e-05"
       orientation="-48,0"
       id="guide4168" />
    <sodipodi:guide
       position="4.0000422,48.000026"
       orientation="0,-4"
       id="guide4170" />
    <sodipodi:guide
       position="4.2167969e-05,48.000026"
       orientation="48,0"
       id="guide4172" />
    <sodipodi:guide
       position="4.2167969e-05,2.6367188e-05"
       orientation="0,4"
       id="guide4174" />
    <sodipodi:guide
       position="4.0000422,2.6367188e-05"
       orientation="-48,0"
       id="guide4176" />
    <sodipodi:guide
       position="4.0000422,43.999996"
       orientation="39.999969,0"
       id="guide4175" />
    <sodipodi:guide
       position="4.0000422,4.0000264"
       orientation="0,20"
       id="guide4177" />
    <sodipodi:guide
       position="24.000042,4.0000264"
       orientation="-39.999969,0"
       id="guide4179" />
    <sodipodi:guide
       position="24.000042,43.999996"
       orientation="0,-20"
       id="guide4181" />
    <sodipodi:guide
       position="4.0000422,23.999843"
       orientation="20,0"
       id="guide4185" />
    <sodipodi:guide
       position="44.000012,3.9998433"
       orientation="-20,0"
       id="guide4189" />
    <sodipodi:guide
       position="44.000012,23.999843"
       orientation="0,-39.999969"
       id="guide4191" />
  </sodipodi:namedview>
  <metadata
     id="metadata5458">
    <rdf:RDF>
      <cc:Work
         rdf:about="">
        <dc:format>image/svg+xml</dc:format>
        <dc:type
           rdf:resource="http://purl.org/dc/dcmitype/StillImage" />
        <dc:title></dc:title>
      </cc:Work>
    </rdf:RDF>
  </metadata>
  <g
     inkscape:label="Capa 1"
     inkscape:groupmode="layer"
     id="layer1"
     transform="translate(-384.57143,-499.798)">
    <circle
       style="opacity:1;fill:#feb0b7;fill-opacity:1;stroke:none;stroke-width:0.5;stroke-linecap:butt;stroke-linejoin:round;stroke-miterlimit:4;stroke-dasharray:none;stroke-opacity:1"
       id="path4173"
       cx="408.57144"
       cy="523.79797"
       r="20.000006" />
    <path
       style="opacity:1;fill:#c47c84;fill-opacity:1;stroke:none;stroke-width:0.5;stroke-linecap:butt;stroke-linejoin:round;stroke-miterlimit:4;stroke-dasharray:none;stroke-opacity:1"
       d="M 43.978516 23.417969 A 20.000006 20.000006 0 0 1 24 43 A 20.000006 20.000006 0 0 1 4.0214844 23.582031 A 20.000006 20.000006 0 0 0 4 24 A 20.000006 20.000006 0 0 0 24 44 A 20.000006 20.000006 0 0 0 44 24 A 20.000006 20.000006 0 0 0 43.978516 23.417969 z "
       transform="translate(384.57143,499.798)"
       id="path4173-6" />
    <path
       style="opacity:1;fill:url(#linearGradient4426);fill-opacity:1;stroke:none;stroke-width:0.5;stroke-linecap:butt;stroke-linejoin:round;stroke-miterlimit:4;stroke-dasharray:none;stroke-opacity:1"
       id="path4173-2"
       r="16.999989"
       cy="523.79797"
       cx="408.57144" />
    <circle
       style="opacity:1;fill:url(#linearGradient4514);fill-opacity:1;stroke:none;stroke-width:0.5;stroke-linecap:butt;stroke-linejoin:round;stroke-miterlimit:4;stroke-dasharray:none;stroke-opacity:1"
       id="path4173-0"
       cx="408.57144"
       cy="523.79797"
       r="0" />
    <g
       id="g47"
       transform="matrix(1.0220544,0,0,1.0220544,384.75649,498.55782)"
       style="fill:#d9283d;fill-opacity:1">
      <g
         clip-path="url(#clipPath-653236590)"
         id="g49"
         style="fill:#d9283d;fill-opacity:1">
        <!-- color: #d9281e -->
        <g
           id="g51"
           style="fill:#d9283d;fill-opacity:1">
          <path
             d="m 12,35.992 c 0,-0.012 0.207,-0.129 0.461,-0.27 2.355,-1.285 4.309,-3.03 5.547,-4.957 1.414,-2.199 2.188,-4.809 2.5,-8.398 0.09,-1.016 0.094,-4.707 0.004,-5.539 -0.141,-1.352 -0.336,-2.293 -0.68,-3.285 -0.215,-0.629 -0.25,-0.988 -0.102,-1.254 0.219,-0.406 0.504,-0.391 1.973,0.09 1.809,0.598 2.07,0.695 2.172,0.84 0.117,0.16 0.098,0.266 -0.215,1.434 -0.543,2.01 -0.801,4.164 -0.867,7.172 L 22.758,23.446 23,23.774 c 0.652,0.875 1.016,1.379 1.672,2.328 1.605,2.305 2.527,3.469 3.438,4.332 1.262,1.195 2.148,1.844 3.633,2.652 0.93,0.508 1.465,0.754 2.727,1.242 0.559,0.215 1.098,0.434 1.195,0.477 0.211,0.102 0.383,0.293 0.316,0.359 -0.305,0.332 -4.973,0.641 -6.203,0.406 -2.07,-0.391 -3.91,-2.164 -7.316,-7.05 l -0.691,-0.988 -0.133,0.637 c -0.293,1.375 -0.793,2.688 -1.395,3.656 -0.41,0.656 -1.414,1.754 -2.01,2.188 -1.297,0.953 -2.895,1.543 -5.03,1.855 -0.848,0.121 -1.215,0.16 -1.215,0.133 m 4.832,-13.41 c -0.91,-0.41 -1.934,-1.707 -2.691,-3.414 -0.367,-0.836 -0.461,-1.316 -0.316,-1.688 0.195,-0.5 0.934,-0.453 2.039,0.137 1.074,0.574 1.945,1.285 2.289,1.871 0.266,0.457 0.34,0.777 0.309,1.375 -0.047,0.867 -0.32,1.504 -0.75,1.73 -0.273,0.145 -0.535,0.141 -0.875,-0.012 m 7.531,-0.207 c 0.965,-1.156 2.094,-2.469 2.797,-3.25 0.969,-1.074 0.98,-1.098 1.234,-2.176 0.094,-0.387 0.207,-0.746 0.25,-0.801 0.129,-0.156 0.371,-0.121 0.652,0.082 0.383,0.281 2.297,1.93 2.563,2.203 0.164,0.18 0.234,0.293 0.234,0.395 0,0.168 -0.141,0.25 -0.793,0.465 -0.602,0.199 -1.098,0.438 -2.973,1.457 -2.184,1.184 -2.617,1.375 -4.01,1.777 -0.082,0.023 -0.078,-0.004 0.051,-0.152 m -0.004,0"
             id="path53"
             inkscape:connector-curvature="0"
             style="fill:#d9283d;fill-opacity:1;fill-rule:nonzero;stroke:none" />
        </g>
      </g>
    </g>
  </g>
</svg>
