<?xml version="1.0" encoding="UTF-8" standalone="no"?>
<svg
   xmlns:dc="http://purl.org/dc/elements/1.1/"
   xmlns:cc="http://creativecommons.org/ns#"
   xmlns:rdf="http://www.w3.org/1999/02/22-rdf-syntax-ns#"
   xmlns:svg="http://www.w3.org/2000/svg"
   xmlns="http://www.w3.org/2000/svg"
   xmlns:sodipodi="http://sodipodi.sourceforge.net/DTD/sodipodi-0.dtd"
   xmlns:inkscape="http://www.inkscape.org/namespaces/inkscape"
   version="1.1"
   id="Layer_1"
   x="0px"
   y="0px"
   width="128"
   height="128"
   viewBox="0 0 128 128"
   enable-background="new 0 0 100 100"
   xml:space="preserve"
   inkscape:version="0.91 r13725"
   sodipodi:docname="kolourpaint.svg"><metadata
     id="metadata8"><rdf:RDF><cc:Work
         rdf:about=""><dc:format>image/svg+xml</dc:format><dc:type
           rdf:resource="http://purl.org/dc/dcmitype/StillImage" /><dc:title></dc:title></cc:Work></rdf:RDF></metadata><defs
     id="defs6" /><sodipodi:namedview
     pagecolor="#ffffff"
     bordercolor="#666666"
     borderopacity="1"
     objecttolerance="10"
     gridtolerance="10"
     guidetolerance="10"
     inkscape:pageopacity="0"
     inkscape:pageshadow="2"
     inkscape:window-width="1366"
     inkscape:window-height="699"
     id="namedview4"
     showgrid="false"
     inkscape:zoom="2"
     inkscape:cx="-85.281261"
     inkscape:cy="56.213057"
     inkscape:window-x="0"
     inkscape:window-y="0"
     inkscape:window-maximized="1"
     inkscape:current-layer="Layer_1" /><path
     id="Palette_1_"
     d="m 97.76164,93.98348 c -0.16112,-3.815471 -5.89672,-15.16081 -5.761331,-19.563564 0.15445,-4.99195 3.173831,-11.140363 9.460481,0.879025 3.76684,7.20286 9.54915,2.720974 10.25085,-0.783686 C 113.83103,63.913557 110.68388,51.197243 100.6609,38.73739 83.324457,17.189823 52.852207,11.272131 32.616506,25.521498 12.381758,39.772771 11.97466,71.863877 30.439916,90.462608 47.176678,107.31473 70.258247,114.72162 89.556768,106.59969 91.552213,105.75594 98.15539,103.17131 97.76164,93.98348 Z M 43.553795,31.50402 c 3.651485,-2.571293 8.694917,-1.697034 11.268116,1.956355 2.573201,3.652438 1.696082,8.696824 -1.955403,11.268117 -3.654343,2.5732 -8.696823,1.697034 -11.270022,-1.955404 -2.573199,-3.652436 -1.697987,-8.694916 1.957309,-11.269068 z M 27.786633,64.370232 c -2.571293,-3.652438 -1.694175,-8.696824 1.957309,-11.268117 3.649576,-2.571292 8.696823,-1.69894 11.268116,1.953497 2.573199,3.65339 1.694174,8.698729 -1.955403,11.270023 -3.651485,2.572246 -8.697776,1.700847 -11.270022,-1.955403 z M 67.042464,43.320334 c -2.575107,-3.652436 -1.697988,-8.698729 1.955403,-11.270022 3.652436,-2.571292 8.694916,-1.69608 11.270022,1.957309 2.571292,3.651485 1.695128,8.694916 -1.95731,11.268117 -3.652435,2.572247 -8.695869,1.697988 -11.268115,-1.955404 z M 39.684939,85.012078 c -2.571292,-3.655298 -1.697034,-8.70159 1.954449,-11.272883 3.652438,-2.571294 8.69873,-1.696081 11.270022,1.955403 2.571294,3.65339 1.697035,8.699683 -1.955402,11.270976 -3.651482,2.573198 -8.696823,1.69608 -11.269069,-1.953496 z"
     inkscape:connector-curvature="0"
     style="fill:#ba9045;fill-opacity:1" /><g
     id="g3344"
     transform="translate(-148.83006,-29.304839)" /><g
     id="g3346"
     transform="translate(-148.83006,-29.304839)" /><g
     id="g3348"
     transform="translate(-148.83006,-29.304839)" /><g
     id="g3350"
     transform="translate(-148.83006,-29.304839)" /><g
     id="g3352"
     transform="translate(-148.83006,-29.304839)" /><g
     id="g3354"
     transform="translate(-148.83006,-29.304839)" /><g
     id="g3356"
     transform="translate(-148.83006,-29.304839)" /><g
     id="g3358"
     transform="translate(-148.83006,-29.304839)" /><g
     id="g3360"
     transform="translate(-148.83006,-29.304839)" /><g
     id="g3362"
     transform="translate(-148.83006,-29.304839)" /><g
     id="g3364"
     transform="translate(-148.83006,-29.304839)" /><g
     id="g3366"
     transform="translate(-148.83006,-29.304839)" /><g
     id="g3368"
     transform="translate(-148.83006,-29.304839)" /><g
     id="g3370"
     transform="translate(-148.83006,-29.304839)" /><g
     id="g3372"
     transform="translate(-148.83006,-29.304839)" /><path
     style="opacity:1;fill:#d3aa00;fill-opacity:1;stroke:none;stroke-width:1.10000002;stroke-miterlimit:4;stroke-dasharray:none;stroke-dashoffset:0;stroke-opacity:1"
     d="m 45.724915,46.339842 c -4.136609,-1.294707 -6.942206,-5.999031 -6.052338,-10.148341 0.445144,-2.075631 1.29725,-3.607119 2.777182,-4.991423 1.958586,-1.832027 3.380691,-2.385266 6.131345,-2.385266 2.757413,0 4.172586,0.553076 6.151514,2.404132 4.916128,4.598464 3.155718,12.860465 -3.219485,15.109767 -1.352764,0.477282 -4.280863,0.482912 -5.788218,0.01107 z"
     id="path4250"
     inkscape:connector-curvature="0" /><path
     style="opacity:1;fill:#223ac4;fill-opacity:1;stroke:none;stroke-width:1.10000002;stroke-miterlimit:4;stroke-dasharray:none;stroke-dashoffset:0;stroke-opacity:1"
     d="m 70.952631,46.820478 c -3.971813,-1.243127 -6.665639,-5.760036 -5.811223,-9.744045 0.42741,-1.99294 1.24557,-3.463416 2.666543,-4.792571 1.88056,-1.759042 3.24601,-2.290241 5.887083,-2.290241 2.647561,0 4.006357,0.531042 5.906446,2.308355 4.720277,4.415268 3.03,12.348122 -3.091226,14.507817 -1.29887,0.458267 -4.110319,0.463673 -5.557623,0.01074 z"
     id="path4250-8"
     inkscape:connector-curvature="0" /><path
     style="opacity:1;fill:#33a02a;fill-opacity:1;stroke:none;stroke-width:1.10000002;stroke-miterlimit:4;stroke-dasharray:none;stroke-dashoffset:0;stroke-opacity:1"
     d="m 32.260289,67.946973 c -3.971813,-1.243127 -6.665638,-5.760038 -5.811221,-9.744046 0.427408,-1.99294 1.245567,-3.463417 2.666541,-4.792571 1.88056,-1.759044 3.246009,-2.290242 5.887083,-2.290242 2.647562,0 4.006356,0.531044 5.906445,2.308357 4.720278,4.415266 3.03,12.34812 -3.091224,14.507814 -1.298872,0.458269 -4.110319,0.463675 -5.557624,0.01074 z"
     id="path4250-0"
     inkscape:connector-curvature="0" /><path
     style="opacity:1;fill:#fd1515;fill-opacity:1;stroke:none;stroke-width:1.10000002;stroke-miterlimit:4;stroke-dasharray:none;stroke-dashoffset:0;stroke-opacity:1"
     d="m 43.654353,88.598714 c -3.971813,-1.243128 -6.665638,-5.760037 -5.811221,-9.744046 0.427409,-1.99294 1.245568,-3.463416 2.666542,-4.792571 1.88056,-1.759043 3.246009,-2.290241 5.887082,-2.290241 2.647562,0 4.006356,0.531043 5.906446,2.308355 4.720278,4.415268 3.029999,12.348122 -3.091225,14.507816 -1.298872,0.458267 -4.110319,0.463674 -5.557624,0.01074 z"
     id="path4250-5"
     inkscape:connector-curvature="0" /><path
     inkscape:connector-curvature="0"
     style="fill:#cdaf7a"
     d="m 110.84499,21.376415 c -0.31443,4.82e-4 -0.52203,0.04511 -0.79053,0.170083 -0.88339,0.41121 -1.52021,0.988652 -3.61249,3.274717 -8.654398,9.455972 -14.776264,17.306756 -20.192092,25.895892 -3.555453,5.638697 -6.580048,11.004238 -11.711845,20.776602 -0.937326,1.784922 -1.758549,3.305318 -1.825406,3.378923 -0.06686,0.07361 -0.35993,0.555575 -0.651591,1.07081 -1.995692,3.52547 -3.815886,7.341862 -5.297756,11.108164 -0.705961,1.794257 -0.581065,1.633018 -1.410978,1.815828 -2.421159,0.533334 -4.979788,1.956985 -6.639265,3.693934 -1.374918,1.439114 -2.023122,2.665919 -3.729877,7.059692 -1.021434,2.62954 -1.228826,3.11242 -1.723592,4.01973 -1.37969,2.53012 -3.434801,4.44528 -7.124368,6.63927 -0.393522,0.234 -0.732245,0.45321 -0.753396,0.4875 -0.01681,0.0272 0.08014,0.0768 0.238356,0.13653 0.08494,-0.0534 0.159405,-0.10309 0.261114,-0.16288 3.326676,-1.95408 5.671717,-4.051 6.986622,-6.2488 0.48393,-0.80886 1.112835,-2.23091 1.975129,-4.46651 1.628715,-4.222644 2.232544,-5.407792 3.490317,-6.856057 1.156899,-1.332119 3.025252,-2.630302 4.87494,-3.386111 0.781452,-0.319313 1.933781,-0.660061 2.430284,-0.718666 0.195623,-0.02308 0.383392,-0.07613 0.416827,-0.117381 0.03348,-0.04127 0.286509,-0.652153 0.562955,-1.358278 1.046836,-2.673877 2.132087,-5.10322 3.474747,-7.779548 0.782834,-1.560432 2.344839,-4.462152 2.480591,-4.607838 0.05581,-0.05988 7.379488,4.376405 7.379488,4.470095 0,0.0811 -1.360519,2.029816 -2.294938,3.287891 -0.788377,1.061452 -1.727898,2.255726 -2.718946,3.466361 0.382521,-0.458423 0.824952,-0.979594 1.094767,-1.315157 1.361164,-1.692868 3.89525,-5.1908 4.082019,-5.634333 0.04949,-0.117519 0.757063,-1.140808 1.572676,-2.274574 2.839084,-3.946569 6.78373,-9.504382 8.350887,-11.764545 8.23519,-11.876833 13.269251,-20.922425 18.506821,-33.256219 1.14654,-2.699988 2.69866,-6.551744 2.94892,-7.318403 0.53945,-1.652495 0.54882,-2.715114 0.0276,-3.236388 -0.23853,-0.238539 -0.27419,-0.250948 -0.67795,-0.250334 z m -38.03894,54.68441 c -0.04636,0.01788 -0.288957,0.402337 -0.538994,0.85521 -0.34737,0.629141 -0.43874,0.849065 -0.388079,0.931869 0.08162,0.133409 5.529056,4.181902 5.629538,4.183827 0.03968,7.38e-4 0.134243,-0.06634 0.209613,-0.149721 0.281689,-0.311638 1.37279,-1.939669 1.348694,-2.012262 -0.0012,-0.0031 -0.09382,-0.06034 -0.103004,-0.06827 -0.02184,0.09688 -0.182812,0.325382 -0.785741,1.177413 -0.292985,0.414029 -0.566548,0.751157 -0.607268,0.749807 -0.09313,-0.0031 -5.404649,-3.911067 -5.489408,-4.038897 -0.04435,-0.06687 0.04906,-0.293625 0.323403,-0.78574 0.212342,-0.380864 0.424886,-0.733238 0.471923,-0.782146 0.0049,-0.0053 0.01944,-0.0036 0.02993,-0.0047 -0.0096,-0.0036 -0.09826,-0.0572 -0.10062,-0.0563 z m -1.177411,2.21229 c -0.135567,0.02973 -0.315567,0.37589 -1.246883,2.255409 -0.541342,1.092486 -0.89837,1.889682 -0.885156,1.977526 0.02251,0.149544 0.443929,0.360593 4.44854,2.226664 l 1.137886,0.530614 0.1593,-0.149722 c 0.08733,-0.0823 0.547704,-0.657258 1.024097,-1.278025 1.038323,-1.35303 1.062119,-1.374312 0.904319,-1.518779 -0.03324,0.106362 -0.511741,0.751045 -1.397798,1.874517 -0.326535,0.41403 -0.614714,0.750757 -0.639611,0.74861 -0.09367,-0.0079 -5.362494,-2.508745 -5.430712,-2.577611 -0.05065,-0.05115 0.221754,-0.659117 0.939054,-2.097305 0.716823,-1.437224 0.96956,-1.895829 1.080395,-1.96435 -0.0025,-0.0012 -0.03459,-0.0248 -0.03593,-0.02515 -0.01956,-0.0052 -0.03814,-0.0067 -0.05746,-0.0024 z m -2.332065,4.704858 c -0.135899,-0.0013 -1.241959,2.487185 -1.207358,2.716554 0.02397,0.159081 3.987495,2.942867 4.161073,2.922571 0.0632,-0.0074 0.660168,-0.663808 1.327134,-1.45889 0.66695,-0.795082 1.20367,-1.491789 1.192982,-1.547525 -6.15e-4,-0.004 -0.119918,-0.06234 -0.137745,-0.07426 -0.08074,0.139942 -0.504726,0.677158 -1.085184,1.364265 -0.64496,0.763444 -1.208933,1.386189 -1.254069,1.38343 -0.109245,-0.0065 -3.982147,-2.683432 -4.022132,-2.780036 -0.03932,-0.09501 0.945728,-2.323091 1.098363,-2.494965 -0.0075,-0.002 -0.06938,-0.03109 -0.07306,-0.03114 z m -1.354686,3.271124 c -0.154979,-0.0037 -0.204413,0.08853 -0.682733,1.27563 -0.283736,0.704191 -0.518419,1.373075 -0.521032,1.486439 -0.0061,0.254526 0.369349,0.899238 0.7546,1.29719 0.616455,0.636806 1.735797,0.983006 2.545271,0.785741 0.08305,-0.02023 0.529238,-0.46349 0.990562,-0.984571 0.928453,-1.048719 0.949507,-1.078152 0.883955,-1.178612 -0.0049,-0.0072 -0.08929,-0.06564 -0.105401,-0.08025 -0.07039,0.134896 -0.279818,0.388009 -0.761787,0.92588 -0.479618,0.535256 -0.920725,0.991857 -0.979775,1.014516 -0.05905,0.02265 -0.21715,0.03789 -0.352147,0.03354 -1.149416,-0.03685 -2.087674,-0.607016 -2.608756,-1.584655 l -0.217996,-0.409641 0.396467,-1.022898 c 0.405489,-1.046284 0.559545,-1.419249 0.661168,-1.557107 -1.34e-4,-8e-6 -0.0025,-0.0012 -0.0025,-0.0012 z m 6.357789,0.946242 c -0.105819,0.127085 -0.212114,0.252864 -0.318607,0.379695 0.120106,-0.141257 0.199591,-0.238895 0.318607,-0.379695 z m -3.40288,3.971821 c -0.119567,0.157595 -0.188687,0.264438 -0.178464,0.294655 0.01975,0.05839 0.111448,0.31908 0.202425,0.578519 0.320459,0.913882 0.407266,1.522198 0.406046,2.830352 -0.0012,1.515645 -0.138265,2.306964 -0.647996,3.739444 -0.07238,0.20341 -0.163152,0.40868 -0.252731,0.61446 0.203174,-0.43006 0.378738,-0.84948 0.507854,-1.24448 0.40821,-1.248871 0.536689,-2.065257 0.533009,-3.40049 -0.0036,-1.269944 -0.113385,-1.977498 -0.451562,-2.907001 -0.08292,-0.227933 -0.12638,-0.428277 -0.118581,-0.505459 z"
     id="path3375" /><path
     inkscape:connector-curvature="0"
     id="path3373"
     d="m 49.652668,111.82784 c -1.260527,-0.13761 -2.602059,-0.40807 -3.856484,-0.77749 -0.250045,-0.0737 -0.454628,-0.15633 -0.454628,-0.18377 0,-0.0273 0.280358,-0.2142 0.623011,-0.41509 3.339082,-1.95743 5.69258,-4.05844 7.012391,-6.26002 0.485732,-0.81026 1.117147,-2.23535 1.982653,-4.47479 1.634794,-4.229945 2.240304,-5.417177 3.502768,-6.867946 1.161215,-1.334416 3.036978,-2.634433 4.893562,-3.391547 0.749694,-0.305721 1.902666,-0.650885 2.391134,-0.715821 0.396106,-0.05267 0.385301,-0.03458 1.08521,-1.816513 1.237349,-3.150217 2.819245,-6.57243 4.352806,-9.416669 1.106728,-2.052598 1.54938,-2.803655 1.639479,-2.781725 0.06287,0.0153 6.030579,3.635824 7.221758,4.381339 0.305674,0.191307 0.353496,0.07608 -0.602503,1.451759 -1.993545,2.868701 -4.629885,6.171846 -7.360527,9.222219 -0.575735,0.643141 -1.072605,1.21552 -1.104152,1.271958 -0.03642,0.06517 0.0049,0.2912 0.112727,0.619478 0.334043,1.015037 0.414166,1.573741 0.412946,2.879479 -0.0012,1.518267 -0.139229,2.311465 -0.65086,3.746419 -0.404997,1.13586 -1.021932,2.21059 -2.479958,4.3202 -0.966144,1.39789 -3.03631,3.58131 -4.569565,4.81955 -2.188932,1.76773 -4.664634,3.09022 -7.10026,3.79282 -2.182037,0.62946 -4.754346,0.84694 -7.051505,0.59616 z M 70.156937,90.697217 c 0.05943,-0.02287 0.503037,-0.483348 0.985803,-1.023318 0.712119,-0.796494 0.861172,-0.997547 0.789873,-1.065446 -0.175189,-0.166835 -3.660639,-2.548023 -3.774539,-2.578683 -0.135127,-0.03637 -0.193454,0.08421 -0.801833,1.657516 l -0.399239,1.032445 0.219836,0.413382 c 0.524497,0.986252 1.46803,1.56054 2.624983,1.597722 0.13588,0.0044 0.295683,-0.01074 0.355116,-0.03362 z m 3.504894,-3.923868 c 0.649185,-0.770175 1.17026,-1.430861 1.157946,-1.46819 -0.03159,-0.0957 -5.240877,-2.54252 -5.335521,-2.506123 -0.101806,0.03916 -1.174291,2.465966 -1.133465,2.564797 0.04023,0.09745 3.938103,2.798221 4.048061,2.804843 0.04544,0.0028 0.613794,-0.625159 1.262979,-1.395327 z m 2.239175,-2.73425 c 0.923367,-1.17339 1.432951,-1.859126 1.432951,-1.928299 0,-0.07648 -5.30746,-4.004153 -5.467575,-4.046159 -0.0896,-0.0235 -0.324096,0.39441 -1.129946,2.013749 -0.722004,1.450854 -0.996052,2.064483 -0.945059,2.116083 0.06866,0.06947 5.372232,2.592129 5.466508,2.600161 0.02509,0.0021 0.314443,-0.337859 0.643121,-0.755535 z m 2.421214,-3.240143 c 0.916942,-1.298685 0.858933,-1.198839 0.754746,-1.298945 -0.05109,-0.04908 -1.422974,-0.899424 -3.04866,-1.889649 -2.437343,-1.48462 -2.970875,-1.784674 -3.041822,-1.710703 -0.04734,0.04933 -0.260912,0.40407 -0.474645,0.788289 -0.276157,0.49645 -0.370428,0.726051 -0.32579,0.793516 0.08531,0.128956 5.431743,4.071362 5.525491,4.074449 0.04097,0.0013 0.315774,-0.339282 0.61068,-0.756957 z"
     style="fill:#cccccc" /><path
     inkscape:connector-curvature="0"
     id="path3367"
     d="m 49.839953,111.89131 c -0.792364,-0.0802 -1.806213,-0.23907 -2.56445,-0.40164 -0.770819,-0.16526 -2.058311,-0.53565 -2.058311,-0.59213 0,-0.0237 0.316103,-0.30068 0.691728,-0.52785 3.216372,-1.94525 5.556479,-3.8138 6.867772,-5.93762 0.489682,-0.79311 1.044781,-1.95158 1.554205,-3.24358 1.725267,-4.375656 2.283507,-5.687661 2.420031,-5.687661 0.06392,0 0.18583,0.363636 0.606251,1.808271 0.375658,1.2908 0.824841,2.17532 1.312353,2.58419 0.399699,0.33523 0.89893,0.51419 1.424366,0.5106 0.660425,-0.004 1.226877,-0.16016 2.636597,-0.72438 1.451356,-0.58089 1.881601,-0.69918 2.543265,-0.69918 0.669351,0 1.054639,0.19097 1.631269,0.8085 0.639324,0.68467 1.149642,1.74661 1.292146,2.68883 0.03943,0.26045 0.02226,0.34484 -0.107888,0.53069 -0.390792,0.71073 -1.504743,1.8892 -2.413961,2.80798 -3.398545,3.43426 -7.202402,5.30618 -11.448821,5.95275 -1.013352,0.15429 -3.410939,0.22111 -4.386556,0.12223 z"
     style="fill:#fd1515"
     sodipodi:nodetypes="ssssssssscsssccsss" /><path
     style="opacity:1;fill:#999999;fill-opacity:1;stroke:#999999;stroke-width:0.55193466;stroke-miterlimit:4;stroke-dasharray:none;stroke-dashoffset:0;stroke-opacity:1"
     d="m 68.95592,90.779265 c -0.437923,-0.120767 -0.950261,-0.418751 -1.270597,-0.739002 -0.276581,-0.276505 -0.735508,-0.983428 -0.73714,-1.135479 -0.0018,-0.15852 0.997751,-2.591536 1.077077,-2.621976 0.123713,-0.04747 3.708019,2.376032 3.775963,2.553096 0.03692,0.09622 -0.25995,0.469844 -1.141481,1.436605 l -0.547936,0.600917 -0.428283,-0.0059 c -0.235553,-0.0032 -0.56298,-0.04296 -0.727603,-0.08835 z"
     id="path3389"
     inkscape:connector-curvature="0" /><path
     style="opacity:1;fill:#999999;fill-opacity:1;stroke:#999999;stroke-width:0.05846766;stroke-miterlimit:4;stroke-dasharray:none;stroke-dashoffset:0;stroke-opacity:1"
     d="m 71.16789,87.324254 c -1.562306,-1.070801 -2.641474,-1.840009 -2.728397,-1.944737 -0.05151,-0.06207 0.02534,-0.306918 0.295493,-0.94199 0.200801,-0.471972 0.451207,-1.028729 0.556461,-1.23724 0.178814,-0.354229 0.201941,-0.37509 0.352403,-0.317886 0.357342,0.135862 2.423577,1.0932 3.748778,1.736901 l 1.4089,0.684356 -0.365584,0.462419 c -0.532525,0.673584 -1.659734,1.99283 -1.880123,2.200435 l -0.18989,0.178879 -1.198041,-0.821137 z"
     id="path4199"
     inkscape:connector-curvature="0" /><path
     style="opacity:1;fill:#999999;fill-opacity:1;stroke:#999999;stroke-width:0.05846766;stroke-miterlimit:4;stroke-dasharray:none;stroke-dashoffset:0;stroke-opacity:1"
     d="m 73.737759,84.064248 c -2.545266,-1.203864 -3.930327,-1.884518 -3.930327,-1.931468 0,-0.08775 0.99255,-2.137829 1.41042,-2.913168 0.233223,-0.43274 0.467286,-0.868672 0.520149,-0.968734 0.116416,-0.220373 -0.07344,-0.330893 1.862822,1.084437 2.141814,1.565578 3.675321,2.728758 3.676462,2.788633 0.0012,0.06598 -1.485863,2.026558 -1.8089,2.384798 l -0.236454,0.262218 -1.494172,-0.706716 z"
     id="path4201"
     inkscape:connector-curvature="0" /><path
     style="opacity:1;fill:#999999;fill-opacity:1;stroke:#999999;stroke-width:0.11958584;stroke-miterlimit:4;stroke-dasharray:none;stroke-dashoffset:0;stroke-opacity:1"
     d="m 76.103639,80.37469 c -2.212419,-1.60518 -3.892538,-2.880961 -3.892538,-2.955764 0,-0.177646 0.765228,-1.487627 0.868181,-1.48623 0.170971,0.0023 6.018013,3.547686 6.018013,3.649034 0,0.0614 -1.131448,1.65863 -1.293992,1.826689 -0.108724,0.112398 -0.178189,0.07015 -1.699664,-1.033729 z"
     id="path4203"
     inkscape:connector-curvature="0" /></svg>