<?xml version="1.0" encoding="UTF-8" standalone="no"?>
<!-- Created with Inkscape (http://www.inkscape.org/) -->

<svg
   xmlns:dc="http://purl.org/dc/elements/1.1/"
   xmlns:cc="http://creativecommons.org/ns#"
   xmlns:rdf="http://www.w3.org/1999/02/22-rdf-syntax-ns#"
   xmlns:svg="http://www.w3.org/2000/svg"
   xmlns="http://www.w3.org/2000/svg"
   xmlns:xlink="http://www.w3.org/1999/xlink"
   xmlns:sodipodi="http://sodipodi.sourceforge.net/DTD/sodipodi-0.dtd"
   xmlns:inkscape="http://www.inkscape.org/namespaces/inkscape"
   width="48"
   height="48"
   id="svg5453"
   version="1.1"
   inkscape:version="0.91 r13725"
   sodipodi:docname="lastpass.svg">
  <defs
     id="defs5455">
    <linearGradient
       gradientTransform="matrix(1.4285711,0,0,1.4285711,-163.67328,-235.91309)"
       inkscape:collect="always"
       xlink:href="#linearGradient4435"
       id="linearGradient4274"
       x1="400.57138"
       y1="545.79797"
       x2="400.57138"
       y2="517.79797"
       gradientUnits="userSpaceOnUse" />
    <linearGradient
       id="linearGradient4435"
       inkscape:collect="always">
      <stop
         id="stop4437"
         offset="0"
         style="stop-color:#c61423;stop-opacity:1" />
      <stop
         id="stop4439"
         offset="1"
         style="stop-color:#dc2b41;stop-opacity:1" />
    </linearGradient>
  </defs>
  <sodipodi:namedview
     id="base"
     pagecolor="#ffffff"
     bordercolor="#666666"
     borderopacity="1.0"
     inkscape:pageopacity="0"
     inkscape:pageshadow="2"
     inkscape:zoom="4.3535668"
     inkscape:cx="-9.2080645"
     inkscape:cy="26.937222"
     inkscape:document-units="px"
     inkscape:current-layer="layer1"
     showgrid="true"
     fit-margin-top="0"
     fit-margin-left="0"
     fit-margin-right="0"
     fit-margin-bottom="0"
     inkscape:window-width="1366"
     inkscape:window-height="699"
     inkscape:window-x="0"
     inkscape:window-y="0"
     inkscape:window-maximized="1"
     inkscape:showpageshadow="false"
     borderlayer="true"
     showguides="true">
    <inkscape:grid
       type="xygrid"
       id="grid4063" />
    <sodipodi:guide
       position="1.1650391e-05,43.999996"
       orientation="-2.5000018e-07,1"
       id="guide4148" />
    <sodipodi:guide
       position="48.000012,43.999996"
       orientation="-4,0"
       id="guide4150" />
    <sodipodi:guide
       position="48.000012,47.999996"
       orientation="0,-48"
       id="guide4152" />
    <sodipodi:guide
       position="1.1650391e-05,4.0000264"
       orientation="4,0"
       id="guide4154" />
    <sodipodi:guide
       position="1.1650391e-05,2.6367188e-05"
       orientation="0,48"
       id="guide4156" />
    <sodipodi:guide
       position="48.000012,2.6367188e-05"
       orientation="-4,0"
       id="guide4158" />
    <sodipodi:guide
       position="48.000012,4.0000264"
       orientation="0,-48"
       id="guide4160" />
    <sodipodi:guide
       position="48.000012,48.000026"
       orientation="0,-4"
       id="guide4162" />
    <sodipodi:guide
       position="44.000012,48.000026"
       orientation="48,0"
       id="guide4164" />
    <sodipodi:guide
       position="44.000012,2.6367188e-05"
       orientation="0,4"
       id="guide4166" />
    <sodipodi:guide
       position="48.000012,2.6367188e-05"
       orientation="-48,0"
       id="guide4168" />
    <sodipodi:guide
       position="4.0000422,48.000026"
       orientation="0,-4"
       id="guide4170" />
    <sodipodi:guide
       position="4.2167969e-05,48.000026"
       orientation="48,0"
       id="guide4172" />
    <sodipodi:guide
       position="4.2167969e-05,2.6367188e-05"
       orientation="0,4"
       id="guide4174" />
    <sodipodi:guide
       position="4.0000422,2.6367188e-05"
       orientation="-48,0"
       id="guide4176" />
    <sodipodi:guide
       position="16.000012,32.000026"
       orientation="16,0"
       id="guide4288" />
    <sodipodi:guide
       position="16.000012,16.000026"
       orientation="0,16"
       id="guide4290" />
    <sodipodi:guide
       position="32.000012,16.000026"
       orientation="-16,0"
       id="guide4292" />
    <sodipodi:guide
       position="32.000012,32.000026"
       orientation="0,-16"
       id="guide4294" />
  </sodipodi:namedview>
  <metadata
     id="metadata5458">
    <rdf:RDF>
      <cc:Work
         rdf:about="">
        <dc:format>image/svg+xml</dc:format>
        <dc:type
           rdf:resource="http://purl.org/dc/dcmitype/StillImage" />
        <dc:title></dc:title>
      </cc:Work>
    </rdf:RDF>
  </metadata>
  <g
     inkscape:label="Capa 1"
     inkscape:groupmode="layer"
     id="layer1"
     transform="translate(-384.57143,-499.798)">
    <rect
       style="opacity:1;fill:url(#linearGradient4274);fill-opacity:1;stroke:none"
       id="rect4179"
       width="39.999947"
       height="39.999947"
       x="388.57144"
       y="503.798"
       ry="19.999973" />
    <path
       inkscape:connector-curvature="0"
       style="opacity:1;fill:#2c2e31;fill-opacity:0.23529412;stroke:none"
       d="m 388.58311,523.29795 c -0.004,0.16654 -0.0117,0.33244 -0.0117,0.5 0,11.08 8.92,20 20,20 11.08,0 20,-8.92 20,-20 0,-0.16756 -0.008,-0.33346 -0.0117,-0.5 -0.26467,10.84613 -9.07616,19.5 -19.98828,19.5 -10.91212,0 -19.72361,-8.65387 -19.98828,-19.5 z"
       id="rect4409" />
    <path
       style="fill:#ffffff;fill-opacity:1;stroke:none"
       d="m 404.54264,510.77164 c -0.1148,0 -4.627,2.6765 -4.80186,2.8494 -0.0935,0.093 -0.0731,0.1636 0.14277,0.5191 2.38363,3.9253 3.97098,6.6356 3.91668,6.6838 -0.0375,0.033 -1.47387,0.017 -3.19093,-0.037 -1.71706,-0.053 -3.51915,-0.1015 -4.00473,-0.1048 l -0.88279,0 -0.0428,2.8665 c -0.0264,1.6842 -0.0168,2.8947 0.0239,2.9372 0.0652,0.069 5.07521,-0.044 7.13378,-0.1608 0.70969,-0.04 0.86171,-0.028 0.89708,0.065 0.0242,0.065 -0.29748,0.6816 -0.74717,1.4333 -0.43448,0.7261 -1.36411,2.2797 -2.06542,3.4515 -0.7013,1.172 -1.25885,2.1724 -1.23972,2.223 0.0493,0.1308 4.62387,2.8127 4.80661,2.818 0.14081,0 1.18359,-1.8889 3.56452,-6.4694 0.17839,-0.3432 0.37467,-0.6239 0.43545,-0.6239 0.0676,0 0.769,1.258 1.80605,3.2371 2.14358,4.0907 2.08432,3.978 2.12491,3.978 0.0189,0 0.52206,-0.294 1.11837,-0.6507 0.59632,-0.3569 1.69088,-1.0083 2.43424,-1.4504 0.74336,-0.4421 1.35157,-0.8364 1.35157,-0.8752 0,-0.039 -0.70825,-1.254 -1.57524,-2.7007 -0.867,-1.447 -1.80668,-3.0163 -2.08922,-3.4882 -0.2887,-0.4823 -0.48669,-0.8884 -0.44972,-0.9263 0.037,-0.038 1.79233,-0.017 4.01424,0.048 2.1708,0.065 3.97645,0.093 4.01186,0.058 0.0861,-0.082 0.1372,-5.7573 0.0524,-5.8111 -0.0365,-0.023 -1.68918,0.011 -3.67159,0.076 -4.30781,0.14 -4.40448,0.141 -4.40448,0.037 0,-0.045 0.69236,-1.2295 1.53716,-2.6325 2.52246,-4.1893 2.64794,-4.4047 2.61271,-4.4632 -0.0185,-0.032 -0.45443,-0.3009 -0.96846,-0.6021 -0.51403,-0.3013 -1.59152,-0.9393 -2.39618,-1.4161 -0.80465,-0.4768 -1.49517,-0.8653 -1.53478,-0.8653 -0.0642,0 -1.59977,2.837 -3.25755,6.0231 -0.3922,0.7538 -0.63658,1.1438 -0.7091,1.131 -0.0609,-0.011 -0.95176,-1.6236 -1.97976,-3.5856 -1.06437,-2.0315 -1.91307,-3.568 -1.97261,-3.5685 z"
       id="rect3036"
       inkscape:connector-curvature="0" />
  </g>
</svg>
