<?xml version="1.0" encoding="UTF-8" standalone="no"?>
<!-- Created with Inkscape (http://www.inkscape.org/) -->

<svg
   xmlns:osb="http://www.openswatchbook.org/uri/2009/osb"
   xmlns:dc="http://purl.org/dc/elements/1.1/"
   xmlns:cc="http://creativecommons.org/ns#"
   xmlns:rdf="http://www.w3.org/1999/02/22-rdf-syntax-ns#"
   xmlns:svg="http://www.w3.org/2000/svg"
   xmlns="http://www.w3.org/2000/svg"
   xmlns:xlink="http://www.w3.org/1999/xlink"
   xmlns:sodipodi="http://sodipodi.sourceforge.net/DTD/sodipodi-0.dtd"
   xmlns:inkscape="http://www.inkscape.org/namespaces/inkscape"
   width="48"
   height="48"
   id="svg5453"
   version="1.1"
   inkscape:version="0.91 r13725"
   sodipodi:docname="mumble.svg"
   inkscape:export-filename="/home/phil/Projects/KDE/Konversation/new/Render/konversation 48x48.png"
   inkscape:export-xdpi="90"
   inkscape:export-ydpi="90"
   viewBox="0 0 48 48">
  <defs
     id="defs5455">
    <linearGradient
       id="linearGradient4207"
       osb:paint="gradient">
      <stop
         style="stop-color:#3498db;stop-opacity:1;"
         offset="0"
         id="stop3371" />
      <stop
         style="stop-color:#3498db;stop-opacity:0;"
         offset="1"
         id="stop3373" />
    </linearGradient>
    <linearGradient
       inkscape:collect="always"
       id="linearGradient4143">
      <stop
         style="stop-color:#197cf1;stop-opacity:1"
         offset="0"
         id="stop4145" />
      <stop
         style="stop-color:#20bcfa;stop-opacity:1"
         offset="1"
         id="stop4147" />
    </linearGradient>
    <linearGradient
       inkscape:collect="always"
       id="linearGradient4214">
      <stop
         style="stop-color:#2f74c8;stop-opacity:1"
         offset="0"
         id="stop4216" />
      <stop
         style="stop-color:#4699d7;stop-opacity:1"
         offset="1"
         id="stop4218" />
    </linearGradient>
    <linearGradient
       gradientTransform="matrix(-1,0,0,1,432.57143,499.798)"
       inkscape:collect="always"
       xlink:href="#linearGradient4214"
       id="linearGradient4416"
       x1="26"
       y1="43.999973"
       x2="26"
       y2="4"
       gradientUnits="userSpaceOnUse" />
    <linearGradient
       inkscape:collect="always"
       xlink:href="#linearGradient4143"
       id="linearGradient4149"
       x1="400.57144"
       y1="545.79797"
       x2="400.57144"
       y2="517.79797"
       gradientUnits="userSpaceOnUse"
       gradientTransform="matrix(0.92857108,0,0,0.92857057,28.612354,37.986142)" />
    <linearGradient
       inkscape:collect="always"
       id="linearGradient4290">
      <stop
         style="stop-color:#7cbaf8;stop-opacity:1"
         offset="0"
         id="stop4292" />
      <stop
         style="stop-color:#f4fcff;stop-opacity:1"
         offset="1"
         id="stop4294" />
    </linearGradient>
    <linearGradient
       inkscape:collect="always"
       xlink:href="#linearGradient4290"
       id="linearGradient3077"
       gradientUnits="userSpaceOnUse"
       gradientTransform="matrix(1.3793103,0,0,1.3793103,1.2413794,1005.6035)"
       x1="16"
       y1="29.999973"
       x2="16"
       y2="2" />
    <linearGradient
       inkscape:collect="always"
       xlink:href="#linearGradient4143"
       id="linearGradient3083"
       gradientUnits="userSpaceOnUse"
       gradientTransform="matrix(1.2807877,0,0,1.280787,-450.11598,346.31133)"
       x1="400.57144"
       y1="545.79797"
       x2="400.57144"
       y2="517.79797" />
    <linearGradient
       inkscape:collect="always"
       xlink:href="#linearGradient4290"
       id="linearGradient3870"
       gradientUnits="userSpaceOnUse"
       gradientTransform="matrix(1.3793103,0,0,1.3793103,-18.758621,1005.6035)"
       x1="16"
       y1="29.999973"
       x2="16"
       y2="2" />
    <clipPath
       id="clipPath-899682928">
      <g
         transform="translate(0,-1004.3622)"
         id="g17">
        <path
           style="fill:#1890d0"
           inkscape:connector-curvature="0"
           d="m -24,13 c 0,1.105 -0.672,2 -1.5,2 -0.828,0 -1.5,-0.895 -1.5,-2 0,-1.105 0.672,-2 1.5,-2 0.828,0 1.5,0.895 1.5,2 z"
           transform="matrix(15.333333,0,0,11.5,414.99999,878.8622)"
           id="path19" />
      </g>
    </clipPath>
  </defs>
  <sodipodi:namedview
     id="base"
     pagecolor="#ffffff"
     bordercolor="#666666"
     borderopacity="1.0"
     inkscape:pageopacity="0"
     inkscape:pageshadow="2"
     inkscape:zoom="9.5134105"
     inkscape:cx="15.444049"
     inkscape:cy="27.618757"
     inkscape:document-units="px"
     inkscape:current-layer="layer1"
     showgrid="true"
     fit-margin-top="0"
     fit-margin-left="0"
     fit-margin-right="0"
     fit-margin-bottom="0"
     inkscape:window-width="1366"
     inkscape:window-height="699"
     inkscape:window-x="0"
     inkscape:window-y="0"
     inkscape:window-maximized="1"
     inkscape:showpageshadow="false"
     borderlayer="true"
     showguides="false"
     inkscape:snap-bbox="true"
     inkscape:bbox-nodes="true"
     inkscape:object-nodes="true"
     inkscape:snap-nodes="true"
     inkscape:snap-others="false">
    <inkscape:grid
       type="xygrid"
       id="grid4063" />
    <sodipodi:guide
       position="1.1650391e-05,47.999996"
       orientation="4,0"
       id="guide4146" />
    <sodipodi:guide
       position="1.1650391e-05,43.999996"
       orientation="0,48"
       id="guide4148" />
    <sodipodi:guide
       position="48.000012,43.999996"
       orientation="-4,0"
       id="guide4150" />
    <sodipodi:guide
       position="48.000012,47.999996"
       orientation="0,-48"
       id="guide4152" />
    <sodipodi:guide
       position="1.1650391e-05,4.0000264"
       orientation="4,0"
       id="guide4154" />
    <sodipodi:guide
       position="1.1650391e-05,2.6367188e-05"
       orientation="0,48"
       id="guide4156" />
    <sodipodi:guide
       position="48.000012,2.6367188e-05"
       orientation="-4,0"
       id="guide4158" />
    <sodipodi:guide
       position="48.000012,4.0000264"
       orientation="0,-48"
       id="guide4160" />
    <sodipodi:guide
       position="48.000012,48.000026"
       orientation="0,-4"
       id="guide4162" />
    <sodipodi:guide
       position="44.000012,48.000026"
       orientation="48,0"
       id="guide4164" />
    <sodipodi:guide
       position="44.000012,2.6367188e-05"
       orientation="0,4"
       id="guide4166" />
    <sodipodi:guide
       position="48.000012,2.6367188e-05"
       orientation="-48,0"
       id="guide4168" />
    <sodipodi:guide
       position="4.0000422,48.000026"
       orientation="0,-4"
       id="guide4170" />
    <sodipodi:guide
       position="4.2167969e-05,48.000026"
       orientation="48,0"
       id="guide4172" />
    <sodipodi:guide
       position="4.2167969e-05,2.6367188e-05"
       orientation="0,4"
       id="guide4174" />
    <sodipodi:guide
       position="4,7"
       orientation="-48,0"
       id="guide4176" />
    <sodipodi:guide
       position="4.0000422,43.999996"
       orientation="29.999969,0"
       id="guide4437" />
    <sodipodi:guide
       position="4.0000422,14.000026"
       orientation="0,39.999969"
       id="guide4439" />
    <sodipodi:guide
       position="44.000012,14.000026"
       orientation="-29.999969,0"
       id="guide4441" />
    <sodipodi:guide
       position="44.000012,43.999996"
       orientation="0,-39.999969"
       id="guide4443" />
  </sodipodi:namedview>
  <metadata
     id="metadata5458">
    <rdf:RDF>
      <cc:Work
         rdf:about="">
        <dc:format>image/svg+xml</dc:format>
        <dc:type
           rdf:resource="http://purl.org/dc/dcmitype/StillImage" />
        <dc:title></dc:title>
      </cc:Work>
    </rdf:RDF>
  </metadata>
  <g
     inkscape:label="Capa 1"
     inkscape:groupmode="layer"
     id="layer1"
     transform="translate(-384.57143,-499.798)">
    <path
       inkscape:connector-curvature="0"
       style="fill:url(#linearGradient4416);fill-opacity:1;fill-rule:evenodd;stroke:none;stroke-width:1px;stroke-linecap:butt;stroke-linejoin:miter;stroke-opacity:1"
       d="m 428.57143,503.798 v 30 h -20 l -11,10 v -10 h -9 v -30 z"
       id="path4445-0" />
    <g
       transform="matrix(0.8077071,0,0,0.8077071,389.22968,499.03947)"
       clip-path="url(#clipPath-899682928)"
       id="g61"
       style="fill:#ffffff;fill-opacity:1">
      <!-- color: #dbcdd0 -->
      <g
         id="g63"
         style="fill:#ffffff;fill-opacity:1">
        <path
           style="fill:#ffffff;fill-opacity:1;fill-rule:evenodd;stroke:none"
           inkscape:connector-curvature="0"
           d="m 20.13,11.01 c -2.125,-0.047 -4.281,0.477 -4.816,2.473 -0.121,0.484 -0.309,1.484 -0.316,1.949 0,1.727 0,3.703 0,5.43 0.727,0 1.281,0 1.996,0 0.016,-1.82 -0.02,-3.602 0,-5.43 0.07,-1.156 1.691,-2.449 3,-2.441 0.016,1.852 -0.027,3.73 0,5.574 0.113,1.5 0.996,2.426 2.863,2.426 0.992,-0.02 1.996,0 2.984,0 1.508,-0.266 2.152,-1.523 2.152,-3 0,-1.648 0,-3.348 0,-5 1.371,-0.094 2.941,1.207 3,2.41 0.023,1.824 -0.008,3.578 0,5.387 0.719,0 1.281,0.074 2,0.074 0,-1.832 0,-3.633 0,-5.465 -0.07,-0.59 -0.273,-1.348 -0.613,-1.922 -0.883,-1.691 -2.945,-2.605 -4.891,-2.465 -0.566,-0.066 -1.344,0.293 -1.5,0.805 0.012,2.176 0.02,4.406 0,6.582 -0.063,0.91 -0.715,1.594 -1.996,1.594 -1.227,0 -1.238,-0.145 -1.695,-0.688 -0.305,-0.609 -0.27,-1.543 -0.305,-2.316 0,-1.766 -0.016,-3.426 0,-5.184 -0.602,-0.668 -1.125,-0.754 -1.867,-0.801 m 0,0.008"
           id="path65" />
        <path
           style="fill:#ffffff;fill-opacity:1;fill-rule:evenodd;stroke:none"
           inkscape:connector-curvature="0"
           d="m 32.609,33.13 c -0.063,0 -0.289,-0.043 -0.34,-0.012 0,0 -0.559,0.672 -0.867,0.887 -0.27,0.191 -0.52,0.734 -0.906,0.93 -0.148,0.074 -0.223,0.07 -0.496,0.07 l -3.422,0 0.027,1 2.969,0 c 0.066,0 0.273,0.02 0.41,-0.012 0.359,-0.078 0.605,-0.207 1.02,-0.438 0.438,-0.266 1.82,-1.832 1.82,-1.832 0.145,-0.09 0.184,-0.27 0.09,-0.402 l -0.043,-0.059 c -0.059,-0.086 -0.156,-0.129 -0.258,-0.133 m -0.004,0"
           id="path67" />
        <path
           style="fill:#ffffff;fill-opacity:1;fill-rule:evenodd;stroke:none"
           inkscape:connector-curvature="0"
           d="m 31.848,20.527 0,13.793 C 34.731,34.023 37,31.05 37,27.425 37,23.8 34.73,20.827 31.848,20.53 m 0,-0.004"
           id="path69" />
        <path
           style="fill:#ffffff;fill-opacity:1;fill-rule:evenodd;stroke:none"
           inkscape:connector-curvature="0"
           d="m 16.15,20.598 0,13.793 c -2.887,-0.297 -5.152,-3.27 -5.152,-6.895 0,-3.625 2.273,-6.598 5.152,-6.895 m 0,-0.004"
           id="path71" />
        <path
           style="fill:#ffffff;fill-opacity:1;fill-rule:evenodd;stroke:none"
           inkscape:connector-curvature="0"
           d="M 27,35.5 C 27,36.328 25.879,37 24.5,37 23.117,37 22,36.328 22,35.5 22,34.672 23.117,34 24.5,34 c 1.379,0 2.5,0.672 2.5,1.5 m 0,0"
           id="path73" />
        <path
           style="fill:#ffffff;fill-opacity:1;fill-rule:evenodd;stroke:none"
           inkscape:connector-curvature="0"
           d="m 31.363,20.305 0.773,0 c 0.199,0 0.363,0.129 0.363,0.285 l 0,13.43 c 0,0.16 -0.164,0.285 -0.363,0.285 l -0.773,0 C 31.164,34.305 31,34.18 31,34.02 l 0,-13.43 c 0,-0.156 0.164,-0.285 0.363,-0.285 m 0,0"
           id="path75" />
        <path
           style="fill:#ffffff;fill-opacity:1;fill-rule:evenodd;stroke:none"
           inkscape:connector-curvature="0"
           d="m 15.824,20.285 0.848,0 c 0.18,0 0.324,0.129 0.324,0.289 l 0,13.523 c 0,0.156 -0.145,0.285 -0.324,0.285 l -0.848,0 c -0.18,0 -0.324,-0.129 -0.324,-0.285 l 0,-13.523 c 0,-0.16 0.145,-0.289 0.324,-0.289 m 0,0"
           id="path77" />
      </g>
    </g>
  </g>
</svg>
