<?xml version="1.0" encoding="UTF-8" standalone="no"?>
<!-- Created with Inkscape (http://www.inkscape.org/) -->

<svg
   xmlns:dc="http://purl.org/dc/elements/1.1/"
   xmlns:cc="http://creativecommons.org/ns#"
   xmlns:rdf="http://www.w3.org/1999/02/22-rdf-syntax-ns#"
   xmlns:svg="http://www.w3.org/2000/svg"
   xmlns="http://www.w3.org/2000/svg"
   xmlns:xlink="http://www.w3.org/1999/xlink"
   xmlns:sodipodi="http://sodipodi.sourceforge.net/DTD/sodipodi-0.dtd"
   xmlns:inkscape="http://www.inkscape.org/namespaces/inkscape"
   width="48"
   height="48"
   id="svg5453"
   version="1.1"
   inkscape:version="0.91 r13725"
   sodipodi:docname="openarena.svg">
  <defs
     id="defs5455">
    <linearGradient
       inkscape:collect="always"
       xlink:href="#linearGradient5316"
       id="linearGradient4174"
       x1="409.57144"
       y1="543.79797"
       x2="409.57144"
       y2="503.798"
       gradientUnits="userSpaceOnUse"
       gradientTransform="translate(-5.9283447e-6,1.1108398e-5)" />
    <clipPath
       id="clipPath-498582375">
      <g
         transform="translate(0,-1004.3622)"
         id="g17">
        <path
           d="m -24,13 c 0,1.105 -0.672,2 -1.5,2 -0.828,0 -1.5,-0.895 -1.5,-2 0,-1.105 0.672,-2 1.5,-2 0.828,0 1.5,0.895 1.5,2 z"
           transform="matrix(15.333333,0,0,11.5,414.99999,878.8622)"
           id="path19"
           inkscape:connector-curvature="0"
           style="fill:#1890d0" />
      </g>
    </clipPath>
    <clipPath
       id="clipPath-493364142">
      <g
         transform="translate(0,-1004.3622)"
         id="g12">
        <path
           d="m -24,13 c 0,1.105 -0.672,2 -1.5,2 -0.828,0 -1.5,-0.895 -1.5,-2 0,-1.105 0.672,-2 1.5,-2 0.828,0 1.5,0.895 1.5,2 z"
           transform="matrix(15.333333,0,0,11.5,414.99999,878.8622)"
           id="path14"
           inkscape:connector-curvature="0"
           style="fill:#1890d0" />
      </g>
    </clipPath>
    <linearGradient
       id="linearGradient5316">
      <stop
         style="stop-color:#0c275c;stop-opacity:1"
         offset="0"
         id="stop5318" />
      <stop
         style="stop-color:#1072c0;stop-opacity:1"
         offset="1"
         id="stop5320" />
    </linearGradient>
    <linearGradient
       inkscape:collect="always"
       id="linearGradient4165">
      <stop
         style="stop-color:#1a232a;stop-opacity:1"
         offset="0"
         id="stop4167" />
      <stop
         style="stop-color:#8ea0b2;stop-opacity:1"
         offset="1"
         id="stop4169" />
    </linearGradient>
    <linearGradient
       inkscape:collect="always"
       xlink:href="#linearGradient4165"
       id="linearGradient4229"
       x1="11.005549"
       y1="24.009331"
       x2="37.010075"
       y2="24.009331"
       gradientUnits="userSpaceOnUse" />
    <linearGradient
       inkscape:collect="always"
       xlink:href="#linearGradient4165"
       id="linearGradient4231"
       gradientUnits="userSpaceOnUse"
       x1="-15.583607"
       y1="-28.49011"
       x2="32.031677"
       y2="31.929504" />
  </defs>
  <sodipodi:namedview
     id="base"
     pagecolor="#ffffff"
     bordercolor="#666666"
     borderopacity="1.0"
     inkscape:pageopacity="0"
     inkscape:pageshadow="2"
     inkscape:zoom="9.2757392"
     inkscape:cx="6.7738549"
     inkscape:cy="40.319416"
     inkscape:document-units="px"
     inkscape:current-layer="g51"
     showgrid="false"
     fit-margin-top="0"
     fit-margin-left="0"
     fit-margin-right="0"
     fit-margin-bottom="0"
     inkscape:window-width="1366"
     inkscape:window-height="699"
     inkscape:window-x="0"
     inkscape:window-y="0"
     inkscape:window-maximized="1"
     inkscape:showpageshadow="false"
     borderlayer="true"
     showguides="false">
    <inkscape:grid
       type="xygrid"
       id="grid4063" />
    <sodipodi:guide
       position="1.1650391e-05,47.999996"
       orientation="4,0"
       id="guide4146" />
    <sodipodi:guide
       position="1.1650391e-05,43.999996"
       orientation="0,48"
       id="guide4148" />
    <sodipodi:guide
       position="48.000012,43.999996"
       orientation="-4,0"
       id="guide4150" />
    <sodipodi:guide
       position="48.000012,47.999996"
       orientation="0,-48"
       id="guide4152" />
    <sodipodi:guide
       position="1.1650391e-05,4.0000264"
       orientation="4,0"
       id="guide4154" />
    <sodipodi:guide
       position="1.1650391e-05,2.6367188e-05"
       orientation="0,48"
       id="guide4156" />
    <sodipodi:guide
       position="48.000012,2.6367188e-05"
       orientation="-4,0"
       id="guide4158" />
    <sodipodi:guide
       position="48.000012,4.0000264"
       orientation="0,-48"
       id="guide4160" />
    <sodipodi:guide
       position="48.000012,48.000026"
       orientation="0,-4"
       id="guide4162" />
    <sodipodi:guide
       position="44.000012,48.000026"
       orientation="48,0"
       id="guide4164" />
    <sodipodi:guide
       position="44.000012,2.6367188e-05"
       orientation="0,4"
       id="guide4166" />
    <sodipodi:guide
       position="48.000012,2.6367188e-05"
       orientation="-48,0"
       id="guide4168" />
    <sodipodi:guide
       position="4.0000422,48.000026"
       orientation="0,-4"
       id="guide4170" />
    <sodipodi:guide
       position="4.2167969e-05,48.000026"
       orientation="48,0"
       id="guide4172" />
    <sodipodi:guide
       position="4.2167969e-05,2.6367188e-05"
       orientation="0,4"
       id="guide4174" />
    <sodipodi:guide
       position="4.0000422,2.6367188e-05"
       orientation="-48,0"
       id="guide4176" />
    <sodipodi:guide
       position="4.0000117,47.999996"
       orientation="43.999969,0"
       id="guide4638" />
    <sodipodi:guide
       position="4.0000117,4.0000264"
       orientation="0,20"
       id="guide4640" />
    <sodipodi:guide
       position="24.000012,4.0000264"
       orientation="-43.999969,0"
       id="guide4642" />
    <sodipodi:guide
       position="24.000012,47.999996"
       orientation="0,-20"
       id="guide4644" />
    <sodipodi:guide
       position="4.0000422,24.000026"
       orientation="20,0"
       id="guide4666" />
    <sodipodi:guide
       position="4.0000422,4.0000264"
       orientation="0,39.999969"
       id="guide4668" />
    <sodipodi:guide
       position="44.000012,4.0000264"
       orientation="-20,0"
       id="guide4670" />
    <sodipodi:guide
       position="44.000012,24.000026"
       orientation="0,-39.999969"
       id="guide4672" />
  </sodipodi:namedview>
  <metadata
     id="metadata5458">
    <rdf:RDF>
      <cc:Work
         rdf:about="">
        <dc:format>image/svg+xml</dc:format>
        <dc:type
           rdf:resource="http://purl.org/dc/dcmitype/StillImage" />
        <dc:title />
      </cc:Work>
    </rdf:RDF>
  </metadata>
  <g
     inkscape:label="Capa 1"
     inkscape:groupmode="layer"
     id="layer1"
     transform="translate(-384.57143,-499.798)">
    <rect
       style="opacity:1;fill:url(#linearGradient4174);fill-opacity:1.0;stroke:none;stroke-width:2.79999995;stroke-miterlimit:4;stroke-dasharray:none;stroke-opacity:0.55026455"
       id="rect4166"
       width="39.999989"
       height="39.999969"
       x="388.57144"
       y="503.798"
       ry="19.999985" />
    <path
       style="opacity:1;fill:#00236a;fill-opacity:1;stroke:none;stroke-width:2.79999995;stroke-miterlimit:4;stroke-dasharray:none;stroke-opacity:0.55026455"
       d="M 4.0117188 23.5 C 4.007647 23.666859 4 23.832126 4 24 C 4 35.079992 12.920008 44 24 44 C 35.079992 44 44 35.079992 44 24 C 44 23.832126 43.992353 23.666859 43.988281 23.5 C 43.724099 34.346571 34.912435 43 24 43 C 13.087565 43 4.2759007 34.346571 4.0117188 23.5 z "
       transform="translate(384.57143,499.798)"
       id="rect4775" />
    <g
       id="g47"
       transform="matrix(0.95282856,0,0,0.95282856,386.01609,500.92175)"
       style="fill:url(#linearGradient4229);fill-opacity:1.0">
      <g
         clip-path="url(#clipPath-498582375)"
         id="g49"
         style="fill:url(#linearGradient4229);fill-opacity:1.0">
        <!-- color: #62bed6 -->
        <g
           id="g51"
           style="fill:url(#linearGradient4229);fill-opacity:1.0">
          <path
             d="M 22.648,31.961 21.32,29.84 22.578,27.77 c 0.695,-1.141 1.297,-2.137 1.34,-2.211 0.051,-0.094 0.527,0.602 1.41,2.051 0.73,1.203 1.328,2.207 1.328,2.234 0,0.063 -2.508,4.066 -2.613,4.164 -0.035,0.039 -0.668,-0.883 -1.398,-2.047 m -6.941,1.109 -1.648,-0.809 0.688,-1.281 c 0.379,-0.707 0.648,-1.316 0.605,-1.355 -0.051,-0.039 -0.457,-0.34 -0.906,-0.66 -4.883,-3.547 -4.516,-9.32 0.797,-12.66 4.414,-2.766 11.316,-3.07 16.207,-0.707 2.406,1.164 4.03,2.664 4.926,4.57 0.457,0.973 0.625,1.68 0.637,2.68 0.012,2.551 -1.461,4.93 -4.148,6.684 L 32.6,29.7 l 0.633,1.195 c 0.348,0.656 0.648,1.23 0.66,1.273 0.035,0.078 -3.246,1.719 -3.438,1.719 -0.047,0 -1.504,-2.652 -3.227,-5.898 -1.73,-3.246 -3.172,-5.898 -3.211,-5.898 -0.035,0 -1.48,2.641 -3.207,5.875 -1.832,3.434 -3.207,5.883 -3.297,5.895 -0.086,0.023 -0.898,-0.34 -1.813,-0.785 m 4.445,-11.965 c 1.613,-2.957 2.91,-5.395 2.891,-5.418 -0.02,-0.02 -0.477,0.023 -1.02,0.082 -7.086,0.875 -10.668,5.48 -7.086,9.148 0.707,0.723 2.113,1.715 2.25,1.59 0.016,-0.02 1.352,-2.449 2.965,-5.402 m 12.07,4.578 c 1.188,-0.844 2.02,-2.059 2.207,-3.215 0.496,-3.105 -2.965,-5.938 -8.137,-6.66 -0.664,-0.09 -1.23,-0.145 -1.262,-0.117 -0.047,0.043 4.238,8.02 5.496,10.23 l 0.363,0.641 0.336,-0.199 c 0.184,-0.105 0.633,-0.418 0.996,-0.68 m 0,0"
             id="path53"
             inkscape:connector-curvature="0"
             style="fill:url(#linearGradient4231);fill-opacity:1;fill-rule:nonzero;stroke:none" />
        </g>
      </g>
    </g>
  </g>
</svg>
