<?xml version="1.0" encoding="UTF-8" standalone="no"?>
<svg
   xmlns:dc="http://purl.org/dc/elements/1.1/"
   xmlns:cc="http://creativecommons.org/ns#"
   xmlns:rdf="http://www.w3.org/1999/02/22-rdf-syntax-ns#"
   xmlns:svg="http://www.w3.org/2000/svg"
   xmlns="http://www.w3.org/2000/svg"
   xmlns:xlink="http://www.w3.org/1999/xlink"
   xmlns:sodipodi="http://sodipodi.sourceforge.net/DTD/sodipodi-0.dtd"
   xmlns:inkscape="http://www.inkscape.org/namespaces/inkscape"
   id="svg2"
   height="48"
   version="1.1"
   width="48"
   inkscape:version="0.91 r13725"
   sodipodi:docname="openbravo-erp.svg">
  <sodipodi:namedview
     pagecolor="#ffffff"
     bordercolor="#666666"
     borderopacity="1"
     objecttolerance="10"
     gridtolerance="10"
     guidetolerance="10"
     inkscape:pageopacity="0"
     inkscape:pageshadow="2"
     inkscape:window-width="1366"
     inkscape:window-height="699"
     id="namedview15"
     showgrid="false"
     inkscape:zoom="4.5905223"
     inkscape:cx="9.6263866"
     inkscape:cy="32.135593"
     inkscape:window-x="0"
     inkscape:window-y="0"
     inkscape:window-maximized="1"
     inkscape:current-layer="layer1" />
  <defs
     id="defs5455">
    <linearGradient
       gradientUnits="userSpaceOnUse"
       x2="0"
       y2="503.798"
       y1="543.79797"
       id="linearGradient4174"
       xlink:href="#linearGradient4303" />
    <linearGradient
       id="linearGradient4303">
      <stop
         id="stop4305"
         style="stop-color:#c6cdd1" />
      <stop
         id="stop4307"
         style="stop-color:#e0e5e7"
         offset="1" />
    </linearGradient>
    <clipPath
       id="clipPath-790372096">
      <g
         transform="translate(0,-1004.3622)"
         id="g17">
        <path
           inkscape:connector-curvature="0"
           d="m -24,13 c 0,1.105 -0.672,2 -1.5,2 -0.828,0 -1.5,-0.895 -1.5,-2 0,-1.105 0.672,-2 1.5,-2 0.828,0 1.5,0.895 1.5,2 z"
           transform="matrix(15.333333,0,0,11.5,414.99999,878.8622)"
           style="fill:#1890d0"
           id="path19" />
      </g>
    </clipPath>
    <linearGradient
       id="linearGradient4422">
      <stop
         style="stop-color:#30cf41;stop-opacity:1"
         offset="0"
         id="stop4424" />
      <stop
         style="stop-color:#47f383;stop-opacity:1"
         offset="1"
         id="stop4426" />
    </linearGradient>
    <linearGradient
       id="linearGradient4232">
      <stop
         id="stop4234-0"
         offset="0"
         style="stop-color:#3889e9;stop-opacity:1" />
      <stop
         id="stop4236"
         offset="1"
         style="stop-color:#5ea5fb;stop-opacity:1" />
    </linearGradient>
    <linearGradient
       inkscape:collect="always"
       xlink:href="#0"
       id="linearGradient4205"
       x1="388.57144"
       y1="523.79797"
       x2="428.57144"
       y2="523.79797"
       gradientUnits="userSpaceOnUse" />
    <linearGradient
       xlink:href="#linearGradient5617"
       id="2"
       x1="375.73001"
       y1="576.15997"
       x2="376.76001"
       y2="536.29999"
       gradientUnits="userSpaceOnUse"
       gradientTransform="matrix(0.82410188,0,0,0.8223104,97.996409,67.628495)" />
    <linearGradient
       id="1">
      <stop
         stop-color="#981fe7"
         id="stop10" />
      <stop
         offset="1"
         stop-color="#db50c8"
         id="stop12" />
    </linearGradient>
    <linearGradient
       id="linearGradient5617">
      <stop
         style="stop-color:#9559b6;stop-opacity:1;"
         offset="0"
         id="stop5619" />
      <stop
         id="stop5621"
         offset="1"
         style="stop-color:#8e44ad;stop-opacity:1;" />
    </linearGradient>
    <linearGradient
       gradientTransform="matrix(0.84791671,0,0,0.84791671,360.28014,473.81066)"
       y2="36.609001"
       x2="56.818001"
       y1="81.489998"
       x1="56.580002"
       gradientUnits="userSpaceOnUse"
       id="1-4">
      <stop
         stop-color="#00a661"
         id="stop20" />
      <stop
         stop-color="#37ce97"
         offset="1"
         id="stop22" />
    </linearGradient>
    <linearGradient
       id="0"
       y1="1045.87"
       x2="0"
       y2="1006.87"
       gradientUnits="userSpaceOnUse"
       gradientTransform="matrix(2.9898306,0,0,2.9898306,272.24553,-2578.79)">
      <stop
         stop-color="#d3d3d3"
         id="stop7" />
      <stop
         offset="1"
         stop-color="#fcf9f9"
         id="stop9" />
    </linearGradient>
  </defs>
  <metadata
     id="metadata5458">
    <rdf:RDF>
      <cc:Work
         rdf:about="">
        <dc:format>image/svg+xml</dc:format>
        <dc:type
           rdf:resource="http://purl.org/dc/dcmitype/StillImage" />
        <dc:title></dc:title>
      </cc:Work>
    </rdf:RDF>
  </metadata>
  <g
     transform="matrix(1 0 0 1 -384.57143 -499.798)"
     id="layer1">
    <rect
       id="rect4166"
       style="stroke-opacity:0.550265;fill:url(#linearGradient4205);stroke-width:2.8;fill-opacity:1.0;opacity:0.9"
       height="39.999969"
       rx="19.999985"
       y="503.798"
       x="388.57144"
       width="39.999989" />
    <path
       transform="matrix(1 0 0 1 384.57143 499.798)"
       d="M 4.0117188 23.5 C 4.007647 23.666859 4 23.832126 4 24 C 4 35.079992 12.920008 44 24 44 C 35.079992 44 44 35.079992 44 24 C 44 23.832126 43.992353 23.666859 43.988281 23.5 C 43.724099 34.346571 34.912435 43 24 43 C 13.087565 43 4.2759007 34.346571 4.0117188 23.5 z "
       id="rect4775"
       style="stroke-opacity:0.550265;fill:#000000;stroke-width:2.8;fill-opacity:1;opacity:0.15" />
    <path
       d="m 408.6453,507.76972 c -1.73991,0 -3.4171,0.27981 -4.98659,0.7945 l 0,15.16245 c 0,2.75404 2.23257,4.9866 4.98659,4.9866 2.75404,0 4.98661,-2.23256 4.98661,-4.9866 0,-2.75404 -2.23257,-4.9866 -4.98661,-4.9866 l 0,-4.9866 c 5.50808,0 9.9732,4.46513 9.9732,9.9732 0,5.50806 -4.46512,9.9732 -9.9732,9.9732 -5.50806,0 -9.97319,-4.46514 -9.97319,-9.9732 l 0,-12.45082 c -3.64519,2.92447 -5.98629,7.41334 -5.98629,12.45082 0,8.81239 7.1437,15.95694 15.95695,15.95694 8.81239,0 15.95694,-7.1437 15.95694,-15.95694 0,-8.8124 -7.1437,-15.95695 -15.95694,-15.95695"
       id="path28"
       inkscape:connector-curvature="0"
       style="color:#000000;fill:url(#1-4);stroke:none;stroke-width:0.94099998;stroke-linecap:round;stroke-linejoin:round" />
  </g>
</svg>
