<?xml version="1.0" encoding="UTF-8" standalone="no"?>
<svg
   xmlns:dc="http://purl.org/dc/elements/1.1/"
   xmlns:cc="http://creativecommons.org/ns#"
   xmlns:rdf="http://www.w3.org/1999/02/22-rdf-syntax-ns#"
   xmlns:svg="http://www.w3.org/2000/svg"
   xmlns="http://www.w3.org/2000/svg"
   xmlns:xlink="http://www.w3.org/1999/xlink"
   xmlns:sodipodi="http://sodipodi.sourceforge.net/DTD/sodipodi-0.dtd"
   xmlns:inkscape="http://www.inkscape.org/namespaces/inkscape"
   id="svg2"
   height="48"
   version="1.1"
   width="48"
   inkscape:version="0.91 r13725"
   sodipodi:docname="spotify.svg">
  <sodipodi:namedview
     pagecolor="#ffffff"
     bordercolor="#666666"
     borderopacity="1"
     objecttolerance="10"
     gridtolerance="10"
     guidetolerance="10"
     inkscape:pageopacity="0"
     inkscape:pageshadow="2"
     inkscape:window-width="1366"
     inkscape:window-height="699"
     id="namedview15"
     showgrid="false"
     inkscape:zoom="4.9166667"
     inkscape:cx="-13.728814"
     inkscape:cy="30.278116"
     inkscape:window-x="0"
     inkscape:window-y="0"
     inkscape:window-maximized="1"
     inkscape:current-layer="layer1" />
  <defs
     id="defs5455">
    <linearGradient
       gradientUnits="userSpaceOnUse"
       x2="0"
       y2="503.798"
       y1="543.79797"
       id="linearGradient4174"
       xlink:href="#linearGradient4303" />
    <linearGradient
       id="linearGradient4303">
      <stop
         id="stop4305"
         style="stop-color:#c6cdd1" />
      <stop
         id="stop4307"
         style="stop-color:#e0e5e7"
         offset="1" />
    </linearGradient>
    <clipPath
       id="clipPath-790372096">
      <g
         transform="translate(0,-1004.3622)"
         id="g17">
        <path
           inkscape:connector-curvature="0"
           d="m -24,13 c 0,1.105 -0.672,2 -1.5,2 -0.828,0 -1.5,-0.895 -1.5,-2 0,-1.105 0.672,-2 1.5,-2 0.828,0 1.5,0.895 1.5,2 z"
           transform="matrix(15.333333,0,0,11.5,414.99999,878.8622)"
           style="fill:#1890d0"
           id="path19" />
      </g>
    </clipPath>
    <linearGradient
       id="linearGradient4422">
      <stop
         style="stop-color:#30cf41;stop-opacity:1"
         offset="0"
         id="stop4424" />
      <stop
         style="stop-color:#47f383;stop-opacity:1"
         offset="1"
         id="stop4426" />
    </linearGradient>
    <linearGradient
       id="linearGradient4232">
      <stop
         id="stop4234-0"
         offset="0"
         style="stop-color:#3889e9;stop-opacity:1" />
      <stop
         id="stop4236"
         offset="1"
         style="stop-color:#5ea5fb;stop-opacity:1" />
    </linearGradient>
    <linearGradient
       inkscape:collect="always"
       xlink:href="#linearGradient4298"
       id="linearGradient4205"
       x1="388.57144"
       y1="523.79797"
       x2="428.57144"
       y2="523.79797"
       gradientUnits="userSpaceOnUse" />
    <linearGradient
       id="linearGradient4298"
       inkscape:collect="always">
      <stop
         id="stop4300"
         offset="0"
         style="stop-color:#42a603;stop-opacity:1" />
      <stop
         id="stop4302"
         offset="1"
         style="stop-color:#78da06;stop-opacity:1" />
    </linearGradient>
    <linearGradient
       inkscape:collect="always"
       id="linearGradient4331">
      <stop
         style="stop-color:#bcfd93;stop-opacity:1"
         offset="0"
         id="stop4333" />
      <stop
         style="stop-color:#edffda;stop-opacity:1"
         offset="1"
         id="stop4335" />
    </linearGradient>
    <linearGradient
       inkscape:collect="always"
       xlink:href="#linearGradient4331"
       id="linearGradient4206"
       x1="394.46417"
       y1="524.20477"
       x2="424.71259"
       y2="524.20477"
       gradientUnits="userSpaceOnUse"
       gradientTransform="matrix(0.90586419,0,0,0.90586419,37.946766,48.838888)" />
  </defs>
  <metadata
     id="metadata5458">
    <rdf:RDF>
      <cc:Work
         rdf:about="">
        <dc:format>image/svg+xml</dc:format>
        <dc:type
           rdf:resource="http://purl.org/dc/dcmitype/StillImage" />
        <dc:title></dc:title>
      </cc:Work>
    </rdf:RDF>
  </metadata>
  <g
     transform="matrix(1 0 0 1 -384.57143 -499.798)"
     id="layer1">
    <rect
       id="rect4166"
       style="stroke-opacity:0.550265;fill:url(#linearGradient4205);stroke-width:2.8;fill-opacity:1.0;opacity:0.9"
       height="39.999969"
       rx="19.999985"
       y="503.798"
       x="388.57144"
       width="39.999989" />
    <path
       d="M 4.0117188 23.5 C 4.007647 23.666859 4 23.832126 4 24 C 4 35.079992 12.920008 44 24 44 C 35.079992 44 44 35.079992 44 24 C 44 23.832126 43.992353 23.666859 43.988281 23.5 C 43.724099 34.346571 34.912435 43 24 43 C 13.087565 43 4.2759007 34.346571 4.0117188 23.5 z "
       id="rect4775"
       style="stroke-opacity:0.550265;fill:#62b33c;stroke-width:2.8;fill-opacity:1"
       transform="matrix(1 0 0 1 384.57143 499.798)" />
    <path
       inkscape:connector-curvature="0"
       id="path2990"
       d="m 414.69718,531.88336 c -1.89258,-0.945 -3.70942,-1.50084 -6.00591,-1.83755 -0.72889,-0.10689 -1.48603,-0.14204 -3.06533,-0.14231 -2.22753,0 -3.36685,0.0969 -5.56987,0.47603 -0.79364,0.1367 -1.21925,0.17583 -1.38713,0.12764 -1.00289,-0.28762 -1.22027,-1.29983 -0.42318,-1.97044 0.49556,-0.41706 2.14038,-0.76473 4.63753,-0.98033 4.69112,-0.40501 9.13342,0.33599 12.49797,2.08476 1.90374,0.98948 2.42955,2.05477 1.33633,2.70763 -0.15528,0.0927 -0.39123,0.16686 -0.52433,0.16468 -0.13402,0 -0.8016,-0.28326 -1.49608,-0.63011 z m 2.7464,-4.74084 c -2.60472,-1.41125 -5.15415,-2.18993 -8.59098,-2.62429 -1.03542,-0.13081 -4.86104,-0.13126 -6.09031,0 -1.41236,0.15001 -2.86406,0.33263 -3.67497,0.46235 -0.99209,0.15862 -1.43252,0.14829 -1.80678,-0.0426 -0.61772,-0.31515 -0.85775,-0.93358 -0.61204,-1.57692 0.30668,-0.80305 1.26977,-1.19167 3.87545,-1.56362 4.94663,-0.70612 9.45178,-0.44994 13.48759,0.76709 1.8239,0.55004 3.74317,1.43226 4.78822,2.20098 1.22102,0.89825 1.38776,1.89996 0.41858,2.51459 -0.56119,0.35582 -0.93845,0.32719 -1.79476,-0.1367 z m 2.5685,-5.47514 c -3.37775,-1.82667 -6.48199,-2.76361 -10.87715,-3.28276 -1.17581,-0.13896 -4.9643,-0.11187 -6.53398,0.0462 -1.54405,0.1559 -3.23786,0.39287 -4.42059,0.61834 -1.42929,0.27258 -1.95019,0.17619 -2.53101,-0.46797 -0.72456,-0.80368 -0.35798,-1.92441 0.82474,-2.52138 0.76535,-0.38644 2.29409,-0.70458 4.91687,-1.02344 1.71441,-0.20844 6.95287,-0.20609 8.67164,0 4.44495,0.54297 8.54628,1.82459 10.99363,3.43539 1.41711,0.93277 1.91766,1.85313 1.45529,2.67575 -0.2722,0.48427 -0.97486,0.8795 -1.56364,0.8795 -0.15856,0 -0.53015,-0.14439 -0.9358,-0.36389 z"
       style="fill:url(#linearGradient4206);fill-opacity:1"
       sodipodi:nodetypes="ccccccssccccccccsscccccccccccsccsscc" />
  </g>
</svg>
