<?xml version="1.0" encoding="UTF-8" standalone="no"?>
<!-- Created with Inkscape (http://www.inkscape.org/) -->

<svg
   xmlns:dc="http://purl.org/dc/elements/1.1/"
   xmlns:cc="http://creativecommons.org/ns#"
   xmlns:rdf="http://www.w3.org/1999/02/22-rdf-syntax-ns#"
   xmlns:svg="http://www.w3.org/2000/svg"
   xmlns="http://www.w3.org/2000/svg"
   xmlns:xlink="http://www.w3.org/1999/xlink"
   xmlns:sodipodi="http://sodipodi.sourceforge.net/DTD/sodipodi-0.dtd"
   xmlns:inkscape="http://www.inkscape.org/namespaces/inkscape"
   width="48"
   version="1.1"
   height="48"
   id="svg2"
   inkscape:version="0.91 r13725"
   sodipodi:docname="tomahawk.svg">
  <sodipodi:namedview
     pagecolor="#ffffff"
     bordercolor="#666666"
     borderopacity="1"
     objecttolerance="10"
     gridtolerance="10"
     guidetolerance="10"
     inkscape:pageopacity="0"
     inkscape:pageshadow="2"
     inkscape:window-width="1366"
     inkscape:window-height="699"
     id="namedview31"
     showgrid="false"
     inkscape:zoom="9.1895868"
     inkscape:cx="10.472807"
     inkscape:cy="22.86826"
     inkscape:window-x="0"
     inkscape:window-y="0"
     inkscape:window-maximized="1"
     inkscape:current-layer="layer1" />
  <defs
     id="defs5455">
    <linearGradient
       inkscape:collect="always"
       id="linearGradient4116">
      <stop
         style="stop-color:#970000;stop-opacity:1"
         offset="0"
         id="stop4118" />
      <stop
         style="stop-color:#fd3232;stop-opacity:1"
         offset="1"
         id="stop4120" />
    </linearGradient>
    <linearGradient
       inkscape:collect="always"
       xlink:href="#linearGradient4116"
       id="linearGradient4156"
       x1="396.66501"
       y1="508.78754"
       x2="421.66058"
       y2="536.10107"
       gradientUnits="userSpaceOnUse" />
  </defs>
  <metadata
     id="metadata5458">
    <rdf:RDF>
      <cc:Work
         rdf:about="">
        <dc:format>image/svg+xml</dc:format>
        <dc:type
           rdf:resource="http://purl.org/dc/dcmitype/StillImage" />
        <dc:title />
      </cc:Work>
    </rdf:RDF>
  </metadata>
  <g
     inkscape:label="Capa 1"
     inkscape:groupmode="layer"
     id="layer1"
     transform="matrix(1 0 0 1 -384.57143 -499.798)">
    <rect
       width="39.999989"
       x="388.57144"
       y="503.798"
       rx="19.999985"
       height="39.999969"
       style="stroke-opacity:0.550265;fill:#f0f0f0;stroke-width:2.8;fill-opacity:1;opacity:1"
       id="rect4166" />
    <path
       style="stroke-opacity:0.550265;fill:#e6e6e6;stroke-width:2.8;fill-opacity:1"
       id="rect4775"
       d="M 4.0117188 23.5 C 4.007647 23.666859 4 23.832126 4 24 C 4 35.079992 12.920008 44 24 44 C 35.079992 44 44 35.079992 44 24 C 44 23.832126 43.992353 23.666859 43.988281 23.5 C 43.724099 34.346571 34.912435 43 24 43 C 13.087565 43 4.2759007 34.346571 4.0117188 23.5 z "
       transform="matrix(1 0 0 1 384.57143 499.798)" />
    <path
       style="fill:url(#linearGradient4156);fill-opacity:1;stroke:none;stroke-width:4.7809124"
       d="m 408.56427,504.50556 c -10.4199,0 -18.86369,8.44387 -18.86369,18.86371 0,10.41982 8.44379,18.86369 18.86369,18.86369 10.41989,0 18.86371,-8.44387 18.86371,-18.86369 0,-10.41984 -8.44382,-18.86371 -18.86371,-18.86371 z m 0,4.06488 c 8.17492,0 14.7988,6.62382 14.7988,14.79883 0,5.1495 -2.61676,9.67108 -6.60547,12.32188 l 0,-21.27742 -5.20816,0 0,6.98661 -3.84261,-2.50883 -6.79601,-4.38252 0,8.79663 0,8.79691 6.79601,-4.3825 3.84261,-2.50883 0,12.67114 c -0.96348,0.19696 -1.96329,0.28576 -2.98517,0.28576 -8.1749,0 -14.79879,-6.62383 -14.79879,-14.79883 0,-8.17501 6.62389,-14.79883 14.79879,-14.79883 z"
       id="path893"
       inkscape:connector-curvature="0" />
  </g>
</svg>
