<?xml version="1.0" encoding="UTF-8" standalone="no"?>
<!-- Created with Inkscape (http://www.inkscape.org/) -->

<svg
   xmlns:dc="http://purl.org/dc/elements/1.1/"
   xmlns:cc="http://creativecommons.org/ns#"
   xmlns:rdf="http://www.w3.org/1999/02/22-rdf-syntax-ns#"
   xmlns:svg="http://www.w3.org/2000/svg"
   xmlns="http://www.w3.org/2000/svg"
   xmlns:xlink="http://www.w3.org/1999/xlink"
   xmlns:sodipodi="http://sodipodi.sourceforge.net/DTD/sodipodi-0.dtd"
   xmlns:inkscape="http://www.inkscape.org/namespaces/inkscape"
   width="48"
   height="48"
   id="svg5453"
   version="1.1"
   inkscape:version="0.91 r13725"
   sodipodi:docname="trojita2.svg">
  <defs
     id="defs5455">
    <linearGradient
       inkscape:collect="always"
       id="linearGradient4903">
      <stop
         style="stop-color:#eef1f2;stop-opacity:1"
         offset="0"
         id="stop4905" />
      <stop
         style="stop-color:#f9fafb;stop-opacity:1"
         offset="1"
         id="stop4907" />
    </linearGradient>
    <linearGradient
       inkscape:collect="always"
       xlink:href="#linearGradient4903"
       id="linearGradient4486"
       x1="25"
       y1="43.999973"
       x2="25"
       y2="20"
       gradientUnits="userSpaceOnUse" />
    <linearGradient
       inkscape:collect="always"
       id="linearGradient4227">
      <stop
         style="stop-color:#292c2f;stop-opacity:1"
         offset="0"
         id="stop4229" />
      <stop
         style="stop-color:#000000;stop-opacity:0;"
         offset="1"
         id="stop4231" />
    </linearGradient>
    <linearGradient
       inkscape:collect="always"
       xlink:href="#linearGradient4227"
       id="linearGradient4755"
       x1="414.57144"
       y1="511.798"
       x2="422.57144"
       y2="519.79797"
       gradientUnits="userSpaceOnUse" />
  </defs>
  <sodipodi:namedview
     id="base"
     pagecolor="#ffffff"
     bordercolor="#666666"
     borderopacity="1.0"
     inkscape:pageopacity="0"
     inkscape:pageshadow="2"
     inkscape:zoom="5.656854"
     inkscape:cx="-14.654813"
     inkscape:cy="22.224989"
     inkscape:document-units="px"
     inkscape:current-layer="layer1"
     showgrid="true"
     fit-margin-top="0"
     fit-margin-left="0"
     fit-margin-right="0"
     fit-margin-bottom="0"
     inkscape:window-width="1366"
     inkscape:window-height="699"
     inkscape:window-x="0"
     inkscape:window-y="0"
     inkscape:window-maximized="1"
     inkscape:showpageshadow="false"
     borderlayer="true"
     showguides="true">
    <inkscape:grid
       type="xygrid"
       id="grid4063" />
    <sodipodi:guide
       position="1.1650391e-05,47.999996"
       orientation="4,0"
       id="guide4146" />
    <sodipodi:guide
       position="1.1650391e-05,43.999996"
       orientation="0,48"
       id="guide4148" />
    <sodipodi:guide
       position="48.000012,43.999996"
       orientation="-4,0"
       id="guide4150" />
    <sodipodi:guide
       position="48.000012,47.999996"
       orientation="0,-48"
       id="guide4152" />
    <sodipodi:guide
       position="1.1650391e-05,4.0000264"
       orientation="4,0"
       id="guide4154" />
    <sodipodi:guide
       position="1.1650391e-05,2.6367188e-05"
       orientation="0,48"
       id="guide4156" />
    <sodipodi:guide
       position="48.000012,2.6367188e-05"
       orientation="-4,0"
       id="guide4158" />
    <sodipodi:guide
       position="48.000012,4.0000264"
       orientation="0,-48"
       id="guide4160" />
    <sodipodi:guide
       position="48.000012,48.000026"
       orientation="0,-4"
       id="guide4162" />
    <sodipodi:guide
       position="44.000012,48.000026"
       orientation="48,0"
       id="guide4164" />
    <sodipodi:guide
       position="44.000012,2.6367188e-05"
       orientation="0,4"
       id="guide4166" />
    <sodipodi:guide
       position="48.000012,2.6367188e-05"
       orientation="-48,0"
       id="guide4168" />
    <sodipodi:guide
       position="4.0000422,48.000026"
       orientation="0,-4"
       id="guide4170" />
    <sodipodi:guide
       position="4.2167969e-05,48.000026"
       orientation="48,0"
       id="guide4172" />
    <sodipodi:guide
       position="4.2167969e-05,2.6367188e-05"
       orientation="0,4"
       id="guide4174" />
    <sodipodi:guide
       position="4.0000422,2.6367188e-05"
       orientation="-48,0"
       id="guide4176" />
  </sodipodi:namedview>
  <metadata
     id="metadata5458">
    <rdf:RDF>
      <cc:Work
         rdf:about="">
        <dc:format>image/svg+xml</dc:format>
        <dc:type
           rdf:resource="http://purl.org/dc/dcmitype/StillImage" />
        <dc:title></dc:title>
      </cc:Work>
    </rdf:RDF>
  </metadata>
  <g
     inkscape:label="Capa 1"
     inkscape:groupmode="layer"
     id="layer1"
     transform="translate(-384.57143,-499.798)">
    <path
       style="fill:#f5b318;fill-opacity:1;fill-rule:evenodd;stroke:none;stroke-width:1px;stroke-linecap:butt;stroke-linejoin:miter;stroke-opacity:1"
       d="M 24 8 L 4 20 L 24 35 L 44 20 L 24 8 z "
       id="path4274"
       transform="translate(384.57143,499.798)" />
    <path
       style="fill:#fff6e1;fill-opacity:1;stroke:none;stroke-opacity:1"
       d="M 10 4 L 10 44 L 38 44 L 38 12 L 30 4 L 10 4 z "
       transform="translate(384.57143,499.798)"
       id="rect4261" />
    <path
       style="fill:url(#linearGradient4486);fill-opacity:1;stroke:none;stroke-opacity:1"
       d="M 4 20 L 4 44 L 44 44 L 44 20 L 28 32 L 20 32 L 4 20 z "
       transform="translate(384.57143,499.798)"
       id="rect4248" />
    <path
       style="fill:#fbca28;fill-opacity:1;fill-rule:evenodd;stroke:none;stroke-width:1px;stroke-linecap:butt;stroke-linejoin:miter;stroke-opacity:1"
       d="m 388.57147,543.798 15.99996,-12 8,0 16.00001,12 z"
       id="path4334"
       inkscape:connector-curvature="0" />
    <path
       style="fill:#f5b318;fill-opacity:1;fill-rule:evenodd;stroke:none;stroke-width:1px;stroke-linecap:butt;stroke-linejoin:miter;stroke-opacity:1"
       d="m 428.57144,543.798 -16.00001,-12 16.00001,-12 z"
       id="path4336"
       inkscape:connector-curvature="0" />
    <path
       inkscape:connector-curvature="0"
       id="path4338"
       d="m 388.57143,543.798 16.00001,-12 -16.00001,-12 z"
       style="fill:#fcdc71;fill-opacity:1;fill-rule:evenodd;stroke:none;stroke-width:1px;stroke-linecap:butt;stroke-linejoin:miter;stroke-opacity:1" />
    <rect
       style="fill:#eca90a;fill-opacity:1;stroke:none;stroke-opacity:1"
       id="rect4488"
       width="39.999989"
       height="0.99999994"
       x="388.57144"
       y="542.79797" />
    <path
       style="fill:#313437;fill-rule:evenodd;stroke:none;stroke-width:1px;stroke-linecap:butt;stroke-linejoin:miter;stroke-opacity:1;fill-opacity:1"
       d="m 422.57143,511.798 -8,0 0,-8 z"
       id="path4737"
       inkscape:connector-curvature="0" />
    <path
       inkscape:connector-curvature="0"
       id="path4747"
       d="m 414.57143,511.798 8,0 0,8 z"
       style="fill:url(#linearGradient4755);fill-opacity:1;fill-rule:evenodd;stroke:none;stroke-width:1px;stroke-linecap:butt;stroke-linejoin:miter;stroke-opacity:1;opacity:0.2" />
    <path
       d="m 408.47734,511.20732 q 3.42646,0 5.76627,2.36208 2.3398,2.36207 2.3398,5.70355 0,1.88029 -0.81471,3.1129 -0.79361,1.23261 -2.3187,1.23261 -1.56671,0 -2.3398,-1.52509 -1.02396,1.52509 -2.92476,1.52509 -1.71323,0 -2.88313,-1.191 -1.1699,-1.21151 -1.1699,-3.07127 0,-1.83867 1.1699,-3.05019 1.1699,-1.21151 2.79932,-1.21151 1.6089,0 2.6739,1.23261 l 0.0838,0 0,-0.94014 1.50399,0 0,5.4527 q 0,0.54333 0.29248,0.98175 0.31358,0.43901 0.94014,0.43901 1.48348,0 1.48348,-2.98747 0,-2.7577 -1.9219,-4.6585 -1.92189,-1.90138 -4.6796,-1.90138 -2.75771,0 -4.6796,1.90138 -1.9219,1.90139 -1.9219,4.6585 0,2.75771 1.9219,4.6585 1.92189,1.90139 4.6796,1.90139 1.48347,0 2.65337,-0.58496 l 0.58496,1.42077 q -1.46238,0.66876 -3.23833,0.66876 -3.46809,0 -5.82899,-2.3398 -2.36207,-2.36207 -2.36207,-5.72407 0,-3.34266 2.36207,-5.70356 2.38142,-2.36207 5.82899,-2.36207 m -1.943,10.09068 q 0.752,0.73149 1.79647,0.73149 1.04446,0 1.77595,-0.73149 0.75199,-0.73148 0.75199,-1.943 0,-1.21151 -0.75199,-1.94298 -0.73149,-0.73149 -1.77595,-0.73149 -1.04447,0 -1.79647,0.73149 -0.73148,0.73147 -0.73148,1.94298 0,1.21152 0.73148,1.943"
       id="path31"
       inkscape:connector-curvature="0"
       style="fill:#a19578;fill-opacity:1" />
  </g>
</svg>
