<?xml version="1.0" encoding="UTF-8" standalone="no"?>
<!-- Created with Inkscape (http://www.inkscape.org/) -->

<svg
   xmlns:dc="http://purl.org/dc/elements/1.1/"
   xmlns:cc="http://creativecommons.org/ns#"
   xmlns:rdf="http://www.w3.org/1999/02/22-rdf-syntax-ns#"
   xmlns:svg="http://www.w3.org/2000/svg"
   xmlns="http://www.w3.org/2000/svg"
   xmlns:xlink="http://www.w3.org/1999/xlink"
   xmlns:sodipodi="http://sodipodi.sourceforge.net/DTD/sodipodi-0.dtd"
   xmlns:inkscape="http://www.inkscape.org/namespaces/inkscape"
   width="48"
   height="48"
   id="svg5453"
   version="1.1"
   inkscape:version="0.91 r13725"
   sodipodi:docname="trucrypt.svg">
  <defs
     id="defs5455">
    <linearGradient
       inkscape:collect="always"
       xlink:href="#linearGradient4143"
       id="linearGradient4174"
       x1="409.57144"
       y1="543.79797"
       x2="409.57144"
       y2="503.798"
       gradientUnits="userSpaceOnUse"
       gradientTransform="translate(-5.9283447e-6,1.1108398e-5)" />
    <linearGradient
       id="linearGradient4143"
       inkscape:collect="always">
      <stop
         id="stop4145"
         offset="0"
         style="stop-color:#197cf1;stop-opacity:1" />
      <stop
         id="stop4147"
         offset="1"
         style="stop-color:#20bcfa;stop-opacity:1" />
    </linearGradient>
  </defs>
  <sodipodi:namedview
     id="base"
     pagecolor="#ffffff"
     bordercolor="#666666"
     borderopacity="1.0"
     inkscape:pageopacity="0"
     inkscape:pageshadow="2"
     inkscape:zoom="8.8670932"
     inkscape:cx="37.002733"
     inkscape:cy="21.207043"
     inkscape:document-units="px"
     inkscape:current-layer="layer1"
     showgrid="false"
     fit-margin-top="0"
     fit-margin-left="0"
     fit-margin-right="0"
     fit-margin-bottom="0"
     inkscape:window-width="1366"
     inkscape:window-height="699"
     inkscape:window-x="0"
     inkscape:window-y="0"
     inkscape:window-maximized="1"
     inkscape:showpageshadow="false"
     borderlayer="true"
     showguides="false">
    <inkscape:grid
       type="xygrid"
       id="grid4063" />
    <sodipodi:guide
       position="1.1650391e-05,47.999996"
       orientation="4,0"
       id="guide4146" />
    <sodipodi:guide
       position="1.1650391e-05,43.999996"
       orientation="0,48"
       id="guide4148" />
    <sodipodi:guide
       position="48.000012,43.999996"
       orientation="-4,0"
       id="guide4150" />
    <sodipodi:guide
       position="48.000012,47.999996"
       orientation="0,-48"
       id="guide4152" />
    <sodipodi:guide
       position="1.1650391e-05,4.0000264"
       orientation="4,0"
       id="guide4154" />
    <sodipodi:guide
       position="1.1650391e-05,2.6367188e-05"
       orientation="0,48"
       id="guide4156" />
    <sodipodi:guide
       position="48.000012,2.6367188e-05"
       orientation="-4,0"
       id="guide4158" />
    <sodipodi:guide
       position="48.000012,4.0000264"
       orientation="0,-48"
       id="guide4160" />
    <sodipodi:guide
       position="48.000012,48.000026"
       orientation="0,-4"
       id="guide4162" />
    <sodipodi:guide
       position="44.000012,48.000026"
       orientation="48,0"
       id="guide4164" />
    <sodipodi:guide
       position="44.000012,2.6367188e-05"
       orientation="0,4"
       id="guide4166" />
    <sodipodi:guide
       position="48.000012,2.6367188e-05"
       orientation="-48,0"
       id="guide4168" />
    <sodipodi:guide
       position="4.0000422,48.000026"
       orientation="0,-4"
       id="guide4170" />
    <sodipodi:guide
       position="4.2167969e-05,48.000026"
       orientation="48,0"
       id="guide4172" />
    <sodipodi:guide
       position="4.2167969e-05,2.6367188e-05"
       orientation="0,4"
       id="guide4174" />
    <sodipodi:guide
       position="4.0000422,2.6367188e-05"
       orientation="-48,0"
       id="guide4176" />
    <sodipodi:guide
       position="4.0000117,47.999996"
       orientation="43.999969,0"
       id="guide4638" />
    <sodipodi:guide
       position="4.0000117,4.0000264"
       orientation="0,20"
       id="guide4640" />
    <sodipodi:guide
       position="24.000012,4.0000264"
       orientation="-43.999969,0"
       id="guide4642" />
    <sodipodi:guide
       position="24.000012,47.999996"
       orientation="0,-20"
       id="guide4644" />
    <sodipodi:guide
       position="4.0000422,24.000026"
       orientation="20,0"
       id="guide4666" />
    <sodipodi:guide
       position="4.0000422,4.0000264"
       orientation="0,39.999969"
       id="guide4668" />
    <sodipodi:guide
       position="44.000012,4.0000264"
       orientation="-20,0"
       id="guide4670" />
    <sodipodi:guide
       position="44.000012,24.000026"
       orientation="0,-39.999969"
       id="guide4672" />
  </sodipodi:namedview>
  <metadata
     id="metadata5458">
    <rdf:RDF>
      <cc:Work
         rdf:about="">
        <dc:format>image/svg+xml</dc:format>
        <dc:type
           rdf:resource="http://purl.org/dc/dcmitype/StillImage" />
        <dc:title></dc:title>
      </cc:Work>
    </rdf:RDF>
  </metadata>
  <g
     inkscape:label="Capa 1"
     inkscape:groupmode="layer"
     id="layer1"
     transform="translate(-384.57143,-499.798)">
    <rect
       style="opacity:1;fill:url(#linearGradient4174);fill-opacity:1;stroke:none;stroke-width:2.79999995;stroke-miterlimit:4;stroke-dasharray:none;stroke-opacity:0.55026455"
       id="rect4166"
       width="39.999989"
       height="39.999969"
       x="388.57144"
       y="503.798"
       ry="19.999985" />
    <path
       style="opacity:1;fill:#0c69cf;fill-opacity:1;stroke:none;stroke-width:2.79999995;stroke-miterlimit:4;stroke-dasharray:none;stroke-opacity:0.55026455"
       d="M 4.0117188 23.5 C 4.007647 23.666859 4 23.832126 4 24 C 4 35.079992 12.920008 44 24 44 C 35.079992 44 44 35.079992 44 24 C 44 23.832126 43.992353 23.666859 43.988281 23.5 C 43.724099 34.346571 34.912435 43 24 43 C 13.087565 43 4.2759007 34.346571 4.0117188 23.5 z "
       transform="translate(384.57143,499.798)"
       id="rect4775" />
    <g
       id="Calque.__207"
       transform="matrix(0.03815939,0,0,0.03815939,389.01221,504.12135)">
      <g
         id="Symbole.__2023_1"
         overflow="visible"
         style="overflow:visible">
        <g
           id="Calque.__209">
          <g
             id="shape187">
            <path
               id="path147"
               d="m 698.65,297.75 c 2.7,2.7 5.55,5 8.6,6.85 6.65,4.05 14.2,6.1 22.6,6.1 12.15,0 22.5,-4.35 31.15,-12.95 8.6,-8.6 12.9,-19 12.9,-31.15 0,-8.4 -2.05,-15.95 -6.15,-22.7 -1.85,-3 -4.1,-5.85 -6.75,-8.5 -8.65,-8.65 -19,-12.9 -31.15,-12.9 -12.2,0 -22.6,4.25 -31.2,12.9 -8.65,8.6 -12.9,19.05 -12.9,31.2 0,12.15 4.25,22.55 12.9,31.15 z m -37.45,-150 c 0,-8.4 -2.05,-15.95 -6.15,-22.65 -1.85,-3.05 -4.1,-5.9 -6.8,-8.6 -8.6,-8.6 -18.95,-12.85 -31.1,-12.85 -12.25,0 -22.6,4.25 -31.25,12.85 -8.6,8.65 -12.9,19.1 -12.9,31.25 0,12.15 4.3,22.55 12.9,31.1 2.7,2.7 5.55,5 8.6,6.85 6.7,4.1 14.25,6.15 22.65,6.15 12.15,0 22.5,-4.35 31.1,-13 8.65,-8.55 12.95,-18.95 12.95,-31.1 z m -112.75,0 c 0,-8.4 -2.05,-15.95 -6.1,-22.65 -1.85,-3.05 -4.15,-5.9 -6.8,-8.6 -8.65,-8.6 -19,-12.85 -31.15,-12.85 -12.2,0 -22.6,4.25 -31.2,12.85 -8.65,8.65 -12.9,19.1 -12.9,31.25 0,12.15 4.25,22.55 12.9,31.1 2.65,2.7 5.5,5 8.55,6.85 6.7,4.1 14.25,6.15 22.65,6.15 12.15,0 22.5,-4.35 31.15,-13 8.6,-8.55 12.9,-18.95 12.9,-31.1 z m 106.6,215.05 c -1.85,-3.05 -4.15,-5.9 -6.8,-8.55 -8.6,-8.65 -18.95,-12.9 -31.1,-12.9 -12.25,0 -22.6,4.25 -31.25,12.9 -8.6,8.6 -12.9,19.05 -12.9,31.2 0,12.2 4.3,22.55 12.9,31.2 2.7,2.65 5.55,4.95 8.6,6.8 6.7,4.05 14.25,6.1 22.65,6.1 12.15,0 22.5,-4.35 31.1,-12.9 8.65,-8.65 12.95,-19 12.95,-31.2 0,-8.4 -2.05,-15.95 -6.15,-22.65 z m -112.7,0 c -1.85,-3.05 -4.15,-5.9 -6.8,-8.55 -8.65,-8.65 -19,-12.9 -31.15,-12.9 -12.2,0 -22.6,4.25 -31.2,12.9 -8.65,8.6 -12.9,19.05 -12.9,31.2 0,12.2 4.25,22.55 12.9,31.2 2.65,2.65 5.5,4.95 8.55,6.8 6.7,4.05 14.25,6.1 22.65,6.1 12.15,0 22.5,-4.35 31.15,-12.9 8.6,-8.65 12.9,-19 12.9,-31.2 0,-8.4 -2.05,-15.95 -6.1,-22.65 z m 6.1,141.5 c 0,-8.35 -2.05,-15.9 -6.15,-22.65 -1.85,-3.05 -4.1,-5.9 -6.75,-8.55 -8.65,-8.6 -19,-12.9 -31.15,-12.9 -12.2,0 -22.6,4.3 -31.2,12.9 -8.65,8.6 -12.9,19.05 -12.9,31.2 0,12.2 4.25,22.6 12.9,31.2 2.65,2.7 5.5,4.95 8.55,6.8 6.7,4.1 14.25,6.15 22.65,6.15 12.15,0 22.5,-4.4 31.15,-12.95 8.6,-8.6 12.9,-19 12.9,-31.2 z m -6.1,96.25 c -1.85,-3.05 -4.15,-5.9 -6.8,-8.6 -8.65,-8.55 -19,-12.9 -31.15,-12.9 -12.2,0 -22.6,4.35 -31.2,12.9 -8.65,8.65 -12.9,19.05 -12.9,31.25 0,12.15 4.25,22.55 12.9,31.15 2.65,2.65 5.5,4.95 8.55,6.8 6.7,4.1 14.25,6.15 22.65,6.15 12.15,0 22.5,-4.35 31.15,-12.95 8.6,-8.6 12.9,-19 12.9,-31.15 0,-8.4 -2.05,-15.95 -6.1,-22.65 z m 6.1,141.5 c 0,-8.4 -2.05,-15.95 -6.1,-22.65 -1.85,-3.05 -4.15,-5.9 -6.8,-8.6 -8.65,-8.55 -19,-12.85 -31.15,-12.85 -12.2,0 -22.6,4.3 -31.2,12.85 -8.65,8.65 -12.9,19.05 -12.9,31.25 0,12.15 4.25,22.55 12.9,31.15 2.65,2.65 5.5,4.95 8.55,6.8 6.7,4.1 14.25,6.15 22.65,6.15 12.15,0 22.5,-4.35 31.15,-12.95 8.6,-8.6 12.9,-19 12.9,-31.15 z m -6.1,96.2 c -1.85,-3.05 -4.15,-5.9 -6.8,-8.6 -8.65,-8.55 -19,-12.85 -31.15,-12.85 -12.2,0 -22.6,4.3 -31.2,12.85 -8.65,8.65 -12.9,19.1 -12.9,31.25 0,12.15 4.25,22.55 12.9,31.15 2.65,2.65 5.5,4.95 8.55,6.8 6.7,4.1 14.25,6.15 22.65,6.15 12.15,0 22.5,-4.35 31.15,-12.95 8.6,-8.6 12.9,-19 12.9,-31.15 0,-8.4 -2.05,-15.95 -6.1,-22.65 z m -112.7,-713.1 c -1.85,-3.05 -4.15,-5.95 -6.85,-8.65 -8.6,-8.6 -18.95,-12.85 -31.15,-12.85 -12.2,0 -22.6,4.25 -31.2,12.85 -8.6,8.65 -12.9,19.1 -12.9,31.25 0,12.15 4.3,22.55 12.9,31.1 2.65,2.7 5.5,5 8.55,6.85 6.7,4.1 14.25,6.15 22.65,6.15 12.2,0 22.55,-4.35 31.15,-13 8.6,-8.55 13,-18.95 13,-31.1 0,-8.4 -2.05,-15.95 -6.15,-22.6 z M 247.7,297.75 c 2.7,2.7 5.6,5 8.65,6.85 6.65,4.05 14.2,6.1 22.6,6.1 12.15,0 22.5,-4.35 31.1,-12.95 8.65,-8.6 13,-19 13,-31.15 0,-8.4 -2.05,-15.95 -6.2,-22.65 -1.85,-3.05 -4.15,-5.9 -6.8,-8.55 -8.6,-8.65 -18.95,-12.9 -31.1,-12.9 -12.2,0 -22.6,4.25 -31.25,12.9 -8.6,8.6 -12.85,19.05 -12.85,31.2 0,12.15 4.25,22.55 12.85,31.15 z m 181.95,65.1 c -1.85,-3.05 -4.15,-5.9 -6.85,-8.6 -8.6,-8.65 -18.95,-12.9 -31.15,-12.9 -12.2,0 -22.6,4.25 -31.2,12.9 -8.6,8.6 -12.9,19.05 -12.9,31.2 0,12.2 4.3,22.55 12.9,31.2 2.65,2.65 5.5,4.95 8.55,6.8 6.7,4.05 14.25,6.1 22.65,6.1 12.2,0 22.55,-4.35 31.15,-12.9 8.6,-8.65 13,-19 13,-31.2 0,-8.35 -2.05,-15.9 -6.15,-22.6 z m 0,475.4 c -1.85,-3.05 -4.15,-5.9 -6.85,-8.6 -8.6,-8.55 -18.95,-12.85 -31.15,-12.85 -12.2,0 -22.6,4.3 -31.2,12.85 -8.6,8.65 -12.9,19.1 -12.9,31.25 0,12.15 4.3,22.55 12.9,31.15 2.65,2.65 5.5,4.95 8.55,6.8 6.7,4.1 14.25,6.15 22.65,6.15 12.2,0 22.55,-4.35 31.15,-12.95 8.6,-8.6 13,-19 13,-31.15 0,-8.35 -2.05,-15.9 -6.15,-22.65 z"
               inkscape:connector-curvature="0"
               style="fill:#ffffff;fill-opacity:1" />
            <path
               id="path148"
               d="m 707.25,304.6 c 1.85,2.95 4.05,5.8 6.7,8.45 8.65,8.65 19,13 31.25,13 12.15,0 22.5,-4.35 31.1,-13 8.65,-8.55 12.95,-18.95 12.95,-31.1 0,-12.2 -4.3,-22.6 -12.95,-31.25 -2.65,-2.7 -5.5,-4.95 -8.55,-6.8 4.1,6.75 6.15,14.3 6.15,22.7 0,12.15 -4.3,22.55 -12.9,31.15 -8.65,8.6 -19,12.95 -31.15,12.95 -8.4,0 -15.95,-2.05 -22.6,-6.1 z m -52.2,-179.5 c 4.1,6.7 6.15,14.25 6.15,22.65 0,12.15 -4.3,22.55 -12.95,31.1 -8.6,8.65 -18.95,13 -31.1,13 -8.4,0 -15.95,-2.05 -22.65,-6.15 1.85,3 4.1,5.85 6.75,8.5 8.6,8.6 19,13 31.2,13 12.15,0 22.5,-4.4 31.15,-13 q 12.9,-12.9 12.9,-31.15 c 0,-12.15 -4.3,-22.6 -12.9,-31.2 -2.65,-2.65 -5.5,-4.9 -8.55,-6.75 z m -112.7,0 c 4.05,6.7 6.1,14.25 6.1,22.65 0,12.15 -4.3,22.55 -12.9,31.1 -8.65,8.65 -19,13 -31.15,13 -8.4,0 -15.95,-2.05 -22.65,-6.15 1.85,3 4.1,5.85 6.75,8.5 8.6,8.6 19,13 31.2,13 12.2,0 22.55,-4.4 31.15,-13 8.6,-8.55 12.95,-18.95 12.95,-31.15 0,-12.15 -4.35,-22.6 -12.95,-31.2 -2.65,-2.65 -5.5,-4.9 -8.5,-6.75 z m 8.5,125.6 c -2.65,-2.65 -5.5,-4.9 -8.55,-6.75 4.1,6.7 6.15,14.25 6.15,22.65 0,12.15 -4.3,22.55 -12.9,31.15 -8.65,8.6 -19,12.95 -31.15,12.95 -8.4,0 -15.95,-2.05 -22.65,-6.15 1.85,3 4.1,5.85 6.75,8.5 8.6,8.65 19,13 31.2,13 12.2,0 22.55,-4.35 31.15,-13 8.6,-8.55 12.95,-18.95 12.95,-31.1 0,-12.2 -4.35,-22.6 -12.95,-31.25 z m 112.75,0 c -2.7,-2.7 -5.55,-4.95 -8.6,-6.8 4.15,6.75 6.2,14.3 6.2,22.7 0,12.15 -4.3,22.55 -12.95,31.15 -8.6,8.6 -18.95,12.95 -31.1,12.95 -8.4,0 -15.95,-2.05 -22.6,-6.1 1.8,2.95 4.05,5.8 6.7,8.45 8.6,8.65 19,13 31.2,13 12.15,0 22.5,-4.35 31.15,-13 8.6,-8.55 12.9,-18.95 12.9,-31.1 0,-12.2 -4.3,-22.6 -12.9,-31.25 z m -8.55,112.1 c 4.1,6.7 6.15,14.25 6.15,22.65 0,12.2 -4.3,22.55 -12.95,31.2 -8.6,8.55 -18.95,12.9 -31.1,12.9 -8.4,0 -15.95,-2.05 -22.65,-6.1 1.85,3 4.1,5.85 6.75,8.5 8.6,8.6 19,12.95 31.2,12.95 12.15,0 22.5,-4.35 31.15,-12.95 8.6,-8.6 12.9,-19 12.9,-31.15 0,-12.2 -4.3,-22.6 -12.9,-31.25 -2.65,-2.65 -5.5,-4.9 -8.55,-6.75 z m -112.7,0 c 4.05,6.7 6.1,14.25 6.1,22.65 0,12.2 -4.3,22.55 -12.9,31.2 -8.65,8.55 -19,12.9 -31.15,12.9 -8.4,0 -15.95,-2.05 -22.65,-6.1 1.85,3 4.1,5.85 6.75,8.5 8.6,8.6 19,12.95 31.2,12.95 12.2,0 22.55,-4.35 31.15,-12.95 8.6,-8.6 12.95,-19 12.95,-31.15 0,-12.2 -4.35,-22.6 -12.95,-31.25 -2.65,-2.65 -5.5,-4.9 -8.5,-6.75 z m -0.05,118.85 c 4.1,6.75 6.15,14.3 6.15,22.65 0,12.2 -4.3,22.6 -12.9,31.2 -8.65,8.55 -19,12.95 -31.15,12.95 -8.4,0 -15.95,-2.05 -22.65,-6.15 1.85,3 4.1,5.85 6.75,8.5 8.6,8.6 19,12.95 31.2,12.95 12.2,0 22.55,-4.35 31.15,-12.95 8.6,-8.6 12.95,-19 12.95,-31.15 0,-12.15 -4.35,-22.6 -12.95,-31.25 -2.65,-2.65 -5.5,-4.9 -8.55,-6.75 z m 112.7,0 c 4.15,6.7 6.2,14.25 6.2,22.65 0,12.2 -4.3,22.6 -12.95,31.2 -8.6,8.55 -18.95,12.95 -31.1,12.95 -8.4,0 -15.95,-2.05 -22.6,-6.1 1.8,2.95 4.05,5.8 6.7,8.45 8.6,8.6 19,12.95 31.2,12.95 12.15,0 22.5,-4.35 31.15,-12.95 8.6,-8.6 12.9,-19 12.9,-31.15 0,-12.15 -4.3,-22.6 -12.9,-31.25 -2.7,-2.65 -5.55,-4.9 -8.6,-6.75 z M 789.25,400.8 c 0,-12.2 -4.3,-22.6 -12.95,-31.25 -2.65,-2.65 -5.5,-4.9 -8.55,-6.75 4.1,6.7 6.15,14.25 6.15,22.65 0,12.2 -4.3,22.55 -12.9,31.2 -8.65,8.55 -19,12.9 -31.15,12.9 -8.4,0 -15.95,-2.05 -22.6,-6.1 1.8,3 4.05,5.85 6.7,8.5 8.65,8.6 19,12.95 31.25,12.95 12.15,0 22.5,-4.35 31.1,-12.95 8.65,-8.6 12.95,-19 12.95,-31.15 z m 30.7,22.65 c 1.85,3 4.1,5.85 6.75,8.5 8.6,8.6 19,12.95 31.2,12.95 12.15,0 22.5,-4.35 31.15,-12.95 8.6,-8.6 12.9,-19 12.9,-31.15 0,-12.2 -4.3,-22.6 -12.9,-31.25 -2.65,-2.65 -5.5,-4.9 -8.55,-6.75 4.1,6.7 6.15,14.25 6.15,22.65 0,12.2 -4.3,22.55 -12.95,31.2 -8.6,8.55 -18.95,12.9 -31.1,12.9 -8.4,0 -15.95,-2.05 -22.65,-6.1 z m -52.2,58.2 c 4.1,6.7 6.15,14.25 6.15,22.65 0,12.2 -4.3,22.6 -12.9,31.2 -8.65,8.55 -19,12.95 -31.15,12.95 -8.4,0 -15.95,-2.05 -22.6,-6.1 1.85,2.95 4.05,5.8 6.7,8.45 8.65,8.6 19,12.95 31.25,12.95 12.15,0 22.5,-4.35 31.1,-12.95 8.65,-8.6 12.95,-19 12.95,-31.15 0,-12.15 -4.3,-22.6 -12.95,-31.25 -2.65,-2.65 -5.5,-4.9 -8.55,-6.75 z m 112.7,0 c 4.15,6.7 6.2,14.25 6.2,22.65 0,12.2 -4.3,22.6 -12.95,31.2 -8.6,8.55 -18.95,12.95 -31.1,12.95 -8.4,0 -15.95,-2.05 -22.6,-6.1 1.8,2.95 4.05,5.8 6.7,8.45 8.6,8.6 19,12.95 31.2,12.95 12.15,0 22.5,-4.35 31.15,-12.95 8.6,-8.6 12.9,-19 12.9,-31.15 0,-12.15 -4.3,-22.6 -12.9,-31.25 -2.7,-2.65 -5.55,-4.9 -8.6,-6.75 z m 8.6,125.65 c -2.7,-2.7 -5.55,-4.95 -8.55,-6.8 4.1,6.75 6.15,14.3 6.15,22.7 0,12.15 -4.3,22.55 -12.95,31.15 -8.6,8.6 -18.95,12.95 -31.1,12.95 -8.4,0 -15.95,-2.05 -22.65,-6.1 1.85,3 4.1,5.85 6.75,8.5 8.6,8.55 19,12.9 31.2,12.9 12.15,0 22.5,-4.35 31.15,-12.9 8.6,-8.65 12.9,-19.05 12.9,-31.2 0,-12.15 -4.3,-22.6 -12.9,-31.2 z m -112.75,0 c -2.65,-2.7 -5.5,-4.95 -8.55,-6.8 4.1,6.75 6.15,14.3 6.15,22.7 0,12.15 -4.3,22.55 -12.9,31.15 -8.65,8.6 -19,12.95 -31.15,12.95 -8.4,0 -15.95,-2.05 -22.6,-6.1 1.8,3 4.05,5.85 6.7,8.5 8.65,8.55 19,12.9 31.25,12.9 12.15,0 22.5,-4.35 31.1,-12.9 8.65,-8.65 12.95,-19.05 12.95,-31.2 0,-12.15 -4.3,-22.6 -12.95,-31.2 z m -112.7,0 c -2.7,-2.7 -5.55,-4.95 -8.55,-6.8 4.1,6.75 6.15,14.3 6.15,22.7 0,12.15 -4.3,22.55 -12.95,31.15 -8.6,8.6 -18.95,12.95 -31.1,12.95 -8.4,0 -15.95,-2.05 -22.65,-6.1 1.85,3 4.1,5.85 6.75,8.5 8.6,8.55 19,12.9 31.2,12.9 12.15,0 22.5,-4.35 31.15,-12.9 8.6,-8.65 12.9,-19.05 12.9,-31.2 0,-12.15 -4.3,-22.6 -12.9,-31.2 z m -112.75,0 c -2.65,-2.65 -5.5,-4.9 -8.5,-6.75 4.05,6.7 6.1,14.25 6.1,22.65 0,12.15 -4.3,22.55 -12.9,31.15 -8.65,8.6 -19,12.95 -31.15,12.95 -8.4,0 -15.95,-2.05 -22.65,-6.15 1.85,3.05 4.1,5.9 6.75,8.55 8.6,8.55 19,12.9 31.2,12.9 12.2,0 22.55,-4.35 31.15,-12.9 8.6,-8.65 12.95,-19.05 12.95,-31.2 0,-12.15 -4.35,-22.6 -12.95,-31.2 z m 104.2,112.05 c 4.1,6.75 6.15,14.3 6.15,22.7 0,12.15 -4.3,22.55 -12.95,31.15 -8.6,8.6 -18.95,12.95 -31.1,12.95 -8.4,0 -15.95,-2.05 -22.65,-6.1 1.85,3 4.1,5.85 6.75,8.5 8.6,8.55 19,12.9 31.2,12.9 12.15,0 22.5,-4.35 31.15,-12.9 8.6,-8.65 12.9,-19 12.9,-31.2 0,-12.15 -4.3,-22.6 -12.9,-31.2 -2.7,-2.7 -5.55,-4.95 -8.55,-6.8 z m -112.7,0.05 c 4.05,6.7 6.1,14.25 6.1,22.65 0,12.15 -4.3,22.55 -12.9,31.15 -8.65,8.6 -19,12.95 -31.15,12.95 -8.4,0 -15.95,-2.05 -22.65,-6.15 1.85,3.05 4.1,5.9 6.75,8.55 8.6,8.55 19,12.9 31.2,12.9 12.2,0 22.55,-4.35 31.15,-12.9 8.6,-8.65 12.95,-19 12.95,-31.2 0,-12.15 -4.35,-22.6 -12.95,-31.2 -2.65,-2.65 -5.5,-4.9 -8.5,-6.75 z m 8.5,125.6 c -2.65,-2.65 -5.5,-4.9 -8.5,-6.75 4.05,6.7 6.1,14.25 6.1,22.65 0,12.15 -4.3,22.55 -12.9,31.15 -8.65,8.6 -19,12.95 -31.15,12.95 -8.4,0 -15.95,-2.05 -22.65,-6.15 1.85,3.05 4.1,5.9 6.75,8.55 8.6,8.55 19,12.95 31.2,12.95 12.2,0 22.55,-4.4 31.15,-12.95 8.6,-8.6 12.95,-19 12.95,-31.2 0,-12.15 -4.35,-22.6 -12.95,-31.2 z m 112.75,0 c -2.7,-2.7 -5.55,-4.95 -8.55,-6.8 4.1,6.75 6.15,14.3 6.15,22.7 0,12.15 -4.3,22.55 -12.95,31.15 -8.6,8.6 -18.95,12.95 -31.1,12.95 -8.4,0 -15.95,-2.05 -22.65,-6.1 1.85,3 4.1,5.85 6.75,8.5 8.6,8.55 19,12.95 31.2,12.95 12.15,0 22.5,-4.4 31.15,-12.95 8.6,-8.6 12.9,-19 12.9,-31.2 0,-12.15 -4.3,-22.6 -12.9,-31.2 z M 767.75,719.35 c 4.1,6.75 6.15,14.3 6.15,22.7 0,12.15 -4.3,22.55 -12.9,31.15 -8.65,8.6 -19,12.95 -31.15,12.95 -8.4,0 -15.95,-2.05 -22.6,-6.1 1.8,3 4.05,5.85 6.7,8.5 8.65,8.55 19,12.9 31.25,12.9 12.15,0 22.5,-4.35 31.1,-12.9 8.65,-8.65 12.95,-19 12.95,-31.2 0,-12.15 -4.3,-22.6 -12.95,-31.2 -2.65,-2.7 -5.5,-4.95 -8.55,-6.8 z M 150.3,431.95 c 8.65,8.6 19.05,12.95 31.25,12.95 12.15,0 22.5,-4.35 31.1,-12.95 8.65,-8.6 13,-19 13,-31.15 0,-12.2 -4.35,-22.6 -13,-31.25 -2.65,-2.65 -5.5,-4.9 -8.5,-6.75 4.1,6.7 6.15,14.25 6.15,22.65 0,12.2 -4.35,22.55 -12.95,31.2 -8.65,8.55 -18.95,12.9 -31.15,12.9 -8.4,0 -15.95,-2.05 -22.6,-6.1 1.8,3 4.05,5.85 6.7,8.5 z m 53.85,49.7 c 4.1,6.75 6.15,14.3 6.15,22.65 0,12.2 -4.35,22.6 -12.95,31.2 -8.65,8.55 -18.95,12.95 -31.15,12.95 -8.4,0 -15.95,-2.05 -22.6,-6.1 1.85,2.95 4.05,5.8 6.7,8.45 8.65,8.6 19.05,12.95 31.25,12.95 12.15,0 22.5,-4.35 31.1,-12.95 8.65,-8.6 13,-19 13,-31.15 0,-12.15 -4.35,-22.6 -13,-31.25 -2.65,-2.65 -5.5,-4.9 -8.5,-6.75 z M 451.1,163.05 c 0,-12.15 -4.35,-22.6 -13,-31.2 -2.65,-2.65 -5.45,-4.9 -8.45,-6.7 4.1,6.65 6.15,14.2 6.15,22.6 0,12.15 -4.4,22.55 -13,31.1 -8.6,8.65 -18.95,13 -31.15,13 -8.4,0 -15.95,-2.05 -22.65,-6.15 1.85,3 4.1,5.85 6.75,8.5 8.65,8.6 19.05,13 31.25,13 12.15,0 22.5,-4.4 31.1,-13 8.65,-8.55 13,-18.95 13,-31.15 z m -82.05,141.5 c 1.8,3 4.05,5.85 6.7,8.5 8.65,8.65 19.05,13 31.25,13 12.15,0 22.5,-4.35 31.1,-13 8.65,-8.55 13,-18.95 13,-31.1 0,-12.2 -4.35,-22.6 -13,-31.25 -2.65,-2.65 -5.5,-4.9 -8.5,-6.75 4.15,6.7 6.2,14.25 6.2,22.65 0,12.15 -4.4,22.55 -13,31.15 -8.6,8.6 -18.95,12.95 -31.15,12.95 -8.35,0 -15.9,-2.05 -22.6,-6.15 z m -112.7,0.05 c 1.8,2.95 4.05,5.8 6.7,8.45 8.6,8.65 19,13 31.2,13 12.2,0 22.5,-4.35 31.15,-13 8.6,-8.55 12.95,-18.95 12.95,-31.1 0,-12.2 -4.35,-22.6 -12.95,-31.25 -2.65,-2.65 -5.5,-4.9 -8.55,-6.75 4.15,6.7 6.2,14.25 6.2,22.65 0,12.15 -4.35,22.55 -13,31.15 -8.6,8.6 -18.95,12.95 -31.1,12.95 -8.4,0 -15.95,-2.05 -22.6,-6.1 z m 82,96.2 c 0,-12.2 -4.35,-22.6 -12.95,-31.25 -2.65,-2.65 -5.5,-4.9 -8.5,-6.75 4.1,6.7 6.15,14.25 6.15,22.65 0,12.2 -4.35,22.55 -13,31.2 -8.6,8.55 -18.95,12.9 -31.1,12.9 -8.4,0 -15.95,-2.05 -22.65,-6.1 1.85,3 4.1,5.85 6.75,8.5 8.6,8.6 19,12.95 31.2,12.95 12.2,0 22.5,-4.35 31.15,-12.95 8.6,-8.6 12.95,-19 12.95,-31.15 z m -21.5,80.85 c 4.15,6.75 6.2,14.3 6.2,22.65 0,12.2 -4.35,22.6 -13,31.2 -8.6,8.55 -18.95,12.95 -31.1,12.95 -8.4,0 -15.95,-2.05 -22.6,-6.1 1.8,2.95 4.05,5.8 6.7,8.45 8.6,8.6 19,12.95 31.2,12.95 12.2,0 22.5,-4.35 31.15,-12.95 8.6,-8.6 12.95,-19 12.95,-31.15 0,-12.15 -4.35,-22.6 -12.95,-31.25 -2.65,-2.65 -5.5,-4.9 -8.55,-6.75 z M 451.1,400.8 c 0,-12.2 -4.35,-22.6 -13,-31.25 -2.65,-2.65 -5.45,-4.85 -8.45,-6.7 4.1,6.7 6.15,14.25 6.15,22.6 0,12.2 -4.4,22.55 -13,31.2 -8.6,8.55 -18.95,12.9 -31.15,12.9 -8.4,0 -15.95,-2.05 -22.65,-6.1 1.85,3 4.1,5.85 6.75,8.5 8.65,8.6 19.05,12.95 31.25,12.95 12.15,0 22.5,-4.35 31.1,-12.95 8.65,-8.6 13,-19 13,-31.15 z m -21.45,80.9 c 4.1,6.7 6.15,14.25 6.15,22.6 0,12.2 -4.4,22.6 -13,31.2 -8.6,8.55 -18.95,12.95 -31.15,12.95 -8.35,0 -15.9,-2.05 -22.6,-6.15 1.85,3 4.05,5.85 6.7,8.5 8.65,8.6 19.05,12.95 31.25,12.95 12.15,0 22.5,-4.35 31.1,-12.95 8.65,-8.6 13,-19 13,-31.15 0,-12.15 -4.35,-22.6 -13,-31.25 -2.65,-2.65 -5.5,-4.9 -8.45,-6.7 z M 369,661.15 c 1.85,3.05 4.1,5.9 6.75,8.55 8.65,8.55 19.05,12.9 31.25,12.9 12.15,0 22.5,-4.35 31.1,-12.9 8.65,-8.65 13,-19.05 13,-31.2 0,-12.15 -4.35,-22.6 -13,-31.2 -2.65,-2.65 -5.45,-4.9 -8.45,-6.75 4.1,6.75 6.15,14.3 6.15,22.65 0,12.15 -4.4,22.55 -13,31.15 -8.6,8.6 -18.95,12.95 -31.15,12.95 -8.4,0 -15.95,-2.05 -22.65,-6.15 z M 325.4,607.3 c -2.65,-2.65 -5.5,-4.9 -8.5,-6.75 4.1,6.7 6.15,14.25 6.15,22.65 0,12.15 -4.35,22.55 -13,31.15 -8.6,8.6 -18.95,12.95 -31.1,12.95 -8.4,0 -15.95,-2.05 -22.65,-6.1 1.85,3 4.1,5.85 6.75,8.5 8.6,8.55 19,12.9 31.2,12.9 12.2,0 22.5,-4.35 31.15,-12.9 8.6,-8.65 12.95,-19.05 12.95,-31.2 0,-12.15 -4.35,-22.6 -12.95,-31.2 z m -112.75,0 c -2.65,-2.65 -5.5,-4.9 -8.5,-6.75 4.1,6.7 6.15,14.25 6.15,22.65 0,12.15 -4.35,22.55 -12.95,31.15 -8.65,8.6 -18.95,12.95 -31.15,12.95 -8.4,0 -15.95,-2.05 -22.6,-6.1 1.8,3 4.05,5.85 6.7,8.5 8.65,8.55 19.05,12.9 31.25,12.9 12.15,0 22.5,-4.35 31.1,-12.9 8.65,-8.65 13,-19.05 13,-31.2 0,-12.15 -4.35,-22.6 -13,-31.2 z M 316.9,719.4 c 4.1,6.7 6.15,14.25 6.15,22.65 0,12.15 -4.35,22.55 -13,31.15 -8.6,8.6 -18.95,12.95 -31.1,12.95 -8.4,0 -15.95,-2.05 -22.65,-6.1 1.85,3 4.1,5.85 6.75,8.5 8.6,8.55 19,12.9 31.2,12.9 12.2,0 22.5,-4.35 31.15,-12.9 8.6,-8.65 12.95,-19 12.95,-31.2 0,-12.15 -4.35,-22.6 -12.95,-31.2 -2.65,-2.65 -5.5,-4.9 -8.5,-6.75 z m 134.2,37.95 c 0,-12.15 -4.35,-22.6 -13,-31.2 -2.65,-2.65 -5.45,-4.9 -8.45,-6.75 4.1,6.75 6.15,14.3 6.15,22.65 0,12.15 -4.4,22.55 -13,31.15 -8.6,8.6 -18.95,12.95 -31.15,12.95 -8.4,0 -15.95,-2.05 -22.65,-6.15 1.85,3.05 4.1,5.9 6.75,8.55 8.65,8.55 19.05,12.9 31.25,12.9 12.15,0 22.5,-4.35 31.1,-12.9 8.65,-8.65 13,-19 13,-31.2 z M 369,898.85 c 1.85,3.05 4.1,5.9 6.75,8.55 8.65,8.55 19.05,12.95 31.25,12.95 12.15,0 22.5,-4.4 31.1,-12.95 8.65,-8.6 13,-19 13,-31.2 0,-12.15 -4.35,-22.6 -13,-31.2 -2.65,-2.65 -5.45,-4.9 -8.45,-6.75 4.1,6.75 6.15,14.3 6.15,22.65 0,12.15 -4.4,22.55 -13,31.15 -8.6,8.6 -18.95,12.95 -31.15,12.95 -8.4,0 -15.95,-2.05 -22.65,-6.15 z"
               inkscape:connector-curvature="0"
               style="fill:#000000;fill-opacity:0.2" />
            <path
               id="path149"
               d="m 542.3,243.95 c -1.85,-3.05 -4.1,-5.9 -6.75,-8.55 -8.65,-8.65 -19,-12.9 -31.15,-12.9 -12.2,0 -22.6,4.25 -31.2,12.9 -8.65,8.6 -12.9,19.05 -12.9,31.2 0,12.15 4.25,22.55 12.9,31.15 2.65,2.7 5.5,4.95 8.55,6.8 6.7,4.1 14.25,6.15 22.65,6.15 12.15,0 22.5,-4.35 31.15,-12.95 8.6,-8.6 12.9,-19 12.9,-31.15 0,-8.4 -2.05,-15.95 -6.15,-22.65 z M 573,266.6 c 0,12.15 4.3,22.55 12.9,31.15 2.7,2.7 5.6,5 8.65,6.85 6.65,4.05 14.2,6.1 22.6,6.1 12.15,0 22.5,-4.35 31.1,-12.95 8.65,-8.6 12.95,-19 12.95,-31.15 0,-8.4 -2.05,-15.95 -6.2,-22.7 -1.85,-3 -4.1,-5.85 -6.75,-8.5 -8.6,-8.65 -18.95,-12.9 -31.1,-12.9 -12.25,0 -22.6,4.25 -31.25,12.9 -8.6,8.6 -12.9,19.05 -12.9,31.2 z m 12.9,206.5 c -8.6,8.6 -12.9,19.05 -12.9,31.2 0,12.2 4.3,22.6 12.9,31.2 2.7,2.7 5.6,5 8.65,6.85 6.65,4.05 14.2,6.1 22.6,6.1 12.15,0 22.5,-4.4 31.1,-12.95 8.65,-8.6 12.95,-19 12.95,-31.2 0,-8.4 -2.05,-15.95 -6.2,-22.65 -1.85,-3.05 -4.1,-5.9 -6.75,-8.55 -8.6,-8.6 -18.95,-12.9 -31.1,-12.9 -12.25,0 -22.6,4.3 -31.25,12.9 z M 767.75,362.8 c -1.85,-3.05 -4.1,-5.9 -6.75,-8.55 -8.65,-8.65 -19,-12.9 -31.15,-12.9 -12.2,0 -22.6,4.25 -31.2,12.9 -8.65,8.6 -12.9,19.05 -12.9,31.2 0,12.2 4.25,22.55 12.9,31.2 2.65,2.65 5.55,4.95 8.6,6.8 6.65,4.05 14.2,6.1 22.6,6.1 12.15,0 22.5,-4.35 31.15,-12.9 8.6,-8.65 12.9,-19 12.9,-31.2 0,-8.4 -2.05,-15.95 -6.15,-22.65 z m 43.6,-8.55 c -8.6,8.6 -12.85,19.05 -12.85,31.2 0,12.2 4.25,22.55 12.85,31.2 2.7,2.65 5.55,4.95 8.6,6.8 6.7,4.05 14.25,6.1 22.65,6.1 12.15,0 22.5,-4.35 31.1,-12.9 8.65,-8.65 12.95,-19 12.95,-31.2 0,-8.4 -2.05,-15.95 -6.15,-22.65 -1.85,-3.05 -4.15,-5.9 -6.8,-8.55 -8.6,-8.65 -18.95,-12.9 -31.1,-12.9 -12.25,0 -22.6,4.25 -31.25,12.9 z M 698.65,473.1 c -8.65,8.6 -12.9,19.05 -12.9,31.2 0,12.2 4.25,22.6 12.9,31.2 2.7,2.7 5.55,5 8.6,6.85 6.65,4.05 14.2,6.1 22.6,6.1 12.15,0 22.5,-4.4 31.15,-12.95 8.6,-8.6 12.9,-19 12.9,-31.2 0,-8.4 -2.05,-15.95 -6.15,-22.65 -1.85,-3.05 -4.1,-5.9 -6.75,-8.55 -8.65,-8.6 -19,-12.9 -31.15,-12.9 -12.2,0 -22.6,4.3 -31.2,12.9 z m 112.7,0 c -8.6,8.6 -12.85,19.05 -12.85,31.2 0,12.2 4.25,22.6 12.85,31.2 2.7,2.7 5.6,5 8.65,6.85 6.65,4.05 14.2,6.1 22.6,6.1 12.15,0 22.5,-4.4 31.1,-12.95 8.65,-8.6 12.95,-19 12.95,-31.2 0,-8.4 -2.05,-15.95 -6.2,-22.65 -1.85,-3.05 -4.1,-5.9 -6.75,-8.55 -8.6,-8.6 -18.95,-12.9 -31.1,-12.9 -12.25,0 -22.6,4.3 -31.25,12.9 z m 62.35,118.85 c -8.6,-8.55 -18.95,-12.9 -31.1,-12.9 -12.25,0 -22.6,4.35 -31.25,12.9 -8.6,8.65 -12.85,19.05 -12.85,31.25 0,12.15 4.25,22.55 12.85,31.15 2.7,2.7 5.55,5 8.6,6.85 6.7,4.05 14.25,6.1 22.65,6.1 12.15,0 22.5,-4.35 31.1,-12.95 8.65,-8.6 12.95,-19 12.95,-31.15 0,-8.4 -2.05,-15.95 -6.15,-22.7 -1.85,-3 -4.15,-5.85 -6.8,-8.55 z m -105.95,8.55 c -1.85,-3 -4.1,-5.85 -6.75,-8.55 -8.65,-8.55 -19,-12.9 -31.15,-12.9 -12.2,0 -22.6,4.35 -31.2,12.9 -8.65,8.65 -12.9,19.05 -12.9,31.25 0,12.15 4.25,22.55 12.9,31.15 2.65,2.7 5.55,5 8.6,6.85 6.65,4.05 14.2,6.1 22.6,6.1 12.15,0 22.5,-4.35 31.15,-12.95 8.6,-8.6 12.9,-19 12.9,-31.15 0,-8.4 -2.05,-15.95 -6.15,-22.7 z m -112.7,0 c -1.85,-3 -4.15,-5.85 -6.8,-8.55 -8.6,-8.55 -18.95,-12.9 -31.1,-12.9 -12.25,0 -22.6,4.35 -31.25,12.9 -8.6,8.65 -12.9,19.05 -12.9,31.25 0,12.15 4.3,22.55 12.9,31.15 2.7,2.7 5.55,5 8.6,6.85 6.7,4.05 14.25,6.1 22.65,6.1 12.15,0 22.5,-4.35 31.1,-12.95 8.65,-8.6 12.95,-19 12.95,-31.15 0,-8.4 -2.05,-15.95 -6.15,-22.7 z m 6.15,141.55 c 0,-8.4 -2.05,-15.95 -6.15,-22.7 -1.85,-3 -4.15,-5.85 -6.8,-8.55 -8.6,-8.55 -18.95,-12.85 -31.1,-12.85 -12.25,0 -22.6,4.3 -31.25,12.85 -8.6,8.65 -12.9,19.05 -12.9,31.25 0,12.15 4.3,22.55 12.9,31.15 2.7,2.7 5.55,5 8.6,6.85 6.7,4.05 14.25,6.1 22.65,6.1 12.15,0 22.5,-4.35 31.1,-12.95 8.65,-8.6 12.95,-19 12.95,-31.15 z M 573,860.9 c 0,12.15 4.3,22.55 12.9,31.15 2.7,2.7 5.55,5 8.6,6.85 6.7,4.05 14.25,6.1 22.65,6.1 12.15,0 22.5,-4.35 31.1,-12.95 8.65,-8.6 12.95,-19 12.95,-31.15 0,-8.4 -2.05,-15.95 -6.15,-22.7 -1.85,-3 -4.15,-5.85 -6.8,-8.55 -8.6,-8.55 -18.95,-12.85 -31.1,-12.85 -12.25,0 -22.6,4.3 -31.25,12.85 -8.6,8.65 -12.9,19.1 -12.9,31.25 z M 773.9,742.05 c 0,-8.4 -2.05,-15.95 -6.15,-22.7 -1.85,-3 -4.1,-5.85 -6.75,-8.55 -8.65,-8.55 -19,-12.85 -31.15,-12.85 -12.2,0 -22.6,4.3 -31.2,12.85 -8.65,8.65 -12.9,19.05 -12.9,31.25 0,12.15 4.25,22.55 12.9,31.15 2.65,2.7 5.55,5 8.6,6.85 6.65,4.05 14.2,6.1 22.6,6.1 12.15,0 22.5,-4.35 31.15,-12.95 8.6,-8.6 12.9,-19 12.9,-31.15 z M 135,354.25 c -8.65,8.6 -12.9,19.05 -12.9,31.2 0,12.2 4.25,22.55 12.9,31.2 2.65,2.65 5.55,4.95 8.6,6.8 6.65,4.05 14.2,6.1 22.6,6.1 12.2,0 22.5,-4.35 31.15,-12.9 8.6,-8.65 12.95,-19 12.95,-31.2 0,-8.4 -2.05,-15.95 -6.15,-22.65 -1.85,-3.05 -4.15,-5.9 -6.8,-8.55 -8.65,-8.65 -18.95,-12.9 -31.15,-12.9 -12.2,0 -22.6,4.25 -31.2,12.9 z m 0,118.85 c -8.65,8.6 -12.9,19.05 -12.9,31.2 0,12.2 4.25,22.6 12.9,31.2 2.7,2.7 5.55,5 8.6,6.85 6.65,4.05 14.2,6.1 22.6,6.1 12.2,0 22.5,-4.4 31.15,-12.95 8.6,-8.6 12.95,-19 12.95,-31.2 0,-8.35 -2.05,-15.9 -6.15,-22.65 -1.85,-3.05 -4.15,-5.9 -6.8,-8.55 -8.65,-8.6 -18.95,-12.9 -31.15,-12.9 -12.2,0 -22.6,4.3 -31.2,12.9 z M 429.6,243.95 c -1.85,-3.05 -4.1,-5.9 -6.8,-8.55 -8.6,-8.65 -18.95,-12.9 -31.15,-12.9 -12.2,0 -22.6,4.25 -31.2,12.9 -8.6,8.6 -12.9,19.05 -12.9,31.2 0,12.15 4.3,22.55 12.9,31.15 2.7,2.7 5.55,4.95 8.6,6.8 6.7,4.1 14.25,6.15 22.6,6.15 12.2,0 22.55,-4.35 31.15,-12.95 8.6,-8.6 13,-19 13,-31.15 0,-8.4 -2.05,-15.95 -6.2,-22.65 z M 316.9,362.8 c -1.85,-3.05 -4.15,-5.9 -6.85,-8.55 -8.6,-8.65 -18.95,-12.9 -31.1,-12.9 -12.2,0 -22.6,4.25 -31.25,12.9 -8.6,8.6 -12.85,19.05 -12.85,31.2 0,12.2 4.25,22.55 12.85,31.2 2.7,2.65 5.55,4.95 8.6,6.8 6.7,4.05 14.25,6.1 22.65,6.1 12.15,0 22.5,-4.35 31.1,-12.9 8.65,-8.65 13,-19 13,-31.2 0,-8.4 -2.05,-15.95 -6.15,-22.65 z m -69.2,110.3 c -8.6,8.6 -12.85,19.05 -12.85,31.2 0,12.2 4.25,22.6 12.85,31.2 2.7,2.7 5.6,5 8.65,6.85 6.65,4.05 14.2,6.1 22.6,6.1 12.15,0 22.5,-4.4 31.1,-12.95 8.65,-8.6 13,-19 13,-31.2 0,-8.35 -2.05,-15.9 -6.2,-22.65 -1.85,-3.05 -4.15,-5.9 -6.8,-8.55 -8.6,-8.6 -18.95,-12.9 -31.1,-12.9 -12.2,0 -22.6,4.3 -31.25,12.9 z m 181.95,8.6 c -1.85,-3.05 -4.15,-5.9 -6.85,-8.6 -8.6,-8.6 -18.95,-12.9 -31.15,-12.9 -12.2,0 -22.6,4.3 -31.2,12.9 -8.6,8.6 -12.9,19.05 -12.9,31.2 0,12.2 4.3,22.6 12.9,31.2 2.7,2.7 5.55,4.95 8.6,6.8 6.7,4.1 14.25,6.15 22.6,6.15 12.2,0 22.55,-4.4 31.15,-12.95 8.6,-8.6 13,-19 13,-31.2 0,-8.35 -2.05,-15.9 -6.15,-22.6 z m 0,118.85 c -1.85,-3.05 -4.15,-5.9 -6.85,-8.6 -8.6,-8.55 -18.95,-12.9 -31.15,-12.9 -12.2,0 -22.6,4.35 -31.2,12.9 -8.6,8.65 -12.9,19.05 -12.9,31.25 0,12.15 4.3,22.55 12.9,31.15 2.65,2.65 5.5,4.95 8.55,6.8 6.7,4.1 14.25,6.15 22.65,6.15 12.2,0 22.55,-4.35 31.15,-12.95 8.6,-8.6 13,-19 13,-31.15 0,-8.35 -2.05,-15.9 -6.15,-22.65 z m -112.75,0 c -1.85,-3.05 -4.15,-5.9 -6.85,-8.6 -8.6,-8.55 -18.95,-12.9 -31.1,-12.9 -12.2,0 -22.6,4.35 -31.25,12.9 -8.6,8.65 -12.85,19.05 -12.85,31.25 0,12.15 4.25,22.55 12.85,31.15 2.7,2.7 5.55,5 8.6,6.85 6.7,4.05 14.25,6.1 22.65,6.1 12.15,0 22.5,-4.35 31.1,-12.95 8.65,-8.6 13,-19 13,-31.15 0,-8.4 -2.05,-15.95 -6.15,-22.65 z m -112.75,0 c -1.85,-3.05 -4.15,-5.9 -6.8,-8.6 -8.65,-8.55 -18.95,-12.9 -31.15,-12.9 -12.2,0 -22.6,4.35 -31.2,12.9 -8.65,8.65 -12.9,19.05 -12.9,31.25 0,12.15 4.25,22.55 12.9,31.15 2.65,2.7 5.55,5 8.6,6.85 6.65,4.05 14.2,6.1 22.6,6.1 12.2,0 22.5,-4.35 31.15,-12.95 8.6,-8.6 12.95,-19 12.95,-31.15 0,-8.4 -2.05,-15.95 -6.15,-22.65 z m 118.9,141.5 c 0,-8.4 -2.05,-15.95 -6.15,-22.65 -1.85,-3.05 -4.15,-5.9 -6.85,-8.6 -8.6,-8.55 -18.95,-12.85 -31.1,-12.85 -12.2,0 -22.6,4.3 -31.25,12.85 -8.6,8.65 -12.85,19.05 -12.85,31.25 0,12.15 4.25,22.55 12.85,31.15 2.7,2.7 5.55,5 8.6,6.85 6.7,4.05 14.25,6.1 22.65,6.1 12.15,0 22.5,-4.35 31.1,-12.95 8.65,-8.6 13,-19 13,-31.15 z m 106.6,-22.65 c -1.85,-3.05 -4.15,-5.9 -6.85,-8.6 -8.6,-8.55 -18.95,-12.85 -31.15,-12.85 -12.2,0 -22.6,4.3 -31.2,12.85 -8.6,8.65 -12.9,19.05 -12.9,31.25 0,12.15 4.3,22.55 12.9,31.15 2.65,2.65 5.5,4.95 8.55,6.8 6.7,4.1 14.25,6.15 22.65,6.15 12.2,0 22.55,-4.35 31.15,-12.95 8.6,-8.6 13,-19 13,-31.15 0,-8.35 -2.05,-15.9 -6.15,-22.65 z"
               inkscape:connector-curvature="0"
               style="fill:#64a2f1;fill-opacity:1" />
          </g>
        </g>
      </g>
    </g>
  </g>
</svg>
