<?xml version="1.0" encoding="UTF-8" standalone="no"?>
<svg
   xmlns:dc="http://purl.org/dc/elements/1.1/"
   xmlns:cc="http://creativecommons.org/ns#"
   xmlns:rdf="http://www.w3.org/1999/02/22-rdf-syntax-ns#"
   xmlns:svg="http://www.w3.org/2000/svg"
   xmlns="http://www.w3.org/2000/svg"
   xmlns:xlink="http://www.w3.org/1999/xlink"
   xmlns:sodipodi="http://sodipodi.sourceforge.net/DTD/sodipodi-0.dtd"
   xmlns:inkscape="http://www.inkscape.org/namespaces/inkscape"
   id="svg2"
   height="48"
   version="1.1"
   width="48"
   inkscape:version="0.91 r13725"
   sodipodi:docname="bluegriffon.svg">
  <sodipodi:namedview
     pagecolor="#ffffff"
     bordercolor="#666666"
     borderopacity="1"
     objecttolerance="10"
     gridtolerance="10"
     guidetolerance="10"
     inkscape:pageopacity="0"
     inkscape:pageshadow="2"
     inkscape:window-width="1366"
     inkscape:window-height="699"
     id="namedview15"
     showgrid="false"
     inkscape:zoom="2.2973967"
     inkscape:cx="18.057126"
     inkscape:cy="18.926734"
     inkscape:window-x="0"
     inkscape:window-y="0"
     inkscape:window-maximized="1"
     inkscape:current-layer="layer1" />
  <defs
     id="defs5455">
    <linearGradient
       gradientUnits="userSpaceOnUse"
       x2="0"
       y2="503.798"
       y1="543.79797"
       id="linearGradient4174"
       xlink:href="#linearGradient4303" />
    <linearGradient
       id="linearGradient4303">
      <stop
         id="stop4305"
         style="stop-color:#c6cdd1" />
      <stop
         id="stop4307"
         style="stop-color:#e0e5e7"
         offset="1" />
    </linearGradient>
    <clipPath
       id="clipPath-790372096">
      <g
         transform="translate(0,-1004.3622)"
         id="g17">
        <path
           inkscape:connector-curvature="0"
           d="m -24,13 c 0,1.105 -0.672,2 -1.5,2 -0.828,0 -1.5,-0.895 -1.5,-2 0,-1.105 0.672,-2 1.5,-2 0.828,0 1.5,0.895 1.5,2 z"
           transform="matrix(15.333333,0,0,11.5,414.99999,878.8622)"
           style="fill:#1890d0"
           id="path19" />
      </g>
    </clipPath>
    <linearGradient
       id="linearGradient4422">
      <stop
         style="stop-color:#30cf41;stop-opacity:1"
         offset="0"
         id="stop4424" />
      <stop
         style="stop-color:#47f383;stop-opacity:1"
         offset="1"
         id="stop4426" />
    </linearGradient>
    <linearGradient
       id="linearGradient4232">
      <stop
         id="stop4234-0"
         offset="0"
         style="stop-color:#3889e9;stop-opacity:1" />
      <stop
         id="stop4236"
         offset="1"
         style="stop-color:#5ea5fb;stop-opacity:1" />
    </linearGradient>
    <linearGradient
       xlink:href="#linearGradient5617"
       id="2"
       x1="375.73001"
       y1="576.15997"
       x2="376.76001"
       y2="536.29999"
       gradientUnits="userSpaceOnUse"
       gradientTransform="matrix(0.82410188,0,0,0.8223104,97.996409,67.628495)" />
    <linearGradient
       id="1">
      <stop
         stop-color="#981fe7"
         id="stop10" />
      <stop
         offset="1"
         stop-color="#db50c8"
         id="stop12" />
    </linearGradient>
    <linearGradient
       id="linearGradient5617">
      <stop
         style="stop-color:#9559b6;stop-opacity:1;"
         offset="0"
         id="stop5619" />
      <stop
         id="stop5621"
         offset="1"
         style="stop-color:#8e44ad;stop-opacity:1;" />
    </linearGradient>
    <linearGradient
       gradientUnits="userSpaceOnUse"
       y2="534.56"
       x2="264.45001"
       y1="544.13"
       x1="264.89999"
       id="0-5">
      <stop
         id="stop7-4"
         stop-color="#d8d8d8" />
      <stop
         id="stop9-2"
         stop-color="#f9f9f9"
         offset="1" />
    </linearGradient>
    <linearGradient
       gradientTransform="matrix(0.32171853,0,0,0.32171853,264.31299,367.60272)"
       inkscape:collect="always"
       xlink:href="#linearGradient3347"
       id="linearGradient3353"
       x1="376.91925"
       y1="410.05887"
       x2="528.57141"
       y2="561.71106"
       gradientUnits="userSpaceOnUse" />
    <linearGradient
       inkscape:collect="always"
       id="linearGradient3347">
      <stop
         style="stop-color:#006680;stop-opacity:1;"
         offset="0"
         id="stop3349" />
      <stop
         id="stop3355"
         offset="0.25229359"
         style="stop-color:#80b3ff;stop-opacity:1" />
      <stop
         style="stop-color:#0066ff;stop-opacity:1"
         offset="0.45871562"
         id="stop3357" />
      <stop
         id="stop3359"
         offset="0.8990826"
         style="stop-color:#002255;stop-opacity:1" />
      <stop
         style="stop-color:#006680;stop-opacity:0;"
         offset="1"
         id="stop3351" />
    </linearGradient>
  </defs>
  <metadata
     id="metadata5458">
    <rdf:RDF>
      <cc:Work
         rdf:about="">
        <dc:format>image/svg+xml</dc:format>
        <dc:type
           rdf:resource="http://purl.org/dc/dcmitype/StillImage" />
        <dc:title></dc:title>
      </cc:Work>
    </rdf:RDF>
  </metadata>
  <g
     transform="matrix(1 0 0 1 -384.57143 -499.798)"
     id="layer1">
    <path
       style="fill:url(#linearGradient3353);fill-opacity:1"
       d="m 427.6817,504.1539 c 0,-0.0545 -0.6107,0.36965 -1.35755,0.94216 -7.02553,5.38564 -15.80707,10.09562 -20.72404,11.11576 l -0.92702,0.19263 -0.35148,0.93823 c -1.22452,3.27231 -4.70544,5.59291 -10.16274,6.77457 -0.86221,0.18673 -1.7872,0.45299 -2.0553,0.59154 -0.82828,0.42807 -1.7907,1.40748 -2.2258,2.2656 -0.35151,0.69299 -0.40589,0.9919 -0.35279,1.93129 0.0447,0.79066 0.152,1.20941 0.37175,1.45208 0.29551,0.32639 1.03216,0.49758 0.84602,0.19653 -0.14636,-0.23676 0.54713,-0.99147 1.23279,-1.34109 1.11023,-0.56604 2.83507,-0.83358 4.63974,-0.80892 0.32223,0.006 0.70988,0.0201 0.97726,0.0412 1.35143,0.0972 2.69494,0.35609 3.81006,0.77956 0.59962,0.22774 1.10743,0.50086 1.51957,0.80831 1.53869,0.80113 2.8331,1.84352 3.92045,3.04711 9.2e-4,-0.04 0.005,-0.078 0.005,-0.11878 0.007,-0.79126 0.0339,-1.43869 0.0587,-1.43903 0.0248,-3.1e-4 0.12287,0.20237 0.21754,0.45116 0.22954,0.60248 0.34914,1.23667 0.37172,1.87449 2.06386,2.60534 3.28432,5.81508 4.00083,8.91354 0.95505,-1.65384 1.85981,-3.84111 1.86385,-4.73425 0.006,-1.32221 0.92259,1.27313 1.21188,3.43169 l 0.19993,1.49451 0.36258,-0.90493 c 0.60609,-1.51317 0.89073,-3.09535 0.89242,-4.95885 9.2e-4,-0.96327 -0.0472,-1.90691 -0.10782,-2.09714 -0.0603,-0.19025 -0.044,-0.34605 0.0368,-0.34605 0.19847,0 1.77699,1.60755 2.18136,2.2212 0.38158,0.57899 0.41054,0.32614 0.0973,-0.84944 -0.82828,-3.10897 -3.20396,-6.03802 -6.59376,-8.13001 l -1.30988,-0.80829 0.652,-0.0194 c 0.35831,-0.0105 0.87365,-0.0697 1.14526,-0.13121 l 0.49386,-0.11168 -0.65851,-0.22395 -0.65851,-0.22461 1.05506,-0.21545 c 0.58044,-0.11849 1.58088,-0.46396 2.22255,-0.76782 l 1.16615,-0.55238 -1.48107,0.0587 -1.48168,0.0587 1.1524,-0.38851 c 1.60334,-0.5408 4.67934,-2.15487 4.48233,-2.35178 -0.0277,-0.0281 -0.60367,0.093 -1.27917,0.26836 -1.98593,0.51539 -2.19558,0.4025 -0.6435,-0.34669 1.51092,-0.72933 3.63737,-2.10159 4.68221,-3.02168 l 0.65853,-0.57977 -1.23407,0.55627 c -1.04836,0.47251 -3.44128,1.249 -3.84927,1.249 -0.0688,0 0.35292,-0.24884 0.93683,-0.553 1.67188,-0.8709 3.18273,-2.02429 5.05134,-3.85478 l 1.72864,-1.69365 -1.39872,0.73844 c -1.32292,0.69798 -4.11516,1.95164 -4.11516,1.84776 0,-0.0264 0.352,-0.29691 0.78201,-0.60069 1.66856,-1.17869 4.62249,-4.293 6.37097,-6.71647 l 0.63505,-0.87949 -1.55684,1.21571 c -1.66213,1.2985 -5.0569,3.49926 -5.19112,3.36512 -0.0442,-0.0443 0.12098,-0.21287 0.36717,-0.37414 0.72684,-0.47595 3.92619,-4.08774 5.685,-6.41742 0.89716,-1.18837 1.63131,-2.20523 1.63131,-2.25973 z"
       id="path4264"
       inkscape:connector-curvature="0"
       sodipodi:nodetypes="csccccccccccccscccccccccccccscccccccccccccccccscccsccccsscccccscc" />
  </g>
</svg>
