<?xml version="1.0" encoding="UTF-8" standalone="no"?>
<svg
   xmlns:dc="http://purl.org/dc/elements/1.1/"
   xmlns:cc="http://creativecommons.org/ns#"
   xmlns:rdf="http://www.w3.org/1999/02/22-rdf-syntax-ns#"
   xmlns:svg="http://www.w3.org/2000/svg"
   xmlns="http://www.w3.org/2000/svg"
   xmlns:xlink="http://www.w3.org/1999/xlink"
   id="svg2"
   height="48"
   version="1.1"
   width="48">
  <defs
     id="defs5455">
    <linearGradient
       gradientUnits="userSpaceOnUse"
       x2="0"
       y2="503.798"
       y1="543.79797"
       id="linearGradient4300"
       xlink:href="#linearGradient4722" />
    <linearGradient
       id="linearGradient4722">
      <stop
         id="stop4724"
         style="stop-color:#a1adb3" />
      <stop
         id="stop4726"
         style="stop-color:#bfc7cb"
         offset="1" />
    </linearGradient>
    <clipPath
       id="clipPath-673761041">
      <g
         id="g17"
         transform="translate(0,-1004.3622)">
        <path
           id="path19"
           transform="matrix(15.333333,0,0,11.5,414.99999,878.8622)"
           d="m -24,13 c 0,1.105 -0.672,2 -1.5,2 -0.828,0 -1.5,-0.895 -1.5,-2 0,-1.105 0.672,-2 1.5,-2 0.828,0 1.5,0.895 1.5,2 z"
           style="fill:#1890d0" />
      </g>
    </clipPath>
  </defs>
  <metadata
     id="metadata5458">
    <rdf:RDF>
      <cc:Work
         rdf:about="">
        <dc:format>image/svg+xml</dc:format>
        <dc:type
           rdf:resource="http://purl.org/dc/dcmitype/StillImage" />
        <dc:title></dc:title>
      </cc:Work>
    </rdf:RDF>
  </metadata>
  <g
     transform="matrix(1 0 0 1 -384.57143 -499.798)"
     id="layer1">
    <ellipse
       id="path4193"
       style="fill:url(#linearGradient4300)"
       ry="20"
       rx="19.999985"
       cy="523.79797"
       cx="408.57144" />
    <path
       transform="matrix(1 0 0 1 384.57143 499.798)"
       d="M 43.978516 23.417969 A 19.999985 20 0 0 1 24 43 A 19.999985 20 0 0 1 4.0214844 23.582031 A 19.999985 20 0 0 0 4 24 A 19.999985 20 0 0 0 24 44 A 19.999985 20 0 0 0 44 24 A 19.999985 20 0 0 0 43.978516 23.417969 z "
       id="ellipse4461"
       style="fill:#737b81" />
    <g
       id="g71"
       transform="translate(384.77246,498.37545)">
      <g
         id="g73"
         clip-path="url(#clipPath-673761041)">
        <!-- color: #d8c8bc -->
        <g
           id="g75">
          <path
             id="path77"
             d="m 26,23 c 0,1.996 0,4.922 0,7 l 1,0 0,-5.996 2,0 0,-1 M 26,23"
             style="fill:#2d2d2d;fill-opacity:1;fill-rule:nonzero;stroke:none" />
          <path
             id="path79"
             d="m 17,15 c 0,1.996 0,3.918 0,5.996 l 1,0 0,-5 4,0 L 22,15 m -5,0"
             style="fill:#2d2d2d;fill-opacity:1;fill-rule:nonzero;stroke:none" />
          <path
             id="path81"
             stroke-miterlimit="4"
             transform="matrix(0,3.543307,-3.543307,0,0,0)"
             d="m 3.56,-7.28 1.346,0 c 0.064,0 0.116,0.043 0.116,0.09 l 0,0.833 c 0,0.05 -0.052,0.087 -0.116,0.087 l -1.346,0 c -0.064,0 -0.116,-0.04 -0.116,-0.087 l 0,-0.833 c 0,-0.05 0.052,-0.09 0.116,-0.09 m 0,0"
             style="fill:#d6cfba;fill-opacity:1;fill-rule:nonzero;stroke:#6f6751;stroke-width:0.115;stroke-linecap:butt;stroke-linejoin:miter;stroke-miterlimit:4;stroke-opacity:1" />
          <path
             id="path83"
             d="m 22,23 c 0,1.996 0,4.922 0,7 l -1,0 0,-5.996 -1.996,0 0,-1 M 22,23"
             style="fill:#2d2d2d;fill-opacity:1;fill-rule:nonzero;stroke:none" />
          <path
             id="path85"
             stroke-miterlimit="4"
             transform="matrix(0,3.543307,-3.543307,0,0,0)"
             d="m 6.1,-5.587 1.346,0 c 0.064,0 0.116,0.041 0.116,0.09 l 0,0.831 c 0,0.051 -0.052,0.089 -0.116,0.089 l -1.346,0 c -0.064,0 -0.116,-0.041 -0.116,-0.089 l 0,-0.831 c 0,-0.052 0.052,-0.09 0.116,-0.09 m 0,0"
             style="fill:#d6cfba;fill-opacity:1;fill-rule:nonzero;stroke:#6f6751;stroke-width:0.115;stroke-linecap:butt;stroke-linejoin:miter;stroke-miterlimit:4;stroke-opacity:1" />
          <path
             id="path87"
             stroke-miterlimit="4"
             transform="matrix(0,3.543307,-3.543307,0,0,0)"
             d="m 6.1,-8.973 1.346,0 c 0.064,0 0.116,0.04 0.116,0.088 l 0,0.832 c 0,0.05 -0.052,0.09 -0.116,0.09 l -1.346,0 c -0.064,0 -0.116,-0.042 -0.116,-0.09 l 0,-0.832 c 0,-0.051 0.052,-0.088 0.116,-0.088 m 0,0"
             style="fill:#d6cfba;fill-opacity:1;fill-rule:nonzero;stroke:#6f6751;stroke-width:0.115;stroke-linecap:butt;stroke-linejoin:miter;stroke-miterlimit:4;stroke-opacity:1" />
          <path
             id="path89"
             stroke-miterlimit="4"
             transform="matrix(0,3.543307,-3.543307,0,0,0)"
             d="m 8.64,-6.433 1.346,0 c 0.064,0 0.116,0.04 0.116,0.088 l 0,0.832 c 0,0.05 -0.052,0.09 -0.116,0.09 l -1.346,0 c -0.064,0 -0.116,-0.042 -0.116,-0.09 l 0,-0.832 c 0,-0.051 0.052,-0.088 0.116,-0.088 m 0,0"
             style="fill:#d6cfba;fill-opacity:1;fill-rule:nonzero;stroke:#6f6751;stroke-width:0.115;stroke-linecap:butt;stroke-linejoin:miter;stroke-miterlimit:4;stroke-opacity:1" />
          <path
             id="path91"
             stroke-miterlimit="4"
             transform="matrix(0,3.543307,-3.543307,0,0,0)"
             d="m 8.64,-8.127 1.346,0 c 0.064,0 0.116,0.041 0.116,0.09 l 0,0.831 c 0,0.051 -0.052,0.089 -0.116,0.089 l -1.346,0 c -0.064,0 -0.116,-0.041 -0.116,-0.089 l 0,-0.831 c 0,-0.052 0.052,-0.09 0.116,-0.09 m 0,0"
             style="fill:#d6cfba;fill-opacity:1;fill-rule:nonzero;stroke:#6f6751;stroke-width:0.115;stroke-linecap:butt;stroke-linejoin:miter;stroke-miterlimit:4;stroke-opacity:1" />
          <path
             id="path93"
             stroke-miterlimit="4"
             transform="matrix(0,3.543307,-3.543307,0,0,0)"
             d="m 8.64,-10.1 1.346,0 c 0.064,0 0.116,0.043 0.116,0.09 l 0,0.833 c 0,0.05 -0.052,0.087 -0.116,0.087 l -1.346,0 c -0.064,0 -0.116,-0.04 -0.116,-0.087 l 0,-0.833 c 0,-0.05 0.052,-0.09 0.116,-0.09 m 0,0"
             style="fill:#d6cfba;fill-opacity:1;fill-rule:nonzero;stroke:#6f6751;stroke-width:0.115;stroke-linecap:butt;stroke-linejoin:miter;stroke-miterlimit:4;stroke-opacity:1" />
          <path
             id="path95"
             stroke-miterlimit="4"
             transform="matrix(0,3.543307,-3.543307,0,0,0)"
             d="m 8.64,-4.458 1.346,0 c 0.064,0 0.116,0.041 0.116,0.09 l 0,0.832 c 0,0.051 -0.052,0.088 -0.116,0.088 l -1.346,0 c -0.064,0 -0.116,-0.04 -0.116,-0.088 l 0,-0.832 c 0,-0.051 0.052,-0.09 0.116,-0.09 m 0,0"
             style="fill:#d6cfba;fill-opacity:1;fill-rule:nonzero;stroke:#6f6751;stroke-width:0.115;stroke-linecap:butt;stroke-linejoin:miter;stroke-miterlimit:4;stroke-opacity:1" />
          <path
             id="path97"
             d="m 31,15 c 0,1.996 0,3.918 0,5.996 l -1,0 0,-5 -4,0 L 26,15 m 5,0"
             style="fill:#2d2d2d;fill-opacity:1;fill-rule:nonzero;stroke:none" />
          <path
             id="path99"
             d="m 13,23 c 0,1.996 0,4.922 0,7 l 1,0 0,-5.996 1.996,0 0,-1 M 13,23"
             style="fill:#2d2d2d;fill-opacity:1;fill-rule:nonzero;stroke:none" />
          <path
             id="path101"
             d="m 35,23 c 0,1.996 0,4.922 0,7 l -1,0 0,-5.996 -1.996,0 0,-1 M 35,23"
             style="fill:#2d2d2d;fill-opacity:1;fill-rule:nonzero;stroke:none" />
        </g>
      </g>
    </g>
  </g>
</svg>
