<?xml version="1.0" encoding="UTF-8" standalone="no"?>
<svg
   xmlns:dc="http://purl.org/dc/elements/1.1/"
   xmlns:cc="http://creativecommons.org/ns#"
   xmlns:rdf="http://www.w3.org/1999/02/22-rdf-syntax-ns#"
   xmlns:svg="http://www.w3.org/2000/svg"
   xmlns="http://www.w3.org/2000/svg"
   xmlns:xlink="http://www.w3.org/1999/xlink"
   xmlns:sodipodi="http://sodipodi.sourceforge.net/DTD/sodipodi-0.dtd"
   xmlns:inkscape="http://www.inkscape.org/namespaces/inkscape"
   id="svg2"
   height="48"
   version="1.1"
   width="48"
   inkscape:version="0.91 r13725"
   sodipodi:docname="homebank.svg">
  <sodipodi:namedview
     pagecolor="#ffffff"
     bordercolor="#666666"
     borderopacity="1"
     objecttolerance="10"
     gridtolerance="10"
     guidetolerance="10"
     inkscape:pageopacity="0"
     inkscape:pageshadow="2"
     inkscape:window-width="1366"
     inkscape:window-height="699"
     id="namedview15"
     showgrid="false"
     inkscape:zoom="4.9166667"
     inkscape:cx="-42.81356"
     inkscape:cy="32.135593"
     inkscape:window-x="0"
     inkscape:window-y="0"
     inkscape:window-maximized="1"
     inkscape:current-layer="layer1" />
  <defs
     id="defs5455">
    <linearGradient
       gradientUnits="userSpaceOnUse"
       x2="0"
       y2="503.798"
       y1="543.79797"
       id="linearGradient4174"
       xlink:href="#linearGradient4303" />
    <linearGradient
       id="linearGradient4303">
      <stop
         id="stop4305"
         style="stop-color:#c6cdd1" />
      <stop
         id="stop4307"
         style="stop-color:#e0e5e7"
         offset="1" />
    </linearGradient>
    <clipPath
       id="clipPath-790372096">
      <g
         transform="translate(0,-1004.3622)"
         id="g17">
        <path
           inkscape:connector-curvature="0"
           d="m -24,13 c 0,1.105 -0.672,2 -1.5,2 -0.828,0 -1.5,-0.895 -1.5,-2 0,-1.105 0.672,-2 1.5,-2 0.828,0 1.5,0.895 1.5,2 z"
           transform="matrix(15.333333,0,0,11.5,414.99999,878.8622)"
           style="fill:#1890d0"
           id="path19" />
      </g>
    </clipPath>
    <linearGradient
       id="linearGradient4422">
      <stop
         style="stop-color:#30cf41;stop-opacity:1"
         offset="0"
         id="stop4424" />
      <stop
         style="stop-color:#47f383;stop-opacity:1"
         offset="1"
         id="stop4426" />
    </linearGradient>
    <linearGradient
       id="linearGradient4232">
      <stop
         id="stop4234-0"
         offset="0"
         style="stop-color:#3889e9;stop-opacity:1" />
      <stop
         id="stop4236"
         offset="1"
         style="stop-color:#5ea5fb;stop-opacity:1" />
    </linearGradient>
    <linearGradient
       inkscape:collect="always"
       xlink:href="#0"
       id="linearGradient4205"
       x1="388.57144"
       y1="523.79797"
       x2="428.57144"
       y2="523.79797"
       gradientUnits="userSpaceOnUse" />
    <linearGradient
       xlink:href="#linearGradient5617"
       id="2"
       x1="375.73001"
       y1="576.15997"
       x2="376.76001"
       y2="536.29999"
       gradientUnits="userSpaceOnUse"
       gradientTransform="matrix(0.82410188,0,0,0.8223104,97.996409,67.628495)" />
    <linearGradient
       id="1">
      <stop
         stop-color="#981fe7"
         id="stop10" />
      <stop
         offset="1"
         stop-color="#db50c8"
         id="stop12" />
    </linearGradient>
    <linearGradient
       id="linearGradient5617">
      <stop
         style="stop-color:#9559b6;stop-opacity:1;"
         offset="0"
         id="stop5619" />
      <stop
         id="stop5621"
         offset="1"
         style="stop-color:#8e44ad;stop-opacity:1;" />
    </linearGradient>
    <linearGradient
       gradientTransform="matrix(17.289468,0,0,17.311981,-10226.808,-13689.817)"
       gradientUnits="userSpaceOnUse"
       y2="841.19"
       x2="0"
       y1="863.73999"
       id="0">
      <stop
         stop-color="#ff9300"
         id="stop7" />
      <stop
         offset="1"
         stop-color="#ffd702"
         id="stop9" />
    </linearGradient>
    <linearGradient
       gradientTransform="matrix(2.65715,0,0,2.66061,-1639.178,-2283.0696)"
       gradientUnits="userSpaceOnUse"
       y2="841.19"
       x2="0"
       y1="863.73999"
       id="linearGradient4151">
      <stop
         stop-color="#ff9300"
         id="stop4153" />
      <stop
         offset="1"
         stop-color="#ffd702"
         id="stop4155" />
    </linearGradient>
  </defs>
  <metadata
     id="metadata5458">
    <rdf:RDF>
      <cc:Work
         rdf:about="">
        <dc:format>image/svg+xml</dc:format>
        <dc:type
           rdf:resource="http://purl.org/dc/dcmitype/StillImage" />
        <dc:title></dc:title>
      </cc:Work>
    </rdf:RDF>
  </metadata>
  <g
     transform="matrix(1 0 0 1 -384.57143 -499.798)"
     id="layer1">
    <rect
       id="rect4166"
       style="stroke-opacity:0.550265;fill:url(#linearGradient4205);stroke-width:2.8;fill-opacity:1.0;opacity:0.9"
       height="39.999969"
       rx="19.999985"
       y="503.798"
       x="388.57144"
       width="39.999989" />
    <path
       transform="matrix(1 0 0 1 384.57143 499.798)"
       d="M 4.0117188 23.5 C 4.007647 23.666859 4 23.832126 4 24 C 4 35.079992 12.920008 44 24 44 C 35.079992 44 44 35.079992 44 24 C 44 23.832126 43.992353 23.666859 43.988281 23.5 C 43.724099 34.346571 34.912435 43 24 43 C 13.087565 43 4.2759007 34.346571 4.0117188 23.5 z "
       id="rect4775"
       style="stroke-opacity:0.550265;fill:#000000;stroke-width:2.8;fill-opacity:1;opacity:0.15" />
    <g
       transform="matrix(0.84919921,0,0,0.84919921,359.56019,524.67796)"
       id="g15"
       style="fill-opacity:0.797;enable-background:new">
      <path
         d="m 68.28,-7.846 c -1.138,-1.047 -2.457,-1.865 -3.873,-2.46 -0.184,0.278 -0.394,0.54 -0.634,0.779 -0.317,0.317 -0.672,0.588 -1.06,0.805 0.411,0.136 0.805,0.291 1.183,0.469 0.385,0.181 0.533,0.653 0.32,1.022 -0.188,0.327 -0.598,0.456 -0.938,0.294 -2.58,-1.219 -5.46,-0.989 -6.724,-0.798 -0.372,0.055 -0.727,-0.181 -0.815,-0.546 l 0,-0.003 c -0.1,-0.414 0.178,-0.824 0.598,-0.889 0.23,-0.036 0.508,-0.071 0.818,-0.1 -0.094,-0.081 -0.184,-0.165 -0.272,-0.252 -0.446,-0.446 -0.798,-0.967 -1.044,-1.548 -0.026,-0.061 -0.052,-0.126 -0.074,-0.188 -0.385,0.065 -0.766,0.145 -1.138,0.239 -2.166,-1.261 -4.765,-1.264 -6.31,-1.112 -0.672,0.065 -1.07,0.782 -0.776,1.39 l 1.309,2.683 c -1.455,1.267 -2.554,2.819 -3.171,4.548 l -1.597,-0.006 c -0.537,-0.003 -0.973,0.433 -0.973,0.97 l 0,3.582 c 0,0.362 0.2,0.692 0.52,0.86 l 2.072,1.08 c 0.866,2.389 2.661,4.439 5.03,5.851 l 0,3.171 c 0,0.624 0.508,1.131 1.131,1.131 l 2.903,0 c 0.449,0 0.857,-0.268 1.038,-0.679 l 0.727,-1.671 c 0.627,0.078 1.264,0.116 1.917,0.116 1.028,0 2.027,-0.097 2.987,-0.281 l 0,1.384 c 0,0.624 0.508,1.131 1.131,1.131 l 2.89,0 c 0.417,0 0.802,-0.23 0.999,-0.598 1.539,-2.89 3.21,-5.79 4.445,-8.816 0.624,-1.532 0.85,-3.158 0.714,-4.746 -0.22,-2.56 -1.384,-5.02 -3.333,-6.811 m -17.366,6.02 c -0.805,0 -1.455,-0.65 -1.455,-1.455 0,-0.805 0.65,-1.455 1.455,-1.455 0.805,0 1.455,0.65 1.455,1.455 0,0.805 -0.65,1.455 -1.455,1.455"
         id="path17"
         inkscape:connector-curvature="0" />
      <path
         d="m 58.89,-9.343 c 0.443,0.175 0.928,0.272 1.435,0.272 0.249,0 0.491,-0.023 0.724,-0.068 0.989,-0.184 1.846,-0.744 2.418,-1.523 0.475,-0.647 0.756,-1.445 0.756,-2.311 0.003,-2.156 -1.746,-3.902 -3.899,-3.902 -2.156,0 -3.902,1.746 -3.902,3.902 0,0.559 0.116,1.089 0.33,1.571 0.411,0.938 1.183,1.681 2.137,2.059"
         id="path19-6"
         inkscape:connector-curvature="0" />
    </g>
  </g>
</svg>
