<?xml version="1.0" encoding="UTF-8" standalone="no"?>
<!-- Created with Inkscape (http://www.inkscape.org/) -->

<svg
   xmlns:dc="http://purl.org/dc/elements/1.1/"
   xmlns:cc="http://creativecommons.org/ns#"
   xmlns:rdf="http://www.w3.org/1999/02/22-rdf-syntax-ns#"
   xmlns:svg="http://www.w3.org/2000/svg"
   xmlns="http://www.w3.org/2000/svg"
   xmlns:xlink="http://www.w3.org/1999/xlink"
   xmlns:sodipodi="http://sodipodi.sourceforge.net/DTD/sodipodi-0.dtd"
   xmlns:inkscape="http://www.inkscape.org/namespaces/inkscape"
   width="48"
   height="48"
   id="svg5453"
   version="1.1"
   inkscape:version="0.91 r13725"
   sodipodi:docname="jitsi.svg">
  <defs
     id="defs5455">
    <linearGradient
       inkscape:collect="always"
       xlink:href="#linearGradient4143"
       id="linearGradient4174"
       x1="409.57144"
       y1="543.79797"
       x2="409.57144"
       y2="503.798"
       gradientUnits="userSpaceOnUse"
       gradientTransform="translate(-5.9283447e-6,1.1108398e-5)" />
    <linearGradient
       id="linearGradient4143"
       inkscape:collect="always">
      <stop
         id="stop4145"
         offset="0"
         style="stop-color:#197cf1;stop-opacity:1" />
      <stop
         id="stop4147"
         offset="1"
         style="stop-color:#20bcfa;stop-opacity:1" />
    </linearGradient>
    <linearGradient
       id="linearGradient3795">
      <stop
         id="stop3797"
         offset="0"
         style="stop-color:#ff6302;stop-opacity:1" />
      <stop
         id="stop3799"
         offset="1"
         style="stop-color:#ffcf00;stop-opacity:1" />
    </linearGradient>
    <linearGradient
       id="linearGradient4091">
      <stop
         style="stop-color:#b9ddff;stop-opacity:1"
         offset="0"
         id="stop4093" />
      <stop
         style="stop-color:#f5fcff;stop-opacity:1"
         offset="1"
         id="stop4095" />
    </linearGradient>
    <clipPath
       id="clipPath-910713076">
      <g
         transform="translate(0,-1004.3622)"
         id="g17">
        <path
           style="fill:#1890d0"
           inkscape:connector-curvature="0"
           d="m -24,13 c 0,1.105 -0.672,2 -1.5,2 -0.828,0 -1.5,-0.895 -1.5,-2 0,-1.105 0.672,-2 1.5,-2 0.828,0 1.5,0.895 1.5,2 z"
           transform="matrix(15.333333,0,0,11.5,414.99999,878.8622)"
           id="path19" />
      </g>
    </clipPath>
  </defs>
  <sodipodi:namedview
     id="base"
     pagecolor="#ffffff"
     bordercolor="#666666"
     borderopacity="1.0"
     inkscape:pageopacity="0"
     inkscape:pageshadow="2"
     inkscape:zoom="8.0639959"
     inkscape:cx="20.861273"
     inkscape:cy="21.207043"
     inkscape:document-units="px"
     inkscape:current-layer="layer1"
     showgrid="false"
     fit-margin-top="0"
     fit-margin-left="0"
     fit-margin-right="0"
     fit-margin-bottom="0"
     inkscape:window-width="1366"
     inkscape:window-height="699"
     inkscape:window-x="0"
     inkscape:window-y="0"
     inkscape:window-maximized="1"
     inkscape:showpageshadow="false"
     borderlayer="true"
     showguides="false">
    <inkscape:grid
       type="xygrid"
       id="grid4063" />
    <sodipodi:guide
       position="1.1650391e-05,47.999996"
       orientation="4,0"
       id="guide4146" />
    <sodipodi:guide
       position="1.1650391e-05,43.999996"
       orientation="0,48"
       id="guide4148" />
    <sodipodi:guide
       position="48.000012,43.999996"
       orientation="-4,0"
       id="guide4150" />
    <sodipodi:guide
       position="48.000012,47.999996"
       orientation="0,-48"
       id="guide4152" />
    <sodipodi:guide
       position="1.1650391e-05,4.0000264"
       orientation="4,0"
       id="guide4154" />
    <sodipodi:guide
       position="1.1650391e-05,2.6367188e-05"
       orientation="0,48"
       id="guide4156" />
    <sodipodi:guide
       position="48.000012,2.6367188e-05"
       orientation="-4,0"
       id="guide4158" />
    <sodipodi:guide
       position="48.000012,4.0000264"
       orientation="0,-48"
       id="guide4160" />
    <sodipodi:guide
       position="48.000012,48.000026"
       orientation="0,-4"
       id="guide4162" />
    <sodipodi:guide
       position="44.000012,48.000026"
       orientation="48,0"
       id="guide4164" />
    <sodipodi:guide
       position="44.000012,2.6367188e-05"
       orientation="0,4"
       id="guide4166" />
    <sodipodi:guide
       position="48.000012,2.6367188e-05"
       orientation="-48,0"
       id="guide4168" />
    <sodipodi:guide
       position="4.0000422,48.000026"
       orientation="0,-4"
       id="guide4170" />
    <sodipodi:guide
       position="4.2167969e-05,48.000026"
       orientation="48,0"
       id="guide4172" />
    <sodipodi:guide
       position="4.2167969e-05,2.6367188e-05"
       orientation="0,4"
       id="guide4174" />
    <sodipodi:guide
       position="4.0000422,2.6367188e-05"
       orientation="-48,0"
       id="guide4176" />
    <sodipodi:guide
       position="4.0000117,47.999996"
       orientation="43.999969,0"
       id="guide4638" />
    <sodipodi:guide
       position="4.0000117,4.0000264"
       orientation="0,20"
       id="guide4640" />
    <sodipodi:guide
       position="24.000012,4.0000264"
       orientation="-43.999969,0"
       id="guide4642" />
    <sodipodi:guide
       position="24.000012,47.999996"
       orientation="0,-20"
       id="guide4644" />
    <sodipodi:guide
       position="4.0000422,24.000026"
       orientation="20,0"
       id="guide4666" />
    <sodipodi:guide
       position="4.0000422,4.0000264"
       orientation="0,39.999969"
       id="guide4668" />
    <sodipodi:guide
       position="44.000012,4.0000264"
       orientation="-20,0"
       id="guide4670" />
    <sodipodi:guide
       position="44.000012,24.000026"
       orientation="0,-39.999969"
       id="guide4672" />
  </sodipodi:namedview>
  <metadata
     id="metadata5458">
    <rdf:RDF>
      <cc:Work
         rdf:about="">
        <dc:format>image/svg+xml</dc:format>
        <dc:type
           rdf:resource="http://purl.org/dc/dcmitype/StillImage" />
        <dc:title></dc:title>
      </cc:Work>
    </rdf:RDF>
  </metadata>
  <g
     inkscape:label="Capa 1"
     inkscape:groupmode="layer"
     id="layer1"
     transform="translate(-384.57143,-499.798)">
    <rect
       style="opacity:1;fill:url(#linearGradient4174);fill-opacity:1;stroke:none;stroke-width:2.79999995;stroke-miterlimit:4;stroke-dasharray:none;stroke-opacity:0.55026455"
       id="rect4166"
       width="39.999989"
       height="39.999969"
       x="388.57144"
       y="503.798"
       ry="19.999985" />
    <path
       style="opacity:1;fill:#0c69cf;fill-opacity:1;stroke:none;stroke-width:2.79999995;stroke-miterlimit:4;stroke-dasharray:none;stroke-opacity:0.55026455"
       d="M 4.0117188 23.5 C 4.007647 23.666859 4 23.832126 4 24 C 4 35.079992 12.920008 44 24 44 C 35.079992 44 44 35.079992 44 24 C 44 23.832126 43.992353 23.666859 43.988281 23.5 C 43.724099 34.346571 34.912435 43 24 43 C 13.087565 43 4.2759007 34.346571 4.0117188 23.5 z "
       transform="translate(384.57143,499.798)"
       id="rect4775" />
    <g
       id="g65"
       transform="matrix(0.94926873,0,0,0.94926873,385.28652,500.22982)"
       style="fill:#ecf0f1;fill-opacity:1">
      <g
         clip-path="url(#clipPath-910713076)"
         id="g67"
         style="fill:#ecf0f1;fill-opacity:1">
        <!-- color: #266597 -->
        <g
           id="g69"
           style="fill:#ecf0f1;fill-opacity:1">
          <path
             d="m 31.941,18.309 c -0.645,0.152 -1.25,0.461 -1.781,0.844 -0.871,1.191 -2.078,2.152 -3.684,2.531 -0.609,-0.445 -1.352,-0.961 -1.859,-1.547 -2.324,0.266 -5.523,0.781 -6.074,3.02 -0.574,2.324 0.949,5.359 2.188,5.535 1.176,0.164 4.957,-0.887 6.785,-1.379 -1.531,-1.195 -3.293,-1.719 -4.254,-1.781 -1.133,-0.09 -2.109,0.113 -3.125,0.375 1.484,-0.957 2.828,-1.672 4.156,-1.938 0.996,-0.188 2.543,-0.195 4.402,0.5 2.305,0.863 2.855,2.094 4.473,2.648 1.07,-0.168 0.527,-1.355 0.305,-2.18 -0.148,-0.449 -0.266,-0.789 -0.313,-0.938 -0.082,-0.25 -1.238,-3.207 -1.406,-3.969 -0.113,-0.52 -0.016,-1.195 0.188,-1.723 m 0,0"
             id="path71"
             inkscape:connector-curvature="0"
             style="fill:#ecf0f1;fill-opacity:1;fill-rule:nonzero;stroke:none" />
          <path
             d="m 26.359,13.656 c -1.613,0.68 -1.668,1.965 -1.758,3.359 0.676,-0.613 2.801,-1.063 3.375,-1.559 1.695,-1.469 2.352,-4.504 1.996,-4.055 -1.152,1.457 -3.02,1.926 -3.613,2.254 m 0,0"
             id="path73"
             inkscape:connector-curvature="0"
             style="fill:#ecf0f1;fill-opacity:1;fill-rule:nonzero;stroke:none" />
          <path
             d="m 17.477,34.05 c 0,0 -1.602,-1.063 -1.57,-1.402 1.051,-5.699 -2.574,-1.645 -2.848,0.906 -0.289,2.449 0.613,5.273 0.746,5.445 0.215,-2 0.406,-3.109 3.672,-4.953 m 0,0.004"
             id="path75"
             inkscape:connector-curvature="0"
             style="fill:#ecf0f1;fill-opacity:1;fill-rule:nonzero;stroke:none" />
          <path
             d="m 34.988,21.492 c -0.082,-2.121 -1.414,-3.586 -2.32,-3.242 -0.387,0.145 -0.641,1.133 -0.508,1.746 0.445,2.18 2.277,4.699 1.824,6.855 -0.34,1.031 -3.348,1.672 -3.348,1.672 0,0 -0.059,0.883 -0.172,1.484 -0.137,0.73 -0.414,1.309 -0.414,1.309 0,0 0.715,0.641 0.742,0.641 0.031,0 4.5,-2.32 4.195,-10.465 m 0,0"
             id="path77"
             inkscape:connector-curvature="0"
             style="fill:#ecf0f1;fill-opacity:1;fill-rule:nonzero;stroke:none" />
          <path
             d="m 33,27.332 c -0.742,-0.301 -1,-0.43 -1.969,-1.148 -5.355,-4 -10.285,-0.535 -10.188,-0.57 0.887,-0.281 1.891,-0.535 3.191,-0.453 1.051,0.07 2.449,0.734 4.176,2.168 1.16,1.02 2.918,1.148 4.785,0.004 m 0.004,0"
             id="path79"
             inkscape:connector-curvature="0"
             style="fill:#ecf0f1;fill-opacity:1;fill-rule:nonzero;stroke:none" />
          <path
             d="m 27.973,15.902 c -1.98,0.637 -3.051,1.184 -3.371,1.438 -0.656,1.672 0.668,2.93 1.875,3.813 1.586,-0.375 2.906,-1.551 3.496,-2.844 -0.309,0.043 -0.637,-0.016 -1,-0.219 -0.707,-0.398 -1.137,-1.355 -1,-2.188 m 0,0"
             id="path81"
             inkscape:connector-curvature="0"
             style="fill:#ecf0f1;fill-opacity:1;fill-rule:nonzero;stroke:none" />
          <path
             d="m 30.855,15.586 c -0.129,-0.508 -0.543,-1.16 -0.656,-1.16 -0.102,0 -1.203,0.82 -1.488,1.102 -0.645,0.645 -0.332,1.82 0.383,2.219 1.211,0.68 2.105,-0.813 1.762,-2.16 m 0,0"
             id="path83"
             inkscape:connector-curvature="0"
             style="fill:#ecf0f1;fill-opacity:1;fill-rule:nonzero;stroke:none" />
          <path
             d="m 29.914,13.867 c 0.484,-0.465 1.129,-1.227 1.297,-2.387 0.098,-1.039 -0.156,-1.68 -0.469,-2.477 -0.152,1.555 -0.379,3.285 -1.438,5.121 -0.332,0.578 -0.152,0.473 0.609,-0.258 m 0,0"
             id="path85"
             inkscape:connector-curvature="0"
             style="fill:#ecf0f1;fill-opacity:1;fill-rule:nonzero;stroke:none" />
          <path
             d="m 16.328,29.969 c 0.168,0.422 0.156,1.223 -0.094,2.594 -0.004,0.012 0,0.02 0,0.031 0.176,0.246 0.539,0.543 0.902,0.813 1.25,-0.582 2.82,-1.672 2.719,-1.688 -0.668,-0.113 -2.734,-0.617 -3.527,-1.75 m 0,0"
             id="path87"
             inkscape:connector-curvature="0"
             style="fill:#ecf0f1;fill-opacity:1;fill-rule:nonzero;stroke:none" />
          <path
             d="m 27.754,27.527 c -0.055,0 -0.098,0 -0.219,0.031 -1.555,0.434 -5.527,1.449 -6.148,2.125 -0.242,0.516 -0.48,2.574 -3.969,3.879 -0.098,0.035 2.93,1.992 3.094,2 9.883,0.414 9.871,-6.676 9.742,-7 -0.961,0.016 -1.777,-0.32 -2.406,-0.938 -0.031,-0.031 -0.059,-0.063 -0.094,-0.094 m 0,0"
             id="path89"
             inkscape:connector-curvature="0"
             style="fill:#ecf0f1;fill-opacity:1;fill-rule:nonzero;stroke:none" />
        </g>
      </g>
    </g>
  </g>
</svg>
