<?xml version="1.0" encoding="UTF-8" standalone="no"?>
<!-- Created with Inkscape (http://www.inkscape.org/) -->

<svg
   xmlns:dc="http://purl.org/dc/elements/1.1/"
   xmlns:cc="http://creativecommons.org/ns#"
   xmlns:rdf="http://www.w3.org/1999/02/22-rdf-syntax-ns#"
   xmlns:svg="http://www.w3.org/2000/svg"
   xmlns="http://www.w3.org/2000/svg"
   xmlns:xlink="http://www.w3.org/1999/xlink"
   xmlns:sodipodi="http://sodipodi.sourceforge.net/DTD/sodipodi-0.dtd"
   xmlns:inkscape="http://www.inkscape.org/namespaces/inkscape"
   width="48"
   height="48"
   id="svg5453"
   version="1.1"
   inkscape:version="0.91 r13725"
   sodipodi:docname="lazarus.svg">
  <defs
     id="defs5455">
    <linearGradient
       id="linearGradient3795">
      <stop
         id="stop3797"
         offset="0"
         style="stop-color:#ff6302;stop-opacity:1" />
      <stop
         id="stop3799"
         offset="1"
         style="stop-color:#ffcf00;stop-opacity:1" />
    </linearGradient>
    <linearGradient
       id="linearGradient4091">
      <stop
         style="stop-color:#b9ddff;stop-opacity:1"
         offset="0"
         id="stop4093" />
      <stop
         style="stop-color:#f5fcff;stop-opacity:1"
         offset="1"
         id="stop4095" />
    </linearGradient>
    <clipPath
       id="clipPath-490640644">
      <g
         transform="translate(0,-1004.3622)"
         id="g17">
        <path
           style="fill:#1890d0"
           inkscape:connector-curvature="0"
           d="m -24,13 c 0,1.105 -0.672,2 -1.5,2 -0.828,0 -1.5,-0.895 -1.5,-2 0,-1.105 0.672,-2 1.5,-2 0.828,0 1.5,0.895 1.5,2 z"
           transform="matrix(15.333333,0,0,11.5,414.99999,878.8622)"
           id="path19" />
      </g>
    </clipPath>
    <linearGradient
       inkscape:collect="always"
       id="linearGradient4678">
      <stop
         style="stop-color:#0a7fe7;stop-opacity:1"
         offset="0"
         id="stop4680" />
      <stop
         style="stop-color:#50bffc;stop-opacity:1"
         offset="1"
         id="stop4682" />
    </linearGradient>
    <linearGradient
       inkscape:collect="always"
       xlink:href="#linearGradient4678"
       id="linearGradient4197"
       x1="388.57144"
       y1="523.79797"
       x2="428.57144"
       y2="523.79797"
       gradientUnits="userSpaceOnUse" />
  </defs>
  <sodipodi:namedview
     id="base"
     pagecolor="#ffffff"
     bordercolor="#666666"
     borderopacity="1.0"
     inkscape:pageopacity="0"
     inkscape:pageshadow="2"
     inkscape:zoom="6.1234949"
     inkscape:cx="-15.45596"
     inkscape:cy="21.207043"
     inkscape:document-units="px"
     inkscape:current-layer="layer1"
     showgrid="false"
     fit-margin-top="0"
     fit-margin-left="0"
     fit-margin-right="0"
     fit-margin-bottom="0"
     inkscape:window-width="1366"
     inkscape:window-height="699"
     inkscape:window-x="0"
     inkscape:window-y="0"
     inkscape:window-maximized="1"
     inkscape:showpageshadow="false"
     borderlayer="true"
     showguides="false">
    <inkscape:grid
       type="xygrid"
       id="grid4063" />
    <sodipodi:guide
       position="1.1650391e-05,47.999996"
       orientation="4,0"
       id="guide4146" />
    <sodipodi:guide
       position="1.1650391e-05,43.999996"
       orientation="0,48"
       id="guide4148" />
    <sodipodi:guide
       position="48.000012,43.999996"
       orientation="-4,0"
       id="guide4150" />
    <sodipodi:guide
       position="48.000012,47.999996"
       orientation="0,-48"
       id="guide4152" />
    <sodipodi:guide
       position="1.1650391e-05,4.0000264"
       orientation="4,0"
       id="guide4154" />
    <sodipodi:guide
       position="1.1650391e-05,2.6367188e-05"
       orientation="0,48"
       id="guide4156" />
    <sodipodi:guide
       position="48.000012,2.6367188e-05"
       orientation="-4,0"
       id="guide4158" />
    <sodipodi:guide
       position="48.000012,4.0000264"
       orientation="0,-48"
       id="guide4160" />
    <sodipodi:guide
       position="48.000012,48.000026"
       orientation="0,-4"
       id="guide4162" />
    <sodipodi:guide
       position="44.000012,48.000026"
       orientation="48,0"
       id="guide4164" />
    <sodipodi:guide
       position="44.000012,2.6367188e-05"
       orientation="0,4"
       id="guide4166" />
    <sodipodi:guide
       position="48.000012,2.6367188e-05"
       orientation="-48,0"
       id="guide4168" />
    <sodipodi:guide
       position="4.0000422,48.000026"
       orientation="0,-4"
       id="guide4170" />
    <sodipodi:guide
       position="4.2167969e-05,48.000026"
       orientation="48,0"
       id="guide4172" />
    <sodipodi:guide
       position="4.2167969e-05,2.6367188e-05"
       orientation="0,4"
       id="guide4174" />
    <sodipodi:guide
       position="4.0000422,2.6367188e-05"
       orientation="-48,0"
       id="guide4176" />
    <sodipodi:guide
       position="4.0000117,47.999996"
       orientation="43.999969,0"
       id="guide4638" />
    <sodipodi:guide
       position="4.0000117,4.0000264"
       orientation="0,20"
       id="guide4640" />
    <sodipodi:guide
       position="24.000012,4.0000264"
       orientation="-43.999969,0"
       id="guide4642" />
    <sodipodi:guide
       position="24.000012,47.999996"
       orientation="0,-20"
       id="guide4644" />
    <sodipodi:guide
       position="4.0000422,24.000026"
       orientation="20,0"
       id="guide4666" />
    <sodipodi:guide
       position="4.0000422,4.0000264"
       orientation="0,39.999969"
       id="guide4668" />
    <sodipodi:guide
       position="44.000012,4.0000264"
       orientation="-20,0"
       id="guide4670" />
    <sodipodi:guide
       position="44.000012,24.000026"
       orientation="0,-39.999969"
       id="guide4672" />
  </sodipodi:namedview>
  <metadata
     id="metadata5458">
    <rdf:RDF>
      <cc:Work
         rdf:about="">
        <dc:format>image/svg+xml</dc:format>
        <dc:type
           rdf:resource="http://purl.org/dc/dcmitype/StillImage" />
        <dc:title />
      </cc:Work>
    </rdf:RDF>
  </metadata>
  <g
     inkscape:label="Capa 1"
     inkscape:groupmode="layer"
     id="layer1"
     transform="translate(-384.57143,-499.798)">
    <rect
       style="opacity:1;fill:url(#linearGradient4197);fill-opacity:1.0;stroke:none;stroke-width:2.79999995;stroke-miterlimit:4;stroke-dasharray:none;stroke-opacity:0.55026455"
       id="rect4166"
       width="39.999989"
       height="39.999969"
       x="388.57144"
       y="503.798"
       ry="19.999985" />
    <path
       style="opacity:1;fill:#0c7bea;fill-opacity:1;stroke:none;stroke-width:2.79999995;stroke-miterlimit:4;stroke-dasharray:none;stroke-opacity:0.55026455"
       d="M 4.0117188 23.5 C 4.007647 23.666859 4 23.832126 4 24 C 4 35.079992 12.920008 44 24 44 C 35.079992 44 44 35.079992 44 24 C 44 23.832126 43.992353 23.666859 43.988281 23.5 C 43.724099 34.346571 34.912435 43 24 43 C 13.087565 43 4.2759007 34.346571 4.0117188 23.5 z "
       transform="translate(384.57143,499.798)"
       id="rect4775" />
    <g
       id="g47"
       transform="translate(383.91822,499.14275)"
       style="fill:#000000;fill-opacity:1">
      <g
         clip-path="url(#clipPath-490640644)"
         id="g49"
         style="fill:#000000;fill-opacity:1">
        <!-- color: #004694 -->
        <g
           id="g51"
           style="fill:#000000;fill-opacity:1">
          <path
             d="m 22.488,35.918 c -1.141,-0.234 -2.051,-0.98 -2.555,-2.094 -0.238,-0.52 -0.27,-0.688 -0.234,-1.172 0.035,-0.523 0.07,-0.594 0.395,-0.875 1.027,-0.902 1.25,-1.141 1.441,-1.57 0.191,-0.422 0.207,-0.551 0.156,-1.395 -0.051,-0.836 -0.035,-0.984 0.148,-1.418 0.418,-1.012 1.34,-1.59 3.285,-2.078 1.379,-0.348 2.391,-0.352 3.121,-0.016 0.586,0.27 1.215,0.895 1.52,1.527 0.418,0.855 1.438,1.469 2.445,1.473 1.293,0.008 2.02,1.01 1.941,2.684 -0.043,0.875 -0.289,1.426 -0.91,2.023 -1.184,1.145 -5.324,2.5 -8.926,2.918 -0.926,0.105 -1.281,0.105 -1.82,-0.004 m -7.129,-6.04 c -1.305,-0.41 -2.453,-1.898 -2.695,-3.48 -0.055,-0.352 -0.156,-0.727 -0.227,-0.836 -0.289,-0.449 -0.57,-2.348 -0.379,-2.543 0.102,-0.105 0.602,0.441 0.605,0.656 0,0.102 0.086,0.332 0.184,0.508 l 0.184,0.316 0.293,-0.305 c 0.379,-0.375 0.836,-0.512 1.293,-0.387 0.355,0.105 0.492,0.191 1.785,1.066 0.438,0.297 1.121,0.734 1.516,0.977 0.395,0.238 0.828,0.586 0.973,0.773 0.543,0.695 0.398,1.566 -0.41,2.441 -0.391,0.422 -0.563,0.535 -1.078,0.695 -0.625,0.199 -1.594,0.25 -2.039,0.109 m 16.684,-4.555 c -1.277,-0.477 -1.809,-1.164 -1.617,-2.078 0.035,-0.168 0.344,-0.883 0.684,-1.586 0.34,-0.703 0.621,-1.332 0.621,-1.395 0.004,-0.297 0.457,-1.094 0.758,-1.332 0.254,-0.199 0.43,-0.262 0.797,-0.266 l 0.469,-0.012 0.027,-0.348 c 0.016,-0.191 -0.039,-0.492 -0.121,-0.672 -0.176,-0.387 -0.105,-0.914 0.113,-0.871 0.211,0.043 0.898,1.352 1.063,2.02 0.082,0.328 0.281,0.789 0.441,1.027 0.52,0.758 0.711,1.422 0.719,2.477 0.004,0.816 -0.027,0.992 -0.227,1.441 -0.387,0.848 -1.023,1.367 -2.02,1.641 -0.609,0.168 -1.172,0.152 -1.711,-0.051 m -13.04,-3.03 c -0.984,-0.25 -1.629,-0.773 -2.02,-1.637 -0.438,-0.973 -0.348,-2.691 0.195,-3.629 0.164,-0.285 0.184,-0.457 0.172,-1.305 -0.02,-0.898 0.125,-1.855 0.305,-2.035 0.137,-0.145 0.402,0.395 0.402,0.813 0,0.238 0.082,0.613 0.18,0.84 0.164,0.371 0.199,0.398 0.426,0.344 0.137,-0.035 0.5,-0.086 0.813,-0.113 0.555,-0.051 0.57,-0.047 0.859,0.273 0.32,0.352 0.508,0.875 0.508,1.41 0,0.438 0.242,0.918 0.758,1.516 1.277,1.465 0.969,2.77 -0.805,3.438 -0.648,0.238 -1.109,0.266 -1.793,0.086 M 24.64,20.626 C 24.191,20.47 23.761,19.978 23.605,19.438 23.507,19.09 23.484,18.723 23.523,18 c 0.055,-0.965 0.051,-0.977 -0.219,-1.422 -0.77,-1.266 -0.539,-2.102 0.656,-2.355 l 0.5,-0.105 -0.063,-0.297 c -0.078,-0.379 -0.348,-0.922 -0.527,-1.078 -0.164,-0.141 -0.195,-0.754 -0.039,-0.754 0.176,0 1.656,1.609 1.816,1.977 0.117,0.262 0.281,0.418 0.625,0.598 0.652,0.348 1.594,1.348 1.953,2.078 0.375,0.77 0.461,1.648 0.227,2.281 -0.199,0.543 -0.914,1.301 -1.465,1.559 -0.504,0.234 -1.855,0.316 -2.352,0.145 m 0.004,0.004"
             id="path53"
             inkscape:connector-curvature="0"
             style="fill:#000000;fill-opacity:1;fill-rule:nonzero;stroke:none" />
        </g>
      </g>
    </g>
  </g>
</svg>
