<?xml version="1.0" encoding="UTF-8" standalone="no"?>
<!-- Created with Inkscape (http://www.inkscape.org/) -->

<svg
   xmlns:dc="http://purl.org/dc/elements/1.1/"
   xmlns:cc="http://creativecommons.org/ns#"
   xmlns:rdf="http://www.w3.org/1999/02/22-rdf-syntax-ns#"
   xmlns:svg="http://www.w3.org/2000/svg"
   xmlns="http://www.w3.org/2000/svg"
   xmlns:xlink="http://www.w3.org/1999/xlink"
   xmlns:sodipodi="http://sodipodi.sourceforge.net/DTD/sodipodi-0.dtd"
   xmlns:inkscape="http://www.inkscape.org/namespaces/inkscape"
   width="48"
   height="48"
   id="svg5453"
   version="1.1"
   inkscape:version="0.91 r13725"
   sodipodi:docname="ninja-ide.svg">
  <defs
     id="defs5455">
    <linearGradient
       inkscape:collect="always"
       xlink:href="#linearGradient8467-5"
       id="linearGradient4174"
       x1="408.53201"
       y1="537.79236"
       x2="409.57144"
       y2="503.798"
       gradientUnits="userSpaceOnUse"
       gradientTransform="translate(-5.9283447e-6,1.1108398e-5)" />
    <clipPath
       id="clipPath-581077431">
      <g
         transform="translate(0,-1004.3622)"
         id="g17">
        <path
           style="fill:#1890d0"
           inkscape:connector-curvature="0"
           d="m -24,13 c 0,1.105 -0.672,2 -1.5,2 -0.828,0 -1.5,-0.895 -1.5,-2 0,-1.105 0.672,-2 1.5,-2 0.828,0 1.5,0.895 1.5,2 z"
           transform="matrix(15.333333,0,0,11.5,414.99999,878.8622)"
           id="path19" />
      </g>
    </clipPath>
    <linearGradient
       id="linearGradient8467-5">
      <stop
         id="stop8469-7"
         style="stop-color:#d3d3d3;stop-opacity:1"
         offset="0" />
      <stop
         id="stop8471-0"
         style="stop-color:#fcf9f9;stop-opacity:1"
         offset="1" />
    </linearGradient>
  </defs>
  <sodipodi:namedview
     id="base"
     pagecolor="#ffffff"
     bordercolor="#666666"
     borderopacity="1.0"
     inkscape:pageopacity="0"
     inkscape:pageshadow="2"
     inkscape:zoom="8.6585462"
     inkscape:cx="-7.9263929"
     inkscape:cy="16.318368"
     inkscape:document-units="px"
     inkscape:current-layer="layer1"
     showgrid="false"
     fit-margin-top="0"
     fit-margin-left="0"
     fit-margin-right="0"
     fit-margin-bottom="0"
     inkscape:window-width="1366"
     inkscape:window-height="699"
     inkscape:window-x="0"
     inkscape:window-y="0"
     inkscape:window-maximized="1"
     inkscape:showpageshadow="false"
     borderlayer="true"
     showguides="false">
    <inkscape:grid
       type="xygrid"
       id="grid4063" />
    <sodipodi:guide
       position="1.1650391e-05,47.999996"
       orientation="4,0"
       id="guide4146" />
    <sodipodi:guide
       position="1.1650391e-05,43.999996"
       orientation="0,48"
       id="guide4148" />
    <sodipodi:guide
       position="48.000012,43.999996"
       orientation="-4,0"
       id="guide4150" />
    <sodipodi:guide
       position="48.000012,47.999996"
       orientation="0,-48"
       id="guide4152" />
    <sodipodi:guide
       position="1.1650391e-05,4.0000264"
       orientation="4,0"
       id="guide4154" />
    <sodipodi:guide
       position="1.1650391e-05,2.6367188e-05"
       orientation="0,48"
       id="guide4156" />
    <sodipodi:guide
       position="48.000012,2.6367188e-05"
       orientation="-4,0"
       id="guide4158" />
    <sodipodi:guide
       position="48.000012,4.0000264"
       orientation="0,-48"
       id="guide4160" />
    <sodipodi:guide
       position="48.000012,48.000026"
       orientation="0,-4"
       id="guide4162" />
    <sodipodi:guide
       position="44.000012,48.000026"
       orientation="48,0"
       id="guide4164" />
    <sodipodi:guide
       position="44.000012,2.6367188e-05"
       orientation="0,4"
       id="guide4166" />
    <sodipodi:guide
       position="48.000012,2.6367188e-05"
       orientation="-48,0"
       id="guide4168" />
    <sodipodi:guide
       position="4.0000422,48.000026"
       orientation="0,-4"
       id="guide4170" />
    <sodipodi:guide
       position="4.2167969e-05,48.000026"
       orientation="48,0"
       id="guide4172" />
    <sodipodi:guide
       position="4.2167969e-05,2.6367188e-05"
       orientation="0,4"
       id="guide4174" />
    <sodipodi:guide
       position="4.0000422,2.6367188e-05"
       orientation="-48,0"
       id="guide4176" />
    <sodipodi:guide
       position="4.0000117,47.999996"
       orientation="43.999969,0"
       id="guide4638" />
    <sodipodi:guide
       position="4.0000117,4.0000264"
       orientation="0,20"
       id="guide4640" />
    <sodipodi:guide
       position="24.000012,4.0000264"
       orientation="-43.999969,0"
       id="guide4642" />
    <sodipodi:guide
       position="24.000012,47.999996"
       orientation="0,-20"
       id="guide4644" />
    <sodipodi:guide
       position="4.0000422,24.000026"
       orientation="20,0"
       id="guide4666" />
    <sodipodi:guide
       position="4.0000422,4.0000264"
       orientation="0,39.999969"
       id="guide4668" />
    <sodipodi:guide
       position="44.000012,4.0000264"
       orientation="-20,0"
       id="guide4670" />
    <sodipodi:guide
       position="44.000012,24.000026"
       orientation="0,-39.999969"
       id="guide4672" />
  </sodipodi:namedview>
  <metadata
     id="metadata5458">
    <rdf:RDF>
      <cc:Work
         rdf:about="">
        <dc:format>image/svg+xml</dc:format>
        <dc:type
           rdf:resource="http://purl.org/dc/dcmitype/StillImage" />
        <dc:title></dc:title>
      </cc:Work>
    </rdf:RDF>
  </metadata>
  <g
     inkscape:label="Capa 1"
     inkscape:groupmode="layer"
     id="layer1"
     transform="translate(-384.57143,-499.798)">
    <rect
       style="opacity:1;fill:url(#linearGradient4174);fill-opacity:1.0;stroke:none;stroke-width:2.79999995;stroke-miterlimit:4;stroke-dasharray:none;stroke-opacity:0.55026455"
       id="rect4166"
       width="39.999989"
       height="39.999969"
       x="388.57144"
       y="503.798"
       ry="19.999985" />
    <path
       style="opacity:1;fill:#c7cacf;fill-opacity:1;stroke:none;stroke-width:2.79999995;stroke-miterlimit:4;stroke-dasharray:none;stroke-opacity:0.55026455"
       d="M 4.0117188 23.5 C 4.007647 23.666859 4 23.832126 4 24 C 4 35.079992 12.920008 44 24 44 C 35.079992 44 44 35.079992 44 24 C 44 23.832126 43.992353 23.666859 43.988281 23.5 C 43.724099 34.346571 34.912435 43 24 43 C 13.087565 43 4.2759007 34.346571 4.0117188 23.5 z "
       transform="translate(384.57143,499.798)"
       id="rect4775" />
    <g
       id="g65"
       transform="matrix(0.94287555,0,0,0.94287555,386.34965,501.27687)">
      <g
         clip-path="url(#clipPath-581077431)"
         id="g67">
        <!-- color: #cdcdcd -->
        <g
           id="g69">
          <path
             d="m 23.848,11 c -1.074,0 -2.098,0.094 -3,0.25 -2.652,0.465 -3.133,1.434 -3.133,3.223 l 0,2.363 6.27,0 0,0.789 -8.625,0 c -1.82,0 -3.418,1.082 -3.918,3.145 -0.578,2.363 -0.602,3.84 0,6.305 0.445,1.836 1.508,3.145 3.336,3.145 l 1.848,0 0,-3.137 c 0,-2.051 1.789,-3.852 3.918,-3.852 l 6.574,0 c 1.742,0 3.391,-1.422 3.391,-3.156 l 0,-5.602 c 0,-1.68 -1.691,-2.941 -3.391,-3.223 C 26.04,11.074 24.923,10.992 23.852,11 m -3.395,1.902 c 0.648,0 1.176,0.531 1.176,1.184 0,0.652 -0.527,1.184 -1.176,1.184 -0.648,0 -1.18,-0.531 -1.18,-1.184 0,-0.652 0.531,-1.184 1.18,-1.184 m 0,0"
             id="path71"
             inkscape:connector-curvature="0"
             style="fill:#2d2d2d;fill-opacity:1;fill-rule:nonzero;stroke:none" />
          <path
             d="m 21.863,13.984 c 0,0.828 -0.672,1.5 -1.5,1.5 -0.828,0 -1.5,-0.672 -1.5,-1.5 0,-0.828 0.672,-1.5 1.5,-1.5 0.828,0 1.5,0.672 1.5,1.5 m 0,0"
             id="path73"
             inkscape:connector-curvature="0"
             style="fill:#f9f9f9;fill-opacity:1;fill-rule:nonzero;stroke:none" />
          <path
             d="m 32.07,12.145 c -0.941,0.152 -1.488,0.898 -1.801,1.535 -0.641,0.063 -0.516,-0.523 -0.824,-0.848 -0.754,0.203 -0.871,0.023 -1.188,-0.656 l -0.469,0 c 0.863,0.582 1.473,1.422 1.473,2.438 l 0,1 0.688,-0.5 c 1.613,1.031 2.406,0.098 3.344,-1.098 l -1.344,0 c 0.398,-0.691 0.34,-1.141 0.125,-1.871 m -0.004,0"
             id="path75"
             inkscape:connector-curvature="0"
             style="fill:#d72735;fill-opacity:1;fill-rule:nonzero;stroke:none" />
          <path
             d="m 18.656,12.03 c -0.758,0.555 -0.945,1.336 -0.941,2.438 l 0,1.531 12.789,0 0,-1.531 c 0,-1.016 -0.629,-1.898 -1.445,-2.434 m -8.59,0.871 c 0.648,0 1.156,0.531 1.156,1.188 0,0.652 -0.508,1.156 -1.156,1.156 -0.648,0 -1.188,-0.508 -1.188,-1.156 0,-0.656 0.535,-1.188 1.188,-1.188 m 0,0"
             id="path77"
             inkscape:connector-curvature="0"
             style="fill:#d72735;fill-opacity:1;fill-rule:nonzero;stroke:none" />
          <path
             d="m 31.391,17.629 0,2.754 c 0,2.137 -1.832,3.676 -3.918,3.676 l -6.883,0 c -1.715,0 -3.137,1.707 -3.137,3.406 l 0,5.906 c 0,1.68 1.48,2.668 3.137,3.152 1.984,0.578 4.145,0.68 6.52,0 1.582,-0.453 3.137,-1.359 3.137,-3.152 l 0,-2.363 -6.266,0 0,-0.785 9.402,0 c 1.82,0 2.5,-1.258 3.133,-3.148 0.656,-1.941 0.629,-3.813 0,-6.305 -0.449,-1.793 -1.309,-3.145 -3.133,-3.145 m -5.875,14.961 c 0.648,0 1.176,0.527 1.176,1.18 0,0.652 -0.527,1.188 -1.176,1.188 -0.648,0 -1.176,-0.535 -1.176,-1.188 0,-0.652 0.527,-1.18 1.176,-1.18 m 0,0"
             id="path79"
             inkscape:connector-curvature="0"
             style="fill:#2d2d2d;fill-opacity:1;fill-rule:nonzero;stroke:none" />
          <path
             d="m 29.08,33.781 c 0,0.828 -0.672,1.5 -1.5,1.5 -0.82,0 -1.5,-0.672 -1.5,-1.5 0,-0.828 0.68,-1.5 1.5,-1.5 0.828,0 1.5,0.672 1.5,1.5 m 0,0"
             id="path81"
             inkscape:connector-curvature="0"
             style="fill:#f9f9f9;fill-opacity:1;fill-rule:nonzero;stroke:none" />
          <path
             d="m 17.457,32.03 0,1.344 c 0,1.223 0.758,2.07 1.793,2.625 l 9.219,0 c 1.012,-0.535 1.781,-1.363 1.781,-2.625 l 0,-1.344 m -2.684,0.469 c 0.691,0 1.25,0.559 1.25,1.25 0,0.688 -0.559,1.25 -1.25,1.25 -0.691,0 -1.25,-0.563 -1.25,-1.25 0,-0.691 0.559,-1.25 1.25,-1.25 m 0,0"
             id="path83"
             inkscape:connector-curvature="0"
             style="fill:#d72735;fill-opacity:1;fill-rule:nonzero;stroke:none" />
          <path
             d="m 15.887,35.891 c 0.945,-0.152 1.488,-0.902 1.801,-1.539 0.641,-0.059 0.52,0.523 0.828,0.852 0.754,-0.207 0.871,-0.023 1.184,0.656 l 0.469,0 C 19.31,35.274 18.7,34.434 18.7,33.422 l 0,-1 -0.688,0.5 c -1.613,-1.031 -2.406,-0.102 -3.348,1.094 l 1.344,0 c -0.395,0.695 -0.34,1.141 -0.125,1.875 m 0.004,0"
             id="path85"
             inkscape:connector-curvature="0"
             style="fill:#d72735;fill-opacity:1;fill-rule:nonzero;stroke:none" />
          <path
             d="m 19.27,15.25 c 0.043,-0.164 2.332,-2.598 2.332,-2.598 l -2.785,0.184 m 0.453,2.414"
             id="path87"
             inkscape:connector-curvature="0"
             style="fill:#d72735;fill-opacity:1;fill-rule:nonzero;stroke:none" />
          <path
             d="m 28.715,32.27 -2.641,3.148 3.18,-0.25 M 28.715,32.27"
             id="path89"
             inkscape:connector-curvature="0"
             style="fill:#d72735;fill-opacity:1;fill-rule:nonzero;stroke:none" />
        </g>
      </g>
    </g>
  </g>
</svg>
