<?xml version="1.0" encoding="UTF-8" standalone="no"?>
<!-- Created with Inkscape (http://www.inkscape.org/) -->

<svg
   xmlns:dc="http://purl.org/dc/elements/1.1/"
   xmlns:cc="http://creativecommons.org/ns#"
   xmlns:rdf="http://www.w3.org/1999/02/22-rdf-syntax-ns#"
   xmlns:svg="http://www.w3.org/2000/svg"
   xmlns="http://www.w3.org/2000/svg"
   xmlns:xlink="http://www.w3.org/1999/xlink"
   xmlns:sodipodi="http://sodipodi.sourceforge.net/DTD/sodipodi-0.dtd"
   xmlns:inkscape="http://www.inkscape.org/namespaces/inkscape"
   width="48"
   height="48"
   id="svg5453"
   version="1.1"
   inkscape:version="0.91 r13725"
   sodipodi:docname="nylas.svg">
  <defs
     id="defs5455">
    <linearGradient
       inkscape:collect="always"
       id="linearGradient4472">
      <stop
         style="stop-color:#000000;stop-opacity:0.08247422"
         offset="0"
         id="stop4474" />
      <stop
         style="stop-color:#000000;stop-opacity:0"
         offset="1"
         id="stop4476" />
    </linearGradient>
    <linearGradient
       inkscape:collect="always"
       id="linearGradient4456">
      <stop
         style="stop-color:#000000;stop-opacity:0.27450982"
         offset="0"
         id="stop4458" />
      <stop
         style="stop-color:#ffffff;stop-opacity:0"
         offset="1"
         id="stop4460" />
    </linearGradient>
    <linearGradient
       inkscape:collect="always"
       id="linearGradient4448">
      <stop
         style="stop-color:#ffffff;stop-opacity:0"
         offset="0"
         id="stop4450" />
      <stop
         style="stop-color:#ffffff;stop-opacity:0.3137255"
         offset="1"
         id="stop4452" />
    </linearGradient>
    <linearGradient
       inkscape:collect="always"
       xlink:href="#linearGradient4303"
       id="linearGradient4346"
       x1="543.79797"
       y1="-409.57144"
       x2="503.798"
       y2="-409.57144"
       gradientUnits="userSpaceOnUse"
       gradientTransform="matrix(0,1,-1.1666667,0,-452.66668,-499.798)" />
    <linearGradient
       inkscape:collect="always"
       id="linearGradient4903">
      <stop
         style="stop-color:#eef1f2;stop-opacity:1"
         offset="0"
         id="stop4905" />
      <stop
         style="stop-color:#f9fafb;stop-opacity:1"
         offset="1"
         id="stop4907" />
    </linearGradient>
    <linearGradient
       inkscape:collect="always"
       xlink:href="#linearGradient4448"
       id="linearGradient4454"
       x1="384.57144"
       y1="547.79797"
       x2="394.57144"
       y2="530.47748"
       gradientUnits="userSpaceOnUse" />
    <linearGradient
       inkscape:collect="always"
       xlink:href="#linearGradient4456"
       id="linearGradient4462"
       x1="384.57147"
       y1="537.79797"
       x2="414.57144"
       y2="537.79797"
       gradientUnits="userSpaceOnUse" />
    <linearGradient
       inkscape:collect="always"
       xlink:href="#linearGradient4472"
       id="linearGradient4478"
       x1="432.57144"
       y1="547.79797"
       x2="421.02444"
       y2="527.79797"
       gradientUnits="userSpaceOnUse" />
    <linearGradient
       inkscape:collect="always"
       xlink:href="#linearGradient4903"
       id="linearGradient4486"
       x1="25"
       y1="43.999973"
       x2="25"
       y2="20"
       gradientUnits="userSpaceOnUse" />
    <linearGradient
       id="linearGradient4303"
       inkscape:collect="always">
      <stop
         id="stop4305"
         offset="0"
         style="stop-color:#197cf1;stop-opacity:1" />
      <stop
         id="stop4307"
         offset="1"
         style="stop-color:#21c9fb;stop-opacity:1" />
    </linearGradient>
    <linearGradient
       inkscape:collect="always"
       id="linearGradient4227">
      <stop
         style="stop-color:#292c2f;stop-opacity:1"
         offset="0"
         id="stop4229" />
      <stop
         style="stop-color:#000000;stop-opacity:0;"
         offset="1"
         id="stop4231" />
    </linearGradient>
    <linearGradient
       inkscape:collect="always"
       xlink:href="#linearGradient4227"
       id="linearGradient4755"
       x1="414.57144"
       y1="511.798"
       x2="422.57144"
       y2="519.79797"
       gradientUnits="userSpaceOnUse" />
    <linearGradient
       inkscape:collect="always"
       xlink:href="#linearGradient4903"
       id="linearGradient4279"
       x1="400.1615"
       y1="518.67645"
       x2="416.66876"
       y2="518.67645"
       gradientUnits="userSpaceOnUse" />
  </defs>
  <sodipodi:namedview
     id="base"
     pagecolor="#ffffff"
     bordercolor="#666666"
     borderopacity="1.0"
     inkscape:pageopacity="0"
     inkscape:pageshadow="2"
     inkscape:zoom="5.656854"
     inkscape:cx="-14.654813"
     inkscape:cy="22.224989"
     inkscape:document-units="px"
     inkscape:current-layer="layer1"
     showgrid="true"
     fit-margin-top="0"
     fit-margin-left="0"
     fit-margin-right="0"
     fit-margin-bottom="0"
     inkscape:window-width="1366"
     inkscape:window-height="699"
     inkscape:window-x="0"
     inkscape:window-y="0"
     inkscape:window-maximized="1"
     inkscape:showpageshadow="false"
     borderlayer="true"
     showguides="true">
    <inkscape:grid
       type="xygrid"
       id="grid4063" />
    <sodipodi:guide
       position="1.1650391e-05,47.999996"
       orientation="4,0"
       id="guide4146" />
    <sodipodi:guide
       position="1.1650391e-05,43.999996"
       orientation="0,48"
       id="guide4148" />
    <sodipodi:guide
       position="48.000012,43.999996"
       orientation="-4,0"
       id="guide4150" />
    <sodipodi:guide
       position="48.000012,47.999996"
       orientation="0,-48"
       id="guide4152" />
    <sodipodi:guide
       position="1.1650391e-05,4.0000264"
       orientation="4,0"
       id="guide4154" />
    <sodipodi:guide
       position="1.1650391e-05,2.6367188e-05"
       orientation="0,48"
       id="guide4156" />
    <sodipodi:guide
       position="48.000012,2.6367188e-05"
       orientation="-4,0"
       id="guide4158" />
    <sodipodi:guide
       position="48.000012,4.0000264"
       orientation="0,-48"
       id="guide4160" />
    <sodipodi:guide
       position="48.000012,48.000026"
       orientation="0,-4"
       id="guide4162" />
    <sodipodi:guide
       position="44.000012,48.000026"
       orientation="48,0"
       id="guide4164" />
    <sodipodi:guide
       position="44.000012,2.6367188e-05"
       orientation="0,4"
       id="guide4166" />
    <sodipodi:guide
       position="48.000012,2.6367188e-05"
       orientation="-48,0"
       id="guide4168" />
    <sodipodi:guide
       position="4.0000422,48.000026"
       orientation="0,-4"
       id="guide4170" />
    <sodipodi:guide
       position="4.2167969e-05,48.000026"
       orientation="48,0"
       id="guide4172" />
    <sodipodi:guide
       position="4.2167969e-05,2.6367188e-05"
       orientation="0,4"
       id="guide4174" />
    <sodipodi:guide
       position="4.0000422,2.6367188e-05"
       orientation="-48,0"
       id="guide4176" />
  </sodipodi:namedview>
  <metadata
     id="metadata5458">
    <rdf:RDF>
      <cc:Work
         rdf:about="">
        <dc:format>image/svg+xml</dc:format>
        <dc:type
           rdf:resource="http://purl.org/dc/dcmitype/StillImage" />
        <dc:title></dc:title>
      </cc:Work>
    </rdf:RDF>
  </metadata>
  <g
     inkscape:label="Capa 1"
     inkscape:groupmode="layer"
     id="layer1"
     transform="translate(-384.57143,-499.798)">
    <path
       style="fill:#c8cfd3;fill-opacity:1;fill-rule:evenodd;stroke:none;stroke-width:1px;stroke-linecap:butt;stroke-linejoin:miter;stroke-opacity:1"
       d="M 24 8 L 4 20 L 24 35 L 44 20 L 24 8 z "
       transform="translate(384.57143,499.798)"
       id="path4274" />
    <path
       style="fill:url(#linearGradient4346);fill-opacity:1;stroke:none;stroke-opacity:1"
       d="M 10 4 L 10 44 L 38 44 L 38 12 L 30 4 L 10 4 z "
       transform="translate(384.57143,499.798)"
       id="rect4261" />
    <path
       style="fill:url(#linearGradient4486);fill-opacity:1;stroke:none;stroke-opacity:1"
       d="M 4 20 L 4 44 L 44 44 L 44 20 L 28 32 L 20 32 L 4 20 z "
       transform="translate(384.57143,499.798)"
       id="rect4248" />
    <path
       style="fill:url(#linearGradient4462);fill-opacity:1;fill-rule:evenodd;stroke:none;stroke-width:1px;stroke-linecap:butt;stroke-linejoin:miter;stroke-opacity:1"
       d="m 388.57147,543.798 15.99996,-12 8,0 16.00001,12 z"
       id="path4334"
       inkscape:connector-curvature="0" />
    <path
       style="fill:url(#linearGradient4478);fill-opacity:1;fill-rule:evenodd;stroke:none;stroke-width:1px;stroke-linecap:butt;stroke-linejoin:miter;stroke-opacity:1"
       d="m 428.57144,543.798 -16.00001,-12 16.00001,-12 z"
       id="path4336"
       inkscape:connector-curvature="0" />
    <path
       inkscape:connector-curvature="0"
       id="path4338"
       d="m 388.57143,543.798 16.00001,-12 -16.00001,-12 z"
       style="fill:url(#linearGradient4454);fill-opacity:1;fill-rule:evenodd;stroke:none;stroke-width:1px;stroke-linecap:butt;stroke-linejoin:miter;stroke-opacity:1" />
    <rect
       style="fill:#d1d3d4;fill-opacity:1;stroke:none;stroke-opacity:1"
       id="rect4488"
       width="39.999989"
       height="0.99999994"
       x="388.57144"
       y="542.79797" />
    <path
       style="fill:#313437;fill-rule:evenodd;stroke:none;stroke-width:1px;stroke-linecap:butt;stroke-linejoin:miter;stroke-opacity:1;fill-opacity:1"
       d="m 422.57143,511.798 -8,0 0,-8 z"
       id="path4737"
       inkscape:connector-curvature="0" />
    <path
       inkscape:connector-curvature="0"
       id="path4747"
       d="m 414.57143,511.798 8,0 0,8 z"
       style="fill:url(#linearGradient4755);fill-opacity:1;fill-rule:evenodd;stroke:none;stroke-width:1px;stroke-linecap:butt;stroke-linejoin:miter;stroke-opacity:1;opacity:0.2" />
    <path
       id="path3364"
       style="opacity:1;fill:url(#linearGradient4279);fill-opacity:1.0;fill-rule:nonzero;stroke:none;stroke-width:42.53499985;stroke-miterlimit:4;stroke-dasharray:none;stroke-opacity:1"
       d="m 414.55486,526.40525 c -0.36982,-0.13241 -3.86029,-2.09243 -5.24833,-2.94724 -0.28586,-0.17603 -0.29713,-0.25502 -0.29713,-2.08029 l 0,-1.8973 3.82418,2.19748 3.82418,2.19748 0.006,0.77242 c 0.0114,1.59963 -0.7577,2.24069 -2.10839,1.75745 z m -10.23352,-0.95387 c -1.96107,-1.12982 -3.69927,-2.14107 -3.86269,-2.24734 -0.28489,-0.18525 -0.29714,-0.26966 -0.29714,-2.04993 0,-1.07163 0.0512,-1.83822 0.12126,-1.81281 0.0667,0.0243 1.81977,1.02274 3.89572,2.21893 l 3.77444,2.17489 0,1.88589 c 0,1.03723 -0.0149,1.88564 -0.033,1.88524 -0.0181,-5.7e-4 -1.63753,-0.92506 -3.59858,-2.05487 z m -0.3611,-5.0565 -3.79459,-2.19796 -0.002,-1.89293 c -0.002,-1.04095 0.0489,-1.87302 0.11124,-1.84882 0.0623,0.0243 1.81378,1.02452 3.89214,2.22297 l 3.77884,2.17902 0.003,1.88184 c 0.002,1.03497 -0.041,1.87553 -0.0955,1.86792 -0.0545,-0.008 -1.80662,-1.00299 -3.89365,-2.21204 z m 12.11426,2.10869 c -0.21789,-0.13467 -1.8224,-1.06296 -3.56557,-2.06288 -1.74316,-0.99992 -3.24542,-1.88799 -3.33835,-1.97346 -0.12514,-0.11517 -0.15938,-0.62536 -0.13205,-1.96706 l 0.0369,-1.81151 2.90528,1.67522 c 1.5979,0.92125 3.3064,1.90644 3.79666,2.18906 l 0.89139,0.51392 0,1.84299 c 0,1.01368 -0.0446,1.84194 -0.099,1.84073 -0.0545,0 -0.27733,-0.11242 -0.49522,-0.24701 z m -1.98087,-6.02461 c -1.30737,-0.76076 -2.98616,-1.72491 -3.73064,-2.14244 l -1.3536,-0.75923 0,-1.89721 c 0,-1.46609 0.0375,-1.88168 0.16509,-1.82908 0.0908,0.038 1.79929,1.01757 3.79666,2.17773 l 3.63159,2.10959 0.0367,1.86428 c 0.0202,1.02525 -0.01,1.86306 -0.066,1.86185 -0.0565,0 -1.17234,-0.62464 -2.47971,-1.38549 z m -10.13544,-0.96414 -3.79668,-2.20145 0.003,-0.46358 c 0.0144,-2.11662 1.06739,-2.65134 3.05462,-1.55131 0.55599,0.30779 1.84715,1.03496 2.86924,1.61606 l 1.85836,1.05649 0.003,1.88184 c 0.002,1.03496 -0.0415,1.87763 -0.096,1.87262 -0.0545,-0.008 -1.80756,-0.99984 -3.89572,-2.21067 z" />
  </g>
</svg>
