<?xml version="1.0" encoding="UTF-8" standalone="no"?>
<!-- Created with Inkscape (http://www.inkscape.org/) -->

<svg
   xmlns:osb="http://www.openswatchbook.org/uri/2009/osb"
   xmlns:dc="http://purl.org/dc/elements/1.1/"
   xmlns:cc="http://creativecommons.org/ns#"
   xmlns:rdf="http://www.w3.org/1999/02/22-rdf-syntax-ns#"
   xmlns:svg="http://www.w3.org/2000/svg"
   xmlns="http://www.w3.org/2000/svg"
   xmlns:xlink="http://www.w3.org/1999/xlink"
   xmlns:sodipodi="http://sodipodi.sourceforge.net/DTD/sodipodi-0.dtd"
   xmlns:inkscape="http://www.inkscape.org/namespaces/inkscape"
   width="48"
   height="48"
   id="svg5453"
   version="1.1"
   inkscape:version="0.91 r13725"
   sodipodi:docname="pidgin.svg"
   inkscape:export-filename="/home/phil/Projects/KDE/Konversation/new/Render/konversation 48x48.png"
   inkscape:export-xdpi="90"
   inkscape:export-ydpi="90"
   viewBox="0 0 48 48">
  <defs
     id="defs5455">
    <linearGradient
       id="linearGradient4207"
       osb:paint="gradient">
      <stop
         style="stop-color:#3498db;stop-opacity:1;"
         offset="0"
         id="stop3371" />
      <stop
         style="stop-color:#3498db;stop-opacity:0;"
         offset="1"
         id="stop3373" />
    </linearGradient>
    <linearGradient
       inkscape:collect="always"
       id="linearGradient4143">
      <stop
         style="stop-color:#197cf1;stop-opacity:1"
         offset="0"
         id="stop4145" />
      <stop
         style="stop-color:#20bcfa;stop-opacity:1"
         offset="1"
         id="stop4147" />
    </linearGradient>
    <linearGradient
       inkscape:collect="always"
       xlink:href="#linearGradient4143"
       id="linearGradient4149"
       x1="400.57144"
       y1="545.79797"
       x2="400.57144"
       y2="517.79797"
       gradientUnits="userSpaceOnUse"
       gradientTransform="matrix(0.92857108,0,0,0.92857057,28.612354,37.986142)" />
    <linearGradient
       inkscape:collect="always"
       id="linearGradient4290">
      <stop
         style="stop-color:#7cbaf8;stop-opacity:1"
         offset="0"
         id="stop4292" />
      <stop
         style="stop-color:#f4fcff;stop-opacity:1"
         offset="1"
         id="stop4294" />
    </linearGradient>
    <linearGradient
       inkscape:collect="always"
       xlink:href="#linearGradient4290"
       id="linearGradient3077"
       gradientUnits="userSpaceOnUse"
       gradientTransform="matrix(1.3793103,0,0,1.3793103,1.2413794,1005.6035)"
       x1="16"
       y1="29.999973"
       x2="16"
       y2="2" />
    <linearGradient
       inkscape:collect="always"
       xlink:href="#linearGradient4143"
       id="linearGradient3083"
       gradientUnits="userSpaceOnUse"
       gradientTransform="matrix(1.2807877,0,0,1.280787,-450.11598,346.31133)"
       x1="400.57144"
       y1="545.79797"
       x2="400.57144"
       y2="517.79797" />
    <linearGradient
       inkscape:collect="always"
       xlink:href="#linearGradient4290"
       id="linearGradient3870"
       gradientUnits="userSpaceOnUse"
       gradientTransform="matrix(1.3793103,0,0,1.3793103,-18.758621,1005.6035)"
       x1="16"
       y1="29.999973"
       x2="16"
       y2="2" />
    <linearGradient
       gradientTransform="matrix(1.236264,0,0,0.549587,-5.4828866,3.775206)"
       xlink:href="#linearGradient8868"
       id="linearGradient3179"
       y1="10.602999"
       x1="12.409452"
       y2="13.895189"
       gradientUnits="userSpaceOnUse"
       x2="16.140554" />
    <linearGradient
       id="linearGradient8868">
      <stop
         offset="0"
         style="stop-color:#3b1941"
         id="stop8870" />
      <stop
         offset="1"
         style="stop-color:#a646b7"
         id="stop8872" />
    </linearGradient>
  </defs>
  <sodipodi:namedview
     id="base"
     pagecolor="#ffffff"
     bordercolor="#666666"
     borderopacity="1.0"
     inkscape:pageopacity="0"
     inkscape:pageshadow="2"
     inkscape:zoom="9.5134105"
     inkscape:cx="0.41263624"
     inkscape:cy="23.414166"
     inkscape:document-units="px"
     inkscape:current-layer="layer1"
     showgrid="true"
     fit-margin-top="0"
     fit-margin-left="0"
     fit-margin-right="0"
     fit-margin-bottom="0"
     inkscape:window-width="1366"
     inkscape:window-height="699"
     inkscape:window-x="0"
     inkscape:window-y="0"
     inkscape:window-maximized="1"
     inkscape:showpageshadow="false"
     borderlayer="true"
     showguides="false"
     inkscape:snap-bbox="true"
     inkscape:bbox-nodes="true"
     inkscape:object-nodes="true"
     inkscape:snap-nodes="true"
     inkscape:snap-others="false">
    <inkscape:grid
       type="xygrid"
       id="grid4063" />
    <sodipodi:guide
       position="1.1650391e-05,47.999996"
       orientation="4,0"
       id="guide4146" />
    <sodipodi:guide
       position="1.1650391e-05,43.999996"
       orientation="0,48"
       id="guide4148" />
    <sodipodi:guide
       position="48.000012,43.999996"
       orientation="-4,0"
       id="guide4150" />
    <sodipodi:guide
       position="48.000012,47.999996"
       orientation="0,-48"
       id="guide4152" />
    <sodipodi:guide
       position="1.1650391e-05,4.0000264"
       orientation="4,0"
       id="guide4154" />
    <sodipodi:guide
       position="1.1650391e-05,2.6367188e-05"
       orientation="0,48"
       id="guide4156" />
    <sodipodi:guide
       position="48.000012,2.6367188e-05"
       orientation="-4,0"
       id="guide4158" />
    <sodipodi:guide
       position="48.000012,4.0000264"
       orientation="0,-48"
       id="guide4160" />
    <sodipodi:guide
       position="48.000012,48.000026"
       orientation="0,-4"
       id="guide4162" />
    <sodipodi:guide
       position="44.000012,48.000026"
       orientation="48,0"
       id="guide4164" />
    <sodipodi:guide
       position="44.000012,2.6367188e-05"
       orientation="0,4"
       id="guide4166" />
    <sodipodi:guide
       position="48.000012,2.6367188e-05"
       orientation="-48,0"
       id="guide4168" />
    <sodipodi:guide
       position="4.0000422,48.000026"
       orientation="0,-4"
       id="guide4170" />
    <sodipodi:guide
       position="4.2167969e-05,48.000026"
       orientation="48,0"
       id="guide4172" />
    <sodipodi:guide
       position="4.2167969e-05,2.6367188e-05"
       orientation="0,4"
       id="guide4174" />
    <sodipodi:guide
       position="4,7"
       orientation="-48,0"
       id="guide4176" />
    <sodipodi:guide
       position="4.0000422,43.999996"
       orientation="29.999969,0"
       id="guide4437" />
    <sodipodi:guide
       position="4.0000422,14.000026"
       orientation="0,39.999969"
       id="guide4439" />
    <sodipodi:guide
       position="44.000012,14.000026"
       orientation="-29.999969,0"
       id="guide4441" />
    <sodipodi:guide
       position="44.000012,43.999996"
       orientation="0,-39.999969"
       id="guide4443" />
  </sodipodi:namedview>
  <metadata
     id="metadata5458">
    <rdf:RDF>
      <cc:Work
         rdf:about="">
        <dc:format>image/svg+xml</dc:format>
        <dc:type
           rdf:resource="http://purl.org/dc/dcmitype/StillImage" />
        <dc:title></dc:title>
      </cc:Work>
    </rdf:RDF>
  </metadata>
  <g
     inkscape:label="Capa 1"
     inkscape:groupmode="layer"
     id="layer1"
     transform="translate(-384.57143,-499.798)">
    <path
       inkscape:connector-curvature="0"
       style="fill:#cb44d0;fill-opacity:1;fill-rule:evenodd;stroke:none;stroke-width:1px;stroke-linecap:butt;stroke-linejoin:miter;stroke-opacity:1"
       d="m 428.57143,503.798 v 30 h -20 l -11,10 v -10 h -9 v -30 z"
       id="path4445-0" />
    <g
       style="stroke:none"
       id="g10"
       transform="matrix(0.48458763,0,0,0.48458763,399.84452,505.292)">
      <rect
         width="7"
         x="15.642976"
         y="26.409245"
         rx="0.81387848"
         height="1.8602936"
         ry="0.93010002"
         style="fill:#eeeeec"
         id="rect8734" />
      <path
         style="fill:#7e408d"
         id="rect5189"
         d="m 10.9681,7.6822 c 2.85778,-1.80567 7.71538,1.41357 8.23376,3.0698 l -3.94536,0 C 15.194,8.40825 10.9681,7.6822 10.9681,7.6822 Z"
         inkscape:connector-curvature="0" />
      <path
         style="fill:url(#linearGradient3179)"
         id="path5192"
         d="m 8.921,9.9272 c 1.62249,-1.85718 6.61263,-0.417414 6.61263,0.933115 l -3.7901,0.5515 c 1.21534,-1.61309 -2.8225,-1.48464 -2.8225,-1.48464 z"
         inkscape:connector-curvature="0" />
      <path
         style="fill:#7e408d"
         id="path5176"
         d="m 16.4474,10.4818 c -6.624,0 -12.5165,5.4483 -11.9375,12.2309 1.26701,14.8421 -2.5695,12.8307 -3.00985,19.6037 0,2.05951 0.98542,3.0392 3.09205,3.0392 1.18749,0 26.2153,0.144413 28.9063,0.144413 2.11413,0 1.94897,-2.03528 1.94897,-2.03528 0,-2.63394 -6.4021,-4.84407 -8.18655,-6.77749 -1.82842,-1.97739 0.186547,-9.03358 0.186547,-9.03358 0.641306,-1.51174 1,-3.18684 1,-4.94096 0,-6.81852 -5.376,-12.2309 -12,-12.2309 z"
         inkscape:connector-curvature="0" />
      <path
         style="fill:#9a5ba8"
         id="path8838"
         d="m 11.0625,17.0001 c -1.33587,0 -2.44011,0.784267 -3.09375,1.75 C 7.315109,19.715833 7,20.88023 7,22.03135 c 0,2.69482 1.99153,5.03125 4.5625,5.03125 1.07092,0 2.12758,-0.503878 3,-1.3125 0.872415,-0.808622 1.5625,-2.00929 1.5625,-3.4375 0,-1.27751 -0.668754,-2.4724 -1.5625,-3.46875 -0.893746,-0.996351 -2.08474,-1.84375 -3.5,-1.84375 z"
         inkscape:connector-curvature="0" />
      <path
         style="fill:#ffffff"
         id="path5157"
         d="m 15.0938,22.3213 c 0,2.208 -2.10588,3.70991 -3.52632,3.70991 -1.94653,0 -3.52632,-1.792 -3.52632,-4 0,-1.91879 1.08293,-4 3.02946,-4 1.94653,0 4.02318,2.54569 4.02318,4.29009 z"
         inkscape:connector-curvature="0" />
      <path
         style="fill:#6b1a80"
         id="path5162"
         d="m 13.0937,22.171 a 1.53617,2 0 1 1 -3.07234,0 1.53617,2 0 1 1 3.07234,0 z"
         inkscape:connector-curvature="0" />
      <path
         style="fill:#9a5ba8"
         id="path8846"
         d="m 25.7223,17.003 c -1.05129,0.04043 -2.00447,0.440483 -2.65625,1.15625 -1.56513,1.71879 -1.35247,4.45589 0.28125,6.25 0.698572,0.767154 1.60483,1.34984 2.625,1.5625 1.02017,0.212663 2.2139,-0.03991 3.03125,-0.9375 0.873805,-0.95959 1.07102,-2.24602 1,-3.46875 -0.07102,-1.22273 -0.402818,-2.41953 -1.1875,-3.28125 -0.874585,-0.960447 -2.05234,-1.3213 -3.09375,-1.28125 z"
         inkscape:connector-curvature="0" />
      <path
         style="fill:#ffffff"
         id="path5169"
         d="m 28.0709,18.9849 c -1.30446,-1.43253 -3.42662,-1.05088 -4.25953,-0.136193 -1.1414,1.25346 -1.00906,3.43339 0.295399,4.86592 1.1336,1.24489 2.99816,1.89781 4.13957,0.644351 1.1414,-1.25346 0.855142,-4.24233 -0.175432,-5.37407 z"
         inkscape:connector-curvature="0" />
      <path
         style="fill:#6b1a80"
         id="path5171"
         d="m 27.0348,22.1041 a 1.5,2.06984 0 1 1 -2.99999,0 1.5,2.06984 0 1 1 2.99999,0 z"
         inkscape:connector-curvature="0" />
      <path
         style="fill:#fdad38"
         id="rect5187"
         d="m 12.018,27.2845 c 6.31421,3.66343 6.51727,-2.25024 7.60406,-2.25024 1.07184,0 1.26735,5.91199 6.39594,2.19605 -0.285266,3.08117 -3.94973,5.8352 -4.99792,6.8352 -2.0319,-1.09375 -6.98131,-2.31138 -9.00208,-6.78101 z"
         inkscape:connector-curvature="0" />
      <path
         style="opacity:0.61100003"
         id="path8806"
         d="M 21.2035,29.2918 A 1.0611551,0.38879831 71 1 0 21.83236,28.754263 1.0611551,0.38879831 71 0 0 21.2035,29.2918 Z"
         inkscape:connector-curvature="0" />
      <path
         style="opacity:0.61100003"
         id="path8816"
         d="M 18.8324,29.3142 A 0.388037,1.05908 18 1 1 18.20354,28.776663 0.388037,1.05908 18 0 1 18.8324,29.3142 Z"
         inkscape:connector-curvature="0" />
    </g>
  </g>
</svg>
