<?xml version="1.0" encoding="UTF-8" standalone="no"?>
<svg
   xmlns:dc="http://purl.org/dc/elements/1.1/"
   xmlns:cc="http://creativecommons.org/ns#"
   xmlns:rdf="http://www.w3.org/1999/02/22-rdf-syntax-ns#"
   xmlns:svg="http://www.w3.org/2000/svg"
   xmlns="http://www.w3.org/2000/svg"
   xmlns:xlink="http://www.w3.org/1999/xlink"
   xmlns:sodipodi="http://sodipodi.sourceforge.net/DTD/sodipodi-0.dtd"
   xmlns:inkscape="http://www.inkscape.org/namespaces/inkscape"
   id="svg2"
   height="48"
   version="1.1"
   width="48"
   inkscape:version="0.91 r13725"
   sodipodi:docname="qucs.svg">
  <sodipodi:namedview
     pagecolor="#ffffff"
     bordercolor="#666666"
     borderopacity="1"
     objecttolerance="10"
     gridtolerance="10"
     guidetolerance="10"
     inkscape:pageopacity="0"
     inkscape:pageshadow="2"
     inkscape:window-width="1366"
     inkscape:window-height="699"
     id="namedview15"
     showgrid="false"
     inkscape:zoom="4.9166667"
     inkscape:cx="-3.0508476"
     inkscape:cy="32.135593"
     inkscape:window-x="0"
     inkscape:window-y="0"
     inkscape:window-maximized="1"
     inkscape:current-layer="layer1" />
  <defs
     id="defs5455">
    <linearGradient
       gradientUnits="userSpaceOnUse"
       x2="0"
       y2="503.798"
       y1="543.79797"
       id="linearGradient4174"
       xlink:href="#linearGradient4303" />
    <linearGradient
       id="linearGradient4303">
      <stop
         id="stop4305"
         style="stop-color:#c6cdd1" />
      <stop
         id="stop4307"
         style="stop-color:#e0e5e7"
         offset="1" />
    </linearGradient>
    <clipPath
       id="clipPath-341496612">
      <g
         transform="translate(0,-1004.3622)"
         id="g17">
        <path
           style="fill:#1890d0"
           inkscape:connector-curvature="0"
           d="m -24,13 c 0,1.105 -0.672,2 -1.5,2 -0.828,0 -1.5,-0.895 -1.5,-2 0,-1.105 0.672,-2 1.5,-2 0.828,0 1.5,0.895 1.5,2 z"
           transform="matrix(15.333333,0,0,11.5,414.99999,878.8622)"
           id="path19" />
      </g>
    </clipPath>
  </defs>
  <metadata
     id="metadata5458">
    <rdf:RDF>
      <cc:Work
         rdf:about="">
        <dc:format>image/svg+xml</dc:format>
        <dc:type
           rdf:resource="http://purl.org/dc/dcmitype/StillImage" />
        <dc:title></dc:title>
      </cc:Work>
    </rdf:RDF>
  </metadata>
  <g
     transform="matrix(1 0 0 1 -384.57143 -499.798)"
     id="layer1">
    <rect
       id="rect4166"
       style="stroke-opacity:0.550265;fill:#f5a92f;stroke-width:2.8;fill-opacity:1"
       height="39.999969"
       rx="19.999985"
       y="503.798"
       x="388.57144"
       width="39.999989" />
    <path
       d="M 4.0117188 23.5 C 4.007647 23.666859 4 23.832126 4 24 C 4 35.079992 12.920008 44 24 44 C 35.079992 44 44 35.079992 44 24 C 44 23.832126 43.992353 23.666859 43.988281 23.5 C 43.724099 34.346571 34.912435 43 24 43 C 13.087565 43 4.2759007 34.346571 4.0117188 23.5 z "
       id="rect4775"
       style="stroke-opacity:0.550265;fill:#d88f18;stroke-width:2.8;fill-opacity:1"
       transform="matrix(1 0 0 1 384.57143 499.798)" />
    <g
       style="fill:#ffffff;fill-opacity:0.84693879;stroke-width:1.31742239;stroke-miterlimit:4;stroke-dasharray:none"
       transform="matrix(0.1156802,0,0,0.1156802,392.89281,507.97913)"
       id="Settings" />
    <g
       transform="translate(384.57143,500.00139)"
       id="g53">
      <g
         clip-path="url(#clipPath-341496612)"
         id="g55">
        <!-- color: #eea63b -->
        <g
           id="g57">
          <path
             style="fill:#f9f9f9;fill-opacity:0.91399997;fill-rule:nonzero;stroke:none"
             inkscape:connector-curvature="0"
             d="M 15,34 34.574219,14 37,16.425781 19.601562,34 M 15,34"
             id="path59" />
          <path
             style="fill:#f9f9f9;fill-opacity:0.91399997;fill-rule:nonzero;stroke:none"
             inkscape:connector-curvature="0"
             d="M 22,34 33.609,22 36,24.586 26.414,34 M 22,34"
             id="path61" />
          <path
             style="fill:#f9f9f9;fill-opacity:0.91399997;fill-rule:nonzero;stroke:none"
             inkscape:connector-curvature="0"
             d="M 29,34 34.477,28.652 36.61,31 33.688,34 M 29,34"
             id="path63" />
          <path
             style="fill:#f9f9f9;fill-opacity:0.91399997;fill-rule:nonzero;stroke:none"
             inkscape:connector-curvature="0"
             d="m 14.781,16.875 c -2.09,0 -3.781,1.691 -3.781,3.781 0,2.09 1.691,3.781 3.781,3.781 0.086,0 0.164,-0.027 0.25,-0.031 L 15,24.437 c 0.113,0.039 0.316,-0.012 0.531,-0.063 0.426,-0.105 0.93,-0.246 1.188,0.031 l 2.625,2.469 1.875,-1.875 -2.594,-2.438 c -0.27,-0.242 -0.195,-0.68 -0.125,-1.156 0.035,-0.234 0.059,-0.484 0.063,-0.719 0,-0.012 0,-0.023 0,-0.031 0,-2.09 -1.691,-3.781 -3.781,-3.781 m 0.063,2.313 c 0.828,0 1.5,0.672 1.5,1.5 0,0.828 -0.672,1.5 -1.5,1.5 -0.828,0 -1.5,-0.672 -1.5,-1.5 0,-0.828 0.672,-1.5 1.5,-1.5 m 0,0"
             id="path65" />
        </g>
      </g>
    </g>
  </g>
</svg>
