<?xml version="1.0" encoding="UTF-8" standalone="no"?>
<!-- Created with Inkscape (http://www.inkscape.org/) -->

<svg
   xmlns:dc="http://purl.org/dc/elements/1.1/"
   xmlns:cc="http://creativecommons.org/ns#"
   xmlns:rdf="http://www.w3.org/1999/02/22-rdf-syntax-ns#"
   xmlns:svg="http://www.w3.org/2000/svg"
   xmlns="http://www.w3.org/2000/svg"
   xmlns:sodipodi="http://sodipodi.sourceforge.net/DTD/sodipodi-0.dtd"
   xmlns:inkscape="http://www.inkscape.org/namespaces/inkscape"
   width="48"
   height="48"
   id="svg5453"
   version="1.1"
   inkscape:version="0.91 r13725"
   sodipodi:docname="whatsie.svg">
  <defs
     id="defs5455" />
  <sodipodi:namedview
     id="base"
     pagecolor="#ffffff"
     bordercolor="#666666"
     borderopacity="1.0"
     inkscape:pageopacity="0"
     inkscape:pageshadow="2"
     inkscape:zoom="32.169603"
     inkscape:cx="18.485909"
     inkscape:cy="42.024452"
     inkscape:document-units="px"
     inkscape:current-layer="layer1"
     showgrid="true"
     fit-margin-top="0"
     fit-margin-left="0"
     fit-margin-right="0"
     fit-margin-bottom="0"
     inkscape:window-width="1366"
     inkscape:window-height="699"
     inkscape:window-x="0"
     inkscape:window-y="0"
     inkscape:window-maximized="1"
     inkscape:showpageshadow="false"
     borderlayer="true"
     showguides="true">
    <inkscape:grid
       type="xygrid"
       id="grid4063" />
    <sodipodi:guide
       position="1.1650391e-05,47.999996"
       orientation="4,0"
       id="guide4146" />
    <sodipodi:guide
       position="1.1650391e-05,43.999996"
       orientation="0,48"
       id="guide4148" />
    <sodipodi:guide
       position="48.000012,43.999996"
       orientation="-4,0"
       id="guide4150" />
    <sodipodi:guide
       position="48.000012,47.999996"
       orientation="0,-48"
       id="guide4152" />
    <sodipodi:guide
       position="1.1650391e-05,4.0000264"
       orientation="4,0"
       id="guide4154" />
    <sodipodi:guide
       position="1.1650391e-05,2.6367188e-05"
       orientation="0,48"
       id="guide4156" />
    <sodipodi:guide
       position="48.000012,2.6367188e-05"
       orientation="-4,0"
       id="guide4158" />
    <sodipodi:guide
       position="48.000012,4.0000264"
       orientation="0,-48"
       id="guide4160" />
    <sodipodi:guide
       position="48.000012,48.000026"
       orientation="0,-4"
       id="guide4162" />
    <sodipodi:guide
       position="44.000012,48.000026"
       orientation="48,0"
       id="guide4164" />
    <sodipodi:guide
       position="44.000012,2.6367188e-05"
       orientation="0,4"
       id="guide4166" />
    <sodipodi:guide
       position="48.000012,2.6367188e-05"
       orientation="-48,0"
       id="guide4168" />
    <sodipodi:guide
       position="4.0000422,48.000026"
       orientation="0,-4"
       id="guide4170" />
    <sodipodi:guide
       position="4.2167969e-05,48.000026"
       orientation="48,0"
       id="guide4172" />
    <sodipodi:guide
       position="4.2167969e-05,2.6367188e-05"
       orientation="0,4"
       id="guide4174" />
    <sodipodi:guide
       position="4.0000422,2.6367188e-05"
       orientation="-48,0"
       id="guide4176" />
    <sodipodi:guide
       position="4.0000117,47.999996"
       orientation="43.999969,0"
       id="guide4638" />
    <sodipodi:guide
       position="4.0000117,4.0000264"
       orientation="0,20"
       id="guide4640" />
    <sodipodi:guide
       position="24.000012,4.0000264"
       orientation="-43.999969,0"
       id="guide4642" />
    <sodipodi:guide
       position="24.000012,47.999996"
       orientation="0,-20"
       id="guide4644" />
    <sodipodi:guide
       position="4.0000422,24.000026"
       orientation="20,0"
       id="guide4666" />
    <sodipodi:guide
       position="4.0000422,4.0000264"
       orientation="0,39.999969"
       id="guide4668" />
    <sodipodi:guide
       position="44.000012,4.0000264"
       orientation="-20,0"
       id="guide4670" />
    <sodipodi:guide
       position="44.000012,24.000026"
       orientation="0,-39.999969"
       id="guide4672" />
  </sodipodi:namedview>
  <metadata
     id="metadata5458">
    <rdf:RDF>
      <cc:Work
         rdf:about="">
        <dc:format>image/svg+xml</dc:format>
        <dc:type
           rdf:resource="http://purl.org/dc/dcmitype/StillImage" />
        <dc:title></dc:title>
      </cc:Work>
    </rdf:RDF>
  </metadata>
  <g
     inkscape:label="Capa 1"
     inkscape:groupmode="layer"
     id="layer1"
     transform="translate(-384.57143,-499.798)">
    <path
       inkscape:connector-curvature="0"
       style="fill:#0fa15f;fill-opacity:1;fill-rule:evenodd;stroke:none;stroke-width:1px;stroke-linecap:butt;stroke-linejoin:miter;stroke-opacity:1"
       d="m 425.57143,506.798 0,27 -17.99997,0 -10.00003,10 0,-10 -9,0 0,-27 z"
       id="path4445"
       sodipodi:nodetypes="cccccccc" />
    <path
       inkscape:connector-curvature="0"
       id="path4149"
       d="m 405.66394,526.42083 c -0.90495,-0.12339 -1.94,-0.48555 -2.62679,-0.9191 -0.0832,-0.0525 -0.20086,-0.0949 -0.26155,-0.0942 -0.0607,5.4e-4 -0.64807,0.14323 -1.3053,0.31682 -0.65724,0.17358 -1.20988,0.3007 -1.2281,0.28248 -0.0182,-0.0182 0.11952,-0.58653 0.30611,-1.26293 l 0.33922,-1.22981 -0.2183,-0.36656 c -1.36128,-2.2859 -1.31709,-5.10949 0.11415,-7.29309 1.05348,-1.60724 2.61326,-2.66253 4.50091,-3.04511 0.38617,-0.0783 0.56995,-0.0909 1.32477,-0.0909 0.97381,0 1.39216,0.0592 2.13352,0.30186 0.40993,0.13419 1.17529,0.48555 1.49159,0.68476 0.61023,0.38431 1.36545,1.05055 1.77163,1.5629 1.45903,1.84035 1.8973,4.25513 1.17337,6.4651 -0.0756,0.23079 -0.2346,0.61839 -0.35333,0.86131 -1.30805,2.67642 -4.21311,4.22855 -7.1619,3.82648 z"
       style="fill:#0fa15f;fill-opacity:1;stroke:#ffffff;stroke-width:1.50370538;stroke-linecap:butt;stroke-linejoin:miter;stroke-miterlimit:100;stroke-dasharray:none;stroke-opacity:1"
       sodipodi:nodetypes="sssssscssssssssss" />
    <path
       inkscape:connector-curvature="0"
       id="path4149-2"
       d="m 408.98554,522.70545 c 0.25887,-0.08 0.68091,-0.35879 0.8209,-0.54234 0.14271,-0.18712 0.21736,-0.44783 0.21847,-0.76307 l 9.2e-4,-0.25777 -0.69273,-0.34672 c -0.74883,-0.37482 -0.88659,-0.42941 -1.00711,-0.39917 -0.0467,0.0117 -0.14469,0.10825 -0.24145,0.23782 -0.30183,0.40419 -0.51872,0.62084 -0.62156,0.62084 -0.13021,0 -0.70815,-0.27757 -1.0474,-0.50304 -0.15697,-0.10433 -0.4137,-0.31168 -0.57051,-0.4608 -0.40486,-0.38497 -0.89385,-1.05178 -0.89385,-1.21888 0,-0.0367 0.0945,-0.1779 0.21008,-0.31385 0.24007,-0.2825 0.33765,-0.45462 0.33765,-0.59556 0,-0.15918 -0.56656,-1.49042 -0.68088,-1.59986 -0.0936,-0.0897 -0.1074,-0.0926 -0.42483,-0.0926 -0.39373,0 -0.47471,0.0386 -0.72857,0.34704 -0.55803,0.67809 -0.59971,1.50327 -0.12228,2.42096 0.14977,0.28789 0.60615,0.94365 0.91017,1.3078 0.28648,0.34314 0.888,0.92146 1.19488,1.14879 0.58979,0.4369 1.30186,0.76067 2.18744,0.9946 0.38328,0.10123 0.85323,0.10771 1.15065,0.0159 z"
       style="fill:#ffffff;fill-opacity:1;stroke:none;stroke-opacity:1"
       sodipodi:nodetypes="ssscsssssssssssssssss" />
  </g>
</svg>
