<?xml version="1.0" encoding="UTF-8" standalone="no"?>
<!-- Created with Inkscape (http://www.inkscape.org/) -->

<svg
   xmlns:dc="http://purl.org/dc/elements/1.1/"
   xmlns:cc="http://creativecommons.org/ns#"
   xmlns:rdf="http://www.w3.org/1999/02/22-rdf-syntax-ns#"
   xmlns:svg="http://www.w3.org/2000/svg"
   xmlns="http://www.w3.org/2000/svg"
   xmlns:xlink="http://www.w3.org/1999/xlink"
   xmlns:sodipodi="http://sodipodi.sourceforge.net/DTD/sodipodi-0.dtd"
   xmlns:inkscape="http://www.inkscape.org/namespaces/inkscape"
   width="48"
   height="48"
   id="svg5453"
   version="1.1"
   inkscape:version="0.91 r13725"
   sodipodi:docname="x-plane.svg">
  <defs
     id="defs5455">
    <linearGradient
       inkscape:collect="always"
       xlink:href="#linearGradient4143"
       id="linearGradient4174"
       x1="409.57144"
       y1="543.79797"
       x2="409.57144"
       y2="503.798"
       gradientUnits="userSpaceOnUse"
       gradientTransform="translate(-5.9283447e-6,1.1108398e-5)" />
    <linearGradient
       id="linearGradient4143"
       inkscape:collect="always">
      <stop
         id="stop4145"
         offset="0"
         style="stop-color:#197cf1;stop-opacity:1" />
      <stop
         id="stop4147"
         offset="1"
         style="stop-color:#20bcfa;stop-opacity:1" />
    </linearGradient>
    <clipPath
       id="clipPath-590926178">
      <g
         transform="translate(0,-1004.3622)"
         id="g17">
        <path
           style="fill:#1890d0"
           inkscape:connector-curvature="0"
           d="m -24,13 c 0,1.105 -0.672,2 -1.5,2 -0.828,0 -1.5,-0.895 -1.5,-2 0,-1.105 0.672,-2 1.5,-2 0.828,0 1.5,0.895 1.5,2 z"
           transform="matrix(15.333333,0,0,11.5,414.99999,878.8622)"
           id="path19" />
      </g>
    </clipPath>
  </defs>
  <sodipodi:namedview
     id="base"
     pagecolor="#ffffff"
     bordercolor="#666666"
     borderopacity="1.0"
     inkscape:pageopacity="0"
     inkscape:pageshadow="2"
     inkscape:zoom="3.77"
     inkscape:cx="-41.798408"
     inkscape:cy="21.207043"
     inkscape:document-units="px"
     inkscape:current-layer="layer1"
     showgrid="false"
     fit-margin-top="0"
     fit-margin-left="0"
     fit-margin-right="0"
     fit-margin-bottom="0"
     inkscape:window-width="1366"
     inkscape:window-height="699"
     inkscape:window-x="0"
     inkscape:window-y="0"
     inkscape:window-maximized="1"
     inkscape:showpageshadow="false"
     borderlayer="true"
     showguides="false">
    <inkscape:grid
       type="xygrid"
       id="grid4063" />
    <sodipodi:guide
       position="1.1650391e-05,47.999996"
       orientation="4,0"
       id="guide4146" />
    <sodipodi:guide
       position="1.1650391e-05,43.999996"
       orientation="0,48"
       id="guide4148" />
    <sodipodi:guide
       position="48.000012,43.999996"
       orientation="-4,0"
       id="guide4150" />
    <sodipodi:guide
       position="48.000012,47.999996"
       orientation="0,-48"
       id="guide4152" />
    <sodipodi:guide
       position="1.1650391e-05,4.0000264"
       orientation="4,0"
       id="guide4154" />
    <sodipodi:guide
       position="1.1650391e-05,2.6367188e-05"
       orientation="0,48"
       id="guide4156" />
    <sodipodi:guide
       position="48.000012,2.6367188e-05"
       orientation="-4,0"
       id="guide4158" />
    <sodipodi:guide
       position="48.000012,4.0000264"
       orientation="0,-48"
       id="guide4160" />
    <sodipodi:guide
       position="48.000012,48.000026"
       orientation="0,-4"
       id="guide4162" />
    <sodipodi:guide
       position="44.000012,48.000026"
       orientation="48,0"
       id="guide4164" />
    <sodipodi:guide
       position="44.000012,2.6367188e-05"
       orientation="0,4"
       id="guide4166" />
    <sodipodi:guide
       position="48.000012,2.6367188e-05"
       orientation="-48,0"
       id="guide4168" />
    <sodipodi:guide
       position="4.0000422,48.000026"
       orientation="0,-4"
       id="guide4170" />
    <sodipodi:guide
       position="4.2167969e-05,48.000026"
       orientation="48,0"
       id="guide4172" />
    <sodipodi:guide
       position="4.2167969e-05,2.6367188e-05"
       orientation="0,4"
       id="guide4174" />
    <sodipodi:guide
       position="4.0000422,2.6367188e-05"
       orientation="-48,0"
       id="guide4176" />
    <sodipodi:guide
       position="4.0000117,47.999996"
       orientation="43.999969,0"
       id="guide4638" />
    <sodipodi:guide
       position="4.0000117,4.0000264"
       orientation="0,20"
       id="guide4640" />
    <sodipodi:guide
       position="24.000012,4.0000264"
       orientation="-43.999969,0"
       id="guide4642" />
    <sodipodi:guide
       position="24.000012,47.999996"
       orientation="0,-20"
       id="guide4644" />
    <sodipodi:guide
       position="4.0000422,24.000026"
       orientation="20,0"
       id="guide4666" />
    <sodipodi:guide
       position="4.0000422,4.0000264"
       orientation="0,39.999969"
       id="guide4668" />
    <sodipodi:guide
       position="44.000012,4.0000264"
       orientation="-20,0"
       id="guide4670" />
    <sodipodi:guide
       position="44.000012,24.000026"
       orientation="0,-39.999969"
       id="guide4672" />
  </sodipodi:namedview>
  <metadata
     id="metadata5458">
    <rdf:RDF>
      <cc:Work
         rdf:about="">
        <dc:format>image/svg+xml</dc:format>
        <dc:type
           rdf:resource="http://purl.org/dc/dcmitype/StillImage" />
        <dc:title />
      </cc:Work>
    </rdf:RDF>
  </metadata>
  <g
     inkscape:label="Capa 1"
     inkscape:groupmode="layer"
     id="layer1"
     transform="translate(-384.57143,-499.798)">
    <rect
       style="opacity:1;fill:url(#linearGradient4174);fill-opacity:1;stroke:none;stroke-width:2.79999995;stroke-miterlimit:4;stroke-dasharray:none;stroke-opacity:0.55026455"
       id="rect4166"
       width="39.999989"
       height="39.999969"
       x="388.57144"
       y="503.798"
       ry="19.999985" />
    <path
       style="opacity:1;fill:#0c69cf;fill-opacity:1;stroke:none;stroke-width:2.79999995;stroke-miterlimit:4;stroke-dasharray:none;stroke-opacity:0.55026455"
       d="M 4.0117188 23.5 C 4.007647 23.666859 4 23.832126 4 24 C 4 35.079992 12.920008 44 24 44 C 35.079992 44 44 35.079992 44 24 C 44 23.832126 43.992353 23.666859 43.988281 23.5 C 43.724099 34.346571 34.912435 43 24 43 C 13.087565 43 4.2759007 34.346571 4.0117188 23.5 z "
       transform="translate(384.57143,499.798)"
       id="rect4775" />
    <g
       transform="matrix(0.90386465,0,0,0.90386465,386.82537,501.89627)"
       id="g49">
      <g
         clip-path="url(#clipPath-590926178)"
         id="g51">
        <!-- color: #619bd0 -->
        <g
           id="g53">
          <path
             style="fill:#2d2d2d;fill-opacity:1;fill-rule:nonzero;stroke:none"
             inkscape:connector-curvature="0"
             d="m 11,11 4.215,6.422 c 1.449,-2.273 7.914,6.871 6.883,-3.121 L 19.938,11 m 5.129,4.543 c -16.711,21.637 -8.355,10.82 0,0 m 0,0 c 0.262,0.195 0.523,0.398 0.762,0.637 3.824,7.762 3.344,16.281 -8.203,10.734 l -6.625,10.08 8.934,0 4.066,-6.188 4.063,6.188 8.941,0 -8.531,-13 8.531,-13 -8.941,0 m -13.05,6.129 4.52,6.887 -2,3.063 c 2.102,1.168 7.391,3.32 9.176,1.535 2.156,-2.16 2.336,-9.926 0.176,-12.09 -0.164,-0.168 -1.539,-0.977 -1.723,-1.117 l -1.227,1.859 -1.844,-2.969 c -3.145,-0.195 -8.813,0.254 -7.07,2.832 m 0,-0.004"
             id="path55" />
          <path
             style="fill:#ffffff;fill-opacity:1;fill-rule:evenodd;stroke:none"
             inkscape:connector-curvature="0"
             d="m 23.992,12.02 c -0.652,0 -0.965,2.051 -1.078,3.02 -0.023,0.293 -0.047,0.559 -0.047,0.828 l 0,2.902 c -0.008,0.168 -0.039,0.211 -0.137,0.297 l -2.355,1.949 c -0.16,0.105 -0.371,0.102 -0.355,-0.262 l 0,-0.258 c 0,-0.145 -0.117,-0.262 -0.27,-0.262 l -0.336,0 c -0.152,0 -0.273,0.117 -0.273,0.262 l 0,1.52 c 0,0.047 -0.008,0.051 -0.043,0.082 l -2.234,1.887 c -0.227,0.152 -0.313,0.004 -0.324,-0.262 l 0,-0.473 c 0,-0.145 -0.117,-0.262 -0.27,-0.262 l -0.336,0 c -0.152,0 -0.273,0.117 -0.273,0.262 l 0,1.574 c 0,0.02 -0.008,0.023 -0.02,0.031 l -2.395,1.969 c -0.152,0.184 -0.242,0.27 -0.234,0.582 L 13,28.293 c -0.02,0.117 0.102,0.168 0.184,0.129 0,0 4.09,-2.402 5.656,-3.063 1.57,-0.656 3.66,-1.109 3.66,-1.109 0.16,-0.035 0.305,-0.043 0.367,0.121 l 0,6.648 c 0.004,0.793 0.316,1.273 0,1.559 l -2.609,2.414 c -0.156,0.16 -0.25,0.297 -0.266,0.555 l 0.004,0.277 c 0.008,0.125 0.059,0.191 0.18,0.176 l 3.336,-0.777 c 0.086,-0.027 0.156,-0.02 0.219,0.063 l 0.34,0.715 0.418,-0.734 c 0.059,-0.078 0.168,-0.113 0.25,-0.086 1.027,0.23 2.055,0.461 3.086,0.695 0.129,0.016 0.238,0.012 0.254,-0.156 l 0,-0.422 C 28.013,35.009 27.837,34.876 27.653,34.7 l -2.617,-2.121 c -0.246,-0.234 -0.004,-0.734 0.082,-1.535 l 0,-6.57 0.004,0 0,-0.008 0.008,0 c 0,-0.012 0.004,-0.02 0.004,-0.027 0.004,-0.012 0.008,-0.02 0.012,-0.027 0,-0.008 0.004,-0.016 0.008,-0.02 0.004,-0.008 0.004,-0.02 0.008,-0.023 0.004,-0.008 0.016,-0.016 0.02,-0.02 0.004,-0.008 0.008,-0.02 0.016,-0.023 0.004,-0.008 0.008,-0.012 0.016,-0.02 0.004,-0.004 0.012,-0.012 0.016,-0.016 0.008,-0.004 0.012,-0.008 0.02,-0.012 0.008,-0.008 0.016,-0.012 0.023,-0.016 0.008,-0.004 0.012,-0.004 0.02,-0.008 0.012,-0.004 0.02,-0.004 0.027,-0.008 0.012,0 0.02,0 0.027,-0.004 0.012,0 0.023,0 0.031,0 0.012,0 0.023,0.004 0.035,0.004 0.012,0 0.023,0 0.035,0.004 0,0 1.898,0.391 3.5,1.035 1.602,0.645 5.871,3.074 5.871,3.074 0.098,0.02 0.18,0.008 0.191,-0.086 l 0,-0.82 c 0.004,-0.219 -0.141,-0.418 -0.234,-0.504 l -2.34,-1.973 c -0.082,-0.094 -0.105,-0.113 -0.105,-0.168 l 0,-1.559 c 0,-0.145 -0.125,-0.262 -0.27,-0.262 l -0.34,0 c -0.148,0 -0.273,0.117 -0.273,0.262 l 0,0.473 c 0.027,0.281 -0.051,0.387 -0.23,0.254 L 28.913,22.097 C 28.862,22.054 28.85,22.054 28.85,22.011 l 0,-1.516 c 0,-0.145 -0.121,-0.262 -0.273,-0.262 l -0.336,0 c -0.145,0 -0.27,0.117 -0.27,0.262 l 0,0.258 c 0.039,0.363 -0.211,0.434 -0.379,0.262 L 25.248,19.058 C 25.143,18.964 25.135,18.91 25.119,18.777 l 0,-2.91 c -0.008,-0.285 -0.02,-0.609 -0.059,-0.871 -0.137,-1.02 -0.551,-3.219 -1.066,-2.973 m 0,0"
             id="path57" />
        </g>
      </g>
    </g>
  </g>
</svg>
