<?xml version="1.0" encoding="UTF-8" standalone="no"?>
<svg
   xmlns:dc="http://purl.org/dc/elements/1.1/"
   xmlns:cc="http://creativecommons.org/ns#"
   xmlns:rdf="http://www.w3.org/1999/02/22-rdf-syntax-ns#"
   xmlns:svg="http://www.w3.org/2000/svg"
   xmlns="http://www.w3.org/2000/svg"
   xmlns:xlink="http://www.w3.org/1999/xlink"
   xmlns:sodipodi="http://sodipodi.sourceforge.net/DTD/sodipodi-0.dtd"
   xmlns:inkscape="http://www.inkscape.org/namespaces/inkscape"
   id="svg2"
   height="48"
   version="1.1"
   width="48"
   inkscape:version="0.91 r13725"
   sodipodi:docname="yarock.svg">
  <sodipodi:namedview
     pagecolor="#ffffff"
     bordercolor="#666666"
     borderopacity="1"
     objecttolerance="10"
     gridtolerance="10"
     guidetolerance="10"
     inkscape:pageopacity="0"
     inkscape:pageshadow="2"
     inkscape:window-width="1366"
     inkscape:window-height="699"
     id="namedview15"
     showgrid="false"
     inkscape:zoom="7.470261"
     inkscape:cx="5.0490492"
     inkscape:cy="21.54782"
     inkscape:window-x="0"
     inkscape:window-y="0"
     inkscape:window-maximized="1"
     inkscape:current-layer="layer1" />
  <defs
     id="defs5455">
    <linearGradient
       gradientUnits="userSpaceOnUse"
       x2="0"
       y2="503.798"
       y1="543.79797"
       id="linearGradient4174"
       xlink:href="#linearGradient4303" />
    <linearGradient
       id="linearGradient4303">
      <stop
         id="stop4305"
         style="stop-color:#c6cdd1" />
      <stop
         id="stop4307"
         style="stop-color:#e0e5e7"
         offset="1" />
    </linearGradient>
    <clipPath
       id="clipPath-341496612">
      <g
         transform="translate(0,-1004.3622)"
         id="g17">
        <path
           style="fill:#1890d0"
           inkscape:connector-curvature="0"
           d="m -24,13 c 0,1.105 -0.672,2 -1.5,2 -0.828,0 -1.5,-0.895 -1.5,-2 0,-1.105 0.672,-2 1.5,-2 0.828,0 1.5,0.895 1.5,2 z"
           transform="matrix(15.333333,0,0,11.5,414.99999,878.8622)"
           id="path19" />
      </g>
    </clipPath>
    <linearGradient
       id="linearGradient3764"
       x1="1"
       x2="47"
       gradientUnits="userSpaceOnUse"
       gradientTransform="matrix(0,-1,1,0,-1.5e-6,47.999998)">
      <stop
         stop-color="#971d17"
         stop-opacity="1"
         id="stop7" />
      <stop
         offset="1"
         stop-color="#a8201a"
         stop-opacity="1"
         id="stop9"
         style="stop-color:#ff5a52;stop-opacity:1;" />
    </linearGradient>
    <linearGradient
       inkscape:collect="always"
       xlink:href="#linearGradient3764"
       id="linearGradient4175"
       x1="388.57144"
       y1="523.79797"
       x2="428.57144"
       y2="523.79797"
       gradientUnits="userSpaceOnUse" />
  </defs>
  <metadata
     id="metadata5458">
    <rdf:RDF>
      <cc:Work
         rdf:about="">
        <dc:format>image/svg+xml</dc:format>
        <dc:type
           rdf:resource="http://purl.org/dc/dcmitype/StillImage" />
        <dc:title />
      </cc:Work>
    </rdf:RDF>
  </metadata>
  <g
     transform="matrix(1 0 0 1 -384.57143 -499.798)"
     id="layer1">
    <rect
       id="rect4166"
       style="stroke-opacity:0.550265;fill:url(#linearGradient4175);stroke-width:2.8;fill-opacity:1.0"
       height="39.999969"
       rx="19.999985"
       y="503.798"
       x="388.57144"
       width="39.999989" />
    <path
       d="M 4.0117188 23.5 C 4.007647 23.666859 4 23.832126 4 24 C 4 35.079992 12.920008 44 24 44 C 35.079992 44 44 35.079992 44 24 C 44 23.832126 43.992353 23.666859 43.988281 23.5 C 43.724099 34.346571 34.912435 43 24 43 C 13.087565 43 4.2759007 34.346571 4.0117188 23.5 z "
       id="rect4775"
       style="stroke-opacity:0.550265;fill:#f9f9f9;stroke-width:2.8;fill-opacity:1"
       transform="matrix(1 0 0 1 384.57143 499.798)" />
    <g
       style="fill:#ffffff;fill-opacity:0.84693879;stroke-width:1.31742239;stroke-miterlimit:4;stroke-dasharray:none"
       transform="matrix(0.1156802,0,0,0.1156802,392.89281,507.97913)"
       id="Settings" />
    <path
       style="opacity:1;fill:#ffffff;fill-opacity:1;stroke:none;stroke-width:0.2;stroke-miterlimit:4;stroke-dasharray:none"
       d="m 408.6039,505.85358 c -9.98138,0 -18.07289,7.88174 -18.07289,17.60436 0,9.72263 8.09151,17.60436 18.07289,17.60436 9.98138,0 18.07288,-7.88173 18.07288,-17.60436 0,-9.72262 -8.0915,-17.60436 -18.07288,-17.60436 z m 0,1.80678 c 8.40536,0 16.34286,7.61011 16.34286,15.79758 0,8.18748 -7.9375,15.9192 -16.34286,15.9192 -8.40539,0 -16.09319,-7.73172 -16.09319,-15.9192 0,-8.18747 7.6878,-15.79758 16.09319,-15.79758 z"
       id="path4080-7-7"
       inkscape:connector-curvature="0"
       sodipodi:nodetypes="ssssssssss" />
    <path
       style="fill:#f9f9f9;fill-opacity:1;fill-rule:nonzero;stroke:none"
       inkscape:connector-curvature="0"
       d="m 402.81076,514.46458 0,17.22744 12.91722,-8.61372 m -12.91722,-8.61372"
       id="path45" />
  </g>
</svg>
