/* XPM */
static char *baobab[] = {
/* columns rows colors chars-per-pixel */
"24 24 58 1",
"  c #09970997099E",
". c #0A9E0A9E0A9E",
"X c #092908C80C9D",
"o c #0BAA0B4A0F06",
"O c #0BF60BF50BF9",
"+ c #0CC70CC70CC8",
"@ c #0E0A0E0A0E0A",
"# c #09CF07C81860",
"$ c #10C110C110C1",
"% c #11C311C311C3",
"& c #14B014B014B0",
"* c #188C188C188C",
"= c #1D8B1D8B1D8B",
"- c #1456119C26FA",
"; c #15F613962642",
": c #0F710DA232CB",
"> c #0FA80D133118",
", c #11920F3636EC",
"< c #1571144A3B1B",
"1 c #32B332AE32C3",
"2 c #320130D036D8",
"3 c #34AE34AC34B6",
"4 c #35F635F23604",
"5 c #367D364D3728",
"6 c #371237103719",
"7 c #36E0365338C0",
"8 c #34CD32443DAE",
"9 c #352832DF3D03",
"0 c #397E397E397E",
"q c #3A963A963A97",
"w c #3B0B3B0B3B0A",
"e c #3C2A3C2A3C2A",
"r c #3E563E563E56",
"t c #3F043F043F05",
"y c #13FF12203FD7",
"u c #19E41A0C4595",
"i c #356D32543FCE",
"p c #402140214021",
"a c #418041804180",
"s c #41D941D841DA",
"d c #430D430D430D",
"f c #43DE43DE43E0",
"g c #451345134514",
"h c #465E465E4660",
"j c #47C547C547C5",
"k c #496949694969",
"l c #4B3A4B3A4B3B",
"z c #4DE84DE84DE8",
"x c #4F274F274F27",
"c c #518A518A518A",
"v c #527052705270",
"b c #54BA54BA54BA",
"n c #565056505650",
"m c #577657765776",
"M c #583E583E583E",
"N c #5A4E5A4E5A4E",
"B c #5B905B905B90",
"V c None",
/* pixels */
"VVVVVVVVVVVVVVVVVVVVVVVV",
"VVVVVVVVVVVVVVVVVVVVVVVV",
"VVVVBBBBBBBMnnMnnvvvVVVV",
"VVVVBBMMMMMMnnnnvvvvVVVV",
"VVVMMBMMMnnnnnvvvxxxxVVV",
"VVVMMMnnnvnvvvxvxxxkkVVV",
"VVVMMnnnnnvvxxxxkxxkkVVV",
"VVVnnnvvvxxkkkkkkkhhhVVV",
"VVvvxxxkkkkkkkkkhhdgdVVV",
"VVvvkkkkkhhhhddddpddddVV",
"VVvxxkxhhhhhhdddddddttVV",
"VVxxxxkkkhhddddttdttttVV",
"VVxxkxkkkhhhddtdtttt0tVV",
"Vkkkkkhhhdddddtttt00000V",
"Vkkkhhhdddttttt0e000076V",
"Vhkhhddtdttttt000000666V",
"Vhhddigpte0te0006666636V",
"dhdddttttt00000666667761",
"Vt00ww00066666666696i82V",
"V=&%$@+O+++O++...X#:y,;V",
"V*%+OO.....+O+...X#:u<;V",
"VVVVVVVVVVVVVVVVVVVVVVVV",
"VVVVVVVVVVVVVVVVVVVVVVVV",
"VVVVVVVVVVVVVVVVVVVVVVVV"
};
