/* XPM */
static char *browser[] = {
/* columns rows colors chars-per-pixel */
"24 24 46 1",
"  c #127112731272",
". c #15F815EF15F2",
"X c #180C1818180D",
"o c #1C971C981C97",
"O c #1D961D951D91",
"+ c #1F881F741F80",
"@ c #25FD25FC25FE",
"# c #283728362832",
"$ c #29CE29C729C9",
"% c #2D222D272D21",
"& c #2EFC2EF42EEC",
"* c #31683173316B",
"= c #3345333C3337",
"- c #34B634B734BC",
"; c #363C362E362A",
": c #37703769376B",
"> c #3800380D3805",
", c #3922392D3925",
"< c #39C939E639E9",
"1 c #3B9F3BA03BA4",
"2 c #3C943C953C95",
"3 c #3E163DE23DDF",
"4 c #3F583F553F55",
"5 c #416F4165416C",
"6 c #42AA42A442A1",
"7 c #433943314325",
"8 c #44B944B844B3",
"9 c #44FC44F444F8",
"0 c #462E460A4606",
"q c #46DA469E46A1",
"w c #47B8476F476E",
"e c #48AC4896488E",
"r c #4986496F4969",
"t c #49FA49ED49F2",
"y c #4B344B324B33",
"u c #4CBD4CCC4CBC",
"i c #4D8C4D8A4D8B",
"p c #4E824E7C4E8B",
"a c #4F9A4FAE4F9A",
"s c #503E503C503E",
"d c #52BA52B352B6",
"f c #5385537E5385",
"g c #55FE55FE55FC",
"h c #56F256E356EE",
"j c #57F857F757F8",
"k c None",
/* pixels */
"kkkkkkkkkkkkkkkkkkkkkkkk",
"kkkkkkkkkkkjhhjkkkkkkkkk",
"kkkkkkkssskkkhhhhkkkkkkk",
"kkkkkkkk=ikkeihi:khkkkkk",
"kkkkkisieashiiskkkkkkkkk",
"kkkkkkek=ihssi,kkkkkkkkk",
"kkkkkkkkwesssikkkkkkkkkk",
"kkkkkkkiiiiiiikykkkkkekk",
"kkkkkkeiieiieik,7ekkkkkk",
"kkkkeeieeieeekkkkkkkkkwk",
"kkk4weeeeeeewkkkkkkkkwwk",
"kww&=74wewwwwkkkkkkkkwwk",
"kkw7:#.#77w77kkkkkkk7wwk",
"kk777kkk#4777777kkkk477k",
"kk747kkkkO,74774kkkk474k",
"kk,44kkkkk:44444kkk,44kk",
"kk=444kkkk444444kkk,4,kk",
"kkk=,,kkkk,,1,11kkk,4kkk",
"kkkk=,,kk,,,,,,,,k,,,kkk",
"kkkkO=,k::,,,:,,,,::kkkk",
"kkkkkX#::::==::::=&kkkkk",
"kkkkkkkO#======&@kkkkkkk",
"kkkkkkkkk XOOXXkkkkkkkkk",
"kkkkkkkkkkkkkkkkkkkkkkkk"
};
