/* XPM */
static char *cmake[] = {
/* columns rows colors chars-per-pixel */
"24 24 30 1",
"  c #0E770E770E77",
". c #2D932D952D96",
"X c #2E1E2E1E2E1E",
"o c #2F4A2F4C2F4A",
"O c #35AC35AC35AC",
"+ c #373E373B3736",
"@ c #37BF37B037A0",
"# c #389638993897",
"$ c #39BA39B43978",
"% c #3A583A593A58",
"& c #3B0B3B0A3B0A",
"* c #3BFD3BE93BE8",
"= c #3D633D643D60",
"- c #3EC13EC03EB8",
"; c #401840123FF4",
": c #40F640F540B6",
"> c #42C742C042A6",
", c #42FA42F642E5",
"< c #445F445B4452",
"1 c #4672466C4660",
"2 c #482148234830",
"3 c #49B449B449C8",
"4 c #4AF24AF24AF6",
"5 c #4BE04BE04BE1",
"6 c #4DE24DE24DE2",
"7 c #4FA14FA14FA1",
"8 c #5190518E518E",
"9 c #5520551F551F",
"0 c #575257525752",
"q c None",
/* pixels */
"qqqqqqqqqqqqqqqqqqqqqqqq",
"qqqqqqqqqqqqqqqqqqqqqqqq",
"qqqqqqqqqqq99qqqqqqqqqqq",
"qqqqqqqqqqq99qqqqqqqqqqq",
"qqqqqqqqqq8999qqqqqqqqqq",
"qqqqqqqqqq8888qqqqqqqqqq",
"qqqqqqqqq668688qqqqqqqqq",
"qqqqqqqqq666666qqqqqqqqq",
"qqqqqqqq64446555qqqqqqqq",
"qqqqqqqq44444144qqqqqqqq",
"qqqqqqq1114141414qqqqqqq",
"qqqqqqq1111111111qqqqqqq",
"qqqqqq11111:+-111:qqqqqq",
"qqqqqq:::::-q-::1:qqqqqq",
"qqqqq::::-%qq-:::::qqqqq",
"qqqqq----qqqq------qqqqq",
"qqqq-%-%%qqqq%--%-*-qqqq",
"qqqq%%-%%%%%q%%%%%%%qqqq",
"qqq%%++%@%++%+%%+%%%%qqq",
"qqq++++++++++++++++++qqq",
"qq+++OOO+++OO+++O+++++qq",
"qq....................qq",
"qqq qqqqqqqqqqqqqqqqqqqq",
"qqqqqqqqqqqqqqqqqqqqqqqq"
};
