/* XPM */
static char *control_center_[] = {
/* columns rows colors chars-per-pixel */
"24 24 39 1",
"  c #14EC14FD14F4",
". c #15EA15F115F0",
"X c #17B417BB17BA",
"o c #26F226F226EE",
"O c #2A722A702A75",
"+ c #2B872B862B8C",
"@ c #2E492E402E3D",
"# c #2F662F632F6F",
"$ c #30F730FD30F4",
"% c #322832343233",
"& c #3385337D3382",
"* c #34AA34B434B1",
"= c #355A35603566",
"- c #36703662366E",
"; c #370537073706",
": c #392139283920",
"> c #3A373A353A36",
", c #3B8D3B803B8C",
"< c #3CC03CC13CB8",
"1 c #3E503E533E4B",
"2 c #3F6A3F6A3F74",
"3 c #3FF43FEF3FE5",
"4 c #414941494151",
"5 c #423C42364242",
"6 c #4389438B4390",
"7 c #458245834582",
"8 c #46D746E246D3",
"9 c #483D48464843",
"0 c #495849464950",
"q c #4AE54AE24AE4",
"w c #4BDC4BDD4BE1",
"e c #4CD24CD24CB3",
"r c #4E554E534E76",
"t c #4F044F044F07",
"y c #500E500E503C",
"u c #50E050E050FA",
"i c #52545258524D",
"p c #53EF53F153EE",
"a c None",
/* pixels */
"aaaaaaaaaaaaaaaaaaaaaaaa",
"aaaaaaaaaaaaaaaaaaaaaaaa",
"aaaaaaaaaaaaaaaaaaaaaaaa",
"aaaaaaaaaaaaaaaaaaaaaaaa",
"aaaapppaaaaipaaaapppaaaa",
"aaaaipiaaaaipiaaapiiaaaa",
"aaaaiiiaaiiiiiiaaiiiaaaa",
"aaaaeeeaae<$$<eeaeeeaaaa",
"aaaaeeeaaqaaaoqqaqeeaaaa",
"aaaaqqqaaqwqeqqqaqeqaaaa",
"aaaaqqqaa+-qq<#aaq9qaaaa",
"aaa888qaaa&884aaa888aaaa",
"aa8<-$-48aa888aaa888aaaa",
"aa8-aaa,4aa444aa44484aaa",
"aa4484444aa44<a<<-$$<4aa",
"aa##<<4$aaa444a<,aaa#4aa",
"aaaa,<,aaa-<<<a,<<<<<<aa",
"aaaa,<<aaa-,<<aaO,,,#$aa",
"aaaa,,,aaa$,,,aaa$,,aaaa",
"aaaa$--aaaa$--aaa$--aaaa",
"aaaaa.aaaaa.Xaaaaa.aaaaa",
"aaaaaaaaaaaaaaaaaaaaaaaa",
"aaaaaaaaaaaaaaaaaaaaaaaa",
"aaaaaaaaaaaaaaaaaaaaaaaa"
};
