/* XPM */
static char *gbrainy[] = {
/* columns rows colors chars-per-pixel */
"24 24 37 1",
"  c #216B21782174",
". c #240A2413240E",
"X c #24F525082501",
"o c #26622688267B",
"O c #2940293C293E",
"+ c #2CF32CF02CF9",
"@ c #2DF72E002DFF",
"# c #2FA42FA82FAB",
"$ c #30E830F830F6",
"% c #327C3278327A",
"& c #342A3425342C",
"* c #3519351A3521",
"= c #365136543656",
"- c #38DB38D538D9",
"; c #39BE39BC39C0",
": c #3B6A3B653B6C",
"> c #3CAC3CAD3CAF",
", c #3D243D253D25",
"< c #3E1C3E1C3E1A",
"1 c #3F723F7D3F76",
"2 c #4095407F4085",
"3 c #41EB41EF41ED",
"4 c #431143054304",
"5 c #43DA43E043E0",
"6 c #454D45494547",
"7 c #471847174716",
"8 c #4928492F492C",
"9 c #4B044B014AF9",
"0 c #4C864C6F4C82",
"q c #4E354E274E2F",
"w c #502D5031502E",
"e c #520252015200",
"r c #542E54365434",
"t c #55FC55F255F3",
"y c #57B8578B57CC",
"u c #595C59285954",
"i c None",
/* pixels */
"iiiiiiiiiiiiiiiiiiiiiiii",
"iiuuuuuuuuuuuuuuuuuuuuii",
"iyyyyyyyyuuuuuuyyyyyyyyi",
"iwyywyyywwwq9qwyywyyyywi",
"iqyywyq1+ $2#i+1qywyrrwi",
"iqwww5iiiiiiqiii 1qwwywi",
"iqwq7iiiiiiiqiiiii+9wwqi",
"i9w9iiiiiii9iiiiiii$qqqi",
"i9qiiiiiii9iiii9999i7qqi",
"i79iiiiiiiiii7121ii2$79i",
"i79iiiiii2722iii7iiii79i",
"i27iiiiii:iiiiiii2iii27i",
"i277iii21iiiiiiii2iii77i",
"i2727251iiiiiiiii221222i",
"i122222iiiiiiiii1$ii122i",
"i1221222iiiiii11iiii:11i",
"i:1:111:11:1==iiiiii11:i",
"i::1::1:::::$X:iiii::::i",
"i=:::==::::::ii=:::::::i",
"i=:=::=:=:==:-i+:==-==:i",
"i&=========:===$=======i",
"i+====$====$==========$i",
"ii XXXXXXXXXXXXXXXXXXXii",
"iiiiiiiiiiiiiiiiiiiiiiii"
};
