/* XPM */
static char *geany[] = {
/* columns rows colors chars-per-pixel */
"24 24 30 1",
"  c #161A16361630",
". c #228C228C228D",
"X c #28B428D128C0",
"o c #2A372A412A31",
"O c #2E612E732E71",
"+ c #303E3047303F",
"@ c #324E324E3254",
"# c #334E334C3345",
"$ c #3526353A3538",
"% c #3698368E3682",
"& c #3710370A36FD",
"* c #37E737ED3800",
"= c #39713972396D",
"- c #3A453A443A41",
"; c #3C383C383C52",
": c #3D803D743D70",
"> c #3FB43FB33FB3",
", c #40E440D840DA",
"< c #425342484248",
"1 c #44AA44AB44A8",
"2 c #45E045F845E6",
"3 c #47E047E247DB",
"4 c #4921490A4926",
"5 c #4C494C404C3A",
"6 c #4D534D624D54",
"7 c #5060506E5066",
"8 c #529952985287",
"9 c #545A545E545A",
"0 c #55E355EF55E1",
"q c None",
/* pixels */
"qqqqqqqqqqqqqqqqqqqqqqqq",
"qqqqqqqqqqqqqqqqqqqqqqqq",
"qqqqqqqqqqqqqqqqq000qqqq",
"qqqqqqqqqqqqq08522qqqqqq",
"qqqqqqqqqqqq83&qqqqqqqqq",
"qqqqqqqqqqq82qqqqqqqqqqq",
"qqqqqqqqqq53qqq5qqqqqqqq",
"qqqqqqqqq53qqq52qqqqqqqq",
"qqqqqqq33qqq53,qqqqqqqqq",
"qqqqqqq,qq32>qqqqqqqqqqq",
"qqqqq22,>=#qqqqqqqqqqqqq",
"qq,>>qqqqqqqqqqqqqqqqqqq",
"q,=qqqqqqqqqqqqqqqqqqqqq",
"q>qqqqqqqqqqqqqqqqqqqqqq",
"qqqqqqqqqqqqqqqqqqqqqqqq",
"qqqqqqqqqq=>>qqqqqq=>qqq",
"qq=>qqqqqq#=&qqqq>=oo&qq",
"qqq#=qqqq=*======&qqqOqq",
"qqqqO=qq=&&&==&=&qq&&#qq",
"qqqqqo&&&&&&&&&&#qqqqqqq",
"qqqqqq.##&#&#&#Oqqqqqqqq",
"qqqqqqq .ooXoooqqqqqqqqq",
"qqqqqqqqqqqqqqqqqqqqqqqq",
"qqqqqqqqqqqqqqqqqqqqqqqq"
};
