/* XPM */
static char *kommander[] = {
/* columns rows colors chars-per-pixel */
"24 24 39 1",
"  c #0FAC0FAC0FAE",
". c #144214441444",
"X c #1B381B341B2B",
"o c #1C081C0A1C04",
"O c #1ED21ED21ED0",
"+ c #229422692294",
"@ c #247824822480",
"# c #264926562644",
"$ c #2AD62ADD2AD0",
"% c #2C942C932C8C",
"& c #2CD82CEC2CDE",
"* c #2F002EE22F02",
"= c #3220321C3221",
"- c #33F634023403",
"; c #3658365B3660",
": c #377C37803775",
"> c #383838313832",
", c #38F538FE3901",
"< c #3AC73ACC3AC6",
"1 c #3CC53CCD3CBC",
"2 c #3D5E3D633D60",
"3 c #3E7A3E703E74",
"4 c #3F5D3F613F5C",
"5 c #4044403E4046",
"6 c #432143254323",
"7 c #44A3449E449B",
"8 c #45A145A145A1",
"9 c #468D468A4691",
"0 c #48044806480A",
"q c #49F049F749EE",
"w c #4C164BFD4C0E",
"e c #4E6B4E6E4E69",
"r c #50B450AE50B3",
"t c #51DC51D051D5",
"y c #52C452C252C3",
"u c #54B854BA54AE",
"i c #54FE54FD54F4",
"p c #57FD57FE57FE",
"a c None",
/* pixels */
"aaaaaaaaaaaaaaaaaaaaaaaa",
"aaaaaaaaaaaaaaaaaaaaaaaa",
"aaaaaaaaaaaapaaaaaaaaaaa",
"aaaaaaaaaaapppaaaaaaaaaa",
"aaaaaaaaaauiiiaaaaaaaaaa",
"aaaaattttttttttittiaaaaa",
"aaaaawtttttrttttttwaaaaa",
"aaaaa4wwrwtwwtwwtwwaaaaa",
"aaaaaqwwww4$@-qqwwwaaaaa",
"aaaaaqqqq5aaaa%qqqqaaaaa",
"aaaq9q999aaaaaa4999qqaaa",
"aaa599999aaaaaa599999aaa",
"aaa<49599aaaaaa559554aaa",
"aaaao<5545aaaaa5545%aaaa",
"aaaaa=4444<aa444444aaaaa",
"aaaaaa<4<44<44<44<<aaaaa",
"aaaaa<<<4<<<<<<<<<<aaaaa",
"aaaaa=<---<--<<---<aaaaa",
"aaaaaa+o o%<:-@. +aaaaaa",
"aaaaaaaaaaX=-*aaaaaaaaaa",
"aaaaaaaaaaa@@aaaaaaaaaaa",
"aaaaaaaaaaaaaaaaaaaaaaaa",
"aaaaaaaaaaaaaaaaaaaaaaaa",
"aaaaaaaaaaaaaaaaaaaaaaaa"
};
