/* XPM */
static char *kxsldbg[] = {
/* columns rows colors chars-per-pixel */
"24 24 34 1",
"  c #1BA81BAB1BB0",
". c #20D020C320D3",
"X c #26522648265A",
"o c #2731273A273D",
"O c #2D8E2DB82DB8",
"+ c #2FAC2F7C2FAC",
"@ c #2FFB2FF52FFA",
"# c #319031913197",
"$ c #31B131B031B4",
"% c #34B234B134B1",
"& c #354B3548354C",
"* c #37E837E737EF",
"= c #3B143B163B13",
"- c #3C3F3C403C3C",
"; c #3E563E523E4E",
": c #3F1A3F183F16",
"> c #40384034403A",
", c #4197416A4180",
"< c #422242264220",
"1 c #43FF43E443FA",
"2 c #45234506451A",
"3 c #4698465B468B",
"4 c #494449514942",
"5 c #4A084A034A0A",
"6 c #4C544C544C5C",
"7 c #4E4F4E574E4E",
"8 c #4F8C4F924F8A",
"9 c #517D5171516F",
"0 c #532953275324",
"q c #552A55205524",
"w c #561B560B5622",
"e c #570556E8571C",
"r c #5908590C5938",
"t c None",
/* pixels */
"tttttttttttttttttttttttt",
"tttttttttttttttttttttttt",
"tttttttttttttttttttttttt",
"ttttttttrrtttttttttttttt",
"tttttttqqqqttttttttttttt",
"tttt000qq00000tttttttttt",
"ttttt606660606tttttttttt",
"tttt4664&o&446tttttttttt",
"ttt4444tttt<444ttttttttt",
"ttt2222ttttt222<tttttttt",
"tttO<<<tttt<<<;ttttttttt",
"tttt&<;;tt;;;;tttttttttt",
"ttttt;*<;;*;;;tttttttttt",
"tttt&-&*&***&&tttttttttt",
"ttttt.t.@*@. ttttqqttttt",
"ttttttttoOtttt000qq0qttt",
"tttttttttttttt4064466ttt",
"tttttttttttttt442tt244tt",
"ttttttttttttt<22ttt<22tt",
"tttttttttttttt;><tt;<;tt",
"tttttttttttttt*;*;;;*ttt",
"tttttttttttttt@@@*&@@ttt",
"tttttttttttttttttO@ttttt",
"tttttttttttttttttttttttt"
};
