/* XPM */
static char *opera[] = {
/* columns rows colors chars-per-pixel */
"24 24 42 1",
"  c #103E10521052",
". c #11BB11C611C6",
"X c #17D217D817EA",
"o c #20B820C520CA",
"O c #248724A524AA",
"+ c #26EF26F126F8",
"@ c #27BB27E727EA",
"# c #2B3E2B702B70",
"$ c #2CE62CFD2D03",
"% c #2E022E082E1C",
"& c #2F602F6D2F68",
"* c #34B234BB34A2",
"= c #34C034C634CE",
"- c #35FA35D035D2",
"; c #377F3772376F",
": c #383C38443842",
"> c #39D139D639D0",
", c #3AC03ABB3AC8",
"< c #3C3E3C403C3C",
"1 c #3E253E293E2D",
"2 c #3F983FAB3FA0",
"3 c #40A140A740A5",
"4 c #423E42384238",
"5 c #42F642EC42EE",
"6 c #449C449C4498",
"7 c #454E454F454B",
"8 c #469F468E46A4",
"9 c #4884488048B2",
"0 c #4961496A497C",
"q c #4B0A4B1C4B25",
"w c #4CB54CCE4CD8",
"e c #4E524E424E42",
"r c #4F204F454F3F",
"t c #50CB50CE510F",
"y c #519A519751CC",
"u c #51D151C45206",
"i c #548054725492",
"p c #560C56145603",
"a c #5780576A577C",
"s c #58A258A258A4",
"d c #5998599E5999",
"f c None",
/* pixels */
"ffffffffffffffffffffffff",
"ffffffffffffffffffffffff",
"ffffffffffffffffffffffff",
"ffffffffpsssssssffffffff",
"fffffffpppt4<rpppfffffff",
"ffffffppip2ff+rpppffffff",
"fffffttttrffff4ttttfffff",
"fffffrrrrrffff4rrtrfffff",
"ffffqrrqrffffffrrqrqffff",
"ffff6qqqqffffff6qqqqffff",
"ffff6qqqqffffffqwqqqffff",
"ffff66q66ffffff68669ffff",
"ffff46666ffffff66666ffff",
"ffff44444ffffff44464ffff",
"ffff,4<44ffffff44<<4ffff",
"ffff-<24<<fffff<4<4<ffff",
"fffff,<<,<fffff<<<<fffff",
"fffff&,,,,ffff-,,,;fffff",
"ffffff$--;;ff--,--ffffff",
"fffffff+--------&fffffff",
"ffffffffX+@&&$@offffffff",
"fffffffffff..fffffffffff",
"ffffffffffffffffffffffff",
"ffffffffffffffffffffffff"
};
