/* XPM */
static char *picasa[] = {
/* columns rows colors chars-per-pixel */
"24 24 43 1",
"  c #161916091608",
". c #17B817A417A4",
"X c #1E8C1E971E88",
"o c #2451244F2451",
"O c #270F26E626E8",
"+ c #285228482848",
"@ c #2A872A7A2A82",
"# c #2D4F2D1D2D1F",
"$ c #2EDE2EDE2EDE",
"% c #309F30943093",
"& c #31E731B831B6",
"* c #332A33223320",
"= c #357D35743593",
"- c #3672366D3666",
"; c #36D636BC36D4",
": c #385438553852",
"> c #39773979396F",
", c #3AF03AEB3AF0",
"< c #3BB03BB13BD1",
"1 c #3CBA3CBC3CF6",
"2 c #3D4E3D4A3D4B",
"3 c #3F2F3F0A3F31",
"4 c #3FE43FC43FF3",
"5 c #414E41394136",
"6 c #420E421A421A",
"7 c #42FC42FE42F9",
"8 c #44874487447F",
"9 c #454D45424550",
"0 c #466046654661",
"q c #4819481E481D",
"w c #49F549E649F3",
"e c #4B0E4B144B09",
"r c #4C4B4C4B4C46",
"t c #4E2E4E324E2F",
"y c #4F744F674F86",
"u c #519A51965196",
"i c #52C052C452BE",
"p c #5397539E5395",
"a c #553A553B553E",
"s c #5688568E568B",
"d c #57BC57B957C0",
"f c #57EA57EB57EB",
"g c None",
/* pixels */
"gggggggggggggggggggggggg",
"ggggggggggffffgggggggggg",
"ggggggggguffffffgggggggg",
"gggggpaag$rafaaagugggggg",
"gggguaaaag@qaauagraagggg",
"gggguuuuuugO9uuugruugggg",
"ggguyuurrurgg6urgrruuggg",
"ggrrrrrur9gggg3rgqrrurgg",
"ggqrrrrq6gggggg3gqrrrqgg",
"ggrrqrq3ggggggggg9qrqrgg",
"ggqqqq<gggggggggg6qqqqgg",
"gg9q6gggggggggggg69q9qgg",
"gg96ggggggggggggg39999gg",
"gg3gg66gggggggggg36666gg",
"gggg663gggggggggg<3333gg",
"ggg3333gggggggggggXXXggg",
"gg=<33>gg3>><<>3gg==gggg",
"ggg*>>>g>>>3<><>>>3>>ggg",
"gggg*>>g>>>>>>>>>>>=gggg",
"ggggX*=g>====:=:>==ggggg",
"gggggggg========*$gggggg",
"ggggggggO$$**$$@gggggggg",
"gggggggggg .  gggggggggg",
"gggggggggggggggggggggggg"
};
