/* XPM */
static char *python[] = {
/* columns rows colors chars-per-pixel */
"24 24 40 1",
"  c #2C332C2F2C20",
". c #2E162E102E12",
"X c #2F212F222F35",
"o c #318631833183",
"O c #3230322A3226",
"+ c #331433133311",
"@ c #33F6340033F8",
"# c #35B335C235C4",
"$ c #36DE36DA36BA",
"% c #3823381E3815",
"& c #3A833A663A6A",
"* c #3BAA3B9C3B92",
"= c #3CD13CBE3CBA",
"- c #3D703D663D6E",
"; c #3F6B3F6D3F7D",
": c #2A8B404148CD",
"> c #27C443F54E4D",
", c #3283438C49C6",
"< c #2D9647CC5175",
"1 c #400F40114033",
"2 c #428642A042A9",
"3 c #4386438843A1",
"4 c #445C44624462",
"5 c #44BC44F044F2",
"6 c #47EA47F147F4",
"7 c #492D4948495A",
"8 c #49EB499D497C",
"9 c #49C049D849E2",
"0 c #4B8B4B8C4B8E",
"q c #48C84C834E0B",
"w c #4C984C9A4CA1",
"e c #4DC44DC34DC4",
"r c #4EC34EC44EC4",
"t c #46F45327579E",
"y c #5080507C507F",
"u c #5186518C5188",
"i c #522B522D5230",
"p c #539F53A1539F",
"a c #5785577C5775",
"s c None",
/* pixels */
"ssssssssssssssssssssssss",
"ssssssssssssssssssssssss",
"ssssssssssssssssssssssss",
"ssssssssssssssssssssssss",
"ssssssssssssssssssssssss",
"ssssssssssssssssssssssss",
"sssaapprppprrppsssssssss",
"ssspr0rppppr0ss00pssssss",
"ssrrrrr050r05qtsss0qssss",
"ss005ssss50ss:<>,ss50sss",
"sssssssss05sssssssss-5ss",
"ss5ssssss252sssssssss-ss",
"s2222ssss%-22;ssssssss-s",
"s%----ssss%%#%%%ssssss%s",
"s%#%%%%#s%%#sss+@###%%#s",
"s#########ssssssssXX++ss",
"s++++++Xssssssssssssssss",
"sXXXssssssssssssssssssss",
"ssssssssssssssssssssssss",
"ssssssssssssssssssssssss",
"ssssssssssssssssssssssss",
"ssssssssssssssssssssssss",
"ssssssssssssssssssssssss",
"ssssssssssssssssssssssss"
};
