/* XPM */
static char *terminal[] = {
/* columns rows colors chars-per-pixel */
"24 24 33 1",
"  c #20DA20DD20DB",
". c #21B021B221B1",
"X c #259C25A825A4",
"o c #27CE27D827CF",
"O c #2F412F132F14",
"+ c #30C430A930B0",
"@ c #33E033DD33D0",
"# c #380B38073806",
"$ c #39623963395D",
"% c #3A1C3A0939E7",
"& c #3B3D3B3F3B1F",
"* c #3D0A3CE73CBD",
"= c #3DE23DD23DD6",
"- c #3EF03EB23EBC",
"; c #3FAC3FCB3FC6",
": c #40D840D840E1",
"> c #42BE42C942B6",
", c #435243684347",
"< c #455F4569454C",
"1 c #469C46B0469A",
"2 c #485C48844870",
"3 c #492E49214930",
"4 c #4A8F4A934A55",
"5 c #4C9C4CA34CB9",
"6 c #4CE84D2B4D21",
"7 c #4E5B4E404E5B",
"8 c #4EE74F104F26",
"9 c #505650625070",
"0 c #517351725172",
"q c #51E45228522C",
"w c #54B554C654CC",
"e c #5667565C5664",
"r c None",
/* pixels */
"rrrrrrrrrrrrrrrrrrrrrrrr",
"rrrrrrrrrrrrrrrrrrrrrrrr",
"rrrrrrrrrrrrrrrrrrrrrrrr",
"rrrrrrrrrrrrrrrrrrrrrrrr",
"rrwwqqqqqqqqqqq5q5qqqwrr",
"rrw:       .    X   o5wr",
"rrq5rrrrrrrrrrrrrrrrr5qr",
"rrq5rrrrrrrrrrrrrrrrr55r",
"rr93rr138rrrrrrrrrrrr55r",
"rr53rrrX@:5rrrrrrrrrr33r",
"rr31rrrrr%,rrrrrrrrrr33r",
"rr31rr2:=@rrrrrrrrrrr11r",
"rr1,rrrrrrrrrrrrrrrrr11r",
"rr1:rrrrrrrrrrrrrrrrr,:r",
"rr::rrrrrrrrrrrrrrrrr::r",
"rr:=rrrrrrrrrrrrrrrrr;:r",
"rr=&rrrrrrrr@OOOO+rrr==r",
"rr=%rrrrrrrrrrrrrrrrr=%r",
"rr&%rrrrrrrrrrrrrrrrr%%r",
"rr@%%%%%%%%%%%%%%%%@@%rr",
"rrr                  orr",
"rrrrrrrrrrrrrrrrrrrrrrrr",
"rrrrrrrrrrrrrrrrrrrrrrrr",
"rrrrrrrrrrrrrrrrrrrrrrrr"
};
