/* XPM */
static char *terminal[] = {
/* columns rows colors chars-per-pixel */
"128 128 63 1",
"  c #000000",
". c #0E0E0E",
"X c #121212",
"o c #1E1E1E",
"O c #222222",
"+ c #2C2C2C",
"@ c #323232",
"# c #3C3C3C",
"$ c #454545",
"% c #4B4B4B",
"& c #525252",
"* c #5D5D5D",
"= c #616161",
"- c #6A6A6A",
"; c #737473",
": c #7C7C7C",
"> c #807E7E",
", c #7E807E",
"< c #807F80",
"1 c #858585",
"2 c #888787",
"3 c #878887",
"4 c #878888",
"5 c #8C8C8C",
"6 c #908F8F",
"7 c #8F908F",
"8 c #90908F",
"9 c #8F8F90",
"0 c #908F90",
"q c #8E9090",
"w c #939393",
"e c #989897",
"r c #9D9C9C",
"t c #A09F9F",
"y c #9F9FA0",
"u c #A09FA0",
"i c #A4A4A4",
"p c #A8A8A7",
"a c #A7A8A8",
"s c #ACACAC",
"d c #AFB0AF",
"f c #B4B4B4",
"g c #B8B7B7",
"h c #B7B8B7",
"j c #B8B8B7",
"k c #B8B7B8",
"l c #B7B8B8",
"z c #BCBCBB",
"x c #C0BFBF",
"c c #BFBFC0",
"v c #BFC0C0",
"b c #C3C3C3",
"n c #C8C7C8",
"m c #CBCCCC",
"M c #D5D5D5",
"N c #D8D7D7",
"B c #D7D8D7",
"V c #D8D8D7",
"C c #D7D7D8",
"Z c #D8D7D8",
"A c #D7D8D8",
"S c #D9D9D9",
"D c None",
/* pixels */
"DDDDDDDDDDDDDDDDDDDDDDDDDDDDDDDDDDDDDDDDDDDDDDDDDDDDDDDDDDDDDDDDDDDDDDDDDDDDDDDDDDDDDDDDDDDDDDDDDDDDDDDDDDDDDDDDDDDDDDDDDDDDDDDD",
"DDDDDDDDDDDDDDDDDDDDDDDDDDDDDDDDDDDDDDDDDDDDDDDDDDDDDDDDDDDDDDDDDDDDDDDDDDDDDDDDDDDDDDDDDDDDDDDDDDDDDDDDDDDDDDDDDDDDDDDDDDDDDDDD",
"DDDDDDDDDDDDDDDDDDDDDDDDDDDDDDDDDDDDDDDDDDDDDDDDDDDDDDDDDDDDDDDDDDDDDDDDDDDDDDDDDDDDDDDDDDDDDDDDDDDDDDDDDDDDDDDDDDDDDDDDDDDDDDDD",
"DDDDDDDDDDDDDDDDDDDDDDDDDDDDDDDDDDDDDDDDDDDDDDDDDDDDDDDDDDDDDDDDDDDDDDDDDDDDDDDDDDDDDDDDDDDDDDDDDDDDDDDDDDDDDDDDDDDDDDDDDDDDDDDD",
"DDDDDDDDDDDDDDDDDDDDDDDDDDDDDDDDDDDDDDDDDDDDDDDDDDDDDDDDDDDDDDDDDDDDDDDDDDDDDDDDDDDDDDDDDDDDDDDDDDDDDDDDDDDDDDDDDDDDDDDDDDDDDDDD",
"DDDDDDDDDDDDDDDDDDDDDDDDDDDDDDDDDDDDDDDDDDDDDDDDDDDDDDDDDDDDDDDDDDDDDDDDDDDDDDDDDDDDDDDDDDDDDDDDDDDDDDDDDDDDDDDDDDDDDDDDDDDDDDDD",
"DDDDDDDDDDDDDDDDDDDDDDDDDDDDDDDDDDDDDDDDDDDDDDDDDDDDDDDDDDDDDDDDDDDDDDDDDDDDDDDDDDDDDDDDDDDDDDDDDDDDDDDDDDDDDDDDDDDDDDDDDDDDDDDD",
"DDDDDDDDDDDDDDDDDDDDDDDDDDDDDDDDDDDDDDDDDDDDDDDDDDDDDDDDDDDDDDDDDDDDDDDDDDDDDDDDDDDDDDDDDDDDDDDDDDDDDDDDDDDDDDDDDDDDDDDDDDDDDDDD",
"DDDDDDDDDDDDDDDDDDDDDDDDDDDDDDDDDDDDDDDDDDDDDDDDDDDDDDDDDDDDDDDDDDDDDDDDDDDDDDDDDDDDDDDDDDDDDDDDDDDDDDDDDDDDDDDDDDDDDDDDDDDDDDDD",
"DDDDDDDDDDDDDDDDDDDDDDDDDDDDDDDDDDDDDDDDDDDDDDDDDDDDDDDDDDDDDDDDDDDDDDDDDDDDDDDDDDDDDDDDDDDDDDDDDDDDDDDDDDDDDDDDDDDDDDDDDDDDDDDD",
"DDDDDDDDDDDDDDDDDDDDDDDDDDDDDDDDDDDDDDDDDDDDDDDDDDDDDDDDDDDDDDDDDDDDDDDDDDDDDDDDDDDDDDDDDDDDDDDDDDDDDDDDDDDDDDDDDDDDDDDDDDDDDDDD",
"DDDDDDDDDDDDDDDDDDDDDDDDDDDDDDDDDDDDDDDDDDDDDDDDDDDDDDDDDDDDDDDDDDDDDDDDDDDDDDDDDDDDDDDDDDDDDDDDDDDDDDDDDDDDDDDDDDDDDDDDDDDDDDDD",
"DDDDDDDDDDDDDDDDDDDDDDDDDDDDDDDDDDDDDDDDDDDDDDDDDDDDDDDDDDDDDDDDDDDDDDDDDDDDDDDDDDDDDDDDDDDDDDDDDDDDDDDDDDDDDDDDDDDDDDDDDDDDDDDD",
"DDDDDDDDDDDDDDDDDDDDDDDDDDDDDDDDDDDDDDDDDDDDDDDDDDDDDDDDDDDDDDDDDDDDDDDDDDDDDDDDDDDDDDDDDDDDDDDDDDDDDDDDDDDDDDDDDDDDDDDDDDDDDDDD",
"DDDDDDDDDDDDDDDDDDDDDDDDDDDDDDDDDDDDDDDDDDDDDDDDDDDDDDDDDDDDDDDDDDDDDDDDDDDDDDDDDDDDDDDDDDDDDDDDDDDDDDDDDDDDDDDDDDDDDDDDDDDDDDDD",
"DDDDDDDDDDDDDDDDDDDDDDDDDDDDDDDDDDDDDDDDDDDDDDDDDDDDDDDDDDDDDDDDDDDDDDDDDDDDDDDDDDDDDDDDDDDDDDDDDDDDDDDDDDDDDDDDDDDDDDDDDDDDDDDD",
"DDDDDDDDDDDDDDDDDDDDDDDDDDDDDDDDDDDDDDDDDDDDDDDDDDDDDDDDDDDDDDDDDDDDDDDDDDDDDDDDDDDDDDDDDDDDDDDDDDDDDDDDDDDDDDDDDDDDDDDDDDDDDDDD",
"DDDDDDDDDDDDDDDDDDDDDDDDDDDDDDDDDDDDDDDDDDDDDDDDDDDDDDDDDDDDDDDDDDDDDDDDDDDDDDDDDDDDDDDDDDDDDDDDDDDDDDDDDDDDDDDDDDDDDDDDDDDDDDDD",
"DDDDDDDDDDDDDDDDDDDDDDDDDDDDDDDDDDDDDDDDDDDDDDDDDDDDDDDDDDDDDDDDDDDDDDDDDDDDDDDDDDDDDDDDDDDDDDDDDDDDDDDDDDDDDDDDDDDDDDDDDDDDDDDD",
"DDDDDDDDDDDDDDDDSSSSSSSSSSSSSSSSSSSSSSSSSSSSSSSSSSSSSSSSSSSSSSSSSSSSSSSSSSSSSSSSSSSSSSSSSSSSSSSSSSSSSSSSSSSSSSSSSSMDDDDDDDDDDDDD",
"DDDDDDDDDDDDDDSSSSSSSSSSSSSSSSSSSSSSSSSSSSSSSSSSSSSSSSSSSSSSSSSSSSSSSSSSSSSSSSSSSSSSSSSSSSSSSSSSSSSSSSSSSSSMSZSSSMMSMDDDDDDDDDDD",
"DDDDDDDDDDDDDSSSSSSSSSSSSSSSSSSSSSSSSSSSSSSSSSSSSSSSSSSSSSSSSSSSSSSSSSSSSSSCMSCSMSSSSSSSSSMSSSMSSMSSMSMVMNMNCSMNMSSSMMDDDDDDDDDD",
"DDDDDDDDDDDDMSSSSSSSSSSSSSSSSSSSSSSSSSSSSSSSSSSSSSSSSSMSZSSSSSSMSSSSSSSSSMVSZNNNZMAMASSBSMSSMCMSMSMMMSMSMSSMMMMMMAMMMSMDDDDDDDDD",
"DDDDDDDDDDDMVSNSSSSSSSSSSSSSSSSSSBSVSSVSSSSSSSSSMSSSSMCSMSSSMSMMASSSSSSSMSMMSMNMMVNMMMMMMMMMMMMMMMCMSMMVMMBMMMMMMMMMMMMDDDDDDDDD",
"DDDDDDDDDDDSBZCZMZZZMSNMSSSMSSMSMMSSMSMCVSVMMAMMMMMMMCMMMMMMMMMMMMMSMMMMMMMMMMMMBMMMMMMMMMMMMMMMMMMMMMMMMMMMMMMMMMMMMMMMDDDDDDDD",
"DDDDDDDDDDnMSMZSSZMMCMMMSSMMMMMMMMMMMMMMMMMMMBMMMMMMMMMMMMMMMMMMMMMMMMMMMMMMMMMMMMMMMMMmMMMMMMmMMMMMMMMmmMMMMMMMmMMMMmMMDDDDDDDD",
"DDDDDDDDDDmMMMMMMMZZMMMMSCMMMMMMMMMMMMMMMMMMMMMMMMMMMMMMMMMMMMMMMMMMMMMMMMMMMMMMMMMMMMMMMMMmMMMMMMMMMMMMMMMMMMMMMMMMMMMmnDDDDDDD",
"DDDDDDDDDDMMMMMMMMmaw555rw555555555555555555555555555555555555451555553545452445151553151355511551151151531513esMmmMMmMmnDDDDDDD",
"DDDDDDDDDDmMMMMMMMrX                                                                                           #bMMmMmMMnDDDDDDD",
"DDDDDDDDDDmMMMmMMM5                                                                                            XdmmMmMmMnDDDDDDD",
"DDDDDDDDDDnmmMMMMM<DDDDDDDDDDDDDDDDDDDDDDDDDDDDDDDDDDDDDDDDDDDDDDDDDDDDDDDDDDDDDDDDDDDDDDDDDDDDDDDDDDDDDDDDDDD .sMmMMmMmbDDDDDDD",
"DDDDDDDDDDnMMmmMmm5DDDDDDDDDDDDDDDDDDDDDDDDDDDDDDDDDDDDDDDDDDDDDDDDDDDDDDDDDDDDDDDDDDDDDDDDDDDDDDDDDDDDDDDDDDDD.smmmmmmmbDDDDDDD",
"DDDDDDDDDDnmmMmmMmeDDDDDDDDDDDDDDDDDDDDDDDDDDDDDDDDDDDDDDDDDDDDDDDDDDDDDDDDDDDDDDDDDDDDDDDDDDDDDDDDDDDDDDDDDDDDDfmmmmmmMzDDDDDDD",
"DDDDDDDDDDnMMmmMmMrDDDDDDDDDDDDDDDDDDDDDDDDDDDDDDDDDDDDDDDDDDDDDDDDDDDDDDDDDDDDDDDDDDDDDDDDDDDDDDDDDDDDDDDDDDDDDsmmmmmmmvDDDDDDD",
"DDDDDDDDDDnmMmmMmmaDDDDDDDDDDDDDDDDDDDDDDDDDDDDDDDDDDDDDDDDDDDDDDDDDDDDDDDDDDDDDDDDDDDDDDDDDDDDDDDDDDDDDDDDDDDDDfmmmmmnmzDDDDDDD",
"DDDDDDDDDDbmmmmmmmaDDDDDDDDDDDDDDDDDDDDDDDDDDDDDDDDDDDDDDDDDDDDDDDDDDDDDDDDDDDDDDDDDDDDDDDDDDDDDDDDDDDDDDDDDDDDDfmmmmnmmzDDDDDDD",
"DDDDDDDDDDbmmmmmmmpDDDDDDDDDDDDDDDDDDDDDDDDDDDDDDDDDDDDDDDDDDDDDDDDDDDDDDDDDDDDDDDDDDDDDDDDDDDDDDDDDDDDDDDDDDDDDsnmnnmnnzDDDDDDD",
"DDDDDDDDDDbmmmmmmmaDDDDDDDDDDDDDDDDDDDDDDDDDDDDDDDDDDDDDDDDDDDDDDDDDDDDDDDDDDDDDDDDDDDDDDDDDDDDDDDDDDDDDDDDDDDDDfnnmnnnnzDDDDDDD",
"DDDDDDDDDDbmmmmmmmpDDDDDDDDDDDDDDDDDDDDDDDDDDDDDDDDDDDDDDDDDDDDDDDDDDDDDDDDDDDDDDDDDDDDDDDDDDDDDDDDDDDDDDDDDDDDDdnnnnnnnhDDDDDDD",
"DDDDDDDDDDbnmmmmmnpDDDDDDDDDDDDDDDDDDDDDDDDDDDDDDDDDDDDDDDDDDDDDDDDDDDDDDDDDDDDDDDDDDDDDDDDDDDDDDDDDDDDDDDDDDDDDsnnnnnnnhDDDDDDD",
"DDDDDDDDDDxmnnnmnniDDDDDDDDDDDDDDDDDDDDDDDDDDDDDDDDDDDDDDDDDDDDDDDDDDDDDDDDDDDDDDDDDDDDDDDDDDDDDDDDDDDDDDDDDDDDDsnbnnbnbhDDDDDDD",
"DDDDDDDDDDxnnnnnnniDDDDDDDDDDDDDnnnDDDDDDDDDDDDDDDDDDDDDDDDDDDDDDDDDDDDDDDDDDDDDDDDDDDDDDDDDDDDDDDDDDDDDDDDDDDDDdbnnbnbnhDDDDDDD",
"DDDDDDDDDDxnnnnnnbiDDDDDDDDDDDDDbnnnnbDDDDDDDDDDDDDDDDDDDDDDDDDDDDDDDDDDDDDDDDDDDDDDDDDDDDDDDDDDDDDDDDDDDDDDDDDDsbbbbbbbhDDDDDDD",
"DDDDDDDDDDznbnnbnniDDDDDDDDDDDDDxnbnbnnbnDDDDDDDDDDDDDDDDDDDDDDDDDDDDDDDDDDDDDDDDDDDDDDDDDDDDDDDDDDDDDDDDDDDDDDDsbbbbbbbfDDDDDDD",
"DDDDDDDDDDznnbnbbbiDDDDDDDDDDDDDznbbnbbnnbbDDDDDDDDDDDDDDDDDDDDDDDDDDDDDDDDDDDDDDDDDDDDDDDDDDDDDDDDDDDDDDDDDDDDDsbbvbxbbfDDDDDDD",
"DDDDDDDDDDzbvnnbbbiDDDDDDDDDDDDDhbbnbbbbbbbbbbDDDDDDDDDDDDDDDDDDDDDDDDDDDDDDDDDDDDDDDDDDDDDDDDDDDDDDDDDDDDDDDDDDpxxbbbxvfDDDDDDD",
"DDDDDDDDDDznbnvvbbiDDDDDDDDDDDDD1pzbnbbbbbxbbbbbvDDDDDDDDDDDDDDDDDDDDDDDDDDDDDDDDDDDDDDDDDDDDDDDDDDDDDDDDDDDDDDDavxvvvzbfDDDDDDD",
"DDDDDDDDDDhbvvvnbbtDDDDDDDDDDDDDDD%1albbzbbbbbzbbxbbDDDDDDDDDDDDDDDDDDDDDDDDDDDDDDDDDDDDDDDDDDDDDDDDDDDDDDDDDDDDavvxxxxzfDDDDDDD",
"DDDDDDDDDDlbbbbxbbrDDDDDDDDDDDDDDDD o&1albbbbxbbcxzbzbDDDDDDDDDDDDDDDDDDDDDDDDDDDDDDDDDDDDDDDDDDDDDDDDDDDDDDDDDDpxxxxxzzfDDDDDDD",
"DDDDDDDDDDlbbxbbbziDDDDDDDDDDDDDDDDD   o&1azbzzbbvbcbzbzxDDDDDDDDDDDDDDDDDDDDDDDDDDDDDDDDDDDDDDDDDDDDDDDDDDDDDDDpzxzzxzbsDDDDDDD",
"DDDDDDDDDDlzxbxzzziDDDDDDDDDDDDDDDDDDD    O*5szxzbzbcczxzvxzDDDDDDDDDDDDDDDDDDDDDDDDDDDDDDDDDDDDDDDDDDDDDDDDDDDDavzzxzzzdDDDDDDD",
"DDDDDDDDDDfbzxzbbzrDDDDDDDDDDDDDDDDDDDDDD    +=5slxzzzbzxxzxzzDDDDDDDDDDDDDDDDDDDDDDDDDDDDDDDDDDDDDDDDDDDDDDDDDDizzzzzzzsDDDDDDD",
"DDDDDDDDDDfxzxxxzzrDDDDDDDDDDDDDDDDDDDDDDDDD    +=5szzzzxzzzzlDDDDDDDDDDDDDDDDDDDDDDDDDDDDDDDDDDDDDDDDDDDDDDDDDDizzzzzzzsDDDDDDD",
"DDDDDDDDDDfzxzzzxzrDDDDDDDDDDDDDDDDDDDDDDDDDDDD    @-rlzzzzzzkDDDDDDDDDDDDDDDDDDDDDDDDDDDDDDDDDDDDDDDDDDDDDDDDDDizzlzlzzsDDDDDDD",
"DDDDDDDDDDfzzzzzzzrDDDDDDDDDDDDDDDDDDDDDDDDDDDDDD X%:izzzzzzzfDDDDDDDDDDDDDDDDDDDDDDDDDDDDDDDDDDDDDDDDDDDDDDDDDDillzlllzsDDDDDDD",
"DDDDDDDDDDfzzzzzzzrDDDDDDDDDDDDDDDDDDDDDDDDDDDDD&:rflzlzlzlzzsDDDDDDDDDDDDDDDDDDDDDDDDDDDDDDDDDDDDDDDDDDDDDDDDDDyhlljlllsDDDDDDD",
"DDDDDDDDDDfzzjzzllrDDDDDDDDDDDDDDDDDDDDDDDDDDDwpflzlzlllzgkgfrDDDDDDDDDDDDDDDDDDDDDDDDDDDDDDDDDDDDDDDDDDDDDDDDDDilglklllaDDDDDDD",
"DDDDDDDDDDfhzjgllzrDDDDDDDDDDDDDDDDDDDDDDDDDdggglllllllzgfr:DDDDDDDDDDDDDDDDDDDDDDDDDDDDDDDDDDDDDDDDDDDDDDDDDDDDiffkflffaDDDDDDD",
"DDDDDDDDDDdhlzlllleDDDDDDDDDDDDDDDDDDDDDDfllljllggggfffr;%.DDDDDDDDDDDDDDDDDDDDDDDDDDDDDDDDDDDDDDDDDDDDDDDDDDDDDrfgfffffaDDDDDDD",
"DDDDDDDDDDdhjklglfeDDDDDDDDDDDDDDDDDDDffggggllflffggi<&o  DDDDDDDDDDDDDDDDDDDDDDDDDDDDDDDDDDDDDDDDDDDDDDDDDDDDDDrffffgffpDDDDDDD",
"DDDDDDDDDDdhhhlglgeDDDDDDDDDDDDDDDDffflgfffflggffs0=+   DDDDDDDDDDDDDDDDDDDDDDDDDDDDDDDDDDDDDDDDDDDDDDDDDDDDDDDDtfffffffpDDDDDDD",
"DDDDDDDDDDshffhlgfeDDDDDDDDDDDDDfffffffflfffffaw-@  DDDDDDDDDDDDDDDDDDDDDDDDDDDDDDDDDDDDDDDDDDDDDDDDDDDDDDDDDDDDrffffffdaDDDDDDD",
"DDDDDDDDDDdhfhffffeDDDDDDDDDDDDDffffffffffffr:$X DDDDDDDDDDDDDDDDDDDDDDDDDDDDDDDDDDDDDDDDDDDDDDDDDDDDDDDDDDDDDDDrdfffsfdiDDDDDDD",
"DDDDDDDDDDsfffffffwDDDDDDDDDDDDDafffffffft:%X DDDDDDDDDDDDDDDDDDDDDDDDDDDDDDDDDDDDDDDDDDDDDDDDDDDDDDDDDDDDDDDDDDrffsffsfiDDDDDDD",
"DDDDDDDDDDsfffffffeDDDDDDDDDDDDDaffdfda5*+  DDDDDDDDDDDDDDDDDDDDDDDDDDDDDDDDDDDDDDDDDDDDDDDDDDDDDDDDDDDDDDDDDDDDrddfddfduDDDDDDD",
"DDDDDDDDDDpffdfdddwDDDDDDDDDDDDDafsa5=+  DDDDDDDDDDDDDDDDDDDDDDDDDDDDDDDDDDDDDDDDDDDDDDDDDDDDDDDDDDDDDDDDDDDDDDDrsdsddddiDDDDDDD",
"DDDDDDDDDDsddddfdfwDDDDDDDDDDDDDre;#. DDDDDDDDDDDDDDDDDDDDDDDDDDDDDDDDDDDDDDDDDDDDDDDDDDDDDDDDDDDDDDDDDDDDDDDDDDrfsddssduDDDDDDD",
"DDDDDDDDDDpfddddfswDDDDDDDDDDDDDDDDDDDDDDDDDDDDDDDDDDDDDDDDDDDDDDDDDDDDDDDDDDDDDDDDDDDDDDDDDDDDDDDDDDDDDDDDDDDDDessssdssuDDDDDDD",
"DDDDDDDDDDpdddddsdwDDDDDDDDDDDDDDDDDDDDDDDDDDDDDDDDDDDDDDDDDDDDDDDDDDDDDDDDDDDDDDDDDDDDDDDDDDDDDDDDDDDDDDDDDDDDDeassssssuDDDDDDD",
"DDDDDDDDDDpdddsdsd0DDDDDDDDDDDDDDDDDDDDDDDDDDDDDDDDDDDDDDDDDDDDDDDDDDDDDDDDDDDDDDDDDDDDDDDDDDDDDDDDDDDDDDDDDDDDDesssssssuDDDDDDD",
"DDDDDDDDDDidsddsss9DDDDDDDDDDDDDDDDDDDDDDDDDDDDDDDDDDDDDDDDDDDDDDDDDDDDDDDDDDDDDDDDDDDDDDDDDDDDDDDDDDDDDDDDDDDDDwsasasastDDDDDDD",
"DDDDDDDDDDisdsssds9DDDDDDDDDDDDDDDDDDDDDDDDDDDDDDDDDDDDDDDDDDDDDDDDDDDDDDDDDDDDDDDDDDDDDDDDDDDDDDDDDDDDDDDDDDDDDwssaasasrDDDDDDD",
"DDDDDDDDDDasssssss5DDDDDDDDDDDDDDDDDDDDDDDDDDDDDDDDDDDDDDDDDDDDDDDDDDDDDDDDDDDDDDDDDDDDDDDDDDDDDDDDDDDDDDDDDDDDDwapppppprDDDDDDD",
"DDDDDDDDDDiasssssa5DDDDDDDDDDDDDDDDDDDDDDDDDDDDDDDDDDDDDDDDDDDDDDDDDDDDDDDDDDDDDDDDDDDDDDDDDDDDDDDDDDDDDDDDDDDDDwapppppprDDDDDDD",
"DDDDDDDDDDiaasasss5DDDDDDDDDDDDDDDDDDDDDDDDDDDDDDDDDDDDDDDDDDDDDDDDDDDDDDDDDDDDDDDDDDDDDDDDDDDDDDDDDDDDDDDDDDDDDwppppaaarDDDDDDD",
"DDDDDDDDDDipasasaa5DDDDDDDDDDDDDDDDDDDDDDDDDDDDDDDDDDDDDDDDDDDDDDDDDDDDDDDDDDDDDDDDDDDDDDDDDDDDDDDDDDDDDDDDDDDDD0piaiaiaeDDDDDDD",
"DDDDDDDDDDipppppaa5DDDDDDDDDDDDDDDDDDDDDDDDDDDDDDDDDDDDDDDDDDDDDDDDDDDDDDDDDDDDDDDDDDDDDDDDDDDDDDDDDDDDDDDDDDDDD0iaiaiiarDDDDDDD",
"DDDDDDDDDDtapiaaia5DDDDDDDDDDDDDDDDDDDDDDDDDDDDDDDDDDDDDDDDDDDDDDDDDDDDDDDDDDDDDDDDDDDDDDDDDDDDDDDDDDDDDDDDDDDDD0aiiiiiieDDDDDDD",
"DDDDDDDDDDupaipaai2DDDDDDDDDDDDDDDDDDDDDDDDDDDDDDDDDDDDDDDDDDDDDDDDDDDDDDDDDDDDDDDDDDDDDDDDDDDDDDDDDDDDDDDDDDDDD5iiiiyiieDDDDDDD",
"DDDDDDDDDDripiiiai5DDDDDDDDDDDDDDDDDDDDDDDDDDDDDDDDDDDDDDDDDDDDDDDDDDDDDDDDDDDDDDDDDDDDDDDDDDDDDDDDDDDDDDDDDDDDD9iuiiiyieDDDDDDD",
"DDDDDDDDDDriiiiaii1DDDDDDDDDDDDDDDDDDDDDDDDDDDDDDDDDDDDDDDDDDDDDDDDDDDDDDDDDDDDDDDDDDDDDDDDDDDDDDDDDDDDDDDDDDDDD5iiuuiyreDDDDDDD",
"DDDDDDDDDDriiiiiii1DDDDDDDDDDDDDDDDDDDDDDDDDDDDDDDDDDDDDDDDDDDDDDDDDDDDDDDDDDDDDDDDDDDDDDDDDDDDDDDDDDDDDDDDDDDDD5uuyyiyiwDDDDDDD",
"DDDDDDDDDDriiiiiit1DDDDDDDDDDDDDDDDDDDDDDDDDDDDDDDDDDDDDDDDDDDDDDDDDDDDDDDDDDDDDDDDDDDDDDDDDDDDDDDDDDDDDDDDDDDDD5itruyurwDDDDDDD",
"DDDDDDDDDDriiuiuii1DDDDDDDDDDDDDDDDDDDDDDDDDDDDDDDDDDDDDDDDDDDDDDDrirrirrririrriririrriryyytyyyryyyDDDDDDDDDDDDD5rriuryuwDDDDDDD",
"DDDDDDDDDDeititiir1DDDDDDDDDDDDDDDDDDDDDDDDDDDDDDDDDDDDDDDDDDDDDDririirriryiirirriyyiirrryyyyrrryryDDDDDDDDDDDDD5rrrrrrrwDDDDDDD",
"DDDDDDDDDDeituirri1DDDDDDDDDDDDDDDDDDDDDDDDDDDDDDDDDDDDDDDDDDDDDDrrrrrirrrrrrrrrrrryrrrryrrrrrrryrrDDDDDDDDDDDDD5rrrrrrrwDDDDDDD",
"DDDDDDDDDDerrirrrr1DDDDDDDDDDDDDDDDDDDDDDDDDDDDDDDDDDDDDDDDDDDDDDerrrrrrrrrrrrrrrrrrrrrrrrrrrrrrrrrDDDDDDDDDDDDD1rrrrrrr5DDDDDDD",
"DDDDDDDDDDeurrrtrr1DDDDDDDDDDDDDDDDDDDDDDDDDDDDDDDDDDDDDDDDDDDDDD9rrrrrrrrrrrrrrrrrrrrrrrrrrrrrrrrr5DDDDDDDDDDDD1rrrrrre5DDDDDDD",
"DDDDDDDDDDwrrrrrrr:DDDDDDDDDDDDDDDDDDDDDDDDDDDDDDDDDDDDDDDDDDDDDD:wwww5ww5w9w5wwww7ww5ww5qqwqqqw5weDDDDDDDDDDDDD1eeereerwDDDDDDD",
"DDDDDDDDDDwrrrrrrr<DDDDDDDDDDDDDDDDDDDDDDDDDDDDDDDDDDDDDDDDDDDDDDDOooooooooooooooooooooooooooooOODDDDDDDDDDDDDDD1yeyeree5DDDDDDD",
"DDDDDDDDDDerrrrrrr1DDDDDDDDDDDDDDDDDDDDDDDDDDDDDDDDDDDDDDDDDDDDDDDDD                           DDDDDDDDDDDDDDDDD1eeeeeee5DDDDDDD",
"DDDDDDDDDDwreereer:DDDDDDDDDDDDDDDDDDDDDDDDDDDDDDDDDDDDDDDDDDDDDDDDDDDDDDDDDDDDDDDDDDDDDDDDDDDDDDDDDDDDDDDDDDDDD<eeeeeee5DDDDDDD",
"DDDDDDDDDD9yeeeeee<DDDDDDDDDDDDDDDDDDDDDDDDDDDDDDDDDDDDDDDDDDDDDDDDDDDDDDDDDDDDDDDDDDDDDDDDDDDDDDDDDDDDDDDDDDDDD1eewewew5DDDDDDD",
"DDDDDDDDDD9erereee<DDDDDDDDDDDDDDDDDDDDDDDDDDDDDDDDDDDDDDDDDDDDDDDDDDDDDDDDDDDDDDDDDDDDDDDDDDDDDDDDDDDDDDDDDDDDD<eywewwe5DDDDDDD",
"DDDDDDDDDD9eeeeeee:DDDDDDDDDDDDDDDDDDDDDDDDDDDDDDDDDDDDDDDDDDDDDDDDDDDDDDDDDDDDDDDDDDDDDDDDDDDDDDDDDDDDDDDDDDDDD<eqwweww1DDDDDDD",
"DDDDDDDDDD9eeeeeee:DDDDDDDDDDDDDDDDDDDDDDDDDDDDDDDDDDDDDDDDDDDDDDDDDDDDDDDDDDDDDDDDDDDDDDDDDDDDDDDDDDDDDDDDDDDDD1wewweww5DDDDDDD",
"DDDDDDDDDD5eweewee:DDDDDDDDDDDDDDDDDDDDDDDDDDDDDDDDDDDDDDDDDDDDDDDDDDDDDDDDDDDDDDDDDDDDDDDDDDDDDDDDDDDDDDDDDDDDD1wewwwww1DDDDDDD",
"DDDDDDDDDDweewewww:DDDDDDDDDDDDDDDDDDDDDDDDDDDDDDDDDDDDDDDDDDDDDDDDDDDDDDDDDDDDDDDDDDDDDDDDDDDDDDDDDDDDDDDDDDDDD:wwwwwww1DDDDDDD",
"DDDDDDDDDD5wwwweww:DDDDDDDDDDDDDDDDDDDDDDDDDDDDDDDDDDDDDDDDDDDDDDDDDDDDDDDDDDDDDDDDDDDDDDDDDDDDDDDDDDDDDDDDDDDDD:w5wwwww1DDDDDDD",
"DDDDDDDDDD5wwwwwww1DDDDDDDDDDDDDDDDDDDDDDDDDDDDDDDDDDDDDDDDDDDDDDDDDDDDDDDDDDDDDDDDDDDDDDDDDDDDDDDDDDDDDDDDDDDDD1w5w5w5w1DDDDDDD",
"DDDDDDDDDD5wwwwwww51DDDDDDDDDDDDDDDDDDDDDDDDDDDDDDDDDDDDDDDDDDDDDDDDDDDDDDDDDDDDDDDDDDDDDDDDDDDDDDDDDDDDDDDDDDD;5w75w5w51DDDDDDD",
"DDDDDDDDDD5wwqwwwww7w5wwwww5w55ww57669w5w55w5w5w5w5w5ww55ww55w5ww5685w8559w5655ww5w5w555w5w5w55555w5599555755555555w50551DDDDDDD",
"DDDDDDDDDD:w5ww55wwww5w55www5www7w5w8ww87w556w55w5w5ww5ww55ww595w55ww55w5w5586555w55w55w5w55w55575w55w50q759555555655575;DDDDDDD",
"DDDDDDDDDD*5659095505w5ww555ww55w50w5558575w575ww55555555655w5555w555658555955555555555555555555955555555555565555555555DDDDDDDD",
"DDDDDDDDDD@<55595976565555505w575555w5595665555555555555555555555555555555555555555555555555555555555555555555555555555;DDDDDDDD",
"DDDDDDDDDDD&5595555557555555555555565555555555555575555555555555555555555555555555555525555553525555555525552552545355:DDDDDDDDD",
"DDDDDDDDDDD *55955555555555555555555555555555555555555554555555555552555555555355552545254555155555554152515555515453:&DDDDDDDDD",
"DDDDDDDDDDDD.&,95555555555555555545555555555555555555255555555155551555551555553555455455315153511515155545115155155;$DDDDDDDDDD",
"DDDDDDDDDDDD  @=11515451551551515335151552335145135115511451155144431112151115141151111415112214111112111111111111;&ODDDDDDDDDDD",
"DDDDDDDDDDDDD   o@###############################################################################################+XDDDDDDDDDDDDD",
"DDDDDDDDDDDDDDD                                                                                                   DDDDDDDDDDDDDD",
"DDDDDDDDDDDDDDDDDDDD                                                                                         DDDDDDDDDDDDDDDDDDD",
"DDDDDDDDDDDDDDDDDDDDDDDDDDDDDDDDDDDDDDDDDDDDDDDDDDDDDDDDDDDDDDDDDDDDDDDDDDDDDDDDDDDDDDDDDDDDDDDDDDDDDDDDDDDDDDDDDDDDDDDDDDDDDDDD",
"DDDDDDDDDDDDDDDDDDDDDDDDDDDDDDDDDDDDDDDDDDDDDDDDDDDDDDDDDDDDDDDDDDDDDDDDDDDDDDDDDDDDDDDDDDDDDDDDDDDDDDDDDDDDDDDDDDDDDDDDDDDDDDDD",
"DDDDDDDDDDDDDDDDDDDDDDDDDDDDDDDDDDDDDDDDDDDDDDDDDDDDDDDDDDDDDDDDDDDDDDDDDDDDDDDDDDDDDDDDDDDDDDDDDDDDDDDDDDDDDDDDDDDDDDDDDDDDDDDD",
"DDDDDDDDDDDDDDDDDDDDDDDDDDDDDDDDDDDDDDDDDDDDDDDDDDDDDDDDDDDDDDDDDDDDDDDDDDDDDDDDDDDDDDDDDDDDDDDDDDDDDDDDDDDDDDDDDDDDDDDDDDDDDDDD",
"DDDDDDDDDDDDDDDDDDDDDDDDDDDDDDDDDDDDDDDDDDDDDDDDDDDDDDDDDDDDDDDDDDDDDDDDDDDDDDDDDDDDDDDDDDDDDDDDDDDDDDDDDDDDDDDDDDDDDDDDDDDDDDDD",
"DDDDDDDDDDDDDDDDDDDDDDDDDDDDDDDDDDDDDDDDDDDDDDDDDDDDDDDDDDDDDDDDDDDDDDDDDDDDDDDDDDDDDDDDDDDDDDDDDDDDDDDDDDDDDDDDDDDDDDDDDDDDDDDD",
"DDDDDDDDDDDDDDDDDDDDDDDDDDDDDDDDDDDDDDDDDDDDDDDDDDDDDDDDDDDDDDDDDDDDDDDDDDDDDDDDDDDDDDDDDDDDDDDDDDDDDDDDDDDDDDDDDDDDDDDDDDDDDDDD",
"DDDDDDDDDDDDDDDDDDDDDDDDDDDDDDDDDDDDDDDDDDDDDDDDDDDDDDDDDDDDDDDDDDDDDDDDDDDDDDDDDDDDDDDDDDDDDDDDDDDDDDDDDDDDDDDDDDDDDDDDDDDDDDDD",
"DDDDDDDDDDDDDDDDDDDDDDDDDDDDDDDDDDDDDDDDDDDDDDDDDDDDDDDDDDDDDDDDDDDDDDDDDDDDDDDDDDDDDDDDDDDDDDDDDDDDDDDDDDDDDDDDDDDDDDDDDDDDDDDD",
"DDDDDDDDDDDDDDDDDDDDDDDDDDDDDDDDDDDDDDDDDDDDDDDDDDDDDDDDDDDDDDDDDDDDDDDDDDDDDDDDDDDDDDDDDDDDDDDDDDDDDDDDDDDDDDDDDDDDDDDDDDDDDDDD",
"DDDDDDDDDDDDDDDDDDDDDDDDDDDDDDDDDDDDDDDDDDDDDDDDDDDDDDDDDDDDDDDDDDDDDDDDDDDDDDDDDDDDDDDDDDDDDDDDDDDDDDDDDDDDDDDDDDDDDDDDDDDDDDDD",
"DDDDDDDDDDDDDDDDDDDDDDDDDDDDDDDDDDDDDDDDDDDDDDDDDDDDDDDDDDDDDDDDDDDDDDDDDDDDDDDDDDDDDDDDDDDDDDDDDDDDDDDDDDDDDDDDDDDDDDDDDDDDDDDD",
"DDDDDDDDDDDDDDDDDDDDDDDDDDDDDDDDDDDDDDDDDDDDDDDDDDDDDDDDDDDDDDDDDDDDDDDDDDDDDDDDDDDDDDDDDDDDDDDDDDDDDDDDDDDDDDDDDDDDDDDDDDDDDDDD",
"DDDDDDDDDDDDDDDDDDDDDDDDDDDDDDDDDDDDDDDDDDDDDDDDDDDDDDDDDDDDDDDDDDDDDDDDDDDDDDDDDDDDDDDDDDDDDDDDDDDDDDDDDDDDDDDDDDDDDDDDDDDDDDDD",
"DDDDDDDDDDDDDDDDDDDDDDDDDDDDDDDDDDDDDDDDDDDDDDDDDDDDDDDDDDDDDDDDDDDDDDDDDDDDDDDDDDDDDDDDDDDDDDDDDDDDDDDDDDDDDDDDDDDDDDDDDDDDDDDD",
"DDDDDDDDDDDDDDDDDDDDDDDDDDDDDDDDDDDDDDDDDDDDDDDDDDDDDDDDDDDDDDDDDDDDDDDDDDDDDDDDDDDDDDDDDDDDDDDDDDDDDDDDDDDDDDDDDDDDDDDDDDDDDDDD"
};
